<svg id="svg" version="1.1" xmlns="http://www.w3.org/2000/svg" xmlns:xlink="http://www.w3.org/1999/xlink" width="400" height="400" viewBox="0, 0, 400,400"><g id="svgg"><path id="path0" d="M194.988 0.419 C 194.846 0.650,194.430 0.789,194.065 0.729 C 193.086 0.568,192.400 1.134,192.681 1.867 C 192.850 2.308,192.751 2.445,192.364 2.305 C 192.054 2.192,191.845 1.898,191.900 1.650 C 191.955 1.403,191.865 1.200,191.700 1.200 C 191.535 1.200,191.452 16.320,191.514 34.800 C 191.593 57.788,191.498 68.400,191.214 68.400 C 190.401 68.400,190.817 69.589,191.709 69.813 C 192.934 70.120,196.012 69.851,197.000 69.350 C 198.126 68.779,201.992 68.939,202.384 69.573 C 202.642 69.991,202.745 69.986,202.920 69.545 C 203.074 69.158,203.146 69.145,203.168 69.500 C 203.186 69.775,203.391 70.000,203.624 70.000 C 203.857 70.000,203.912 69.775,203.747 69.500 C 203.518 69.118,203.583 69.106,204.023 69.447 C 204.340 69.693,206.033 69.931,207.784 69.975 C 209.536 70.020,211.156 70.175,211.384 70.319 C 211.613 70.464,212.880 70.721,214.200 70.890 C 215.520 71.060,217.381 71.303,218.336 71.429 C 219.291 71.556,220.857 71.996,221.816 72.407 C 222.775 72.818,224.000 73.075,224.537 72.977 C 225.178 72.861,225.597 73.016,225.756 73.429 C 225.903 73.813,226.365 74.009,226.943 73.934 C 227.463 73.866,228.211 74.078,228.606 74.405 C 229.000 74.732,229.430 74.955,229.561 74.901 C 230.061 74.693,232.400 75.305,232.400 75.645 C 232.400 75.840,232.760 76.000,233.200 76.000 C 233.640 76.000,234.000 76.180,234.000 76.400 C 234.000 76.620,234.433 76.800,234.962 76.800 C 235.930 76.800,239.285 78.341,239.533 78.900 C 239.607 79.065,240.012 79.200,240.433 79.200 C 240.855 79.200,241.200 79.380,241.200 79.600 C 241.200 79.820,241.455 80.000,241.767 80.000 C 242.078 80.000,242.396 80.188,242.473 80.418 C 242.549 80.648,243.002 80.865,243.478 80.901 C 243.955 80.937,244.273 81.082,244.186 81.223 C 244.099 81.364,244.516 81.730,245.114 82.037 C 245.711 82.344,246.470 82.883,246.800 83.235 C 247.130 83.587,247.593 83.809,247.829 83.728 C 248.065 83.647,248.588 83.945,248.991 84.390 C 249.394 84.836,249.972 85.200,250.275 85.200 C 250.577 85.200,250.926 85.463,251.050 85.785 C 251.173 86.106,251.603 86.474,252.005 86.602 C 252.407 86.729,253.408 87.449,254.230 88.202 C 255.052 88.955,255.876 89.477,256.062 89.362 C 256.248 89.247,256.400 89.320,256.400 89.525 C 256.400 89.729,257.016 90.319,257.770 90.835 C 258.523 91.352,259.053 91.915,258.946 92.087 C 258.840 92.259,258.988 92.404,259.276 92.409 C 259.564 92.414,260.430 93.155,261.200 94.056 C 261.970 94.957,264.085 97.193,265.900 99.026 C 267.715 100.859,269.200 102.548,269.200 102.779 C 269.200 103.011,269.380 103.200,269.600 103.200 C 269.820 103.200,270.000 103.382,270.000 103.604 C 270.000 103.826,270.540 104.572,271.200 105.263 C 271.860 105.954,272.400 106.792,272.400 107.126 C 272.400 107.460,272.511 107.622,272.648 107.486 C 273.018 107.115,274.000 108.242,274.000 109.038 C 274.000 109.420,274.117 109.616,274.260 109.473 C 274.403 109.330,275.057 110.305,275.714 111.639 C 276.370 112.974,277.141 114.156,277.428 114.266 C 277.715 114.376,277.845 114.739,277.716 115.073 C 277.588 115.407,277.677 115.800,277.914 115.947 C 278.462 116.286,280.800 120.709,280.800 121.407 C 280.800 121.697,280.990 121.997,281.222 122.074 C 281.454 122.151,281.705 122.481,281.781 122.807 C 282.130 124.318,282.523 125.200,282.847 125.200 C 283.041 125.200,283.200 125.740,283.200 126.400 C 283.200 127.060,283.380 127.600,283.600 127.600 C 283.820 127.600,284.000 127.949,284.000 128.376 C 284.000 128.803,284.180 129.264,284.400 129.400 C 284.620 129.536,284.800 130.087,284.800 130.624 C 284.800 131.161,284.980 131.600,285.200 131.600 C 285.420 131.600,285.600 132.140,285.600 132.800 C 285.600 133.460,285.780 134.000,286.000 134.000 C 286.220 134.000,286.400 134.720,286.400 135.600 C 286.400 136.480,286.580 137.200,286.800 137.200 C 287.020 137.200,287.200 137.931,287.200 138.824 C 287.200 139.804,287.358 140.349,287.600 140.200 C 287.844 140.049,288.000 140.655,288.000 141.753 C 288.000 142.743,288.180 143.664,288.400 143.800 C 288.620 143.936,288.800 145.297,288.800 146.824 C 288.800 148.408,288.972 149.600,289.200 149.600 C 289.461 149.600,289.600 155.875,289.600 167.624 C 289.600 177.537,289.753 185.552,289.941 185.437 C 290.128 185.321,290.319 187.695,290.364 190.713 C 290.410 193.731,290.616 196.260,290.824 196.333 C 291.031 196.407,291.200 197.712,291.200 199.233 C 291.200 200.989,291.362 202.000,291.643 202.000 C 291.886 202.000,291.993 202.242,291.879 202.537 C 291.766 202.833,291.904 204.183,292.187 205.537 C 292.470 206.892,292.611 208.000,292.501 208.000 C 292.392 208.000,292.489 208.225,292.717 208.500 C 292.945 208.775,293.136 209.180,293.142 209.400 C 293.160 210.130,294.055 213.389,294.430 214.095 C 294.634 214.477,294.800 215.141,294.800 215.571 C 294.800 216.001,294.980 216.464,295.200 216.600 C 295.420 216.736,295.600 217.377,295.600 218.024 C 295.600 218.671,295.780 219.200,296.000 219.200 C 296.220 219.200,296.400 219.549,296.400 219.976 C 296.400 220.403,296.580 220.864,296.800 221.000 C 297.020 221.136,297.200 221.697,297.200 222.247 C 297.200 222.812,297.374 223.140,297.600 223.000 C 297.834 222.855,298.000 223.270,298.000 224.000 C 298.000 224.730,298.166 225.145,298.400 225.000 C 298.627 224.860,298.800 225.196,298.800 225.776 C 298.800 226.339,298.980 226.800,299.200 226.800 C 299.420 226.800,299.600 227.160,299.600 227.600 C 299.600 228.040,299.780 228.400,300.000 228.400 C 300.220 228.400,300.400 228.760,300.400 229.200 C 300.400 229.640,300.580 230.000,300.800 230.000 C 301.020 230.000,301.200 230.360,301.200 230.800 C 301.200 231.240,301.380 231.600,301.600 231.600 C 301.820 231.600,302.000 231.960,302.000 232.400 C 302.000 232.840,302.180 233.200,302.400 233.200 C 302.620 233.200,302.800 233.560,302.800 234.000 C 302.800 234.440,302.935 234.801,303.100 234.803 C 303.459 234.807,304.400 236.744,304.400 237.480 C 304.400 237.766,304.580 238.000,304.800 238.000 C 305.020 238.000,305.200 238.236,305.200 238.525 C 305.200 238.813,305.560 239.436,306.000 239.908 C 306.440 240.380,306.800 240.878,306.800 241.015 C 306.800 241.263,309.168 243.587,310.761 244.900 C 311.227 245.285,311.877 245.600,312.205 245.600 C 312.532 245.600,312.800 245.780,312.800 246.000 C 312.800 246.220,313.149 246.400,313.576 246.400 C 314.003 246.400,314.464 246.580,314.600 246.800 C 314.743 247.032,316.930 247.200,319.800 247.200 C 322.670 247.200,324.857 247.032,325.000 246.800 C 325.136 246.580,325.597 246.400,326.024 246.400 C 326.451 246.400,326.800 246.220,326.800 246.000 C 326.800 245.780,327.160 245.600,327.600 245.600 C 328.040 245.600,328.400 245.420,328.400 245.200 C 328.400 244.980,328.675 244.800,329.011 244.800 C 329.755 244.800,332.786 241.804,333.568 240.295 C 333.880 239.693,334.285 239.200,334.468 239.200 C 334.650 239.200,334.800 238.840,334.800 238.400 C 334.800 237.960,334.980 237.600,335.200 237.600 C 335.420 237.600,335.600 236.981,335.600 236.224 C 335.600 235.467,335.780 234.736,336.000 234.600 C 336.510 234.285,336.527 228.687,336.019 228.179 C 335.810 227.970,335.593 227.124,335.537 226.299 C 335.482 225.475,335.293 224.800,335.118 224.800 C 334.943 224.800,334.800 224.440,334.800 224.000 C 334.800 223.560,334.620 223.200,334.400 223.200 C 334.180 223.200,334.000 222.840,334.000 222.400 C 334.000 221.960,333.820 221.600,333.600 221.600 C 333.380 221.600,333.200 221.240,333.200 220.800 C 333.200 220.360,333.020 220.000,332.800 220.000 C 332.580 220.000,332.400 219.640,332.400 219.200 C 332.400 218.760,332.265 218.399,332.100 218.397 C 331.741 218.393,330.800 216.456,330.800 215.720 C 330.800 215.434,330.620 215.200,330.400 215.200 C 330.180 215.200,330.000 214.840,330.000 214.400 C 330.000 213.960,329.865 213.599,329.700 213.597 C 329.361 213.593,328.400 211.674,328.400 211.000 C 328.400 210.326,327.439 208.407,327.100 208.403 C 326.935 208.401,326.800 207.860,326.800 207.200 C 326.800 206.540,326.620 206.000,326.400 206.000 C 326.180 206.000,326.000 205.561,326.000 205.024 C 326.000 204.487,325.820 203.936,325.600 203.800 C 325.380 203.664,325.200 203.023,325.200 202.376 C 325.200 201.729,325.053 201.200,324.873 201.200 C 324.693 201.200,324.516 200.705,324.480 200.100 C 324.444 199.495,324.222 198.010,323.986 196.800 C 323.751 195.590,323.413 193.049,323.235 191.152 C 323.057 189.256,322.802 187.528,322.669 187.311 C 322.535 187.094,322.408 177.891,322.386 166.858 C 322.363 154.720,322.200 146.800,321.974 146.800 C 321.768 146.800,321.600 145.731,321.600 144.424 C 321.600 143.117,321.420 141.936,321.200 141.800 C 320.980 141.664,320.800 140.393,320.800 138.976 C 320.800 137.525,320.625 136.400,320.400 136.400 C 320.180 136.400,320.000 135.601,320.000 134.624 C 320.000 133.647,319.820 132.736,319.600 132.600 C 319.380 132.464,319.200 131.633,319.200 130.753 C 319.200 129.788,319.041 129.251,318.800 129.400 C 318.559 129.549,318.400 129.012,318.400 128.047 C 318.400 127.167,318.220 126.336,318.000 126.200 C 317.780 126.064,317.600 125.333,317.600 124.576 C 317.600 123.819,317.453 123.200,317.272 123.200 C 317.092 123.200,316.696 122.289,316.393 121.175 C 316.090 120.061,315.697 119.060,315.521 118.951 C 315.344 118.842,315.200 118.313,315.200 117.776 C 315.200 117.239,315.020 116.800,314.800 116.800 C 314.580 116.800,314.400 116.361,314.400 115.824 C 314.400 115.287,314.220 114.736,314.000 114.600 C 313.780 114.464,313.600 114.020,313.600 113.614 C 313.600 112.816,311.991 109.485,311.500 109.267 C 311.335 109.193,311.200 108.788,311.200 108.367 C 311.200 107.945,311.020 107.600,310.800 107.600 C 310.580 107.600,310.400 107.240,310.400 106.800 C 310.400 106.360,310.220 106.000,310.000 106.000 C 309.780 106.000,309.600 105.539,309.600 104.976 C 309.600 104.396,309.427 104.060,309.200 104.200 C 308.967 104.344,308.800 103.937,308.800 103.224 C 308.800 102.551,308.665 101.997,308.500 101.993 C 308.335 101.990,307.660 100.896,307.000 99.563 C 306.340 98.230,305.530 96.829,305.200 96.449 C 304.287 95.400,303.600 94.082,303.600 93.382 C 303.600 93.036,303.420 92.864,303.200 93.000 C 302.980 93.136,302.800 92.967,302.800 92.624 C 302.800 92.281,302.620 92.000,302.400 92.000 C 302.180 92.000,302.000 91.757,302.000 91.459 C 302.000 91.162,301.460 90.354,300.800 89.663 C 300.140 88.972,299.600 88.241,299.600 88.038 C 299.600 87.834,299.060 87.158,298.400 86.535 C 297.740 85.912,297.200 85.076,297.200 84.678 C 297.200 84.279,297.020 84.064,296.800 84.200 C 296.580 84.336,296.400 84.167,296.400 83.824 C 296.400 83.481,296.242 83.200,296.049 83.200 C 295.855 83.200,295.474 82.662,295.202 82.005 C 294.930 81.348,294.548 80.909,294.354 81.029 C 294.159 81.149,294.000 81.081,294.000 80.877 C 294.000 80.673,292.965 79.410,291.700 78.069 C 290.435 76.729,288.805 74.905,288.077 74.016 C 287.350 73.127,286.577 72.400,286.359 72.400 C 285.792 72.400,284.001 70.532,284.291 70.242 C 284.424 70.109,284.325 70.000,284.070 70.000 C 283.814 70.000,282.331 68.740,280.772 67.200 C 279.214 65.660,277.767 64.400,277.558 64.400 C 277.349 64.400,276.597 63.855,275.889 63.190 C 273.550 60.994,271.017 59.098,269.900 58.707 C 269.295 58.495,268.800 58.159,268.800 57.961 C 268.800 57.762,268.612 57.600,268.383 57.600 C 268.154 57.600,267.580 57.240,267.108 56.800 C 266.636 56.360,266.013 56.000,265.725 56.000 C 265.436 56.000,265.200 55.820,265.200 55.600 C 265.200 55.380,264.795 55.197,264.300 55.194 C 263.572 55.189,263.515 55.114,264.000 54.800 C 264.485 54.486,264.428 54.411,263.700 54.406 C 263.205 54.403,262.800 54.220,262.800 54.000 C 262.800 53.780,262.528 53.600,262.195 53.600 C 261.610 53.600,260.010 52.842,259.600 52.370 C 259.490 52.244,258.635 51.716,257.700 51.197 C 256.765 50.677,256.000 50.140,256.000 50.002 C 256.000 49.864,255.080 49.515,253.955 49.227 C 252.531 48.862,252.075 48.598,252.455 48.358 C 252.870 48.094,252.816 48.011,252.228 48.006 C 251.165 47.998,248.800 47.110,248.800 46.720 C 248.800 46.544,248.339 46.400,247.776 46.400 C 247.196 46.400,246.860 46.227,247.000 46.000 C 247.145 45.766,246.730 45.600,246.000 45.600 C 245.270 45.600,244.855 45.434,245.000 45.200 C 245.144 44.967,244.745 44.800,244.047 44.800 C 243.387 44.800,242.734 44.617,242.596 44.393 C 242.458 44.170,242.196 44.079,242.014 44.191 C 241.832 44.304,241.182 44.136,240.570 43.818 C 239.958 43.501,239.309 43.332,239.129 43.444 C 238.948 43.556,238.800 43.464,238.800 43.239 C 238.800 42.757,235.745 41.879,232.100 41.314 C 231.385 41.203,230.800 40.989,230.800 40.838 C 230.800 40.687,230.125 40.519,229.300 40.464 C 228.475 40.410,227.740 40.193,227.667 39.982 C 227.593 39.772,226.906 39.600,226.140 39.600 C 225.374 39.600,224.413 39.421,224.005 39.203 C 223.597 38.984,222.169 38.781,220.831 38.750 C 219.494 38.720,218.400 38.539,218.400 38.348 C 218.400 38.156,217.860 38.000,217.200 38.000 L 216.000 38.000 215.953 24.900 C 215.927 17.695,215.930 11.655,215.960 11.479 C 215.990 11.302,215.749 10.892,215.424 10.567 C 215.100 10.242,214.938 9.707,215.064 9.376 C 215.195 9.037,214.927 8.457,214.447 8.041 C 213.981 7.637,213.600 7.117,213.600 6.886 C 213.600 5.967,208.512 1.248,208.036 1.724 C 207.687 2.073,207.520 1.980,207.353 1.343 C 207.024 0.082,195.718 -0.763,194.988 0.419 M183.200 14.867 C 183.200 15.270,183.391 15.600,183.624 15.600 C 183.857 15.600,183.936 15.420,183.800 15.200 C 183.664 14.980,183.743 14.800,183.976 14.800 C 184.209 14.800,184.400 14.650,184.400 14.467 C 184.400 14.283,184.130 14.133,183.800 14.133 C 183.470 14.133,183.200 14.463,183.200 14.867 M183.776 27.000 C 183.776 33.160,183.832 35.624,183.899 32.476 C 183.967 29.327,183.967 24.287,183.899 21.276 C 183.831 18.264,183.776 20.840,183.776 27.000 M189.021 68.835 C 189.124 69.000,188.732 69.510,188.150 69.968 C 187.568 70.426,187.284 70.800,187.517 70.800 C 187.751 70.800,188.219 70.524,188.557 70.186 C 188.895 69.848,189.302 69.583,189.461 69.597 C 189.620 69.611,189.786 69.377,189.830 69.078 C 189.874 68.778,189.668 68.533,189.372 68.533 C 189.077 68.533,188.919 68.669,189.021 68.835 M194.948 69.285 C 194.795 69.531,194.568 69.476,194.356 69.143 C 194.071 68.692,194.011 68.696,194.006 69.167 C 194.003 69.478,193.892 69.625,193.760 69.493 C 193.341 69.074,194.002 68.426,194.611 68.659 C 194.932 68.783,195.084 69.064,194.948 69.285 M172.800 73.600 C 171.976 73.864,171.941 73.926,172.600 73.954 C 173.040 73.973,173.670 73.813,174.000 73.600 C 174.701 73.147,174.214 73.147,172.800 73.600 M346.200 284.400 C 346.064 284.620,345.493 284.800,344.931 284.800 C 343.931 284.800,340.731 286.306,340.467 286.900 C 340.393 287.065,340.096 287.200,339.807 287.200 C 339.153 287.200,336.400 289.908,336.400 290.552 C 336.400 290.811,336.040 291.283,335.600 291.600 C 335.160 291.917,334.800 292.407,334.800 292.688 C 334.800 292.970,334.620 293.200,334.400 293.200 C 334.180 293.200,334.000 293.729,334.000 294.376 C 334.000 295.023,333.820 295.664,333.600 295.800 C 333.358 295.950,333.200 298.804,333.200 303.024 C 333.200 307.408,333.051 310.000,332.800 310.000 C 332.580 310.000,332.400 310.362,332.400 310.805 C 332.400 311.646,331.755 312.983,330.900 313.913 C 330.625 314.212,330.400 314.605,330.400 314.786 C 330.400 315.317,328.293 317.352,327.114 317.960 C 326.516 318.268,326.122 318.673,326.237 318.860 C 326.353 319.047,326.077 319.200,325.624 319.200 C 325.171 319.200,324.800 319.380,324.800 319.600 C 324.800 319.820,324.440 320.000,324.000 320.000 C 323.560 320.000,323.200 320.180,323.200 320.400 C 323.200 320.622,322.133 320.800,320.800 320.800 C 319.467 320.800,318.400 320.978,318.400 321.200 C 318.400 321.465,297.000 321.600,255.000 321.600 L 191.600 321.600 191.600 337.145 L 191.600 352.690 194.100 352.931 C 195.475 353.064,200.785 353.295,205.900 353.446 C 211.015 353.596,215.200 353.837,215.200 353.980 C 215.200 354.123,214.975 354.482,214.700 354.779 C 214.296 355.214,214.307 355.256,214.762 354.997 C 215.178 354.759,215.232 354.822,214.968 355.238 C 214.569 355.868,214.521 356.053,214.450 357.224 C 214.423 357.677,214.258 357.960,214.085 357.852 C 213.912 357.745,213.733 358.104,213.688 358.650 C 213.563 360.152,212.912 361.133,210.282 363.781 C 208.961 365.111,208.015 365.962,208.182 365.670 C 208.577 364.978,206.760 365.950,206.289 366.683 C 206.119 366.949,205.695 367.058,205.349 366.925 C 205.003 366.792,204.584 366.903,204.418 367.171 C 204.253 367.438,203.686 367.722,203.159 367.800 C 202.631 367.879,201.750 368.062,201.200 368.206 C 200.424 368.411,200.334 368.374,200.800 368.041 C 201.271 367.704,201.099 367.617,200.000 367.634 C 198.856 367.652,198.746 367.719,199.400 368.000 C 200.052 368.280,200.075 368.349,199.524 368.372 C 199.152 368.387,198.755 368.250,198.642 368.067 C 198.529 367.884,197.802 367.756,197.028 367.781 C 196.160 367.810,195.538 367.615,195.406 367.273 C 195.289 366.967,194.925 366.820,194.597 366.946 C 194.222 367.090,194.000 366.939,194.000 366.541 C 194.000 366.104,193.752 365.972,193.200 366.116 C 192.644 366.261,192.390 366.123,192.368 365.663 C 192.350 365.283,192.254 365.204,192.142 365.478 C 192.036 365.741,192.146 366.326,192.388 366.778 C 192.683 367.328,192.691 367.600,192.414 367.600 C 192.186 367.600,192.000 367.390,192.000 367.133 C 192.000 366.877,191.902 366.765,191.782 366.885 C 191.662 367.005,191.576 374.132,191.591 382.722 C 191.609 393.414,191.482 398.426,191.189 398.607 C 190.890 398.792,190.902 399.041,191.230 399.436 C 191.863 400.199,192.400 400.147,192.400 399.324 C 192.400 398.713,192.452 398.718,192.931 399.373 C 193.426 400.050,194.068 400.083,202.431 399.858 C 212.488 399.587,212.400 399.593,212.400 399.133 C 212.400 398.950,213.030 398.800,213.800 398.800 C 214.570 398.800,215.201 398.665,215.203 398.500 C 215.205 398.335,215.655 397.992,216.204 397.737 C 216.958 397.387,217.138 397.387,216.942 397.737 C 216.779 398.027,216.884 398.013,217.221 397.700 C 217.518 397.425,218.084 397.200,218.480 397.200 C 218.876 397.200,219.200 397.020,219.200 396.800 C 219.200 396.580,219.560 396.400,220.000 396.400 C 220.440 396.400,220.800 396.220,220.800 396.000 C 220.800 395.780,221.160 395.600,221.600 395.600 C 222.040 395.600,222.400 395.454,222.400 395.275 C 222.400 395.096,223.030 394.702,223.800 394.400 C 224.570 394.098,225.200 393.704,225.200 393.525 C 225.200 393.346,225.436 393.200,225.725 393.200 C 226.013 393.200,226.688 392.810,227.225 392.333 C 229.552 390.265,230.112 389.830,229.844 390.295 C 229.216 391.386,230.642 390.294,231.432 389.080 C 231.890 388.376,232.430 387.822,232.632 387.850 C 233.116 387.915,237.161 383.695,236.882 383.415 C 236.764 383.297,236.967 383.200,237.333 383.200 C 237.734 383.200,238.000 382.880,238.000 382.396 C 238.000 381.954,238.351 381.292,238.780 380.925 C 239.208 380.558,239.450 380.082,239.318 379.867 C 239.182 379.647,239.283 379.604,239.549 379.768 C 239.994 380.043,241.101 377.836,240.887 377.100 C 240.839 376.935,240.980 376.800,241.200 376.800 C 241.420 376.800,241.600 376.519,241.600 376.176 C 241.600 375.807,241.788 375.669,242.062 375.838 C 242.336 376.007,242.415 375.949,242.258 375.694 C 242.112 375.458,242.277 374.980,242.625 374.632 C 242.973 374.285,243.134 374.000,242.983 374.000 C 242.832 374.000,242.999 373.556,243.354 373.014 C 243.709 372.472,244.000 371.752,244.000 371.414 C 244.000 371.076,244.180 370.800,244.400 370.800 C 244.620 370.800,244.800 370.170,244.800 369.400 C 244.800 368.630,244.980 368.000,245.200 368.000 C 245.420 368.000,245.600 367.561,245.600 367.024 C 245.600 366.487,245.780 365.936,246.000 365.800 C 246.220 365.664,246.400 364.933,246.400 364.176 C 246.400 363.419,246.567 362.800,246.771 362.800 C 246.974 362.800,247.227 361.315,247.331 359.500 C 247.435 357.685,247.593 355.660,247.681 355.000 L 247.841 353.800 287.321 353.698 C 313.176 353.631,326.800 353.459,326.800 353.198 C 326.800 352.979,327.700 352.800,328.800 352.800 C 329.900 352.800,330.800 352.620,330.800 352.400 C 330.800 352.180,331.329 352.000,331.976 352.000 C 332.623 352.000,333.264 351.820,333.400 351.600 C 333.536 351.380,334.087 351.200,334.624 351.200 C 335.161 351.200,335.600 351.020,335.600 350.800 C 335.600 350.580,336.140 350.400,336.800 350.400 C 337.460 350.400,338.001 350.265,338.001 350.100 C 338.002 349.935,338.992 349.350,340.200 348.800 C 341.408 348.250,342.398 347.665,342.399 347.500 C 342.399 347.335,342.720 347.200,343.112 347.200 C 343.503 347.200,344.083 346.840,344.400 346.400 C 344.717 345.960,345.180 345.600,345.429 345.600 C 345.678 345.600,346.446 345.060,347.137 344.400 C 347.828 343.740,348.675 343.200,349.020 343.200 C 349.365 343.200,349.536 343.020,349.400 342.800 C 349.264 342.580,349.388 342.397,349.676 342.393 C 350.155 342.386,352.129 340.386,356.380 335.600 C 357.259 334.610,357.983 333.485,357.989 333.100 C 357.995 332.715,358.180 332.400,358.400 332.400 C 358.620 332.400,358.800 332.080,358.800 331.688 C 358.800 331.297,359.160 330.717,359.600 330.400 C 360.040 330.083,360.400 329.503,360.400 329.112 C 360.400 328.720,360.580 328.400,360.800 328.400 C 361.020 328.400,361.200 328.040,361.200 327.600 C 361.200 327.160,361.380 326.800,361.600 326.800 C 361.820 326.800,362.000 326.528,362.000 326.195 C 362.000 325.862,362.180 325.232,362.400 324.795 C 362.620 324.358,362.980 323.642,363.200 323.205 C 363.420 322.768,363.600 322.136,363.600 321.800 C 363.600 321.464,363.758 320.877,363.951 320.495 C 364.622 319.165,365.200 316.935,365.200 315.672 C 365.200 314.972,365.380 314.400,365.600 314.400 C 365.853 314.400,366.000 311.533,366.000 306.600 C 366.000 301.667,365.853 298.800,365.600 298.800 C 365.380 298.800,365.200 297.900,365.200 296.800 C 365.200 295.700,365.020 294.800,364.800 294.800 C 364.580 294.800,364.400 294.440,364.400 294.000 C 364.400 293.560,364.220 293.200,364.000 293.200 C 363.780 293.200,363.600 292.930,363.600 292.600 C 363.600 292.270,363.420 292.000,363.200 292.000 C 362.980 292.000,362.800 291.725,362.800 291.389 C 362.800 289.615,356.048 284.800,353.559 284.800 C 352.922 284.800,352.400 284.620,352.400 284.400 C 352.400 284.169,351.141 284.000,349.424 284.000 C 347.787 284.000,346.336 284.180,346.200 284.400 M184.800 353.753 C 184.800 354.083,184.980 354.464,185.200 354.600 C 185.420 354.736,185.600 354.577,185.600 354.247 C 185.600 353.917,185.420 353.536,185.200 353.400 C 184.980 353.264,184.800 353.423,184.800 353.753 M187.805 362.298 C 187.878 362.684,187.953 363.135,187.969 363.300 C 187.986 363.465,188.315 363.586,188.700 363.568 C 189.118 363.550,189.199 363.456,188.900 363.335 C 188.625 363.224,188.400 362.889,188.400 362.590 C 188.400 362.292,188.236 361.946,188.035 361.822 C 187.834 361.698,187.731 361.912,187.805 362.298 M188.373 399.217 C 188.121 399.373,188.384 399.500,188.957 399.500 C 189.531 399.500,190.000 399.373,190.000 399.217 C 190.000 399.061,189.737 398.933,189.416 398.933 C 189.094 398.933,188.625 399.061,188.373 399.217 " stroke="none" fill="#46b4fc" fill-rule="evenodd"></path><path id="path1" d="M120.000 66.600 C 119.483 67.150,119.232 67.600,119.442 67.600 C 119.652 67.600,120.076 67.250,120.385 66.821 C 120.693 66.393,121.093 66.134,121.273 66.245 C 121.453 66.356,121.600 66.257,121.600 66.024 C 121.600 65.323,120.995 65.541,120.000 66.600 M113.120 74.300 C 113.303 75.263,113.251 75.336,112.700 74.881 C 112.215 74.480,112.003 74.472,111.774 74.842 C 111.573 75.168,111.646 75.219,112.000 75.000 C 112.346 74.786,112.427 74.833,112.238 75.138 C 112.081 75.392,111.616 75.600,111.203 75.600 C 110.791 75.600,110.343 75.951,110.206 76.380 C 110.070 76.808,109.608 77.270,109.180 77.406 C 108.751 77.543,108.400 77.848,108.400 78.084 C 108.400 78.480,107.830 79.158,104.700 82.490 C 104.095 83.135,103.600 83.766,103.600 83.894 C 103.600 84.216,100.270 88.569,99.898 88.734 C 99.731 88.808,99.697 89.033,99.821 89.234 C 99.945 89.435,99.846 89.600,99.600 89.600 C 99.354 89.600,99.255 89.765,99.379 89.966 C 99.503 90.167,99.379 90.423,99.102 90.534 C 98.703 90.695,98.703 90.743,99.100 90.768 C 99.705 90.807,99.779 92.000,99.176 92.000 C 98.943 92.000,98.863 91.822,98.997 91.605 C 99.135 91.382,98.983 91.308,98.650 91.436 C 98.324 91.561,98.123 91.999,98.202 92.409 C 98.307 92.953,98.173 93.088,97.707 92.909 C 97.300 92.753,97.168 92.824,97.343 93.107 C 97.494 93.351,97.298 93.736,96.908 93.963 C 96.519 94.190,96.389 94.381,96.620 94.388 C 96.851 94.395,97.211 94.229,97.420 94.020 C 97.935 93.505,97.731 230.360,97.215 230.982 C 96.788 231.496,96.815 233.238,97.245 232.972 C 97.399 232.877,97.429 232.432,97.311 231.983 C 97.173 231.455,97.274 231.207,97.596 231.283 C 98.048 231.389,98.375 230.657,98.490 229.283 C 98.514 228.998,98.751 228.849,99.016 228.951 C 99.583 229.168,100.606 227.457,100.252 226.883 C 100.118 226.667,100.285 226.261,100.623 225.981 C 100.960 225.701,101.146 225.236,101.035 224.947 C 100.925 224.659,101.053 224.193,101.322 223.912 C 102.031 223.167,102.844 221.195,102.603 220.804 C 102.488 220.619,102.599 220.400,102.848 220.317 C 103.097 220.234,103.333 219.814,103.373 219.383 C 103.437 218.676,103.979 217.224,104.783 215.600 C 104.947 215.270,105.021 214.613,104.949 214.140 C 104.875 213.655,105.072 213.181,105.402 213.055 C 105.723 212.931,105.894 212.589,105.781 212.294 C 105.668 211.999,105.849 211.102,106.183 210.301 C 106.518 209.500,106.685 208.565,106.553 208.222 C 106.410 207.849,106.531 207.598,106.857 207.594 C 107.276 207.589,107.263 207.499,106.800 207.200 C 106.400 206.942,106.367 206.810,106.700 206.806 C 106.988 206.803,107.200 206.290,107.200 205.600 C 107.200 204.940,107.349 204.400,107.532 204.400 C 107.714 204.400,107.884 203.485,107.910 202.367 C 107.935 201.249,108.168 200.079,108.427 199.767 C 108.764 199.361,108.771 199.200,108.449 199.200 C 108.202 199.200,108.000 199.009,108.000 198.776 C 108.000 198.543,108.163 198.453,108.362 198.576 C 108.560 198.699,108.730 197.899,108.739 196.799 C 108.747 195.698,108.877 194.599,109.027 194.357 C 109.500 193.591,109.665 189.513,109.211 189.793 C 108.985 189.933,108.800 189.777,108.800 189.447 C 108.800 189.117,108.978 188.737,109.195 188.603 C 109.446 188.448,109.580 182.416,109.561 172.124 C 109.539 160.127,109.654 155.814,110.000 155.600 C 110.522 155.277,110.512 154.817,109.969 154.163 C 109.770 153.923,109.737 153.597,109.895 153.438 C 110.054 153.280,110.231 151.856,110.290 150.275 C 110.349 148.694,110.522 147.130,110.674 146.800 C 111.010 146.072,111.063 145.621,111.147 142.800 C 111.190 141.340,111.332 140.789,111.568 141.162 C 111.809 141.543,111.910 141.229,111.881 140.190 C 111.856 139.313,112.044 138.585,112.319 138.494 C 112.583 138.406,112.800 137.819,112.800 137.190 C 112.800 136.562,112.983 135.934,113.207 135.796 C 113.430 135.658,113.508 135.374,113.379 135.166 C 113.250 134.957,112.979 134.889,112.777 135.014 C 112.575 135.139,112.522 134.947,112.660 134.587 C 112.861 134.064,112.979 134.039,113.250 134.466 C 113.498 134.858,113.589 134.782,113.594 134.180 C 113.597 133.729,113.375 133.120,113.100 132.826 C 112.689 132.386,112.778 132.333,113.600 132.526 C 114.497 132.736,114.528 132.706,113.900 132.236 C 112.945 131.521,112.977 130.417,113.945 130.670 C 114.403 130.790,114.788 130.607,114.946 130.196 C 115.247 129.412,114.903 128.689,114.383 129.010 C 114.169 129.143,114.015 118.109,114.006 101.970 C 113.997 86.975,113.874 74.520,113.733 74.291 C 113.584 74.051,113.671 73.996,113.938 74.162 C 114.192 74.319,114.400 74.276,114.400 74.066 C 114.400 73.759,113.512 73.200,113.023 73.200 C 112.961 73.200,113.005 73.695,113.120 74.300 M116.196 124.807 C 116.058 125.030,115.807 125.128,115.639 125.024 C 115.471 124.920,115.333 125.094,115.333 125.411 C 115.333 125.823,115.474 125.870,115.828 125.577 C 116.174 125.289,116.384 125.321,116.530 125.683 C 116.644 125.967,116.751 125.795,116.768 125.300 C 116.802 124.332,116.598 124.156,116.196 124.807 M115.167 126.500 C 114.920 127.240,115.025 128.392,115.329 128.290 C 115.861 128.113,116.104 126.400,115.597 126.400 C 115.379 126.400,115.185 126.445,115.167 126.500 M95.800 235.200 C 95.936 235.420,95.797 235.600,95.490 235.600 C 95.184 235.600,94.933 235.870,94.933 236.200 C 94.933 236.949,94.996 236.947,95.771 236.171 C 96.495 235.448,96.592 234.800,95.976 234.800 C 95.743 234.800,95.664 234.980,95.800 235.200 M97.600 337.600 L 97.600 353.600 107.100 353.533 C 112.325 353.496,115.970 353.398,115.200 353.315 L 113.800 353.164 113.909 337.782 L 114.018 322.400 115.409 322.400 C 116.174 322.400,116.800 322.220,116.800 322.000 C 116.800 321.744,113.333 321.600,107.200 321.600 L 97.600 321.600 97.600 337.600 " stroke="none" fill="#1cdcfc" fill-rule="evenodd"></path><path id="path2" d="M122.500 64.088 C 122.005 64.327,121.600 64.679,121.600 64.870 C 121.600 65.062,122.050 64.924,122.600 64.563 C 124.067 63.602,124.016 63.357,122.500 64.088 M94.874 95.638 C 93.844 97.567,93.785 97.872,94.600 97.057 C 94.930 96.727,95.200 96.174,95.200 95.829 C 95.200 95.483,95.361 95.200,95.557 95.200 C 95.754 95.200,96.018 94.930,96.145 94.600 C 96.635 93.323,95.704 94.083,94.874 95.638 M82.867 122.842 C 82.267 123.802,82.585 124.457,83.484 124.113 C 84.063 123.890,84.050 123.824,83.371 123.558 C 82.697 123.294,82.688 123.253,83.300 123.228 C 84.019 123.199,84.251 122.602,83.680 122.249 C 83.504 122.141,83.138 122.407,82.867 122.842 M81.738 125.417 C 81.431 126.216,81.945 126.737,82.366 126.055 C 82.606 125.667,82.744 125.743,82.903 126.351 C 83.107 127.130,82.357 128.224,81.920 127.787 C 81.807 127.673,81.463 127.890,81.157 128.267 C 80.788 128.721,80.769 128.852,81.100 128.653 C 81.375 128.488,81.600 128.543,81.600 128.776 C 81.600 129.009,81.450 129.200,81.267 129.200 C 81.083 129.200,80.933 129.467,80.933 129.794 C 80.933 130.243,81.063 130.280,81.467 129.945 C 81.871 129.609,82.000 129.648,82.000 130.108 C 82.000 130.442,81.690 130.833,81.311 130.979 C 80.736 131.199,80.717 131.301,81.192 131.595 C 81.505 131.789,81.933 131.841,82.143 131.712 C 82.352 131.582,82.395 131.685,82.238 131.939 C 82.037 132.263,81.726 132.282,81.202 132.001 C 80.085 131.403,80.033 131.463,80.165 133.200 C 80.254 134.368,80.134 134.800,79.722 134.800 C 79.285 134.800,79.194 135.294,79.317 136.981 C 79.433 138.556,79.328 139.219,78.939 139.368 C 78.642 139.482,78.400 139.771,78.400 140.011 C 78.400 140.251,78.608 140.319,78.862 140.162 C 79.154 139.981,79.215 140.052,79.027 140.356 C 78.547 141.133,78.456 143.778,78.900 144.057 C 79.133 144.204,78.942 144.510,78.454 144.771 C 77.533 145.264,77.329 146.185,78.043 146.626 C 78.341 146.811,78.397 146.622,78.216 146.050 C 78.056 145.546,78.120 145.200,78.373 145.200 C 78.917 145.200,78.933 146.670,78.393 147.004 C 78.170 147.142,78.108 147.451,78.255 147.689 C 78.419 147.954,78.337 148.008,78.044 147.827 C 77.548 147.520,77.761 152.090,78.283 152.934 C 78.415 153.148,78.334 153.206,78.102 153.063 C 77.837 152.900,77.628 153.458,77.540 154.563 C 77.463 155.531,77.498 156.263,77.617 156.190 C 77.736 156.116,77.860 156.403,77.892 156.828 C 77.957 157.687,77.374 157.881,77.075 157.100 C 76.969 156.825,76.861 162.688,76.834 170.128 C 76.804 178.576,76.928 183.568,77.165 183.422 C 77.374 183.293,77.661 183.374,77.802 183.603 C 77.944 183.832,77.829 183.970,77.548 183.910 C 76.826 183.755,76.812 187.230,77.534 187.507 C 77.866 187.634,77.913 187.807,77.659 187.964 C 77.434 188.103,77.160 189.185,77.050 190.369 C 76.940 191.553,76.667 192.635,76.443 192.773 C 76.220 192.911,76.091 194.061,76.157 195.327 C 76.246 197.042,76.125 197.714,75.682 197.962 C 75.296 198.178,75.157 198.665,75.288 199.348 C 75.399 199.926,75.371 200.400,75.226 200.400 C 75.082 200.400,74.919 200.985,74.865 201.700 C 74.677 204.183,74.598 204.601,74.273 204.840 C 74.094 204.972,73.907 205.350,73.859 205.680 C 73.810 206.010,73.462 206.751,73.085 207.326 C 72.708 207.901,72.400 208.612,72.400 208.906 C 72.400 209.200,72.175 209.682,71.900 209.979 C 71.500 210.410,71.500 210.461,71.900 210.235 C 72.175 210.080,72.400 210.143,72.400 210.376 C 72.400 210.609,72.232 210.800,72.026 210.800 C 71.820 210.800,71.424 211.430,71.146 212.200 C 70.867 212.970,70.495 213.600,70.320 213.600 C 70.144 213.600,70.000 213.960,70.000 214.400 C 70.000 214.840,69.812 215.200,69.582 215.200 C 69.353 215.200,69.194 215.425,69.230 215.700 C 69.367 216.753,69.183 217.237,68.748 216.968 C 68.472 216.797,68.374 216.904,68.496 217.244 C 68.606 217.550,68.404 218.146,68.048 218.569 C 67.645 219.047,67.604 219.218,67.940 219.020 C 68.377 218.764,68.393 218.865,68.026 219.552 C 67.776 220.018,67.379 220.400,67.143 220.400 C 66.907 220.400,66.813 220.657,66.933 220.971 C 67.054 221.285,66.895 221.755,66.581 222.016 C 66.266 222.277,66.108 222.652,66.230 222.848 C 66.351 223.045,66.169 223.314,65.825 223.446 C 65.481 223.578,65.200 223.908,65.200 224.181 C 65.200 224.453,64.840 225.002,64.400 225.400 C 63.960 225.798,63.600 226.366,63.600 226.662 C 63.600 226.958,63.465 227.201,63.300 227.203 C 62.935 227.207,62.000 229.149,62.000 229.903 C 62.000 230.202,61.801 230.324,61.557 230.174 C 61.259 229.989,61.203 230.178,61.384 230.750 C 61.579 231.365,61.484 231.600,61.040 231.600 C 60.658 231.600,60.512 231.827,60.655 232.200 C 60.782 232.530,60.691 232.800,60.453 232.800 C 59.886 232.800,58.698 235.111,59.007 235.612 C 59.139 235.825,59.057 236.000,58.824 236.000 C 58.591 236.000,58.400 236.270,58.400 236.600 C 58.400 236.930,58.220 237.200,58.000 237.200 C 57.780 237.200,57.600 237.558,57.600 237.997 C 57.600 238.435,57.240 239.018,56.800 239.293 C 56.360 239.568,56.000 240.109,56.000 240.496 C 56.000 240.883,55.820 241.200,55.600 241.200 C 55.380 241.200,55.229 241.335,55.265 241.500 C 55.353 241.912,54.420 244.135,54.051 244.392 C 53.886 244.506,53.132 245.860,52.376 247.400 C 51.619 248.940,50.865 250.260,50.700 250.333 C 50.535 250.407,50.400 250.686,50.400 250.954 C 50.400 251.663,49.451 253.593,49.100 253.597 C 48.935 253.599,48.800 253.960,48.800 254.400 C 48.800 254.840,48.620 255.200,48.400 255.200 C 48.180 255.200,48.000 255.560,48.000 256.000 C 48.000 256.440,47.820 256.800,47.600 256.800 C 47.380 256.800,47.200 257.160,47.200 257.600 C 47.200 258.040,47.064 258.400,46.898 258.400 C 46.731 258.400,46.360 258.985,46.071 259.700 C 45.783 260.415,45.379 261.313,45.174 261.695 C 44.968 262.077,44.800 262.762,44.800 263.218 C 44.800 263.674,44.620 263.936,44.400 263.800 C 44.174 263.660,44.000 263.988,44.000 264.553 C 44.000 265.103,43.808 265.672,43.573 265.817 C 43.338 265.962,43.237 266.320,43.349 266.611 C 43.461 266.903,43.292 267.358,42.973 267.623 C 42.654 267.887,42.281 268.805,42.144 269.661 C 42.007 270.517,41.739 271.314,41.547 271.432 C 41.356 271.551,41.200 272.177,41.200 272.824 C 41.200 273.471,41.020 274.000,40.800 274.000 C 40.580 274.000,40.400 274.439,40.400 274.976 C 40.400 275.513,40.220 276.064,40.000 276.200 C 39.780 276.336,39.600 276.876,39.600 277.400 C 39.600 277.924,39.420 278.464,39.200 278.600 C 38.980 278.736,38.800 279.467,38.800 280.224 C 38.800 280.981,38.620 281.600,38.400 281.600 C 38.180 281.600,38.000 282.140,38.000 282.800 C 38.000 283.460,37.820 284.000,37.600 284.000 C 37.380 284.000,37.200 284.720,37.200 285.600 C 37.200 286.480,37.037 287.200,36.839 287.200 C 36.640 287.200,36.379 288.055,36.260 289.100 C 35.894 292.299,35.528 293.997,35.156 294.227 C 34.960 294.348,34.800 295.326,34.800 296.400 C 34.800 297.474,34.620 298.464,34.400 298.600 C 33.891 298.915,33.856 314.281,34.364 314.467 C 34.565 314.540,34.778 315.320,34.839 316.200 C 34.899 317.080,35.078 317.980,35.235 318.200 C 35.393 318.420,35.585 319.050,35.661 319.600 C 35.737 320.150,35.934 320.700,36.098 320.822 C 36.262 320.945,36.436 321.530,36.485 322.122 C 36.534 322.715,36.715 323.200,36.887 323.200 C 37.059 323.200,37.200 323.573,37.200 324.029 C 37.200 324.484,37.472 325.129,37.804 325.461 C 38.136 325.793,38.305 326.230,38.180 326.432 C 38.055 326.635,38.099 326.800,38.279 326.800 C 38.622 326.800,39.595 328.748,39.555 329.355 C 39.542 329.551,39.691 329.821,39.885 329.955 C 40.577 330.435,42.000 332.734,42.000 333.374 C 42.000 333.732,42.270 334.129,42.600 334.255 C 42.930 334.382,43.200 334.644,43.200 334.838 C 43.200 335.679,48.294 341.177,49.500 341.637 C 49.995 341.826,50.400 342.255,50.400 342.590 C 50.400 342.933,50.750 343.200,51.200 343.200 C 51.640 343.200,52.000 343.380,52.000 343.600 C 52.000 343.820,52.193 344.000,52.429 344.000 C 53.068 344.000,54.004 345.058,53.681 345.417 C 53.526 345.588,53.610 345.608,53.868 345.460 C 54.125 345.313,54.607 345.464,54.939 345.796 C 55.271 346.128,55.746 346.400,55.995 346.400 C 56.244 346.400,56.336 346.580,56.200 346.800 C 56.064 347.020,56.308 347.200,56.743 347.200 C 57.178 347.200,57.596 347.388,57.673 347.618 C 57.749 347.848,58.202 348.065,58.678 348.101 C 59.155 348.137,59.456 348.309,59.349 348.483 C 59.241 348.657,59.534 348.800,60.000 348.800 C 60.466 348.800,60.737 348.978,60.603 349.195 C 60.463 349.422,60.623 349.489,60.976 349.354 C 61.340 349.214,61.694 349.381,61.839 349.759 C 62.003 350.184,62.416 350.340,63.064 350.223 C 63.678 350.111,64.125 350.261,64.264 350.623 C 64.386 350.940,64.816 351.200,65.219 351.200 C 65.623 351.200,66.076 351.399,66.226 351.643 C 66.417 351.951,66.604 351.921,66.844 351.543 C 67.113 351.119,67.189 351.113,67.194 351.518 C 67.197 351.802,67.425 352.006,67.700 351.970 C 68.776 351.830,69.637 352.017,69.434 352.345 C 69.316 352.535,69.913 352.691,70.760 352.691 C 71.607 352.691,72.547 352.846,72.850 353.035 C 73.735 353.589,80.048 353.659,80.695 353.121 C 81.131 352.760,81.332 352.767,81.571 353.153 C 81.807 353.534,82.445 353.564,84.240 353.275 C 86.200 352.961,86.345 352.888,85.100 352.848 L 83.600 352.800 83.600 337.624 L 83.600 322.448 85.100 322.291 C 86.281 322.168,86.133 322.119,84.400 322.062 C 81.535 321.967,80.144 321.608,80.866 321.151 C 81.279 320.889,81.247 320.811,80.724 320.806 C 80.352 320.803,79.936 320.980,79.800 321.200 C 79.664 321.420,79.338 321.597,79.076 321.594 C 78.786 321.590,78.834 321.428,79.200 321.177 C 79.667 320.856,79.535 320.779,78.600 320.825 C 76.716 320.919,76.333 320.832,76.617 320.373 C 76.762 320.139,76.637 319.980,76.340 320.021 C 75.257 320.169,74.759 319.990,75.032 319.548 C 75.202 319.273,75.094 319.171,74.756 319.287 C 74.450 319.392,73.814 319.067,73.342 318.564 C 72.870 318.061,72.405 317.728,72.308 317.825 C 72.106 318.027,69.807 315.543,69.803 315.117 C 69.801 314.962,69.477 314.598,69.082 314.309 C 68.687 314.021,68.334 313.383,68.297 312.892 C 68.260 312.402,68.088 312.000,67.915 312.000 C 67.742 312.000,67.600 311.550,67.600 311.000 C 67.600 310.450,67.420 310.000,67.200 310.000 C 66.754 310.000,66.630 302.704,67.068 302.266 C 67.215 302.118,67.404 301.323,67.487 300.499 C 67.571 299.675,67.810 298.940,68.019 298.867 C 68.229 298.793,68.400 298.108,68.400 297.344 C 68.400 295.588,69.189 292.400,69.624 292.400 C 69.804 292.400,69.904 291.905,69.845 291.300 C 69.786 290.695,70.022 289.854,70.369 289.431 C 70.896 288.789,70.901 288.719,70.400 289.008 C 69.902 289.295,69.885 289.249,70.297 288.740 C 70.570 288.403,70.700 288.034,70.587 287.920 C 70.473 287.807,70.655 287.486,70.990 287.208 C 71.326 286.930,71.600 286.274,71.600 285.751 C 71.600 285.228,71.780 284.800,72.000 284.800 C 72.220 284.800,72.400 284.609,72.400 284.376 C 72.400 284.143,72.192 284.081,71.938 284.238 C 71.622 284.434,71.587 284.347,71.828 283.962 C 72.021 283.653,72.184 283.130,72.189 282.800 C 72.195 282.470,72.448 282.253,72.751 282.317 C 73.129 282.397,73.234 282.175,73.087 281.610 C 72.967 281.152,73.133 280.524,73.461 280.196 C 73.786 279.872,73.938 279.423,73.800 279.199 C 73.661 278.975,73.920 278.320,74.374 277.742 C 75.295 276.571,75.466 275.793,74.700 276.253 C 74.301 276.493,74.300 276.429,74.697 275.940 C 74.970 275.603,75.079 275.212,74.939 275.073 C 74.800 274.933,74.981 274.705,75.343 274.567 C 75.704 274.428,76.000 274.064,76.000 273.757 C 76.000 273.451,76.163 273.200,76.363 273.200 C 76.562 273.200,76.631 272.840,76.516 272.400 C 76.370 271.844,76.504 271.600,76.953 271.600 C 77.333 271.600,77.600 271.270,77.600 270.800 C 77.600 270.360,77.749 270.000,77.932 270.000 C 78.115 270.000,78.244 269.383,78.219 268.630 C 78.194 267.876,78.309 267.344,78.475 267.446 C 78.641 267.549,78.891 267.175,79.032 266.616 C 79.172 266.057,79.447 265.600,79.643 265.600 C 79.840 265.600,80.000 265.229,80.000 264.776 C 80.000 264.323,80.153 264.047,80.340 264.163 C 80.526 264.278,80.716 263.794,80.761 263.086 C 80.899 260.923,80.922 260.828,81.273 261.045 C 81.460 261.161,81.509 261.423,81.383 261.628 C 81.256 261.832,81.395 262.000,81.691 262.000 C 81.987 262.000,82.229 261.653,82.229 261.229 C 82.229 260.806,82.106 260.534,81.956 260.627 C 81.806 260.720,81.578 260.520,81.449 260.183 C 81.316 259.836,81.470 259.471,81.804 259.343 C 82.129 259.218,82.272 258.910,82.121 258.658 C 81.962 258.393,82.117 258.419,82.488 258.719 C 82.919 259.069,83.214 259.101,83.388 258.819 C 83.531 258.589,83.487 258.400,83.290 258.400 C 83.094 258.400,82.933 258.146,82.933 257.836 C 82.933 257.493,83.237 257.330,83.708 257.421 C 84.218 257.519,84.553 257.302,84.688 256.785 C 84.801 256.353,85.063 256.000,85.270 256.000 C 85.478 256.000,85.543 255.831,85.415 255.625 C 85.288 255.418,85.412 255.103,85.692 254.925 C 86.823 254.202,87.168 252.968,86.258 252.899 C 85.775 252.863,85.609 252.958,85.871 253.120 C 86.214 253.332,86.203 253.581,85.826 254.096 C 85.548 254.477,85.189 254.655,85.027 254.494 C 84.866 254.332,84.792 254.380,84.864 254.600 C 84.935 254.820,84.697 255.422,84.333 255.937 C 83.349 257.333,83.385 260.471,83.600 190.509 C 83.726 149.740,83.659 125.418,83.420 125.180 C 82.845 124.605,82.004 124.724,81.738 125.417 M108.267 199.867 C 108.120 200.013,108.015 200.598,108.034 201.167 C 108.068 202.181,108.075 202.179,108.421 201.020 C 108.785 199.803,108.731 199.402,108.267 199.867 " stroke="none" fill="#0de7fc" fill-rule="evenodd"></path><path id="path3" d="M98.466 91.150 C 98.041 91.420,98.068 91.540,98.599 91.744 C 99.530 92.101,99.600 92.077,99.600 91.400 C 99.600 90.727,99.255 90.651,98.466 91.150 M96.571 93.647 C 96.360 93.988,96.476 94.056,96.955 93.873 C 97.363 93.716,97.542 93.770,97.397 94.005 C 97.263 94.222,96.893 94.400,96.576 94.400 C 95.867 94.400,95.839 94.853,96.500 95.620 C 96.920 96.107,96.907 96.120,96.420 95.700 C 95.557 94.956,95.258 95.089,95.376 96.165 C 95.439 96.736,95.302 97.062,95.041 96.965 C 94.587 96.795,93.600 98.534,93.600 99.503 C 93.600 99.802,93.420 99.936,93.200 99.800 C 92.980 99.664,92.800 99.913,92.800 100.353 C 92.800 100.793,92.610 101.270,92.379 101.413 C 92.147 101.556,92.027 101.880,92.111 102.133 C 92.195 102.385,91.845 102.922,91.332 103.325 C 90.813 103.733,90.400 104.489,90.400 105.029 C 90.400 105.563,90.249 106.000,90.064 106.000 C 89.879 106.000,89.490 106.720,89.200 107.600 C 88.910 108.480,88.521 109.200,88.336 109.200 C 88.151 109.200,88.000 109.560,88.000 110.000 C 88.000 110.440,87.850 110.800,87.667 110.800 C 87.483 110.800,87.313 111.025,87.288 111.300 C 87.200 112.275,86.200 114.800,85.902 114.800 C 85.398 114.800,85.564 115.919,86.100 116.135 C 86.375 116.246,86.173 116.351,85.651 116.368 C 84.811 116.396,84.765 116.478,85.251 117.077 C 85.706 117.637,85.707 117.697,85.257 117.427 C 84.842 117.177,84.778 117.300,84.984 117.950 C 85.182 118.573,85.084 118.800,84.619 118.800 C 84.160 118.800,84.035 119.077,84.166 119.800 C 84.286 120.461,84.165 120.800,83.809 120.800 C 83.265 120.800,83.209 121.742,83.722 122.255 C 84.215 122.748,84.019 123.199,83.300 123.228 C 82.701 123.252,82.716 123.306,83.400 123.600 C 84.134 123.915,83.684 124.203,82.700 124.047 C 82.138 123.959,82.398 124.606,83.100 125.045 C 83.763 125.459,83.790 128.885,83.600 190.470 C 83.490 226.213,83.458 255.760,83.529 256.130 C 83.771 257.382,87.998 251.453,88.102 249.717 C 88.112 249.543,88.408 249.162,88.760 248.870 C 89.245 248.469,89.255 248.415,88.800 248.647 C 88.167 248.971,88.639 248.209,89.904 246.869 C 90.181 246.576,90.305 246.170,90.180 245.968 C 90.055 245.765,90.122 245.600,90.330 245.600 C 90.537 245.600,90.810 245.285,90.936 244.900 C 91.062 244.515,91.622 243.432,92.180 242.493 C 92.739 241.555,93.153 240.655,93.101 240.493 C 92.949 240.024,94.245 238.378,94.536 238.669 C 94.681 238.814,94.800 238.554,94.800 238.090 C 94.800 237.627,94.989 237.131,95.219 236.988 C 95.501 236.814,95.469 236.521,95.119 236.095 C 94.667 235.543,94.719 235.492,95.523 235.699 C 96.198 235.873,96.343 235.811,96.063 235.469 C 95.678 234.997,96.496 233.829,96.916 234.250 C 97.027 234.360,97.052 233.776,96.972 232.950 C 96.892 232.125,96.999 231.242,97.210 230.988 C 97.721 230.372,97.754 93.451,97.243 93.281 C 97.040 93.213,96.737 93.378,96.571 93.647 M82.100 126.225 C 81.514 126.860,81.457 127.464,81.955 127.772 C 82.495 128.106,83.134 127.086,82.851 126.342 C 82.641 125.791,82.518 125.772,82.100 126.225 M80.907 130.444 C 80.872 130.907,81.052 131.078,81.427 130.934 C 82.142 130.660,82.184 129.733,81.480 129.733 C 81.194 129.733,80.936 130.053,80.907 130.444 M78.319 145.414 C 78.174 145.559,78.163 145.960,78.296 146.305 C 78.454 146.718,78.377 146.833,78.068 146.642 C 77.811 146.483,77.600 146.543,77.600 146.776 C 77.600 147.410,78.392 147.287,78.650 146.613 C 78.923 145.902,78.687 145.046,78.319 145.414 M77.600 151.776 C 77.600 152.313,77.747 152.844,77.928 152.955 C 78.108 153.067,78.177 152.627,78.082 151.979 C 77.872 150.549,77.600 150.435,77.600 151.776 M76.832 188.313 C 76.850 188.952,76.957 189.153,77.092 188.800 C 77.217 188.470,77.488 188.090,77.694 187.956 C 77.899 187.821,77.782 187.602,77.434 187.468 C 76.947 187.282,76.807 187.478,76.832 188.313 M98.571 229.153 C 98.691 229.347,98.432 229.961,97.995 230.516 C 97.099 231.654,97.000 232.229,97.633 232.620 C 97.896 232.783,98.016 232.596,97.939 232.144 C 97.870 231.735,98.126 230.955,98.507 230.411 C 99.302 229.277,99.382 228.800,98.776 228.800 C 98.543 228.800,98.451 228.959,98.571 229.153 M82.933 257.800 C 82.933 258.057,83.173 258.267,83.467 258.267 C 83.760 258.267,84.000 258.057,84.000 257.800 C 84.000 257.543,83.760 257.333,83.467 257.333 C 83.173 257.333,82.933 257.543,82.933 257.800 M82.094 258.574 C 82.255 258.765,82.114 259.121,81.780 259.365 C 81.239 259.761,81.243 259.896,81.816 260.605 C 82.170 261.042,82.354 261.190,82.226 260.932 C 82.098 260.675,82.259 260.198,82.585 259.872 C 83.109 259.349,83.097 259.218,82.489 258.753 C 82.110 258.463,81.932 258.383,82.094 258.574 M80.890 261.819 C 80.845 262.359,80.986 262.800,81.202 262.800 C 81.418 262.800,81.541 262.445,81.474 262.010 C 81.292 260.817,80.982 260.715,80.890 261.819 M84.000 322.000 C 85.733 322.175,86.100 322.285,85.100 322.331 L 83.600 322.400 83.600 337.600 L 83.600 352.800 85.100 352.857 L 86.600 352.914 85.000 353.200 C 84.040 353.372,86.240 353.509,90.500 353.543 L 97.600 353.600 97.600 337.600 L 97.600 321.600 89.500 321.669 C 84.174 321.714,82.290 321.828,84.000 322.000 " stroke="none" fill="#14dcfc" fill-rule="evenodd"></path><path id="path4" d="M191.221 2.067 C 190.788 2.470,190.246 2.800,190.017 2.800 C 189.788 2.800,189.600 2.980,189.600 3.200 C 189.600 3.420,189.351 3.600,189.046 3.600 C 188.374 3.600,187.202 5.299,187.194 6.286 C 187.189 6.893,187.130 6.910,186.800 6.400 C 186.471 5.891,186.411 5.910,186.406 6.524 C 186.403 6.922,186.258 7.160,186.085 7.052 C 185.912 6.945,185.733 7.301,185.688 7.842 C 185.643 8.383,185.281 9.176,184.882 9.604 C 184.472 10.044,184.114 11.111,184.058 12.062 C 184.004 12.986,183.851 13.918,183.718 14.133 C 183.584 14.350,183.682 14.396,183.938 14.238 C 184.192 14.081,184.400 14.143,184.400 14.376 C 184.400 14.609,184.209 14.800,183.976 14.800 C 183.743 14.800,183.664 14.980,183.800 15.200 C 183.936 15.420,183.857 15.600,183.624 15.600 C 183.336 15.600,183.200 19.184,183.200 26.800 C 183.200 36.467,183.118 38.007,182.600 38.050 C 181.470 38.144,181.266 38.200,180.967 38.500 C 180.802 38.665,179.807 38.800,178.757 38.800 C 177.707 38.800,176.748 38.961,176.626 39.158 C 176.505 39.355,175.729 39.610,174.903 39.725 C 174.076 39.840,172.590 40.133,171.600 40.376 C 170.610 40.618,169.125 40.927,168.300 41.061 C 167.475 41.195,166.800 41.462,166.800 41.653 C 166.800 41.844,166.304 42.000,165.698 42.000 C 165.092 42.000,163.337 42.469,161.798 43.042 C 160.259 43.615,158.280 44.270,157.400 44.498 C 156.520 44.725,155.629 45.066,155.420 45.255 C 155.211 45.445,154.761 45.606,154.420 45.613 C 154.079 45.619,152.725 46.159,151.410 46.813 C 150.096 47.466,148.780 48.000,148.487 48.000 C 148.193 48.000,148.064 48.180,148.200 48.400 C 148.336 48.620,148.122 48.800,147.724 48.799 C 147.025 48.798,143.608 50.344,143.200 50.846 C 143.090 50.981,142.616 51.212,142.148 51.358 C 141.679 51.504,140.890 51.975,140.396 52.404 C 139.901 52.832,139.340 53.087,139.148 52.968 C 138.957 52.850,138.800 52.943,138.800 53.176 C 138.800 53.409,138.564 53.600,138.275 53.600 C 137.987 53.600,137.364 53.960,136.892 54.400 C 136.420 54.840,135.756 55.200,135.417 55.200 C 135.078 55.200,134.800 55.380,134.800 55.600 C 134.800 55.820,134.564 56.000,134.275 56.000 C 133.987 56.000,133.364 56.360,132.892 56.800 C 132.420 57.240,131.835 57.600,131.593 57.600 C 131.351 57.600,131.247 57.753,131.363 57.940 C 131.478 58.127,131.084 58.531,130.486 58.839 C 129.889 59.147,129.272 59.579,129.115 59.799 C 128.958 60.020,128.688 60.201,128.515 60.201 C 128.131 60.203,125.448 62.234,124.034 63.594 C 123.465 64.141,122.910 64.606,122.800 64.628 C 121.836 64.824,121.286 65.359,121.493 65.899 C 121.633 66.264,121.569 66.428,121.341 66.287 C 121.124 66.153,120.693 66.393,120.385 66.821 C 120.076 67.250,119.503 67.600,119.112 67.600 C 118.720 67.600,118.400 67.858,118.400 68.173 C 118.400 68.488,118.037 68.861,117.594 69.002 C 117.151 69.143,116.892 69.425,117.018 69.630 C 117.145 69.834,116.791 70.175,116.232 70.388 C 115.498 70.667,115.288 70.964,115.477 71.457 C 115.663 71.941,115.574 72.078,115.169 71.927 C 114.856 71.811,114.258 72.045,113.841 72.448 C 113.154 73.110,113.144 73.204,113.741 73.433 C 114.103 73.572,114.400 73.857,114.400 74.066 C 114.400 74.276,114.192 74.319,113.938 74.162 C 113.671 73.996,113.584 74.051,113.733 74.291 C 113.874 74.520,113.997 86.938,114.005 101.887 C 114.019 124.839,114.108 129.067,114.578 129.067 C 114.949 129.067,115.113 128.653,115.068 127.833 C 115.019 126.942,115.172 126.612,115.619 126.642 C 115.961 126.665,116.265 126.339,116.297 125.912 C 116.341 125.328,116.230 125.243,115.844 125.563 C 115.470 125.874,115.333 125.833,115.333 125.411 C 115.333 125.094,115.440 124.901,115.571 124.982 C 116.000 125.247,117.077 124.217,117.385 123.248 C 117.611 122.536,117.560 122.377,117.181 122.612 C 116.846 122.819,116.776 122.762,116.974 122.442 C 117.203 122.071,117.418 122.080,117.912 122.481 C 118.332 122.821,118.455 122.836,118.268 122.524 C 118.111 122.262,118.232 121.814,118.538 121.529 C 119.010 121.088,118.997 120.935,118.447 120.504 C 117.861 120.046,117.866 120.021,118.500 120.242 C 119.121 120.458,119.285 120.237,119.166 119.345 C 119.147 119.204,119.282 118.979,119.466 118.845 C 119.866 118.552,120.623 117.374,121.295 116.000 C 121.564 115.450,121.967 114.868,122.192 114.706 C 122.457 114.515,122.460 114.408,122.200 114.400 C 121.980 114.393,122.034 114.239,122.320 114.058 C 122.606 113.876,122.869 113.347,122.904 112.881 C 122.939 112.415,123.047 112.114,123.144 112.211 C 123.439 112.505,124.374 111.050,124.387 110.276 C 124.394 109.878,124.580 109.664,124.800 109.800 C 125.020 109.936,125.200 109.767,125.200 109.424 C 125.200 109.081,125.410 108.800,125.667 108.800 C 125.923 108.800,126.034 108.701,125.913 108.580 C 125.792 108.458,126.302 107.713,127.046 106.924 C 127.791 106.134,128.400 105.283,128.400 105.032 C 128.400 104.782,128.760 104.317,129.200 104.000 C 129.640 103.683,130.000 103.183,130.000 102.888 C 130.000 102.594,130.167 102.456,130.371 102.582 C 130.575 102.708,130.857 102.449,130.998 102.006 C 131.139 101.563,131.432 101.200,131.651 101.200 C 131.869 101.200,131.936 101.020,131.800 100.800 C 131.664 100.580,131.800 100.400,132.101 100.400 C 132.682 100.400,134.654 98.010,134.494 97.500 C 134.442 97.335,134.588 97.200,134.818 97.200 C 135.401 97.200,137.205 95.339,136.909 95.042 C 136.776 94.909,136.885 94.800,137.152 94.800 C 137.420 94.800,138.080 94.324,138.619 93.742 C 139.159 93.159,139.600 92.783,139.600 92.906 C 139.600 93.028,140.405 92.380,141.390 91.464 C 142.374 90.549,144.267 88.990,145.597 88.000 C 146.927 87.010,148.377 85.905,148.818 85.544 C 149.259 85.184,150.156 84.667,150.810 84.396 C 151.465 84.125,152.000 83.745,152.000 83.551 C 152.000 83.358,152.236 83.200,152.525 83.200 C 152.813 83.200,153.407 82.885,153.845 82.500 C 155.236 81.276,160.565 78.400,161.441 78.400 C 161.748 78.400,162.000 78.220,162.000 78.000 C 162.000 77.780,162.360 77.600,162.800 77.600 C 163.240 77.600,163.600 77.420,163.600 77.200 C 163.600 76.980,163.960 76.800,164.400 76.800 C 164.840 76.800,165.200 76.620,165.200 76.400 C 165.200 76.180,165.740 76.000,166.400 76.000 C 167.060 76.000,167.600 75.820,167.600 75.600 C 167.600 75.380,167.962 75.200,168.405 75.200 C 169.271 75.200,170.815 74.452,171.294 73.800 C 171.456 73.580,171.591 73.519,171.594 73.664 C 171.597 73.809,172.500 73.690,173.600 73.400 C 174.700 73.110,175.600 72.952,175.600 73.050 C 175.600 73.148,176.005 73.008,176.500 72.739 C 176.995 72.469,177.670 72.205,178.000 72.152 C 178.857 72.013,179.694 71.767,180.500 71.418 C 180.885 71.251,181.493 71.227,181.851 71.364 C 182.209 71.501,182.755 71.403,183.065 71.146 C 183.375 70.889,184.524 70.642,185.619 70.597 C 187.503 70.521,189.435 69.504,189.008 68.813 C 188.913 68.659,189.067 68.533,189.351 68.533 C 189.635 68.533,189.867 68.765,189.867 69.049 C 189.867 69.333,189.729 69.480,189.561 69.376 C 189.393 69.272,189.164 69.334,189.053 69.513 C 188.942 69.693,189.515 69.866,190.326 69.898 C 191.137 69.931,191.575 69.862,191.300 69.745 C 190.701 69.491,190.627 68.400,191.209 68.400 C 191.484 68.400,191.610 57.589,191.596 35.300 C 191.577 6.928,191.655 2.215,192.141 2.307 C 192.454 2.366,192.802 2.171,192.916 1.874 C 193.218 1.089,192.138 1.212,191.221 2.067 M183.899 32.476 C 183.832 35.624,183.776 33.160,183.776 27.000 C 183.776 20.840,183.831 18.264,183.899 21.276 C 183.967 24.287,183.967 29.327,183.899 32.476 M193.773 68.844 C 193.634 69.069,193.628 69.361,193.760 69.493 C 193.892 69.625,194.000 69.489,194.000 69.190 C 194.000 68.826,194.176 68.887,194.533 69.376 C 194.981 69.989,195.067 70.004,195.067 69.470 C 195.067 68.713,194.133 68.261,193.773 68.844 M196.976 69.421 C 196.230 70.017,196.239 70.031,197.200 69.776 C 198.434 69.448,199.202 68.800,198.356 68.800 C 198.025 68.800,197.404 69.079,196.976 69.421 M112.466 73.951 C 112.172 74.137,111.902 74.449,111.866 74.645 C 111.830 74.840,111.665 74.955,111.500 74.900 C 111.335 74.845,111.200 74.980,111.200 75.200 C 111.200 75.721,111.881 75.716,112.204 75.193 C 112.342 74.970,112.623 74.891,112.828 75.017 C 113.032 75.144,113.200 74.877,113.200 74.424 C 113.200 73.492,113.195 73.488,112.466 73.951 M113.200 131.179 C 113.200 131.594,113.425 132.024,113.700 132.135 C 113.975 132.246,113.849 132.351,113.420 132.368 C 112.799 132.394,112.741 132.501,113.137 132.897 C 113.532 133.292,113.710 133.272,114.011 132.797 C 114.574 131.905,114.477 130.915,113.800 130.655 C 113.397 130.501,113.200 130.673,113.200 131.179 M116.800 322.000 C 116.800 322.220,116.174 322.400,115.409 322.400 L 114.018 322.400 113.909 337.756 L 113.800 353.113 115.800 353.353 C 116.900 353.485,125.675 353.595,135.300 353.597 L 152.800 353.600 152.800 357.000 C 152.800 358.870,152.962 360.400,153.160 360.400 C 153.358 360.400,153.622 361.165,153.747 362.100 C 154.294 366.189,154.506 367.218,154.842 367.426 C 155.039 367.548,155.200 367.999,155.200 368.429 C 155.200 368.859,155.380 369.568,155.600 370.005 C 155.820 370.442,156.180 371.158,156.400 371.595 C 156.620 372.032,156.800 372.672,156.800 373.018 C 156.800 373.364,156.980 373.536,157.200 373.400 C 157.420 373.264,157.600 373.427,157.600 373.762 C 157.600 374.882,161.473 381.305,163.453 383.468 C 164.084 384.157,165.056 385.252,165.612 385.902 C 166.914 387.420,171.058 390.800,171.618 390.800 C 171.854 390.800,171.936 390.980,171.800 391.200 C 171.664 391.420,171.934 391.600,172.400 391.600 C 172.866 391.600,173.136 391.780,173.000 392.000 C 172.864 392.220,173.033 392.400,173.376 392.400 C 173.719 392.400,174.000 392.559,174.000 392.753 C 174.000 392.948,174.315 393.207,174.700 393.329 C 175.636 393.625,177.766 394.924,177.933 395.300 C 178.007 395.465,178.412 395.600,178.833 395.600 C 179.255 395.600,179.600 395.799,179.600 396.043 C 179.600 396.286,179.870 396.382,180.200 396.255 C 180.530 396.129,180.800 396.194,180.800 396.400 C 180.800 396.606,181.070 396.671,181.400 396.545 C 181.730 396.418,182.000 396.514,182.000 396.757 C 182.000 397.001,182.255 397.200,182.567 397.200 C 182.878 397.200,183.224 397.425,183.335 397.700 C 183.496 398.100,183.543 398.100,183.568 397.700 C 183.586 397.425,183.791 397.200,184.024 397.200 C 184.257 397.200,184.317 397.411,184.158 397.668 C 183.964 397.981,184.085 398.053,184.524 397.885 C 184.917 397.734,185.323 397.891,185.540 398.278 C 185.738 398.633,186.157 398.825,186.471 398.705 C 186.784 398.585,187.481 398.722,188.019 399.010 C 188.705 399.377,189.147 399.410,189.499 399.118 C 189.850 398.827,190.000 398.837,190.000 399.151 C 190.000 399.398,190.281 399.600,190.624 399.600 C 190.967 399.600,191.144 399.432,191.017 399.228 C 190.891 399.023,190.974 398.740,191.202 398.599 C 191.478 398.428,191.608 393.113,191.591 382.722 C 191.576 374.132,191.662 367.005,191.782 366.885 C 191.902 366.765,192.000 366.877,192.000 367.133 C 192.000 367.390,192.141 367.600,192.314 367.600 C 192.487 367.600,192.629 367.253,192.629 366.829 C 192.629 366.406,192.487 366.146,192.314 366.253 C 192.141 366.360,192.000 366.179,192.000 365.851 C 192.000 365.522,191.640 365.140,191.200 365.000 C 190.759 364.860,190.217 364.405,189.993 363.988 C 189.743 363.519,189.346 363.323,188.954 363.473 C 188.165 363.776,187.499 362.804,188.045 362.146 C 188.320 361.815,188.267 361.561,187.876 361.332 C 187.111 360.885,185.908 358.473,186.207 357.988 C 186.339 357.775,186.295 357.600,186.109 357.600 C 185.923 357.600,185.735 357.285,185.691 356.900 C 185.536 355.524,185.352 354.819,185.078 354.545 C 184.064 353.531,185.187 353.401,194.700 353.438 C 203.364 353.471,203.901 353.439,199.000 353.186 C 195.920 353.028,192.995 352.876,192.500 352.849 L 191.600 352.800 191.600 337.200 L 191.600 321.600 154.200 321.600 C 129.533 321.600,116.800 321.736,116.800 322.000 M200.800 368.000 C 200.267 368.345,200.267 368.388,200.800 368.388 C 201.130 368.388,201.670 368.213,202.000 368.000 C 202.533 367.655,202.533 367.612,202.000 367.612 C 201.670 367.612,201.130 367.787,200.800 368.000 " stroke="none" fill="#22d3fc" fill-rule="evenodd"></path></g></svg>