<svg xmlns="http://www.w3.org/2000/svg" width="500" height="500" viewBox="0 0 500 500" version="1.1"><path d="M 300.073 138.635 C 298.309 140.877, 298 142.674, 298 150.680 C 298 159.338, 298.196 160.287, 300.455 162.545 C 303.432 165.523, 305.361 165.639, 308 163 C 309.746 161.254, 310 159.667, 310 150.500 C 310 141.333, 309.746 139.746, 308 138 C 305.272 135.272, 302.546 135.490, 300.073 138.635 M 245.727 160.749 C 242.593 164.213, 243.615 166.816, 251.169 174.607 C 257.273 180.902, 258.836 182, 261.690 182 C 264.269 182, 265.298 181.440, 266.148 179.574 C 267.886 175.761, 266.549 172.967, 259.787 166.275 C 252.681 159.243, 248.557 157.622, 245.727 160.749 M 350.696 164.750 C 340.764 174.028, 339.403 176.578, 342.536 180.040 C 346.005 183.873, 349.701 182.644, 357.172 175.172 C 363.106 169.238, 364 167.869, 364 164.708 C 364 160.988, 362.081 159, 358.492 159 C 357.590 159, 354.082 161.588, 350.696 164.750 M 293 178.431 C 281.196 181.716, 271.820 189.539, 266.298 200.712 C 262.928 207.530, 262.560 209.060, 262.532 216.384 L 262.500 224.500 267.513 225.500 C 282.487 228.487, 293.131 238.591, 299.070 255.455 C 301.296 261.775, 304.022 262.734, 313.508 260.534 C 322.679 258.408, 327.535 255.655, 334.542 248.612 C 342.828 240.284, 346.241 231.996, 346.324 220 C 346.394 209.862, 344.501 203.476, 338.974 195.198 C 329.369 180.815, 309.922 173.722, 293 178.431 M 232.500 214 C 232.160 214.551, 233.779 217.251, 236.097 220 C 241.532 226.446, 245.923 226.875, 248.885 221.250 C 250.390 218.393, 248.898 215.292, 245.374 213.952 C 242.072 212.697, 233.285 212.730, 232.500 214 M 363 213.649 C 358.942 215.221, 357.747 220.556, 360.829 223.345 C 363.640 225.889, 383.010 225.752, 385.345 223.171 C 387.375 220.929, 387.464 218.017, 385.582 215.441 C 384.366 213.777, 382.761 213.469, 374.332 213.284 C 368.924 213.165, 363.825 213.329, 363 213.649 M 344.378 256.993 C 341.914 257.977, 340.536 262.265, 341.878 264.771 C 342.388 265.722, 345.735 269.313, 349.316 272.750 C 354.233 277.469, 356.534 279, 358.713 279 C 362.425 279, 364 277.368, 364 273.523 C 364 271.045, 362.686 269.158, 357.250 263.826 C 350.123 256.837, 347.824 255.616, 344.378 256.993" stroke="none" fill="#facb08" fill-rule="evenodd"/><path d="M 349 165.500 C 346.571 167.975, 344.809 170, 345.084 170 C 345.359 170, 347.571 167.975, 350 165.500 C 352.429 163.025, 354.191 161, 353.916 161 C 353.641 161, 351.429 163.025, 349 165.500 M 187.698 204.035 C 175.347 207.138, 161.919 218.123, 156.612 229.467 C 153.428 236.272, 150.660 249.174, 151.531 253.142 C 152.056 255.531, 151.766 255.891, 148.809 256.531 C 138.957 258.661, 127.733 267.984, 123.244 277.764 C 119.511 285.897, 119.500 297.079, 123.216 305.175 C 126.288 311.869, 132.518 318.943, 138.336 322.347 C 148.165 328.095, 146.625 328, 230.003 328 C 312.783 328, 311.450 328.079, 319.500 322.693 C 330.342 315.440, 336.024 305.704, 335.955 294.500 C 335.886 283.197, 331.857 275.105, 322.687 267.850 C 317.884 264.050, 314.798 262.866, 305.661 261.319 C 300.964 260.524, 300.771 260.353, 299.065 255.476 C 292.969 238.045, 282.137 228.213, 265.500 225.011 C 258.255 223.616, 247.001 224.026, 245.179 225.750 C 244.452 226.438, 243.484 227, 243.028 227 C 241.525 227, 231.834 215.077, 232.483 214.027 C 232.832 213.462, 232.373 213, 231.463 213 C 230.553 213, 228.594 212.135, 227.110 211.078 C 225.626 210.021, 221.731 207.940, 218.456 206.452 C 213.445 204.177, 210.834 203.695, 202 203.414 C 196.225 203.231, 189.789 203.510, 187.698 204.035" stroke="none" fill="#c4e3f4" fill-rule="evenodd"/></svg>