<svg id="svg" version="1.1" xmlns="http://www.w3.org/2000/svg" xmlns:xlink="http://www.w3.org/1999/xlink" width="400" height="400" viewBox="0, 0, 400,400"><g id="svgg"><path id="path0" d="M235.200 15.385 L 235.200 30.800 238.300 30.891 C 240.005 30.941,236.000 31.080,229.400 31.200 C 222.800 31.320,238.595 31.459,264.500 31.509 C 295.573 31.569,311.600 31.736,311.600 32.000 C 311.600 32.233,312.925 32.400,314.776 32.400 C 316.523 32.400,318.064 32.580,318.200 32.800 C 318.336 33.020,318.977 33.200,319.624 33.200 C 320.271 33.200,320.800 33.380,320.800 33.600 C 320.800 33.820,321.340 34.000,322.000 34.000 C 322.660 34.000,323.200 34.180,323.200 34.400 C 323.200 34.620,323.560 34.800,324.000 34.800 C 324.440 34.800,324.800 34.980,324.800 35.200 C 324.800 35.420,325.160 35.600,325.600 35.600 C 326.040 35.600,326.400 35.780,326.400 36.000 C 326.400 36.220,326.670 36.400,327.000 36.400 C 327.330 36.400,327.600 36.547,327.600 36.726 C 327.600 36.906,328.291 37.441,329.135 37.915 C 331.017 38.973,336.006 43.796,336.774 45.300 C 337.082 45.905,337.463 46.400,337.619 46.400 C 337.775 46.400,338.127 46.940,338.400 47.600 C 338.673 48.260,339.016 48.800,339.161 48.800 C 339.306 48.800,339.674 49.655,339.978 50.700 C 340.282 51.745,340.672 52.695,340.844 52.810 C 341.016 52.926,341.258 53.592,341.381 54.290 C 341.504 54.988,341.791 56.051,342.020 56.653 C 342.303 57.397,342.428 80.323,342.409 128.189 C 342.392 173.755,342.523 199.049,342.779 199.815 C 342.997 200.467,343.243 201.450,343.326 202.000 C 343.409 202.550,343.609 203.301,343.769 203.669 C 343.930 204.037,344.101 204.603,344.148 204.928 C 344.196 205.253,344.474 205.807,344.767 206.160 C 345.059 206.512,345.141 206.803,344.949 206.806 C 344.757 206.810,345.180 207.325,345.890 207.950 C 346.599 208.576,347.064 209.203,346.923 209.344 C 346.782 209.485,346.887 209.600,347.157 209.600 C 347.427 209.600,347.536 209.780,347.400 210.000 C 347.264 210.220,347.414 210.400,347.734 210.400 C 348.054 210.400,348.893 210.940,349.600 211.600 C 350.307 212.260,351.136 212.800,351.442 212.800 C 351.749 212.800,352.000 212.980,352.000 213.200 C 352.000 213.420,352.529 213.600,353.176 213.600 C 353.823 213.600,354.464 213.780,354.600 214.000 C 354.926 214.528,363.874 214.528,364.200 214.000 C 364.336 213.780,364.797 213.600,365.224 213.600 C 365.651 213.600,366.000 213.420,366.000 213.200 C 366.000 212.980,366.360 212.800,366.800 212.800 C 367.240 212.800,367.600 212.620,367.600 212.400 C 367.600 212.180,367.990 212.000,368.467 212.000 C 368.943 212.000,369.228 211.895,369.100 211.766 C 368.971 211.638,369.843 210.648,371.037 209.566 C 372.231 208.485,373.120 207.600,373.012 207.600 C 372.904 207.600,373.238 206.835,373.754 205.900 C 374.270 204.965,374.643 203.885,374.582 203.500 C 374.521 203.115,374.635 202.800,374.835 202.800 C 375.276 202.800,375.341 55.074,374.900 54.633 C 374.735 54.469,374.584 53.575,374.564 52.648 C 374.544 51.721,374.380 50.431,374.200 49.781 C 374.020 49.132,373.913 48.285,373.962 47.900 C 374.010 47.515,373.859 47.200,373.625 47.200 C 373.391 47.200,373.200 46.772,373.200 46.249 C 373.200 45.726,372.937 44.669,372.616 43.900 C 372.295 43.131,372.145 42.389,372.283 42.251 C 372.420 42.113,372.363 42.000,372.154 42.000 C 371.945 42.000,371.526 41.145,371.222 40.100 C 370.918 39.055,370.509 38.094,370.314 37.964 C 370.119 37.834,369.931 37.339,369.895 36.864 C 369.859 36.389,369.688 36.000,369.515 36.000 C 369.342 36.000,369.200 35.730,369.200 35.400 C 369.200 35.070,369.020 34.800,368.800 34.800 C 368.580 34.800,368.400 34.384,368.400 33.875 C 368.400 33.367,368.040 32.564,367.600 32.092 C 367.160 31.620,366.800 30.945,366.800 30.593 C 366.800 30.241,366.620 30.064,366.400 30.200 C 366.180 30.336,366.000 30.077,366.000 29.624 C 366.000 29.171,365.820 28.800,365.600 28.800 C 365.380 28.800,365.200 28.530,365.200 28.200 C 365.200 27.870,365.020 27.600,364.800 27.600 C 364.580 27.600,364.400 27.319,364.400 26.976 C 364.400 26.633,364.220 26.464,364.000 26.600 C 363.780 26.736,363.600 26.568,363.600 26.227 C 363.600 25.886,363.240 25.382,362.800 25.107 C 362.360 24.832,362.000 24.377,362.000 24.095 C 362.000 23.813,361.055 22.624,359.900 21.452 C 358.745 20.280,356.810 18.221,355.600 16.875 C 354.390 15.529,353.175 14.422,352.900 14.414 C 352.625 14.406,352.400 14.220,352.400 14.000 C 352.400 13.780,352.119 13.600,351.776 13.600 C 351.433 13.600,351.264 13.420,351.400 13.200 C 351.536 12.980,351.466 12.800,351.244 12.800 C 351.023 12.800,350.359 12.353,349.770 11.807 C 349.181 11.262,348.557 10.903,348.384 11.010 C 348.210 11.117,348.008 11.047,347.934 10.854 C 347.763 10.407,343.808 7.909,342.100 7.168 C 341.385 6.858,340.800 6.469,340.800 6.302 C 340.800 6.136,340.429 6.000,339.976 6.000 C 339.523 6.000,339.264 5.820,339.400 5.600 C 339.548 5.360,339.036 5.198,338.124 5.194 C 336.993 5.189,336.755 5.088,337.200 4.800 C 337.668 4.498,337.557 4.411,336.700 4.406 C 336.095 4.403,335.600 4.253,335.600 4.072 C 335.600 3.892,334.700 3.500,333.600 3.200 C 332.500 2.900,331.600 2.508,331.600 2.328 C 331.600 2.147,330.981 2.000,330.224 2.000 C 329.467 2.000,328.736 1.820,328.600 1.600 C 328.464 1.380,327.658 1.200,326.810 1.200 C 325.931 1.200,325.195 0.985,325.100 0.700 C 324.968 0.305,315.523 0.176,280.067 0.085 L 235.200 -0.029 235.200 15.385 M88.700 59.082 C 89.195 59.178,90.005 59.178,90.500 59.082 C 90.995 58.987,90.590 58.909,89.600 58.909 C 88.610 58.909,88.205 58.987,88.700 59.082 M140.530 59.100 C 149.731 59.160,164.671 59.160,173.730 59.100 C 182.788 59.040,175.260 58.991,157.000 58.991 C 138.740 58.991,131.328 59.040,140.530 59.100 M218.318 81.027 C 218.810 81.372,219.093 81.850,218.945 82.089 C 218.779 82.357,218.864 82.408,219.164 82.222 C 219.708 81.886,218.635 80.400,217.849 80.400 C 217.614 80.400,217.825 80.682,218.318 81.027 M228.800 92.400 C 228.800 92.620,229.025 92.755,229.300 92.700 C 229.575 92.645,229.755 92.825,229.700 93.100 C 229.645 93.375,229.872 93.600,230.203 93.600 C 230.707 93.600,230.724 93.467,230.307 92.800 C 229.787 91.967,228.800 91.705,228.800 92.400 M230.800 94.423 C 230.306 94.761,230.341 94.813,231.000 94.717 C 231.595 94.630,231.793 94.821,231.772 95.463 C 231.752 96.097,231.943 96.288,232.491 96.182 C 232.902 96.103,233.590 96.390,234.019 96.819 C 234.491 97.291,234.798 97.402,234.795 97.100 C 234.792 96.825,234.162 96.193,233.395 95.696 C 232.628 95.199,232.000 94.614,232.000 94.396 C 232.000 93.891,231.563 93.901,230.800 94.423 M235.210 97.835 C 235.255 98.256,235.268 98.780,235.239 99.000 C 234.969 101.048,235.296 141.828,235.584 141.926 C 235.788 141.995,235.850 142.325,235.722 142.659 C 235.534 143.149,235.425 143.164,235.161 142.737 C 234.891 142.300,234.743 142.304,234.317 142.762 C 234.032 143.068,234.005 143.202,234.258 143.061 C 234.510 142.920,234.829 143.098,234.966 143.457 C 235.192 144.045,235.304 144.035,236.108 143.354 L 237.000 142.600 236.236 143.502 C 235.815 143.999,235.605 144.539,235.768 144.702 C 235.932 144.865,236.296 144.684,236.577 144.299 C 236.858 143.915,237.231 143.600,237.406 143.600 C 237.581 143.600,237.422 143.934,237.052 144.343 C 236.060 145.438,237.211 146.430,238.532 145.619 C 239.380 145.099,239.384 145.105,238.683 145.894 C 238.054 146.602,238.042 146.730,238.583 146.938 C 238.966 147.085,239.200 146.953,239.200 146.587 C 239.200 146.264,239.380 146.000,239.600 146.000 C 240.166 146.000,240.096 146.647,239.460 147.283 C 239.007 147.736,239.007 147.904,239.460 148.327 C 239.789 148.634,240.020 148.669,240.050 148.416 C 240.171 147.406,240.212 147.255,240.416 147.050 C 240.535 146.932,240.662 147.232,240.698 147.717 C 240.842 149.633,241.233 150.593,241.621 149.979 C 241.915 149.515,241.990 149.559,242.000 150.200 C 242.018 151.391,242.612 152.116,243.663 152.231 C 244.178 152.287,244.729 152.348,244.887 152.367 C 245.046 152.385,245.065 152.687,244.930 153.038 C 244.674 153.705,247.712 156.955,248.166 156.501 C 248.295 156.372,248.400 156.571,248.400 156.943 C 248.400 157.315,248.850 157.791,249.400 158.000 C 249.950 158.209,250.400 158.655,250.400 158.990 C 250.400 159.326,250.589 159.600,250.819 159.600 C 251.050 159.600,251.697 160.095,252.258 160.700 L 253.278 161.800 245.739 161.903 C 238.084 162.007,235.765 162.299,238.400 162.825 C 239.702 163.085,239.678 163.097,238.065 162.998 C 237.111 162.939,236.121 162.679,235.865 162.422 C 235.510 162.064,235.590 162.013,236.200 162.207 L 237.000 162.460 236.200 161.946 C 235.760 161.663,235.175 161.395,234.900 161.351 C 234.306 161.256,234.226 162.245,234.800 162.600 C 235.055 162.758,235.200 168.326,235.200 177.990 C 235.200 189.730,235.312 193.179,235.700 193.335 C 236.079 193.488,236.082 193.544,235.713 193.568 C 235.444 193.586,235.330 193.874,235.460 194.212 C 235.663 194.741,235.770 194.728,236.253 194.112 C 236.674 193.575,236.786 193.548,236.706 194.000 C 236.613 194.525,239.046 194.613,256.300 194.704 L 276.000 194.808 276.075 265.704 C 276.162 349.168,276.196 339.349,275.817 341.800 C 275.647 342.900,275.499 344.025,275.487 344.300 C 275.476 344.575,275.317 344.800,275.133 344.800 C 274.950 344.800,274.800 345.340,274.800 346.000 C 274.800 346.660,274.620 347.200,274.400 347.200 C 274.180 347.200,274.000 347.465,274.000 347.788 C 274.000 348.111,273.640 349.017,273.200 349.800 C 272.760 350.583,272.400 351.589,272.400 352.036 C 272.400 352.482,272.220 352.736,272.000 352.600 C 271.780 352.464,271.600 352.545,271.600 352.780 C 271.600 353.015,271.060 353.772,270.400 354.463 C 269.740 355.154,269.200 355.887,269.200 356.092 C 269.200 357.066,262.979 362.558,262.330 362.157 C 262.138 362.038,262.030 362.179,262.090 362.470 C 262.151 362.762,261.975 362.955,261.700 362.900 C 261.425 362.845,261.200 362.980,261.200 363.200 C 261.200 363.420,260.829 363.600,260.376 363.600 C 259.923 363.600,259.664 363.780,259.800 364.000 C 259.936 364.220,259.677 364.400,259.224 364.400 C 258.771 364.400,258.400 364.580,258.400 364.800 C 258.400 365.020,258.040 365.200,257.600 365.200 C 257.160 365.200,256.800 365.341,256.800 365.513 C 256.800 365.685,256.315 365.866,255.722 365.915 C 255.130 365.964,254.539 366.175,254.410 366.383 C 254.281 366.592,253.506 366.808,252.688 366.863 C 251.870 366.918,251.200 367.107,251.200 367.282 C 251.200 367.457,250.221 367.600,249.024 367.600 C 247.827 367.600,246.731 367.789,246.588 368.019 C 246.411 368.306,246.150 368.291,245.764 367.970 C 245.359 367.634,245.200 367.628,245.200 367.951 C 245.200 368.273,241.257 368.426,231.300 368.491 L 217.400 368.582 229.400 368.800 C 236.000 368.920,240.005 369.059,238.300 369.109 L 235.200 369.200 235.200 384.645 L 235.200 400.090 246.585 399.940 C 254.927 399.830,258.102 399.658,258.465 399.295 C 258.737 399.023,259.655 398.800,260.504 398.800 C 261.431 398.800,261.948 398.640,261.800 398.400 C 261.653 398.162,262.129 398.000,262.976 398.000 C 263.759 398.000,264.400 397.858,264.400 397.685 C 264.400 397.408,265.009 397.254,266.682 397.109 C 266.948 397.086,267.072 396.917,266.959 396.733 C 266.845 396.550,267.303 396.400,267.976 396.400 C 268.649 396.400,269.200 396.220,269.200 396.000 C 269.200 395.780,269.470 395.600,269.800 395.600 C 270.130 395.600,270.403 395.375,270.406 395.100 C 270.411 394.734,270.505 394.746,270.758 395.145 C 271.002 395.530,271.149 395.553,271.259 395.223 C 271.344 394.967,271.699 394.715,272.047 394.664 C 272.395 394.613,273.151 394.262,273.726 393.885 C 274.301 393.508,275.008 393.200,275.298 393.200 C 275.587 393.200,276.083 392.840,276.400 392.400 C 276.717 391.960,277.220 391.600,277.517 391.600 C 277.814 391.600,278.329 391.328,278.661 390.996 C 278.993 390.664,279.458 390.512,279.694 390.658 C 279.949 390.815,280.007 390.736,279.838 390.462 C 279.669 390.188,279.807 390.000,280.176 390.000 C 280.519 390.000,280.800 389.809,280.800 389.576 C 280.800 389.343,280.957 389.250,281.150 389.369 C 281.342 389.488,281.972 389.147,282.550 388.612 C 283.127 388.076,283.605 387.765,283.612 387.919 C 283.619 388.074,283.810 387.881,284.037 387.492 C 284.264 387.102,284.594 386.873,284.771 386.982 C 285.147 387.215,290.000 382.588,290.000 381.998 C 290.000 381.779,290.270 381.600,290.600 381.600 C 290.930 381.600,291.200 381.425,291.200 381.211 C 291.200 380.996,292.010 380.011,293.000 379.021 C 293.990 378.031,294.800 377.026,294.800 376.787 C 294.800 376.548,295.008 376.481,295.262 376.638 C 295.527 376.802,295.616 376.749,295.470 376.514 C 295.331 376.289,295.663 375.586,296.208 374.952 C 296.753 374.318,297.199 373.594,297.200 373.343 C 297.200 373.091,297.456 372.787,297.770 372.667 C 298.083 372.547,298.644 371.807,299.015 371.024 C 299.387 370.241,299.851 369.600,300.046 369.600 C 300.241 369.600,300.400 369.330,300.400 369.000 C 300.400 368.670,300.580 368.400,300.800 368.400 C 301.020 368.400,301.200 368.040,301.200 367.600 C 301.200 367.160,301.380 366.800,301.600 366.800 C 301.820 366.800,302.000 366.566,302.000 366.280 C 302.000 365.544,302.941 363.607,303.300 363.603 C 303.465 363.601,303.600 363.234,303.600 362.786 C 303.600 362.338,303.905 361.506,304.278 360.937 C 304.651 360.368,304.983 359.529,305.017 359.072 C 305.050 358.615,305.285 358.172,305.539 358.087 C 305.793 358.002,306.000 357.408,306.000 356.767 C 306.000 356.125,306.210 355.600,306.467 355.600 C 306.723 355.600,306.838 355.504,306.721 355.387 C 306.529 355.196,306.765 353.602,307.399 350.800 C 308.107 347.675,308.368 345.873,308.163 345.540 C 308.036 345.334,308.091 344.948,308.286 344.682 C 308.482 344.417,308.694 343.570,308.759 342.800 C 308.907 341.040,308.503 341.232,312.535 341.007 C 314.443 340.901,316.443 340.704,316.980 340.569 C 317.517 340.435,318.911 340.272,320.078 340.209 C 322.347 340.086,325.384 339.536,327.500 338.867 C 328.215 338.641,328.800 338.555,328.800 338.677 C 328.800 338.798,329.025 338.719,329.300 338.501 C 329.575 338.282,330.790 337.865,332.000 337.574 C 333.210 337.283,334.678 336.720,335.262 336.322 C 335.846 335.925,336.611 335.600,336.962 335.600 C 337.313 335.600,337.600 335.420,337.600 335.200 C 337.600 334.980,337.939 334.800,338.354 334.800 C 339.337 334.800,341.264 333.797,340.927 333.461 C 340.784 333.317,341.057 333.200,341.533 333.200 C 342.010 333.200,342.400 333.020,342.400 332.800 C 342.400 332.580,342.760 332.400,343.200 332.400 C 343.640 332.400,344.000 332.220,344.000 332.000 C 344.000 331.780,344.281 331.600,344.624 331.600 C 344.967 331.600,345.136 331.420,345.000 331.200 C 344.864 330.980,345.057 330.800,345.429 330.800 C 345.802 330.800,346.442 330.412,346.853 329.939 C 347.295 329.430,347.600 329.291,347.600 329.600 C 347.600 329.909,347.905 329.770,348.347 329.261 C 348.758 328.788,349.206 328.400,349.342 328.400 C 349.671 328.400,350.913 327.374,353.053 325.336 C 354.014 324.420,354.800 323.778,354.800 323.908 C 354.800 324.038,355.356 323.527,356.036 322.772 C 356.716 322.017,357.436 321.445,357.636 321.500 C 357.836 321.555,357.955 321.375,357.900 321.100 C 357.845 320.825,358.025 320.645,358.300 320.700 C 358.575 320.755,358.800 320.562,358.800 320.271 C 358.800 319.980,359.700 318.778,360.800 317.600 C 361.900 316.422,362.800 315.309,362.800 315.126 C 362.800 314.943,363.340 314.228,364.000 313.537 C 364.660 312.846,365.200 312.038,365.200 311.741 C 365.200 311.443,365.380 311.200,365.600 311.200 C 365.820 311.200,366.000 310.906,366.000 310.547 C 366.000 310.188,366.315 309.603,366.700 309.247 C 367.085 308.891,367.458 308.330,367.530 308.000 C 367.601 307.670,367.826 307.340,368.030 307.267 C 368.233 307.193,368.400 306.788,368.400 306.367 C 368.400 305.945,368.580 305.600,368.800 305.600 C 369.020 305.600,369.200 305.240,369.200 304.800 C 369.200 304.360,369.380 304.000,369.600 304.000 C 369.820 304.000,370.000 303.640,370.000 303.200 C 370.000 302.760,370.180 302.400,370.400 302.400 C 370.620 302.400,370.800 302.061,370.800 301.646 C 370.800 301.231,371.061 300.389,371.380 299.774 C 371.698 299.160,371.868 298.509,371.756 298.329 C 371.644 298.148,371.743 298.000,371.976 298.000 C 372.209 298.000,372.400 297.561,372.400 297.024 C 372.400 296.487,372.590 295.930,372.821 295.787 C 373.053 295.644,373.166 295.318,373.073 295.063 C 372.980 294.809,373.153 293.987,373.457 293.239 C 373.762 292.490,373.930 291.796,373.831 291.697 C 373.732 291.599,373.837 291.041,374.064 290.459 C 374.291 289.876,374.520 288.665,374.573 287.767 C 374.626 286.869,374.817 285.896,374.997 285.605 C 375.232 285.225,375.166 285.167,374.762 285.397 C 374.307 285.656,374.296 285.614,374.700 285.179 C 375.414 284.409,375.414 272.403,374.700 272.394 C 374.332 272.389,374.343 272.297,374.743 272.044 C 375.127 271.800,375.154 271.619,374.836 271.422 C 374.589 271.270,374.477 270.998,374.588 270.820 C 374.698 270.641,374.357 269.858,373.828 269.080 C 373.300 268.302,372.958 267.575,373.068 267.466 C 373.322 267.211,368.906 262.813,368.274 262.691 C 368.013 262.641,367.530 262.313,367.200 261.962 C 366.497 261.214,365.008 260.794,362.100 260.522 C 360.945 260.414,360.000 260.199,360.000 260.044 C 360.000 259.679,358.335 259.719,357.746 260.098 C 357.497 260.258,356.462 260.421,355.446 260.460 C 354.431 260.498,353.600 260.681,353.600 260.865 C 353.600 261.049,353.285 261.204,352.900 261.209 C 352.515 261.214,351.750 261.570,351.200 262.000 C 350.650 262.430,350.067 262.786,349.905 262.791 C 349.276 262.810,345.559 266.275,345.701 266.710 C 345.755 266.878,345.395 267.451,344.900 267.983 C 344.405 268.515,344.000 269.356,344.000 269.852 C 344.000 270.347,343.844 270.849,343.653 270.967 C 343.215 271.238,342.750 274.175,342.572 277.800 C 342.349 282.329,340.710 289.600,339.911 289.600 C 339.740 289.600,339.600 289.960,339.600 290.400 C 339.600 290.840,339.420 291.200,339.200 291.200 C 338.980 291.200,338.800 291.560,338.800 292.000 C 338.800 292.440,338.620 292.800,338.400 292.800 C 338.180 292.800,338.000 292.998,338.000 293.240 C 338.000 293.481,337.494 294.156,336.875 294.740 C 336.257 295.323,335.633 296.115,335.488 296.500 C 335.343 296.885,334.939 297.200,334.589 297.200 C 334.239 297.200,334.064 297.380,334.200 297.600 C 334.336 297.820,334.269 298.000,334.051 298.000 C 333.832 298.000,333.540 298.360,333.400 298.800 C 333.260 299.240,332.888 299.600,332.572 299.600 C 332.257 299.600,331.324 300.296,330.499 301.147 C 329.675 301.998,328.415 302.942,327.700 303.245 C 326.985 303.548,326.400 303.931,326.400 304.098 C 326.400 304.264,326.164 304.400,325.875 304.400 C 325.587 304.400,325.002 304.715,324.575 305.100 C 324.149 305.485,323.350 305.862,322.800 305.938 C 322.250 306.014,321.740 306.239,321.667 306.438 C 321.593 306.637,320.818 306.800,319.943 306.800 C 318.985 306.800,318.451 306.959,318.600 307.200 C 318.754 307.449,317.996 307.600,316.600 307.600 C 315.204 307.600,314.446 307.751,314.600 308.000 C 314.756 308.253,313.737 308.400,311.824 308.400 L 308.800 308.400 308.800 241.600 C 308.800 197.333,308.665 174.800,308.400 174.800 C 308.180 174.800,308.000 174.609,308.000 174.376 C 308.000 174.143,308.183 174.066,308.407 174.204 C 308.631 174.342,308.552 173.858,308.233 173.128 C 307.914 172.398,307.417 171.215,307.129 170.500 C 306.841 169.785,306.458 169.200,306.279 169.200 C 306.099 169.200,306.057 169.032,306.184 168.826 C 306.436 168.419,304.603 166.400,303.982 166.400 C 303.772 166.400,303.595 166.175,303.588 165.900 C 303.581 165.625,303.026 164.950,302.353 164.400 C 300.746 163.086,299.951 162.295,299.100 161.166 C 298.715 160.655,298.399 160.409,298.397 160.619 C 298.396 160.828,298.037 160.460,297.600 159.800 C 297.163 159.140,296.804 158.738,296.803 158.906 C 296.801 159.074,295.477 157.904,293.860 156.306 C 292.244 154.708,290.994 153.265,291.084 153.100 C 291.174 152.935,291.102 152.800,290.924 152.800 C 290.364 152.799,288.401 150.932,288.674 150.660 C 288.817 150.517,288.758 150.400,288.543 150.400 C 288.135 150.400,284.000 146.559,284.000 146.181 C 284.000 145.817,282.097 144.036,281.910 144.224 C 281.813 144.320,281.494 143.949,281.200 143.399 C 280.906 142.850,280.514 142.400,280.329 142.400 C 279.874 142.400,272.400 134.827,272.400 134.366 C 272.400 134.165,272.100 134.000,271.733 134.000 C 271.367 134.000,271.176 133.891,271.309 133.758 C 271.609 133.457,270.048 131.857,269.099 131.493 C 268.715 131.346,268.400 130.949,268.400 130.613 C 268.400 130.276,268.119 130.000,267.776 130.000 C 267.433 130.000,267.230 129.865,267.324 129.700 C 267.418 129.535,267.068 128.989,266.547 128.486 C 266.026 127.983,265.600 127.630,265.600 127.701 C 265.600 127.772,264.577 126.879,263.327 125.715 C 262.077 124.552,260.907 123.600,260.727 123.600 C 260.547 123.600,260.400 123.330,260.400 123.000 C 260.400 122.670,260.130 122.400,259.800 122.400 C 259.470 122.400,259.200 122.263,259.200 122.096 C 259.200 121.929,258.761 121.318,258.224 120.739 C 257.687 120.160,257.357 119.577,257.490 119.443 C 257.624 119.309,257.568 119.200,257.367 119.200 C 256.776 119.199,254.789 117.344,255.074 117.060 C 255.217 116.917,255.003 116.800,254.600 116.800 C 254.197 116.800,253.975 116.692,254.107 116.559 C 254.624 116.043,252.626 114.484,252.042 114.949 C 251.587 115.312,251.537 115.227,251.772 114.487 C 251.931 113.988,251.912 113.629,251.730 113.690 C 251.549 113.750,251.359 113.661,251.308 113.492 C 251.145 112.943,250.207 112.080,249.945 112.238 C 249.805 112.322,249.477 112.134,249.216 111.819 C 248.955 111.505,248.440 111.344,248.071 111.462 C 247.512 111.640,247.498 111.606,247.984 111.262 C 248.662 110.783,247.542 109.200,246.525 109.200 C 246.223 109.200,245.857 108.885,245.712 108.500 C 245.415 107.709,243.288 105.600,242.787 105.600 C 242.606 105.600,242.400 105.318,242.329 104.974 C 242.223 104.458,242.028 104.508,241.224 105.260 C 240.439 105.994,240.302 106.032,240.524 105.454 C 240.676 105.058,240.800 104.649,240.800 104.544 C 240.800 104.439,240.980 104.464,241.200 104.600 C 241.420 104.736,241.600 104.546,241.600 104.177 C 241.600 103.689,241.367 103.568,240.742 103.731 C 240.105 103.898,240.001 103.839,240.337 103.503 C 240.861 102.979,239.848 101.600,238.938 101.600 C 238.642 101.600,238.400 101.407,238.400 101.171 C 238.400 100.287,237.377 99.669,236.616 100.095 C 235.970 100.456,235.918 100.381,236.156 99.435 C 236.340 98.700,236.221 98.164,235.776 97.719 C 235.178 97.121,235.134 97.130,235.210 97.835 M205.769 122.400 C 205.769 126.910,205.827 128.755,205.898 126.500 C 205.970 124.245,205.970 120.555,205.898 118.300 C 205.827 116.045,205.769 117.890,205.769 122.400 M205.969 131.649 C 206.172 131.896,206.249 132.327,206.141 132.608 C 206.034 132.889,206.107 133.219,206.305 133.341 C 206.839 133.671,206.625 132.052,206.074 131.594 C 205.742 131.318,205.711 131.334,205.969 131.649 M229.600 138.390 C 229.600 138.642,229.780 138.736,230.001 138.600 C 230.221 138.463,230.570 138.795,230.776 139.337 C 230.982 139.879,231.345 140.443,231.583 140.590 C 231.821 140.737,231.688 140.271,231.288 139.555 C 230.544 138.223,229.600 137.572,229.600 138.390 M213.600 150.617 C 213.600 150.736,213.960 151.220,214.400 151.692 C 215.290 152.647,215.475 152.196,214.643 151.100 C 214.127 150.421,213.600 150.176,213.600 150.617 M230.538 161.397 C 230.792 161.945,231.131 162.395,231.291 162.397 C 231.452 162.399,231.378 161.950,231.127 161.400 C 230.877 160.850,230.537 160.400,230.373 160.400 C 230.209 160.400,230.283 160.849,230.538 161.397 M232.432 161.925 C 232.452 162.367,232.535 162.422,232.670 162.083 C 232.830 161.687,233.008 161.675,233.439 162.032 C 233.875 162.394,234.000 162.373,234.000 161.934 C 234.000 161.624,233.640 161.343,233.200 161.310 C 232.682 161.271,232.411 161.487,232.432 161.925 M229.969 192.586 C 229.479 192.815,229.867 193.930,230.422 193.888 C 230.831 193.858,231.085 193.752,230.986 193.653 C 230.888 193.554,230.975 193.271,231.181 193.023 C 231.467 192.679,230.509 192.334,229.969 192.586 " stroke="none" fill="#49b1fc" fill-rule="evenodd"></path><path id="path1" d="M92.880 47.280 C 92.616 47.544,92.421 48.129,92.446 48.580 C 92.492 49.383,92.497 49.384,92.689 48.600 C 92.798 48.160,93.069 47.575,93.292 47.300 C 93.810 46.662,93.512 46.648,92.880 47.280 M91.646 54.067 C 91.621 54.434,91.496 55.064,91.370 55.467 C 91.152 56.162,91.163 56.163,91.597 55.487 C 91.848 55.096,91.973 54.466,91.873 54.087 C 91.711 53.468,91.688 53.466,91.646 54.067 M124.554 55.377 C 124.432 55.694,124.403 56.279,124.489 56.677 C 124.587 57.128,124.724 56.912,124.854 56.100 C 125.071 54.738,124.930 54.396,124.554 55.377 M84.252 59.116 C 84.144 59.290,84.718 59.370,85.528 59.293 C 88.002 59.059,88.293 58.895,86.324 58.846 C 85.292 58.821,84.359 58.942,84.252 59.116 M77.300 59.865 C 76.536 60.173,76.704 60.623,77.609 60.691 C 78.053 60.724,78.322 60.598,78.206 60.410 C 78.090 60.222,78.221 59.977,78.498 59.866 C 78.837 59.729,78.805 59.663,78.400 59.663 C 78.070 59.663,77.575 59.754,77.300 59.865 M71.749 61.683 C 71.630 61.875,71.175 61.919,70.738 61.780 C 70.149 61.594,69.887 61.745,69.725 62.364 C 69.605 62.824,69.337 63.200,69.130 63.200 C 68.922 63.200,68.856 63.032,68.983 62.828 C 69.109 62.623,69.022 62.337,68.789 62.193 C 68.244 61.856,67.131 62.765,67.453 63.285 C 67.587 63.502,67.295 63.465,66.805 63.203 C 66.133 62.843,65.802 62.839,65.457 63.187 C 65.113 63.534,65.189 63.575,65.766 63.356 C 66.260 63.167,66.439 63.213,66.272 63.484 C 66.129 63.715,65.565 63.990,65.018 64.094 C 64.471 64.199,64.119 64.130,64.236 63.942 C 64.352 63.754,64.276 63.600,64.066 63.600 C 63.857 63.600,63.583 63.867,63.458 64.193 C 63.317 64.561,62.971 64.687,62.550 64.525 C 62.089 64.348,61.962 64.415,62.158 64.732 C 62.341 65.028,62.161 65.200,61.669 65.200 C 60.656 65.200,59.047 66.048,57.580 67.355 C 56.935 67.930,56.135 68.400,55.803 68.400 C 55.472 68.400,55.200 68.591,55.200 68.824 C 55.200 69.057,55.035 69.145,54.832 69.020 C 54.630 68.895,54.193 69.064,53.861 69.396 C 53.529 69.728,52.929 70.003,52.529 70.006 C 51.912 70.011,51.892 70.072,52.400 70.400 C 52.885 70.714,52.828 70.789,52.100 70.794 C 51.605 70.797,51.200 70.980,51.200 71.200 C 51.200 71.420,50.852 71.600,50.427 71.600 C 50.002 71.600,49.540 71.960,49.400 72.400 C 49.260 72.840,48.965 73.200,48.744 73.200 C 48.173 73.200,47.190 74.256,47.486 74.552 C 47.622 74.689,47.449 74.800,47.101 74.800 C 46.753 74.800,45.820 75.430,45.027 76.200 C 44.234 76.970,43.409 77.600,43.193 77.600 C 42.977 77.600,42.800 77.900,42.800 78.267 C 42.800 78.633,42.683 78.817,42.540 78.674 C 42.266 78.399,40.401 80.366,40.400 80.931 C 40.400 81.114,39.680 81.954,38.800 82.800 C 37.920 83.646,37.200 84.533,37.200 84.772 C 37.200 85.012,36.660 85.772,36.000 86.463 C 35.340 87.154,34.800 87.962,34.800 88.259 C 34.800 88.557,34.620 88.800,34.400 88.800 C 34.180 88.800,34.000 89.036,34.000 89.325 C 34.000 89.613,33.640 90.236,33.200 90.708 C 32.760 91.180,32.400 91.771,32.400 92.022 C 32.400 92.272,32.072 92.954,31.671 93.538 C 30.727 94.913,29.477 97.584,29.310 98.583 C 29.239 99.013,29.038 99.463,28.865 99.583 C 28.494 99.839,26.989 104.452,27.123 104.923 C 27.174 105.101,26.959 105.821,26.646 106.523 C 25.947 108.091,25.486 110.445,25.437 112.700 C 25.417 113.635,25.265 114.400,25.100 114.400 C 24.935 114.400,24.800 166.420,24.800 230.000 C 24.800 293.580,24.945 345.600,25.123 345.600 C 25.301 345.600,25.406 346.171,25.358 346.868 C 25.256 348.344,26.033 352.218,26.950 354.800 C 27.301 355.790,27.591 356.915,27.594 357.300 C 27.597 357.685,27.780 358.000,28.000 358.000 C 28.220 358.000,28.400 358.551,28.400 359.224 C 28.400 359.937,28.567 360.344,28.800 360.200 C 29.027 360.060,29.200 360.396,29.200 360.976 C 29.200 361.539,29.380 362.000,29.600 362.000 C 29.820 362.000,30.000 362.332,30.000 362.739 C 30.000 363.591,31.069 365.872,31.632 366.220 C 31.842 366.349,31.930 366.589,31.829 366.753 C 31.728 366.916,32.081 367.557,32.614 368.177 C 33.147 368.797,33.498 369.442,33.394 369.610 C 33.290 369.779,33.485 370.024,33.828 370.155 C 34.170 370.287,34.356 370.548,34.239 370.737 C 34.123 370.925,34.381 371.459,34.814 371.923 C 35.246 372.387,35.600 372.882,35.600 373.023 C 35.600 373.164,36.140 373.783,36.800 374.400 C 37.460 375.017,38.000 375.703,38.000 375.925 C 38.000 376.147,38.990 377.343,40.200 378.582 C 41.410 379.822,42.400 381.008,42.400 381.218 C 42.400 381.428,42.681 381.600,43.024 381.600 C 43.367 381.600,43.536 381.780,43.400 382.000 C 43.264 382.220,43.463 382.400,43.843 382.400 C 44.223 382.400,44.432 382.501,44.309 382.624 C 44.045 382.889,45.874 384.800,46.391 384.800 C 46.586 384.800,46.860 385.160,47.000 385.600 C 47.140 386.040,47.540 386.400,47.889 386.400 C 48.239 386.400,49.232 387.121,50.096 388.003 C 50.960 388.884,51.833 389.503,52.036 389.377 C 52.239 389.252,52.511 389.424,52.640 389.759 C 52.865 390.345,54.276 391.044,54.900 390.879 C 55.065 390.836,55.200 390.980,55.200 391.200 C 55.200 391.420,55.436 391.600,55.725 391.600 C 56.013 391.600,56.636 391.960,57.108 392.400 C 57.580 392.840,58.350 393.200,58.819 393.200 C 59.288 393.200,59.981 393.582,60.360 394.050 C 60.751 394.533,61.510 394.900,62.117 394.900 C 62.705 394.900,63.088 395.058,62.969 395.250 C 62.850 395.443,63.224 395.600,63.800 395.600 C 64.396 395.600,64.741 395.772,64.600 396.000 C 64.464 396.220,64.723 396.400,65.176 396.400 C 65.629 396.400,66.000 396.555,66.000 396.744 C 66.000 396.934,66.629 397.039,67.397 396.978 C 68.165 396.917,68.913 397.060,69.059 397.295 C 69.216 397.549,69.135 397.607,68.862 397.438 C 68.608 397.281,68.400 397.364,68.400 397.623 C 68.400 397.911,68.742 398.004,69.285 397.862 C 69.831 397.719,70.467 397.893,70.944 398.315 C 71.532 398.837,71.760 398.877,71.897 398.483 C 72.028 398.110,72.220 398.085,72.592 398.394 C 72.969 398.706,73.168 398.660,73.336 398.223 C 73.630 397.456,72.868 396.972,72.285 397.555 C 72.040 397.800,71.561 397.997,71.220 397.994 C 70.673 397.988,70.670 397.938,71.200 397.563 C 71.532 397.329,71.621 397.063,71.400 396.970 C 71.140 396.860,71.038 391.109,71.109 380.552 C 71.193 368.075,71.103 364.165,70.722 363.706 C 70.306 363.205,70.354 363.135,71.013 363.278 C 71.446 363.371,71.740 363.707,71.667 364.024 C 71.593 364.341,71.674 364.460,71.845 364.288 C 72.016 364.117,72.198 363.696,72.248 363.352 C 72.299 363.008,72.236 362.830,72.110 362.957 C 71.983 363.084,71.623 362.875,71.310 362.494 C 70.997 362.112,70.836 361.995,70.953 362.233 C 71.069 362.472,70.920 362.667,70.621 362.667 C 70.291 362.667,70.170 362.417,70.313 362.033 C 70.525 361.466,70.471 361.463,69.798 362.000 C 69.385 362.330,69.169 362.395,69.319 362.145 C 69.477 361.881,69.242 361.600,68.755 361.472 C 68.296 361.352,68.038 361.062,68.183 360.827 C 68.328 360.592,68.246 360.400,68.000 360.400 C 67.754 360.400,67.683 360.189,67.842 359.932 C 68.033 359.622,67.917 359.546,67.499 359.707 C 67.129 359.849,66.771 359.702,66.638 359.354 C 66.492 358.974,66.575 358.861,66.866 359.041 C 67.148 359.215,67.214 359.146,67.038 358.862 C 66.881 358.608,66.403 358.400,65.976 358.400 C 65.281 358.400,65.014 357.979,65.153 357.100 C 65.179 356.935,64.900 356.800,64.533 356.800 C 64.167 356.800,63.979 356.688,64.116 356.550 C 64.254 356.413,63.969 355.949,63.483 355.520 C 62.997 355.090,62.825 354.853,63.100 354.993 C 63.375 355.133,63.600 355.057,63.600 354.824 C 63.600 354.591,63.240 354.400,62.800 354.400 C 62.208 354.400,62.000 354.133,62.000 353.376 C 62.000 352.796,61.827 352.460,61.600 352.600 C 61.380 352.736,61.200 352.495,61.200 352.064 C 61.200 351.634,60.698 350.318,60.084 349.141 C 58.926 346.917,57.786 343.665,57.947 343.040 C 57.998 342.842,57.938 342.416,57.814 342.093 C 57.390 340.986,57.375 118.010,57.800 117.832 C 58.020 117.739,57.989 117.649,57.731 117.632 C 57.399 117.609,57.439 117.244,57.868 116.385 C 58.201 115.716,58.369 114.897,58.242 114.564 C 58.110 114.220,58.180 114.064,58.405 114.203 C 58.622 114.337,58.800 114.077,58.800 113.624 C 58.800 113.171,58.980 112.800,59.200 112.800 C 59.420 112.800,59.600 112.260,59.600 111.600 C 59.600 110.940,59.780 110.400,60.000 110.400 C 60.220 110.400,60.400 110.040,60.400 109.600 C 60.400 109.160,60.580 108.800,60.800 108.800 C 61.020 108.800,61.200 108.612,61.200 108.383 C 61.200 108.154,61.564 107.575,62.010 107.097 C 62.455 106.619,62.731 105.997,62.622 105.714 C 62.514 105.431,62.612 105.200,62.841 105.200 C 63.456 105.200,64.485 104.061,64.235 103.657 C 64.015 103.300,65.473 101.758,65.942 101.851 C 66.267 101.916,68.400 100.138,68.400 99.802 C 68.400 99.665,68.192 99.681,67.938 99.838 C 67.650 100.016,67.585 99.948,67.766 99.655 C 67.925 99.398,68.224 99.291,68.431 99.419 C 68.910 99.715,69.911 98.734,69.719 98.157 C 69.639 97.917,69.895 97.370,70.287 96.942 C 70.679 96.513,70.856 96.380,70.681 96.646 C 70.126 97.484,71.026 97.595,71.729 96.775 C 72.478 95.900,72.610 95.423,72.000 95.800 C 71.780 95.936,71.600 95.941,71.600 95.811 C 71.600 95.681,72.005 95.396,72.500 95.178 C 73.322 94.816,73.304 94.800,72.300 94.998 L 71.200 95.215 71.200 79.184 C 71.200 66.472,71.096 63.212,70.700 63.441 C 70.425 63.599,70.333 63.581,70.497 63.401 C 70.660 63.221,70.593 62.832,70.348 62.537 C 70.055 62.185,70.045 62.000,70.318 62.000 C 70.546 62.000,70.825 62.225,70.936 62.500 C 71.068 62.824,71.255 62.859,71.470 62.600 C 71.651 62.380,72.055 62.200,72.367 62.200 C 72.678 62.200,72.998 62.005,73.078 61.767 C 73.249 61.252,72.061 61.177,71.749 61.683 M80.000 92.715 C 80.000 92.888,80.360 93.057,80.800 93.090 C 81.240 93.123,81.600 92.981,81.600 92.775 C 81.600 92.569,81.240 92.400,80.800 92.400 C 80.360 92.400,80.000 92.542,80.000 92.715 M312.700 341.082 C 313.195 341.178,314.005 341.178,314.500 341.082 C 314.995 340.987,314.590 340.909,313.600 340.909 C 312.610 340.909,312.205 340.987,312.700 341.082 M74.069 399.033 C 74.469 399.438,75.014 399.603,75.426 399.445 C 76.299 399.110,76.011 398.821,74.549 398.560 C 73.472 398.369,73.442 398.399,74.069 399.033 " stroke="none" fill="#08ebfc" fill-rule="evenodd"></path><path id="path2" d="M110.267 17.867 C 109.460 18.673,108.864 19.398,108.943 19.476 C 109.222 19.756,110.392 19.110,110.192 18.787 C 110.080 18.606,110.347 18.344,110.786 18.204 C 111.225 18.065,111.542 17.737,111.492 17.476 C 111.441 17.214,111.638 17.049,111.930 17.110 C 112.221 17.170,112.345 17.035,112.206 16.810 C 111.860 16.249,111.913 16.220,110.267 17.867 M108.216 20.562 C 108.930 21.084,108.902 21.109,107.827 20.903 C 106.882 20.722,106.714 20.799,106.914 21.320 C 107.094 21.789,106.987 21.893,106.514 21.712 C 106.113 21.558,105.969 21.626,106.132 21.890 C 106.277 22.124,106.126 22.419,105.798 22.546 C 105.469 22.672,105.200 23.051,105.200 23.387 C 105.200 23.724,105.001 24.000,104.757 24.000 C 104.514 24.000,104.426 24.290,104.562 24.645 C 104.741 25.113,104.638 25.223,104.184 25.049 C 103.840 24.917,103.654 24.963,103.770 25.151 C 103.886 25.339,103.607 25.832,103.150 26.246 C 102.692 26.659,102.041 27.539,101.703 28.199 C 101.365 28.860,100.970 29.490,100.825 29.600 C 100.349 29.961,98.740 32.400,98.978 32.400 C 99.106 32.400,98.792 33.075,98.281 33.900 C 96.792 36.303,95.599 39.119,95.018 41.600 C 94.993 41.710,94.759 42.181,94.500 42.647 C 94.240 43.113,94.125 43.592,94.244 43.710 C 94.362 43.829,94.168 44.488,93.813 45.175 C 93.458 45.861,93.268 46.586,93.390 46.784 C 93.513 46.982,93.430 47.258,93.207 47.396 C 92.983 47.534,92.800 48.342,92.800 49.190 C 92.800 50.039,92.633 50.793,92.428 50.867 C 92.223 50.940,92.004 52.292,91.942 53.870 C 91.879 55.449,91.686 56.653,91.514 56.547 C 91.341 56.440,91.200 56.993,91.200 57.776 L 91.200 59.200 87.800 59.250 C 84.682 59.296,83.774 59.365,83.500 59.578 C 83.445 59.620,82.500 59.705,81.400 59.766 C 78.166 59.946,77.943 59.984,78.152 60.322 C 78.261 60.499,77.361 60.634,76.152 60.622 C 74.288 60.603,73.845 60.745,73.232 61.558 C 72.569 62.436,71.275 62.450,71.817 61.572 C 72.154 61.027,71.511 61.141,70.676 61.774 C 70.210 62.128,70.105 62.418,70.383 62.589 C 70.619 62.736,70.692 63.051,70.545 63.289 C 70.385 63.549,70.463 63.609,70.738 63.438 C 71.084 63.224,71.200 67.168,71.200 79.184 L 71.200 95.215 72.300 94.998 C 73.304 94.800,73.322 94.816,72.500 95.178 C 72.005 95.396,71.600 95.681,71.600 95.811 C 71.600 95.941,71.780 95.936,72.000 95.800 C 72.220 95.664,72.403 95.788,72.406 96.076 C 72.410 96.396,72.527 96.444,72.706 96.200 C 72.989 95.814,74.977 94.617,75.800 94.336 C 76.020 94.261,76.165 94.095,76.122 93.966 C 76.079 93.837,76.574 93.763,77.222 93.801 C 77.870 93.840,78.400 93.720,78.400 93.536 C 78.400 93.351,78.760 93.200,79.200 93.200 C 79.640 93.200,80.000 93.020,80.000 92.800 C 80.000 92.578,81.067 92.400,82.400 92.400 C 83.733 92.400,84.800 92.222,84.800 92.000 C 84.800 91.741,90.352 91.573,100.500 91.523 C 109.326 91.479,114.449 91.338,112.200 91.200 C 110.000 91.065,108.470 90.920,108.800 90.877 C 109.335 90.808,109.503 61.355,109.202 20.300 C 109.201 20.135,108.806 20.000,108.324 20.000 C 107.473 20.000,107.470 20.016,108.216 20.562 M66.200 63.200 C 66.064 63.420,65.614 63.600,65.200 63.600 C 64.786 63.600,64.346 63.763,64.223 63.963 C 63.952 64.402,65.605 64.037,66.282 63.508 C 66.548 63.301,66.981 63.264,67.244 63.427 C 67.548 63.615,67.619 63.554,67.438 63.262 C 67.087 62.694,66.530 62.666,66.200 63.200 M70.155 97.012 C 69.790 97.569,69.606 98.139,69.746 98.279 C 69.886 98.419,70.000 98.313,70.000 98.043 C 70.000 97.771,70.208 97.681,70.468 97.842 C 70.775 98.032,70.855 97.919,70.699 97.514 C 70.569 97.175,70.664 96.696,70.911 96.449 C 71.158 96.202,71.238 96.000,71.089 96.000 C 70.940 96.000,70.520 96.456,70.155 97.012 M68.200 361.200 C 68.336 361.420,68.717 361.600,69.047 361.600 C 69.399 361.600,69.529 361.791,69.362 362.062 C 69.181 362.355,69.253 362.415,69.558 362.226 C 69.926 361.998,69.929 361.797,69.570 361.364 C 69.042 360.728,67.817 360.581,68.200 361.200 M71.079 363.080 C 70.539 363.220,70.466 363.397,70.788 363.785 C 71.083 364.141,71.184 369.396,71.109 380.552 C 71.038 391.109,71.140 396.860,71.400 396.970 C 71.621 397.063,71.532 397.329,71.200 397.563 C 70.682 397.930,70.696 397.989,71.300 397.994 C 71.685 397.997,72.000 398.180,72.000 398.400 C 72.000 398.620,72.191 398.800,72.424 398.800 C 72.657 398.800,72.745 398.635,72.621 398.434 C 72.497 398.233,72.531 397.992,72.698 397.900 C 72.864 397.807,72.730 397.802,72.400 397.889 C 71.943 398.010,71.911 397.936,72.265 397.579 C 72.884 396.955,73.631 397.454,73.315 398.278 C 73.143 398.726,73.217 398.837,73.550 398.631 C 73.817 398.466,74.332 398.572,74.694 398.866 C 75.153 399.237,75.263 399.249,75.056 398.905 C 74.854 398.568,74.957 398.485,75.377 398.646 C 75.717 398.777,75.910 399.021,75.807 399.189 C 75.540 399.621,76.394 399.652,93.691 399.845 L 109.182 400.018 109.291 384.465 L 109.400 368.912 104.637 368.656 C 102.018 368.515,97.213 368.400,93.961 368.400 C 90.708 368.400,87.947 368.238,87.825 368.040 C 87.702 367.841,86.746 367.681,85.701 367.683 C 81.740 367.690,81.144 367.613,81.442 367.132 C 81.632 366.825,81.519 366.745,81.115 366.900 C 80.777 367.030,79.994 366.874,79.376 366.554 C 78.758 366.233,78.009 366.064,77.711 366.179 C 77.413 366.293,77.068 366.121,76.943 365.796 C 76.818 365.471,76.570 365.295,76.390 365.406 C 76.211 365.517,75.793 365.336,75.461 365.004 C 74.728 364.271,74.002 364.219,73.994 364.900 C 73.990 365.243,73.872 365.218,73.620 364.819 C 73.418 364.500,73.342 364.095,73.450 363.919 C 73.759 363.418,72.614 363.546,72.089 364.071 C 71.729 364.431,71.658 364.338,71.786 363.671 C 71.879 363.192,71.919 362.821,71.877 362.846 C 71.835 362.872,71.475 362.977,71.079 363.080 " stroke="none" fill="#1cdcfc" fill-rule="evenodd"></path><path id="path3" d="M145.946 0.187 C 145.843 0.290,144.733 0.408,143.479 0.449 C 142.226 0.490,141.200 0.676,141.200 0.862 C 141.200 1.048,140.480 1.200,139.600 1.200 C 138.720 1.200,138.000 1.380,138.000 1.600 C 138.000 1.820,137.460 2.000,136.800 2.000 C 136.140 2.000,135.600 2.180,135.600 2.400 C 135.600 2.620,135.161 2.800,134.624 2.800 C 134.087 2.800,133.536 2.980,133.400 3.200 C 133.264 3.420,132.713 3.600,132.176 3.600 C 131.639 3.600,131.200 3.780,131.200 4.000 C 131.200 4.220,130.750 4.400,130.200 4.400 C 129.650 4.400,129.200 4.580,129.200 4.800 C 129.200 5.020,128.829 5.200,128.376 5.200 C 127.923 5.200,127.642 5.344,127.751 5.520 C 127.860 5.696,127.185 6.066,126.253 6.341 C 125.320 6.617,123.937 7.372,123.178 8.020 C 122.420 8.668,121.530 9.200,121.200 9.203 C 120.870 9.205,120.176 9.744,119.657 10.401 C 119.139 11.057,118.552 11.494,118.353 11.371 C 117.890 11.085,115.937 12.604,116.301 12.968 C 116.452 13.119,116.277 13.128,115.912 12.988 C 115.482 12.823,115.065 13.027,114.728 13.567 C 114.442 14.025,113.970 14.400,113.680 14.400 C 113.390 14.400,113.264 14.580,113.400 14.800 C 113.536 15.020,113.446 15.200,113.200 15.200 C 112.954 15.200,112.881 15.408,113.038 15.662 C 113.220 15.956,113.147 16.015,112.837 15.823 C 112.123 15.381,110.690 16.785,111.212 17.414 C 111.651 17.943,110.636 18.593,109.992 18.195 C 109.807 18.080,109.525 18.198,109.366 18.455 C 109.192 18.737,109.249 18.817,109.511 18.655 C 109.749 18.508,110.046 18.551,110.170 18.752 C 110.439 19.186,109.285 19.700,108.764 19.378 C 108.564 19.254,108.400 19.328,108.400 19.543 C 108.400 19.758,108.582 19.994,108.804 20.068 C 109.540 20.313,109.536 90.785,108.800 90.868 C 105.856 91.203,121.283 91.492,140.600 91.465 C 153.580 91.447,162.445 91.374,160.300 91.302 L 156.400 91.171 156.400 75.786 L 156.400 60.400 158.200 60.400 C 159.190 60.400,160.000 60.224,160.000 60.010 C 160.000 59.776,162.693 59.571,166.700 59.499 C 170.385 59.433,162.195 59.339,148.500 59.290 C 127.327 59.213,123.600 59.115,123.600 58.633 C 123.600 58.322,123.771 58.007,123.980 57.933 C 124.189 57.860,124.404 57.035,124.458 56.100 C 124.512 55.165,124.701 54.400,124.878 54.400 C 125.055 54.400,125.200 53.860,125.200 53.200 C 125.200 52.540,125.380 52.000,125.600 52.000 C 125.820 52.000,126.000 51.640,126.000 51.200 C 126.000 50.760,126.180 50.400,126.400 50.400 C 126.620 50.400,126.800 50.040,126.800 49.600 C 126.800 49.160,126.980 48.800,127.200 48.800 C 127.420 48.800,127.600 48.564,127.600 48.275 C 127.600 47.987,128.005 47.316,128.500 46.785 C 128.995 46.253,129.355 45.770,129.300 45.709 C 129.006 45.388,129.259 44.790,129.600 45.000 C 129.820 45.136,130.000 45.049,130.000 44.807 C 130.000 44.056,132.294 41.545,135.212 39.103 C 136.195 38.280,137.225 37.418,137.500 37.188 C 137.775 36.957,138.006 36.911,138.013 37.084 C 138.020 37.258,138.297 37.040,138.630 36.600 C 138.962 36.160,139.322 35.856,139.429 35.924 C 139.600 36.033,142.959 34.583,144.895 33.565 C 145.277 33.364,145.909 33.200,146.300 33.200 C 146.691 33.200,147.955 32.855,149.109 32.433 C 150.262 32.012,151.101 31.837,150.972 32.045 C 150.836 32.266,151.405 32.377,152.334 32.312 C 153.591 32.224,153.839 32.089,153.500 31.680 C 153.160 31.271,153.295 31.202,154.135 31.354 C 154.721 31.460,155.200 31.379,155.200 31.174 C 155.200 30.968,155.470 30.800,155.800 30.800 C 156.323 30.800,156.400 28.822,156.400 15.400 L 156.400 0.000 151.267 0.000 C 148.443 0.000,146.049 0.084,145.946 0.187 M173.785 110.800 C 173.785 121.470,173.837 125.835,173.900 120.500 C 173.963 115.165,173.963 106.435,173.900 101.100 C 173.837 95.765,173.785 100.130,173.785 110.800 M106.200 368.696 L 109.400 368.829 109.291 384.414 L 109.182 400.000 132.791 400.000 L 156.400 400.000 156.400 384.664 L 156.400 369.327 150.300 368.861 C 146.522 368.572,136.358 368.427,123.600 368.479 C 112.270 368.525,104.440 368.623,106.200 368.696 " stroke="none" fill="#22d3fc" fill-rule="evenodd"></path><path id="path4" d="M156.400 15.400 C 156.400 28.822,156.323 30.800,155.800 30.800 C 155.470 30.800,155.200 30.980,155.200 31.200 C 155.200 31.464,165.329 31.581,184.900 31.544 C 211.796 31.493,245.973 31.066,238.300 30.877 L 235.200 30.800 235.200 15.400 L 235.200 0.000 195.800 0.000 L 156.400 0.000 156.400 15.400 M152.160 31.801 C 152.968 32.412,154.473 32.381,154.684 31.749 C 154.753 31.541,154.444 31.343,153.996 31.310 C 153.549 31.276,153.287 31.418,153.415 31.624 C 153.543 31.831,153.467 32.000,153.247 32.000 C 153.027 32.000,152.736 31.820,152.600 31.600 C 152.464 31.380,152.138 31.206,151.876 31.213 C 151.614 31.220,151.742 31.484,152.160 31.801 M166.700 59.499 C 162.693 59.571,160.000 59.776,160.000 60.010 C 160.000 60.224,159.190 60.400,158.200 60.400 L 156.400 60.400 156.400 75.738 L 156.400 91.076 162.100 91.336 C 165.235 91.480,169.015 91.598,170.500 91.599 L 173.200 91.600 173.200 110.976 C 173.200 124.709,173.329 130.432,173.643 130.626 C 173.951 130.817,173.921 131.004,173.543 131.244 C 173.221 131.448,173.184 131.590,173.452 131.594 C 173.756 131.598,173.927 133.014,173.973 135.900 C 174.010 138.265,174.212 140.371,174.421 140.580 C 174.629 140.789,174.800 141.824,174.800 142.880 C 174.800 143.936,174.980 144.800,175.200 144.800 C 175.420 144.800,175.600 145.520,175.600 146.400 C 175.600 147.280,175.758 148.000,175.950 148.000 C 176.143 148.000,176.300 148.488,176.300 149.083 C 176.300 149.679,176.492 150.231,176.728 150.309 C 176.963 150.388,177.055 150.712,176.933 151.031 C 176.811 151.350,176.917 151.860,177.170 152.164 C 177.423 152.469,177.705 153.106,177.796 153.580 C 177.887 154.054,178.241 155.000,178.581 155.682 C 178.921 156.365,179.200 157.146,179.200 157.419 C 179.200 157.691,179.481 158.022,179.825 158.154 C 180.169 158.286,180.346 158.563,180.219 158.770 C 180.091 158.976,180.170 159.258,180.393 159.396 C 180.617 159.534,180.800 160.007,180.800 160.447 C 180.800 160.887,180.980 161.136,181.200 161.000 C 181.420 160.864,181.600 161.046,181.600 161.404 C 181.600 161.763,182.140 162.841,182.800 163.800 C 183.460 164.759,184.000 165.712,184.000 165.918 C 184.000 166.123,184.410 166.720,184.911 167.245 C 185.412 167.770,186.341 168.902,186.976 169.759 C 187.611 170.616,188.641 171.806,189.265 172.402 C 189.889 172.999,190.400 173.597,190.400 173.733 C 190.400 173.963,192.219 175.744,196.355 179.561 C 197.321 180.452,198.446 181.287,198.855 181.418 C 199.265 181.548,199.600 181.822,199.600 182.027 C 199.600 182.232,199.881 182.400,200.224 182.400 C 200.567 182.400,200.753 182.553,200.637 182.740 C 200.522 182.927,200.916 183.325,201.514 183.625 C 202.111 183.926,203.095 184.505,203.700 184.913 C 204.305 185.321,204.805 185.507,204.812 185.327 C 204.819 185.147,205.008 185.315,205.232 185.700 C 205.456 186.085,205.901 186.400,206.220 186.400 C 206.539 186.400,206.800 186.574,206.800 186.787 C 206.800 187.001,207.068 187.072,207.397 186.946 C 207.737 186.815,208.099 186.992,208.239 187.358 C 208.375 187.711,208.844 188.000,209.281 188.000 C 209.719 188.000,210.606 188.377,211.252 188.837 C 211.899 189.298,212.701 189.570,213.035 189.442 C 213.369 189.314,213.548 189.361,213.433 189.546 C 213.225 189.883,218.540 191.600,219.789 191.600 C 220.151 191.600,220.336 191.780,220.200 192.000 C 220.051 192.241,220.588 192.400,221.553 192.400 C 222.433 192.400,223.264 192.580,223.400 192.800 C 223.536 193.020,224.547 193.200,225.647 193.200 C 226.752 193.200,227.546 193.364,227.421 193.565 C 227.297 193.766,227.782 193.901,228.498 193.865 C 229.324 193.824,229.800 193.593,229.800 193.233 C 229.800 192.921,230.206 192.636,230.702 192.600 C 231.500 192.541,231.537 192.606,231.030 193.167 C 230.517 193.734,230.641 193.811,232.229 193.903 C 233.437 193.973,234.002 193.846,234.006 193.503 C 234.011 193.132,234.103 193.143,234.358 193.547 C 234.621 193.961,234.886 193.988,235.452 193.659 C 235.864 193.420,235.975 193.219,235.700 193.212 C 235.309 193.203,235.200 189.936,235.200 178.246 C 235.200 165.758,235.101 163.102,234.602 162.146 C 234.180 161.336,234.004 161.212,234.002 161.724 C 234.001 162.122,233.817 162.334,233.593 162.196 C 233.370 162.058,233.293 161.732,233.423 161.472 C 233.553 161.213,233.376 161.349,233.030 161.776 C 232.538 162.382,232.400 162.419,232.400 161.943 C 232.400 161.608,232.122 161.333,231.783 161.333 C 231.433 161.333,231.254 161.564,231.370 161.867 C 231.483 162.160,231.401 162.400,231.187 162.400 C 230.974 162.400,230.800 162.152,230.800 161.849 C 230.800 160.923,229.822 160.344,229.212 160.910 C 228.789 161.302,228.746 161.288,229.001 160.842 C 229.248 160.409,229.086 160.329,228.279 160.483 C 227.587 160.615,227.164 160.482,227.011 160.083 C 226.884 159.755,226.683 159.584,226.562 159.704 C 226.442 159.825,225.874 159.680,225.300 159.382 C 224.727 159.084,224.109 158.932,223.929 159.044 C 223.748 159.156,223.600 159.027,223.600 158.757 C 223.600 158.487,223.485 158.382,223.344 158.522 C 223.124 158.743,222.465 158.309,220.117 156.394 C 219.851 156.177,219.448 156.000,219.220 156.000 C 218.993 156.000,218.582 155.640,218.307 155.200 C 218.032 154.760,217.662 154.400,217.485 154.400 C 216.992 154.400,213.600 150.949,213.600 150.447 C 213.600 150.205,213.240 149.782,212.800 149.507 C 212.360 149.232,212.000 148.781,212.000 148.504 C 212.000 148.227,211.843 148.000,211.651 148.000 C 211.459 148.000,210.857 147.102,210.314 146.004 C 209.771 144.906,209.208 144.126,209.063 144.270 C 208.918 144.415,208.800 143.963,208.800 143.267 C 208.800 142.570,208.620 142.000,208.400 142.000 C 208.180 142.000,208.000 141.676,208.000 141.280 C 208.000 140.884,207.784 140.344,207.520 140.080 C 207.256 139.816,207.153 139.600,207.292 139.600 C 207.431 139.600,207.373 139.015,207.164 138.300 C 206.955 137.585,206.684 136.190,206.563 135.200 C 206.226 132.461,206.181 132.216,205.923 131.793 C 205.792 131.577,205.656 127.559,205.621 122.865 L 205.558 114.331 211.779 120.585 C 215.201 124.025,218.000 126.784,218.000 126.716 C 218.000 126.648,219.170 127.695,220.600 129.043 C 222.030 130.391,223.200 131.709,223.200 131.971 C 223.200 132.233,223.371 132.341,223.581 132.212 C 223.791 132.082,224.233 132.477,224.565 133.088 C 224.897 133.700,225.178 133.930,225.190 133.600 C 225.209 133.080,225.261 133.078,225.580 133.581 C 225.782 133.900,225.887 134.260,225.813 134.381 C 225.590 134.745,229.385 138.200,230.009 138.200 C 230.328 138.200,230.828 138.698,231.120 139.307 C 231.412 139.916,232.088 140.701,232.622 141.051 C 233.156 141.401,233.516 141.812,233.422 141.964 C 233.329 142.116,233.619 142.469,234.068 142.749 C 234.518 143.031,234.765 143.067,234.618 142.830 C 234.472 142.593,234.543 142.400,234.776 142.400 C 235.009 142.400,235.203 142.625,235.206 142.900 C 235.210 143.238,235.333 143.209,235.585 142.811 C 235.815 142.447,235.815 142.133,235.586 141.991 C 235.228 141.770,234.983 99.497,235.336 98.884 C 235.426 98.728,235.355 98.240,235.178 97.800 C 235.001 97.360,234.844 97.135,234.828 97.300 C 234.813 97.465,234.449 97.249,234.019 96.819 C 233.590 96.390,232.890 96.106,232.465 96.187 C 231.867 96.303,231.738 96.160,231.895 95.560 C 232.066 94.906,232.201 94.864,232.749 95.292 C 233.322 95.739,233.337 95.720,232.877 95.131 C 232.532 94.690,231.985 94.527,231.277 94.653 C 230.238 94.838,230.228 94.824,231.000 94.235 C 231.778 93.642,231.769 93.625,230.700 93.613 C 230.038 93.605,229.640 93.401,229.700 93.100 C 229.755 92.825,229.561 92.650,229.270 92.710 C 228.897 92.787,228.821 92.564,229.013 91.960 C 229.197 91.380,229.142 91.189,228.843 91.374 C 228.591 91.529,228.400 91.378,228.400 91.024 C 228.400 90.681,228.194 90.400,227.943 90.400 C 227.376 90.400,225.200 88.163,225.200 87.580 C 225.200 87.345,225.020 87.264,224.800 87.400 C 224.580 87.536,224.400 87.367,224.400 87.024 C 224.400 86.681,224.175 86.445,223.900 86.500 C 223.625 86.555,223.445 86.375,223.500 86.100 C 223.592 85.641,223.088 85.420,222.270 85.563 C 222.089 85.594,222.028 85.478,222.135 85.305 C 222.466 84.769,221.291 83.496,220.765 83.822 C 220.452 84.015,220.379 83.957,220.564 83.659 C 220.938 83.054,219.746 81.862,219.141 82.236 C 218.863 82.409,218.784 82.350,218.945 82.089 C 219.093 81.850,218.810 81.372,218.318 81.027 C 217.825 80.682,217.571 80.400,217.753 80.400 C 217.936 80.400,217.507 79.860,216.800 79.200 C 216.093 78.540,215.324 78.000,215.091 78.000 C 214.858 78.000,214.778 77.889,214.914 77.752 C 215.218 77.449,214.221 76.400,213.629 76.400 C 213.393 76.400,213.200 76.248,213.200 76.061 C 213.200 75.494,211.740 74.000,211.186 74.000 C 210.901 74.000,210.786 73.881,210.931 73.736 C 211.076 73.590,210.809 73.275,210.337 73.036 C 209.865 72.796,209.281 72.261,209.039 71.847 C 208.377 70.711,206.822 69.200,206.315 69.200 C 206.068 69.200,205.958 69.108,206.070 68.997 C 206.360 68.706,202.751 64.978,202.308 65.110 C 202.106 65.170,202.040 65.059,202.161 64.863 C 202.282 64.667,201.983 64.168,201.497 63.753 C 200.625 63.010,200.621 63.010,201.195 63.800 C 201.515 64.240,201.106 63.933,200.286 63.118 C 198.919 61.758,196.846 60.499,195.531 60.230 C 195.239 60.170,194.694 59.988,194.319 59.825 C 193.945 59.662,193.462 59.638,193.247 59.771 C 193.031 59.904,192.742 59.830,192.604 59.607 C 192.364 59.218,184.278 59.184,166.700 59.499 M173.900 120.500 C 173.837 125.835,173.785 121.470,173.785 110.800 C 173.785 100.130,173.837 95.765,173.900 101.100 C 173.963 106.435,173.963 115.165,173.900 120.500 M236.164 99.350 C 235.829 100.221,236.063 100.455,236.808 99.995 C 237.266 99.712,237.288 99.528,236.910 99.150 C 236.532 98.772,236.369 98.815,236.164 99.350 M240.608 105.124 C 240.284 105.969,240.497 105.997,241.300 105.215 C 241.857 104.672,241.881 104.533,241.417 104.533 C 241.097 104.533,240.732 104.799,240.608 105.124 M248.000 111.237 C 247.467 111.614,247.467 111.641,248.000 111.483 C 248.330 111.385,248.960 111.596,249.400 111.952 C 250.193 112.594,250.194 112.592,249.438 111.700 C 249.019 111.205,248.659 110.803,248.638 110.806 C 248.617 110.809,248.330 111.003,248.000 111.237 M239.200 146.587 C 239.200 146.962,238.947 147.097,238.500 146.960 C 238.115 146.842,238.230 147.002,238.756 147.316 C 239.282 147.631,239.955 148.318,240.253 148.844 C 240.777 149.772,240.791 149.756,240.716 148.318 C 240.651 147.076,240.545 146.913,240.062 147.315 C 239.579 147.715,239.531 147.647,239.769 146.897 C 239.943 146.350,239.887 146.000,239.627 146.000 C 239.392 146.000,239.200 146.264,239.200 146.587 M243.817 152.372 C 243.703 152.558,243.856 152.914,244.158 153.165 C 244.577 153.513,244.759 153.484,244.928 153.043 C 245.167 152.421,244.162 151.814,243.817 152.372 M235.986 162.545 C 236.175 162.735,237.111 162.936,238.065 162.992 C 239.019 163.048,239.211 163.016,238.492 162.922 C 237.772 162.828,237.276 162.601,237.389 162.418 C 237.502 162.235,237.155 162.111,236.618 162.142 C 236.070 162.175,235.792 162.352,235.986 162.545 M151.500 368.906 L 156.400 369.289 156.400 384.644 L 156.400 400.000 195.800 400.000 L 235.200 400.000 235.200 384.600 L 235.200 369.200 238.300 369.123 C 247.253 368.902,210.172 368.513,180.600 368.517 C 155.741 368.521,147.917 368.625,151.500 368.906 " stroke="none" fill="#34c4fc" fill-rule="evenodd"></path></g></svg>