<svg id="svg" version="1.1" xmlns="http://www.w3.org/2000/svg" xmlns:xlink="http://www.w3.org/1999/xlink" width="400" height="400" viewBox="0, 0, 400,400"><g id="svgg"><path id="path0" d="M202.304 1.126 C 202.163 1.662,202.334 1.845,202.957 1.826 L 203.800 1.800 203.904 54.270 C 204.003 104.086,203.973 106.747,203.304 106.887 C 202.694 107.015,202.720 107.101,203.506 107.535 C 204.170 107.901,204.383 107.910,204.306 107.567 C 204.140 106.836,205.072 106.690,205.346 107.404 C 205.481 107.755,205.432 107.943,205.237 107.823 C 205.043 107.703,204.773 107.894,204.637 108.247 C 204.462 108.704,204.564 108.823,204.991 108.659 C 205.339 108.525,205.550 108.632,205.495 108.914 C 205.443 109.181,205.898 109.457,206.507 109.527 C 207.180 109.605,207.508 109.825,207.345 110.089 C 207.192 110.337,207.261 110.410,207.506 110.258 C 207.742 110.112,208.175 110.229,208.468 110.519 C 208.760 110.808,209.315 111.164,209.700 111.310 C 210.085 111.456,210.400 111.773,210.400 112.016 C 210.400 112.657,211.532 113.689,211.952 113.430 C 212.148 113.308,212.532 113.477,212.804 113.804 C 213.076 114.132,213.726 114.400,214.249 114.400 C 214.772 114.400,215.200 114.580,215.200 114.800 C 215.200 115.020,215.481 115.200,215.824 115.200 C 216.216 115.200,216.336 115.385,216.147 115.700 C 215.911 116.093,215.974 116.097,216.440 115.720 C 216.917 115.334,217.128 115.393,217.520 116.020 C 217.830 116.516,218.451 116.800,219.227 116.800 C 219.898 116.800,220.350 116.957,220.231 117.150 C 220.112 117.343,220.482 117.500,221.053 117.500 C 221.624 117.500,222.206 117.657,222.345 117.850 C 222.485 118.043,222.960 118.260,223.400 118.333 C 223.840 118.407,224.371 118.632,224.580 118.833 C 224.789 119.035,225.464 119.200,226.080 119.200 C 226.696 119.200,227.200 119.370,227.200 119.577 C 227.200 119.784,227.785 119.957,228.500 119.962 C 230.388 119.974,231.200 120.100,231.200 120.381 C 231.200 120.517,232.235 120.671,233.500 120.724 C 234.765 120.776,235.858 120.988,235.928 121.194 C 236.004 121.416,238.095 121.481,241.059 121.354 L 246.061 121.139 244.930 122.428 C 244.309 123.138,243.130 124.346,242.310 125.114 C 241.491 125.881,240.934 126.693,241.072 126.917 C 241.210 127.140,241.152 127.218,240.943 127.089 C 240.734 126.959,239.426 127.921,238.038 129.227 C 236.649 130.532,235.667 131.603,235.856 131.606 C 236.045 131.609,235.750 131.849,235.200 132.139 C 234.650 132.428,234.246 132.880,234.303 133.141 C 234.360 133.403,233.950 133.791,233.392 134.003 C 232.835 134.215,232.215 134.796,232.015 135.294 C 231.814 135.792,231.639 136.059,231.625 135.887 C 231.596 135.527,228.800 138.241,228.800 138.629 C 228.800 138.770,228.348 139.240,227.796 139.674 C 227.244 140.109,226.897 140.634,227.026 140.842 C 227.154 141.050,227.021 141.170,226.730 141.110 C 226.438 141.049,226.245 141.225,226.300 141.500 C 226.355 141.775,226.175 141.955,225.900 141.900 C 225.625 141.845,225.449 142.038,225.510 142.330 C 225.570 142.621,225.462 142.762,225.269 142.643 C 225.076 142.523,224.397 143.050,223.761 143.813 C 223.125 144.576,222.462 145.200,222.289 145.200 C 221.778 145.200,219.231 147.897,219.493 148.160 C 219.625 148.292,219.469 148.400,219.145 148.400 C 218.369 148.400,215.898 150.965,216.293 151.360 C 216.462 151.529,216.345 151.607,216.033 151.533 C 215.721 151.460,215.228 151.850,214.939 152.400 C 214.649 152.950,214.409 153.252,214.406 153.071 C 214.397 152.567,213.200 153.880,213.200 154.395 C 213.200 154.644,213.020 154.736,212.800 154.600 C 212.580 154.464,212.400 154.644,212.400 155.000 C 212.400 155.356,212.241 155.549,212.047 155.429 C 211.853 155.309,211.407 155.794,211.056 156.506 C 210.705 157.218,210.414 157.667,210.409 157.504 C 210.404 157.341,210.049 157.508,209.620 157.875 C 209.192 158.242,208.950 158.718,209.082 158.933 C 209.215 159.148,209.148 159.215,208.933 159.082 C 208.423 158.767,207.297 160.090,207.516 160.747 C 207.609 161.026,207.441 161.214,207.142 161.164 C 206.340 161.031,205.171 161.629,205.426 162.042 C 205.548 162.239,205.356 162.400,205.000 162.400 C 204.644 162.400,204.464 162.580,204.600 162.800 C 204.736 163.020,204.612 163.200,204.324 163.200 C 203.898 163.200,203.800 167.402,203.800 185.566 C 203.800 203.918,203.894 207.854,204.322 207.498 C 204.749 207.145,204.756 207.258,204.364 208.120 C 204.099 208.700,203.742 209.088,203.569 208.981 C 203.397 208.874,203.142 208.970,203.004 209.193 C 202.861 209.426,203.164 209.600,203.712 209.600 C 204.769 209.600,209.600 205.097,209.600 204.112 C 209.600 203.805,209.756 203.649,209.947 203.767 C 210.387 204.039,211.694 202.627,211.334 202.268 C 211.187 202.120,211.377 202.000,211.757 202.000 C 212.137 202.000,212.336 201.820,212.200 201.600 C 212.064 201.380,212.334 201.200,212.800 201.200 C 213.266 201.200,213.536 201.020,213.400 200.800 C 213.264 200.580,213.478 200.397,213.876 200.394 C 214.490 200.389,214.509 200.329,214.000 200.000 C 213.524 199.692,213.607 199.610,214.400 199.600 C 215.193 199.590,215.276 199.508,214.800 199.200 C 214.312 198.884,214.362 198.811,215.072 198.806 C 215.670 198.802,215.985 198.517,216.072 197.900 C 216.153 197.330,216.457 197.020,216.900 197.056 C 217.285 197.086,217.600 196.861,217.600 196.556 C 217.600 196.250,217.780 196.000,218.000 196.000 C 218.220 196.000,218.400 195.719,218.400 195.376 C 218.400 195.033,218.580 194.864,218.800 195.000 C 219.020 195.136,219.200 194.967,219.200 194.624 C 219.200 194.281,219.425 194.045,219.700 194.100 C 219.975 194.155,220.155 193.975,220.100 193.700 C 220.045 193.425,220.225 193.245,220.500 193.300 C 220.775 193.355,220.955 193.175,220.900 192.900 C 220.845 192.625,221.081 192.400,221.424 192.400 C 221.793 192.400,221.931 192.212,221.762 191.938 C 221.598 191.673,221.651 191.584,221.886 191.729 C 222.267 191.965,224.213 190.321,225.600 188.594 C 226.133 187.929,226.133 187.886,225.600 188.200 C 225.086 188.503,225.077 188.458,225.538 187.890 C 225.834 187.524,226.284 187.265,226.538 187.313 C 226.792 187.361,226.955 187.175,226.900 186.900 C 226.845 186.625,226.935 186.445,227.100 186.500 C 227.265 186.555,227.477 186.420,227.571 186.200 C 227.849 185.553,228.709 184.800,229.171 184.800 C 229.407 184.800,229.600 184.620,229.600 184.400 C 229.600 184.180,229.850 184.000,230.156 184.000 C 230.461 184.000,230.686 183.685,230.656 183.300 C 230.621 182.862,230.928 182.554,231.475 182.476 C 232.021 182.398,232.398 182.021,232.476 181.475 C 232.554 180.928,232.862 180.621,233.300 180.656 C 233.685 180.686,234.000 180.461,234.000 180.156 C 234.000 179.850,234.180 179.600,234.400 179.600 C 234.620 179.600,234.800 179.407,234.800 179.171 C 234.800 178.724,235.975 177.400,236.371 177.400 C 236.497 177.400,236.555 177.265,236.500 177.100 C 236.445 176.935,236.625 176.845,236.900 176.900 C 237.175 176.955,237.361 176.792,237.313 176.538 C 237.265 176.284,237.524 175.834,237.890 175.538 C 238.458 175.077,238.503 175.086,238.200 175.600 C 237.886 176.133,237.929 176.133,238.594 175.600 C 240.321 174.213,241.965 172.267,241.729 171.886 C 241.584 171.651,241.673 171.598,241.938 171.762 C 242.212 171.931,242.400 171.793,242.400 171.424 C 242.400 171.081,242.625 170.845,242.900 170.900 C 243.175 170.955,243.355 170.775,243.300 170.500 C 243.245 170.225,243.425 170.045,243.700 170.100 C 243.975 170.155,244.155 169.975,244.100 169.700 C 244.045 169.425,244.281 169.200,244.624 169.200 C 244.967 169.200,245.136 169.020,245.000 168.800 C 244.864 168.580,245.033 168.400,245.376 168.400 C 245.719 168.400,246.000 168.220,246.000 168.000 C 246.000 167.780,246.281 167.600,246.624 167.600 C 246.967 167.600,247.136 167.420,247.000 167.200 C 246.864 166.980,247.078 166.797,247.476 166.794 C 248.090 166.789,248.109 166.729,247.600 166.400 C 247.115 166.086,247.172 166.011,247.900 166.006 C 248.563 166.002,248.802 165.763,248.806 165.100 C 248.811 164.372,248.886 164.315,249.200 164.800 C 249.508 165.276,249.590 165.193,249.600 164.400 C 249.610 163.607,249.692 163.524,250.000 164.000 C 250.329 164.509,250.389 164.490,250.394 163.876 C 250.397 163.478,250.580 163.264,250.800 163.400 C 251.020 163.536,251.200 163.354,251.200 162.995 C 251.200 162.341,251.852 161.492,252.600 161.171 C 252.820 161.077,252.955 160.865,252.900 160.700 C 252.845 160.535,252.962 160.445,253.160 160.500 C 253.358 160.555,253.527 160.442,253.535 160.249 C 253.543 160.057,253.966 159.682,254.475 159.417 C 254.984 159.152,255.351 158.711,255.290 158.438 C 255.230 158.164,255.350 158.045,255.556 158.173 C 256.048 158.477,258.477 156.048,258.173 155.556 C 258.045 155.350,258.164 155.230,258.438 155.290 C 258.711 155.351,259.152 154.984,259.417 154.475 C 259.682 153.966,260.057 153.516,260.249 153.475 C 260.442 153.434,260.555 153.265,260.500 153.100 C 260.445 152.935,260.625 152.845,260.900 152.900 C 261.175 152.955,261.355 152.775,261.300 152.500 C 261.245 152.225,261.481 152.000,261.824 152.000 C 262.167 152.000,262.336 151.820,262.200 151.600 C 262.064 151.380,262.334 151.200,262.800 151.200 C 263.266 151.200,263.536 151.020,263.400 150.800 C 263.264 150.580,263.349 150.400,263.590 150.400 C 264.158 150.400,266.800 147.758,266.800 147.190 C 266.800 146.949,266.980 146.864,267.200 147.000 C 267.420 147.136,267.600 146.967,267.600 146.624 C 267.600 146.281,267.780 146.000,268.000 146.000 C 268.220 146.000,268.400 145.719,268.400 145.376 C 268.400 145.033,268.580 144.864,268.800 145.000 C 269.020 145.136,269.200 144.967,269.200 144.624 C 269.200 144.281,269.425 144.045,269.700 144.100 C 269.975 144.155,270.155 143.975,270.100 143.700 C 270.045 143.425,270.169 143.245,270.375 143.300 C 271.031 143.475,277.091 137.339,276.893 136.700 C 276.842 136.535,277.025 136.445,277.300 136.500 C 277.575 136.555,277.755 136.375,277.700 136.100 C 277.645 135.825,277.881 135.600,278.224 135.600 C 278.567 135.600,278.736 135.420,278.600 135.200 C 278.464 134.980,278.609 134.800,278.923 134.800 C 279.596 134.800,284.000 130.666,284.000 130.035 C 284.000 129.796,284.180 129.600,284.400 129.600 C 284.620 129.600,284.800 129.319,284.800 128.976 C 284.800 128.633,284.980 128.464,285.200 128.600 C 285.420 128.736,285.600 128.567,285.600 128.224 C 285.600 127.881,285.825 127.645,286.100 127.700 C 286.375 127.755,286.555 127.575,286.500 127.300 C 286.445 127.025,286.535 126.842,286.700 126.893 C 287.100 127.017,288.485 125.828,290.744 123.424 C 291.765 122.338,293.667 120.448,294.971 119.224 C 296.275 118.001,298.289 116.037,299.448 114.861 L 301.555 112.722 312.215 123.396 L 322.874 134.070 321.937 135.087 C 321.422 135.647,319.210 137.836,317.022 139.952 C 314.834 142.069,312.079 144.810,310.900 146.045 C 309.721 147.280,305.866 151.150,302.332 154.645 C 298.799 158.140,294.084 162.868,291.854 165.152 C 289.624 167.436,286.326 170.757,284.525 172.532 C 282.725 174.307,281.357 175.931,281.487 176.141 C 281.617 176.352,281.540 176.410,281.316 176.272 C 280.768 175.933,275.951 180.788,276.274 181.354 C 276.414 181.599,276.381 181.667,276.201 181.504 C 276.022 181.341,272.996 184.041,269.477 187.504 C 260.286 196.550,258.823 198.110,259.090 198.580 C 259.221 198.811,259.194 198.880,259.030 198.732 C 258.766 198.495,257.547 199.336,256.247 200.652 C 250.629 206.340,248.464 208.737,248.705 209.002 C 248.867 209.182,248.818 209.225,248.595 209.099 C 248.151 208.848,245.570 211.158,241.700 215.273 C 240.325 216.735,239.200 217.860,239.200 217.774 C 239.200 217.688,237.805 219.080,236.100 220.866 C 234.395 222.652,232.601 224.475,232.114 224.917 C 231.626 225.359,231.340 225.918,231.478 226.160 C 231.616 226.402,231.594 226.480,231.430 226.333 C 230.912 225.868,226.400 230.127,226.400 231.081 C 226.400 231.366,226.255 231.555,226.079 231.500 C 225.553 231.336,215.217 241.704,215.481 242.131 C 215.614 242.347,215.540 242.410,215.316 242.272 C 214.807 241.957,209.517 247.141,209.830 247.649 C 209.956 247.853,209.911 247.994,209.730 247.963 C 208.683 247.781,208.200 248.012,208.800 248.407 C 209.274 248.719,209.210 248.776,208.495 248.676 C 207.327 248.512,206.564 247.793,207.165 247.422 C 207.404 247.274,207.600 247.373,207.600 247.643 C 207.600 247.913,207.711 248.023,207.846 247.888 C 207.981 247.753,207.711 247.158,207.246 246.567 C 206.781 245.976,206.397 245.651,206.394 245.846 C 206.391 246.041,206.237 245.962,206.052 245.670 C 205.781 245.243,205.590 245.267,205.058 245.799 C 204.623 246.234,204.400 246.290,204.400 245.962 C 204.400 245.690,204.304 245.563,204.187 245.680 C 203.692 246.175,204.006 289.356,204.507 289.674 C 204.938 289.948,204.669 290.145,203.967 290.070 C 203.838 290.056,203.733 290.305,203.733 290.624 C 203.733 291.107,203.851 291.096,204.441 290.562 C 204.831 290.210,205.340 290.039,205.572 290.182 C 205.804 290.326,206.310 290.241,206.697 289.994 C 207.318 289.597,207.295 289.567,206.499 289.735 C 205.962 289.849,205.698 289.764,205.845 289.527 C 205.983 289.303,206.686 289.240,207.446 289.382 C 208.939 289.662,209.171 289.370,208.100 288.557 C 207.500 288.102,207.599 288.081,208.797 288.413 C 210.586 288.908,211.312 288.904,211.000 288.400 C 210.856 288.167,211.255 288.000,211.953 288.000 C 212.613 288.000,213.264 287.820,213.400 287.600 C 213.536 287.380,214.020 287.200,214.477 287.200 C 214.933 287.200,215.600 286.861,215.959 286.447 C 216.318 286.034,216.969 285.618,217.406 285.524 C 217.843 285.430,218.155 285.138,218.100 284.876 C 218.045 284.614,218.270 284.400,218.600 284.400 C 218.930 284.400,219.200 284.209,219.200 283.976 C 219.200 283.743,219.348 283.644,219.529 283.756 C 219.709 283.868,220.134 283.653,220.472 283.280 C 220.809 282.906,221.426 282.298,221.843 281.928 C 222.966 280.932,223.600 280.089,223.600 279.593 C 223.600 279.351,223.757 279.250,223.948 279.368 C 224.389 279.641,226.076 278.209,225.726 277.859 C 225.583 277.717,225.767 277.600,226.133 277.600 C 226.500 277.600,226.755 277.375,226.700 277.100 C 226.645 276.825,226.825 276.645,227.100 276.700 C 227.375 276.755,227.600 276.500,227.600 276.133 C 227.600 275.767,227.717 275.583,227.859 275.726 C 228.209 276.076,229.641 274.389,229.368 273.948 C 229.250 273.757,229.351 273.600,229.593 273.600 C 230.089 273.600,230.930 272.967,231.928 271.844 C 232.594 271.094,236.613 267.086,239.084 264.707 C 239.790 264.028,240.257 263.292,240.122 263.074 C 239.987 262.855,240.066 262.794,240.298 262.937 C 240.712 263.193,243.220 261.148,243.260 260.521 C 243.271 260.344,243.442 260.245,243.640 260.300 C 243.838 260.355,243.955 260.175,243.900 259.900 C 243.845 259.625,243.980 259.428,244.200 259.462 C 244.420 259.496,244.832 259.271,245.116 258.962 C 245.399 258.653,245.507 258.400,245.355 258.400 C 245.202 258.400,245.462 258.067,245.932 257.659 C 246.401 257.252,246.654 256.773,246.493 256.595 C 246.332 256.417,246.396 256.383,246.636 256.520 C 246.875 256.656,247.632 256.190,248.317 255.484 C 249.919 253.832,253.832 249.919,255.484 248.317 C 256.190 247.632,256.656 246.875,256.520 246.636 C 256.383 246.396,256.417 246.332,256.595 246.493 C 256.773 246.654,257.252 246.401,257.659 245.932 C 258.067 245.462,258.400 245.202,258.400 245.355 C 258.400 245.507,258.653 245.399,258.962 245.116 C 259.271 244.832,259.496 244.420,259.462 244.200 C 259.428 243.980,259.625 243.845,259.900 243.900 C 260.175 243.955,260.355 243.865,260.300 243.700 C 260.245 243.535,260.344 243.364,260.521 243.320 C 261.221 243.145,263.181 240.693,262.937 240.298 C 262.794 240.066,262.855 239.987,263.074 240.122 C 263.453 240.357,263.873 239.984,267.584 236.116 L 269.200 234.431 269.200 248.392 C 269.200 257.268,269.346 262.443,269.600 262.600 C 269.820 262.736,270.000 263.377,270.000 264.024 C 270.000 264.671,270.180 265.200,270.400 265.200 C 270.620 265.200,270.800 265.560,270.800 266.000 C 270.800 266.440,270.980 266.800,271.200 266.800 C 271.420 266.800,271.600 267.078,271.600 267.417 C 271.600 267.756,271.782 268.251,272.004 268.517 C 272.227 268.783,272.781 269.497,273.236 270.104 C 273.692 270.711,274.230 271.105,274.432 270.980 C 274.634 270.855,274.800 271.134,274.800 271.600 C 274.800 272.066,274.947 272.356,275.127 272.245 C 275.307 272.134,275.937 272.490,276.527 273.038 C 277.117 273.585,277.600 273.931,277.600 273.807 C 277.600 273.683,278.005 273.836,278.500 274.147 C 278.995 274.457,279.715 274.657,280.100 274.591 C 280.485 274.525,280.800 274.645,280.800 274.858 C 280.800 275.559,291.516 275.017,292.255 274.278 C 292.408 274.125,292.781 274.000,293.084 274.000 C 293.648 274.000,294.175 273.641,295.814 272.142 C 296.330 271.671,296.852 271.386,296.976 271.509 C 297.099 271.632,297.200 271.423,297.200 271.043 C 297.200 270.663,297.367 270.456,297.571 270.582 C 297.775 270.708,298.057 270.449,298.198 270.006 C 298.339 269.563,298.652 269.200,298.894 269.200 C 299.135 269.200,299.224 269.091,299.091 268.957 C 298.957 268.824,299.162 268.378,299.545 267.967 C 301.966 265.369,302.000 264.863,302.000 231.894 L 302.000 201.693 303.500 200.321 C 304.325 199.566,305.765 198.109,306.700 197.083 C 307.635 196.057,308.400 195.311,308.400 195.425 C 308.400 195.538,308.653 195.399,308.962 195.116 C 309.271 194.832,309.496 194.420,309.462 194.200 C 309.428 193.980,309.625 193.845,309.900 193.900 C 310.175 193.955,310.355 193.865,310.300 193.700 C 310.245 193.535,310.290 193.388,310.400 193.374 C 310.556 193.354,320.725 183.117,323.100 180.589 C 323.375 180.297,323.600 179.854,323.600 179.605 C 323.600 179.356,323.757 179.250,323.948 179.368 C 324.389 179.641,326.076 178.209,325.726 177.859 C 325.583 177.717,325.777 177.600,326.157 177.600 C 326.537 177.600,326.736 177.420,326.600 177.200 C 326.464 176.980,326.522 176.800,326.729 176.800 C 327.181 176.800,388.483 115.541,390.200 113.373 C 390.860 112.540,391.625 111.633,391.900 111.358 C 392.175 111.082,392.400 110.657,392.400 110.412 C 392.400 110.167,392.760 109.580,393.200 109.108 C 393.640 108.636,394.000 108.013,394.000 107.725 C 394.000 107.436,394.180 107.200,394.400 107.200 C 394.620 107.200,394.800 106.750,394.800 106.200 C 394.800 105.650,394.980 105.200,395.200 105.200 C 395.420 105.200,395.600 104.851,395.600 104.424 C 395.600 103.997,395.780 103.536,396.000 103.400 C 396.220 103.264,396.400 102.533,396.400 101.776 C 396.400 101.019,396.580 100.400,396.800 100.400 C 397.020 100.400,397.200 99.410,397.200 98.200 C 397.200 96.990,397.380 96.000,397.600 96.000 C 397.835 96.000,398.000 94.608,398.000 92.624 C 398.000 90.767,397.820 89.136,397.600 89.000 C 397.380 88.864,397.200 87.878,397.200 86.810 C 397.200 85.741,397.028 84.807,396.818 84.733 C 396.607 84.660,396.390 83.925,396.336 83.100 C 396.281 82.275,396.093 81.600,395.918 81.600 C 395.743 81.600,395.600 81.240,395.600 80.800 C 395.600 80.360,395.420 80.000,395.200 80.000 C 394.980 80.000,394.800 79.550,394.800 79.000 C 394.800 78.450,394.648 78.000,394.463 78.000 C 394.277 78.000,393.713 77.198,393.209 76.218 C 392.705 75.237,391.950 74.067,391.531 73.618 C 391.112 73.168,390.863 72.800,390.978 72.800 C 391.092 72.800,387.962 69.560,384.022 65.600 C 380.081 61.640,376.664 58.400,376.429 58.400 C 376.193 58.400,376.000 58.184,376.000 57.920 C 376.000 57.381,361.678 43.200,361.133 43.200 C 360.941 43.200,360.071 42.750,359.200 42.200 C 358.329 41.650,357.342 41.200,357.008 41.200 C 356.674 41.200,356.400 41.020,356.400 40.800 C 356.400 40.580,356.051 40.400,355.624 40.400 C 355.197 40.400,354.736 40.220,354.600 40.000 C 354.464 39.780,353.913 39.600,353.376 39.600 C 352.839 39.600,352.400 39.420,352.400 39.200 C 352.400 38.980,351.590 38.800,350.600 38.800 C 349.610 38.800,348.800 38.620,348.800 38.400 C 348.800 38.152,346.600 38.000,343.000 38.000 C 339.400 38.000,337.200 38.152,337.200 38.400 C 337.200 38.620,336.426 38.800,335.480 38.800 C 334.534 38.800,333.581 38.979,333.362 39.198 C 333.144 39.416,332.491 39.635,331.911 39.683 C 331.332 39.730,330.945 39.912,331.052 40.085 C 331.160 40.258,330.787 40.400,330.224 40.400 C 329.661 40.400,329.200 40.580,329.200 40.800 C 329.200 41.020,328.840 41.200,328.400 41.200 C 327.960 41.200,327.600 41.380,327.600 41.600 C 327.600 41.820,327.389 42.000,327.131 42.000 C 326.874 42.000,326.379 42.256,326.031 42.568 C 325.684 42.881,325.151 43.196,324.847 43.268 C 324.543 43.341,323.612 44.075,322.778 44.900 C 321.945 45.725,321.058 46.400,320.808 46.400 C 320.558 46.400,320.464 46.580,320.600 46.800 C 320.736 47.020,320.684 47.200,320.485 47.200 C 320.035 47.200,318.400 48.592,318.400 48.975 C 318.400 49.333,317.592 50.073,316.583 50.639 C 316.152 50.881,315.604 51.465,315.364 51.937 C 315.125 52.409,314.810 52.676,314.664 52.531 C 314.519 52.386,314.400 52.577,314.400 52.957 C 314.400 53.337,314.243 53.550,314.050 53.431 C 313.858 53.312,313.363 53.679,312.950 54.247 C 312.157 55.338,307.281 60.225,304.622 62.594 C 303.754 63.367,303.195 64.000,303.381 64.000 C 303.567 64.000,303.107 64.409,302.359 64.910 C 301.612 65.410,300.827 66.209,300.616 66.685 C 300.404 67.161,299.912 67.634,299.521 67.737 C 299.130 67.839,298.628 68.401,298.406 68.985 C 298.183 69.570,297.821 69.937,297.601 69.800 C 297.380 69.664,297.200 69.844,297.200 70.200 C 297.200 70.556,297.043 70.750,296.850 70.631 C 296.658 70.512,296.163 70.881,295.750 71.450 C 294.708 72.887,288.742 78.800,288.334 78.800 C 288.150 78.800,288.000 79.070,288.000 79.400 C 288.000 79.730,287.719 80.000,287.376 80.000 C 287.033 80.000,286.848 80.154,286.964 80.342 C 287.345 80.958,285.318 81.624,284.834 81.041 C 284.599 80.758,284.540 80.379,284.703 80.199 C 284.867 80.020,284.702 79.979,284.337 80.110 C 283.862 80.279,283.601 80.060,283.420 79.337 C 283.235 78.598,282.986 78.396,282.495 78.585 C 282.126 78.726,281.940 78.727,282.081 78.586 C 282.399 78.267,271.913 67.663,271.500 67.885 C 271.335 67.974,271.200 67.756,271.200 67.400 C 271.200 67.013,271.015 66.867,270.738 67.038 C 270.451 67.216,270.385 67.148,270.564 66.859 C 270.859 66.381,270.308 65.704,269.052 65.000 C 268.660 64.780,268.362 64.454,268.392 64.275 C 268.422 64.096,267.887 63.466,267.204 62.875 C 266.522 62.284,265.181 61.035,264.226 60.100 C 263.270 59.165,262.153 58.386,261.744 58.368 C 261.335 58.351,261.202 58.254,261.450 58.152 C 261.714 58.043,261.385 57.422,260.650 56.644 C 259.962 55.916,259.265 55.394,259.100 55.484 C 258.935 55.574,258.800 55.444,258.800 55.195 C 258.800 54.681,258.129 54.003,256.983 53.361 C 256.552 53.119,255.978 52.489,255.706 51.961 C 255.434 51.432,255.198 51.180,255.181 51.400 C 255.163 51.620,254.987 51.395,254.788 50.900 C 254.589 50.405,254.156 50.000,253.825 50.000 C 253.449 50.000,253.313 49.770,253.462 49.384 C 253.612 48.991,253.498 48.810,253.149 48.884 C 252.847 48.948,252.645 48.775,252.700 48.500 C 252.755 48.225,252.575 48.045,252.300 48.100 C 252.025 48.155,251.843 47.981,251.895 47.714 C 251.953 47.418,251.737 47.326,251.341 47.478 C 250.897 47.648,250.750 47.550,250.878 47.167 C 251.125 46.424,250.140 45.472,249.503 45.839 C 249.226 45.998,249.126 45.988,249.281 45.817 C 249.583 45.482,249.026 44.859,247.810 44.173 C 247.394 43.939,246.861 43.406,246.627 42.990 C 245.993 41.867,245.314 41.200,244.805 41.200 C 244.556 41.200,244.428 41.065,244.520 40.900 C 244.612 40.735,244.095 40.022,243.372 39.316 C 242.530 38.496,241.985 38.207,241.859 38.516 C 241.751 38.782,241.649 38.665,241.632 38.256 C 241.599 37.493,238.242 33.891,237.891 34.242 C 237.784 34.350,237.577 33.963,237.431 33.382 C 237.259 32.696,236.970 32.403,236.604 32.543 C 236.228 32.687,236.117 32.561,236.269 32.163 C 236.412 31.792,236.292 31.611,235.949 31.684 C 235.647 31.748,235.443 31.581,235.495 31.314 C 235.550 31.032,235.339 30.925,234.991 31.059 C 234.563 31.223,234.462 31.104,234.638 30.645 C 234.800 30.224,234.672 30.000,234.270 30.000 C 233.931 30.000,233.536 29.627,233.391 29.171 C 233.227 28.656,232.906 28.427,232.543 28.566 C 232.222 28.690,232.039 28.658,232.137 28.495 C 232.372 28.107,231.357 27.176,231.043 27.491 C 230.909 27.624,230.800 27.508,230.800 27.233 C 230.800 26.639,223.554 19.355,223.107 19.500 C 222.938 19.555,222.800 19.407,222.800 19.171 C 222.800 18.558,221.746 17.587,221.426 17.907 C 221.279 18.055,221.288 17.835,221.448 17.418 C 221.676 16.826,221.597 16.715,221.090 16.910 C 220.610 17.094,220.506 16.990,220.690 16.510 C 220.874 16.030,220.770 15.926,220.290 16.110 C 219.831 16.286,219.707 16.188,219.865 15.775 C 220.029 15.347,219.899 15.264,219.375 15.465 C 218.828 15.675,218.719 15.587,218.910 15.090 C 219.094 14.610,218.990 14.506,218.510 14.690 C 218.013 14.881,217.925 14.772,218.135 14.225 C 218.336 13.701,218.253 13.571,217.825 13.735 C 217.412 13.893,217.314 13.769,217.490 13.310 C 217.674 12.830,217.570 12.726,217.090 12.910 C 216.610 13.094,216.506 12.990,216.690 12.510 C 216.878 12.019,216.771 11.925,216.249 12.126 C 215.838 12.284,215.657 12.231,215.803 11.995 C 215.937 11.778,215.756 11.600,215.400 11.600 C 215.044 11.600,214.864 11.420,215.000 11.200 C 215.136 10.980,214.989 10.800,214.673 10.800 C 214.357 10.800,213.851 10.485,213.549 10.100 C 213.042 9.454,213.061 9.444,213.800 9.977 C 214.240 10.295,213.918 9.883,213.084 9.063 C 212.249 8.241,211.368 7.696,211.123 7.848 C 210.851 8.016,210.789 7.942,210.964 7.659 C 211.314 7.092,210.164 5.851,209.608 6.195 C 209.369 6.343,209.315 6.166,209.473 5.755 C 209.651 5.289,209.585 5.162,209.268 5.358 C 209.011 5.517,208.800 5.444,208.800 5.195 C 208.800 4.197,207.623 3.487,206.889 4.041 C 206.304 4.483,206.276 4.476,206.700 4.001 C 206.975 3.692,207.200 3.288,207.200 3.102 C 207.200 2.917,206.975 2.812,206.700 2.870 C 206.204 2.975,204.287 1.876,203.271 0.905 C 202.586 0.250,202.529 0.263,202.304 1.126 M213.381 56.031 C 213.149 56.407,214.597 58.000,215.171 58.000 C 215.433 58.000,215.536 58.180,215.400 58.400 C 215.264 58.620,215.444 58.800,215.800 58.800 C 216.156 58.800,216.374 58.935,216.285 59.100 C 216.070 59.496,223.459 66.808,223.764 66.502 C 223.894 66.373,224.000 66.577,224.000 66.957 C 224.000 67.337,224.180 67.536,224.400 67.400 C 224.620 67.264,224.800 67.356,224.800 67.605 C 224.800 68.215,225.842 69.224,226.152 68.914 C 226.289 68.778,226.400 68.882,226.400 69.146 C 226.400 69.715,229.202 72.244,229.673 72.100 C 229.853 72.045,229.979 72.135,229.953 72.300 C 229.819 73.147,230.067 73.600,230.667 73.600 C 231.033 73.600,231.222 73.711,231.086 73.848 C 230.776 74.158,231.785 75.200,232.395 75.200 C 232.644 75.200,232.736 75.380,232.600 75.600 C 232.464 75.820,232.663 76.000,233.043 76.000 C 233.423 76.000,233.627 76.106,233.498 76.236 C 233.192 76.541,240.504 83.930,240.900 83.715 C 241.065 83.626,241.200 83.844,241.200 84.200 C 241.200 84.556,241.380 84.736,241.600 84.600 C 241.820 84.464,242.000 84.567,242.000 84.829 C 242.000 85.535,243.633 86.824,244.152 86.528 C 244.398 86.387,244.463 86.422,244.296 86.606 C 244.129 86.790,244.386 87.359,244.866 87.870 L 245.739 88.800 241.846 88.800 C 239.352 88.800,238.042 88.656,238.200 88.400 C 238.346 88.164,237.903 87.998,237.124 87.994 C 235.808 87.988,233.065 87.198,232.541 86.674 C 232.390 86.523,231.937 86.400,231.533 86.400 C 231.130 86.400,230.800 86.220,230.800 86.000 C 230.800 85.780,230.440 85.600,230.000 85.600 C 229.560 85.600,229.200 85.420,229.200 85.200 C 229.200 84.980,228.840 84.800,228.400 84.800 C 227.960 84.800,227.600 84.620,227.600 84.400 C 227.600 84.180,227.229 84.000,226.776 84.000 C 226.323 84.000,226.064 83.820,226.200 83.600 C 226.336 83.380,226.167 83.200,225.824 83.200 C 225.481 83.200,225.200 83.020,225.200 82.800 C 225.200 82.580,224.795 82.397,224.300 82.394 C 223.572 82.389,223.515 82.314,224.000 82.000 C 224.483 81.688,224.419 81.611,223.676 81.606 C 223.168 81.603,222.861 81.425,222.993 81.212 C 223.125 80.998,222.767 80.707,222.198 80.564 C 221.628 80.421,221.255 80.212,221.367 80.099 C 221.719 79.748,220.801 78.400,220.210 78.400 C 219.900 78.400,219.519 78.192,219.362 77.938 C 219.173 77.633,219.254 77.586,219.600 77.800 C 219.946 78.014,220.027 77.967,219.838 77.662 C 219.681 77.408,219.248 77.186,218.876 77.168 C 218.466 77.149,218.395 77.058,218.696 76.936 C 219.257 76.710,218.389 75.600,217.652 75.600 C 217.428 75.600,217.316 75.235,217.402 74.789 C 217.488 74.343,217.388 74.084,217.179 74.213 C 216.846 74.419,216.633 73.506,216.900 73.017 C 216.955 72.917,216.658 72.584,216.239 72.278 C 215.820 71.972,215.598 71.527,215.745 71.289 C 215.892 71.051,215.637 70.739,215.177 70.593 C 214.715 70.446,214.431 70.096,214.541 69.810 C 214.650 69.525,214.452 68.881,214.101 68.380 C 213.749 67.878,213.671 67.597,213.926 67.754 C 214.230 67.942,214.309 67.827,214.153 67.421 C 214.022 67.079,213.785 66.800,213.626 66.800 C 213.468 66.800,213.422 66.234,213.523 65.543 C 213.651 64.673,213.568 64.373,213.254 64.567 C 212.759 64.873,212.685 64.405,212.796 61.656 C 212.834 60.697,212.709 60.009,212.518 60.127 C 212.326 60.246,212.134 59.905,212.089 59.371 C 212.045 58.837,212.223 58.400,212.484 58.400 C 212.849 58.400,212.848 58.288,212.480 57.920 C 211.684 57.124,211.880 55.641,212.772 55.708 C 213.197 55.740,213.471 55.885,213.381 56.031 M353.801 82.152 L 364.358 92.704 363.345 93.652 C 362.152 94.768,357.756 99.160,351.284 105.700 C 347.000 110.029,345.600 111.083,345.600 109.976 C 345.600 109.743,345.420 109.664,345.200 109.800 C 344.980 109.936,344.800 109.737,344.800 109.357 C 344.800 108.977,344.693 108.774,344.562 108.905 C 344.254 109.213,340.863 105.896,341.082 105.500 C 341.173 105.335,340.956 105.200,340.600 105.200 C 340.244 105.200,340.064 105.020,340.200 104.800 C 340.336 104.580,340.156 104.400,339.800 104.400 C 339.444 104.400,339.264 104.220,339.400 104.000 C 339.536 103.780,339.337 103.600,338.957 103.600 C 338.577 103.600,338.374 103.492,338.506 103.360 C 338.704 103.163,331.328 95.691,326.062 90.756 L 324.725 89.503 331.062 83.114 C 334.548 79.601,337.735 76.428,338.144 76.063 C 338.553 75.698,339.723 74.546,340.744 73.502 C 341.765 72.458,342.745 71.603,342.922 71.602 C 343.099 71.601,347.994 76.348,353.801 82.152 M193.110 96.622 C 192.822 97.088,194.315 99.019,194.681 98.653 C 194.824 98.509,194.660 98.169,194.317 97.896 C 193.973 97.623,193.614 97.139,193.519 96.820 C 193.424 96.501,193.240 96.411,193.110 96.622 M195.588 99.984 C 195.912 100.189,196.057 100.476,195.911 100.623 C 195.640 100.893,197.662 102.800,198.219 102.800 C 198.386 102.800,198.161 102.485,197.718 102.100 C 197.276 101.715,196.787 100.995,196.630 100.500 C 196.474 100.005,196.043 99.603,195.673 99.606 C 195.103 99.611,195.090 99.669,195.588 99.984 M199.081 104.162 L 199.800 105.124 200.035 104.262 C 200.328 103.188,200.079 102.829,199.584 103.612 C 199.332 104.010,199.210 104.039,199.206 103.700 C 199.203 103.425,199.012 103.200,198.781 103.200 C 198.551 103.200,198.686 103.633,199.081 104.162 M200.512 104.824 C 200.557 105.419,200.684 105.470,201.184 105.093 C 201.523 104.836,201.852 104.598,201.916 104.564 C 201.980 104.530,201.677 104.409,201.244 104.296 C 200.661 104.143,200.471 104.280,200.512 104.824 M201.266 165.730 C 200.786 166.241,200.484 166.781,200.596 166.930 C 200.708 167.078,200.678 167.108,200.530 166.996 C 200.237 166.776,198.400 168.355,198.400 168.827 C 198.400 168.985,198.668 169.217,198.995 169.343 C 199.331 169.472,199.549 169.368,199.495 169.104 C 199.443 168.847,199.580 168.625,199.800 168.612 C 200.599 168.563,201.200 167.935,201.200 167.148 C 201.200 166.266,202.157 165.090,202.552 165.486 C 202.689 165.622,202.800 165.523,202.800 165.267 C 202.800 164.539,202.220 164.714,201.266 165.730 M195.325 171.935 C 193.147 174.339,193.376 174.502,195.744 172.233 C 196.767 171.253,197.469 170.368,197.302 170.268 C 197.136 170.168,196.246 170.918,195.325 171.935 M191.000 176.400 C 189.917 177.500,189.128 178.400,189.247 178.400 C 189.366 178.400,190.373 177.500,191.485 176.400 C 192.597 175.300,193.386 174.400,193.238 174.400 C 193.091 174.400,192.083 175.300,191.000 176.400 M187.286 179.824 C 186.312 180.864,186.401 181.042,187.579 180.411 C 188.312 180.019,189.021 178.779,188.487 178.824 C 188.329 178.838,187.789 179.288,187.286 179.824 M183.481 183.517 C 182.667 184.351,182.000 185.189,182.000 185.378 C 182.000 185.567,182.346 185.323,182.770 184.835 C 183.193 184.347,183.643 183.959,183.770 183.974 C 183.896 183.988,183.988 183.896,183.974 183.770 C 183.959 183.643,184.347 183.193,184.835 182.770 C 185.323 182.346,185.551 182.000,185.342 182.000 C 185.133 182.000,184.296 182.683,183.481 183.517 M179.700 187.439 C 178.648 188.529,178.559 188.867,179.411 188.540 C 179.998 188.315,181.006 186.851,180.732 186.619 C 180.660 186.558,180.195 186.927,179.700 187.439 M176.285 191.114 C 175.248 192.166,174.400 193.135,174.400 193.267 C 174.400 193.399,175.300 192.597,176.400 191.485 C 178.247 189.619,178.592 189.200,178.285 189.200 C 178.222 189.200,177.322 190.061,176.285 191.114 M170.886 196.224 C 170.383 196.761,170.127 197.200,170.316 197.200 C 170.506 197.200,171.083 196.750,171.600 196.200 C 172.117 195.650,172.373 195.211,172.170 195.224 C 171.966 195.238,171.389 195.688,170.886 196.224 M167.600 199.400 C 167.083 199.950,166.790 200.400,166.948 200.400 C 167.107 200.400,167.686 199.950,168.236 199.400 C 168.786 198.850,169.080 198.400,168.888 198.400 C 168.696 198.400,168.117 198.850,167.600 199.400 M203.200 210.363 C 203.200 210.562,202.879 210.641,202.487 210.539 C 201.963 210.402,201.762 210.597,201.728 211.276 C 201.702 211.784,201.769 211.974,201.875 211.698 C 201.981 211.421,202.209 211.282,202.381 211.388 C 202.553 211.494,203.015 211.225,203.409 210.791 C 203.817 210.339,203.926 210.000,203.662 210.000 C 203.408 210.000,203.200 210.163,203.200 210.363 M200.400 212.576 C 200.400 212.893,200.580 213.264,200.800 213.400 C 201.020 213.536,201.200 213.277,201.200 212.824 C 201.200 212.371,201.020 212.000,200.800 212.000 C 200.580 212.000,200.400 212.259,200.400 212.576 M198.432 215.100 C 198.414 215.375,198.199 215.555,197.953 215.500 C 197.707 215.445,197.453 215.715,197.389 216.100 C 197.244 216.959,197.473 216.984,198.261 216.196 C 198.593 215.864,198.774 215.369,198.664 215.096 C 198.505 214.704,198.457 214.704,198.432 215.100 M195.500 217.663 C 195.115 218.069,194.993 218.400,195.229 218.400 C 195.807 218.400,196.884 217.293,196.503 217.089 C 196.336 217.000,195.885 217.258,195.500 217.663 M190.800 222.733 C 190.800 223.063,190.689 223.222,190.552 223.086 C 190.242 222.776,189.200 223.785,189.200 224.395 C 189.200 224.644,188.975 224.718,188.700 224.559 C 188.425 224.401,188.333 224.419,188.497 224.599 C 188.660 224.779,188.570 225.213,188.297 225.563 C 187.539 226.535,188.996 225.354,190.671 223.639 C 192.211 222.061,192.176 222.133,191.400 222.133 C 191.070 222.133,190.800 222.403,190.800 222.733 M197.737 238.066 C 197.816 238.580,198.093 239.000,198.354 239.000 C 198.616 239.000,199.000 239.270,199.208 239.600 C 199.417 239.930,199.591 240.046,199.594 239.858 C 199.597 239.670,199.149 238.979,198.597 238.324 C 197.650 237.199,197.603 237.184,197.737 238.066 M202.278 242.257 C 202.540 242.364,202.644 242.741,202.508 243.095 C 202.316 243.595,202.434 243.678,203.031 243.468 C 203.759 243.212,203.758 243.232,203.000 243.840 C 202.212 244.473,202.213 244.479,203.100 244.214 C 203.801 244.006,204.001 244.107,204.006 244.673 C 204.011 245.278,204.075 245.301,204.385 244.811 C 204.631 244.422,204.595 244.117,204.279 243.917 C 204.015 243.749,203.959 243.609,204.154 243.606 C 204.349 243.603,204.050 243.240,203.491 242.800 C 202.931 242.360,202.322 242.014,202.137 242.032 C 201.952 242.049,202.015 242.151,202.278 242.257 M206.000 246.424 C 206.000 246.657,206.208 246.719,206.462 246.562 C 206.741 246.389,206.815 246.452,206.649 246.721 C 206.498 246.965,206.110 247.064,205.787 246.940 C 205.124 246.685,204.988 246.000,205.600 246.000 C 205.820 246.000,206.000 246.191,206.000 246.424 M170.000 256.684 C 170.330 256.805,170.960 257.196,171.400 257.552 C 172.193 258.194,172.194 258.192,171.438 257.300 C 171.019 256.805,170.389 256.414,170.038 256.432 C 169.496 256.458,169.491 256.497,170.000 256.684 M200.873 291.287 C 200.313 291.847,200.255 292.400,200.757 292.400 C 201.124 292.400,201.727 291.194,201.483 290.949 C 201.408 290.875,201.134 291.026,200.873 291.287 M283.200 321.292 C 283.200 321.462,282.480 321.600,281.600 321.600 C 280.720 321.600,280.000 321.780,280.000 322.000 C 280.000 322.220,279.449 322.400,278.776 322.400 C 278.063 322.400,277.656 322.567,277.800 322.800 C 277.936 323.020,277.844 323.200,277.595 323.200 C 277.346 323.200,276.906 323.425,276.616 323.700 C 275.413 324.842,274.400 325.574,274.400 325.301 C 274.400 325.141,273.921 325.682,273.336 326.505 C 272.751 327.327,272.121 328.000,271.936 328.000 C 271.751 328.000,271.600 328.270,271.600 328.600 C 271.600 328.930,271.420 329.200,271.200 329.200 C 270.980 329.200,270.800 329.650,270.800 330.200 C 270.800 330.750,270.640 331.200,270.445 331.200 C 269.875 331.200,269.517 333.481,269.328 338.309 C 269.223 340.973,268.998 342.722,268.776 342.585 C 268.565 342.455,268.400 343.057,268.400 343.953 C 268.400 344.833,268.220 345.664,268.000 345.800 C 267.780 345.936,267.600 346.487,267.600 347.024 C 267.600 347.561,267.420 348.000,267.200 348.000 C 266.980 348.000,266.800 348.349,266.800 348.776 C 266.800 349.203,266.617 349.666,266.393 349.804 C 266.170 349.942,266.078 350.202,266.189 350.382 C 266.300 350.562,266.123 350.932,265.796 351.204 C 265.468 351.476,265.200 351.946,265.200 352.249 C 265.200 352.552,265.020 352.800,264.800 352.800 C 264.580 352.800,264.400 353.160,264.400 353.600 C 264.400 354.040,264.220 354.400,264.000 354.400 C 263.780 354.400,263.600 354.681,263.600 355.024 C 263.600 355.367,263.465 355.565,263.300 355.466 C 262.938 355.246,262.247 356.009,262.077 356.816 C 262.009 357.137,261.334 357.976,260.577 358.680 C 259.820 359.383,259.200 360.135,259.200 360.351 C 259.200 360.566,258.480 361.060,257.600 361.448 C 256.720 361.836,256.000 362.287,256.000 362.450 C 256.000 362.613,255.661 362.854,255.248 362.985 C 254.834 363.116,254.090 363.575,253.596 364.004 C 253.101 364.432,252.540 364.687,252.348 364.568 C 252.157 364.450,252.000 364.527,252.000 364.739 C 252.000 364.952,251.109 365.354,250.020 365.634 C 248.931 365.913,248.132 366.289,248.244 366.471 C 248.356 366.652,247.987 366.822,247.424 366.850 C 246.073 366.916,245.886 366.958,245.320 367.317 C 245.056 367.485,243.481 367.647,241.820 367.677 C 240.159 367.707,238.800 367.882,238.800 368.066 C 238.800 368.250,228.585 368.439,216.100 368.488 C 203.615 368.536,195.830 368.631,198.800 368.698 L 204.200 368.821 204.091 384.435 L 203.982 400.049 227.891 399.855 C 252.611 399.655,253.200 399.638,253.200 399.114 C 253.200 398.941,253.819 398.800,254.576 398.800 C 255.333 398.800,256.064 398.620,256.200 398.400 C 256.336 398.180,256.977 398.000,257.624 398.000 C 258.271 398.000,258.800 397.820,258.800 397.600 C 258.800 397.380,259.325 397.200,259.967 397.200 C 260.608 397.200,261.199 397.003,261.279 396.763 C 261.359 396.523,261.897 396.298,262.474 396.263 C 263.051 396.228,263.440 396.065,263.338 395.900 C 263.236 395.735,263.613 395.600,264.176 395.600 C 264.739 395.600,265.200 395.420,265.200 395.200 C 265.200 394.980,265.560 394.800,266.000 394.800 C 266.440 394.800,266.800 394.620,266.800 394.400 C 266.800 394.180,267.070 394.000,267.400 394.000 C 267.730 394.000,268.000 393.820,268.000 393.600 C 268.000 393.380,268.264 393.200,268.586 393.200 C 269.733 393.200,275.883 389.328,277.932 387.315 C 278.225 387.028,278.658 386.912,278.894 387.058 C 279.149 387.215,279.207 387.136,279.038 386.862 C 278.881 386.608,278.918 386.400,279.119 386.400 C 279.658 386.400,285.565 380.498,285.296 380.229 C 285.170 380.103,285.327 380.000,285.645 380.000 C 286.226 380.000,287.320 378.780,287.312 378.142 C 287.309 377.954,287.646 377.563,288.060 377.273 C 288.475 376.983,288.710 376.578,288.583 376.373 C 288.456 376.168,288.556 376.000,288.805 376.000 C 289.263 376.000,290.431 375.004,290.425 374.618 C 290.418 374.186,290.970 372.984,291.378 372.545 C 292.617 371.209,293.200 370.329,293.200 369.795 C 293.200 369.468,293.380 369.200,293.600 369.200 C 293.820 369.200,294.000 368.810,294.000 368.333 C 294.000 367.857,294.110 367.577,294.245 367.712 C 294.558 368.025,296.396 364.430,296.398 363.500 C 296.399 363.115,296.580 362.800,296.800 362.800 C 297.020 362.800,297.200 362.440,297.200 362.000 C 297.200 361.560,297.380 361.200,297.600 361.200 C 297.820 361.200,298.000 360.660,298.000 360.000 C 298.000 359.340,298.180 358.800,298.400 358.800 C 298.620 358.800,298.800 358.260,298.800 357.600 C 298.800 356.940,298.980 356.400,299.200 356.400 C 299.420 356.400,299.600 355.860,299.600 355.200 C 299.600 354.540,299.780 354.000,300.000 354.000 C 300.220 354.000,300.400 353.201,300.400 352.224 C 300.400 351.247,300.580 350.336,300.800 350.200 C 301.020 350.064,301.200 348.894,301.200 347.600 C 301.200 346.306,301.364 345.146,301.565 345.021 C 301.766 344.897,301.951 342.263,301.976 339.167 C 302.007 335.406,301.886 333.623,301.611 333.793 C 301.271 334.003,301.061 332.639,301.234 331.345 C 301.253 331.204,301.118 330.979,300.934 330.845 C 300.750 330.710,300.375 330.195,300.100 329.700 C 299.825 329.205,299.375 328.397,299.100 327.905 C 298.825 327.413,298.245 326.744,297.810 326.419 C 297.376 326.095,296.393 325.237,295.627 324.514 C 294.860 323.791,294.001 323.200,293.717 323.200 C 293.432 323.200,293.200 323.057,293.200 322.883 C 293.200 322.498,289.976 321.600,288.594 321.600 C 288.047 321.600,287.600 321.437,287.600 321.238 C 287.600 321.038,286.610 320.900,285.400 320.930 C 284.190 320.960,283.200 321.123,283.200 321.292 " stroke="none" fill="#44b5fc" fill-rule="evenodd"></path><path id="path1" d="M51.926 0.815 C 52.435 1.023,52.737 1.378,52.598 1.603 C 52.459 1.829,52.139 1.886,51.888 1.731 C 50.776 1.043,48.202 1.365,47.300 2.304 C 46.623 3.009,46.400 3.088,46.400 2.621 C 46.400 1.842,46.210 1.844,45.004 2.634 C 44.471 2.983,43.866 3.164,43.660 3.037 C 43.453 2.909,43.186 3.060,43.066 3.371 C 42.934 3.717,42.528 3.854,42.024 3.722 C 41.555 3.600,41.200 3.699,41.200 3.953 C 41.200 4.199,40.840 4.400,40.400 4.400 C 39.960 4.400,39.600 4.580,39.600 4.800 C 39.600 5.020,39.184 5.200,38.675 5.200 C 38.167 5.200,37.364 5.560,36.892 6.000 C 36.420 6.440,35.756 6.800,35.417 6.800 C 35.078 6.800,34.799 6.935,34.797 7.100 C 34.793 7.462,32.853 8.400,32.108 8.400 C 31.815 8.400,31.478 8.654,31.359 8.964 C 31.239 9.274,30.750 9.627,30.271 9.749 C 29.792 9.871,28.815 10.507,28.100 11.163 C 27.385 11.818,26.800 12.246,26.800 12.114 C 26.800 11.981,26.066 12.621,25.169 13.536 C 24.272 14.451,23.237 15.203,22.869 15.206 C 22.291 15.211,22.282 15.265,22.800 15.600 C 23.310 15.929,23.292 15.989,22.682 15.994 C 21.879 16.001,19.913 17.780,20.291 18.158 C 20.424 18.291,20.299 18.400,20.013 18.400 C 19.464 18.400,17.601 20.361,17.600 20.940 C 17.600 21.126,17.066 21.778,16.414 22.387 C 15.762 22.996,15.342 23.608,15.481 23.747 C 15.620 23.886,15.423 24.000,15.043 24.000 C 14.663 24.000,14.448 24.154,14.564 24.342 C 14.680 24.530,14.331 25.101,13.788 25.612 C 13.244 26.122,12.800 26.778,12.800 27.070 C 12.800 27.361,12.609 27.600,12.376 27.600 C 12.143 27.600,12.052 27.761,12.174 27.958 C 12.296 28.155,12.115 28.424,11.772 28.555 C 11.430 28.687,11.262 28.977,11.400 29.200 C 11.538 29.423,11.381 29.709,11.051 29.836 C 10.721 29.963,10.539 30.298,10.648 30.581 C 10.757 30.865,10.547 31.212,10.181 31.352 C 9.785 31.504,9.613 31.856,9.754 32.224 C 9.884 32.564,9.826 32.740,9.624 32.615 C 9.283 32.404,8.786 33.409,8.546 34.793 C 8.490 35.119,8.254 35.449,8.022 35.526 C 7.790 35.603,7.600 36.192,7.600 36.833 C 7.600 37.475,7.420 38.000,7.200 38.000 C 6.980 38.000,6.800 38.360,6.800 38.800 C 6.800 39.240,6.620 39.600,6.400 39.600 C 6.180 39.600,6.000 40.125,6.000 40.767 C 6.000 41.408,5.826 41.993,5.613 42.067 C 5.400 42.140,5.180 42.799,5.125 43.530 C 5.070 44.262,4.885 44.948,4.713 45.054 C 4.541 45.160,4.400 45.687,4.400 46.224 C 4.400 46.761,4.254 47.200,4.075 47.200 C 3.896 47.200,3.705 48.051,3.652 49.091 C 3.598 50.131,3.412 51.076,3.238 51.191 C 3.064 51.306,2.882 52.750,2.834 54.400 C 2.785 56.050,2.579 57.460,2.375 57.533 C 1.846 57.722,1.870 342.400,2.399 342.400 C 2.634 342.400,2.800 343.728,2.800 345.600 C 2.800 347.467,2.967 348.800,3.200 348.800 C 3.420 348.800,3.600 349.711,3.600 350.824 C 3.600 352.071,3.753 352.752,4.000 352.600 C 4.241 352.451,4.400 352.988,4.400 353.953 C 4.400 354.833,4.580 355.664,4.800 355.800 C 5.020 355.936,5.200 356.487,5.200 357.024 C 5.200 357.561,5.380 358.000,5.600 358.000 C 5.820 358.000,6.000 358.540,6.000 359.200 C 6.000 359.860,6.180 360.400,6.400 360.400 C 6.620 360.400,6.800 360.760,6.800 361.200 C 6.800 361.640,6.980 362.000,7.200 362.000 C 7.420 362.000,7.600 362.366,7.600 362.814 C 7.600 363.262,7.891 364.072,8.246 364.614 C 8.601 365.156,8.777 365.600,8.636 365.600 C 8.225 365.600,9.653 368.168,10.263 368.525 C 10.567 368.703,10.700 369.038,10.557 369.269 C 10.414 369.500,10.546 369.843,10.849 370.030 C 11.152 370.218,11.416 370.512,11.435 370.685 C 11.523 371.491,12.120 372.373,12.442 372.174 C 12.639 372.052,12.800 372.143,12.800 372.376 C 12.800 372.609,12.800 372.890,12.800 373.000 C 12.800 373.110,13.160 373.560,13.600 374.000 C 14.040 374.440,14.403 375.115,14.406 375.500 C 14.411 376.098,14.469 376.113,14.800 375.600 C 15.127 375.094,15.189 375.116,15.194 375.740 C 15.197 376.146,15.695 376.956,16.300 377.540 C 16.905 378.123,17.655 379.095,17.968 379.700 C 18.280 380.305,18.865 380.800,19.268 380.800 C 19.924 380.800,20.184 381.233,20.047 382.100 C 20.021 382.265,20.281 382.400,20.624 382.400 C 20.967 382.400,21.170 382.535,21.076 382.700 C 20.982 382.865,21.371 383.450,21.940 384.000 C 22.509 384.550,23.010 384.910,23.055 384.800 C 23.099 384.690,23.585 384.990,24.134 385.468 C 24.682 385.945,25.237 386.230,25.366 386.101 C 25.495 385.972,25.600 386.101,25.600 386.386 C 25.600 386.932,27.091 388.400,27.646 388.400 C 27.823 388.400,28.291 388.745,28.684 389.167 C 29.078 389.589,29.670 389.994,30.000 390.067 C 30.330 390.140,30.835 390.515,31.123 390.900 C 31.410 391.285,31.995 391.600,32.423 391.600 C 32.850 391.600,33.200 391.780,33.200 392.000 C 33.200 392.220,33.560 392.400,34.000 392.400 C 34.440 392.400,34.800 392.591,34.800 392.824 C 34.800 393.057,34.965 393.145,35.168 393.020 C 35.370 392.895,35.782 393.019,36.083 393.296 C 36.937 394.081,38.328 394.800,38.995 394.800 C 39.328 394.800,39.600 394.980,39.600 395.200 C 39.600 395.420,40.061 395.600,40.624 395.600 C 41.336 395.600,41.556 395.752,41.347 396.100 C 41.172 396.391,41.361 396.350,41.800 396.000 C 42.239 395.650,42.428 395.609,42.253 395.900 C 42.064 396.215,42.184 396.400,42.576 396.400 C 42.919 396.400,43.200 396.580,43.200 396.800 C 43.200 397.020,43.639 397.200,44.176 397.200 C 44.713 397.200,45.258 397.370,45.386 397.578 C 45.514 397.785,46.349 397.914,47.240 397.864 C 48.131 397.815,48.964 397.943,49.092 398.149 C 49.226 398.366,49.103 398.387,48.800 398.200 C 48.454 397.986,48.373 398.033,48.562 398.338 C 48.970 398.999,49.623 398.909,50.286 398.100 C 50.601 397.715,50.757 397.606,50.632 397.858 C 50.334 398.459,51.289 398.807,52.424 398.510 C 53.053 398.345,53.238 398.416,53.035 398.744 C 52.875 399.002,52.577 399.109,52.372 398.983 C 52.168 398.856,52.000 398.946,52.000 399.183 C 52.000 399.419,52.510 399.574,53.133 399.526 C 54.042 399.457,54.887 398.400,54.033 398.400 C 53.435 398.400,53.793 367.405,54.397 366.934 C 54.766 366.647,55.086 366.616,55.233 366.853 C 55.373 367.080,55.652 367.019,55.913 366.704 C 56.262 366.285,56.131 366.152,55.300 366.083 C 54.720 366.035,54.119 365.793,53.966 365.545 C 53.794 365.267,53.564 365.459,53.366 366.047 C 53.048 366.987,53.041 366.984,52.822 365.823 C 52.700 365.175,52.420 364.698,52.200 364.763 C 51.980 364.827,51.843 365.036,51.895 365.226 C 51.948 365.416,51.719 365.467,51.388 365.340 C 51.057 365.213,50.834 364.814,50.893 364.454 C 50.961 364.035,50.712 363.793,50.200 363.781 C 49.760 363.771,49.442 363.556,49.492 363.304 C 49.543 363.052,48.968 362.623,48.214 362.350 C 47.460 362.078,46.904 361.752,46.979 361.627 C 47.055 361.502,46.865 361.168,46.558 360.884 C 46.251 360.601,46.000 360.485,46.000 360.629 C 46.000 360.772,45.626 360.464,45.170 359.944 C 44.713 359.425,44.453 359.225,44.593 359.500 C 44.733 359.775,44.669 360.000,44.451 360.000 C 44.232 360.000,43.940 359.640,43.800 359.200 C 43.660 358.760,43.278 358.400,42.949 358.400 C 42.621 358.400,42.450 358.243,42.568 358.052 C 42.758 357.745,42.445 357.259,40.807 355.317 C 40.583 355.051,40.400 354.655,40.400 354.437 C 40.400 354.218,40.085 353.856,39.700 353.632 C 39.315 353.408,39.137 353.219,39.304 353.212 C 39.661 353.198,37.681 349.297,37.150 348.969 C 36.950 348.846,36.891 348.577,37.017 348.372 C 37.144 348.168,37.012 347.997,36.724 347.994 C 36.343 347.989,36.364 347.882,36.800 347.600 C 37.200 347.342,37.233 347.210,36.900 347.206 C 36.615 347.203,36.400 346.695,36.400 346.024 C 36.400 345.377,36.220 344.736,36.000 344.600 C 35.780 344.464,35.600 343.463,35.600 342.376 C 35.600 341.289,35.420 340.400,35.200 340.400 C 34.934 340.400,34.800 293.333,34.800 200.000 C 34.800 87.950,34.901 59.599,35.300 59.594 C 35.633 59.590,35.600 59.458,35.200 59.200 C 34.800 58.942,34.767 58.810,35.100 58.806 C 35.414 58.802,35.600 58.215,35.600 57.224 C 35.600 56.357,35.780 55.536,36.000 55.400 C 36.220 55.264,36.400 54.623,36.400 53.976 C 36.400 53.329,36.602 52.800,36.849 52.800 C 37.179 52.800,37.177 52.655,36.844 52.253 C 36.497 51.836,36.543 51.579,37.037 51.170 C 37.653 50.658,38.288 49.406,38.318 48.645 C 38.325 48.449,38.539 48.161,38.792 48.005 C 39.193 47.757,39.461 47.022,39.569 45.876 C 39.586 45.698,39.780 45.664,40.000 45.800 C 40.221 45.937,40.400 45.649,40.400 45.157 C 40.400 44.667,40.519 44.386,40.665 44.532 C 40.811 44.678,41.258 44.258,41.659 43.599 C 42.060 42.939,42.549 42.400,42.746 42.400 C 42.942 42.400,43.327 41.860,43.600 41.200 C 43.873 40.540,44.266 40.000,44.472 40.000 C 44.678 40.000,44.716 40.225,44.555 40.500 C 44.277 40.975,45.068 40.376,47.063 38.600 C 48.806 37.048,49.117 36.851,49.391 37.124 C 49.542 37.276,49.608 37.220,49.536 37.000 C 49.309 36.301,50.565 34.968,51.509 34.907 C 52.075 34.871,52.315 35.013,52.147 35.286 C 51.985 35.548,52.061 35.609,52.338 35.438 C 53.180 34.918,52.861 34.062,51.900 34.265 C 51.176 34.418,51.123 34.375,51.627 34.049 C 53.231 33.008,54.996 33.238,53.900 34.345 C 53.589 34.659,53.842 34.622,54.571 34.245 C 55.216 33.913,55.891 33.732,56.071 33.844 C 56.252 33.956,56.400 33.876,56.400 33.666 C 56.400 33.457,56.130 33.182,55.800 33.055 C 55.470 32.929,55.200 33.001,55.200 33.216 C 55.200 33.453,54.924 33.435,54.500 33.170 C 53.847 32.762,53.813 31.674,54.000 16.927 C 54.221 -0.552,54.332 0.586,52.400 0.499 C 51.158 0.443,51.105 0.479,51.926 0.815 M61.815 31.976 C 61.687 32.182,61.947 32.324,62.391 32.291 C 62.836 32.257,63.200 32.088,63.200 31.915 C 63.200 31.473,62.096 31.521,61.815 31.976 M385.385 118.500 L 383.400 120.600 385.500 118.615 C 387.451 116.771,387.783 116.400,387.485 116.400 C 387.422 116.400,386.477 117.345,385.385 118.500 M368.185 135.700 L 366.200 137.800 368.300 135.815 C 370.251 133.971,370.583 133.600,370.285 133.600 C 370.222 133.600,369.277 134.545,368.185 135.700 M351.785 152.100 L 349.800 154.200 351.900 152.215 C 353.851 150.371,354.183 150.000,353.885 150.000 C 353.822 150.000,352.877 150.945,351.785 152.100 M335.385 168.500 L 333.400 170.600 335.500 168.615 C 337.451 166.771,337.783 166.400,337.485 166.400 C 337.422 166.400,336.477 167.345,335.385 168.500 M318.591 185.300 L 315.400 188.600 318.700 185.409 C 320.515 183.655,322.000 182.170,322.000 182.109 C 322.000 181.818,321.554 182.235,318.591 185.300 M303.178 200.700 L 301.800 202.200 303.300 200.822 C 304.696 199.538,304.984 199.200,304.678 199.200 C 304.612 199.200,303.937 199.875,303.178 200.700 M267.200 236.600 C 266.228 237.590,265.523 238.400,265.633 238.400 C 265.743 238.400,266.628 237.590,267.600 236.600 C 268.572 235.610,269.277 234.800,269.167 234.800 C 269.057 234.800,268.172 235.610,267.200 236.600 M251.789 252.100 L 249.000 255.000 251.900 252.211 C 254.594 249.620,254.983 249.200,254.689 249.200 C 254.628 249.200,253.323 250.505,251.789 252.100 M234.991 268.900 L 231.800 272.200 235.100 269.009 C 238.165 266.046,238.582 265.600,238.291 265.600 C 238.230 265.600,236.745 267.085,234.991 268.900 " stroke="none" fill="#07ecfc" fill-rule="evenodd"></path><path id="path2" d="M130.400 15.400 L 130.400 30.800 133.300 30.883 C 135.022 30.933,133.844 31.061,130.400 31.200 C 127.210 31.328,137.065 31.471,152.300 31.517 L 180.000 31.600 180.033 46.900 C 180.071 64.747,180.144 67.036,180.719 68.457 C 180.955 69.038,181.054 69.873,180.939 70.312 C 180.824 70.751,180.926 71.231,181.165 71.378 C 181.404 71.526,181.600 72.267,181.600 73.024 C 181.600 73.781,181.791 74.400,182.024 74.400 C 182.257 74.400,182.362 74.539,182.257 74.708 C 182.152 74.877,182.414 76.002,182.839 77.208 C 183.263 78.414,183.606 79.446,183.601 79.502 C 183.595 79.558,183.875 80.278,184.223 81.102 C 184.570 81.926,184.880 82.903,184.910 83.272 C 184.941 83.642,185.109 83.856,185.283 83.749 C 185.457 83.641,185.600 83.913,185.600 84.353 C 185.600 84.793,185.780 85.264,186.000 85.400 C 186.220 85.536,186.400 86.007,186.400 86.447 C 186.400 86.887,186.580 87.136,186.800 87.000 C 187.020 86.864,187.200 87.101,187.200 87.527 C 187.200 87.953,187.468 88.524,187.796 88.796 C 188.123 89.068,188.304 89.431,188.198 89.603 C 188.092 89.775,188.274 90.019,188.602 90.146 C 188.931 90.272,189.200 90.651,189.200 90.987 C 189.200 91.324,189.391 91.600,189.624 91.600 C 189.857 91.600,189.936 91.780,189.800 92.000 C 189.664 92.220,189.743 92.400,189.976 92.400 C 190.209 92.400,190.400 92.681,190.400 93.024 C 190.400 93.367,190.580 93.536,190.800 93.400 C 191.020 93.264,191.200 93.399,191.200 93.701 C 191.200 94.002,191.560 94.636,192.000 95.108 C 192.440 95.580,192.800 96.165,192.800 96.407 C 192.800 96.649,192.980 96.736,193.200 96.600 C 193.420 96.464,193.600 96.624,193.600 96.957 C 193.600 97.289,193.839 97.704,194.130 97.880 C 194.422 98.056,194.776 98.515,194.918 98.900 C 195.059 99.285,195.438 99.600,195.760 99.600 C 196.083 99.600,196.474 100.005,196.630 100.500 C 196.787 100.995,197.245 101.688,197.650 102.041 C 198.054 102.393,198.269 102.798,198.126 102.941 C 197.983 103.083,198.152 103.200,198.500 103.200 C 198.848 103.200,199.224 103.425,199.335 103.700 C 199.496 104.100,199.543 104.100,199.568 103.700 C 199.586 103.425,199.763 103.200,199.963 103.200 C 200.162 103.200,200.236 103.540,200.128 103.955 C 200.019 104.370,200.124 104.829,200.361 104.976 C 200.622 105.137,200.702 105.009,200.564 104.650 C 200.390 104.197,200.553 104.115,201.258 104.299 C 201.765 104.432,201.964 104.612,201.700 104.700 C 200.962 104.946,202.332 106.800,203.252 106.800 C 203.994 106.800,204.009 105.638,203.906 54.196 C 203.821 12.242,203.901 1.630,204.300 1.783 C 204.575 1.889,204.800 1.801,204.800 1.587 C 204.800 1.101,204.323 1.097,203.070 1.573 C 202.231 1.892,202.116 1.842,202.277 1.228 C 202.403 0.745,202.193 0.439,201.632 0.293 C 201.175 0.173,200.800 0.238,200.800 0.437 C 200.800 0.637,200.519 0.800,200.176 0.800 C 199.833 0.800,199.664 0.620,199.800 0.400 C 199.964 0.135,188.337 -0.000,165.224 -0.000 L 130.400 0.000 130.400 15.400 M212.000 56.600 C 212.000 57.150,212.069 57.600,212.153 57.600 C 212.238 57.600,212.393 57.150,212.498 56.600 C 212.603 56.050,212.534 55.600,212.345 55.600 C 212.155 55.600,212.000 56.050,212.000 56.600 M212.089 59.371 C 212.134 59.905,212.300 60.262,212.459 60.163 C 212.841 59.928,212.719 58.400,212.319 58.400 C 212.149 58.400,212.045 58.837,212.089 59.371 M203.949 107.477 C 203.647 107.849,203.610 108.028,203.866 107.874 C 204.122 107.721,204.423 107.821,204.534 108.098 C 204.691 108.487,204.744 108.482,204.768 108.076 C 204.786 107.788,204.978 107.663,205.195 107.797 C 205.422 107.937,205.489 107.777,205.353 107.421 C 205.045 106.619,204.632 106.635,203.949 107.477 M206.800 110.067 C 206.800 110.323,206.911 110.422,207.048 110.286 C 207.184 110.150,207.565 110.308,207.895 110.638 C 208.225 110.968,208.596 111.138,208.718 111.015 C 208.951 110.783,207.626 109.635,207.100 109.613 C 206.935 109.606,206.800 109.810,206.800 110.067 M242.300 121.489 C 243.015 121.578,244.185 121.578,244.900 121.489 C 245.615 121.401,245.030 121.328,243.600 121.328 C 242.170 121.328,241.585 121.401,242.300 121.489 M203.600 164.424 C 203.600 164.657,203.420 164.736,203.200 164.600 C 202.980 164.464,202.800 164.663,202.800 165.043 C 202.800 165.423,202.689 165.622,202.552 165.486 C 202.162 165.096,201.200 166.260,201.200 167.122 C 201.200 168.087,200.435 168.735,199.478 168.581 C 198.915 168.490,198.854 168.583,199.201 169.001 C 199.556 169.429,199.468 169.491,198.760 169.306 C 198.150 169.146,197.964 169.218,198.161 169.537 C 198.336 169.819,198.178 170.000,197.757 170.000 C 197.377 170.000,197.178 170.111,197.313 170.247 C 197.609 170.542,194.080 174.000,193.483 174.000 C 193.254 174.000,193.163 174.096,193.280 174.213 C 193.397 174.330,192.603 175.275,191.515 176.313 C 190.427 177.351,189.326 178.438,189.069 178.729 C 188.419 179.462,187.675 180.181,185.684 182.000 C 184.741 182.862,183.976 183.665,183.984 183.784 C 183.993 183.903,183.903 183.993,183.784 183.984 C 183.665 183.976,182.862 184.741,182.000 185.684 C 180.181 187.675,179.462 188.419,178.729 189.069 C 178.438 189.326,177.351 190.427,176.313 191.515 C 175.275 192.603,174.330 193.397,174.213 193.280 C 174.096 193.163,174.000 193.367,174.000 193.733 C 174.000 194.100,173.848 194.400,173.661 194.400 C 173.119 194.400,164.417 203.083,164.688 203.354 C 164.823 203.489,164.706 203.600,164.427 203.600 C 163.904 203.600,161.600 205.861,161.600 206.375 C 161.600 206.534,161.156 206.902,160.614 207.193 C 160.071 207.483,159.722 207.873,159.837 208.060 C 159.953 208.247,159.887 208.400,159.691 208.400 C 157.770 208.400,147.389 221.088,148.215 222.425 C 148.324 222.601,148.239 222.852,148.027 222.983 C 147.815 223.114,147.322 224.297,146.932 225.611 C 146.542 226.925,146.091 228.000,145.929 228.000 C 145.648 228.000,145.092 230.240,145.201 230.936 C 145.230 231.121,144.944 231.499,144.566 231.776 C 144.187 232.052,144.006 232.486,144.162 232.739 C 144.322 232.997,144.216 233.203,143.924 233.206 C 143.496 233.211,143.495 233.273,143.919 233.541 C 144.334 233.805,144.315 233.973,143.823 234.381 C 143.485 234.661,143.300 235.038,143.411 235.218 C 143.522 235.398,143.430 235.658,143.207 235.796 C 142.983 235.934,142.800 236.397,142.800 236.824 C 142.800 237.251,142.620 237.600,142.400 237.600 C 142.180 237.600,142.000 238.050,142.000 238.600 C 142.000 239.150,141.820 239.600,141.600 239.600 C 141.380 239.600,141.200 240.039,141.200 240.576 C 141.200 241.113,141.020 241.664,140.800 241.800 C 140.580 241.936,140.400 242.487,140.400 243.024 C 140.400 243.561,140.220 244.000,140.000 244.000 C 139.780 244.000,139.600 244.248,139.600 244.551 C 139.600 244.854,139.294 245.799,138.921 246.651 C 138.547 247.503,138.196 248.634,138.140 249.165 C 138.084 249.695,137.894 250.235,137.718 250.365 C 137.541 250.494,137.334 251.140,137.258 251.800 C 137.181 252.460,136.968 253.093,136.785 253.207 C 136.602 253.322,136.385 253.920,136.302 254.537 C 136.219 255.154,135.983 255.781,135.776 255.930 C 134.893 256.565,134.364 258.000,135.012 258.000 C 135.522 258.000,135.540 258.099,135.116 258.556 C 134.742 258.958,134.519 258.986,134.306 258.656 C 134.108 258.349,134.010 258.342,134.006 258.633 C 134.003 258.872,134.125 259.192,134.278 259.345 C 134.708 259.775,134.777 260.833,134.358 260.574 C 134.154 260.448,134.108 260.149,134.255 259.911 C 134.417 259.649,134.337 259.592,134.055 259.766 C 133.798 259.925,133.691 260.223,133.817 260.428 C 133.944 260.632,133.846 260.800,133.600 260.800 C 133.354 260.800,133.259 260.972,133.389 261.183 C 133.519 261.393,133.890 261.464,134.213 261.340 C 134.536 261.216,134.800 261.290,134.800 261.505 C 134.800 261.720,134.395 261.874,133.900 261.848 C 133.321 261.817,132.998 262.030,132.994 262.446 C 132.991 262.801,132.764 263.361,132.490 263.691 C 132.066 264.203,132.154 264.268,133.097 264.137 C 134.070 264.001,134.101 264.027,133.356 264.358 C 132.299 264.827,131.706 266.085,132.720 265.705 C 133.332 265.476,133.340 265.524,132.806 266.179 C 132.479 266.580,132.209 267.152,132.206 267.450 C 132.203 267.747,132.110 267.963,132.000 267.928 C 131.516 267.775,130.001 268.878,130.216 269.227 C 130.348 269.439,130.610 269.517,130.800 269.400 C 130.990 269.283,131.258 269.370,131.396 269.593 C 131.535 269.819,131.280 270.000,130.824 270.000 C 130.371 270.000,130.000 270.180,130.000 270.400 C 130.000 270.620,130.180 270.800,130.400 270.800 C 130.620 270.800,130.800 270.991,130.800 271.224 C 130.800 271.457,130.620 271.536,130.400 271.400 C 130.180 271.264,130.000 271.354,130.000 271.600 C 130.000 271.846,129.820 271.936,129.600 271.800 C 129.380 271.664,129.200 271.869,129.200 272.256 C 129.200 272.804,129.307 272.853,129.680 272.480 C 129.944 272.216,130.259 272.000,130.380 272.000 C 130.501 272.000,130.600 281.253,130.600 292.562 C 130.600 303.871,130.465 313.040,130.300 312.938 C 129.446 312.410,130.215 313.535,131.292 314.388 L 132.539 315.376 132.290 314.388 C 132.067 313.508,132.096 313.476,132.559 314.094 C 132.845 314.475,133.196 314.670,133.340 314.527 C 133.483 314.384,133.600 314.657,133.600 315.133 C 133.600 315.610,133.774 316.000,133.987 316.000 C 134.201 316.000,134.278 315.748,134.160 315.440 C 134.042 315.133,134.142 314.759,134.383 314.611 C 134.623 314.462,134.794 314.489,134.763 314.670 C 134.597 315.624,134.897 315.983,135.800 315.908 C 136.350 315.863,136.800 315.663,136.800 315.464 C 136.800 315.265,137.082 315.336,137.426 315.622 C 137.946 316.053,138.253 316.023,139.227 315.448 C 139.873 315.066,140.574 314.860,140.785 314.990 C 140.995 315.121,141.490 315.056,141.884 314.846 C 143.658 313.903,146.654 312.682,147.200 312.681 C 147.530 312.680,147.898 312.531,148.017 312.350 C 148.137 312.168,148.587 311.953,149.017 311.870 C 149.838 311.713,150.731 311.407,152.400 310.710 C 152.950 310.481,153.850 310.116,154.400 309.900 C 154.950 309.684,155.713 309.348,156.095 309.153 C 156.477 308.959,157.064 308.800,157.400 308.800 C 157.736 308.800,158.368 308.620,158.805 308.400 C 159.242 308.180,159.958 307.820,160.395 307.600 C 160.832 307.380,161.350 307.200,161.546 307.200 C 161.742 307.200,162.599 306.898,163.451 306.530 C 164.303 306.161,165.350 305.797,165.777 305.720 C 166.205 305.644,167.088 305.316,167.739 304.991 C 168.390 304.666,169.131 304.400,169.386 304.400 C 169.827 304.400,172.608 303.210,174.095 302.385 C 174.477 302.173,175.062 302.000,175.395 302.000 C 175.728 302.000,176.000 301.809,176.000 301.576 C 176.000 301.343,176.138 301.238,176.308 301.343 C 176.477 301.447,177.328 301.203,178.200 300.800 C 179.072 300.397,179.911 300.145,180.065 300.240 C 180.219 300.335,180.458 300.230,180.596 300.007 C 180.734 299.783,181.199 299.600,181.629 299.600 C 182.428 299.600,184.012 298.855,184.436 298.280 C 184.566 298.104,185.106 297.933,185.636 297.900 C 186.166 297.867,187.190 297.516,187.912 297.120 C 188.634 296.724,189.579 296.400,190.012 296.400 C 190.445 296.400,190.800 296.220,190.800 296.000 C 190.800 295.780,191.139 295.600,191.554 295.600 C 192.403 295.600,194.484 294.617,194.211 294.344 C 194.114 294.247,194.579 294.126,195.244 294.075 C 195.909 294.025,196.882 293.702,197.406 293.359 C 197.929 293.016,198.457 292.750,198.579 292.768 C 199.240 292.864,199.595 292.767,199.553 292.500 C 199.438 291.774,199.630 291.200,199.987 291.200 C 200.201 291.200,200.261 291.515,200.121 291.900 C 199.960 292.344,200.179 292.235,200.720 291.600 C 201.189 291.050,201.579 290.815,201.587 291.077 C 201.594 291.339,201.961 291.485,202.402 291.400 C 203.609 291.167,204.045 290.797,203.730 290.272 C 203.572 290.010,203.750 290.047,204.131 290.355 C 204.718 290.831,204.914 290.823,205.508 290.296 C 205.888 289.959,206.560 289.595,207.000 289.488 C 207.784 289.297,207.783 289.292,206.980 289.246 C 206.529 289.221,205.974 289.386,205.747 289.613 C 205.520 289.840,205.037 289.912,204.674 289.773 C 203.968 289.502,203.403 246.168,204.100 245.738 C 204.265 245.636,204.400 245.756,204.400 246.005 C 204.400 246.259,204.687 246.170,205.054 245.803 C 205.556 245.301,205.599 245.039,205.238 244.678 C 204.876 244.316,204.679 244.346,204.389 244.803 C 204.072 245.305,204.011 245.284,204.006 244.673 C 204.001 244.107,203.801 244.006,203.100 244.214 C 202.213 244.479,202.212 244.473,203.000 243.840 C 203.758 243.232,203.759 243.212,203.031 243.468 C 202.424 243.682,202.316 243.597,202.518 243.069 C 202.659 242.701,202.601 242.400,202.387 242.400 C 202.174 242.400,202.000 242.207,202.000 241.971 C 202.000 241.187,200.945 240.415,200.492 240.868 C 200.202 241.158,200.094 241.058,200.137 240.543 C 200.174 240.103,199.976 239.847,199.651 239.916 C 199.321 239.986,199.188 239.808,199.317 239.471 C 199.462 239.094,199.261 238.925,198.706 238.955 C 198.179 238.984,197.839 238.723,197.766 238.235 C 197.703 237.814,197.190 237.073,196.626 236.588 C 196.062 236.104,195.600 235.503,195.600 235.253 C 195.600 235.004,195.465 234.845,195.300 234.900 C 195.135 234.955,194.961 234.859,194.914 234.686 C 194.767 234.146,193.679 233.200,193.205 233.200 C 192.956 233.200,192.864 233.020,193.000 232.800 C 193.136 232.580,193.048 232.400,192.805 232.400 C 192.248 232.400,190.377 230.556,190.654 230.279 C 190.768 230.166,190.496 229.957,190.051 229.816 C 189.605 229.675,189.135 229.224,189.005 228.815 C 188.875 228.406,188.321 227.778,187.773 227.419 L 186.778 226.767 187.989 225.748 C 188.655 225.187,189.200 224.552,189.200 224.336 C 189.200 223.771,190.259 222.792,190.552 223.086 C 190.689 223.222,190.800 223.023,190.800 222.643 C 190.800 222.263,190.965 222.055,191.168 222.180 C 191.682 222.498,192.865 221.229,192.542 220.706 C 192.396 220.470,192.461 220.390,192.687 220.530 C 193.169 220.828,194.906 219.440,194.526 219.059 C 194.383 218.917,194.612 218.797,195.033 218.794 C 195.675 218.789,195.702 218.724,195.200 218.400 C 194.611 218.019,195.052 217.794,196.086 217.948 C 196.243 217.971,196.268 217.721,196.141 217.391 C 195.977 216.963,196.096 216.862,196.555 217.038 C 196.910 217.174,197.222 217.086,197.250 216.843 C 197.368 215.797,197.418 215.650,197.764 215.333 C 197.978 215.137,198.007 215.247,197.834 215.600 C 197.653 215.971,197.758 215.935,198.110 215.506 C 198.423 215.125,198.796 214.930,198.940 215.073 C 199.083 215.216,199.214 214.898,199.232 214.367 C 199.249 213.835,199.352 213.620,199.461 213.888 C 199.772 214.655,200.719 213.575,200.493 212.712 C 200.283 211.911,201.022 211.725,201.335 212.500 C 201.446 212.775,201.554 212.550,201.575 212.000 C 201.605 211.203,201.691 211.122,202.000 211.600 C 202.213 211.930,202.391 212.011,202.394 211.780 C 202.397 211.549,202.175 211.120,201.900 210.826 C 201.492 210.389,201.549 210.327,202.212 210.485 C 202.658 210.592,203.250 210.436,203.528 210.139 C 203.937 209.702,203.911 209.600,203.392 209.600 C 203.041 209.600,202.866 209.417,203.004 209.193 C 203.142 208.970,203.397 208.874,203.569 208.981 C 203.742 209.088,204.099 208.700,204.364 208.120 C 204.756 207.258,204.749 207.145,204.322 207.499 C 203.894 207.854,203.816 203.997,203.887 185.966 C 203.935 173.885,203.890 164.000,203.787 164.000 C 203.684 164.000,203.600 164.191,203.600 164.424 M205.200 246.357 C 205.200 246.924,206.346 247.211,206.649 246.721 C 206.815 246.452,206.741 246.389,206.462 246.562 C 206.208 246.719,206.000 246.657,206.000 246.424 C 206.000 246.191,205.820 246.000,205.600 246.000 C 205.380 246.000,205.200 246.161,205.200 246.357 M207.043 247.530 C 206.747 248.010,207.448 248.530,208.600 248.683 L 209.400 248.790 208.600 248.329 C 208.160 248.076,207.688 247.699,207.550 247.491 C 207.398 247.262,207.200 247.277,207.043 247.530 M174.925 260.875 L 179.256 265.350 177.928 266.058 C 177.198 266.448,176.195 266.774,175.700 266.783 C 175.205 266.792,174.800 266.980,174.800 267.200 C 174.800 267.420,174.260 267.600,173.600 267.600 C 172.940 267.600,172.400 267.780,172.400 268.000 C 172.400 268.220,172.128 268.400,171.795 268.400 C 171.462 268.400,170.832 268.580,170.395 268.800 C 169.958 269.020,169.242 269.380,168.805 269.600 C 168.368 269.820,167.648 270.000,167.205 270.000 C 166.762 270.000,166.399 270.135,166.397 270.300 C 166.395 270.465,165.945 270.808,165.397 271.062 C 164.588 271.438,164.400 271.419,164.400 270.962 C 164.400 270.653,164.580 270.400,164.800 270.400 C 165.020 270.400,165.200 269.961,165.200 269.424 C 165.200 268.887,165.380 268.336,165.600 268.200 C 165.820 268.064,166.000 267.513,166.000 266.976 C 166.000 266.439,166.158 266.000,166.350 266.000 C 166.543 266.000,166.811 265.446,166.946 264.768 C 167.082 264.091,167.483 262.876,167.837 262.068 C 168.192 261.261,168.664 260.150,168.887 259.600 C 169.111 259.050,169.458 258.278,169.660 257.884 C 169.862 257.490,169.920 256.995,169.790 256.784 C 168.759 255.115,171.345 257.176,174.925 260.875 M130.806 267.300 C 130.811 268.028,130.886 268.085,131.200 267.600 C 131.519 267.106,131.589 267.100,131.594 267.567 C 131.597 267.878,131.694 268.039,131.809 267.924 C 132.108 267.625,131.584 266.400,131.157 266.400 C 130.961 266.400,130.803 266.805,130.806 267.300 M125.600 281.000 C 125.600 281.330,125.780 281.600,126.000 281.600 C 126.220 281.600,126.400 281.330,126.400 281.000 C 126.400 280.670,126.220 280.400,126.000 280.400 C 125.780 280.400,125.600 280.670,125.600 281.000 M208.184 288.638 C 209.063 289.281,209.600 289.360,209.600 288.847 C 209.600 288.652,209.108 288.399,208.508 288.284 C 207.486 288.089,207.465 288.112,208.184 288.638 M130.400 368.800 C 133.844 368.939,135.022 369.067,133.300 369.117 L 130.400 369.200 130.400 384.600 L 130.400 400.000 167.191 400.000 L 203.982 400.000 204.091 384.460 L 204.200 368.920 196.200 368.661 C 191.800 368.519,173.890 368.439,156.400 368.484 C 138.910 368.529,127.210 368.672,130.400 368.800 " stroke="none" fill="#2cccfc" fill-rule="evenodd"></path><path id="path3" d="M55.384 0.374 C 55.503 0.567,55.249 0.633,54.818 0.521 C 54.050 0.320,54.034 0.632,54.009 16.209 C 53.995 24.950,53.909 32.223,53.818 32.371 C 53.726 32.519,54.000 32.857,54.426 33.123 C 54.852 33.389,55.200 33.470,55.200 33.303 C 55.200 33.137,55.875 33.021,56.700 33.046 C 57.525 33.072,58.306 32.928,58.436 32.726 C 58.566 32.525,59.061 32.331,59.536 32.295 C 60.011 32.259,60.403 32.043,60.406 31.815 C 60.409 31.587,60.565 31.642,60.753 31.937 C 61.031 32.377,61.241 32.381,61.914 31.961 C 62.592 31.538,62.857 31.549,63.433 32.024 C 63.970 32.467,64.169 32.485,64.298 32.100 C 64.429 31.712,68.194 31.588,81.133 31.548 C 94.951 31.504,107.058 31.121,102.700 30.865 L 101.600 30.800 101.600 15.395 L 101.600 -0.010 78.384 0.006 C 65.175 0.016,55.261 0.175,55.384 0.374 M50.600 1.178 C 50.160 1.355,49.620 1.398,49.400 1.273 C 49.180 1.148,49.247 1.351,49.549 1.723 C 49.851 2.095,50.301 2.397,50.549 2.394 C 50.821 2.390,50.788 2.253,50.466 2.049 C 50.060 1.792,50.132 1.659,50.766 1.493 C 51.224 1.373,51.702 1.441,51.827 1.644 C 51.953 1.847,52.226 1.908,52.434 1.779 C 53.529 1.102,52.019 0.607,50.600 1.178 M52.133 33.871 C 51.275 34.278,51.214 34.369,51.881 34.247 C 52.365 34.158,52.831 34.291,52.916 34.542 C 53.025 34.867,53.263 34.840,53.735 34.451 C 55.124 33.305,54.103 32.935,52.133 33.871 M49.880 35.838 L 49.160 36.804 50.570 36.102 C 52.141 35.320,52.343 34.994,51.300 34.921 C 50.915 34.895,50.276 35.307,49.880 35.838 M250.800 46.925 C 250.800 46.994,251.385 47.579,252.100 48.225 L 253.400 49.400 252.225 48.100 C 251.130 46.888,250.800 46.616,250.800 46.925 M50.661 364.614 C 50.942 365.347,51.867 365.636,51.867 364.991 C 51.867 364.698,51.550 364.376,51.163 364.274 C 50.702 364.154,50.529 364.271,50.661 364.614 M52.832 366.100 C 52.849 366.595,52.956 366.767,53.070 366.483 C 53.240 366.061,53.392 366.061,53.903 366.483 C 54.463 366.946,54.470 366.906,53.968 366.100 C 53.660 365.605,53.271 365.200,53.104 365.200 C 52.937 365.200,52.814 365.605,52.832 366.100 M54.400 366.928 C 53.718 367.464,53.471 398.400,54.149 398.400 C 54.341 398.400,54.286 398.656,54.027 398.968 C 53.660 399.410,53.671 399.518,54.078 399.457 C 55.002 399.317,55.621 398.757,55.345 398.311 C 55.178 398.041,55.264 397.992,55.573 398.183 C 55.931 398.404,55.948 398.612,55.635 398.925 C 55.396 399.164,55.200 399.499,55.200 399.668 C 55.200 399.837,65.640 399.984,78.400 399.994 L 101.600 400.011 101.600 384.606 L 101.600 369.200 102.700 369.135 C 107.062 368.879,94.944 368.496,81.100 368.452 C 71.647 368.423,64.400 368.245,64.400 368.044 C 64.400 367.848,63.095 367.668,61.500 367.644 C 59.905 367.619,58.540 367.420,58.467 367.200 C 58.393 366.980,58.068 366.800,57.743 366.800 C 57.418 366.800,57.256 366.968,57.383 367.172 C 57.509 367.377,57.430 367.658,57.207 367.796 C 56.983 367.934,56.800 367.746,56.800 367.377 C 56.800 366.909,56.564 366.768,56.019 366.911 C 55.590 367.023,55.185 366.967,55.119 366.785 C 55.054 366.604,54.730 366.668,54.400 366.928 M50.184 398.027 C 50.039 398.261,49.983 398.486,50.060 398.527 C 50.137 398.567,50.605 398.827,51.100 399.103 C 51.690 399.434,52.000 399.460,52.000 399.180 C 52.000 398.945,52.168 398.856,52.372 398.983 C 52.577 399.109,52.875 399.002,53.035 398.744 C 53.238 398.416,53.053 398.345,52.424 398.510 C 51.359 398.788,50.312 398.467,50.626 397.958 C 50.748 397.761,50.757 397.600,50.647 397.600 C 50.537 397.600,50.329 397.792,50.184 398.027 " stroke="none" fill="#1cdcfc" fill-rule="evenodd"></path><path id="path4" d="M101.600 15.400 L 101.600 30.800 102.700 30.871 C 103.305 30.909,102.540 31.058,101.000 31.200 C 97.235 31.548,121.725 31.563,129.800 31.218 C 133.320 31.068,134.895 30.912,133.300 30.872 L 130.400 30.800 130.400 15.400 L 130.400 0.000 116.000 0.000 L 101.600 0.000 101.600 15.400 M135.867 254.267 C 135.720 254.413,135.600 254.893,135.600 255.333 C 135.600 256.302,136.106 255.894,136.274 254.790 C 136.402 253.956,136.303 253.830,135.867 254.267 M134.454 258.700 C 134.247 259.085,134.016 259.580,133.939 259.800 C 133.863 260.020,133.620 260.140,133.400 260.067 C 133.180 259.993,133.140 260.074,133.312 260.245 C 133.957 260.890,134.739 260.720,134.593 259.965 C 134.513 259.549,134.720 258.937,135.052 258.605 C 135.385 258.272,135.471 258.000,135.243 258.000 C 135.015 258.000,134.660 258.315,134.454 258.700 M132.080 264.480 C 131.816 264.744,131.600 265.451,131.600 266.051 C 131.600 266.652,131.292 267.451,130.916 267.827 C 129.864 268.879,129.837 270.000,130.865 270.000 C 131.699 270.000,131.703 269.976,131.000 269.200 C 130.564 268.718,130.460 268.380,130.738 268.350 C 130.992 268.322,131.425 268.277,131.700 268.249 C 131.975 268.221,132.203 267.908,132.206 267.553 C 132.209 267.199,132.479 266.580,132.806 266.179 C 133.340 265.524,133.332 265.476,132.720 265.705 C 132.235 265.886,132.104 265.794,132.262 265.382 C 132.384 265.064,132.673 264.921,132.904 265.064 C 133.138 265.209,133.206 265.133,133.057 264.892 C 132.910 264.655,133.107 264.378,133.495 264.277 C 134.081 264.124,134.062 264.085,133.380 264.046 C 132.929 264.021,132.344 264.216,132.080 264.480 M129.451 271.012 C 129.332 271.322,129.410 271.683,129.624 271.815 C 129.838 271.947,129.908 272.226,129.779 272.434 C 129.650 272.643,129.403 272.726,129.231 272.619 C 129.058 272.512,128.721 272.854,128.482 273.379 C 128.139 274.132,128.169 274.379,128.624 274.554 C 128.941 274.675,129.186 275.006,129.168 275.287 C 129.144 275.689,129.093 275.692,128.935 275.300 C 128.703 274.726,127.600 274.616,127.600 275.167 C 127.600 275.368,127.825 275.616,128.100 275.717 C 128.487 275.859,128.474 276.024,128.041 276.450 C 127.567 276.917,127.531 276.915,127.803 276.438 C 128.006 276.082,127.969 275.972,127.701 276.137 C 127.005 276.568,126.352 278.799,126.921 278.806 C 127.222 278.810,127.251 278.922,127.000 279.106 C 126.780 279.268,126.536 279.850,126.459 280.400 C 126.381 280.950,126.111 281.528,125.859 281.685 C 125.606 281.842,125.384 282.112,125.365 282.285 C 125.316 282.739,124.802 284.088,124.371 284.895 C 124.167 285.277,124.000 285.862,124.000 286.195 C 124.000 286.528,123.820 286.800,123.600 286.800 C 123.380 286.800,123.200 287.162,123.200 287.605 C 123.200 288.048,123.041 288.723,122.847 289.105 C 122.652 289.487,122.271 290.340,122.000 291.000 C 121.729 291.660,121.348 292.513,121.153 292.895 C 120.959 293.277,120.800 294.052,120.800 294.618 C 120.800 295.202,120.627 295.540,120.400 295.400 C 119.866 295.070,119.864 303.304,120.398 303.838 C 120.616 304.056,120.835 304.709,120.883 305.289 C 120.930 305.868,121.093 306.266,121.243 306.173 C 121.638 305.929,122.051 307.194,121.739 307.698 C 121.583 307.951,121.667 308.006,121.947 307.833 C 122.245 307.648,122.627 308.045,122.993 308.923 C 123.311 309.682,123.847 310.409,124.185 310.539 C 124.523 310.669,124.800 311.081,124.800 311.454 C 124.800 311.828,124.917 312.016,125.060 311.873 C 125.204 311.730,125.564 311.925,125.861 312.306 C 126.362 312.948,126.384 312.940,126.159 312.200 C 126.005 311.693,126.223 311.839,126.755 312.600 C 127.217 313.260,127.596 313.631,127.597 313.424 C 127.599 313.216,127.842 313.378,128.137 313.782 C 128.507 314.287,129.001 314.455,129.717 314.318 C 130.376 314.192,130.836 314.318,130.967 314.659 C 131.082 314.957,131.406 315.194,131.687 315.187 C 131.969 315.180,131.705 314.739,131.100 314.207 C 130.100 313.326,129.571 312.488,130.300 312.938 C 130.465 313.040,130.600 303.871,130.600 292.562 C 130.600 281.253,130.465 272.000,130.300 272.000 C 130.135 272.000,130.000 271.809,130.000 271.576 C 130.000 271.343,130.180 271.264,130.400 271.400 C 130.620 271.536,130.800 271.476,130.800 271.266 C 130.800 270.625,129.680 270.414,129.451 271.012 M132.277 314.200 C 132.765 315.602,133.600 316.209,133.600 315.162 C 133.600 314.670,133.483 314.384,133.340 314.527 C 133.196 314.670,132.836 314.475,132.539 314.094 C 132.040 313.454,132.020 313.462,132.277 314.200 M101.000 368.800 C 102.540 368.942,103.305 369.091,102.700 369.129 L 101.600 369.200 101.600 384.600 L 101.600 400.000 116.000 400.000 L 130.400 400.000 130.400 384.600 L 130.400 369.200 133.300 369.128 C 134.895 369.088,133.320 368.932,129.800 368.782 C 121.725 368.437,97.235 368.452,101.000 368.800 " stroke="none" fill="#22d2fc" fill-rule="evenodd"></path></g></svg>