<svg xmlns="http://www.w3.org/2000/svg" id="svg" width="400" height="400" viewBox="0 0 400 400"><g id="svgg" fill-rule="evenodd" stroke="none"><path id="path0" fill="#46b3fc" d="M209.051.588c.129.337.033.612-.213.612-.324 0-.419 4.113-.343 14.9.084 11.928.208 14.879.622 14.794.384-.078.415.085.122.634-.366.682-.193.743 2.244.787 1.452.026 2.828.236 3.058.466.543.543 1.459.54 1.459-.005 0-.233-.208-.295-.462-.138-.295.182-.353.109-.16-.202.229-.371.467-.338.993.138.472.427 1.484.626 3.184.626 1.411 0 2.394.159 2.265.367-.124.202.989.461 2.477.576 3.643.282 6.219.684 6.703 1.046.22.165 1.084.32 1.92.344s1.717.166 1.959.316 1.17.338 2.061.418 1.72.282 1.84.448.85.361 1.62.432 1.58.26 1.8.419 1.21.523 2.2.808 2.292.698 2.893.918c.601.219 1.366.294 1.7.166s.607-.065.607.139c0 .3 2.557 1.259 3.667 1.375.146.015.401.163.566.328s.71.3 1.21.3 1.021.18 1.157.4.687.4 1.224.4.976.18.976.4.362.4.805.4 1.163.18 1.6.4l1.59.8c.437.22 1.067.4 1.4.4s.605.18.605.4.36.4.8.4.8.18.8.4.36.4.8.4.8.191.8.424.165.321.368.196c.202-.125.639.044.971.376s1.067.604 1.632.604c.566 0 1.029.18 1.029.4s.36.4.8.4.8.18.8.4.261.4.58.4 1.354.51 2.3 1.133 2.303 1.364 3.015 1.646c.712.283 1.194.677 1.07.877s-.068.314.124.254c.441-.139 3.836 1.586 4.809 2.444.403.355.996.705 1.318.778.321.072.854.35 1.184.617s1.095.733 1.7 1.036 1.1.7 1.1.883c0 .182.36.332.8.332s.8.18.8.4.27.4.6.4.6.152.6.337.855.771 1.9 1.3c1.045.53 1.96 1.098 2.033 1.263s.659.3 1.3.3c.642 0 1.167.18 1.167.4 0 .531 7.872.531 8.2 0 .136-.22.777-.4 1.424-.4s1.176-.18 1.176-.4.36-.4.8-.4.8-.18.8-.4.27-.4.6-.4c.725 0 4.573-3.817 5.368-5.324.312-.592.717-1.076.9-1.076.182 0 .332-.439.332-.976s.18-1.088.4-1.224c.232-.143.4-2.33.4-5.2s-.168-5.057-.4-5.2c-.22-.136-.4-.597-.4-1.024s-.18-.776-.4-.776-.4-.32-.4-.712-.35-.964-.779-1.273c-.428-.308-.697-.692-.597-.853.232-.376-2.817-3.562-3.409-3.562-.247 0-.835-.36-1.307-.8s-1.095-.8-1.383-.8-.525-.21-.525-.467c0-.256-.111-.355-.248-.219-.136.136-.49.031-.786-.233-1.279-1.143-1.753-1.481-2.074-1.481-.187 0-.735-.367-1.217-.816-.481-.448-.875-.714-.875-.59 0 .342-2.107-1.071-2.9-1.945-.385-.424-.703-.609-.706-.41-.003.198-.138.181-.3-.039-.483-.657-2.762-1.799-3.038-1.523-.141.141-.256.046-.256-.21 0-.257-.36-.467-.8-.467s-.8-.18-.8-.4-.36-.4-.8-.4-.8-.18-.8-.4-.36-.4-.8-.4-.8-.18-.8-.4-.278-.4-.617-.4-.977-.336-1.417-.746c-.441-.411-1.648-1.15-2.684-1.644a149 149 0 0 1-2.577-1.254c-.382-.196-.967-.356-1.3-.356S284 18.22 284 18s-.36-.4-.8-.4-.8-.18-.8-.4-.349-.4-.776-.4-.89-.183-1.028-.407-.392-.319-.565-.212c-.172.106-.655-.065-1.072-.381s-1.074-.58-1.459-.587-.7-.193-.7-.413-.315-.401-.7-.401c-.385-.001-1.289-.361-2.01-.8s-1.654-.799-2.076-.799-.878-.18-1.014-.4-.582-.4-.99-.4-.803-.172-.877-.382c-.073-.211-.808-.428-1.633-.482-.825-.055-1.5-.243-1.5-.418s-.248-.318-.551-.318-1.248-.303-2.1-.674c-.852-.37-1.76-.635-2.019-.589a.76.76 0 0 1-.723-.326c-.14-.226-.874-.411-1.631-.411S257.6 8.22 257.6 8s-.641-.4-1.424-.4c-.847 0-1.323-.162-1.176-.4.151-.244-.463-.4-1.576-.4-1.003 0-1.824-.18-1.824-.4s-.731-.4-1.624-.4c-.98 0-1.525-.158-1.376-.4.143-.231-.236-.4-.896-.4-.629 0-1.386-.225-1.683-.5-.437-.406-.479-.388-.221.1s.216.506-.221.1c-.297-.275-1.133-.5-1.859-.5s-1.32-.146-1.32-.325-.851-.37-1.891-.423c-1.04-.054-1.985-.244-2.1-.422-.191-.295-1.221-.458-6.909-1.095-1.045-.116-1.814-.351-1.709-.521s-1.284-.34-3.087-.379c-1.803-.038-3.374-.224-3.491-.412-.43-.691-14.426-.923-14.162-.235m2.149 30.569c0 .197-.27.461-.6.588-.61.234-.819-.192-.333-.678.382-.383.933-.329.933.09m167.34.863c-.232.232-.808.45-1.28.485-.473.036-.86.207-.86.38s-.32.315-.712.315-.971.36-1.288.8-.752.8-.966.8c-.479 0-2.634 2.025-2.634 2.474 0 .179-.72 1.067-1.6 1.974s-1.6 1.815-1.6 2.018-.624 1.037-1.388 1.852C362.99 46.56 362 47.695 362 47.948c0 .147-.757 1.139-1.683 2.204s-1.717 2.167-1.758 2.447-.994 1.45-2.117 2.597-2.042 2.258-2.042 2.47-.54.84-1.2 1.395-1.2 1.275-1.2 1.598-.18.477-.4.341-.4.033-.4.376-.18.624-.4.624-.4.281-.4.624-.18.512-.4.376-.4.044-.4.4-.18.536-.4.4-.4.033-.4.376-.72 1.365-1.6 2.272-1.6 1.797-1.6 1.98c0 .182-.447.835-.994 1.451-1.745 1.969-2.006 2.297-1.996 2.511.014.281-.929 1.428-2.51 3.05-.715.733-1.3 1.438-1.3 1.565s-.405.651-.9 1.163c-1.263 1.307-2.3 2.6-2.3 2.868 0 .125-.72.918-1.6 1.764s-1.6 1.746-1.6 2-.675 1.128-1.5 1.941c-.825.812-1.549 1.711-1.609 1.996s-.51.938-1 1.453a30 30 0 0 0-1.691 1.973 63 63 0 0 1-2.1 2.516c-.715.812-1.3 1.723-1.3 2.023s-.18.434-.4.298-.4-.057-.4.175c0 .233-.63 1.091-1.4 1.907s-1.4 1.619-1.4 1.783-.45.749-1 1.299-1 1.198-1 1.441-.18.331-.4.195-.4.033-.4.376-.18.624-.4.624-.4.198-.4.44c0 .241-.54.943-1.2 1.56s-1.201 1.274-1.202 1.46c-.001.187-.502.88-1.114 1.54s-1.644 1.92-2.294 2.8-1.487 1.881-1.861 2.225-.735.88-.804 1.191-.8 1.231-1.625 2.043-1.5 1.773-1.5 2.133-.18.544-.4.408-.4-.057-.4.176-.72 1.165-1.6 2.072-1.6 1.885-1.6 2.173-.36.639-.8.779-.8.422-.8.627c0 .423-.424.955-2.987 3.752-.997 1.089-1.813 2.214-1.813 2.5s-.191.521-.424.521-.312.18-.176.4-.03.4-.369.4-.73.455-.869 1.011c-.14.555-.593 1.192-1.008 1.414s-.754.595-.754.829-.559.947-1.242 1.586c-.684.638-1.089 1.165-.9 1.172.188.007.027.196-.358.42s-.7.597-.7.827c0 .231-.54.924-1.2 1.541s-1.2 1.229-1.2 1.36c0 .132-.718.979-1.596 1.884s-1.495 1.809-1.37 2.01-.005.316-.286.256c-.281-.061-.52.1-.53.356-.01.257-.399.797-.864 1.2-.465.404-1.369 1.56-2.008 2.569s-1.655 2.289-2.255 2.846-1.091 1.222-1.091 1.481c0 .258-.72 1.155-1.6 1.992s-1.6 1.85-1.6 2.251-.117.612-.26.469c-.272-.273-2.139 1.69-2.14 2.25 0 .178-.211.193-.468.034q-.465-.285-.226.34c.15.393-.119.9-.719 1.351-.528.396-1.173 1.235-1.433 1.863-.347.836-.563 1.001-.808.615-.242-.383-.335-.305-.34.285-.003.446-.366 1.071-.806 1.388s-.8.817-.8 1.112c0 .294-.135.453-.3.354-.405-.246-1.117.597-1.108 1.31.004.317-.847 1.418-1.892 2.447-1.045 1.028-1.9 1.982-1.9 2.119 0 .245-.916 1.437-1.9 2.474-.275.29-.5.73-.5.979s-.18.341-.4.205-.4.033-.4.376-.18.624-.4.624-.4.281-.4.624-.135.541-.3.442-.532.069-.816.376c-.421.455-.421.563 0 .583.284.014.111.188-.384.387s-.9.598-.9.887c0 .288-.35.777-.779 1.086-.428.308-.687.708-.576.888s-.078.327-.421.327-.624.243-.624.541c0 .297-.526 1.091-1.169 1.764s-1.063 1.329-.934 1.459c.13.13-.064.236-.43.236-.367 0-.667.169-.667.375 0 .207-.54.967-1.2 1.689s-1.2 1.452-1.2 1.621c0 .318-.896 1.503-2.1 2.775-.385.407-.7.931-.7 1.164s-.153.329-.34.213c-.187-.115-.592.274-.9.866s-1.235 1.777-2.06 2.635-1.5 1.807-1.5 2.11-.168.552-.373.552-.487.36-.627.8-.542.8-.894.8c-.351 0-.53.109-.397.242s-.197.649-.734 1.146-.975 1.138-.975 1.425c0 .286-.117.403-.26.26-.317-.317-1.31.921-1.327 1.656-.014.58-.432 1.039-2.167 2.38-.646.499-.91.902-.6.916.305.014.13.195-.388.403-.62.248-.861.588-.704.995.135.354.068.514-.159.374-.217-.134-.395-.061-.395.163 0 .223-.72 1.163-1.6 2.088s-1.6 2.024-1.6 2.441-.18.647-.4.511-.4.063-.4.443-.111.579-.248.443c-.31-.31-1.352.699-1.352 1.309 0 .249-.208.324-.462.167-.265-.164-.354-.111-.208.125.298.482-1.09 2.219-1.471 1.839-.142-.143-.259-.064-.259.174s.225.524.5.635c.299.121.218.215-.2.233-.385.018-.7.212-.7.432s-.281.4-.624.4-.511.181-.374.403c.137.221-.033.511-.377.643s-.625.501-.625.82c0 .32-.144.492-.32.383-.176-.108-.565.196-.864.677-.516.828-.504.842.22.274.706-.555.722-.547.215.1-.302.385-.797.7-1.1.7s-.53.135-.504.3c.11.696-.065 1.415-.29 1.191-.402-.403-1.273.663-1.039 1.273.129.335.044.46-.206.305-.234-.144-.746.231-1.138.834-.623.958-.629 1.027-.044.548.424-.347.67-.387.67-.108 0 .243-.461.557-1.024.699s-.942.471-.841.732c.1.261-.339.824-.975 1.251-.637.426-1.158 1.008-1.159 1.292-.001.734-1.236 1.933-2.341 2.273-.705.217-.826.404-.484.746.343.343.543.318.8-.098.195-.314.63-.445 1.004-.301.41.157.563.094.402-.167-.244-.394.86-1.97 1.38-1.97.131 0 .187 7.681.125 17.068-.089 13.541-.006 17.136.4 17.394.35.222.219.328-.411.332-.508.003-.813-.172-.679-.389.142-.229-.024-.293-.393-.151-.351.135-.586.27-.521.3.064.03.553.413 1.086.85.533.438.837.571.676.296-.208-.356.072-.5.974-.5.849 0 1.203-.165 1.075-.5-.135-.35.271-.491 1.349-.469 1.329.027 1.473-.052 1.049-.577-.401-.495-.389-.545.066-.272 1.161.7 5.242-.102 5.242-1.031 0-.193.349-.351.776-.351s.89-.183 1.028-.407.419-.302.624-.176c.204.127.372-.04.372-.37s.208-.728.462-.885q.463-.287.13.251c-.183.296.509-.081 1.538-.838 1.029-.756 2.275-1.597 2.77-1.869.571-.313.68-.499.3-.506-.52-.011-.522-.061-.019-.38.319-.202.679-.313.8-.246.258.142 1.793-1.393 1.974-1.974.069-.22.287-.355.485-.3s.36-.181.36-.524.184-.509.41-.37.384.105.353-.076c-.151-.865.096-1.33.704-1.33.366 0 .562-.104.436-.231s.319-.757.992-1.4 1.093-1.169.934-1.169c-.16 0 .271-.472.957-1.05.686-.577 1.163-1.134 1.06-1.237s.424-.726 1.172-1.383 1.328-1.315 1.287-1.462c-.04-.147.369-.777.911-1.399.541-.623 1.479-1.698 2.084-2.39.605-.691 1.1-1.411 1.1-1.6 0-.188.72-1.076 1.6-1.974s1.6-1.839 1.6-2.092.716-1.08 1.591-1.837 1.595-1.601 1.6-1.876.189-.5.409-.5.4-.258.4-.573.373-.691.829-.836c.498-.158.743-.488.612-.827-.125-.328.03-.564.372-.564.323 0 .542-.142.487-.315s.395-.812 1-1.418c.605-.607 1.1-1.376 1.1-1.709s.18-.494.4-.358.4.084.4-.115c0-.2.371-.795.824-1.324l1.6-1.864c.427-.497.776-1.082.776-1.3a.4.4 0 0 1 .4-.397c.22 0 .4-.198.4-.44 0-.241.54-.943 1.2-1.56s1.2-1.329 1.2-1.584.184-.349.41-.21.384.105.353-.076c-.147-.844.1-1.296.837-1.53.44-.14.8-.42.8-.622 0-.348.783-1.417 1.9-2.594.275-.29.5-.654.5-.81 0-.155.405-.668.9-1.141s1.35-1.468 1.9-2.215 1.413-1.775 1.918-2.287.786-.931.625-.931c-.162 0 .055-.334.482-.743 1.268-1.215 2.575-2.839 2.575-3.201 0-.185.54-.902 1.2-1.593s1.2-1.359 1.2-1.485.912-1.118 2.027-2.204 1.82-1.974 1.568-1.974.274-.725 1.169-1.611 1.881-2.101 2.191-2.7c.311-.599 1.129-1.591 1.819-2.205.69-.613 1.144-1.293 1.01-1.509-.134-.217-.095-.345.086-.285.182.061.336.02.343-.09.008-.11.494-.74 1.08-1.4 3.056-3.439 3.507-4.025 3.507-4.556 0-.317.119-.458.265-.313.145.146.719-.409 1.275-1.233s1.517-1.975 2.135-2.558c.619-.584 1.125-1.267 1.125-1.52 0-.252.855-1.327 1.9-2.388 1.045-1.062 1.951-2.153 2.014-2.424s.391-.77.728-1.107.89-1.036 1.229-1.554c.339-.517.777-.841.973-.72s.356-.028.356-.331c0-.304.405-.916.9-1.362.495-.445 1.17-1.215 1.5-1.709.557-.835 1.408-1.941 2.393-3.108.224-.266.407-.671.407-.9a.41.41 0 0 1 .4-.417c.22 0 .4-.194.4-.431 0-.238.72-1.123 1.6-1.969s1.6-1.733 1.6-1.972c0-.24.54-1 1.2-1.691s1.2-1.42 1.2-1.62.18-.253.4-.117.4-.025.4-.358c0-.697 1.839-2.669 2.176-2.333.123.123.224.016.224-.238 0-.43.709-1.432 1.9-2.687.275-.29.5-.72.5-.955 0-.236.141-.429.314-.429.172 0 .614-.495.981-1.1s1.216-1.675 1.886-2.378 1.219-1.569 1.219-1.924.18-.534.4-.398.4.051.4-.19c0-.24.585-1.034 1.3-1.765 1.715-1.751 3.484-3.964 3.493-4.369.004-.178.187-.212.407-.076s.4.012.4-.276c.001-.288.471-1.064 1.045-1.724a61 61 0 0 0 2.1-2.589c.58-.764 1.73-2.113 2.555-2.998s1.5-1.749 1.5-1.921c0-.173.576-.946 1.279-1.719s1.316-1.659 1.362-1.969c.094-.645 1.985-2.645 2.249-2.38.097.096.43-.32.74-.925.31-.604.881-1.39 1.267-1.746.387-.356.703-.861.703-1.124 0-.262.153-.382.34-.266.187.115.592-.274.9-.866s1.235-1.777 2.06-2.635 1.5-1.735 1.5-1.95c0-.216.63-1.022 1.4-1.792s1.403-1.517 1.406-1.66c.004-.143.721-1.07 1.594-2.06s1.59-1.94 1.594-2.111c.003-.17.816-1.12 1.806-2.11s1.8-1.978 1.8-2.196c0-.217.81-1.228 1.8-2.247s1.8-2.024 1.8-2.234.54-.885 1.2-1.502 1.2-1.329 1.2-1.584.18-.352.4-.216.4-.048.4-.408.701-1.349 1.559-2.198c.857-.849 1.478-1.624 1.379-1.723s.279-.541.841-.983 1.021-.924 1.021-1.072c0-.412 2.063-3.086 3.299-4.276.605-.584 1.101-1.258 1.101-1.498 0-.241.9-1.357 2-2.481s2-2.205 2-2.405.56-.947 1.243-1.66c.684-.713 1.795-2.061 2.468-2.996s1.374-1.7 1.557-1.7.332-.18.332-.399c0-.22.63-1.067 1.4-1.883s1.4-1.728 1.4-2.025.18-.429.4-.293.4.084.4-.115c0-.318.307-.747 1.938-2.71.195-.234.579-.846.854-1.359.274-.514 1.064-1.514 1.754-2.222 1.793-1.842 2.654-2.944 2.654-3.399 0-.217.18-.395.4-.395s.4-.371.4-.824.18-.712.4-.576c.233.144.4-.263.4-.976 0-.673.18-1.224.4-1.224.245 0 .4-1.933.4-5s-.155-5-.4-5c-.22 0-.4-.439-.4-.976s-.18-1.088-.4-1.224-.4-.557-.4-.935c0-.379-.36-.948-.8-1.265s-.8-.773-.8-1.013c0-.579-2.113-2.587-2.722-2.587-.263 0-.478-.158-.478-.351 0-.194-.54-.576-1.2-.849s-1.2-.655-1.2-.849-.439-.351-.976-.351-1.088-.18-1.224-.4c-.336-.543-9.516-.524-10.06.02M182 32.8c-.955.306-.943.322.276.36.702.022 1.388-.14 1.524-.36.284-.46-.364-.46-1.8 0m190.6 105.6c-.136.22-.597.4-1.024.4s-.776.18-.776.4-.36.4-.8.4-.8.18-.8.4-.267.4-.593.4c-.692 0-4.207 3.257-4.207 3.898 0 .239-.143.495-.319.569-.489.204-2.081 3.821-2.081 4.729 0 .442-.194.804-.43.804-.522 0-.268 5.142.416 8.4.253 1.21.559 2.965.678 3.9s.378 1.7.576 1.7.36.684.36 1.52.17 1.691.377 1.9c.208.209.42 1.335.473 2.501.052 1.167.242 2.212.422 2.324.181.111.328 1.282.328 2.602 0 1.498.15 2.307.4 2.153.255-.158.4 1.055.4 3.353 0 1.98.18 3.711.4 3.847.243.15.4 3.08.4 7.45 0 4.472.167 7.514.44 8.025.32.597.32.747 0 .55-.314-.194-.44 1.846-.44 7.118 0 4.298-.159 7.446-.379 7.524-.209.073-.413 1.708-.455 3.633-.041 1.925-.198 3.5-.349 3.5s-.316.945-.368 2.1-.264 2.271-.472 2.48c-.207.209-.377 1.233-.377 2.276s-.18 2.008-.4 2.144-.4 1.137-.4 2.224-.18 1.976-.4 1.976-.4.705-.4 1.567c0 .861-.172 1.626-.382 1.7-.211.073-.428.808-.482 1.633-.055.825-.243 1.5-.418 1.5s-.318.462-.318 1.026-.162 1.33-.359 1.7c-.198.371-.422 1.214-.498 1.874s-.355 1.637-.62 2.171c-.265.535-.391 1.12-.279 1.3.112.181.018.329-.208.329s-.314.252-.196.56c.118.307.022.678-.213.823s-.427.794-.427 1.441-.18 1.176-.4 1.176-.4.54-.4 1.2-.18 1.2-.4 1.2-.4.54-.4 1.2-.18 1.2-.4 1.2-.4.36-.4.8-.18.8-.4.8-.4.45-.4 1-.18 1-.4 1-.4.36-.4.8-.18.8-.4.8-.4.349-.4.776-.18.888-.4 1.024-.4.687-.4 1.224-.18.976-.4.976-.4.36-.4.8-.18.8-.4.8-.4.234-.4.52c0 .736-.941 2.673-1.3 2.677-.165.002-.3.363-.3.803s-.18.8-.4.8-.4.36-.4.8-.135.801-.3.801c-.165.001-.75.991-1.3 2.199s-1.135 2.198-1.3 2.199-.3.35-.3.777-.166.879-.368 1.004-.853 1.081-1.446 2.124l-2.045 3.596c-.532.935-.843 1.7-.693 1.7.151 0-.113.336-.587.747-.473.411-.861 1.051-.861 1.424s-.159.578-.354.458c-.194-.12-.576.319-.848.976s-.653 1.195-.847 1.195-.351.641-.351 1.424c0 .847-.162 1.323-.4 1.176-.259-.16-.4 1.529-.4 4.776 0 3.083.155 5.024.4 5.024.22 0 .4.54.4 1.2s.18 1.2.4 1.2.4.288.4.64c0 .351.54 1.143 1.2 1.76s1.2 1.409 1.2 1.76c0 .366.331.64.773.64.425 0 .877.315 1.004.7.222.674 3.534 2.5 4.535 2.5.268 0 .488.18.488.4 0 .245 1.933.4 5 .4s5-.155 5-.4c0-.22.355-.4.788-.4.861 0 3.368-1.299 4.293-2.224a7 7 0 0 1 1.35-.993c.423-.226.769-.603.769-.837s.54-.929 1.2-1.546 1.2-1.394 1.2-1.727.135-.666.3-.74c.386-.171 1.743-2.192 2.506-3.733.327-.66.819-1.438 1.094-1.728s.988-1.371 1.585-2.4 1.227-1.932 1.4-2.005.315-.326.315-.56c0-.607 2.107-4.88 2.485-5.04.173-.074.315-.479.315-.9 0-.422.18-.767.4-.767s.4-.36.4-.8.18-.8.4-.8.4-.27.4-.6.18-.6.4-.6.4-.245.4-.544c0-.452 1.172-3.068 2.846-6.351.195-.382.354-.967.354-1.3s.18-.605.4-.605.4-.36.4-.8.18-.8.4-.8.4-.36.4-.8.142-.8.315-.8.343-.372.377-.826c.034-.455.409-1.58.832-2.5 1.566-3.405 2.076-4.602 2.076-4.874 0-.154.246-.846.546-1.54.301-.693.963-2.61 1.473-4.26s1.021-3.177 1.135-3.393c.251-.474.377-1.076.691-3.307.131-.935.4-1.7.597-1.7s.358-.63.358-1.4.18-1.4.4-1.4.4-.619.4-1.376.18-1.488.4-1.624.4-.867.4-1.624.18-1.376.4-1.376.4-.72.4-1.6.18-1.6.4-1.6.4-.99.4-2.2.18-2.2.4-2.2.4-.9.4-2 .18-2 .4-2 .4-.889.4-1.976.18-2.088.4-2.224.4-1.587.4-3.224.144-2.976.321-2.976c.176 0 .368-1.575.427-3.5.058-1.925.274-3.671.479-3.88.524-.534.497-33.82-.027-33.82-.241 0-.4-1.667-.4-4.2s-.159-4.2-.4-4.2c-.221 0-.4-1.04-.4-2.32 0-1.276-.17-2.491-.377-2.7s-.417-1.505-.466-2.88c-.048-1.375-.239-2.5-.423-2.5s-.334-.799-.334-1.776-.18-1.888-.4-2.024-.4-.946-.4-1.8-.18-1.664-.4-1.8-.4-.957-.4-1.824-.18-1.576-.4-1.576-.4-.799-.4-1.776-.18-1.888-.4-2.024-.4-.676-.4-1.2-.18-1.064-.4-1.2-.4-.597-.4-1.024-.168-.776-.373-.776-.492-.373-.636-.829c-.331-1.041-3.72-4.371-4.449-4.371-.298 0-.542-.18-.542-.4s-.36-.4-.8-.4-.8-.18-.8-.4-.349-.4-.776-.4-.888-.18-1.024-.4c-.143-.232-2.33-.4-5.2-.4s-5.057.168-5.2.4m-82.725 203.838c-.943.241-2.17.737-2.726 1.101s-1.108.569-1.224.453-.439.063-.717.398c-.278.336-.844.61-1.257.61s-.751.18-.751.4-.281.4-.624.4-.531.15-.417.333c.113.184-.056.364-.377.4l-1.182.134c-.33.036-.6.188-.6.337s-.855.704-1.9 1.233-1.96 1.098-2.033 1.263-.389.3-.7.3c-.312 0-.567.18-.567.4s-.345.4-.767.4c-.421 0-.826.175-.9.388-.073.214-.583.439-1.133.5-.55.062-1.349.427-1.775.812-.427.385-1.057.706-1.4.713s-.967.271-1.384.587-.912.48-1.1.364-.341-.021-.341.212-.36.424-.8.424-.8.18-.8.4-.439.4-.976.4-1.088.18-1.224.4-.597.4-1.024.4-.776.18-.776.4-.349.4-.776.4-.888.18-1.024.4-.676.4-1.2.4-1.05.157-1.168.348c-.187.304-1.007.562-3.425 1.081-.326.07-.656.318-.734.552-.078.233-.298.327-.489.209-.5-.309-2.416.234-2.179.618.109.177-.23.275-.754.217-.524-.057-1.606.214-2.405.602-.804.391-1.331.498-1.18.24.149-.257-.074-.176-.497.18s-1.219.605-1.769.555c-.55-.051-1.118.091-1.262.315s-.859.39-1.588.369-1.544.143-1.81.364-1.043.418-1.727.437c-.683.02-1.336.188-1.451.374-.115.187-.57.339-1.012.339-.441 0-1.196.211-1.676.47-.481.258-1.905.462-3.164.453-1.26-.008-2.195.14-2.077.331.118.19-.696.346-1.809.346q-2.024 0-2.03.5c-.005.374-.092.365-.345-.034-.405-.639-.866-.686-1.214-.123-.14.226-1.371.478-2.736.559s-2.606.272-2.758.423c-.151.151-.559.262-.908.247-.465-.021-.421-.119.167-.372.652-.28.675-.349.124-.372-.372-.015-.788.152-.924.372s-.607.4-1.047.4-.711.144-.603.319.032.581-.17.9c-.306.483-.369.465-.374-.111-.006-.748-1.66-1.369-2.411-.905-.247.153-.348.541-.225.864.168.437.021.521-.582.329-.801-.254-.806-.141-.697 14.974.083 11.576-.005 15.23-.367 15.23a.96.96 0 0 0-.731.411c-.171.277 1.548.347 5.277.215 9.782-.344 10.929-.421 10.93-.726 0-.165 1.26-.3 2.8-.3 1.6 0 2.8-.171 2.8-.4 0-.222 1.067-.4 2.4-.4s2.4-.178 2.4-.4c0-.22 1.001-.4 2.224-.4 1.38 0 2.129-.152 1.976-.4s.585-.4 1.943-.4c1.205 0 2.25-.172 2.324-.382.073-.211.796-.427 1.607-.481.811-.053 1.385-.241 1.277-.417s.633-.32 1.649-.32c1.13 0 1.751-.155 1.6-.4-.151-.244.463-.4 1.576-.4 1.003 0 1.824-.18 1.824-.4s.519-.4 1.154-.4 1.657-.261 2.272-.58c.614-.318 1.265-.488 1.445-.376s.329.013.329-.22.406-.424.901-.424c.496 0 2.161-.38 3.7-.843 1.54-.464 3.294-.935 3.899-1.046s1.1-.361 1.1-.556.54-.355 1.2-.355 1.2-.157 1.2-.348.815-.576 1.81-.855 1.907-.662 2.024-.852.563-.345.99-.345.776-.18.776-.4.349-.4.776-.4.888-.18 1.024-.4.777-.4 1.424-.4 1.176-.18 1.176-.4.36-.4.8-.4.8-.18.8-.4.36-.4.8-.4.8-.18.8-.4.36-.4.8-.4.8-.18.8-.4.36-.4.8-.4.8-.18.8-.4.435-.4.967-.4c.531 0 1.026-.135 1.1-.3.178-.4 3.482-2.1 4.082-2.1.261 0 .734-.36 1.051-.8s.897-.8 1.288-.8c.392 0 .712-.18.712-.4s.36-.4.8-.4.8-.18.8-.4.294-.4.653-.4.984-.381 1.388-.847c.424-.49.994-.749 1.347-.613.337.129.612.061.612-.153 0-.213.36-.387.8-.387s.8-.18.8-.4.178-.4.395-.4c.218 0 .713-.258 1.1-.572 2.826-2.295 3.318-2.748 3.158-2.909-.1-.099.343-.681.983-1.293s1.164-1.408 1.164-1.769.18-.657.4-.657.4-.504.4-1.12.17-1.291.379-1.5c.208-.209.423-1.145.478-2.08s.244-1.7.421-1.7c.463 0 .398-1.506-.078-1.8-.22-.136-.4-1.227-.4-2.424s-.18-2.176-.4-2.176-.4-.45-.4-1-.18-1-.4-1-.4-.278-.4-.617-.36-1.003-.8-1.475-.8-1.095-.8-1.383-.135-.525-.3-.525c-.165-.001-.78-.406-1.366-.9-.587-.495-1.45-1.22-1.919-1.612s-1.005-.618-1.192-.502c-.186.115-.45-.08-.586-.434-.166-.431-.57-.582-1.228-.456-.54.103-1.039.014-1.11-.199-.181-.543-7.553-.588-9.624-.059M182 367.2c1.436.46 2.084.46 1.8 0-.136-.22-.822-.382-1.524-.36-1.219.038-1.231.054-.276.36m17 .8c-.504.217-.578.344-.2.344.33 0 .96-.155 1.4-.344.504-.217.578-.344.2-.344-.33 0-.96.155-1.4.344"/><path id="path1" fill="#0ae9fc" d="M97.2 26.6c-1.306.747-.849.755.854.016.74-.322 1.076-.585.746-.586s-1.05.256-1.6.57M59.096 56.105c-.376.463-.571.944-.435 1.068.137.125.329.001.428-.275.099-.277.372-.384.607-.239.241.149.312.078.163-.163-.145-.235-.047-.5.219-.589.289-.096.326-.257.092-.402-.215-.133-.698.137-1.074.6m-3.436 3.337c-.298.336-.434.717-.304.848.13.13.014.516-.259.858-.274.341.063.228.748-.252s1.317-.833 1.405-.784-.065-.11-.339-.352c-.274-.241-.381-.556-.238-.7s.095-.253-.106-.245c-.202.009-.61.29-.907.627m-2.29 2.282c-.237.271-.348.743-.246 1.048q.189.56-.449.312c-.46-.176-.567-.069-.391.391.159.415.061.573-.284.458-.714-.238-2.29 1.326-2.052 2.036q.188.567-.407.34c-.712-.273-1.695 1.103-1.29 1.807.152.266.152.373 0 .237-.337-.299-4.151 3.322-3.948 3.747.079.165-.057.3-.303.3s-.336.18-.2.4.057.4-.176.4-.424.281-.424.624-.161.524-.357.402c-.197-.121-.467.216-.601.75s-.6 1.084-1.035 1.222-.773.375-.752.526c.101.707-.084 1.307-.355 1.152-.435-.248-1.876 1.394-2.04 2.324-.077.437-.662 1.226-1.3 1.755s-1.16 1.139-1.16 1.356-.366.713-.814 1.101c-.447.388-.762.885-.7 1.103.063.219-.247.733-.689 1.141-.441.409-1.057 1.239-1.367 1.844s-.715 1.1-.898 1.1c-.182 0-.332.191-.332.424s.225.309.5.169.095.104-.4.541-.9 1.02-.9 1.297-.113.389-.251.251C29.481 92.014 28 94.667 28 95.415c0 .245-.462.879-1.026 1.409s-1.302 1.597-1.641 2.37c-1.301 2.975-1.549 3.426-2.23 4.053-.387.356-.703.997-.703 1.424 0 .428-.315 1.134-.7 1.569s-.759 1.053-.832 1.372-.272.672-.444.784-.549.869-.84 1.683c-.291.813-.677 1.387-.857 1.276s-.327.168-.327.621-.18.824-.4.824-.4.36-.4.8-.18.8-.4.8-.4.33-.4.733c0 .404-.125.859-.278 1.012s-.317.54-.364.86c-.14.958-1.131 2.995-1.456 2.995-.166 0-.302.36-.302.8s-.18.8-.4.8-.4.54-.4 1.2-.18 1.2-.4 1.2-.4.461-.4 1.024c0 .58-.173.916-.4.776-.22-.136-.4.126-.4.582s-.167 1.141-.371 1.523c-.571 1.071-.964 2.258-.876 2.645.044.193-.215.676-.575 1.075-.361.398-.541.911-.401 1.138.141.228-.037.862-.395 1.408-.358.547-.543 1.169-.41 1.384a.47.47 0 0 1-.165.641c-.224.138-.407.781-.407 1.428S8.22 138.8 8 138.8s-.4.529-.4 1.176-.18 1.288-.4 1.424-.4.777-.4 1.424S6.62 144 6.4 144s-.4.529-.4 1.176-.18 1.288-.4 1.424-.4.967-.4 1.847c0 .965-.159 1.502-.4 1.353-.242-.149-.4.396-.4 1.376 0 .893-.18 1.624-.4 1.624s-.4.799-.4 1.776-.18 1.888-.4 2.024-.4 1.036-.4 2-.18 1.864-.4 2-.4 1.147-.4 2.247c0 1.232-.154 1.905-.4 1.753-.248-.153-.4.569-.4 1.896 0 1.182-.224 2.368-.5 2.644-.731.731-.731 60.989 0 61.72.276.276.5 1.462.5 2.644 0 1.327.152 2.049.4 1.896.246-.152.4.521.4 1.753 0 1.1.18 2.111.4 2.247s.4 1.036.4 2 .18 1.864.4 2 .4 1.047.4 2.024.18 1.776.4 1.776.4.731.4 1.624c0 .98.158 1.525.4 1.376.241-.149.4.388.4 1.353 0 .88.18 1.711.4 1.847s.4.777.4 1.424.18 1.176.4 1.176.4.529.4 1.176.18 1.288.4 1.424.4.777.4 1.424.18 1.176.4 1.176.4.529.4 1.176.183 1.29.407 1.428a.47.47 0 0 1 .165.641c-.133.215.052.837.41 1.384s.536 1.18.395 1.408c-.14.227.04.74.401 1.138.36.399.619.882.575 1.075-.088.387.305 1.574.876 2.645.204.382.371 1.067.371 1.523s.18.718.4.582c.227-.14.4.196.4.776 0 .563.18 1.024.4 1.024s.4.54.4 1.2.18 1.2.4 1.2.4.36.4.8.136.8.302.8c.325 0 1.316 2.037 1.456 2.995.047.32.211.707.364.86s.278.608.278 1.012.18.733.4.733.4.36.4.8.18.8.4.8.4.371.4.824.147.732.327.621.566.463.857 1.276.669 1.571.84 1.683c.172.112.371.465.444.784s.447.937.832 1.372.7 1.141.7 1.569.316 1.068.703 1.424c.681.627.929 1.078 2.23 4.053.339.773 1.077 1.84 1.641 2.37S28 304.34 28 304.585c0 .748 1.481 3.401 1.749 3.133.138-.138.251-.025.251.251 0 .277.405.86.9 1.297s.675.681.4.541-.5-.064-.5.169.15.424.332.424.587.495.898 1.1c.31.605.926 1.435 1.367 1.844.442.408.752.922.689 1.141-.062.218.253.715.7 1.103.448.388.814.884.814 1.101s.522.828 1.16 1.356 1.223 1.318 1.3 1.755c.164.93 1.605 2.572 2.04 2.324.271-.155.456.445.355 1.152-.021.151.317.388.752.526s.901.688 1.035 1.222.404.871.601.75c.196-.122.357.059.357.402s.191.624.424.624.312.18.176.4-.046.4.2.4.382.135.303.3c-.203.425 3.611 4.046 3.948 3.747.152-.136.152-.029 0 .237-.405.704.578 2.08 1.29 1.807q.595-.227.407.34c-.238.71 1.338 2.274 2.052 2.036.345-.115.443.043.284.458-.176.46-.069.567.391.391.428-.165.574-.062.447.317-.316.95.879 1.865 1.346 1.031.21-.375.553-.575.763-.445.241.149.342-8.672.275-23.931-.109-24.917-.064-25.704 1.372-23.7.153.214.4.268.548.119.148-.148-.024-.562-.382-.92s-.549-.817-.424-1.019c.125-.203.037-.368-.196-.368s-.427-.405-.43-.9c-.005-.728-.08-.785-.394-.3-.368.569-.625-.177-.447-1.3.026-.165-.242-.3-.596-.3-.431 0-.56-.216-.391-.657.206-.535.145-.567-.326-.177-.487.405-.547.289-.385-.743.188-1.191-.39-1.723-.787-.723-.109.275-.136-.088-.061-.806s-.011-1.215-.19-1.104c-.482.297-1.253-.788-1.32-1.858-.032-.513-.16-1.022-.283-1.132-.124-.11-.653-1.05-1.176-2.088-.524-1.039-1.076-1.812-1.228-1.718s-.296-.046-.32-.312c-.114-1.269-.395-1.977-.918-2.308-.315-.199-.392-.367-.172-.374s.194-.144-.059-.306c-.252-.162-.522-.744-.6-1.294-.077-.55-.235-1.09-.351-1.2-.525-.501-2.846-5.282-2.444-5.033.25.154.454.109.454-.101 0-.209-.289-.491-.642-.627-.366-.14-.543-.502-.412-.842.126-.329.055-.597-.159-.597-.213 0-.387-.27-.387-.6s-.157-.6-.349-.6c-.345 0-1.033-2.961-.899-3.87a.79.79 0 0 0-.341-.723c-.226-.14-.411-.769-.411-1.397 0-.629-.203-1.211-.45-1.293-.248-.083-.45-.635-.45-1.226s-.157-.979-.35-.86-.369-.019-.393-.307c-.181-2.234-.834-5.124-1.21-5.356-.191-.119-.347-.734-.347-1.368s-.18-1.264-.4-1.4-.4-.651-.4-1.144-.225-1.138-.5-1.435c-.4-.431-.4-.482 0-.256.275.155.5.092.5-.141s-.18-.424-.4-.424-.4-.63-.4-1.4-.18-1.4-.4-1.4-.4-.975-.4-2.167-.163-2.226-.363-2.3-.415-.763-.479-1.533-.306-1.66-.537-1.977c-.331-.453-.293-.505.179-.241.488.273.507.235.1-.203-.282-.304-.5-1.562-.5-2.883 0-1.46-.151-2.25-.4-2.096-.368.227-.617-3.231-.413-5.721.042-.507-.136-1.176-.394-1.488-.67-.806-.67-29.976 0-30.782.258-.312.436-.981.394-1.488-.204-2.49.045-5.948.413-5.721.249.154.4-.64.4-2.11 0-1.296.126-2.482.279-2.636s.342-1.128.419-2.166.312-1.948.521-2.021c.21-.074.381-1.109.381-2.3 0-1.192.18-2.167.4-2.167s.4-.63.4-1.4.18-1.4.4-1.4.4-.191.4-.424-.225-.296-.5-.141c-.4.226-.4.175 0-.256.275-.297.5-.942.5-1.435s.18-1.008.4-1.144.4-.766.4-1.4.156-1.249.347-1.368c.376-.232 1.029-3.122 1.21-5.356.024-.288.201-.426.393-.307.193.119.35-.268.35-.86 0-.591.203-1.143.45-1.226.248-.082.45-.664.45-1.293s.185-1.257.411-1.397a.79.79 0 0 0 .341-.723c-.134-.909.554-3.87.899-3.87.192 0 .349-.27.349-.6s.174-.6.387-.6c.214 0 .285-.268.159-.597-.131-.34.046-.702.412-.842.353-.136.642-.418.642-.627 0-.21-.204-.255-.454-.101-.402.249 1.919-4.532 2.444-5.033.116-.11.274-.65.351-1.2.078-.55.348-1.132.6-1.294.253-.162.279-.299.059-.306s-.143-.175.172-.374c.523-.331.804-1.039.918-2.308.024-.266.168-.406.32-.312s.704-.679 1.228-1.718c.523-1.038 1.052-1.978 1.176-2.088s.251-.619.283-1.132c.067-1.07.838-2.155 1.32-1.858.179.111.265-.386.19-1.104s-.048-1.081.061-.806c.397 1 .975.468.787-.723-.162-1.032-.102-1.148.385-.743.471.39.532.358.326-.177-.169-.441-.04-.657.391-.657.354 0 .622-.135.596-.3-.178-1.123.079-1.869.447-1.3.314.485.389.428.394-.3.003-.495.197-.9.43-.9s.321-.165.196-.368c-.125-.202.066-.661.424-1.019s.53-.772.382-.92c-.148-.149-.395-.095-.548.119-1.436 2.004-1.481 1.217-1.372-23.7.072-16.389-.025-24.085-.303-23.914-.225.139-.517-.029-.649-.373-.285-.743-.601-.77-1.184-.101M89.578 73.1 88.2 74.6l1.5-1.378c1.396-1.284 1.684-1.622 1.378-1.622-.066 0-.741.675-1.5 1.5M69.056 93.612c-.386.654-.54 1.188-.343 1.188.37 0 1.423-1.997 1.181-2.239-.075-.075-.452.398-.838 1.051m-7.15 9.52c.162.422.073.502-.3.272-.337-.209-.434-.172-.265.1.145.235.038.519-.239.63-.37.149-.356.211.054.234.508.029 1.601-1.044 1.631-1.601.007-.129-.24-.234-.549-.234-.335 0-.469.243-.332.599m51.664 62.18c.533.598 1.131 1.088 1.328 1.088.388 0-.226-.65-1.5-1.588-.585-.431-.54-.298.172.5M134 230.167c0 .421 1.205 1.561 1.421 1.345.101-.101-.177-.51-.619-.91-.441-.399-.802-.595-.802-.435m17.478 16.799c.617.531 1.192.896 1.279.81.194-.193-1.636-1.744-2.079-1.763-.178-.007.182.422.8.953m-90.376 48.9c.277.111.384.395.239.63-.169.272-.072.309.265.1.373-.23.462-.15.3.272-.137.356-.003.599.332.599.309 0 .556-.105.549-.234-.03-.557-1.123-1.63-1.631-1.601-.41.023-.424.085-.054.234m7.954 10.522c.386.653.763 1.126.838 1.051.242-.242-.811-2.239-1.181-2.239-.197 0-.043.534.343 1.188M89.6 327c.746.77 1.447 1.4 1.557 1.4s-.411-.63-1.157-1.4-1.447-1.4-1.557-1.4.411.63 1.157 1.4m-34.503 11.852c.273.342.386.731.252.866-.134.134.056.544.422.911.367.366.779.555.915.419s.093-.248-.096-.248-.081-.225.238-.5c.32-.275.51-.46.422-.412s-.72-.304-1.405-.784-1.022-.593-.748-.252m238.41 3.038c.719.089 1.799.087 2.4-.004s.013-.164-1.307-.162-1.812.077-1.093.166M58.4 342.939c0 .526 1.573 1.829 1.788 1.481.142-.231.058-.42-.188-.42s-.319-.208-.162-.462c.177-.286.11-.353-.176-.176-.254.157-.462.095-.462-.138s-.18-.424-.4-.424-.4.062-.4.139M97.2 373.4c.55.314 1.27.571 1.6.57s-.006-.264-.746-.586c-1.703-.739-2.16-.731-.854.016"/><path id="path2" fill="#1cdcfc" d="M95.838 27.958c-.452.499-.543.854-.264 1.026.234.145.426-.002.426-.327s.225-.671.5-.769.394-.294.264-.436c-.129-.141-.546.086-.926.506m-2.055 1.109c-.43.317-.721.883-.645 1.255.076.373 0 .542-.168.377-.168-.166-.748-.013-1.287.341-.54.354-.859.444-.709.201.543-.878-.403-.417-1.129.551-.41.546-.913.89-1.117.764s-.694.144-1.09.6c-.395.456-.836.713-.979.57-.142-.143-.259-.039-.259.231s-.18.379-.4.243-.4-.095-.4.09c0 .186-.545.659-1.211 1.053s-1.611 1.107-2.1 1.586-1.357 1.112-1.929 1.406c-.571.295-1.787 1.24-2.7 2.1S75.854 42 75.677 42c-.176 0-1.031.618-1.899 1.374-2.007 1.748-3.27 2.782-4.778 3.914-.66.496-1.539 1.322-1.953 1.836-.413.515-1.178 1.098-1.7 1.296-.521.198-.947.665-.947 1.037s-.122.555-.27.406c-.361-.36-2.13 1.326-2.13 2.03 0 .305-.18.443-.4.307s-.4.033-.4.376a.626.626 0 0 1-.624.624c-.343 0-.544.135-.447.3s-.269.66-.814 1.1c-2.455 1.983-2.98 2.661-2.432 3.14.29.253.455.42.367.372-.088-.049-.72.3-1.405.775l-1.245.864.8-.934.8-.933-.924.485c-.941.494-1.062 1.923-.146 1.729.373-.079.458 5.363.376 24.049-.094 21.327-.036 24.126.494 23.934.434-.157.389.023-.162.651-.446.508-.565.868-.287.868.261 0 .577-.269.703-.598.127-.328.389-.499.583-.379.195.12.247-.061.116-.402-.155-.403-.012-.621.404-.621.402 0 .641-.337.637-.9-.005-.745-.079-.797-.431-.3-.377.533-.405.533-.252 0 .095-.33.468-.547.83-.482.363.064.659-.072.659-.304s.536-.983 1.192-1.669 1.107-1.385 1.002-1.554.098-.418.45-.552c.376-.145.541-.5.402-.863-.13-.34-.068-.513.139-.386.372.231 1.458-1.329 1.305-1.876-.044-.157.219-.17.584-.03.487.187.601.089.427-.364-.153-.399.108-.804.732-1.138.533-.285 1.273-1.208 1.645-2.05.372-.843.866-1.537 1.099-1.542s.753-.726 1.156-1.6.943-1.599 1.2-1.609 1.277-1.028 2.267-2.26c1.94-2.413 12.086-12.771 14.428-14.728.786-.656 1.547-1.512 1.691-1.903s.672-.873 1.172-1.074.75-.377.555-.391c-.417-.03 1.466-1.556 2.986-2.421a16 16 0 0 0 2.015-1.404l.953-.8V48.56c0-18.499-.015-18.851-.817-19.455-.715-.54-.913-.545-1.6-.038M52.202 63.198c-.399.441-.595.802-.435.802.421 0 1.561-1.205 1.345-1.421-.101-.101-.51.177-.91.619m45.23 2.852c-1.033 1.004-.665 1.27.477.344.499-.405.769-.816.6-.914-.17-.098-.655.159-1.077.57m-3.838 2.85c.003.165-.174.3-.394.3s-.397-.405-.394-.9c.006-.859.77-.277.788.6m1.638 93.024c-.018.288-.212.412-.432.276s-.4.028-.4.364q-.001.609-.666.355-.669-.258-.376.213c.159.257.088.468-.158.468s-.336.18-.2.4.07.4-.147.4-.453-.274-.524-.608c-.101-.477-.368-.386-1.238.424-.609.568-1.016 1.181-.904 1.363s-.172.428-.632.549c-.537.14-.726.395-.53.713.218.351.1.416-.404.222-.528-.202-.65-.117-.478.332.128.333.06.605-.15.605-.507 0-1.593 2.641-1.593 3.872 0 .601-.167.872-.435.706-.308-.19-.376.945-.232 3.877.227 4.607.579 6.745 1.112 6.745.195 0 .355.354.355.786s.36.979.8 1.214.8.782.8 1.214.205.786.456.786.714.315 1.03.7c.315.385.442.447.282.138q-.29-.559.177-.272c.257.159.371.446.253.638-.309.5 1.475 2.054 2.088 1.818.283-.108.537-.023.564.191.028.213.073.597.1.854.028.256.32.54.65.63.529.145.53.115.005-.249-.488-.339-.445-.401.241-.35.57.043.781.276.662.731-.16.614 2.199 3.798 2.552 3.444.085-.085-.118-.676-.45-1.313-.333-.638-.612-.89-.62-.56-.012.497-.08.488-.397-.055-.23-.394-.345-6.795-.288-16.062.052-8.474-.025-15.333-.171-15.242s-.357-.062-.468-.339c-.157-.389-.21-.384-.234.022m3.739 34.305c.346.345.629.825.629 1.066s.105.334.232.206c.324-.324-.568-1.901-1.075-1.901-.228 0-.131.283.214.629m1.999 2.538c.778.859 1.43 1.086 1.43.497 0-.184-.492-.56-1.092-.833-1.09-.497-1.091-.496-.338.336m-45.132 90.501c.551.628.596.808.162.651-.53-.192-.588 2.607-.494 23.934.082 18.686-.003 24.128-.376 24.049-.916-.194-.795 1.235.146 1.729l.924.485-.8-.933-.8-.934 1.245.864c.685.475 1.317.824 1.405.775s-.077.119-.367.372c-.548.479-.023 1.157 2.432 3.14.545.44.912.935.814 1.1-.097.165.104.3.447.3s.624.281.624.624.18.512.4.376.4.002.4.307c0 .704 1.769 2.39 2.13 2.03.148-.149.27.034.27.406s.426.839.947 1.037c.522.198 1.287.781 1.7 1.296.414.514 1.293 1.34 1.953 1.836 1.508 1.132 2.771 2.166 4.778 3.914.868.756 1.723 1.374 1.899 1.374.177 0 1.069.704 1.983 1.565.913.86 2.129 1.805 2.7 2.1.572.294 1.44.927 1.929 1.406s1.434 1.193 2.1 1.586c.666.394 1.211.867 1.211 1.053s.18.226.4.09.4-.027.4.243.117.374.259.231c.143-.143.584.114.979.57.396.456.886.726 1.09.6s.707.218 1.117.764c.726.968 1.672 1.429 1.129.551-.15-.243.169-.153.709.201s1.13.507 1.313.341c.182-.165.224 0 .092.369-.403 1.127 1.332 2.009 2.326 1.183.761-.632.786-1.255.786-19.453v-18.8l-.953-.8a16 16 0 0 0-2.015-1.404c-1.52-.865-3.403-2.391-2.986-2.421.195-.014-.055-.19-.555-.391s-1.027-.684-1.172-1.074c-.144-.391-.905-1.247-1.691-1.903-2.342-1.957-12.488-12.315-14.428-14.728-.99-1.232-2.01-2.249-2.267-2.26s-.797-.734-1.2-1.609-.923-1.594-1.156-1.6c-.233-.005-.727-.699-1.099-1.542-.372-.842-1.112-1.765-1.645-2.05-.624-.334-.885-.739-.732-1.138.174-.453.06-.551-.427-.364-.365.14-.628.127-.584-.03.153-.547-.933-2.107-1.305-1.876-.207.127-.269-.046-.139-.386.139-.363-.026-.718-.402-.863-.352-.134-.554-.383-.45-.552s-.346-.868-1.002-1.554-1.192-1.437-1.192-1.669-.296-.368-.659-.304c-.362.065-.735-.152-.83-.482-.153-.533-.125-.533.252 0 .352.497.426.445.431-.3.004-.563-.235-.9-.637-.9-.416 0-.559-.218-.404-.621.131-.341.079-.522-.116-.402-.194.12-.456-.051-.583-.379-.126-.329-.442-.598-.703-.598-.278 0-.159.36.287.868M93.594 331.1c-.018.877-.782 1.459-.788.6-.003-.495.174-.9.394-.9s.397.135.394.3m3.206 1.992c0 .491 1.544 1.722 1.745 1.392.095-.156-.259-.607-.786-1.003-.528-.395-.959-.57-.959-.389m-44.598 3.71c.4.442.809.72.91.619.216-.216-.924-1.421-1.345-1.421-.16 0 .036.361.435.802M95.5 371.047c-.155.245.075.768.509 1.162.452.408.791.517.791.253 0-.254-.167-.462-.371-.462s-.433-.315-.509-.7c-.089-.448-.24-.539-.42-.253"/><path id="path3" fill="#22d3fc" d="M133.866 10.267c-.146.147-.581.29-.966.318-.385.029-.772.224-.86.433-.088.21-.448.596-.8.857-.566.42-.55.462.138.365.428-.061.849-.32.934-.577.086-.258.276-.4.422-.317.146.084.612-.185 1.036-.597.423-.412.678-.749.567-.749s-.324.12-.471.267m-9.237 3.633c-.408.385-.616.475-.462.2.393-.701-.365-.626-.963.096-.272.327-.642.504-.822.393s-.457.009-.616.266q-.29.468.234.145c.318-.197.426-.166.276.077-.136.221-.749.374-1.362.341s-1.463.264-1.889.661c-.427.396-1.282.721-1.9.721-.619 0-1.125.148-1.125.329 0 .18-.945.735-2.1 1.233-3.275 1.411-3.9 1.748-3.9 2.106 0 .182-.36.332-.8.332s-.8.18-.8.4-.315.404-.7.409-1.15.361-1.7.791-1.326.786-1.724.791-.612.189-.476.409-.134.4-.6.4c-.477 0-.736.179-.594.41.139.225.105.384-.076.353-.954-.166-2.148.085-1.948.408.126.204-.134.487-.578.628s-1.088.739-1.431 1.328-.528.758-.411.373.066-.7-.113-.7c-.548 0-2.049 1.462-2.049 1.996 0 .324-.184.378-.519.153-.285-.192-.24-.079.1.251.544.527.606 2.81.515 18.8-.115 20.037-.137 19.718 1.272 18.197.535-.578 1.077-1.039 1.203-1.024 1.073.126 1.559-.135 2.144-1.154.373-.649 1.062-1.277 1.532-1.395s1.551-.842 2.403-1.61c.853-.767 1.876-1.4 2.274-1.405s.612-.189.476-.409.084-.4.488-.4c.405 0 .988-.35 1.297-.779.308-.428.685-.702.836-.608.152.094.682-.182 1.179-.613s1.06-.687 1.252-.568c.191.118.348.046.348-.161 0-.206.99-.877 2.2-1.489s2.2-1.274 2.2-1.471.18-.247.4-.111.4.071.4-.145.564-.515 1.253-.667c.922-.202 1.107-.368.7-.625-.396-.251-.247-.352.527-.357.602-.003 1.261-.316 1.488-.706.224-.385.413-.557.42-.383s.822-.158 1.812-.738 1.8-.92 1.8-.755.36-.026.8-.424.8-.57.8-.382.216.126.48-.138.89-.48 1.391-.48c.918 0 2.474-1.788 1.983-2.279-.14-.14-.254-.034-.254.236s-.16.392-.355.271-.33.09-.3.469c.036.448-.256.706-.836.74l-.892.053.092-16.66L129 13.37l-1.4.015c-.877.009-1.364.196-1.305.501.055.279-.156.389-.498.258-.326-.125-.493-.389-.371-.586.349-.565.011-.42-.797.342M92.973 29.804c-.675.297-1.485.853-1.8 1.237-.543.662-.519.664.459.027.567-.369 1.152-.55 1.3-.403.147.148.268.039.268-.241 0-.289.26-.41.6-.279.365.14.6 0 .6-.358 0-.323-.045-.572-.1-.554s-.652.275-1.327.571m32.803 17.983c-1.006.762-1.554.779-.892.028.284-.321.775-.591 1.092-.6.406-.01.346.159-.2.572M92.806 68.3c-.003.495.174.9.394.9.501 0 .501-.424 0-1.2-.314-.485-.389-.428-.394.3m-4.014 4.71c-.278.335-.426.69-.328.788s.482-.177.853-.61c.372-.433.519-.788.328-.788s-.575.274-.853.61m8.325 88.09c-.245.295-.686.444-.981.331-.304-.117-.536.059-.536.405 0 .336.135.528.3.426s.257 6.747.205 15.221c-.057 9.267.058 15.668.288 16.062.318.545.387.554.409.055.015-.33.386.165.824 1.1.439.935 1.017 1.697 1.286 1.694.31-.004.269-.148-.112-.394-.452-.292-.468-.389-.065-.394.294-.003.736.527.982 1.18.257.68.933 1.386 1.586 1.657.667.276 1.056.688.938.994-.11.287.146.632.569.766s1.139.763 1.59 1.397 1.176 1.265 1.61 1.403.79.539.79.891c0 .351.104.535.232.408.127-.128 1.27.832 2.539 2.133s2.544 2.365 2.835 2.365.413.115.273.255c-.262.261 3.284 3.733 3.821 3.741.165.002.3.274.3.604s.153.6.34.6 1.294.9 2.46 2 2.272 2 2.46 2c.187 0 .34.245.34.545 0 .358.375.5 1.1.414.605-.072.775-.032.378.089-.922.28.577 1.752 1.783 1.752.646 0 .951.66.786 1.7-.026.165.149.3.389.3s.774.405 1.187.9c.545.653.757.736.774.3.013-.33.019-10.195.014-21.923-.007-15.994.106-21.252.452-21.038.292.18.352.108.163-.197-.229-.371-.439-.363-.919.035-.54.448-.585.398-.338-.38.216-.678.126-.897-.366-.897-.357 0-.539.18-.403.4s.057.4-.176.4c-.569 0-.535-.52.076-1.179.4-.431.4-.482 0-.256-.295.167-.5.055-.5-.272 0-.673-1.659-2.293-2.349-2.293-.274 0-.407-.148-.295-.329.227-.367-1.146-1.671-1.761-1.671-.217 0-.395-.24-.395-.532s-.444-.77-.986-1.061c-.543-.29-.922-.635-.842-.767.21-.35-.843-1.236-1.129-.949-.134.133-.243-.027-.243-.357s-.435-.832-.966-1.116c-.532-.284-1.056-.86-1.166-1.279s-.35-.716-.534-.659c-.183.057-1.414-.927-2.734-2.186s-2.552-2.29-2.738-2.291-.86-.374-1.497-.828c-.636-.453-1.564-.845-2.061-.87-.497-.026-1.129-.217-1.404-.425-.828-.626-8.061-.609-8.583.02m-3.775 1.486c-.461.322-.938.484-1.062.36s-.127.153-.006.614c.121.462.389.84.596.84.208 0 .266-.18.13-.4s-.046-.4.2-.4.317-.211.158-.468q-.293-.471.376-.213c.435.167.666.052.666-.332 0-.724-.027-.724-1.058-.001m37.058 19.427c0 .213.205.387.456.387s.711.315 1.022.7c.517.639.53.625.155-.153-.435-.904-1.633-1.589-1.633-.934m1.878 2.243c-.427.426.119.944.995.944.688 0 .742-.1.327-.6-.538-.648-.919-.747-1.322-.344m-39.286 6.157c-.13.211.217.591.773.844.555.253.928.593.827.756s.04.481.312.708c.37.307.496.176.496-.517 0-.51-.128-.848-.285-.751s-.646-.184-1.086-.624c-.442-.442-.906-.628-1.037-.416m36.882 35.046c-.278.278 1.291 1.825 1.689 1.666.173-.069-.09-.518-.584-.999s-.991-.781-1.105-.667M88.4 326.281c0 .462 1.135 1.528 1.358 1.276.076-.086-.198-.503-.61-.927-.411-.423-.748-.581-.748-.349m4.406 5.419c.005.728.08.785.394.3.501-.776.501-1.2 0-1.2-.22 0-.397.405-.394.9m3.386 1.576c-.11.288-.154 8.714-.096 18.724.091 15.99.029 18.273-.515 18.8-.34.33-.385.443-.1.251.335-.225.519-.171.519.153 0 .534 1.501 1.996 2.049 1.996.179 0 .23-.315.113-.7s.068-.217.411.373c.343.589.987 1.187 1.431 1.328s.704.424.578.628c-.2.323.994.574 1.948.408.181-.031.215.128.076.353-.142.231.117.41.594.41.466 0 .736.18.6.4s.078.404.476.409 1.174.361 1.724.791 1.315.786 1.7.791.7.189.7.409.36.4.8.4.8.15.8.332c0 .358.625.695 3.9 2.106 1.155.498 2.1 1.053 2.1 1.233s.506.329 1.125.329 1.473.325 1.9.721c.426.397 1.276.694 1.889.661s1.226.12 1.362.341c.15.243.042.274-.276.077q-.524-.324-.234.145c.159.257.436.377.616.266s.55.066.822.393c.598.721 1.361.798.951.096-.161-.275.129-.14.645.3s.818.594.671.342 0-.561.326-.686c.342-.131.553-.021.498.258-.059.305.428.492 1.305.501l1.4.015-.091-16.66-.092-16.66.892.053c.58.034.872.292.836.74-.03.379.105.59.3.469s.355.001.355.271.114.376.254.236c.491-.491-1.065-2.279-1.983-2.279-.501 0-1.127-.216-1.391-.48s-.48-.326-.48-.138-.36.016-.8-.382-.8-.589-.8-.424-.81-.175-1.8-.755-1.805-.912-1.812-.738-.196.002-.42-.383c-.227-.39-.886-.703-1.488-.706-.774-.005-.923-.106-.527-.357.407-.257.222-.423-.7-.625-.689-.152-1.253-.452-1.253-.667 0-.216-.18-.281-.4-.145s-.4.086-.4-.111-.99-.859-2.2-1.471-2.2-1.283-2.2-1.489-.157-.279-.348-.161c-.192.119-.755-.137-1.252-.568s-1.027-.707-1.179-.613c-.151.094-.528-.18-.836-.608-.309-.429-.892-.779-1.297-.779s-.624-.18-.488-.4-.078-.404-.476-.409-1.421-.638-2.274-1.405c-.852-.768-1.934-1.492-2.403-1.61s-1.159-.746-1.532-1.395c-.576-1.004-1.459-1.463-2.076-1.081-.089.055-.631-.406-1.204-1.024-.726-.783-1.103-.965-1.243-.6m29.584 18.937c.436.329.555.587.272.587-.278 0-.775-.27-1.105-.6-.767-.767-.185-.758.833.013M91.4 369.079c1.226 1.189 3 1.854 3 1.125 0-.35-.237-.488-.6-.349-.34.131-.6.01-.6-.279 0-.28-.121-.389-.268-.241-.148.147-.733-.025-1.3-.382-1.025-.645-1.027-.644-.232.126m40 19.164c.44.325.773.719.74.874-.033.156.109.236.316.178s.774.1 1.26.351l.884.458-.8-.801c-.44-.44-.92-.733-1.066-.649-.146.083-.336-.059-.422-.317-.085-.257-.506-.516-.934-.577-.757-.106-.756-.093.022.483"/><path id="path4" fill="#2cccfc" d="M178.7.305c-2.15.068-3.9.297-3.9.509 0 .213-1.333.386-2.976.386-1.637 0-3.088.18-3.224.4s-1.237.4-2.447.4c-1.365 0-2.106.152-1.953.4s-.596.4-1.976.4c-1.223 0-2.224.162-2.224.36s-.81.468-1.8.6l-3.6.48c-.99.132-1.8.402-1.8.6s-.709.36-1.576.36-1.688.18-1.824.4-.741.4-1.344.4-1.27.174-1.483.387c-.212.212-.968.43-1.68.485-.711.054-1.293.24-1.293.413s-.615.315-1.367.315-1.426.178-1.5.397c-.073.218-.628.437-1.233.487s-1.1.231-1.1.403-.435.313-.967.313c-.531 0-1.026.174-1.1.387-.073.213-.706.431-1.405.483-.7.053-1.166.269-1.035.481.135.218-.041.278-.407.137-.483-.185-.581-.077-.391.432.204.544.14.591-.32.234-.751-.582-2.813-.28-3.575.525-.457.483-.466.558-.038.316q.565-.322.274.146c-.158.256-.706.389-1.217.297s-1.388.068-1.946.358c-.559.29-1.094.45-1.188.356s-.413.148-.709.538c-.452.597-.451.633.005.229.378-.336.767-.361 1.286-.083.554.296.717.266.639-.119-.07-.342.367-.522 1.294-.532l1.4-.015-.091 16.66-.092 16.66.892-.053c.58-.034.872-.292.836-.74-.03-.379.09-.599.266-.49s.424-.028.551-.305.13-.097.007.398c-.252 1.017.292 1.191 1.011.324.263-.317.78-.48 1.149-.362.52.165.548.126.128-.174-.646-.462-.155-.832.883-.666.407.066 1.358-.228 2.112-.651.755-.424 1.817-.771 2.36-.771s.988-.18.988-.4.27-.4.6-.4.6-.18.6-.4.529-.4 1.176-.4 1.288-.18 1.424-.4.687-.4 1.224-.4.976-.17.976-.377.348-.31.774-.228.967-.083 1.203-.367.877-.43 1.426-.325c.605.115.997.006.997-.28 0-.259.168-.367.372-.24.205.126.488.044.628-.183s.392-.328.559-.225c.168.103 1.129-.06 2.136-.363 1.008-.304 1.938-.445 2.068-.315s.237.026.237-.23c0-.278.648-.467 1.6-.467.88 0 1.6-.18 1.6-.4s.709-.4 1.576-.4 1.688-.18 1.824-.4 1.011-.4 1.944-.4 1.867-.166 2.076-.368c.209-.203 1.19-.414 2.18-.471.99-.056 1.982-.237 2.205-.402s1.393-.417 2.6-.56 3.455-.433 4.995-.642 5.185-.483 8.1-.608 5.3-.351 5.3-.503c0-.151.347-.275.771-.275.423 0 .694.123.602.273-.204.329 2.805.169 4.29-.228.584-.156 1.399-.104 1.81.116.468.25.996.261 1.411.029.364-.204.751-.229.858-.055.252.407 3.519.351 4.204-.073a.814.814 0 0 1 .969.122c.675.675 1.409.535 1.888-.361.331-.619.312-.781-.086-.7-.708.145-.976-29.287-.271-29.723a.53.53 0 0 0 .182-.726c-.328-.53-1.428-.598-1.428-.088 0 .197-.295.471-.657.609-.549.211-.573.152-.151-.357.425-.512.375-.609-.31-.609-.448 0-.906.225-1.017.5-.153.379-.209.382-.233.013-.031-.468-14.764-.583-26.532-.208m-46.388 11.36c-.086.256-.506.514-.934.575-.77.108-.77.103-.002-.465.941-.697 1.139-.72.936-.11m-11.141 3.37c-.305.367-.249.476.211.409.905-.133 1.61-.911.825-.911-.341 0-.807.226-1.036.502m88.819 16.583c-.404.756-.375.779.386.304.866-.541 1.093-1.122.438-1.122-.212 0-.583.368-.824.818m-85.106 16.197c-.662.751-.114.734.892-.028.546-.413.606-.582.2-.572-.317.009-.808.279-1.092.6M126.9 179.4c0 .55.168 1 .374 1 .205 0 .271-.165.147-.366s-.013-.437.247-.523c.261-.087.341-.373.179-.635-.489-.791-.947-.537-.947.524m1.367.867c-.419.418-.312 1.008.133.733.22-.136.4-.102.401.076.008 4.241.016 42.479.009 42.848-.006.293-.213.397-.472.238-.286-.177-.353-.11-.176.176.157.254.545.462.862.462s.576.191.576.424.135.346.3.252.699.243 1.186.748c.604.627.731.981.4 1.116-.316.128-.276.208.114.229.33.018 1.277.752 2.105 1.632s1.693 1.599 1.923 1.599c.231 0 .289.211.13.468q-.292.47.372.214c.477-.183.731.021.909.729.135.541.38.901.543.8.282-.174 2.018 1.555 2.018 2.008 0 .222 1.359 1.534 5.78 5.581 1.442 1.32 5.121 4.83 8.175 7.8s6.951 6.66 8.661 8.2a293 293 0 0 1 6.746 6.341c2.001 1.947 4.313 3.974 5.138 4.505s1.5 1.103 1.5 1.273.585.648 1.3 1.063c.715.416 1.446.998 1.625 1.295.178.297.473.448.654.336.182-.112.553.064.825.391.272.328.707.596.966.596.26 0 1.363.419 2.451.932 2.662 1.254 4.611 1.868 5.931 1.868.602 0 .996.16.875.357-.532.86 13.207 1.573 14.721.763.412-.22.654-.247.539-.06s.403.385 1.152.44c1.436.105 1.801-.414.717-1.021-.588-.328-.586-.382.021-.615.39-.15.564-.092.42.141-.134.217.171.392.679.389.63-.004.761-.11.411-.332-.406-.258-.489-3.853-.4-17.394.062-9.387.006-17.068-.125-17.068-.497 0-1.63 1.567-1.401 1.937.138.224-.099.3-.56.179-.479-.125-.801-.012-.801.28 0 .271-.268.387-.6.259-.421-.161-.602.034-.606.658-.005.639-.101.738-.345.353-.186-.294-.408-.503-.494-.465-.777.348-3.617.622-3.776.364-.113-.181-.461-.232-.774-.112-.483.186-3.589-1.197-4.205-1.872-.11-.121-.795-.636-1.523-1.144s-1.231-1.016-1.119-1.128-.553-.833-1.477-1.601c-.925-.768-1.741-1.557-1.814-1.752-.074-.196-.399-.356-.724-.356s-.518-.135-.43-.3-.982-1.392-2.377-2.726-2.536-2.401-2.536-2.371c0 .136-7.056-6.532-12.355-11.677-3.215-3.12-6.475-6.241-7.245-6.934s-2.436-2.235-3.703-3.426-2.512-2.166-2.767-2.166-.359-.104-.232-.232c.2-.199-2.187-2.651-6.678-6.862-.649-.608-1.337-1.057-1.53-.996-.192.06-.235-.076-.094-.303s-.058-.533-.44-.679c-.736-.283-2.156-1.571-2.156-1.957 0-.608-1.142-1.349-1.336-.867-.152.374-.209.366-.232-.033-.03-.493-1.232-1.976-1.232-1.519 0 .116-.9-.69-2-1.79s-2.003-2.217-2.006-2.481c-.004-.295-.156-.249-.394.119-.328.508-.389.488-.394-.129-.007-.904-1.061-2.008-1.598-1.676-.231.143-.298-.016-.161-.374.213-.555-.203-.796-.901-.521-.14.055-.403-.302-.585-.793-.215-.583-.544-.812-.946-.658-.916.352-2.052-.172-1.522-.702.45-.45-.698-1.947-1.493-1.947-.22 0-.4-.191-.4-.424s.225-.296.5-.141q.509.29.1-.137c-.22-.231-.76-.494-1.2-.583s-.755-.377-.7-.639c.108-.514-.4-.642-.833-.209m-3.359 40.715c.38.278.692.681.692.895 0 .215.245.39.545.39.98 0 .222-1.38-.874-1.589-.931-.179-.974-.143-.363.304m105.579 42.627c-.468.75-.446.772.304.304.445-.278.809-.642.809-.809 0-.578-.609-.301-1.113.505m-17.485 10.794c.112.181-.023.408-.3.505s-.007.18.598.184c1.278.009 1.468-.503.299-.808-.44-.115-.709-.062-.597.119M124.943 352.2c.33.33.827.6 1.105.6.283 0 .164-.258-.272-.587-1.018-.771-1.6-.78-.833-.013m3.966 17.77.091 16.66-1.4-.015c-.927-.01-1.364-.19-1.294-.532.078-.385-.085-.415-.639-.119-.519.278-.908.253-1.286-.083-.456-.404-.457-.368-.005.229.296.39.615.632.709.538s.629.066 1.188.356 1.434.451 1.946.358c.511-.092 1.059.041 1.217.297q.29.467-.274.146c-.428-.242-.419-.167.038.316.762.805 2.824 1.107 3.575.525.46-.357.524-.31.32.234-.19.509-.092.617.391.432.366-.141.542-.081.407.137-.131.212.335.428 1.035.481.699.052 1.332.27 1.405.483.074.213.569.387 1.1.387s.967.141.967.313.495.353 1.1.403 1.16.269 1.233.487c.074.219.749.397 1.5.397s1.367.142 1.367.315.582.359 1.293.413c.712.055 1.468.273 1.68.485.213.213.88.387 1.483.387s1.208.18 1.344.4.957.4 1.824.4 1.576.162 1.576.36c0 .338.581.456 5.3 1.072 1.045.137 1.9.41 1.9.608s1.001.36 2.224.36c1.38 0 2.129.152 1.976.4s.588.4 1.953.4c1.21 0 2.311.18 2.447.4s1.572.4 3.19.4c1.847 0 3 .17 3.095.456.24.718 31.38.978 32.715.272l1-.528-.105-15.128c-.104-14.985-.097-15.127.698-14.874.642.204.749.116.537-.437-.195-.508-.125-.605.264-.365.311.192.433.171.296-.051-.374-.605-5.474-.654-6.207-.06-.523.423-.58.42-.316-.018.384-.638-1.361-.516-1.897.133-.216.26-.399.233-.527-.08-.143-.349-.484-.371-1.254-.078-.582.221-1.515.28-2.073.13-1.445-.388-4.444-.54-4.243-.216.092.15-.179.273-.602.273-.424 0-.771-.124-.771-.275 0-.152-2.385-.378-5.3-.503s-6.56-.399-8.1-.608-3.788-.498-4.995-.642c-1.207-.143-2.377-.395-2.6-.56s-1.215-.346-2.205-.402-1.971-.268-2.18-.471-1.143-.368-2.076-.368-1.808-.18-1.944-.4-.957-.4-1.824-.4-1.576-.18-1.576-.4-.72-.4-1.6-.4c-.952 0-1.6-.189-1.6-.467 0-.256-.106-.36-.237-.23-.13.13-1.06-.011-2.068-.315-1.007-.303-1.968-.466-2.136-.363-.167.103-.419.002-.559-.225s-.423-.309-.628-.183c-.204.127-.372.019-.372-.24 0-.286-.392-.395-.997-.28-.549.105-1.19-.041-1.426-.325s-.777-.449-1.203-.367-.774-.021-.774-.228-.439-.377-.976-.377-1.088-.18-1.224-.4-.777-.4-1.424-.4-1.176-.18-1.176-.4-.27-.4-.6-.4-.6-.18-.6-.4-.445-.4-.988-.4-1.605-.347-2.36-.771c-.754-.423-1.705-.717-2.112-.651-1.038.166-1.529-.204-.883-.666.42-.3.392-.339-.128-.174-.369.118-.886-.045-1.149-.362-.719-.867-1.263-.693-1.011.324.123.495.12.674-.007.398-.127-.277-.375-.414-.551-.305s-.296-.111-.266-.49c.036-.448-.256-.706-.836-.74l-.892-.053Zm82.991-2.105c.275.111.503.502.506.868.005.561.065.574.374.086.464-.733.171-1.228-.704-1.187-.416.019-.484.109-.176.233m-90.756 17.039c.246.246.743.491 1.104.544.485.071.539-.021.208-.352-.246-.246-.743-.491-1.104-.544-.485-.071-.539.021-.208.352m11.181 3.47c.13.392-.02.403-.679.051-1.021-.547-1.084-.789-.168-.655.373.055.754.327.847.604"/></g></svg>