<svg xmlns="http://www.w3.org/2000/svg" xmlns:xlink="http://www.w3.org/1999/xlink" id="svg" version="1.1" width="400" height="400" viewBox="0, 0, 400,400"><g id="svgg"><path id="path0" d="M209.051 0.588 C 209.180 0.925,209.084 1.200,208.838 1.200 C 208.514 1.200,208.419 5.313,208.495 16.100 C 208.579 28.028,208.703 30.979,209.117 30.894 C 209.501 30.816,209.532 30.979,209.239 31.528 C 208.873 32.210,209.046 32.271,211.483 32.315 C 212.935 32.341,214.311 32.551,214.541 32.781 C 215.084 33.324,216.000 33.321,216.000 32.776 C 216.000 32.543,215.792 32.481,215.538 32.638 C 215.243 32.820,215.185 32.747,215.378 32.436 C 215.607 32.065,215.845 32.098,216.371 32.574 C 216.843 33.001,217.855 33.200,219.555 33.200 C 220.966 33.200,221.949 33.359,221.820 33.567 C 221.696 33.769,222.809 34.028,224.297 34.143 C 227.940 34.425,230.516 34.827,231.000 35.189 C 231.220 35.354,232.084 35.509,232.920 35.533 C 233.756 35.557,234.637 35.699,234.879 35.849 C 235.121 35.999,236.049 36.187,236.940 36.267 C 237.831 36.347,238.660 36.549,238.780 36.715 C 238.901 36.881,239.630 37.076,240.400 37.147 C 241.170 37.218,241.980 37.407,242.200 37.566 C 242.420 37.725,243.410 38.089,244.400 38.374 C 245.390 38.659,246.692 39.072,247.293 39.292 C 247.894 39.511,248.659 39.586,248.993 39.458 C 249.327 39.330,249.600 39.393,249.600 39.597 C 249.600 39.897,252.157 40.856,253.267 40.972 C 253.413 40.987,253.668 41.135,253.833 41.300 C 253.998 41.465,254.543 41.600,255.043 41.600 C 255.543 41.600,256.064 41.780,256.200 42.000 C 256.336 42.220,256.887 42.400,257.424 42.400 C 257.961 42.400,258.400 42.580,258.400 42.800 C 258.400 43.020,258.762 43.200,259.205 43.200 C 259.648 43.200,260.368 43.380,260.805 43.600 C 261.242 43.820,261.958 44.180,262.395 44.400 C 262.832 44.620,263.462 44.800,263.795 44.800 C 264.128 44.800,264.400 44.980,264.400 45.200 C 264.400 45.420,264.760 45.600,265.200 45.600 C 265.640 45.600,266.000 45.780,266.000 46.000 C 266.000 46.220,266.360 46.400,266.800 46.400 C 267.240 46.400,267.600 46.591,267.600 46.824 C 267.600 47.057,267.765 47.145,267.968 47.020 C 268.170 46.895,268.607 47.064,268.939 47.396 C 269.271 47.728,270.006 48.000,270.571 48.000 C 271.137 48.000,271.600 48.180,271.600 48.400 C 271.600 48.620,271.960 48.800,272.400 48.800 C 272.840 48.800,273.200 48.980,273.200 49.200 C 273.200 49.420,273.461 49.600,273.780 49.600 C 274.099 49.600,275.134 50.110,276.080 50.733 C 277.026 51.356,278.383 52.097,279.095 52.379 C 279.807 52.662,280.289 53.056,280.165 53.256 C 280.042 53.456,280.097 53.570,280.289 53.510 C 280.730 53.371,284.125 55.096,285.098 55.954 C 285.501 56.309,286.094 56.659,286.416 56.732 C 286.737 56.804,287.270 57.082,287.600 57.349 C 287.930 57.616,288.695 58.082,289.300 58.385 C 289.905 58.688,290.400 59.085,290.400 59.268 C 290.400 59.450,290.760 59.600,291.200 59.600 C 291.640 59.600,292.000 59.780,292.000 60.000 C 292.000 60.220,292.270 60.400,292.600 60.400 C 292.930 60.400,293.200 60.552,293.200 60.737 C 293.200 60.923,294.055 61.508,295.100 62.037 C 296.145 62.567,297.060 63.135,297.133 63.300 C 297.207 63.465,297.792 63.600,298.433 63.600 C 299.075 63.600,299.600 63.780,299.600 64.000 C 299.600 64.531,307.472 64.531,307.800 64.000 C 307.936 63.780,308.577 63.600,309.224 63.600 C 309.871 63.600,310.400 63.420,310.400 63.200 C 310.400 62.980,310.760 62.800,311.200 62.800 C 311.640 62.800,312.000 62.620,312.000 62.400 C 312.000 62.180,312.270 62.000,312.600 62.000 C 313.325 62.000,317.173 58.183,317.968 56.676 C 318.280 56.084,318.685 55.600,318.868 55.600 C 319.050 55.600,319.200 55.161,319.200 54.624 C 319.200 54.087,319.380 53.536,319.600 53.400 C 319.832 53.257,320.000 51.070,320.000 48.200 C 320.000 45.330,319.832 43.143,319.600 43.000 C 319.380 42.864,319.200 42.403,319.200 41.976 C 319.200 41.549,319.020 41.200,318.800 41.200 C 318.580 41.200,318.400 40.880,318.400 40.488 C 318.400 40.097,318.050 39.524,317.621 39.215 C 317.193 38.907,316.924 38.523,317.024 38.362 C 317.256 37.986,314.207 34.800,313.615 34.800 C 313.368 34.800,312.780 34.440,312.308 34.000 C 311.836 33.560,311.213 33.200,310.925 33.200 C 310.636 33.200,310.400 32.990,310.400 32.733 C 310.400 32.477,310.289 32.378,310.152 32.514 C 310.016 32.650,309.662 32.545,309.366 32.281 C 308.087 31.138,307.613 30.800,307.292 30.800 C 307.105 30.800,306.557 30.433,306.075 29.984 C 305.594 29.536,305.200 29.270,305.200 29.394 C 305.200 29.736,303.093 28.323,302.300 27.449 C 301.915 27.025,301.597 26.840,301.594 27.039 C 301.591 27.237,301.456 27.220,301.294 27.000 C 300.811 26.343,298.532 25.201,298.256 25.477 C 298.115 25.618,298.000 25.523,298.000 25.267 C 298.000 25.010,297.640 24.800,297.200 24.800 C 296.760 24.800,296.400 24.620,296.400 24.400 C 296.400 24.180,296.040 24.000,295.600 24.000 C 295.160 24.000,294.800 23.820,294.800 23.600 C 294.800 23.380,294.440 23.200,294.000 23.200 C 293.560 23.200,293.200 23.020,293.200 22.800 C 293.200 22.580,292.922 22.400,292.583 22.400 C 292.244 22.400,291.606 22.064,291.166 21.654 C 290.725 21.243,289.518 20.504,288.482 20.010 C 287.447 19.516,286.287 18.952,285.905 18.756 C 285.523 18.560,284.938 18.400,284.605 18.400 C 284.272 18.400,284.000 18.220,284.000 18.000 C 284.000 17.780,283.640 17.600,283.200 17.600 C 282.760 17.600,282.400 17.420,282.400 17.200 C 282.400 16.980,282.051 16.800,281.624 16.800 C 281.197 16.800,280.734 16.617,280.596 16.393 C 280.458 16.170,280.204 16.074,280.031 16.181 C 279.859 16.287,279.376 16.116,278.959 15.800 C 278.542 15.484,277.885 15.220,277.500 15.213 C 277.115 15.206,276.800 15.020,276.800 14.800 C 276.800 14.580,276.485 14.399,276.100 14.399 C 275.715 14.398,274.811 14.038,274.090 13.599 C 273.370 13.159,272.436 12.800,272.014 12.800 C 271.592 12.800,271.136 12.620,271.000 12.400 C 270.864 12.180,270.418 12.000,270.010 12.000 C 269.601 12.000,269.207 11.828,269.133 11.618 C 269.060 11.407,268.325 11.190,267.500 11.136 C 266.675 11.081,266.000 10.893,266.000 10.718 C 266.000 10.543,265.752 10.400,265.449 10.400 C 265.146 10.400,264.201 10.097,263.349 9.726 C 262.497 9.356,261.589 9.091,261.330 9.137 C 261.072 9.183,260.746 9.036,260.607 8.811 C 260.467 8.585,259.733 8.400,258.976 8.400 C 258.219 8.400,257.600 8.220,257.600 8.000 C 257.600 7.780,256.959 7.600,256.176 7.600 C 255.329 7.600,254.853 7.438,255.000 7.200 C 255.151 6.956,254.537 6.800,253.424 6.800 C 252.421 6.800,251.600 6.620,251.600 6.400 C 251.600 6.180,250.869 6.000,249.976 6.000 C 248.996 6.000,248.451 5.842,248.600 5.600 C 248.743 5.369,248.364 5.200,247.704 5.200 C 247.075 5.200,246.318 4.975,246.021 4.700 C 245.584 4.294,245.542 4.312,245.800 4.800 C 246.058 5.288,246.016 5.306,245.579 4.900 C 245.282 4.625,244.446 4.400,243.720 4.400 C 242.994 4.400,242.400 4.254,242.400 4.075 C 242.400 3.896,241.549 3.705,240.509 3.652 C 239.469 3.598,238.524 3.408,238.409 3.230 C 238.218 2.935,237.188 2.772,231.500 2.135 C 230.455 2.019,229.686 1.784,229.791 1.614 C 229.896 1.444,228.507 1.274,226.704 1.235 C 224.901 1.197,223.330 1.011,223.213 0.823 C 222.783 0.132,208.787 -0.100,209.051 0.588 M211.200 31.157 C 211.200 31.354,210.930 31.618,210.600 31.745 C 209.990 31.979,209.781 31.553,210.267 31.067 C 210.649 30.684,211.200 30.738,211.200 31.157 M378.540 32.020 C 378.308 32.252,377.732 32.470,377.260 32.505 C 376.787 32.541,376.400 32.712,376.400 32.885 C 376.400 33.058,376.080 33.200,375.688 33.200 C 375.297 33.200,374.717 33.560,374.400 34.000 C 374.083 34.440,373.648 34.800,373.434 34.800 C 372.955 34.800,370.800 36.825,370.800 37.274 C 370.800 37.453,370.080 38.341,369.200 39.248 C 368.320 40.155,367.600 41.063,367.600 41.266 C 367.600 41.469,366.976 42.303,366.212 43.118 C 362.990 46.560,362.000 47.695,362.000 47.948 C 362.000 48.095,361.243 49.087,360.317 50.152 C 359.391 51.217,358.600 52.319,358.559 52.599 C 358.518 52.880,357.565 54.049,356.442 55.196 C 355.319 56.343,354.400 57.454,354.400 57.666 C 354.400 57.878,353.860 58.506,353.200 59.061 C 352.540 59.617,352.000 60.336,352.000 60.659 C 352.000 60.983,351.820 61.136,351.600 61.000 C 351.380 60.864,351.200 61.033,351.200 61.376 C 351.200 61.719,351.020 62.000,350.800 62.000 C 350.580 62.000,350.400 62.281,350.400 62.624 C 350.400 62.967,350.220 63.136,350.000 63.000 C 349.780 62.864,349.600 63.044,349.600 63.400 C 349.600 63.756,349.420 63.936,349.200 63.800 C 348.980 63.664,348.800 63.833,348.800 64.176 C 348.800 64.519,348.080 65.541,347.200 66.448 C 346.320 67.355,345.600 68.245,345.600 68.428 C 345.600 68.610,345.153 69.263,344.606 69.879 C 342.861 71.848,342.600 72.176,342.610 72.390 C 342.624 72.671,341.681 73.818,340.100 75.440 C 339.385 76.173,338.800 76.878,338.800 77.005 C 338.800 77.132,338.395 77.656,337.900 78.168 C 336.637 79.475,335.600 80.768,335.600 81.036 C 335.600 81.161,334.880 81.954,334.000 82.800 C 333.120 83.646,332.400 84.546,332.400 84.800 C 332.400 85.054,331.725 85.928,330.900 86.741 C 330.075 87.553,329.351 88.452,329.291 88.737 C 329.231 89.021,328.781 89.675,328.291 90.190 C 327.801 90.704,327.040 91.592,326.600 92.163 C 326.160 92.734,325.215 93.866,324.500 94.679 C 323.785 95.491,323.200 96.402,323.200 96.702 C 323.200 97.002,323.020 97.136,322.800 97.000 C 322.580 96.864,322.400 96.943,322.400 97.175 C 322.400 97.408,321.770 98.266,321.000 99.082 C 320.230 99.899,319.600 100.701,319.600 100.865 C 319.600 101.029,319.150 101.614,318.600 102.164 C 318.050 102.714,317.600 103.362,317.600 103.605 C 317.600 103.848,317.420 103.936,317.200 103.800 C 316.980 103.664,316.800 103.833,316.800 104.176 C 316.800 104.519,316.620 104.800,316.400 104.800 C 316.180 104.800,316.000 104.998,316.000 105.240 C 316.000 105.481,315.460 106.183,314.800 106.800 C 314.140 107.417,313.599 108.074,313.598 108.260 C 313.597 108.447,313.096 109.140,312.484 109.800 C 311.872 110.460,310.840 111.720,310.190 112.600 C 309.541 113.480,308.703 114.481,308.329 114.825 C 307.956 115.169,307.594 115.705,307.525 116.016 C 307.456 116.327,306.725 117.247,305.900 118.059 C 305.075 118.872,304.400 119.832,304.400 120.192 C 304.400 120.552,304.220 120.736,304.000 120.600 C 303.780 120.464,303.600 120.543,303.600 120.776 C 303.600 121.009,302.880 121.941,302.000 122.848 C 301.120 123.755,300.400 124.733,300.400 125.021 C 300.400 125.310,300.040 125.660,299.600 125.800 C 299.160 125.940,298.800 126.222,298.800 126.427 C 298.800 126.850,298.376 127.382,295.813 130.179 C 294.816 131.268,294.000 132.393,294.000 132.679 C 294.000 132.966,293.809 133.200,293.576 133.200 C 293.343 133.200,293.264 133.380,293.400 133.600 C 293.536 133.820,293.370 134.000,293.031 134.000 C 292.692 134.000,292.301 134.455,292.162 135.011 C 292.022 135.566,291.569 136.203,291.154 136.425 C 290.739 136.647,290.400 137.020,290.400 137.254 C 290.400 137.488,289.841 138.201,289.158 138.840 C 288.474 139.478,288.069 140.005,288.258 140.012 C 288.446 140.019,288.285 140.208,287.900 140.432 C 287.515 140.656,287.200 141.029,287.200 141.259 C 287.200 141.490,286.660 142.183,286.000 142.800 C 285.340 143.417,284.800 144.029,284.800 144.160 C 284.800 144.292,284.082 145.139,283.204 146.044 C 282.326 146.949,281.709 147.853,281.834 148.054 C 281.958 148.255,281.829 148.370,281.548 148.310 C 281.267 148.249,281.028 148.410,281.018 148.666 C 281.008 148.923,280.619 149.463,280.154 149.866 C 279.689 150.270,278.785 151.426,278.146 152.435 C 277.506 153.444,276.491 154.724,275.891 155.281 C 275.291 155.837,274.800 156.503,274.800 156.762 C 274.800 157.020,274.080 157.917,273.200 158.754 C 272.320 159.591,271.600 160.604,271.600 161.005 C 271.600 161.405,271.483 161.617,271.340 161.474 C 271.068 161.201,269.201 163.164,269.200 163.724 C 269.200 163.902,268.989 163.917,268.732 163.758 C 268.423 163.567,268.346 163.682,268.506 164.098 C 268.656 164.491,268.387 164.998,267.787 165.449 C 267.259 165.845,266.614 166.684,266.354 167.312 C 266.007 168.148,265.791 168.313,265.546 167.927 C 265.304 167.544,265.211 167.622,265.206 168.212 C 265.203 168.658,264.840 169.283,264.400 169.600 C 263.960 169.917,263.600 170.417,263.600 170.712 C 263.600 171.006,263.465 171.165,263.300 171.066 C 262.895 170.820,262.183 171.663,262.192 172.376 C 262.196 172.693,261.345 173.794,260.300 174.823 C 259.255 175.851,258.400 176.805,258.400 176.942 C 258.400 177.187,257.484 178.379,256.500 179.416 C 256.225 179.706,256.000 180.146,256.000 180.395 C 256.000 180.644,255.820 180.736,255.600 180.600 C 255.380 180.464,255.200 180.633,255.200 180.976 C 255.200 181.319,255.020 181.600,254.800 181.600 C 254.580 181.600,254.400 181.881,254.400 182.224 C 254.400 182.567,254.265 182.765,254.100 182.666 C 253.935 182.566,253.568 182.735,253.284 183.042 C 252.863 183.497,252.863 183.605,253.284 183.625 C 253.568 183.639,253.395 183.813,252.900 184.012 C 252.405 184.211,252.000 184.610,252.000 184.899 C 252.000 185.187,251.650 185.676,251.221 185.985 C 250.793 186.293,250.534 186.693,250.645 186.873 C 250.756 187.053,250.567 187.200,250.224 187.200 C 249.881 187.200,249.600 187.443,249.600 187.741 C 249.600 188.038,249.074 188.832,248.431 189.505 C 247.788 190.178,247.368 190.834,247.497 190.964 C 247.627 191.094,247.433 191.200,247.067 191.200 C 246.700 191.200,246.400 191.369,246.400 191.575 C 246.400 191.782,245.860 192.542,245.200 193.264 C 244.540 193.987,244.000 194.716,244.000 194.885 C 244.000 195.203,243.104 196.388,241.900 197.660 C 241.515 198.067,241.200 198.591,241.200 198.824 C 241.200 199.057,241.047 199.153,240.860 199.037 C 240.673 198.922,240.268 199.311,239.960 199.903 C 239.652 200.495,238.725 201.680,237.900 202.538 C 237.075 203.395,236.400 204.345,236.400 204.648 C 236.400 204.952,236.232 205.200,236.027 205.200 C 235.822 205.200,235.540 205.560,235.400 206.000 C 235.260 206.440,234.858 206.800,234.506 206.800 C 234.155 206.800,233.976 206.909,234.109 207.042 C 234.242 207.175,233.912 207.691,233.375 208.188 C 232.839 208.685,232.400 209.326,232.400 209.613 C 232.400 209.899,232.283 210.016,232.140 209.873 C 231.823 209.556,230.830 210.794,230.813 211.529 C 230.799 212.109,230.381 212.568,228.646 213.909 C 228.000 214.408,227.736 214.811,228.046 214.825 C 228.351 214.839,228.176 215.020,227.658 215.228 C 227.038 215.476,226.797 215.816,226.954 216.223 C 227.089 216.577,227.022 216.737,226.795 216.597 C 226.578 216.463,226.400 216.536,226.400 216.760 C 226.400 216.983,225.680 217.923,224.800 218.848 C 223.920 219.773,223.200 220.872,223.200 221.289 C 223.200 221.706,223.020 221.936,222.800 221.800 C 222.580 221.664,222.400 221.863,222.400 222.243 C 222.400 222.623,222.289 222.822,222.152 222.686 C 221.842 222.376,220.800 223.385,220.800 223.995 C 220.800 224.244,220.592 224.319,220.338 224.162 C 220.073 223.998,219.984 224.051,220.130 224.287 C 220.428 224.769,219.040 226.506,218.659 226.126 C 218.517 225.983,218.400 226.062,218.400 226.300 C 218.400 226.538,218.625 226.824,218.900 226.935 C 219.199 227.056,219.118 227.150,218.700 227.168 C 218.315 227.186,218.000 227.380,218.000 227.600 C 218.000 227.820,217.719 228.000,217.376 228.000 C 217.033 228.000,216.865 228.181,217.002 228.403 C 217.139 228.624,216.969 228.914,216.625 229.046 C 216.281 229.178,216.000 229.547,216.000 229.866 C 216.000 230.186,215.856 230.358,215.680 230.249 C 215.504 230.141,215.115 230.445,214.816 230.926 C 214.300 231.754,214.312 231.768,215.036 231.200 C 215.742 230.645,215.758 230.653,215.251 231.300 C 214.949 231.685,214.454 232.000,214.151 232.000 C 213.848 232.000,213.621 232.135,213.647 232.300 C 213.757 232.996,213.582 233.715,213.357 233.491 C 212.955 233.088,212.084 234.154,212.318 234.764 C 212.447 235.099,212.362 235.224,212.112 235.069 C 211.878 234.925,211.366 235.300,210.974 235.903 C 210.351 236.861,210.345 236.930,210.930 236.451 C 211.354 236.104,211.600 236.064,211.600 236.343 C 211.600 236.586,211.139 236.900,210.576 237.042 C 210.013 237.183,209.634 237.513,209.735 237.774 C 209.835 238.035,209.396 238.598,208.760 239.025 C 208.123 239.451,207.602 240.033,207.601 240.317 C 207.600 241.051,206.365 242.250,205.260 242.590 C 204.555 242.807,204.434 242.994,204.776 243.336 C 205.119 243.679,205.319 243.654,205.576 243.238 C 205.771 242.924,206.206 242.793,206.580 242.937 C 206.990 243.094,207.143 243.031,206.982 242.770 C 206.738 242.376,207.842 240.800,208.362 240.800 C 208.493 240.800,208.549 248.481,208.487 257.868 C 208.398 271.409,208.481 275.004,208.887 275.262 C 209.237 275.484,209.106 275.590,208.476 275.594 C 207.968 275.597,207.663 275.422,207.797 275.205 C 207.939 274.976,207.773 274.912,207.404 275.054 C 207.053 275.189,206.818 275.324,206.883 275.354 C 206.947 275.384,207.436 275.767,207.969 276.204 C 208.502 276.642,208.806 276.775,208.645 276.500 C 208.437 276.144,208.717 276.000,209.619 276.000 C 210.468 276.000,210.822 275.835,210.694 275.500 C 210.559 275.150,210.965 275.009,212.043 275.031 C 213.372 275.058,213.516 274.979,213.092 274.454 C 212.691 273.959,212.703 273.909,213.158 274.182 C 214.319 274.882,218.400 274.080,218.400 273.151 C 218.400 272.958,218.749 272.800,219.176 272.800 C 219.603 272.800,220.066 272.617,220.204 272.393 C 220.342 272.170,220.623 272.091,220.828 272.217 C 221.032 272.344,221.200 272.177,221.200 271.847 C 221.200 271.517,221.408 271.119,221.662 270.962 C 221.971 270.771,222.014 270.854,221.792 271.213 C 221.609 271.509,222.301 271.132,223.330 270.375 C 224.359 269.619,225.605 268.778,226.100 268.506 C 226.671 268.193,226.780 268.007,226.400 268.000 C 225.880 267.989,225.878 267.939,226.381 267.620 C 226.700 267.418,227.060 267.307,227.181 267.374 C 227.439 267.516,228.974 265.981,229.155 265.400 C 229.224 265.180,229.442 265.045,229.640 265.100 C 229.838 265.155,230.000 264.919,230.000 264.576 C 230.000 264.233,230.184 264.067,230.410 264.206 C 230.635 264.345,230.794 264.311,230.763 264.130 C 230.612 263.265,230.859 262.800,231.467 262.800 C 231.833 262.800,232.029 262.696,231.903 262.569 C 231.776 262.442,232.222 261.812,232.895 261.169 C 233.568 260.526,233.988 260.000,233.829 260.000 C 233.669 260.000,234.100 259.528,234.786 258.950 C 235.472 258.373,235.949 257.816,235.846 257.713 C 235.743 257.609,236.270 256.987,237.018 256.330 C 237.766 255.673,238.346 255.015,238.305 254.868 C 238.265 254.721,238.674 254.091,239.216 253.469 C 239.757 252.846,240.695 251.771,241.300 251.079 C 241.905 250.388,242.400 249.668,242.400 249.479 C 242.400 249.291,243.120 248.403,244.000 247.505 C 244.880 246.607,245.600 245.666,245.600 245.413 C 245.600 245.159,246.316 244.333,247.191 243.576 C 248.066 242.819,248.786 241.975,248.791 241.700 C 248.796 241.425,248.980 241.200,249.200 241.200 C 249.420 241.200,249.600 240.942,249.600 240.627 C 249.600 240.312,249.973 239.936,250.429 239.791 C 250.927 239.633,251.172 239.303,251.041 238.964 C 250.916 238.636,251.071 238.400,251.413 238.400 C 251.736 238.400,251.955 238.258,251.900 238.085 C 251.845 237.912,252.295 237.273,252.900 236.667 C 253.505 236.060,254.000 235.291,254.000 234.958 C 254.000 234.625,254.180 234.464,254.400 234.600 C 254.620 234.736,254.800 234.684,254.800 234.485 C 254.800 234.285,255.171 233.690,255.624 233.161 C 256.078 232.633,256.798 231.794,257.224 231.297 C 257.651 230.800,258.000 230.215,258.000 229.997 C 258.000 229.779,258.180 229.600,258.400 229.600 C 258.620 229.600,258.800 229.402,258.800 229.160 C 258.800 228.919,259.340 228.217,260.000 227.600 C 260.660 226.983,261.200 226.271,261.200 226.016 C 261.200 225.761,261.384 225.667,261.610 225.806 C 261.835 225.945,261.994 225.911,261.963 225.730 C 261.816 224.886,262.063 224.434,262.800 224.200 C 263.240 224.060,263.600 223.780,263.600 223.578 C 263.600 223.230,264.383 222.161,265.500 220.984 C 265.775 220.694,266.000 220.330,266.000 220.174 C 266.000 220.019,266.405 219.506,266.900 219.033 C 267.395 218.561,268.250 217.565,268.800 216.818 C 269.350 216.072,270.213 215.043,270.718 214.531 C 271.223 214.019,271.504 213.600,271.343 213.600 C 271.181 213.600,271.398 213.266,271.825 212.857 C 273.093 211.642,274.400 210.018,274.400 209.656 C 274.400 209.471,274.940 208.754,275.600 208.063 C 276.260 207.372,276.800 206.704,276.800 206.578 C 276.800 206.451,277.712 205.460,278.827 204.374 C 279.941 203.288,280.647 202.400,280.395 202.400 C 280.143 202.400,280.669 201.675,281.564 200.789 C 282.459 199.903,283.445 198.688,283.755 198.089 C 284.066 197.490,284.884 196.498,285.574 195.884 C 286.264 195.271,286.718 194.591,286.584 194.375 C 286.450 194.158,286.489 194.030,286.670 194.090 C 286.852 194.151,287.006 194.110,287.013 194.000 C 287.021 193.890,287.507 193.260,288.093 192.600 C 291.149 189.161,291.600 188.575,291.600 188.044 C 291.600 187.727,291.719 187.586,291.865 187.731 C 292.010 187.877,292.584 187.322,293.140 186.498 C 293.696 185.674,294.657 184.523,295.275 183.940 C 295.894 183.356,296.400 182.673,296.400 182.420 C 296.400 182.168,297.255 181.093,298.300 180.032 C 299.345 178.970,300.251 177.879,300.314 177.608 C 300.377 177.336,300.705 176.838,301.042 176.501 C 301.379 176.164,301.932 175.465,302.271 174.947 C 302.610 174.430,303.048 174.106,303.244 174.227 C 303.440 174.348,303.600 174.199,303.600 173.896 C 303.600 173.592,304.005 172.980,304.500 172.534 C 304.995 172.089,305.670 171.319,306.000 170.825 C 306.557 169.990,307.408 168.884,308.393 167.717 C 308.617 167.451,308.800 167.046,308.800 166.817 C 308.800 166.588,308.980 166.400,309.200 166.400 C 309.420 166.400,309.600 166.206,309.600 165.969 C 309.600 165.731,310.320 164.846,311.200 164.000 C 312.080 163.154,312.800 162.267,312.800 162.028 C 312.800 161.788,313.340 161.028,314.000 160.337 C 314.660 159.646,315.200 158.917,315.200 158.717 C 315.200 158.517,315.380 158.464,315.600 158.600 C 315.820 158.736,316.000 158.575,316.000 158.242 C 316.000 157.545,317.839 155.573,318.176 155.909 C 318.299 156.032,318.400 155.925,318.400 155.671 C 318.400 155.241,319.109 154.239,320.300 152.984 C 320.575 152.694,320.800 152.264,320.800 152.029 C 320.800 151.793,320.941 151.600,321.114 151.600 C 321.286 151.600,321.728 151.105,322.095 150.500 C 322.462 149.895,323.311 148.825,323.981 148.122 C 324.651 147.419,325.200 146.553,325.200 146.198 C 325.200 145.843,325.380 145.664,325.600 145.800 C 325.820 145.936,326.000 145.851,326.000 145.610 C 326.000 145.370,326.585 144.576,327.300 143.845 C 329.015 142.094,330.784 139.881,330.793 139.476 C 330.797 139.298,330.980 139.264,331.200 139.400 C 331.420 139.536,331.600 139.412,331.600 139.124 C 331.601 138.836,332.071 138.060,332.645 137.400 C 333.220 136.740,334.164 135.575,334.745 134.811 C 335.325 134.047,336.475 132.698,337.300 131.813 C 338.125 130.928,338.800 130.064,338.800 129.892 C 338.800 129.719,339.376 128.946,340.079 128.173 C 340.782 127.400,341.395 126.514,341.441 126.204 C 341.535 125.559,343.426 123.559,343.690 123.824 C 343.787 123.920,344.120 123.504,344.430 122.899 C 344.740 122.295,345.311 121.509,345.697 121.153 C 346.084 120.797,346.400 120.292,346.400 120.029 C 346.400 119.767,346.553 119.647,346.740 119.763 C 346.927 119.878,347.332 119.489,347.640 118.897 C 347.948 118.305,348.875 117.120,349.700 116.262 C 350.525 115.405,351.200 114.527,351.200 114.312 C 351.200 114.096,351.830 113.290,352.600 112.520 C 353.370 111.750,354.003 111.003,354.006 110.860 C 354.010 110.717,354.727 109.790,355.600 108.800 C 356.473 107.810,357.190 106.860,357.194 106.689 C 357.197 106.519,358.010 105.569,359.000 104.579 C 359.990 103.589,360.800 102.601,360.800 102.383 C 360.800 102.166,361.610 101.155,362.600 100.136 C 363.590 99.117,364.400 98.112,364.400 97.902 C 364.400 97.693,364.940 97.017,365.600 96.400 C 366.260 95.783,366.800 95.071,366.800 94.816 C 366.800 94.561,366.980 94.464,367.200 94.600 C 367.420 94.736,367.600 94.552,367.600 94.192 C 367.600 93.832,368.301 92.843,369.159 91.994 C 370.016 91.145,370.637 90.370,370.538 90.271 C 370.439 90.172,370.817 89.730,371.379 89.288 C 371.941 88.846,372.400 88.364,372.400 88.216 C 372.400 87.804,374.463 85.130,375.699 83.940 C 376.304 83.356,376.800 82.682,376.800 82.442 C 376.800 82.201,377.700 81.085,378.800 79.961 C 379.900 78.838,380.800 77.756,380.800 77.556 C 380.800 77.356,381.360 76.609,382.043 75.896 C 382.727 75.183,383.838 73.835,384.511 72.900 C 385.185 71.965,385.885 71.200,386.068 71.200 C 386.251 71.200,386.400 71.020,386.400 70.801 C 386.400 70.581,387.030 69.734,387.800 68.918 C 388.570 68.101,389.200 67.190,389.200 66.893 C 389.200 66.596,389.380 66.464,389.600 66.600 C 389.820 66.736,390.000 66.684,390.000 66.485 C 390.000 66.167,390.307 65.738,391.938 63.775 C 392.133 63.541,392.517 62.929,392.792 62.416 C 393.066 61.902,393.856 60.902,394.546 60.194 C 396.339 58.352,397.200 57.250,397.200 56.795 C 397.200 56.578,397.380 56.400,397.600 56.400 C 397.820 56.400,398.000 56.029,398.000 55.576 C 398.000 55.123,398.180 54.864,398.400 55.000 C 398.633 55.144,398.800 54.737,398.800 54.024 C 398.800 53.351,398.980 52.800,399.200 52.800 C 399.445 52.800,399.600 50.867,399.600 47.800 C 399.600 44.733,399.445 42.800,399.200 42.800 C 398.980 42.800,398.800 42.361,398.800 41.824 C 398.800 41.287,398.620 40.736,398.400 40.600 C 398.180 40.464,398.000 40.043,398.000 39.665 C 398.000 39.286,397.640 38.717,397.200 38.400 C 396.760 38.083,396.400 37.627,396.400 37.387 C 396.400 36.808,394.287 34.800,393.678 34.800 C 393.415 34.800,393.200 34.642,393.200 34.449 C 393.200 34.255,392.660 33.873,392.000 33.600 C 391.340 33.327,390.800 32.945,390.800 32.751 C 390.800 32.558,390.361 32.400,389.824 32.400 C 389.287 32.400,388.736 32.220,388.600 32.000 C 388.264 31.457,379.084 31.476,378.540 32.020 M182.000 32.800 C 181.045 33.106,181.057 33.122,182.276 33.160 C 182.978 33.182,183.664 33.020,183.800 32.800 C 184.084 32.340,183.436 32.340,182.000 32.800 M372.600 138.400 C 372.464 138.620,372.003 138.800,371.576 138.800 C 371.149 138.800,370.800 138.980,370.800 139.200 C 370.800 139.420,370.440 139.600,370.000 139.600 C 369.560 139.600,369.200 139.780,369.200 140.000 C 369.200 140.220,368.933 140.400,368.607 140.400 C 367.915 140.400,364.400 143.657,364.400 144.298 C 364.400 144.537,364.257 144.793,364.081 144.867 C 363.592 145.071,362.000 148.688,362.000 149.596 C 362.000 150.038,361.806 150.400,361.570 150.400 C 361.048 150.400,361.302 155.542,361.986 158.800 C 362.239 160.010,362.545 161.765,362.664 162.700 C 362.783 163.635,363.042 164.400,363.240 164.400 C 363.438 164.400,363.600 165.084,363.600 165.920 C 363.600 166.756,363.770 167.611,363.977 167.820 C 364.185 168.029,364.397 169.155,364.450 170.321 C 364.502 171.488,364.692 172.533,364.872 172.645 C 365.053 172.756,365.200 173.927,365.200 175.247 C 365.200 176.745,365.350 177.554,365.600 177.400 C 365.855 177.242,366.000 178.455,366.000 180.753 C 366.000 182.733,366.180 184.464,366.400 184.600 C 366.643 184.750,366.800 187.680,366.800 192.050 C 366.800 196.522,366.967 199.564,367.240 200.075 C 367.560 200.672,367.560 200.822,367.240 200.625 C 366.926 200.431,366.800 202.471,366.800 207.743 C 366.800 212.041,366.641 215.189,366.421 215.267 C 366.212 215.340,366.008 216.975,365.966 218.900 C 365.925 220.825,365.768 222.400,365.617 222.400 C 365.466 222.400,365.301 223.345,365.249 224.500 C 365.197 225.655,364.985 226.771,364.777 226.980 C 364.570 227.189,364.400 228.213,364.400 229.256 C 364.400 230.299,364.220 231.264,364.000 231.400 C 363.780 231.536,363.600 232.537,363.600 233.624 C 363.600 234.711,363.420 235.600,363.200 235.600 C 362.980 235.600,362.800 236.305,362.800 237.167 C 362.800 238.028,362.628 238.793,362.418 238.867 C 362.207 238.940,361.990 239.675,361.936 240.500 C 361.881 241.325,361.693 242.000,361.518 242.000 C 361.343 242.000,361.200 242.462,361.200 243.026 C 361.200 243.591,361.038 244.356,360.841 244.726 C 360.643 245.097,360.419 245.940,360.343 246.600 C 360.267 247.260,359.988 248.237,359.723 248.771 C 359.458 249.306,359.332 249.891,359.444 250.071 C 359.556 250.252,359.462 250.400,359.236 250.400 C 359.010 250.400,358.922 250.652,359.040 250.960 C 359.158 251.267,359.062 251.638,358.827 251.783 C 358.592 251.928,358.400 252.577,358.400 253.224 C 358.400 253.871,358.220 254.400,358.000 254.400 C 357.780 254.400,357.600 254.940,357.600 255.600 C 357.600 256.260,357.420 256.800,357.200 256.800 C 356.980 256.800,356.800 257.340,356.800 258.000 C 356.800 258.660,356.620 259.200,356.400 259.200 C 356.180 259.200,356.000 259.560,356.000 260.000 C 356.000 260.440,355.820 260.800,355.600 260.800 C 355.380 260.800,355.200 261.250,355.200 261.800 C 355.200 262.350,355.020 262.800,354.800 262.800 C 354.580 262.800,354.400 263.160,354.400 263.600 C 354.400 264.040,354.220 264.400,354.000 264.400 C 353.780 264.400,353.600 264.749,353.600 265.176 C 353.600 265.603,353.420 266.064,353.200 266.200 C 352.980 266.336,352.800 266.887,352.800 267.424 C 352.800 267.961,352.620 268.400,352.400 268.400 C 352.180 268.400,352.000 268.760,352.000 269.200 C 352.000 269.640,351.820 270.000,351.600 270.000 C 351.380 270.000,351.200 270.234,351.200 270.520 C 351.200 271.256,350.259 273.193,349.900 273.197 C 349.735 273.199,349.600 273.560,349.600 274.000 C 349.600 274.440,349.420 274.800,349.200 274.800 C 348.980 274.800,348.800 275.160,348.800 275.600 C 348.800 276.040,348.665 276.401,348.500 276.401 C 348.335 276.402,347.750 277.392,347.200 278.600 C 346.650 279.808,346.065 280.798,345.900 280.799 C 345.735 280.799,345.600 281.149,345.600 281.576 C 345.600 282.003,345.434 282.455,345.232 282.580 C 345.030 282.705,344.379 283.661,343.786 284.704 C 343.194 285.747,342.273 287.365,341.741 288.300 C 341.209 289.235,340.898 290.000,341.048 290.000 C 341.199 290.000,340.935 290.336,340.461 290.747 C 339.988 291.158,339.600 291.798,339.600 292.171 C 339.600 292.543,339.441 292.749,339.246 292.629 C 339.052 292.509,338.670 292.948,338.398 293.605 C 338.126 294.262,337.745 294.800,337.551 294.800 C 337.358 294.800,337.200 295.441,337.200 296.224 C 337.200 297.071,337.038 297.547,336.800 297.400 C 336.541 297.240,336.400 298.929,336.400 302.176 C 336.400 305.259,336.555 307.200,336.800 307.200 C 337.020 307.200,337.200 307.740,337.200 308.400 C 337.200 309.060,337.380 309.600,337.600 309.600 C 337.820 309.600,338.000 309.888,338.000 310.240 C 338.000 310.591,338.540 311.383,339.200 312.000 C 339.860 312.617,340.400 313.409,340.400 313.760 C 340.400 314.126,340.731 314.400,341.173 314.400 C 341.598 314.400,342.050 314.715,342.177 315.100 C 342.399 315.774,345.711 317.600,346.712 317.600 C 346.980 317.600,347.200 317.780,347.200 318.000 C 347.200 318.245,349.133 318.400,352.200 318.400 C 355.267 318.400,357.200 318.245,357.200 318.000 C 357.200 317.780,357.555 317.600,357.988 317.600 C 358.849 317.600,361.356 316.301,362.281 315.376 C 362.601 315.056,363.208 314.610,363.631 314.383 C 364.054 314.157,364.400 313.780,364.400 313.546 C 364.400 313.312,364.940 312.617,365.600 312.000 C 366.260 311.383,366.800 310.606,366.800 310.273 C 366.800 309.939,366.935 309.607,367.100 309.533 C 367.486 309.362,368.843 307.341,369.606 305.800 C 369.933 305.140,370.425 304.362,370.700 304.072 C 370.975 303.781,371.688 302.701,372.285 301.672 C 372.882 300.642,373.512 299.740,373.685 299.667 C 373.858 299.593,374.000 299.341,374.000 299.107 C 374.000 298.500,376.107 294.227,376.485 294.067 C 376.658 293.993,376.800 293.588,376.800 293.167 C 376.800 292.745,376.980 292.400,377.200 292.400 C 377.420 292.400,377.600 292.040,377.600 291.600 C 377.600 291.160,377.780 290.800,378.000 290.800 C 378.220 290.800,378.400 290.530,378.400 290.200 C 378.400 289.870,378.580 289.600,378.800 289.600 C 379.020 289.600,379.200 289.355,379.200 289.056 C 379.200 288.604,380.372 285.988,382.046 282.705 C 382.241 282.323,382.400 281.738,382.400 281.405 C 382.400 281.072,382.580 280.800,382.800 280.800 C 383.020 280.800,383.200 280.440,383.200 280.000 C 383.200 279.560,383.380 279.200,383.600 279.200 C 383.820 279.200,384.000 278.840,384.000 278.400 C 384.000 277.960,384.142 277.600,384.315 277.600 C 384.488 277.600,384.658 277.228,384.692 276.774 C 384.726 276.319,385.101 275.194,385.524 274.274 C 387.090 270.869,387.600 269.672,387.600 269.400 C 387.600 269.246,387.846 268.554,388.146 267.860 C 388.447 267.167,389.109 265.250,389.619 263.600 C 390.129 261.950,390.640 260.423,390.754 260.207 C 391.005 259.733,391.131 259.131,391.445 256.900 C 391.576 255.965,391.845 255.200,392.042 255.200 C 392.239 255.200,392.400 254.570,392.400 253.800 C 392.400 253.030,392.580 252.400,392.800 252.400 C 393.020 252.400,393.200 251.781,393.200 251.024 C 393.200 250.267,393.380 249.536,393.600 249.400 C 393.820 249.264,394.000 248.533,394.000 247.776 C 394.000 247.019,394.180 246.400,394.400 246.400 C 394.620 246.400,394.800 245.680,394.800 244.800 C 394.800 243.920,394.980 243.200,395.200 243.200 C 395.420 243.200,395.600 242.210,395.600 241.000 C 395.600 239.790,395.780 238.800,396.000 238.800 C 396.220 238.800,396.400 237.900,396.400 236.800 C 396.400 235.700,396.580 234.800,396.800 234.800 C 397.020 234.800,397.200 233.911,397.200 232.824 C 397.200 231.737,397.380 230.736,397.600 230.600 C 397.820 230.464,398.000 229.013,398.000 227.376 C 398.000 225.739,398.144 224.400,398.321 224.400 C 398.497 224.400,398.689 222.825,398.748 220.900 C 398.806 218.975,399.022 217.229,399.227 217.020 C 399.751 216.486,399.724 183.200,399.200 183.200 C 398.959 183.200,398.800 181.533,398.800 179.000 C 398.800 176.467,398.641 174.800,398.400 174.800 C 398.179 174.800,398.000 173.760,398.000 172.480 C 398.000 171.204,397.830 169.989,397.623 169.780 C 397.416 169.571,397.206 168.275,397.157 166.900 C 397.109 165.525,396.918 164.400,396.734 164.400 C 396.550 164.400,396.400 163.601,396.400 162.624 C 396.400 161.647,396.220 160.736,396.000 160.600 C 395.780 160.464,395.600 159.654,395.600 158.800 C 395.600 157.946,395.420 157.136,395.200 157.000 C 394.980 156.864,394.800 156.043,394.800 155.176 C 394.800 154.309,394.620 153.600,394.400 153.600 C 394.180 153.600,394.000 152.801,394.000 151.824 C 394.000 150.847,393.820 149.936,393.600 149.800 C 393.380 149.664,393.200 149.124,393.200 148.600 C 393.200 148.076,393.020 147.536,392.800 147.400 C 392.580 147.264,392.400 146.803,392.400 146.376 C 392.400 145.949,392.232 145.600,392.027 145.600 C 391.822 145.600,391.535 145.227,391.391 144.771 C 391.060 143.730,387.671 140.400,386.942 140.400 C 386.644 140.400,386.400 140.220,386.400 140.000 C 386.400 139.780,386.040 139.600,385.600 139.600 C 385.160 139.600,384.800 139.420,384.800 139.200 C 384.800 138.980,384.451 138.800,384.024 138.800 C 383.597 138.800,383.136 138.620,383.000 138.400 C 382.857 138.168,380.670 138.000,377.800 138.000 C 374.930 138.000,372.743 138.168,372.600 138.400 M289.875 342.238 C 288.932 342.479,287.705 342.975,287.149 343.339 C 286.592 343.704,286.041 343.908,285.925 343.792 C 285.809 343.676,285.486 343.855,285.208 344.190 C 284.930 344.526,284.364 344.800,283.951 344.800 C 283.538 344.800,283.200 344.980,283.200 345.200 C 283.200 345.420,282.919 345.600,282.576 345.600 C 282.233 345.600,282.045 345.750,282.159 345.933 C 282.272 346.117,282.103 346.297,281.782 346.333 C 281.462 346.370,280.930 346.430,280.600 346.467 C 280.270 346.503,280.000 346.655,280.000 346.804 C 280.000 346.953,279.145 347.508,278.100 348.037 C 277.055 348.567,276.140 349.135,276.067 349.300 C 275.993 349.465,275.678 349.600,275.367 349.600 C 275.055 349.600,274.800 349.780,274.800 350.000 C 274.800 350.220,274.455 350.400,274.033 350.400 C 273.612 350.400,273.207 350.575,273.133 350.788 C 273.060 351.002,272.550 351.227,272.000 351.288 C 271.450 351.350,270.651 351.715,270.225 352.100 C 269.798 352.485,269.168 352.806,268.825 352.813 C 268.481 352.820,267.858 353.084,267.441 353.400 C 267.024 353.716,266.529 353.880,266.341 353.764 C 266.153 353.648,266.000 353.743,266.000 353.976 C 266.000 354.209,265.640 354.400,265.200 354.400 C 264.760 354.400,264.400 354.580,264.400 354.800 C 264.400 355.020,263.961 355.200,263.424 355.200 C 262.887 355.200,262.336 355.380,262.200 355.600 C 262.064 355.820,261.603 356.000,261.176 356.000 C 260.749 356.000,260.400 356.180,260.400 356.400 C 260.400 356.620,260.051 356.800,259.624 356.800 C 259.197 356.800,258.736 356.980,258.600 357.200 C 258.464 357.420,257.924 357.600,257.400 357.600 C 256.876 357.600,256.350 357.757,256.232 357.948 C 256.045 358.252,255.225 358.510,252.807 359.029 C 252.481 359.099,252.151 359.347,252.073 359.581 C 251.995 359.814,251.775 359.908,251.584 359.790 C 251.084 359.481,249.168 360.024,249.405 360.408 C 249.514 360.585,249.175 360.683,248.651 360.625 C 248.127 360.568,247.045 360.839,246.246 361.227 C 245.442 361.618,244.915 361.725,245.066 361.467 C 245.215 361.210,244.992 361.291,244.569 361.647 C 244.146 362.003,243.350 362.252,242.800 362.202 C 242.250 362.151,241.682 362.293,241.538 362.517 C 241.394 362.741,240.679 362.907,239.950 362.886 C 239.220 362.865,238.406 363.029,238.140 363.250 C 237.873 363.471,237.097 363.668,236.413 363.687 C 235.730 363.707,235.077 363.875,234.962 364.061 C 234.847 364.248,234.392 364.400,233.950 364.400 C 233.509 364.400,232.754 364.611,232.274 364.870 C 231.793 365.128,230.369 365.332,229.110 365.323 C 227.850 365.315,226.915 365.463,227.033 365.654 C 227.151 365.844,226.337 366.000,225.224 366.000 C 223.875 366.000,223.198 366.167,223.194 366.500 C 223.189 366.874,223.102 366.865,222.849 366.466 C 222.444 365.827,221.983 365.780,221.635 366.343 C 221.495 366.569,220.264 366.821,218.899 366.902 C 217.533 366.984,216.293 367.174,216.141 367.325 C 215.990 367.476,215.582 367.587,215.233 367.572 C 214.768 367.551,214.812 367.453,215.400 367.200 C 216.052 366.920,216.075 366.851,215.524 366.828 C 215.152 366.813,214.736 366.980,214.600 367.200 C 214.464 367.420,213.993 367.600,213.553 367.600 C 213.113 367.600,212.842 367.744,212.950 367.919 C 213.058 368.095,212.982 368.500,212.780 368.819 C 212.474 369.302,212.411 369.284,212.406 368.708 C 212.400 367.960,210.746 367.339,209.995 367.803 C 209.748 367.956,209.647 368.344,209.770 368.667 C 209.938 369.104,209.791 369.188,209.188 368.996 C 208.387 368.742,208.382 368.855,208.491 383.970 C 208.574 395.546,208.486 399.200,208.124 399.200 C 207.862 399.200,207.533 399.385,207.393 399.611 C 207.222 399.888,208.941 399.958,212.670 399.826 C 222.452 399.482,223.599 399.405,223.600 399.100 C 223.600 398.935,224.860 398.800,226.400 398.800 C 228.000 398.800,229.200 398.629,229.200 398.400 C 229.200 398.178,230.267 398.000,231.600 398.000 C 232.933 398.000,234.000 397.822,234.000 397.600 C 234.000 397.380,235.001 397.200,236.224 397.200 C 237.604 397.200,238.353 397.048,238.200 396.800 C 238.047 396.552,238.785 396.400,240.143 396.400 C 241.348 396.400,242.393 396.228,242.467 396.018 C 242.540 395.807,243.263 395.591,244.074 395.537 C 244.885 395.484,245.459 395.296,245.351 395.120 C 245.242 394.944,245.984 394.800,247.000 394.800 C 248.130 394.800,248.751 394.645,248.600 394.400 C 248.449 394.156,249.063 394.000,250.176 394.000 C 251.179 394.000,252.000 393.820,252.000 393.600 C 252.000 393.380,252.519 393.200,253.154 393.200 C 253.789 393.200,254.811 392.939,255.426 392.620 C 256.040 392.302,256.691 392.132,256.871 392.244 C 257.052 392.356,257.200 392.257,257.200 392.024 C 257.200 391.791,257.606 391.600,258.101 391.600 C 258.597 391.600,260.262 391.220,261.801 390.757 C 263.341 390.293,265.095 389.822,265.700 389.711 C 266.305 389.600,266.800 389.350,266.800 389.155 C 266.800 388.960,267.340 388.800,268.000 388.800 C 268.660 388.800,269.200 388.643,269.200 388.452 C 269.200 388.261,270.015 387.876,271.010 387.597 C 272.006 387.318,272.917 386.935,273.034 386.745 C 273.151 386.555,273.597 386.400,274.024 386.400 C 274.451 386.400,274.800 386.220,274.800 386.000 C 274.800 385.780,275.149 385.600,275.576 385.600 C 276.003 385.600,276.464 385.420,276.600 385.200 C 276.736 384.980,277.377 384.800,278.024 384.800 C 278.671 384.800,279.200 384.620,279.200 384.400 C 279.200 384.180,279.560 384.000,280.000 384.000 C 280.440 384.000,280.800 383.820,280.800 383.600 C 280.800 383.380,281.160 383.200,281.600 383.200 C 282.040 383.200,282.400 383.020,282.400 382.800 C 282.400 382.580,282.760 382.400,283.200 382.400 C 283.640 382.400,284.000 382.220,284.000 382.000 C 284.000 381.780,284.360 381.600,284.800 381.600 C 285.240 381.600,285.600 381.420,285.600 381.200 C 285.600 380.980,286.035 380.800,286.567 380.800 C 287.098 380.800,287.593 380.665,287.667 380.500 C 287.845 380.100,291.149 378.400,291.749 378.400 C 292.010 378.400,292.483 378.040,292.800 377.600 C 293.117 377.160,293.697 376.800,294.088 376.800 C 294.480 376.800,294.800 376.620,294.800 376.400 C 294.800 376.180,295.160 376.000,295.600 376.000 C 296.040 376.000,296.400 375.820,296.400 375.600 C 296.400 375.380,296.694 375.200,297.053 375.200 C 297.412 375.200,298.037 374.819,298.441 374.353 C 298.865 373.863,299.435 373.604,299.788 373.740 C 300.125 373.869,300.400 373.801,300.400 373.587 C 300.400 373.374,300.760 373.200,301.200 373.200 C 301.640 373.200,302.000 373.020,302.000 372.800 C 302.000 372.580,302.178 372.400,302.395 372.400 C 302.613 372.400,303.108 372.142,303.495 371.828 C 306.321 369.533,306.813 369.080,306.653 368.919 C 306.553 368.820,306.996 368.238,307.636 367.626 C 308.276 367.014,308.800 366.218,308.800 365.857 C 308.800 365.496,308.980 365.200,309.200 365.200 C 309.420 365.200,309.600 364.696,309.600 364.080 C 309.600 363.464,309.770 362.789,309.979 362.580 C 310.187 362.371,310.402 361.435,310.457 360.500 C 310.512 359.565,310.701 358.800,310.878 358.800 C 311.341 358.800,311.276 357.294,310.800 357.000 C 310.580 356.864,310.400 355.773,310.400 354.576 C 310.400 353.379,310.220 352.400,310.000 352.400 C 309.780 352.400,309.600 351.950,309.600 351.400 C 309.600 350.850,309.420 350.400,309.200 350.400 C 308.980 350.400,308.800 350.122,308.800 349.783 C 308.800 349.444,308.440 348.780,308.000 348.308 C 307.560 347.836,307.200 347.213,307.200 346.925 C 307.200 346.636,307.065 346.400,306.900 346.400 C 306.735 346.399,306.120 345.994,305.534 345.500 C 304.947 345.005,304.084 344.280,303.615 343.888 C 303.146 343.496,302.610 343.270,302.423 343.386 C 302.237 343.501,301.973 343.306,301.837 342.952 C 301.671 342.521,301.267 342.370,300.609 342.496 C 300.069 342.599,299.570 342.510,299.499 342.297 C 299.318 341.754,291.946 341.709,289.875 342.238 M182.000 367.200 C 183.436 367.660,184.084 367.660,183.800 367.200 C 183.664 366.980,182.978 366.818,182.276 366.840 C 181.057 366.878,181.045 366.894,182.000 367.200 M199.000 368.000 C 198.496 368.217,198.422 368.344,198.800 368.344 C 199.130 368.344,199.760 368.189,200.200 368.000 C 200.704 367.783,200.778 367.656,200.400 367.656 C 200.070 367.656,199.440 367.811,199.000 368.000 " stroke="none" fill="#46b3fc" fill-rule="evenodd"/><path id="path1" d="M97.200 26.600 C 95.894 27.347,96.351 27.355,98.054 26.616 C 98.794 26.294,99.130 26.031,98.800 26.030 C 98.470 26.029,97.750 26.286,97.200 26.600 M59.096 56.105 C 58.720 56.568,58.525 57.049,58.661 57.173 C 58.798 57.298,58.990 57.174,59.089 56.898 C 59.188 56.621,59.461 56.514,59.696 56.659 C 59.937 56.808,60.008 56.737,59.859 56.496 C 59.714 56.261,59.812 55.996,60.078 55.907 C 60.367 55.811,60.404 55.650,60.170 55.505 C 59.955 55.372,59.472 55.642,59.096 56.105 M55.660 59.442 C 55.362 59.778,55.226 60.159,55.356 60.290 C 55.486 60.420,55.370 60.806,55.097 61.148 C 54.823 61.489,55.160 61.376,55.845 60.896 C 56.530 60.416,57.162 60.063,57.250 60.112 C 57.338 60.160,57.185 60.002,56.911 59.760 C 56.637 59.519,56.530 59.204,56.673 59.060 C 56.816 58.917,56.768 58.807,56.567 58.815 C 56.365 58.824,55.957 59.105,55.660 59.442 M53.370 61.724 C 53.133 61.995,53.022 62.467,53.124 62.772 C 53.249 63.146,53.101 63.248,52.675 63.084 C 52.215 62.908,52.108 63.015,52.284 63.475 C 52.443 63.890,52.345 64.048,52.000 63.933 C 51.286 63.695,49.710 65.259,49.948 65.969 C 50.074 66.346,49.937 66.461,49.541 66.309 C 48.829 66.036,47.846 67.412,48.251 68.116 C 48.403 68.382,48.403 68.489,48.251 68.353 C 47.914 68.054,44.100 71.675,44.303 72.100 C 44.382 72.265,44.246 72.400,44.000 72.400 C 43.754 72.400,43.664 72.580,43.800 72.800 C 43.936 73.020,43.857 73.200,43.624 73.200 C 43.391 73.200,43.200 73.481,43.200 73.824 C 43.200 74.167,43.039 74.348,42.843 74.226 C 42.646 74.105,42.376 74.442,42.242 74.976 C 42.108 75.510,41.642 76.060,41.207 76.198 C 40.772 76.336,40.434 76.573,40.455 76.724 C 40.556 77.431,40.371 78.031,40.100 77.876 C 39.665 77.628,38.224 79.270,38.060 80.200 C 37.983 80.637,37.398 81.426,36.760 81.955 C 36.122 82.483,35.600 83.094,35.600 83.311 C 35.600 83.528,35.234 84.024,34.786 84.412 C 34.339 84.800,34.024 85.297,34.086 85.515 C 34.149 85.734,33.839 86.248,33.397 86.656 C 32.956 87.065,32.340 87.895,32.030 88.500 C 31.719 89.105,31.315 89.600,31.132 89.600 C 30.950 89.600,30.800 89.791,30.800 90.024 C 30.800 90.257,31.025 90.333,31.300 90.193 C 31.575 90.053,31.395 90.297,30.900 90.734 C 30.405 91.171,30.000 91.754,30.000 92.031 C 30.000 92.307,29.887 92.420,29.749 92.282 C 29.481 92.014,28.000 94.667,28.000 95.415 C 28.000 95.660,27.538 96.294,26.974 96.824 C 26.410 97.354,25.672 98.421,25.333 99.194 C 24.032 102.169,23.784 102.620,23.103 103.247 C 22.716 103.603,22.400 104.244,22.400 104.671 C 22.400 105.099,22.085 105.805,21.700 106.240 C 21.315 106.675,20.941 107.293,20.868 107.612 C 20.795 107.931,20.596 108.284,20.424 108.396 C 20.253 108.508,19.875 109.265,19.584 110.079 C 19.293 110.892,18.907 111.466,18.727 111.355 C 18.547 111.244,18.400 111.523,18.400 111.976 C 18.400 112.429,18.220 112.800,18.000 112.800 C 17.780 112.800,17.600 113.160,17.600 113.600 C 17.600 114.040,17.420 114.400,17.200 114.400 C 16.980 114.400,16.800 114.730,16.800 115.133 C 16.800 115.537,16.675 115.992,16.522 116.145 C 16.369 116.298,16.205 116.685,16.158 117.005 C 16.018 117.963,15.027 120.000,14.702 120.000 C 14.536 120.000,14.400 120.360,14.400 120.800 C 14.400 121.240,14.220 121.600,14.000 121.600 C 13.780 121.600,13.600 122.140,13.600 122.800 C 13.600 123.460,13.420 124.000,13.200 124.000 C 12.980 124.000,12.800 124.461,12.800 125.024 C 12.800 125.604,12.627 125.940,12.400 125.800 C 12.180 125.664,12.000 125.926,12.000 126.382 C 12.000 126.838,11.833 127.523,11.629 127.905 C 11.058 128.976,10.665 130.163,10.753 130.550 C 10.797 130.743,10.538 131.226,10.178 131.625 C 9.817 132.023,9.637 132.536,9.777 132.763 C 9.918 132.991,9.740 133.625,9.382 134.171 C 9.024 134.718,8.839 135.340,8.972 135.555 C 9.105 135.769,9.030 136.058,8.807 136.196 C 8.583 136.334,8.400 136.977,8.400 137.624 C 8.400 138.271,8.220 138.800,8.000 138.800 C 7.780 138.800,7.600 139.329,7.600 139.976 C 7.600 140.623,7.420 141.264,7.200 141.400 C 6.980 141.536,6.800 142.177,6.800 142.824 C 6.800 143.471,6.620 144.000,6.400 144.000 C 6.180 144.000,6.000 144.529,6.000 145.176 C 6.000 145.823,5.820 146.464,5.600 146.600 C 5.380 146.736,5.200 147.567,5.200 148.447 C 5.200 149.412,5.041 149.949,4.800 149.800 C 4.558 149.651,4.400 150.196,4.400 151.176 C 4.400 152.069,4.220 152.800,4.000 152.800 C 3.780 152.800,3.600 153.599,3.600 154.576 C 3.600 155.553,3.420 156.464,3.200 156.600 C 2.980 156.736,2.800 157.636,2.800 158.600 C 2.800 159.564,2.620 160.464,2.400 160.600 C 2.180 160.736,2.000 161.747,2.000 162.847 C 2.000 164.079,1.846 164.752,1.600 164.600 C 1.352 164.447,1.200 165.169,1.200 166.496 C 1.200 167.678,0.976 168.864,0.700 169.140 C -0.031 169.871,-0.031 230.129,0.700 230.860 C 0.976 231.136,1.200 232.322,1.200 233.504 C 1.200 234.831,1.352 235.553,1.600 235.400 C 1.846 235.248,2.000 235.921,2.000 237.153 C 2.000 238.253,2.180 239.264,2.400 239.400 C 2.620 239.536,2.800 240.436,2.800 241.400 C 2.800 242.364,2.980 243.264,3.200 243.400 C 3.420 243.536,3.600 244.447,3.600 245.424 C 3.600 246.401,3.780 247.200,4.000 247.200 C 4.220 247.200,4.400 247.931,4.400 248.824 C 4.400 249.804,4.558 250.349,4.800 250.200 C 5.041 250.051,5.200 250.588,5.200 251.553 C 5.200 252.433,5.380 253.264,5.600 253.400 C 5.820 253.536,6.000 254.177,6.000 254.824 C 6.000 255.471,6.180 256.000,6.400 256.000 C 6.620 256.000,6.800 256.529,6.800 257.176 C 6.800 257.823,6.980 258.464,7.200 258.600 C 7.420 258.736,7.600 259.377,7.600 260.024 C 7.600 260.671,7.780 261.200,8.000 261.200 C 8.220 261.200,8.400 261.729,8.400 262.376 C 8.400 263.023,8.583 263.666,8.807 263.804 C 9.030 263.942,9.105 264.231,8.972 264.445 C 8.839 264.660,9.024 265.282,9.382 265.829 C 9.740 266.375,9.918 267.009,9.777 267.237 C 9.637 267.464,9.817 267.977,10.178 268.375 C 10.538 268.774,10.797 269.257,10.753 269.450 C 10.665 269.837,11.058 271.024,11.629 272.095 C 11.833 272.477,12.000 273.162,12.000 273.618 C 12.000 274.074,12.180 274.336,12.400 274.200 C 12.627 274.060,12.800 274.396,12.800 274.976 C 12.800 275.539,12.980 276.000,13.200 276.000 C 13.420 276.000,13.600 276.540,13.600 277.200 C 13.600 277.860,13.780 278.400,14.000 278.400 C 14.220 278.400,14.400 278.760,14.400 279.200 C 14.400 279.640,14.536 280.000,14.702 280.000 C 15.027 280.000,16.018 282.037,16.158 282.995 C 16.205 283.315,16.369 283.702,16.522 283.855 C 16.675 284.008,16.800 284.463,16.800 284.867 C 16.800 285.270,16.980 285.600,17.200 285.600 C 17.420 285.600,17.600 285.960,17.600 286.400 C 17.600 286.840,17.780 287.200,18.000 287.200 C 18.220 287.200,18.400 287.571,18.400 288.024 C 18.400 288.477,18.547 288.756,18.727 288.645 C 18.907 288.534,19.293 289.108,19.584 289.921 C 19.875 290.735,20.253 291.492,20.424 291.604 C 20.596 291.716,20.795 292.069,20.868 292.388 C 20.941 292.707,21.315 293.325,21.700 293.760 C 22.085 294.195,22.400 294.901,22.400 295.329 C 22.400 295.756,22.716 296.397,23.103 296.753 C 23.784 297.380,24.032 297.831,25.333 300.806 C 25.672 301.579,26.410 302.646,26.974 303.176 C 27.538 303.706,28.000 304.340,28.000 304.585 C 28.000 305.333,29.481 307.986,29.749 307.718 C 29.887 307.580,30.000 307.693,30.000 307.969 C 30.000 308.246,30.405 308.829,30.900 309.266 C 31.395 309.703,31.575 309.947,31.300 309.807 C 31.025 309.667,30.800 309.743,30.800 309.976 C 30.800 310.209,30.950 310.400,31.132 310.400 C 31.315 310.400,31.719 310.895,32.030 311.500 C 32.340 312.105,32.956 312.935,33.397 313.344 C 33.839 313.752,34.149 314.266,34.086 314.485 C 34.024 314.703,34.339 315.200,34.786 315.588 C 35.234 315.976,35.600 316.472,35.600 316.689 C 35.600 316.906,36.122 317.517,36.760 318.045 C 37.398 318.574,37.983 319.363,38.060 319.800 C 38.224 320.730,39.665 322.372,40.100 322.124 C 40.371 321.969,40.556 322.569,40.455 323.276 C 40.434 323.427,40.772 323.664,41.207 323.802 C 41.642 323.940,42.108 324.490,42.242 325.024 C 42.376 325.558,42.646 325.895,42.843 325.774 C 43.039 325.652,43.200 325.833,43.200 326.176 C 43.200 326.519,43.391 326.800,43.624 326.800 C 43.857 326.800,43.936 326.980,43.800 327.200 C 43.664 327.420,43.754 327.600,44.000 327.600 C 44.246 327.600,44.382 327.735,44.303 327.900 C 44.100 328.325,47.914 331.946,48.251 331.647 C 48.403 331.511,48.403 331.618,48.251 331.884 C 47.846 332.588,48.829 333.964,49.541 333.691 C 49.937 333.539,50.074 333.654,49.948 334.031 C 49.710 334.741,51.286 336.305,52.000 336.067 C 52.345 335.952,52.443 336.110,52.284 336.525 C 52.108 336.985,52.215 337.092,52.675 336.916 C 53.103 336.751,53.249 336.854,53.122 337.233 C 52.806 338.183,54.001 339.098,54.468 338.264 C 54.678 337.889,55.021 337.689,55.231 337.819 C 55.472 337.968,55.573 329.147,55.506 313.888 C 55.397 288.971,55.442 288.184,56.878 290.188 C 57.031 290.402,57.278 290.456,57.426 290.307 C 57.574 290.159,57.402 289.745,57.044 289.387 C 56.686 289.029,56.495 288.570,56.620 288.368 C 56.745 288.165,56.657 288.000,56.424 288.000 C 56.191 288.000,55.997 287.595,55.994 287.100 C 55.989 286.372,55.914 286.315,55.600 286.800 C 55.232 287.369,54.975 286.623,55.153 285.500 C 55.179 285.335,54.911 285.200,54.557 285.200 C 54.126 285.200,53.997 284.984,54.166 284.543 C 54.372 284.008,54.311 283.976,53.840 284.366 C 53.353 284.771,53.293 284.655,53.455 283.623 C 53.643 282.432,53.065 281.900,52.668 282.900 C 52.559 283.175,52.532 282.812,52.607 282.094 C 52.682 281.376,52.596 280.879,52.417 280.990 C 51.935 281.287,51.164 280.202,51.097 279.132 C 51.065 278.619,50.937 278.110,50.814 278.000 C 50.690 277.890,50.161 276.950,49.638 275.912 C 49.114 274.873,48.562 274.100,48.410 274.194 C 48.258 274.288,48.114 274.148,48.090 273.882 C 47.976 272.613,47.695 271.905,47.172 271.574 C 46.857 271.375,46.780 271.207,47.000 271.200 C 47.220 271.193,47.194 271.056,46.941 270.894 C 46.689 270.732,46.419 270.150,46.341 269.600 C 46.264 269.050,46.106 268.510,45.990 268.400 C 45.465 267.899,43.144 263.118,43.546 263.367 C 43.796 263.521,44.000 263.476,44.000 263.266 C 44.000 263.057,43.711 262.775,43.358 262.639 C 42.992 262.499,42.815 262.137,42.946 261.797 C 43.072 261.468,43.001 261.200,42.787 261.200 C 42.574 261.200,42.400 260.930,42.400 260.600 C 42.400 260.270,42.243 260.000,42.051 260.000 C 41.706 260.000,41.018 257.039,41.152 256.130 C 41.190 255.872,41.036 255.546,40.811 255.407 C 40.585 255.267,40.400 254.638,40.400 254.010 C 40.400 253.381,40.197 252.799,39.950 252.717 C 39.702 252.634,39.500 252.082,39.500 251.491 C 39.500 250.899,39.343 250.512,39.150 250.631 C 38.957 250.750,38.781 250.612,38.757 250.324 C 38.576 248.090,37.923 245.200,37.547 244.968 C 37.356 244.849,37.200 244.234,37.200 243.600 C 37.200 242.966,37.020 242.336,36.800 242.200 C 36.580 242.064,36.400 241.549,36.400 241.056 C 36.400 240.563,36.175 239.918,35.900 239.621 C 35.500 239.190,35.500 239.139,35.900 239.365 C 36.175 239.520,36.400 239.457,36.400 239.224 C 36.400 238.991,36.220 238.800,36.000 238.800 C 35.780 238.800,35.600 238.170,35.600 237.400 C 35.600 236.630,35.420 236.000,35.200 236.000 C 34.980 236.000,34.800 235.025,34.800 233.833 C 34.800 232.642,34.637 231.607,34.437 231.533 C 34.237 231.460,34.022 230.770,33.958 230.000 C 33.894 229.230,33.652 228.340,33.421 228.023 C 33.090 227.570,33.128 227.518,33.600 227.782 C 34.088 228.055,34.107 228.017,33.700 227.579 C 33.418 227.275,33.200 226.017,33.200 224.696 C 33.200 223.236,33.049 222.446,32.800 222.600 C 32.432 222.827,32.183 219.369,32.387 216.879 C 32.429 216.372,32.251 215.703,31.993 215.391 C 31.323 214.585,31.323 185.415,31.993 184.609 C 32.251 184.297,32.429 183.628,32.387 183.121 C 32.183 180.631,32.432 177.173,32.800 177.400 C 33.049 177.554,33.200 176.760,33.200 175.290 C 33.200 173.994,33.326 172.808,33.479 172.654 C 33.632 172.501,33.821 171.526,33.898 170.488 C 33.975 169.449,34.210 168.540,34.419 168.467 C 34.629 168.393,34.800 167.358,34.800 166.167 C 34.800 164.975,34.980 164.000,35.200 164.000 C 35.420 164.000,35.600 163.370,35.600 162.600 C 35.600 161.830,35.780 161.200,36.000 161.200 C 36.220 161.200,36.400 161.009,36.400 160.776 C 36.400 160.543,36.175 160.480,35.900 160.635 C 35.500 160.861,35.500 160.810,35.900 160.379 C 36.175 160.082,36.400 159.437,36.400 158.944 C 36.400 158.451,36.580 157.936,36.800 157.800 C 37.020 157.664,37.200 157.034,37.200 156.400 C 37.200 155.766,37.356 155.151,37.547 155.032 C 37.923 154.800,38.576 151.910,38.757 149.676 C 38.781 149.388,38.958 149.250,39.150 149.369 C 39.343 149.488,39.500 149.101,39.500 148.509 C 39.500 147.918,39.703 147.366,39.950 147.283 C 40.198 147.201,40.400 146.619,40.400 145.990 C 40.400 145.362,40.585 144.733,40.811 144.593 C 41.036 144.454,41.190 144.128,41.152 143.870 C 41.018 142.961,41.706 140.000,42.051 140.000 C 42.243 140.000,42.400 139.730,42.400 139.400 C 42.400 139.070,42.574 138.800,42.787 138.800 C 43.001 138.800,43.072 138.532,42.946 138.203 C 42.815 137.863,42.992 137.501,43.358 137.361 C 43.711 137.225,44.000 136.943,44.000 136.734 C 44.000 136.524,43.796 136.479,43.546 136.633 C 43.144 136.882,45.465 132.101,45.990 131.600 C 46.106 131.490,46.264 130.950,46.341 130.400 C 46.419 129.850,46.689 129.268,46.941 129.106 C 47.194 128.944,47.220 128.807,47.000 128.800 C 46.780 128.793,46.857 128.625,47.172 128.426 C 47.695 128.095,47.976 127.387,48.090 126.118 C 48.114 125.852,48.258 125.712,48.410 125.806 C 48.562 125.900,49.114 125.127,49.638 124.088 C 50.161 123.050,50.690 122.110,50.814 122.000 C 50.937 121.890,51.065 121.381,51.097 120.868 C 51.164 119.798,51.935 118.713,52.417 119.010 C 52.596 119.121,52.682 118.624,52.607 117.906 C 52.532 117.188,52.559 116.825,52.668 117.100 C 53.065 118.100,53.643 117.568,53.455 116.377 C 53.293 115.345,53.353 115.229,53.840 115.634 C 54.311 116.024,54.372 115.992,54.166 115.457 C 53.997 115.016,54.126 114.800,54.557 114.800 C 54.911 114.800,55.179 114.665,55.153 114.500 C 54.975 113.377,55.232 112.631,55.600 113.200 C 55.914 113.685,55.989 113.628,55.994 112.900 C 55.997 112.405,56.191 112.000,56.424 112.000 C 56.657 112.000,56.745 111.835,56.620 111.632 C 56.495 111.430,56.686 110.971,57.044 110.613 C 57.402 110.255,57.574 109.841,57.426 109.693 C 57.278 109.544,57.031 109.598,56.878 109.812 C 55.442 111.816,55.397 111.029,55.506 86.112 C 55.578 69.723,55.481 62.027,55.203 62.198 C 54.978 62.337,54.686 62.169,54.554 61.825 C 54.269 61.082,53.953 61.055,53.370 61.724 M89.578 73.100 L 88.200 74.600 89.700 73.222 C 91.096 71.938,91.384 71.600,91.078 71.600 C 91.012 71.600,90.337 72.275,89.578 73.100 M69.056 93.612 C 68.670 94.266,68.516 94.800,68.713 94.800 C 69.083 94.800,70.136 92.803,69.894 92.561 C 69.819 92.486,69.442 92.959,69.056 93.612 M61.906 103.132 C 62.068 103.554,61.979 103.634,61.606 103.404 C 61.269 103.195,61.172 103.232,61.341 103.504 C 61.486 103.739,61.379 104.023,61.102 104.134 C 60.732 104.283,60.746 104.345,61.156 104.368 C 61.664 104.397,62.757 103.324,62.787 102.767 C 62.794 102.638,62.547 102.533,62.238 102.533 C 61.903 102.533,61.769 102.776,61.906 103.132 M113.570 165.312 C 114.103 165.910,114.701 166.400,114.898 166.400 C 115.286 166.400,114.672 165.750,113.398 164.812 C 112.813 164.381,112.858 164.514,113.570 165.312 M134.000 230.167 C 134.000 230.588,135.205 231.728,135.421 231.512 C 135.522 231.411,135.244 231.002,134.802 230.602 C 134.361 230.203,134.000 230.007,134.000 230.167 M151.478 246.966 C 152.095 247.497,152.670 247.862,152.757 247.776 C 152.951 247.583,151.121 246.032,150.678 246.013 C 150.500 246.006,150.860 246.435,151.478 246.966 M61.102 295.866 C 61.379 295.977,61.486 296.261,61.341 296.496 C 61.172 296.768,61.269 296.805,61.606 296.596 C 61.979 296.366,62.068 296.446,61.906 296.868 C 61.769 297.224,61.903 297.467,62.238 297.467 C 62.547 297.467,62.794 297.362,62.787 297.233 C 62.757 296.676,61.664 295.603,61.156 295.632 C 60.746 295.655,60.732 295.717,61.102 295.866 M69.056 306.388 C 69.442 307.041,69.819 307.514,69.894 307.439 C 70.136 307.197,69.083 305.200,68.713 305.200 C 68.516 305.200,68.670 305.734,69.056 306.388 M89.600 327.000 C 90.346 327.770,91.047 328.400,91.157 328.400 C 91.267 328.400,90.746 327.770,90.000 327.000 C 89.254 326.230,88.553 325.600,88.443 325.600 C 88.333 325.600,88.854 326.230,89.600 327.000 M55.097 338.852 C 55.370 339.194,55.483 339.583,55.349 339.718 C 55.215 339.852,55.405 340.262,55.771 340.629 C 56.138 340.995,56.550 341.184,56.686 341.048 C 56.822 340.911,56.779 340.800,56.590 340.800 C 56.401 340.800,56.509 340.575,56.828 340.300 C 57.148 340.025,57.338 339.840,57.250 339.888 C 57.162 339.937,56.530 339.584,55.845 339.104 C 55.160 338.624,54.823 338.511,55.097 338.852 M293.507 341.890 C 294.226 341.979,295.306 341.977,295.907 341.886 C 296.508 341.795,295.920 341.722,294.600 341.724 C 293.280 341.726,292.788 341.801,293.507 341.890 M58.400 342.939 C 58.400 343.465,59.973 344.768,60.188 344.420 C 60.330 344.189,60.246 344.000,60.000 344.000 C 59.754 344.000,59.681 343.792,59.838 343.538 C 60.015 343.252,59.948 343.185,59.662 343.362 C 59.408 343.519,59.200 343.457,59.200 343.224 C 59.200 342.991,59.020 342.800,58.800 342.800 C 58.580 342.800,58.400 342.862,58.400 342.939 M97.200 373.400 C 97.750 373.714,98.470 373.971,98.800 373.970 C 99.130 373.969,98.794 373.706,98.054 373.384 C 96.351 372.645,95.894 372.653,97.200 373.400 " stroke="none" fill="#0ae9fc" fill-rule="evenodd"/><path id="path2" d="M95.838 27.958 C 95.386 28.457,95.295 28.812,95.574 28.984 C 95.808 29.129,96.000 28.982,96.000 28.657 C 96.000 28.332,96.225 27.986,96.500 27.888 C 96.775 27.790,96.894 27.594,96.764 27.452 C 96.635 27.311,96.218 27.538,95.838 27.958 M93.783 29.067 C 93.353 29.384,93.062 29.950,93.138 30.322 C 93.214 30.695,93.138 30.864,92.970 30.699 C 92.802 30.533,92.222 30.686,91.683 31.040 C 91.143 31.394,90.824 31.484,90.974 31.241 C 91.517 30.363,90.571 30.824,89.845 31.792 C 89.435 32.338,88.932 32.682,88.728 32.556 C 88.524 32.430,88.034 32.700,87.638 33.156 C 87.243 33.612,86.802 33.869,86.659 33.726 C 86.517 33.583,86.400 33.687,86.400 33.957 C 86.400 34.227,86.220 34.336,86.000 34.200 C 85.780 34.064,85.600 34.105,85.600 34.290 C 85.600 34.476,85.055 34.949,84.389 35.343 C 83.723 35.736,82.778 36.450,82.289 36.929 C 81.800 37.408,80.932 38.041,80.360 38.335 C 79.789 38.630,78.573 39.575,77.660 40.435 C 76.746 41.296,75.854 42.000,75.677 42.000 C 75.501 42.000,74.646 42.618,73.778 43.374 C 71.771 45.122,70.508 46.156,69.000 47.288 C 68.340 47.784,67.461 48.610,67.047 49.124 C 66.634 49.639,65.869 50.222,65.347 50.420 C 64.826 50.618,64.400 51.085,64.400 51.457 C 64.400 51.829,64.278 52.012,64.130 51.863 C 63.769 51.503,62.000 53.189,62.000 53.893 C 62.000 54.198,61.820 54.336,61.600 54.200 C 61.380 54.064,61.200 54.233,61.200 54.576 C 61.200 54.919,60.919 55.200,60.576 55.200 C 60.233 55.200,60.032 55.335,60.129 55.500 C 60.227 55.665,59.860 56.160,59.315 56.600 C 56.860 58.583,56.335 59.261,56.883 59.740 C 57.173 59.993,57.338 60.160,57.250 60.112 C 57.162 60.063,56.530 60.412,55.845 60.887 L 54.600 61.751 55.400 60.817 L 56.200 59.884 55.276 60.369 C 54.335 60.863,54.214 62.292,55.130 62.098 C 55.503 62.019,55.588 67.461,55.506 86.147 C 55.412 107.474,55.470 110.273,56.000 110.081 C 56.434 109.924,56.389 110.104,55.838 110.732 C 55.392 111.240,55.273 111.600,55.551 111.600 C 55.812 111.600,56.128 111.331,56.254 111.002 C 56.381 110.674,56.643 110.503,56.837 110.623 C 57.032 110.743,57.084 110.562,56.953 110.221 C 56.798 109.818,56.941 109.600,57.357 109.600 C 57.759 109.600,57.998 109.263,57.994 108.700 C 57.989 107.955,57.915 107.903,57.563 108.400 C 57.186 108.933,57.158 108.933,57.311 108.400 C 57.406 108.070,57.779 107.853,58.141 107.918 C 58.504 107.982,58.800 107.846,58.800 107.614 C 58.800 107.382,59.336 106.631,59.992 105.945 C 60.648 105.259,61.099 104.560,60.994 104.391 C 60.890 104.222,61.092 103.973,61.444 103.839 C 61.820 103.694,61.985 103.339,61.846 102.976 C 61.716 102.636,61.778 102.463,61.985 102.590 C 62.357 102.821,63.443 101.261,63.290 100.714 C 63.246 100.557,63.509 100.544,63.874 100.684 C 64.361 100.871,64.475 100.773,64.301 100.320 C 64.148 99.921,64.409 99.516,65.033 99.182 C 65.566 98.897,66.306 97.974,66.678 97.132 C 67.050 96.289,67.544 95.595,67.777 95.590 C 68.010 95.584,68.530 94.864,68.933 93.990 C 69.336 93.115,69.876 92.391,70.133 92.381 C 70.390 92.370,71.410 91.353,72.400 90.121 C 74.340 87.708,84.486 77.350,86.828 75.393 C 87.614 74.737,88.375 73.881,88.519 73.490 C 88.664 73.100,89.191 72.617,89.691 72.416 C 90.191 72.215,90.441 72.039,90.246 72.025 C 89.829 71.995,91.712 70.469,93.232 69.604 C 93.817 69.272,94.723 68.640,95.247 68.200 L 96.200 67.400 96.200 48.560 C 96.200 30.061,96.185 29.709,95.383 29.105 C 94.668 28.565,94.470 28.560,93.783 29.067 M52.202 63.198 C 51.803 63.639,51.607 64.000,51.767 64.000 C 52.188 64.000,53.328 62.795,53.112 62.579 C 53.011 62.478,52.602 62.756,52.202 63.198 M97.432 66.050 C 96.399 67.054,96.767 67.320,97.909 66.394 C 98.408 65.989,98.678 65.578,98.509 65.480 C 98.339 65.382,97.854 65.639,97.432 66.050 M93.594 68.900 C 93.597 69.065,93.420 69.200,93.200 69.200 C 92.980 69.200,92.803 68.795,92.806 68.300 C 92.812 67.441,93.576 68.023,93.594 68.900 M95.232 161.924 C 95.214 162.212,95.020 162.336,94.800 162.200 C 94.580 162.064,94.400 162.228,94.400 162.564 C 94.400 162.969,94.176 163.089,93.734 162.919 C 93.287 162.748,93.164 162.817,93.358 163.132 C 93.517 163.389,93.446 163.600,93.200 163.600 C 92.954 163.600,92.864 163.780,93.000 164.000 C 93.136 164.220,93.070 164.400,92.853 164.400 C 92.636 164.400,92.400 164.126,92.329 163.792 C 92.228 163.315,91.961 163.406,91.091 164.216 C 90.482 164.784,90.075 165.397,90.187 165.579 C 90.299 165.760,90.015 166.007,89.555 166.128 C 89.018 166.268,88.829 166.523,89.025 166.841 C 89.243 167.192,89.125 167.257,88.621 167.063 C 88.093 166.861,87.971 166.946,88.143 167.395 C 88.271 167.728,88.203 168.000,87.993 168.000 C 87.486 168.000,86.400 170.641,86.400 171.872 C 86.400 172.473,86.233 172.744,85.965 172.578 C 85.657 172.388,85.589 173.523,85.733 176.455 C 85.960 181.062,86.312 183.200,86.845 183.200 C 87.040 183.200,87.200 183.554,87.200 183.986 C 87.200 184.418,87.560 184.965,88.000 185.200 C 88.440 185.435,88.800 185.982,88.800 186.414 C 88.800 186.846,89.005 187.200,89.256 187.200 C 89.507 187.200,89.970 187.515,90.286 187.900 C 90.601 188.285,90.728 188.347,90.568 188.038 C 90.375 187.666,90.434 187.574,90.745 187.766 C 91.002 187.925,91.116 188.212,90.998 188.404 C 90.689 188.904,92.473 190.458,93.086 190.222 C 93.369 190.114,93.623 190.199,93.650 190.413 C 93.678 190.626,93.723 191.010,93.750 191.267 C 93.778 191.523,94.070 191.807,94.400 191.897 C 94.929 192.042,94.930 192.012,94.405 191.648 C 93.917 191.309,93.960 191.247,94.646 191.298 C 95.216 191.341,95.427 191.574,95.308 192.029 C 95.148 192.643,97.507 195.827,97.860 195.473 C 97.945 195.388,97.742 194.797,97.410 194.160 C 97.077 193.522,96.798 193.270,96.790 193.600 C 96.778 194.097,96.710 194.088,96.393 193.545 C 96.163 193.151,96.048 186.750,96.105 177.483 C 96.157 169.009,96.080 162.150,95.934 162.241 C 95.788 162.331,95.577 162.179,95.466 161.902 C 95.309 161.513,95.256 161.518,95.232 161.924 M98.971 196.229 C 99.317 196.574,99.600 197.054,99.600 197.295 C 99.600 197.536,99.705 197.629,99.832 197.501 C 100.156 197.177,99.264 195.600,98.757 195.600 C 98.529 195.600,98.626 195.883,98.971 196.229 M100.970 198.767 C 101.748 199.626,102.400 199.853,102.400 199.264 C 102.400 199.080,101.908 198.704,101.308 198.431 C 100.218 197.934,100.217 197.935,100.970 198.767 M55.838 289.268 C 56.389 289.896,56.434 290.076,56.000 289.919 C 55.470 289.727,55.412 292.526,55.506 313.853 C 55.588 332.539,55.503 337.981,55.130 337.902 C 54.214 337.708,54.335 339.137,55.276 339.631 L 56.200 340.116 55.400 339.183 L 54.600 338.249 55.845 339.113 C 56.530 339.588,57.162 339.937,57.250 339.888 C 57.338 339.840,57.173 340.007,56.883 340.260 C 56.335 340.739,56.860 341.417,59.315 343.400 C 59.860 343.840,60.227 344.335,60.129 344.500 C 60.032 344.665,60.233 344.800,60.576 344.800 C 60.919 344.800,61.200 345.081,61.200 345.424 C 61.200 345.767,61.380 345.936,61.600 345.800 C 61.820 345.664,62.000 345.802,62.000 346.107 C 62.000 346.811,63.769 348.497,64.130 348.137 C 64.278 347.988,64.400 348.171,64.400 348.543 C 64.400 348.915,64.826 349.382,65.347 349.580 C 65.869 349.778,66.634 350.361,67.047 350.876 C 67.461 351.390,68.340 352.216,69.000 352.712 C 70.508 353.844,71.771 354.878,73.778 356.626 C 74.646 357.382,75.501 358.000,75.677 358.000 C 75.854 358.000,76.746 358.704,77.660 359.565 C 78.573 360.425,79.789 361.370,80.360 361.665 C 80.932 361.959,81.800 362.592,82.289 363.071 C 82.778 363.550,83.723 364.264,84.389 364.657 C 85.055 365.051,85.600 365.524,85.600 365.710 C 85.600 365.895,85.780 365.936,86.000 365.800 C 86.220 365.664,86.400 365.773,86.400 366.043 C 86.400 366.313,86.517 366.417,86.659 366.274 C 86.802 366.131,87.243 366.388,87.638 366.844 C 88.034 367.300,88.524 367.570,88.728 367.444 C 88.932 367.318,89.435 367.662,89.845 368.208 C 90.571 369.176,91.517 369.637,90.974 368.759 C 90.824 368.516,91.143 368.606,91.683 368.960 C 92.222 369.314,92.813 369.467,92.996 369.301 C 93.178 369.136,93.220 369.301,93.088 369.670 C 92.685 370.797,94.420 371.679,95.414 370.853 C 96.175 370.221,96.200 369.598,96.200 351.400 L 96.200 332.600 95.247 331.800 C 94.723 331.360,93.817 330.728,93.232 330.396 C 91.712 329.531,89.829 328.005,90.246 327.975 C 90.441 327.961,90.191 327.785,89.691 327.584 C 89.191 327.383,88.664 326.900,88.519 326.510 C 88.375 326.119,87.614 325.263,86.828 324.607 C 84.486 322.650,74.340 312.292,72.400 309.879 C 71.410 308.647,70.390 307.630,70.133 307.619 C 69.876 307.609,69.336 306.885,68.933 306.010 C 68.530 305.136,68.010 304.416,67.777 304.410 C 67.544 304.405,67.050 303.711,66.678 302.868 C 66.306 302.026,65.566 301.103,65.033 300.818 C 64.409 300.484,64.148 300.079,64.301 299.680 C 64.475 299.227,64.361 299.129,63.874 299.316 C 63.509 299.456,63.246 299.443,63.290 299.286 C 63.443 298.739,62.357 297.179,61.985 297.410 C 61.778 297.537,61.716 297.364,61.846 297.024 C 61.985 296.661,61.820 296.306,61.444 296.161 C 61.092 296.027,60.890 295.778,60.994 295.609 C 61.099 295.440,60.648 294.741,59.992 294.055 C 59.336 293.369,58.800 292.618,58.800 292.386 C 58.800 292.154,58.504 292.018,58.141 292.082 C 57.779 292.147,57.406 291.930,57.311 291.600 C 57.158 291.067,57.186 291.067,57.563 291.600 C 57.915 292.097,57.989 292.045,57.994 291.300 C 57.998 290.737,57.759 290.400,57.357 290.400 C 56.941 290.400,56.798 290.182,56.953 289.779 C 57.084 289.438,57.032 289.257,56.837 289.377 C 56.643 289.497,56.381 289.326,56.254 288.998 C 56.128 288.669,55.812 288.400,55.551 288.400 C 55.273 288.400,55.392 288.760,55.838 289.268 M93.594 331.100 C 93.576 331.977,92.812 332.559,92.806 331.700 C 92.803 331.205,92.980 330.800,93.200 330.800 C 93.420 330.800,93.597 330.935,93.594 331.100 M96.800 333.092 C 96.800 333.583,98.344 334.814,98.545 334.484 C 98.640 334.328,98.286 333.877,97.759 333.481 C 97.231 333.086,96.800 332.911,96.800 333.092 M52.202 336.802 C 52.602 337.244,53.011 337.522,53.112 337.421 C 53.328 337.205,52.188 336.000,51.767 336.000 C 51.607 336.000,51.803 336.361,52.202 336.802 M95.500 371.047 C 95.345 371.292,95.575 371.815,96.009 372.209 C 96.461 372.617,96.800 372.726,96.800 372.462 C 96.800 372.208,96.633 372.000,96.429 372.000 C 96.225 372.000,95.996 371.685,95.920 371.300 C 95.831 370.852,95.680 370.761,95.500 371.047 " stroke="none" fill="#1cdcfc" fill-rule="evenodd"/><path id="path3" d="M133.866 10.267 C 133.720 10.414,133.285 10.557,132.900 10.585 C 132.515 10.614,132.128 10.809,132.040 11.018 C 131.952 11.228,131.592 11.614,131.240 11.875 C 130.674 12.295,130.690 12.337,131.378 12.240 C 131.806 12.179,132.227 11.920,132.312 11.663 C 132.398 11.405,132.588 11.263,132.734 11.346 C 132.880 11.430,133.346 11.161,133.770 10.749 C 134.193 10.337,134.448 10.000,134.337 10.000 C 134.225 10.000,134.013 10.120,133.866 10.267 M124.629 13.900 C 124.221 14.285,124.013 14.375,124.167 14.100 C 124.560 13.399,123.802 13.474,123.204 14.196 C 122.932 14.523,122.562 14.700,122.382 14.589 C 122.202 14.478,121.925 14.598,121.766 14.855 C 121.573 15.167,121.651 15.216,122.000 15.000 C 122.318 14.803,122.426 14.834,122.276 15.077 C 122.140 15.298,121.527 15.451,120.914 15.418 C 120.301 15.385,119.451 15.682,119.025 16.079 C 118.598 16.475,117.743 16.800,117.125 16.800 C 116.506 16.800,116.000 16.948,116.000 17.129 C 116.000 17.309,115.055 17.864,113.900 18.362 C 110.625 19.773,110.000 20.110,110.000 20.468 C 110.000 20.650,109.640 20.800,109.200 20.800 C 108.760 20.800,108.400 20.980,108.400 21.200 C 108.400 21.420,108.085 21.604,107.700 21.609 C 107.315 21.614,106.550 21.970,106.000 22.400 C 105.450 22.830,104.674 23.186,104.276 23.191 C 103.878 23.196,103.664 23.380,103.800 23.600 C 103.936 23.820,103.666 24.000,103.200 24.000 C 102.723 24.000,102.464 24.179,102.606 24.410 C 102.745 24.635,102.711 24.794,102.530 24.763 C 101.576 24.597,100.382 24.848,100.582 25.171 C 100.708 25.375,100.448 25.658,100.004 25.799 C 99.560 25.940,98.916 26.538,98.573 27.127 C 98.230 27.717,98.045 27.885,98.162 27.500 C 98.279 27.115,98.228 26.800,98.049 26.800 C 97.501 26.800,96.000 28.262,96.000 28.796 C 96.000 29.120,95.816 29.174,95.481 28.949 C 95.196 28.757,95.241 28.870,95.581 29.200 C 96.125 29.727,96.187 32.010,96.096 48.000 C 95.981 68.037,95.959 67.718,97.368 66.197 C 97.903 65.619,98.445 65.158,98.571 65.173 C 99.644 65.299,100.130 65.038,100.715 64.019 C 101.088 63.370,101.777 62.742,102.247 62.624 C 102.716 62.506,103.798 61.782,104.650 61.014 C 105.503 60.247,106.526 59.614,106.924 59.609 C 107.322 59.604,107.536 59.420,107.400 59.200 C 107.264 58.980,107.484 58.800,107.888 58.800 C 108.293 58.800,108.876 58.450,109.185 58.021 C 109.493 57.593,109.870 57.319,110.021 57.413 C 110.173 57.507,110.703 57.231,111.200 56.800 C 111.697 56.369,112.260 56.113,112.452 56.232 C 112.643 56.350,112.800 56.278,112.800 56.071 C 112.800 55.865,113.790 55.194,115.000 54.582 C 116.210 53.970,117.200 53.308,117.200 53.111 C 117.200 52.914,117.380 52.864,117.600 53.000 C 117.820 53.136,118.000 53.071,118.000 52.855 C 118.000 52.640,118.564 52.340,119.253 52.188 C 120.175 51.986,120.360 51.820,119.953 51.563 C 119.557 51.312,119.706 51.211,120.480 51.206 C 121.082 51.203,121.741 50.890,121.968 50.500 C 122.192 50.115,122.381 49.943,122.388 50.117 C 122.395 50.291,123.210 49.959,124.200 49.379 C 125.190 48.799,126.000 48.459,126.000 48.624 C 126.000 48.789,126.360 48.598,126.800 48.200 C 127.240 47.802,127.600 47.630,127.600 47.818 C 127.600 48.006,127.816 47.944,128.080 47.680 C 128.344 47.416,128.970 47.200,129.471 47.200 C 130.389 47.200,131.945 45.412,131.454 44.921 C 131.314 44.781,131.200 44.887,131.200 45.157 C 131.200 45.427,131.040 45.549,130.845 45.428 C 130.650 45.307,130.515 45.518,130.545 45.897 C 130.581 46.345,130.289 46.603,129.709 46.637 L 128.817 46.690 128.909 30.030 L 129.000 13.370 127.600 13.385 C 126.723 13.394,126.236 13.581,126.295 13.886 C 126.350 14.165,126.139 14.275,125.797 14.144 C 125.471 14.019,125.304 13.755,125.426 13.558 C 125.775 12.993,125.437 13.138,124.629 13.900 M92.973 29.804 C 92.298 30.101,91.488 30.657,91.173 31.041 C 90.630 31.703,90.654 31.705,91.632 31.068 C 92.199 30.699,92.784 30.518,92.932 30.665 C 93.079 30.813,93.200 30.704,93.200 30.424 C 93.200 30.135,93.460 30.014,93.800 30.145 C 94.165 30.285,94.400 30.145,94.400 29.787 C 94.400 29.464,94.355 29.215,94.300 29.233 C 94.245 29.251,93.648 29.508,92.973 29.804 M125.776 47.787 C 124.770 48.549,124.222 48.566,124.884 47.815 C 125.168 47.494,125.659 47.224,125.976 47.215 C 126.382 47.205,126.322 47.374,125.776 47.787 M92.806 68.300 C 92.803 68.795,92.980 69.200,93.200 69.200 C 93.701 69.200,93.701 68.776,93.200 68.000 C 92.886 67.515,92.811 67.572,92.806 68.300 M88.792 73.010 C 88.514 73.345,88.366 73.700,88.464 73.798 C 88.562 73.896,88.946 73.621,89.317 73.188 C 89.689 72.755,89.836 72.400,89.645 72.400 C 89.454 72.400,89.070 72.674,88.792 73.010 M97.117 161.100 C 96.872 161.395,96.431 161.544,96.136 161.431 C 95.832 161.314,95.600 161.490,95.600 161.836 C 95.600 162.172,95.735 162.364,95.900 162.262 C 96.065 162.160,96.157 169.009,96.105 177.483 C 96.048 186.750,96.163 193.151,96.393 193.545 C 96.711 194.090,96.780 194.099,96.802 193.600 C 96.817 193.270,97.188 193.765,97.626 194.700 C 98.065 195.635,98.643 196.397,98.912 196.394 C 99.222 196.390,99.181 196.246,98.800 196.000 C 98.348 195.708,98.332 195.611,98.735 195.606 C 99.029 195.603,99.471 196.133,99.717 196.786 C 99.974 197.466,100.650 198.172,101.303 198.443 C 101.970 198.719,102.359 199.131,102.241 199.437 C 102.131 199.724,102.387 200.069,102.810 200.203 C 103.233 200.337,103.949 200.966,104.400 201.600 C 104.851 202.234,105.576 202.865,106.010 203.003 C 106.445 203.141,106.800 203.542,106.800 203.894 C 106.800 204.245,106.904 204.429,107.032 204.302 C 107.159 204.174,108.302 205.134,109.571 206.435 C 110.840 207.736,112.115 208.800,112.406 208.800 C 112.696 208.800,112.819 208.915,112.679 209.055 C 112.417 209.316,115.963 212.788,116.500 212.796 C 116.665 212.798,116.800 213.070,116.800 213.400 C 116.800 213.730,116.953 214.000,117.140 214.000 C 117.328 214.000,118.434 214.900,119.600 216.000 C 120.766 217.100,121.872 218.000,122.060 218.000 C 122.247 218.000,122.400 218.245,122.400 218.545 C 122.400 218.903,122.775 219.045,123.500 218.959 C 124.105 218.887,124.275 218.927,123.878 219.048 C 122.956 219.328,124.455 220.800,125.661 220.800 C 126.307 220.800,126.612 221.460,126.447 222.500 C 126.421 222.665,126.596 222.800,126.836 222.800 C 127.076 222.800,127.610 223.205,128.023 223.700 C 128.568 224.353,128.780 224.436,128.797 224.000 C 128.810 223.670,128.816 213.805,128.811 202.077 C 128.804 186.083,128.917 180.825,129.263 181.039 C 129.555 181.219,129.615 181.147,129.426 180.842 C 129.197 180.471,128.987 180.479,128.507 180.877 C 127.967 181.325,127.922 181.275,128.169 180.497 C 128.385 179.819,128.295 179.600,127.803 179.600 C 127.446 179.600,127.264 179.780,127.400 180.000 C 127.536 180.220,127.457 180.400,127.224 180.400 C 126.655 180.400,126.689 179.880,127.300 179.221 C 127.700 178.790,127.700 178.739,127.300 178.965 C 127.005 179.132,126.800 179.020,126.800 178.693 C 126.800 178.020,125.141 176.400,124.451 176.400 C 124.177 176.400,124.044 176.252,124.156 176.071 C 124.383 175.704,123.010 174.400,122.395 174.400 C 122.178 174.400,122.000 174.160,122.000 173.868 C 122.000 173.575,121.556 173.098,121.014 172.807 C 120.471 172.517,120.092 172.172,120.172 172.040 C 120.382 171.690,119.329 170.804,119.043 171.091 C 118.909 171.224,118.800 171.064,118.800 170.734 C 118.800 170.405,118.365 169.902,117.834 169.618 C 117.302 169.334,116.778 168.758,116.668 168.339 C 116.559 167.920,116.318 167.623,116.134 167.680 C 115.951 167.737,114.720 166.753,113.400 165.494 C 112.080 164.235,110.848 163.204,110.662 163.203 C 110.476 163.201,109.802 162.829,109.165 162.375 C 108.529 161.922,107.601 161.530,107.104 161.505 C 106.607 161.479,105.975 161.288,105.700 161.080 C 104.872 160.454,97.639 160.471,97.117 161.100 M93.342 162.586 C 92.881 162.908,92.404 163.070,92.280 162.946 C 92.156 162.822,92.153 163.099,92.274 163.560 C 92.395 164.022,92.663 164.400,92.870 164.400 C 93.078 164.400,93.136 164.220,93.000 164.000 C 92.864 163.780,92.954 163.600,93.200 163.600 C 93.446 163.600,93.517 163.389,93.358 163.132 C 93.164 162.817,93.287 162.748,93.734 162.919 C 94.169 163.086,94.400 162.971,94.400 162.587 C 94.400 161.863,94.373 161.863,93.342 162.586 M130.400 182.013 C 130.400 182.226,130.605 182.400,130.856 182.400 C 131.107 182.400,131.567 182.715,131.878 183.100 C 132.395 183.739,132.408 183.725,132.033 182.947 C 131.598 182.043,130.400 181.358,130.400 182.013 M132.278 184.256 C 131.851 184.682,132.397 185.200,133.273 185.200 C 133.961 185.200,134.015 185.100,133.600 184.600 C 133.062 183.952,132.681 183.853,132.278 184.256 M92.992 190.413 C 92.862 190.624,93.209 191.004,93.765 191.257 C 94.320 191.510,94.693 191.850,94.592 192.013 C 94.491 192.176,94.632 192.494,94.904 192.721 C 95.274 193.028,95.400 192.897,95.400 192.204 C 95.400 191.694,95.272 191.356,95.115 191.453 C 94.958 191.550,94.469 191.269,94.029 190.829 C 93.587 190.387,93.123 190.201,92.992 190.413 M129.874 225.459 C 129.596 225.737,131.165 227.284,131.563 227.125 C 131.736 227.056,131.473 226.607,130.979 226.126 C 130.485 225.645,129.988 225.345,129.874 225.459 M88.400 326.281 C 88.400 326.743,89.535 327.809,89.758 327.557 C 89.834 327.471,89.560 327.054,89.148 326.630 C 88.737 326.207,88.400 326.049,88.400 326.281 M92.806 331.700 C 92.811 332.428,92.886 332.485,93.200 332.000 C 93.701 331.224,93.701 330.800,93.200 330.800 C 92.980 330.800,92.803 331.205,92.806 331.700 M96.192 333.276 C 96.082 333.564,96.038 341.990,96.096 352.000 C 96.187 367.990,96.125 370.273,95.581 370.800 C 95.241 371.130,95.196 371.243,95.481 371.051 C 95.816 370.826,96.000 370.880,96.000 371.204 C 96.000 371.738,97.501 373.200,98.049 373.200 C 98.228 373.200,98.279 372.885,98.162 372.500 C 98.045 372.115,98.230 372.283,98.573 372.873 C 98.916 373.462,99.560 374.060,100.004 374.201 C 100.448 374.342,100.708 374.625,100.582 374.829 C 100.382 375.152,101.576 375.403,102.530 375.237 C 102.711 375.206,102.745 375.365,102.606 375.590 C 102.464 375.821,102.723 376.000,103.200 376.000 C 103.666 376.000,103.936 376.180,103.800 376.400 C 103.664 376.620,103.878 376.804,104.276 376.809 C 104.674 376.814,105.450 377.170,106.000 377.600 C 106.550 378.030,107.315 378.386,107.700 378.391 C 108.085 378.396,108.400 378.580,108.400 378.800 C 108.400 379.020,108.760 379.200,109.200 379.200 C 109.640 379.200,110.000 379.350,110.000 379.532 C 110.000 379.890,110.625 380.227,113.900 381.638 C 115.055 382.136,116.000 382.691,116.000 382.871 C 116.000 383.052,116.506 383.200,117.125 383.200 C 117.743 383.200,118.598 383.525,119.025 383.921 C 119.451 384.318,120.301 384.615,120.914 384.582 C 121.527 384.549,122.140 384.702,122.276 384.923 C 122.426 385.166,122.318 385.197,122.000 385.000 C 121.651 384.784,121.573 384.833,121.766 385.145 C 121.925 385.402,122.202 385.522,122.382 385.411 C 122.562 385.300,122.932 385.477,123.204 385.804 C 123.802 386.525,124.565 386.602,124.155 385.900 C 123.994 385.625,124.284 385.760,124.800 386.200 C 125.316 386.640,125.618 386.794,125.471 386.542 C 125.325 386.290,125.471 385.981,125.797 385.856 C 126.139 385.725,126.350 385.835,126.295 386.114 C 126.236 386.419,126.723 386.606,127.600 386.615 L 129.000 386.630 128.909 369.970 L 128.817 353.310 129.709 353.363 C 130.289 353.397,130.581 353.655,130.545 354.103 C 130.515 354.482,130.650 354.693,130.845 354.572 C 131.040 354.451,131.200 354.573,131.200 354.843 C 131.200 355.113,131.314 355.219,131.454 355.079 C 131.945 354.588,130.389 352.800,129.471 352.800 C 128.970 352.800,128.344 352.584,128.080 352.320 C 127.816 352.056,127.600 351.994,127.600 352.182 C 127.600 352.370,127.240 352.198,126.800 351.800 C 126.360 351.402,126.000 351.211,126.000 351.376 C 126.000 351.541,125.190 351.201,124.200 350.621 C 123.210 350.041,122.395 349.709,122.388 349.883 C 122.381 350.057,122.192 349.885,121.968 349.500 C 121.741 349.110,121.082 348.797,120.480 348.794 C 119.706 348.789,119.557 348.688,119.953 348.437 C 120.360 348.180,120.175 348.014,119.253 347.812 C 118.564 347.660,118.000 347.360,118.000 347.145 C 118.000 346.929,117.820 346.864,117.600 347.000 C 117.380 347.136,117.200 347.086,117.200 346.889 C 117.200 346.692,116.210 346.030,115.000 345.418 C 113.790 344.806,112.800 344.135,112.800 343.929 C 112.800 343.722,112.643 343.650,112.452 343.768 C 112.260 343.887,111.697 343.631,111.200 343.200 C 110.703 342.769,110.173 342.493,110.021 342.587 C 109.870 342.681,109.493 342.407,109.185 341.979 C 108.876 341.550,108.293 341.200,107.888 341.200 C 107.484 341.200,107.264 341.020,107.400 340.800 C 107.536 340.580,107.322 340.396,106.924 340.391 C 106.526 340.386,105.503 339.753,104.650 338.986 C 103.798 338.218,102.716 337.494,102.247 337.376 C 101.777 337.258,101.088 336.630,100.715 335.981 C 100.139 334.977,99.256 334.518,98.639 334.900 C 98.550 334.955,98.008 334.494,97.435 333.876 C 96.709 333.093,96.332 332.911,96.192 333.276 M125.776 352.213 C 126.212 352.542,126.331 352.800,126.048 352.800 C 125.770 352.800,125.273 352.530,124.943 352.200 C 124.176 351.433,124.758 351.442,125.776 352.213 M91.400 369.079 C 92.626 370.268,94.400 370.933,94.400 370.204 C 94.400 369.854,94.163 369.716,93.800 369.855 C 93.460 369.986,93.200 369.865,93.200 369.576 C 93.200 369.296,93.079 369.187,92.932 369.335 C 92.784 369.482,92.199 369.310,91.632 368.953 C 90.607 368.308,90.605 368.309,91.400 369.079 M131.400 388.243 C 131.840 388.568,132.173 388.962,132.140 389.117 C 132.107 389.273,132.249 389.353,132.456 389.295 C 132.663 389.237,133.230 389.395,133.716 389.646 L 134.600 390.104 133.800 389.303 C 133.360 388.863,132.880 388.570,132.734 388.654 C 132.588 388.737,132.398 388.595,132.312 388.337 C 132.227 388.080,131.806 387.821,131.378 387.760 C 130.621 387.654,130.622 387.667,131.400 388.243 " stroke="none" fill="#22d3fc" fill-rule="evenodd"/><path id="path4" d="M178.700 0.305 C 176.550 0.373,174.800 0.602,174.800 0.814 C 174.800 1.027,173.467 1.200,171.824 1.200 C 170.187 1.200,168.736 1.380,168.600 1.600 C 168.464 1.820,167.363 2.000,166.153 2.000 C 164.788 2.000,164.047 2.152,164.200 2.400 C 164.353 2.648,163.604 2.800,162.224 2.800 C 161.001 2.800,160.000 2.962,160.000 3.160 C 160.000 3.358,159.190 3.628,158.200 3.760 C 157.210 3.892,155.590 4.108,154.600 4.240 C 153.610 4.372,152.800 4.642,152.800 4.840 C 152.800 5.038,152.091 5.200,151.224 5.200 C 150.357 5.200,149.536 5.380,149.400 5.600 C 149.264 5.820,148.659 6.000,148.056 6.000 C 147.453 6.000,146.786 6.174,146.573 6.387 C 146.361 6.599,145.605 6.817,144.893 6.872 C 144.182 6.926,143.600 7.112,143.600 7.285 C 143.600 7.458,142.985 7.600,142.233 7.600 C 141.482 7.600,140.807 7.778,140.733 7.997 C 140.660 8.215,140.105 8.434,139.500 8.484 C 138.895 8.534,138.400 8.715,138.400 8.887 C 138.400 9.059,137.965 9.200,137.433 9.200 C 136.902 9.200,136.407 9.374,136.333 9.587 C 136.260 9.800,135.627 10.018,134.928 10.070 C 134.228 10.123,133.762 10.339,133.893 10.551 C 134.028 10.769,133.852 10.829,133.486 10.688 C 133.003 10.503,132.905 10.611,133.095 11.120 C 133.299 11.664,133.235 11.711,132.775 11.354 C 132.024 10.772,129.962 11.074,129.200 11.879 C 128.743 12.362,128.734 12.437,129.162 12.195 C 129.539 11.981,129.629 12.029,129.436 12.341 C 129.278 12.597,128.730 12.730,128.219 12.638 C 127.707 12.545,126.831 12.706,126.273 12.996 C 125.714 13.286,125.179 13.446,125.085 13.352 C 124.991 13.258,124.672 13.500,124.376 13.890 C 123.924 14.487,123.925 14.523,124.381 14.119 C 124.759 13.783,125.148 13.758,125.667 14.036 C 126.221 14.332,126.384 14.302,126.306 13.917 C 126.236 13.575,126.673 13.395,127.600 13.385 L 129.000 13.370 128.909 30.030 L 128.817 46.690 129.709 46.637 C 130.289 46.603,130.581 46.345,130.545 45.897 C 130.515 45.518,130.635 45.298,130.811 45.407 C 130.987 45.516,131.235 45.379,131.362 45.102 C 131.489 44.826,131.492 45.005,131.369 45.500 C 131.117 46.517,131.661 46.691,132.380 45.824 C 132.643 45.507,133.160 45.344,133.529 45.462 C 134.049 45.627,134.077 45.588,133.657 45.288 C 133.011 44.826,133.502 44.456,134.540 44.622 C 134.947 44.688,135.898 44.394,136.652 43.971 C 137.407 43.547,138.469 43.200,139.012 43.200 C 139.555 43.200,140.000 43.020,140.000 42.800 C 140.000 42.580,140.270 42.400,140.600 42.400 C 140.930 42.400,141.200 42.220,141.200 42.000 C 141.200 41.780,141.729 41.600,142.376 41.600 C 143.023 41.600,143.664 41.420,143.800 41.200 C 143.936 40.980,144.487 40.800,145.024 40.800 C 145.561 40.800,146.000 40.630,146.000 40.423 C 146.000 40.216,146.348 40.113,146.774 40.195 C 147.200 40.277,147.741 40.112,147.977 39.828 C 148.213 39.544,148.854 39.398,149.403 39.503 C 150.008 39.618,150.400 39.509,150.400 39.223 C 150.400 38.964,150.568 38.856,150.772 38.983 C 150.977 39.109,151.260 39.027,151.400 38.800 C 151.540 38.573,151.792 38.472,151.959 38.575 C 152.127 38.678,153.088 38.515,154.095 38.212 C 155.103 37.908,156.033 37.767,156.163 37.897 C 156.294 38.027,156.400 37.923,156.400 37.667 C 156.400 37.389,157.048 37.200,158.000 37.200 C 158.880 37.200,159.600 37.020,159.600 36.800 C 159.600 36.580,160.309 36.400,161.176 36.400 C 162.043 36.400,162.864 36.220,163.000 36.000 C 163.136 35.780,164.011 35.600,164.944 35.600 C 165.877 35.600,166.811 35.434,167.020 35.232 C 167.229 35.029,168.210 34.818,169.200 34.761 C 170.190 34.705,171.182 34.524,171.405 34.359 C 171.628 34.194,172.798 33.942,174.005 33.799 C 175.212 33.655,177.460 33.366,179.000 33.157 C 180.540 32.948,184.185 32.674,187.100 32.549 C 190.015 32.424,192.400 32.198,192.400 32.046 C 192.400 31.895,192.747 31.771,193.171 31.771 C 193.594 31.771,193.865 31.894,193.773 32.044 C 193.569 32.373,196.578 32.213,198.063 31.816 C 198.647 31.660,199.462 31.712,199.873 31.932 C 200.341 32.182,200.869 32.193,201.284 31.961 C 201.648 31.757,202.035 31.732,202.142 31.906 C 202.394 32.313,205.661 32.257,206.346 31.833 C 206.641 31.651,207.065 31.705,207.315 31.955 C 207.990 32.630,208.724 32.490,209.203 31.594 C 209.534 30.975,209.515 30.813,209.117 30.894 C 208.409 31.039,208.141 1.607,208.846 1.171 C 209.097 1.016,209.179 0.689,209.028 0.445 C 208.700 -0.085,207.600 -0.153,207.600 0.357 C 207.600 0.554,207.305 0.828,206.943 0.966 C 206.394 1.177,206.370 1.118,206.792 0.609 C 207.217 0.097,207.167 0.000,206.482 0.000 C 206.034 0.000,205.576 0.225,205.465 0.500 C 205.312 0.879,205.256 0.882,205.232 0.513 C 205.201 0.045,190.468 -0.070,178.700 0.305 M132.312 11.665 C 132.226 11.921,131.806 12.179,131.378 12.240 C 130.608 12.348,130.608 12.343,131.376 11.775 C 132.317 11.078,132.515 11.055,132.312 11.665 M121.171 15.035 C 120.866 15.402,120.922 15.511,121.382 15.444 C 122.287 15.311,122.992 14.533,122.207 14.533 C 121.866 14.533,121.400 14.759,121.171 15.035 M209.990 31.618 C 209.586 32.374,209.615 32.397,210.376 31.922 C 211.242 31.381,211.469 30.800,210.814 30.800 C 210.602 30.800,210.231 31.168,209.990 31.618 M124.884 47.815 C 124.222 48.566,124.770 48.549,125.776 47.787 C 126.322 47.374,126.382 47.205,125.976 47.215 C 125.659 47.224,125.168 47.494,124.884 47.815 M126.900 179.400 C 126.900 179.950,127.068 180.400,127.274 180.400 C 127.479 180.400,127.545 180.235,127.421 180.034 C 127.297 179.833,127.408 179.597,127.668 179.511 C 127.929 179.424,128.009 179.138,127.847 178.876 C 127.358 178.085,126.900 178.339,126.900 179.400 M128.267 180.267 C 127.848 180.685,127.955 181.275,128.400 181.000 C 128.620 180.864,128.800 180.898,128.801 181.076 C 128.809 185.317,128.817 223.555,128.810 223.924 C 128.804 224.217,128.597 224.321,128.338 224.162 C 128.052 223.985,127.985 224.052,128.162 224.338 C 128.319 224.592,128.707 224.800,129.024 224.800 C 129.341 224.800,129.600 224.991,129.600 225.224 C 129.600 225.457,129.735 225.570,129.900 225.476 C 130.065 225.382,130.599 225.719,131.086 226.224 C 131.690 226.851,131.817 227.205,131.486 227.340 C 131.170 227.468,131.210 227.548,131.600 227.569 C 131.930 227.587,132.877 228.321,133.705 229.201 C 134.533 230.080,135.398 230.800,135.628 230.800 C 135.859 230.800,135.917 231.011,135.758 231.268 C 135.564 231.582,135.686 231.652,136.130 231.482 C 136.607 231.299,136.861 231.503,137.039 232.211 C 137.174 232.752,137.419 233.112,137.582 233.011 C 137.864 232.837,139.600 234.566,139.600 235.019 C 139.600 235.241,140.959 236.553,145.380 240.600 C 146.822 241.920,150.501 245.430,153.555 248.400 C 156.609 251.370,160.506 255.060,162.216 256.600 C 163.925 258.140,166.961 260.993,168.962 262.941 C 170.963 264.888,173.275 266.915,174.100 267.446 C 174.925 267.976,175.600 268.549,175.600 268.719 C 175.600 268.889,176.185 269.367,176.900 269.782 C 177.615 270.198,178.346 270.780,178.525 271.077 C 178.703 271.374,178.998 271.525,179.179 271.413 C 179.361 271.301,179.732 271.477,180.004 271.804 C 180.276 272.132,180.711 272.400,180.970 272.400 C 181.230 272.400,182.333 272.819,183.421 273.332 C 186.083 274.586,188.032 275.200,189.352 275.200 C 189.954 275.200,190.348 275.360,190.227 275.557 C 189.695 276.417,203.434 277.130,204.948 276.320 C 205.360 276.100,205.602 276.073,205.487 276.260 C 205.372 276.447,205.890 276.645,206.639 276.700 C 208.075 276.805,208.440 276.286,207.356 275.679 C 206.768 275.351,206.770 275.297,207.377 275.064 C 207.767 274.914,207.941 274.972,207.797 275.205 C 207.663 275.422,207.968 275.597,208.476 275.594 C 209.106 275.590,209.237 275.484,208.887 275.262 C 208.481 275.004,208.398 271.409,208.487 257.868 C 208.549 248.481,208.493 240.800,208.362 240.800 C 207.865 240.800,206.732 242.367,206.961 242.737 C 207.099 242.961,206.862 243.037,206.401 242.916 C 205.922 242.791,205.600 242.904,205.600 243.196 C 205.600 243.467,205.332 243.583,205.000 243.455 C 204.579 243.294,204.398 243.489,204.394 244.113 C 204.389 244.752,204.293 244.851,204.049 244.466 C 203.863 244.172,203.641 243.963,203.555 244.001 C 202.778 244.349,199.938 244.623,199.779 244.365 C 199.666 244.184,199.318 244.133,199.005 244.253 C 198.522 244.439,195.416 243.056,194.800 242.381 C 194.690 242.260,194.005 241.745,193.277 241.237 C 192.549 240.729,192.046 240.221,192.158 240.109 C 192.270 239.997,191.605 239.276,190.681 238.508 C 189.756 237.740,188.940 236.951,188.867 236.756 C 188.793 236.560,188.468 236.400,188.143 236.400 C 187.818 236.400,187.625 236.265,187.713 236.100 C 187.801 235.935,186.731 234.708,185.336 233.374 C 183.941 232.040,182.800 230.973,182.800 231.003 C 182.800 231.139,175.744 224.471,170.445 219.326 C 167.230 216.206,163.970 213.085,163.200 212.392 C 162.430 211.699,160.764 210.157,159.497 208.966 C 158.230 207.775,156.985 206.800,156.730 206.800 C 156.475 206.800,156.371 206.696,156.498 206.568 C 156.698 206.369,154.311 203.917,149.820 199.706 C 149.171 199.098,148.483 198.649,148.290 198.710 C 148.098 198.770,148.055 198.634,148.196 198.407 C 148.336 198.180,148.138 197.874,147.756 197.728 C 147.020 197.445,145.600 196.157,145.600 195.771 C 145.600 195.163,144.458 194.422,144.264 194.904 C 144.112 195.278,144.055 195.270,144.032 194.871 C 144.002 194.378,142.800 192.895,142.800 193.352 C 142.800 193.468,141.900 192.662,140.800 191.562 C 139.700 190.462,138.797 189.345,138.794 189.081 C 138.790 188.786,138.638 188.832,138.400 189.200 C 138.072 189.708,138.011 189.688,138.006 189.071 C 137.999 188.167,136.945 187.063,136.408 187.395 C 136.177 187.538,136.110 187.379,136.247 187.021 C 136.460 186.466,136.044 186.225,135.346 186.500 C 135.206 186.555,134.943 186.198,134.761 185.707 C 134.546 185.124,134.217 184.895,133.815 185.049 C 132.899 185.401,131.763 184.877,132.293 184.347 C 132.743 183.897,131.595 182.400,130.800 182.400 C 130.580 182.400,130.400 182.209,130.400 181.976 C 130.400 181.743,130.625 181.680,130.900 181.835 C 131.240 182.027,131.272 181.983,131.000 181.698 C 130.780 181.467,130.240 181.204,129.800 181.115 C 129.360 181.026,129.045 180.738,129.100 180.476 C 129.208 179.962,128.700 179.834,128.267 180.267 M124.908 220.982 C 125.288 221.260,125.600 221.663,125.600 221.877 C 125.600 222.092,125.845 222.267,126.145 222.267 C 127.125 222.267,126.367 220.887,125.271 220.678 C 124.340 220.499,124.297 220.535,124.908 220.982 M230.487 263.609 C 230.019 264.359,230.041 264.381,230.791 263.913 C 231.236 263.635,231.600 263.271,231.600 263.104 C 231.600 262.526,230.991 262.803,230.487 263.609 M213.002 274.403 C 213.114 274.584,212.979 274.811,212.702 274.908 C 212.426 275.005,212.695 275.088,213.300 275.092 C 214.578 275.101,214.768 274.589,213.599 274.284 C 213.159 274.169,212.890 274.222,213.002 274.403 M124.943 352.200 C 125.273 352.530,125.770 352.800,126.048 352.800 C 126.331 352.800,126.212 352.542,125.776 352.213 C 124.758 351.442,124.176 351.433,124.943 352.200 M128.909 369.970 L 129.000 386.630 127.600 386.615 C 126.673 386.605,126.236 386.425,126.306 386.083 C 126.384 385.698,126.221 385.668,125.667 385.964 C 125.148 386.242,124.759 386.217,124.381 385.881 C 123.925 385.477,123.924 385.513,124.376 386.110 C 124.672 386.500,124.991 386.742,125.085 386.648 C 125.179 386.554,125.714 386.714,126.273 387.004 C 126.831 387.294,127.707 387.455,128.219 387.362 C 128.730 387.270,129.278 387.403,129.436 387.659 C 129.629 387.971,129.539 388.019,129.162 387.805 C 128.734 387.563,128.743 387.638,129.200 388.121 C 129.962 388.926,132.024 389.228,132.775 388.646 C 133.235 388.289,133.299 388.336,133.095 388.880 C 132.905 389.389,133.003 389.497,133.486 389.312 C 133.852 389.171,134.028 389.231,133.893 389.449 C 133.762 389.661,134.228 389.877,134.928 389.930 C 135.627 389.982,136.260 390.200,136.333 390.413 C 136.407 390.626,136.902 390.800,137.433 390.800 C 137.965 390.800,138.400 390.941,138.400 391.113 C 138.400 391.285,138.895 391.466,139.500 391.516 C 140.105 391.566,140.660 391.785,140.733 392.003 C 140.807 392.222,141.482 392.400,142.233 392.400 C 142.985 392.400,143.600 392.542,143.600 392.715 C 143.600 392.888,144.182 393.074,144.893 393.128 C 145.605 393.183,146.361 393.401,146.573 393.613 C 146.786 393.826,147.453 394.000,148.056 394.000 C 148.659 394.000,149.264 394.180,149.400 394.400 C 149.536 394.620,150.357 394.800,151.224 394.800 C 152.091 394.800,152.800 394.962,152.800 395.160 C 152.800 395.498,153.381 395.616,158.100 396.232 C 159.145 396.369,160.000 396.642,160.000 396.840 C 160.000 397.038,161.001 397.200,162.224 397.200 C 163.604 397.200,164.353 397.352,164.200 397.600 C 164.047 397.848,164.788 398.000,166.153 398.000 C 167.363 398.000,168.464 398.180,168.600 398.400 C 168.736 398.620,170.172 398.800,171.790 398.800 C 173.637 398.800,174.790 398.970,174.885 399.256 C 175.125 399.974,206.265 400.234,207.600 399.528 L 208.600 399.000 208.495 383.872 C 208.391 368.887,208.398 368.745,209.193 368.998 C 209.835 369.202,209.942 369.114,209.730 368.561 C 209.535 368.053,209.605 367.956,209.994 368.196 C 210.305 368.388,210.427 368.367,210.290 368.145 C 209.916 367.540,204.816 367.491,204.083 368.085 C 203.560 368.508,203.503 368.505,203.767 368.067 C 204.151 367.429,202.406 367.551,201.870 368.200 C 201.654 368.460,201.471 368.433,201.343 368.120 C 201.200 367.771,200.859 367.749,200.089 368.042 C 199.507 368.263,198.574 368.322,198.016 368.172 C 196.571 367.784,193.572 367.632,193.773 367.956 C 193.865 368.106,193.594 368.229,193.171 368.229 C 192.747 368.229,192.400 368.105,192.400 367.954 C 192.400 367.802,190.015 367.576,187.100 367.451 C 184.185 367.326,180.540 367.052,179.000 366.843 C 177.460 366.634,175.212 366.345,174.005 366.201 C 172.798 366.058,171.628 365.806,171.405 365.641 C 171.182 365.476,170.190 365.295,169.200 365.239 C 168.210 365.182,167.229 364.971,167.020 364.768 C 166.811 364.566,165.877 364.400,164.944 364.400 C 164.011 364.400,163.136 364.220,163.000 364.000 C 162.864 363.780,162.043 363.600,161.176 363.600 C 160.309 363.600,159.600 363.420,159.600 363.200 C 159.600 362.980,158.880 362.800,158.000 362.800 C 157.048 362.800,156.400 362.611,156.400 362.333 C 156.400 362.077,156.294 361.973,156.163 362.103 C 156.033 362.233,155.103 362.092,154.095 361.788 C 153.088 361.485,152.127 361.322,151.959 361.425 C 151.792 361.528,151.540 361.427,151.400 361.200 C 151.260 360.973,150.977 360.891,150.772 361.017 C 150.568 361.144,150.400 361.036,150.400 360.777 C 150.400 360.491,150.008 360.382,149.403 360.497 C 148.854 360.602,148.213 360.456,147.977 360.172 C 147.741 359.888,147.200 359.723,146.774 359.805 C 146.348 359.887,146.000 359.784,146.000 359.577 C 146.000 359.370,145.561 359.200,145.024 359.200 C 144.487 359.200,143.936 359.020,143.800 358.800 C 143.664 358.580,143.023 358.400,142.376 358.400 C 141.729 358.400,141.200 358.220,141.200 358.000 C 141.200 357.780,140.930 357.600,140.600 357.600 C 140.270 357.600,140.000 357.420,140.000 357.200 C 140.000 356.980,139.555 356.800,139.012 356.800 C 138.469 356.800,137.407 356.453,136.652 356.029 C 135.898 355.606,134.947 355.312,134.540 355.378 C 133.502 355.544,133.011 355.174,133.657 354.712 C 134.077 354.412,134.049 354.373,133.529 354.538 C 133.160 354.656,132.643 354.493,132.380 354.176 C 131.661 353.309,131.117 353.483,131.369 354.500 C 131.492 354.995,131.489 355.174,131.362 354.898 C 131.235 354.621,130.987 354.484,130.811 354.593 C 130.635 354.702,130.515 354.482,130.545 354.103 C 130.581 353.655,130.289 353.397,129.709 353.363 L 128.817 353.310 128.909 369.970 M211.900 367.865 C 212.175 367.976,212.403 368.367,212.406 368.733 C 212.411 369.294,212.471 369.307,212.780 368.819 C 213.244 368.086,212.951 367.591,212.076 367.632 C 211.660 367.651,211.592 367.741,211.900 367.865 M121.144 384.904 C 121.390 385.150,121.887 385.395,122.248 385.448 C 122.733 385.519,122.787 385.427,122.456 385.096 C 122.210 384.850,121.713 384.605,121.352 384.552 C 120.867 384.481,120.813 384.573,121.144 384.904 M132.325 388.374 C 132.455 388.766,132.305 388.777,131.646 388.425 C 130.625 387.878,130.562 387.636,131.478 387.770 C 131.851 387.825,132.232 388.097,132.325 388.374 " stroke="none" fill="#2cccfc" fill-rule="evenodd"/></g></svg>