<svg xmlns="http://www.w3.org/2000/svg" id="svg" width="400" height="400" viewBox="0 0 400 400"><g id="svgg" fill-rule="evenodd" stroke="none"><path id="path0" fill="#ace3db" d="M212 119.6c0 1.067-.044 1.2-.4 1.2-.362 0-.4.133-.4 1.4 0 .8-.086 1.4-.2 1.4s-.2.6-.2 1.4-.086 1.4-.2 1.4c-.11 0-.2.36-.2.8s-.09.8-.2.8-.2.36-.2.8-.08.8-.178.8c-.175 0-.332.669-.551 2.35-.061.467-.192.85-.291.85s-.18.36-.18.8c0 .667-.067.8-.4.8-.356 0-.4.133-.4 1.2 0 .667-.089 1.2-.2 1.2s-.2.533-.2 1.2-.089 1.2-.2 1.2c-.11 0-.2.18-.2.4s-.09.4-.2.4-.2.18-.2.4-.09.4-.2.4-.2.45-.2 1-.09 1-.2 1-.2.18-.2.4-.09.4-.2.4-.2.34-.2.756c0 .526-.121.843-.4 1.044-.235.169-.4.518-.4.844 0 .306-.09.556-.2.556s-.2.36-.2.8-.09.8-.2.8-.2.18-.2.4-.09.4-.2.4-.2.27-.2.6-.09.6-.2.6-.2.18-.2.4-.09.4-.2.4-.2.25-.2.556c0 .326-.165.675-.4.844-.22.159-.401.471-.403.694-.003.335-.037.354-.197.106-.151-.233-.195-.175-.197.259-.002.322-.209.765-.487 1.044-.267.266-.543.667-.614.891-.215.677-1.302.314-1.302-.436 0-.148-.18-.399-.4-.558s-.4-.406-.4-.551c0-.318-1.298-1.649-1.608-1.649-.324 0-.792.523-.792.886 0 .181-.17.314-.4.314q-.4 0-.4.4c0 .22-.09.4-.2.4s-.2.144-.2.32-.27.572-.6.88-.6.685-.6.836c0 .152-.18.405-.4.564s-.4.433-.4.61c0 1.324-1.834.576-1.971-.804-.037-.381-.239-.842-.449-1.023-.209-.181-.38-.567-.38-.856 0-.29-.09-.527-.2-.527s-.2-.18-.2-.4-.09-.4-.2-.4-.2-.141-.2-.314c0-.936-.851-1.088-1.6-.286-.308.33-.704.6-.88.6-.187 0-.32.167-.32.4q0 .4-.4.4c-.22 0-.4.09-.4.2s-.23.2-.512.2c-.29 0-.458.087-.388.2.068.11-.042.2-.244.2s-.497.18-.656.4-.497.4-.753.4c-.255 0-.657.18-.893.4s-.547.4-.692.4-.262.09-.262.2-.18.2-.4.2-.4.09-.4.2-.27.2-.6.2c-.533 0-.6-.067-.6-.6 0-.33.09-.6.2-.6.122 0 .2-.933.2-2.4s-.078-2.4-.2-2.4c-.11 0-.2-.18-.2-.4s-.09-.4-.2-.4a.2.2 0 0 0-.2.2c0 .11-.16.2-.356.2s-.485.18-.644.4-.448.4-.644.4-.356.09-.356.2-.144.2-.32.2-.572.27-.88.6-.704.6-.88.6a.316.316 0 0 0-.32.309c0 .17-.221.53-.491.8s-.63.491-.8.491-.309.17-.309.377q.001.377-.55.482c-.629.12-1.239-.119-.876-.343.124-.077.226-.404.226-.728s.09-.588.2-.588.2-.43.2-.956c0-.726.096-1.025.4-1.244.22-.159.4-.443.4-.632 0-.19.09-.4.2-.468s.2-.523.2-1.012.09-.888.2-.888.2-.175.2-.388c0-.214.09-.444.2-.512s.2-.343.2-.612c0-.268.09-.488.2-.488s.2-.45.2-1 .09-1 .2-1 .2-.27.2-.6.09-.6.2-.6.2-.34.2-.756c0-.526.121-.843.4-1.044.235-.169.4-.518.4-.844 0-.306.09-.556.2-.556s.2-.45.2-1 .09-1 .2-1 .2-.27.2-.6.09-.6.2-.6.2-.45.2-1 .074-1 .165-1c.09 0 .286-.72.435-1.6s.345-1.6.435-1.6.165-.54.165-1.2c0-.667.089-1.2.2-1.2.11 0 .2-.18.2-.4s.082-.4.181-.4c.1 0 .235-.495.3-1.1l.238-2.2c.065-.605.2-1.1.3-1.1s.181-.36.181-.8.09-.8.2-.8.2-.41.2-.912c0-.557.078-.864.2-.788.11.068.197.006.194-.138-.011-.435-.514-.962-.916-.959-.268.002-.304.05-.124.164.308.196-.384.605-1.154.683-.275.027-.556.126-.624.22-.068.093-.36.183-.65.2-.523.03-.754.318-.276.344.138.007.041.114-.215.237-.368.177-.503.163-.647-.064-.126-.199-.183-.21-.185-.037-.002.138-.194.25-.427.25-.355 0-.384.049-.176.3.161.194.173.3.034.3-.119 0-.441.225-.716.5-.297.298-.726.499-1.059.497-.423-.002-.487-.048-.265-.189.162-.103.232-.248.156-.324-.181-.182-1.15.458-1.15.759 0 .128.14.059.311-.155.302-.377.305-.376.107.036-.112.233-.147.48-.078.55.07.069.073.126.008.126-.066 0-.278-.158-.473-.35-.293-.291-.332-.296-.232-.032.141.374.006.599-.543.905-.22.123-.39.408-.377.633.015.281-.069.375-.267.299-.159-.061-.214-.166-.123-.233.302-.221.273-.612-.035-.493-.164.062-.298.204-.298.314s-.132.149-.294.087-.355-.013-.43.11c-.081.129-.047.166.079.088.12-.074.268-.053.33.047.107.174-.671.491-1.266.515-.155.007-.305.173-.334.371-.07.477-.486.962-.708.825-.097-.06-.177-.008-.177.116 0 .294-.506.798-.801.798-.127 0-.576.36-.999.8s-.911.8-1.084.8a.315.315 0 0 0-.316.312c0 .171.084.26.186.197.103-.064.246-.019.318.098.082.132-.047.198-.336.172-.983-.087-1.368.019-1.368.377 0 .196-.18.485-.4.644s-.4.409-.4.556-.09.212-.2.144-.2.04-.2.241-.202.453-.45.562a1.47 1.47 0 0 0-.649.65c-.109.249-.315.408-.457.353s-.309.057-.37.247c-.235.738-.542 1.229-.704 1.128-.094-.057-.17.019-.17.169s-.175.462-.388.691-.333.471-.267.538c.067.066-.028.121-.212.121a.33.33 0 0 0-.333.328c0 .181-.274.591-.609.911-.345.329-.627.819-.65 1.129-.036.477-.112.537-.591.467-.319-.047-.55.013-.55.142a.22.22 0 0 1-.212.223c-.116 0-.156-.09-.088-.2s-.039-.201-.238-.203c-.307-.003-.316-.033-.062-.197.285-.184-.088-.312-.65-.224-.082.013-.151-.088-.153-.226-.002-.183-.05-.176-.176.023-.131.207-.264.221-.547.056-.206-.119-.284-.221-.174-.226.499-.023-.467-.396-1-.386-.515.01-.543.035-.2.183q.399.171.1.185c-.165.007-.544-.115-.842-.27-.602-.314-2.062-.478-2.283-.257a.57.57 0 0 1-.358.139c-.12-.002-.082-.09.083-.197.241-.156.21-.194-.162-.197-.257-.002-.407.085-.338.197.073.119-.145.194-.538.186-.549-.012-.594-.043-.262-.184.245-.104-.335-.146-1.5-.109-1.367.044-1.62.02-.9-.084.955-.137.93-.145-.55-.176-.853-.018-1.55.039-1.55.127s-.317.123-.704.077c-.668-.078-4.784.258-5.935.484-.94.185-.475.747.509.615.53-.071.709-.045.52.075-.452.285-1.223.221-1.617-.135-.284-.257-.585-.296-1.462-.186-.974.122-1.768.502-1.073.515.144.002-.035.151-.398.329-.523.258-.71.274-.9.079-.187-.192-.174-.238.06-.206.52.07.8 0 .8-.201 0-.106-.112-.159-.25-.116s-.501.132-.808.199c-.344.076-.505.209-.419.348.087.141.048.169-.105.074-.351-.217-1.551.049-1.551.344q0 .249.816.201c1.05-.062.266.223-1.083.394-.495.062-.743.07-.55.017s.349-.247.347-.432c-.002-.191-.066-.249-.15-.135-.081.11-.282.2-.447.2s-.3.105-.3.233a.62.62 0 0 1-.15.384c-.083.082-.15.045-.15-.084 0-.128-.157-.228-.35-.223-.451.014-3.245 1.166-2.86 1.18.231.008.239.061.042.258-.198.198-.287.188-.437-.05-.138-.217-.19-.227-.192-.036-.002.147-.104.199-.235.119-.158-.099-.195-.008-.118.288.062.237.031.381-.069.319-.099-.061-.181-.016-.181.1 0 .117-.225.212-.5.212s-.5-.096-.5-.214c0-.211-2.537 1.088-3.694 1.891-.326.227-.703.429-.838.448-.135.02-.453.188-.707.374l-.461.338.474-.139c.351-.104.449-.07.378.131-.052.149-.236.26-.408.246-.173-.014-.27.086-.217.224.106.275-.456.568-.745.39-.1-.062-.182-.006-.182.124 0 .174-.08.17-.305-.017-.167-.139-.362-.195-.433-.125s-.024.129.105.129.233.095.233.212-.084.16-.186.097c-.103-.064-.251-.01-.331.119s-.063.184.036.124c.1-.061.311.031.47.203.257.277.24.299-.153.196-.257-.067-.562.003-.725.167-.155.155-.379.282-.497.282s-.214.09-.214.2-.145.2-.321.2c-.201 0-.279.111-.209.294.062.161.013.355-.11.43-.134.084-.166.047-.079-.093.078-.127.055-.231-.053-.231-.107 0-.229.104-.271.23-.043.127-.298.247-.567.267-.27.02-.49.125-.49.234s-.158.355-.35.548c-.466.466-.441.573.1.425.39-.107.403-.094.098.097-.193.121-.429.173-.524.114s-.376.07-.624.285-.544.335-.657.265-.148-.035-.078.078c.169.274-.526 1.057-.938 1.057-.23 0-.327.178-.327.6 0 .43-.096.6-.338.6-.186 0-.748.436-1.25.969s-1.07 1.025-1.262 1.094c-.192.068-.35.262-.35.431s-.095.306-.212.306-.163.078-.104.174-.062.37-.269.608c-.222.256-.407.341-.452.208-.041-.125-.203.012-.36.304-.246.46-.246.556 0 .708.334.206.295.246-.503.52-.33.114-.578.313-.55.442.027.13-.045.236-.162.236-.116 0-.16.084-.096.186.063.103-.075.32-.307.482-.478.335-1.214 1.297-.794 1.037q.264-.164.16.117c-.056.153-.193.259-.305.235-.113-.024-.16.127-.106.336.064.243-.051.473-.32.641-.231.144-.42.421-.42.614 0 .194-.095.352-.212.352s-.16.083-.098.184c.063.101-.022.32-.188.486-.336.336-.415.823-.102.63.11-.068.2-.024.2.097s-.112.206-.25.188a2.6 2.6 0 0 0-.491-.009c-.301.03-.654 1.261-.536 1.869l.088.455-.199-.45c-.263-.594-.38-.571-.261.05.056.292.003.5-.128.5-.123 0-.226.158-.23.35-.004.193-.143.575-.308.85l-.302.5.118-.5c.102-.434.088-.452-.108-.138-.125.199-.178.489-.118.645a.38.38 0 0 1-.138.438c-.135.085-.357.408-.493.718-.136.309-.157.507-.047.439.116-.072.183.081.16.365-.023.277-.141.45-.273.399-.128-.049-.286.051-.352.223-.067.175-.013.314.124.317.135.004.079.132-.126.287-.204.154-.311.376-.238.494.072.117.043.213-.064.213-.156 0-.422.718-.52 1.4a1.3 1.3 0 0 1-.164.336c-.083.13-.068.288.034.35.229.142.037.944-.29 1.214-.304.251-.493 1.273-.261 1.417.095.058.172.214.17.345-.002.143-.081.118-.197-.062-.222-.344-.26-.098-.205 1.323.024.609-.056.858-.307.954-.273.105-.313.286-.208.941.084.53.059.768-.074.686-.116-.072-.2.072-.196.335.01.722-.005 11.369-.019 12.247-.006.432-.065.882-.131 1q-.12.215.091.014c.116-.11.255-.38.309-.6s.089.123.076.761c-.015.754.068 1.218.235 1.321.179.11.216.384.121.889-.111.594-.077.729.186.729.242 0 .322.197.322.788 0 .434.09.844.2.912s.2.484.2.924c0 .482.079.751.2.676.125-.077.2.331.2 1.088 0 .835-.078 1.213-.25 1.215q-.25.003.05.197c.218.141.228.195.038.197-.144.002-.22.071-.169.153s-.183.17-.52.194c-.551.04-1.554.723-1.516 1.033.051.43-.083.623-.433.623-.374 0-.501.29-.415.95.018.139-.179.25-.447.25-.491 0-1.825 1.098-1.659 1.366.051.082-.132.168-.407.19-.635.053-1.063.481-1.116 1.117-.022.274-.089.486-.148.47-.301-.079-1.008.607-1.008.978 0 .334-.106.412-.501.369-.276-.03-.45.027-.388.128.062.1.012.182-.111.182s-.168.09-.1.2-.017.2-.188.2c-.179 0-.312.171-.312.4 0 .22-.08.4-.177.4-.098 0-.332.326-.521.724s-.513.769-.721.823c-.207.054-.327.178-.267.276.06.097.009.177-.114.177s-.168.09-.1.2-.017.2-.188.2c-.182 0-.312.172-.312.412 0 .226-.09.356-.2.288s-.2.051-.2.264-.203.537-.45.721c-.247.183-.337.279-.2.212.148-.071.25.015.25.213 0 .203-.109.291-.28.225-.419-.161-.541.073-.21.403.159.16.284.442.276.626-.012.285-.035.29-.15.032-.232-.52-.659-.329-1.107.493-.236.435-.542.914-.681 1.067-.138.152-.201.359-.138.46.062.101.018.184-.098.184-.241 0-.29.523-.062.651.083.046.035.055-.106.02-.287-.071-.644.712-.644 1.411 0 .576-.559 1.715-.908 1.849-.145.055-.357.367-.47.692-.125.357-.13.544-.014.472.109-.067.192.189.192.593 0 .582-.074.712-.405.712-.476 0-.604.294-1.396 3.2-.356 1.306-.502 2.172-.386 2.29.272.276.229.51-.094.51-.212 0-.257.207-.184.85.073.645.044.778-.12.55-.173-.239-.21-.178-.18.3.068 1.078-.031 1.926-.213 1.814-.356-.22-.679 3.691-.704 8.519-.011 2.254.054 3.521.182 3.5.11-.018.178.147.152.367-.088.725.196 2.946.345 2.704.085-.136.2.098.273.554.07.434.262.903.428 1.041s.301.351.299.475c-.002.132-.076.112-.177-.048-.118-.187-.198-.013-.252.55-.058.612-.006.824.203.824s.257.194.188.75c-.051.412.018 1.155.154 1.65.226.822.251.848.291.3l.043-.6.153.6c.123.485.157.514.176.15.036-.678.424-.541.424.15 0 .33-.08.6-.177.6-.23 0-.426.759-.288 1.118.059.154.177.237.262.184.138-.085.408.693.519 1.498l.083.6c.023.173.116.089.218-.2.158-.444.167-.428.087.142-.054.378.017.751.172.906.145.145.374.598.509 1.008.135.409.329.744.431.744s.184.317.184.705c0 .569.097.742.502.896.651.247 1.052 1.072.718 1.475-.186.224-.186.322.001.437q.243.152.079-.113-.168-.269.087-.108c.136.084.205.316.153.516-.069.263-.01.33.215.243.238-.091.283-.018.196.316-.063.238-.038.387.054.33s.227-.008.299.109c.093.15.21.148.396-.006.468-.388.728 1.384.282 1.921-.203.245-.197.29.034.24.171-.037.272.084.254.302-.016.2.018.316.077.257.144-.144.798.708 1.048 1.368.147.385.142.497-.017.398q-.22-.136-.089.278c.096.305.003.498-.358.734-.269.176-.538.505-.597.731-.059.228-.203.352-.322.278-.147-.091-.144.023.01.361.159.349.164.659.017 1.062-.206.567-.208.567-.237.07-.028-.46-.044-.468-.199-.1-.122.292-.064.49.215.732.418.363.523.679.148.447q-.234-.145-.109.182c.069.179.026.388-.097.463-.126.078-.166.048-.093-.07.071-.115-.007-.322-.174-.46-.252-.209-.281-.196-.175.08.07.182.035.442-.076.579-.266.324-.368.99-.195 1.266.076.12.079.57.008 1-.119.714-.142.738-.273.281-.111-.391-.146-.299-.162.422a20 20 0 0 1-.147 1.85c-.107.778-.074.928.2.928.18 0 .327.09.327.2s-.091.2-.203.2-.183.27-.158.6c.026.33.119.6.207.6.089 0 .144.674.123 1.498-.022.824.035 1.567.125 1.65.09.084.108-.141.04-.498-.086-.453-.048-.65.126-.65.172 0 .229.267.183.85-.045.572-.005.761.121.578.125-.182.178.093.161.834-.014.639.059 1.091.175 1.071.11-.018.214.192.23.467s.039.613.05.75.178.251.37.253c.299.003.306.031.05.197-.179.116-.204.195-.062.197.13.002.226.161.213.353-.033.494.656 1.869.871 1.736.098-.06.178.124.178.408 0 .304.141.573.341.649.708.272 1.046.708.843 1.087-.153.285-.13.337.111.244.29-.111.328-.039.39.726.014.165.175.275.359.244s.439.138.567.377c.188.352.269.381.429.156.156-.219.175-.206.09.06-.059.186.088.586.327.891.24.304.325.484.189.401-.136-.084-.246-.058-.246.059s.185.212.412.212.368.071.314.158.077.172.292.188c.215.017.339-.054.276-.156-.065-.104.039-.127.236-.051.215.083.257.165.11.214-.575.192-.094 1.247.569 1.247.346 0 .952.559.977.9.008.11.082.206.164.214.46.044 1.251.594 1.168.811q-.094.251.225.131c.232-.089.277-.05.159.141q-.167.268.076.117c.295-.183 1.28.43 1.117.695-.104.167.311.285.755.215.083-.013.15.114.15.283 0 .256.075.267.45.067.408-.217.424-.208.176.093-.276.335-.118.454.456.346.274-.052 1.318.413 1.318.586 0 .083.276.206.613.274.338.067.563.204.501.304-.145.236.358.423 1.138.423.775 0 1.934.397 2.41.826.463.417 2.122.34 2.453-.113.126-.172.377-.313.557-.313.6 0 .339.332-.472.6-.44.145-.8.328-.8.406 0 .219 1.485.407 2.153.273.394-.078.687-.019.869.176.187.2.516.262 1.027.193.498-.067.751-.022.751.134 0 .141.298.226.75.213.413-.011 2.229.078 4.036.199s3.562.177 3.9.126 4.642-.157 9.564-.236c4.922-.078 8.95-.219 8.95-.313 0-.247.553-.211.637.041.05.15.236.15.63 0 .308-.116 1.228-.212 2.046-.212.858 0 1.487-.085 1.487-.2 0-.28 1.15-.251 1.244.032.057.17 1.577.213 5.767.16 3.129-.039 6.432-.051 7.339-.026 1.464.04 2.146-.166 1.4-.423-.137-.047-.07-.052.15-.011.962.18 14.372.31 16 .156 1.663-.157 1.731-.18.9-.303-.495-.073 2.003-.126 5.55-.118 3.98.009 6.45.088 6.45.206 0 .123 4.39.127 12.15.01 6.683-.1 13.95-.2 16.15-.221l4.8-.048c4.185-.044 8.527.058 8.2.193-.38.156 8.132.127 20.4-.069 3.08-.049 5.218-.05 4.75-.002s-.85.167-.85.265c0 .104 3.714.14 8.813.088 5.362-.056 8.767-.019 8.698.093-.069.111 1.544.177 4.037.165 2.284-.012 8.382.004 13.552.035 11.135.067 11.547.059 11-.199-.32-.152-.285-.166.181-.075.736.146 1.868-.28 1.482-.557-.191-.137-.162-.156.103-.07.202.066.472.12.6.122.134.002.106.086-.066.197-.267.172-.267.195 0 .2.165.003.517.063.781.134.325.087.437.057.346-.091-.094-.151.1-.187.619-.115.569.079.68.053.454-.108-.293-.209.163-.287 1.75-.301.248-.002.45-.074.45-.161s.262-.158.583-.158.614-.088.65-.195c.037-.108.585-.217 1.217-.243s1.15-.107 1.15-.18.293-.191.65-.263c.447-.09.568-.182.387-.295-.149-.092.265-.137.95-.103.677.033 1.213-.024 1.213-.131 0-.104.33-.19.733-.19.404 0 .678-.056.61-.124-.216-.216.409-.676.919-.676.323 0 .527-.137.596-.4.089-.34.273-.4 1.235-.4.703 0 1.084-.076 1.007-.2-.068-.11.023-.2.202-.2.234 0 .289-.112.198-.4-.076-.238-.036-.4.098-.4.124 0 .176.081.115.179-.061.099.031.234.205.3.428.165.482.154.482-.091 0-.116-.104-.147-.231-.069-.143.089-.177.055-.088-.088a.56.56 0 0 1 .431-.231c.158 0 .288-.095.288-.212s.083-.16.184-.098c.101.063.326-.029.5-.202s.316-.23.316-.123c0 .261 1.411-.168 2.022-.616.856-.627 1.283-.981 1.028-.852-.358.181-.308-.001.088-.323q.344-.279.189-.024c-.266.443.109.268 1.052-.489 1.964-1.575 2.403-2.025 2.094-2.144-.161-.062-.245-.034-.186.063.06.096-.048.297-.239.447-.315.247-.322.24-.074-.077.151-.193.208-.35.126-.35s-.037-.135.1-.3.44-.299.674-.297c.349.003.371.038.126.197-.165.107-.199.195-.074.197.32.004.699-.502.522-.697-.081-.09-.048-.107.075-.037s.385-.05.581-.268c.197-.217.262-.395.144-.395s-.26.112-.316.25c-.06.149-.107.109-.116-.1-.011-.244.135-.35.484-.35.275 0 .5-.095.5-.212s-.104-.147-.231-.069q-.222.135-.08-.101c.083-.135.201-.194.263-.133.182.182.655-.312.515-.539-.072-.116-.033-.149.088-.074.212.131 2.045-1.923 2.045-2.29 0-.1.005-.223.011-.272.005-.05.281-.381.613-.735.759-.814 1.234-1.719 1.053-2.012-.08-.13-.049-.17.073-.094.245.152.743-.651 1.508-2.433.627-1.46.58-2.256-.124-2.084-.239.059-.368.035-.287-.053s.427-.152.769-.142c.554.015.608-.033.504-.449-.074-.295-.019-.504.15-.569.148-.056.276-.395.287-.751.01-.357.123-.714.252-.793.151-.094.162-.189.031-.27-.239-.148-.071-.96.242-1.172.133-.09.082-.148-.132-.15-.251-.002-.346-.158-.336-.553.013-.54.017-.542.23-.1.345.715.556.527.558-.5.001-.522.045-1.31.097-1.75.076-.634.059-.696-.082-.3l-.177.5-.02-.529c-.011-.29.096-.573.237-.627.171-.066.274-.592.307-1.566.052-1.584-.1-2.641-.357-2.482-.089.055-.204-.125-.257-.4-.069-.363-.032-.447.137-.307.174.145.192-.189.072-1.348-.224-2.173-.265-2.341-.561-2.341a.39.39 0 0 1-.348-.25c-.046-.139.08-.251.283-.253.287-.002.307-.041.091-.178-.151-.096-.222-.26-.157-.365.199-.323-.265-1.654-.576-1.654-.16 0-.301.112-.314.25s-.09-.065-.173-.45a8 8 0 0 0-.298-1.05c-.106-.25-.057-.35.173-.35.383 0 .386-.036.089-1.027-.233-.777-.501-1.031-.501-.473 0 .165.064.3.143.3s.186.225.239.5c.126.658.029.631-.348-.098-.343-.663-.352-.799-.081-1.127.199-.239.041-.875-.216-.875-.085 0-.209-.276-.277-.613-.076-.382-.207-.561-.346-.475q-.227.143-.089-.287c.08-.252.048-.425-.079-.425-.117 0-.202.068-.189.15.076.485-.063.85-.324.85-.165 0-.3-.095-.3-.212s.09-.156.2-.088c.289.179.246-.573-.05-.874-.2-.204-.195-.242.025-.19.542.126.428-.395-.268-1.227-.389-.466-.704-.906-.701-.978.004-.072.139.044.3.257.162.214.294.287.294.162a.46.46 0 0 0-.203-.352c-.112-.069-.152-.208-.09-.31.064-.102-.045-.124-.247-.048-.31.116-.323.09-.099-.186.22-.27.204-.335-.1-.414-.295-.076-.301-.098-.034-.117.326-.023.648-.683.581-1.193-.019-.149.04-.224.131-.168.092.057.151-.216.133-.606-.019-.399.133-.983.347-1.333.456-.749.492-1.323.081-1.323-.207 0-.298-.202-.293-.65l.007-.65.279.5c.214.385.304.431.39.2.623-1.665.958-11.603.445-13.172-.371-1.134-.412-1.468-.128-1.028.271.419.262-.11-.03-1.784-.172-.988-.268-1.216-.386-.916-.098.25-.137-.012-.105-.7.065-1.407-.224-2.824-.648-3.173-.213-.176-.251-.303-.105-.358.162-.062.141-.419-.076-1.281-.274-1.089-.327-1.163-.59-.841-.159.194-.233.241-.163.103s.031-.25-.085-.25a.21.21 0 0 1-.212-.212c0-.116.081-.162.179-.101.289.179.372-.334.174-1.074-.142-.53-.227-.621-.374-.4-.134.201-.154.127-.067-.249.206-.891-.233-1.421-.463-.558l-.185.694-.218-.997c-.12-.549-.179-1.037-.132-1.084s.086.019.086.148c0 .128.09.233.2.233.295 0 .244-.494-.133-1.285-.183-.384-.423-.642-.534-.574-.119.074-.15-.008-.076-.201.135-.353-.9-2.819-1.283-3.056-.148-.091-.183-.06-.093.085.084.137.016.231-.169.231-.364 0-.383-.095-.116-.592.146-.274.094-.494-.209-.88-.223-.282-.41-.585-.416-.671s-.096-.133-.2-.104c-.105.029-.175-.061-.157-.2.073-.557-.032-.753-.403-.753-.292 0-.367-.109-.303-.441.097-.502-1.251-2.618-1.55-2.433-.102.063-.16-.007-.129-.156.103-.506-.438-1.214-.846-1.107-.211.055-.333.018-.271-.082.061-.099-.006-.182-.15-.184-.198-.002-.192-.047.024-.184.232-.147.129-.385-.543-1.247-1.243-1.595-2.316-2.71-2.172-2.256.097.306.024.396-.34.417-.275.016-.464-.086-.464-.25 0-.152.142-.283.316-.291.233-.01.211-.06-.083-.186l-.4-.172.4-.02c.672-.035-.594-1.008-1.311-1.008-.324 0-.589-.08-.589-.179 0-.301.536-.403.826-.156.151.128-.173-.239-.718-.816-1.037-1.095-1.308-1.251-1.308-.749 0 .165.101.278.225.25.124-.027.252.065.285.205s.014.163-.041.052q-.102-.204-.471-.006c-.339.182-.354.144-.18-.452.158-.543.128-.691-.188-.906-.208-.142-.772-.613-1.254-1.047-.482-.435-.947-.792-1.034-.793-.087-.002-.338-.17-.556-.373-.807-.752-2.256-1.7-2.141-1.402.07.184.006.305-.164.305-.155 0-.281-.08-.281-.178s-.092-.122-.205-.052-.18.036-.15-.074-.125-.346-.345-.525c-.358-.289-.326-.288.3.009.956.454.558.093-.99-.898-.71-.455-1.412-.78-1.561-.723-.148.057-.215.015-.148-.093.067-.109-.131-.308-.44-.444-.308-.136-.606-.299-.661-.362-.055-.064-.571-.336-1.146-.604-.725-.338-1.054-.612-1.07-.889-.02-.334-.05-.317-.184.1-.088.275-.175.41-.194.3s-.103-.023-.188.194c-.14.358-.164.346-.255-.131-.07-.369-.025-.498.15-.43.301.115.546-.545.372-1-.069-.18.023-.47.21-.657.312-.311.325-.282.193.445-.078.429-.089.731-.025.672.11-.1.623-3.403.783-5.043.043-.436-.014-.751-.136-.753-.145-.002-.145-.048.001-.15.116-.081.222-.507.235-.947.021-.694.001-.734-.153-.3-.135.38-.155.283-.083-.4.263-2.484.295-3.627.096-3.504-.137.085-.162-.129-.075-.634.224-1.294-.021-5.354-.312-5.174-.081.05-.114-.152-.074-.449.14-1.029-.631-4.146-1.008-4.08-.361.063-.49-.641-.156-.847.1-.062.135-.291.077-.51-.057-.219-.183-.348-.281-.288-.097.06-.177.021-.177-.088 0-.108-.157-.239-.35-.29-.293-.078-.275-.118.111-.241.293-.094.421-.254.35-.438a2 2 0 0 1-.111-.573c0-.162-.196-.284-.456-.284-.529 0-1.052-1.372-.905-2.373.068-.462.018-.552-.263-.479-.37.097-.886-1.207-.638-1.61.07-.113.023-.138-.107-.057-.138.085-.231.013-.231-.181s-.093-.266-.231-.181c-.137.085-.177.055-.098-.072.073-.118-.003-.351-.169-.517-.364-.364-.403-.812-.052-.61.138.08.034-.092-.229-.382-.264-.289-.566-.472-.671-.407-.116.072-.137-.057-.052-.323.158-.5-.58-1.416-.768-.952-.054.134-.106-.015-.114-.33-.014-.498-.058-.54-.329-.316-.273.228-.296.194-.178-.275.085-.339.053-.535-.087-.535-.122 0-.222-.136-.222-.303 0-.475-.497-1.279-1.45-2.342-.303-.338-.55-.781-.55-.985 0-.237-.144-.37-.4-.37-.298 0-.4-.133-.4-.521 0-.377-.082-.49-.294-.409-.161.062-.342.034-.401-.062-.059-.095-.013-.205.102-.244.116-.038.027-.266-.198-.509-.225-.241-.409-.512-.409-.602 0-.22-.874-.959-.997-.844-.054.05-.128-.07-.166-.266s-.3-.588-.582-.87-.46-.374-.394-.203c.086.224.029.275-.204.186-.238-.092-.279-.05-.158.16.091.156.091.217.001.135-.091-.082-.195-.426-.232-.764-.037-.339-.196-.744-.354-.901-.326-.327-.598-.384-.415-.088.067.108.003.152-.143.096-.145-.056-.382-.289-.525-.519-.143-.229-.164-.357-.046-.284s.215.055.215-.039c0-.321-.478-.652-.94-.652-.253 0-.461-.112-.463-.25q-.002-.251-.191.047c-.15.237-.182.211-.156-.128.022-.289.131-.391.341-.32.191.065.156-.018-.091-.216-.22-.176-.466-.323-.548-.327-.274-.011-.932-.676-.831-.839.055-.09-.055-.103-.243-.031q-.348.136-.199-.102c.08-.129.049-.234-.067-.234-.117 0-.212-.18-.212-.4 0-.263-.133-.4-.388-.4-.214 0-.444-.09-.512-.2s-.214-.2-.324-.2-.135.104-.057.231c.089.143.055.177-.088.088-.127-.078-.231-.223-.231-.322 0-.306-.95-1.146-1.539-1.361-.308-.112-.448-.212-.311-.22.489-.031.241-.416-.269-.416-.35 0-.552-.13-.623-.4-.075-.287-.273-.4-.7-.4s-.625-.113-.7-.4c-.058-.22-.189-.4-.293-.4s-.144.072-.09.16c.054.087.016.29-.085.45-.138.217-.185.152-.187-.26-.002-.303-.087-.55-.189-.55s-.329-.143-.504-.318-.429-.346-.564-.38c-.759-.188-1.146-.37-1.146-.537 0-.104-.113-.121-.25-.038-.178.106-.172.054.018-.181.234-.289.216-.32-.15-.249-.268.051-.418-.024-.418-.208 0-.177-.199-.289-.512-.289-.321 0-.461-.082-.376-.22q.134-.219-.312.02t-.312.02c.075-.123.003-.22-.164-.22-.165 0-.356.09-.424.2a.46.46 0 0 1-.35.2c-.125 0-.061-.121.142-.269.255-.187.298-.314.138-.412-.128-.08-.231-.027-.233.119-.002.196-.05.189-.187-.028-.101-.16-.138-.365-.082-.455s.028-.152-.063-.136c-.482.083-2.113-.038-2.001-.149.207-.208-.919-.706-1.391-.616-.301.058-.415-.01-.383-.229.066-.449-.315-.778-.784-.677-.322.069-.346.044-.116-.117.383-.269-.553-.526-1.226-.336-.337.095-.386.077-.18-.065.296-.204-.098-.349-2.184-.806-2.856-.625-6.867-1.095-6.673-.781.053.086-.179.157-.515.157-.337 0-.612.09-.612.2a.2.2 0 0 1-.2.2c-.11 0-.2-.17-.2-.377 0-.694-1.987-.809-6.5-.377-2.231.214-2.472.269-1.7.388.61.094.353.118-.8.074-.935-.036-1.925.009-2.2.1-.345.114-.159.141.6.086.605-.044.941-.031.748.028-.194.06-.315.169-.27.243.118.191-1.324.156-1.637-.039-.143-.088-.683-.104-1.2-.035l-.941.126-.69-1.021c-.38-.562-.785-1.08-.9-1.151-.116-.071-.05.114.145.413.195.298.285.543.2.545s-.02.09.145.197.21.194.1.194-.335-.087-.5-.194c-.207-.134-.221-.195-.045-.197.192-.002.179-.118-.051-.469-.168-.256-.253-.519-.188-.583.065-.065-.078-.313-.316-.551s-.491-.376-.561-.306-.007.202.141.294.232.275.188.408c-.045.134-.467-.272-.938-.903-.608-.812-.795-1.208-.644-1.359.152-.152.221-.144.239.026l.05.473c.034.317.525.463.525.156 0-.303-1.776-2.343-3.9-4.479-1.561-1.571-2.5-2.297-2.5-1.933 0 .099-.134.232-.298.294-.172.066-.277.012-.25-.128.029-.148-.142-.222-.437-.189l-.485.054.485-.421.485-.422-.449-.364c-.255-.206-.623-.319-.85-.259-.416.109-.576-.25-.172-.385.424-.141-1.337-1.352-1.829-1.257-.251.048-.602.004-.778-.098-.23-.133-.122-.162.378-.104l.7.083-.5-.383c-1.791-1.374-3.496-2.271-4.234-2.227-.588.035-.766-.029-.766-.275 0-.176-.09-.264-.2-.196s-.2.036-.2-.072.099-.228.221-.268c.121-.041-.487-.42-1.35-.843s-1.727-.847-1.918-.943a1.8 1.8 0 0 0-.65-.174c-.167 0-.303-.095-.303-.212s-.082-.161-.183-.098c-.101.062-.438.022-.75-.09-.528-.189-.541-.182-.179.099.38.295.379.301-.05.301-.305 0-.438-.122-.438-.4 0-.286-.133-.4-.467-.4-.256 0-.53-.063-.607-.141-.078-.077-.385-.173-.684-.212-.298-.04-.627-.156-.732-.259-.273-.27-.762-.234-.591.043.087.14.055.177-.079.093-.123-.075-.172-.269-.11-.43.062-.162.013-.294-.109-.294-.121 0-.221.09-.221.2 0 .397-1.033.216-1.142-.2-.262-1-.858-.444-.858.8m2.4 1.2c0 .22-.09.4-.2.4s-.2-.18-.2-.4.09-.4.2-.4.2.18.2.4m-34.373.508c-.37.161-.775.285-.9.276-.316-.023.903-.566 1.273-.567.165-.001-.003.13-.373.291M222.8 123.8c0 .11-.18.2-.4.2s-.4-.09-.4-.2.18-.2.4-.2.4.09.4.2m-51.294.79c-.073.119-.207.171-.297.115-.09-.055-.272.03-.404.189-.2.241-.164.275.213.203.51-.099.915-.431.739-.607-.064-.064-.177-.019-.251.1m56.094 2.61c0 .22-.09.4-.2.4s-.2-.18-.2-.4.09-.4.2-.4.2.18.2.4m1.746.507c.226.167.2.207-.133.207-.313 0-.409-.122-.397-.507.01-.317.059-.394.132-.207.064.165.243.393.398.507m4.845 3.237c.273.215.266.244-.06.25-.204.003-.415-.173-.473-.394-.058-.22-.184-.4-.281-.4s-.177-.155-.177-.345c0-.267.076-.233.341.15.187.272.48.605.65.739m20.561 7.993c-.191.05-.551.052-.8.004-.248-.047-.092-.088.348-.091.44-.002.644.037.452.087m-113 .2c-.191.05-.551.052-.8.004-.248-.047-.092-.088.348-.091.44-.002.644.037.452.087m-2.099.204a3.6 3.6 0 0 1-1 .003c-.304-.046-.103-.085.447-.087s.799.036.553.084m10.897-.003c-.192.05-.508.05-.7 0-.193-.05-.035-.092.35-.092s.543.042.35.092m108.774.023c-.096.155-1.524.077-1.524-.083 0-.043.365-.078.812-.078.446 0 .767.073.712.161M137.5 139.6c-.846.215-1.572.215-.9 0a3.9 3.9 0 0 1 1-.156c.449.003.439.019-.1.156m-2.769.341q-.37.094-.268.477c.064.248-.004.382-.194.382-.161 0-.237-.09-.169-.2s-.039-.201-.238-.203c-.284-.002-.255-.062.138-.28.275-.153.635-.276.8-.274.176.002.147.043-.069.098m19.063.251c.162.103.234.247.16.321s-.281-.011-.459-.189c-.352-.352-.173-.431.299-.132m93.806.008c0 .11-.13.2-.288.2-.159 0-.344-.09-.412-.2s.062-.2.288-.2c.227 0 .412.09.412.2m16.732.065c.074.074-.15.135-.499.135-.348 0-.633-.07-.633-.157 0-.188.94-.169 1.132.022m-17.742.124c.226.144.17.213-.26.321-.302.076-.604.082-.673.014-.068-.068.094-.125.36-.127.385-.003.422-.042.183-.197-.165-.107-.21-.194-.1-.194s.33.083.49.183m16.01.22c.219.148.138.167-.3.069-.735-.165-.895-.279-.383-.275.21.002.518.094.683.206m-131.75 1.332a2.8 2.8 0 0 1-.9 0c-.247-.048-.045-.087.45-.087s.697.039.45.087m-9.342 2.872c.073.118-.056.263-.286.323s-.369.188-.309.284c.059.097-.036.12-.211.053-.42-.161-.261-.591.189-.51.207.038.295-.023.217-.15-.072-.117-.042-.213.068-.213s.26.096.332.213m-1.786 1.137c.326.43.354.85.057.85-.122 0-.174-.124-.116-.276.142-.37-.234-.717-.637-.59-.282.09-.285.074-.026-.112.394-.284.412-.28.722.128m-1.189.583c0 .296-.449.365-.616.095-.134-.217.005-.361.35-.361.146 0 .266.12.266.266m-.133 1.867c0 .22-.09.4-.2.4s-.2-.18-.2-.4.09-.4.2-.4.2.18.2.4m-10 8.2c0 .11-.18.2-.4.2s-.4-.09-.4-.2.18-.2.4-.2.4.09.4.2m189.52 10.7c0 .811-.212.949-.276.18-.037-.45.074-.88.228-.88.026 0 .048.315.048.7M93.505 188.627c.125.646.295.708.295.106 0-.293-.085-.533-.189-.533-.103 0-.151.192-.106.427m-.028 2.486c-.01.932.022 1.655.071 1.605.166-.165.248-2.761.096-3.031-.082-.148-.157.494-.167 1.426m210.14 5.176c.229-.141.234.32.008.678-.193.304-.438-.134-.409-.733.01-.21.053-.241.117-.083.056.138.183.201.284.138M95.977 199.7c.014.33-.017.347-.177.1-.107-.165-.186-.57-.177-.9.02-.694.32-.015.354.8m207.495 1.2c-.063.165-.2.3-.305.3s-.126.104-.048.231q.135.222-.101.08c-.183-.113-.159-.245.1-.531.415-.458.507-.479.354-.08m4.125 3.35c.002.083-.087.15-.197.15s-.199-.203-.197-.45c.003-.429.385-.138.394.3m3.761.96c.679.534.831 1.164.176.73-.239-.159-.436-.413-.438-.564-.003-.156-.164-.248-.371-.213-.218.038-.312-.022-.233-.15.181-.293.268-.273.866.197m-231.44 22.339c-.219.218-.369-.129-.212-.49.149-.343.16-.343.243.007.047.201.033.418-.031.483M79.2 230.8c0 .22-.09.4-.2.4s-.2-.18-.2-.4.09-.4.2-.4.2.18.2.4m252.705 8.785c-.073.228-.214.415-.314.415s-.08-.225.046-.501c.266-.584.461-.521.268.086m.444 7.756c-.038.857-.069.209-.069-1.441s.03-2.352.068-1.559.038 2.142.001 3M330.4 246c0 .22-.09.4-.2.4s-.2-.18-.2-.4.09-.4.2-.4.2.18.2.4m.141 13.648c-.047.248-.088.092-.091-.348-.002-.44.037-.644.087-.452.05.191.052.551.004.8m1.771 5.933c-.062.1-.292.134-.512.077-.551-.144-.501-.258.112-.258.281 0 .461.082.4.181m1.393 3.611c-.17.274-.019.48.276.379.121-.042.137-.183.038-.342-.125-.202-.206-.211-.314-.037m-.105 5.408c0 .33-.09.6-.2.6s-.2-.27-.2-.6.09-.6.2-.6.2.27.2.6m1.538 9.95c-.05.193-.092.035-.092-.35s.042-.543.092-.35.05.508 0 .7m-1.538.65c0 .22-.09.4-.2.4s-.2-.18-.2-.4.09-.4.2-.4.2.18.2.4m-.236 5.9c-.209.457-.564.688-.564.366 0-.138.611-.866.727-.866.035 0-.038.225-.163.5m-2.764 3.5c0 .11-.135.2-.3.2s-.3.105-.3.233-.047.187-.105.129-.048-.253.022-.433c.136-.355.683-.458.683-.129m-.639 2c-.026.33-.117.6-.204.6s-.157-.27-.157-.6.091-.6.203-.6.183.27.158.6m-242.502 4.535c-.096.25-.047.303.196.21.229-.088.292-.039.213.165-.061.16-.182.29-.268.29-.216 0-.427-.595-.289-.818.188-.304.285-.204.148.153m1.341.065c0 .22-.09.4-.2.4s-.2-.18-.2-.4.09-.4.2-.4.2.18.2.4m236.754-.162a.56.56 0 0 1-.317.316c-.146.049-.19-.043-.116-.237.14-.364.553-.439.433-.079m-1.524 2.462c0 .105-.097.222-.215.262-.118.039-.215-.079-.215-.262s.097-.301.215-.262c.118.04.215.158.215.262m-.83.693c0 .331-.756.641-.919.377-.086-.139-.055-.178.076-.097.121.075.337.002.481-.161.314-.356.362-.371.362-.119M92 305c0 .11-.128.2-.284.2s-.426.055-.6.121c-.177.068-.316.019-.316-.111 0-.129.09-.178.2-.11s.2.028.2-.088c0-.117.18-.212.4-.212s.4.09.4.2m.226 1.137c.238.293.231.322-.052.216a.6.6 0 0 0-.573.113q-.248.234.024-.216c.324-.537.264-.526.601-.113M156.8 311c0 .117-.667.2-1.6.2s-1.6-.083-1.6-.2.667-.2 1.6-.2 1.6.083 1.6.2m57.6 0c0 .117-.667.2-1.6.2s-1.6-.083-1.6-.2.667-.2 1.6-.2 1.6.083 1.6.2m6.4 0c0 .117-.667.2-1.6.2s-1.6-.083-1.6-.2.667-.2 1.6-.2 1.6.083 1.6.2m51.2 0c0 .117-.667.2-1.6.2s-1.6-.083-1.6-.2.667-.2 1.6-.2 1.6.083 1.6.2m-164.4.8c0 .11-.18.2-.4.2s-.4-.09-.4-.2.18-.2.4-.2.4.09.4.2m87.6 0c0 .117-.667.2-1.6.2s-1.6-.083-1.6-.2.667-.2 1.6-.2 1.6.083 1.6.2m6.4 0c0 .117-.667.2-1.6.2s-1.6-.083-1.6-.2.667-.2 1.6-.2 1.6.083 1.6.2m32 0c0 .125-1.2.2-3.2.2s-3.2-.075-3.2-.2 1.2-.2 3.2-.2 3.2.075 3.2.2m-80.35.541a2.8 2.8 0 0 1-.9 0c-.247-.048-.045-.087.45-.087s.698.039.45.087m46.4 0a2.8 2.8 0 0 1-.9 0c-.247-.048-.045-.087.45-.087s.698.039.45.087m76.25.05c.809.126.866.157.3.165-.385.005-1.15-.061-1.7-.147-.809-.126-.866-.157-.3-.165.385-.005 1.15.061 1.7.147m-109.85.15a2.8 2.8 0 0 1-.9 0c-.247-.048-.045-.087.45-.087s.698.039.45.087m60.705.606c.471.042 1.191.041 1.6-.002s.025-.077-.855-.076c-.88 0-1.215.035-.745.078"/><path id="path1" fill="#ece4c4" d="M205.966 79.85c-.171.138-.59.668-.933 1.178-1.055 1.574-3.265 3.318-3.87 3.055-.145-.063-.803-.843-1.463-1.733s-1.455-1.805-1.766-2.034l-.565-.416-.535.637c-.294.35-.984 1.247-1.534 1.993-2.674 3.629-1.844 3.854-8.786-2.38-1.152-1.035-1.503-.227-1.367 3.156.12 3.01-.345 10.5-1.062 17.094-.513 4.723-.604 5.396-1.402 10.4-1.548 9.709-1.538 9.259-.201 8.709 1.327-.546 2.736-.921 2.953-.788.139.087.172.052.084-.09q-.139-.23.382-.231c.289 0 .69-.088.892-.196s.759-.24 1.237-.293 1.32-.194 1.87-.314c5.468-1.192 12.979-1.148 19.225.113 1.334.27 2.47.49 2.524.49.191 0 .555-1.74 1.256-6 1.171-7.123 2.31-15.914 2.695-20.8.126-1.595.357-4.105.514-5.578.556-5.208.336-5.664-1.576-3.272-1.373 1.717-2.82 3.05-3.312 3.05-.253 0-.517-.286-.782-.85-.814-1.728-3.478-5.15-4.009-5.15-.087 0-.298.113-.469.25"/><path id="path2" fill="#d0dfc0" d="M195.8 116.824c-2.231.12-4.144.371-6 .788a20 20 0 0 1-1.77.299c-.478.053-1.035.185-1.237.293s-.603.196-.892.196q-.521.002-.382.231c.088.142.055.177-.084.09-.217-.133-1.626.242-2.953.788-.358.147-.732.184-.889.086-.474-.292-1.069.158-.698.529.342.341.413 1.076.105 1.076-.111 0-.2.533-.2 1.2s-.089 1.2-.2 1.2c-.11 0-.2.27-.2.6s-.09.6-.2.6c-.111 0-.2.532-.2 1.195 0 .843-.118 1.389-.399 1.85-.277.454-.4 1.009-.4 1.805-.001.633-.091 1.15-.201 1.15s-.2.36-.2.8-.068.8-.151.8c-.239 0-.649 1.514-.649 2.397 0 .442-.09.803-.2.803s-.2.27-.2.6-.09.6-.2.6-.2.45-.2 1-.09 1-.2 1-.2.175-.2.388c0 .214-.09.444-.2.512s-.2.343-.2.612c0 .268-.09.488-.2.488s-.2.45-.2 1-.09 1-.2 1-.2.27-.2.6-.09.6-.2.6-.2.36-.2.8-.09.8-.2.8-.2.36-.2.8-.09.8-.2.8-.2.27-.2.6-.09.6-.2.6-.2.18-.2.4-.09.4-.2.4-.2.45-.2 1-.09 1-.2 1-.2.18-.2.4-.09.4-.2.4-.2.36-.2.8-.09.8-.2.8-.2.36-.2.8.052.8.116.8c.063 0 .461-.36.884-.8s.873-.8 1-.8.577-.36 1-.8.891-.8 1.04-.8.401-.18.56-.4.429-.4.6-.4.441-.18.6-.4c.169-.235.518-.4.844-.4.423 0 .556.096.556.4 0 .22.09.4.2.4.124 0 .2 1.067.2 2.8v2.8h.556c.326 0 .675-.165.844-.4.159-.22.448-.4.644-.4s.356-.09.356-.2.16-.2.356-.2.485-.18.644-.4.448-.4.644-.4.356-.09.356-.2.16-.2.356-.2.485-.18.644-.4.429-.4.6-.4.441-.18.6-.4.429-.4.6-.4.441-.18.6-.4.487-.4.731-.4c.266 0 .492.159.569.4.07.22.211.4.313.4.103 0 .187.18.187.4s.09.4.2.4.2.18.2.4.09.4.2.4.2.139.2.308c0 .17.18.502.4.738s.4.597.4.801.225.596.5.871l.5.5.5-.5c.275-.275.5-.619.5-.765 0-.145.18-.394.4-.553s.4-.429.4-.6.18-.441.4-.6.4-.412.4-.564c0-.151.27-.528.6-.836s.6-.704.6-.88c0-.24.2-.32.8-.32.667 0 .8.067.8.4 0 .222.133.4.3.4.165 0 .3.086.3.191s.225.416.5.691.5.639.5.809.09.309.2.309.2.18.2.4q0 .4.4.4t.4-.4c0-.22.09-.4.2-.4s.2-.16.2-.356.18-.485.4-.644c.235-.169.4-.518.4-.844 0-.306.076-.556.168-.556.241 0 .632-.933.632-1.509 0-.358.109-.491.4-.491.333 0 .4-.133.4-.8 0-.44.09-.8.2-.8s.2-.18.2-.4.09-.4.2-.4.2-.27.2-.6.09-.6.2-.6.2-.18.2-.4.09-.4.2-.4.2-.36.2-.8.09-.8.2-.8.2-.18.2-.4.09-.4.2-.4.2-.27.2-.6.09-.6.2-.6.2-.36.2-.8.09-.8.2-.8.2-.27.2-.6.09-.6.2-.6.2-.18.2-.4.09-.4.2-.4.2-.45.2-1 .09-1 .2-1 .2-.18.2-.4.09-.4.2-.4.2-.45.2-1 .09-1 .2-1 .2-.27.2-.6.09-.6.2-.6.2-.45.2-1 .09-1 .2-1 .2-.36.2-.8.09-.8.2-.8.2-.265.2-.588c0-.324.09-.644.2-.712s.2-.523.2-1.012.09-.888.2-.888.2-.45.2-1 .09-1 .2-1c.111 0 .2-.533.2-1.2s.089-1.2.2-1.2c.11 0 .2-.45.2-1s.09-1 .2-1 .2-.27.2-.6c0-.472.088-.6.412-.6.241 0 .357-.089.28-.214-.073-.117-.267-.162-.432-.099-.164.064-1.392-.106-2.729-.376-4.379-.886-8.394-1.153-13.331-.887"/><path id="path3" fill="#a9bfbe" d="M165.362 128.895c-.286.265-.588.419-.673.343-.084-.076-.084-.019 0 .127.119.206.271.161.682-.2.291-.256.567-.487.612-.515.046-.027.042-.092-.009-.143s-.327.124-.612.388m-1.639 1.39c.122.32.082.36-.238.238-.309-.118-.336-.097-.135.105.194.196.303.199.49.012s.184-.296-.012-.49c-.202-.201-.223-.174-.105.135m-.923.96c0 .098-.09.123-.2.055s-.2.032-.2.222c0 .189-.053.292-.117.228-.19-.19-1.541 1.194-1.395 1.43.084.137.01.168-.205.086-.219-.084-.309-.043-.255.117.147.441.316.336 1.613-1 .703-.724 1.161-1.316 1.019-1.316s-.26.08-.26.178m-3.286 3.055c-.294.385-.475.7-.402.7s-.08.174-.34.386c-.344.281-.412.446-.253.609.221.225 1.443-1.103 1.33-1.445-.027-.082.086-.15.251-.15.167 0 .3-.178.3-.4 0-.587-.283-.491-.886.3m-1.992 2.502c-.397.44-.722.88-.722.98 0 .099-.321.564-.713 1.034-.622.744-.671.877-.385 1.037.365.205.651-.074 1.282-1.253a9 9 0 0 1 .992-1.4c.659-.747.727-.913.446-1.087-.098-.06-.503.25-.9.689m118.378 7.553c.11.108.737.49 1.392.85 4.081 2.239 13.908 10.25 13.908 11.338 0 .061.159.256.354.434.194.177.755.818 1.247 1.423.491.605.944 1.145 1.006 1.2s.329.415.593.8.532.745.594.8c.251.223 2.389 3.557 2.78 4.336.231.46.53.905.664.987.134.083.012-.248-.271-.736-.842-1.451-1.252-2.278-1.208-2.437.022-.082-.039-.15-.136-.15-.098 0-.541-.612-.986-1.361-.821-1.383-2.052-3.133-2.839-4.039-.239-.275-.809-.945-1.266-1.489-1.249-1.486-3.668-3.9-5.132-5.123-.715-.597-1.372-1.198-1.46-1.337-.088-.138-.241-.251-.341-.251-.146 0-2.246-1.462-3.099-2.157a2.8 2.8 0 0 0-.5-.299c-.165-.074-.75-.408-1.3-.742-1.29-.782-4.261-2.303-4-2.047m-168.624 9.995c-.425.523-.96 1.141-1.189 1.374-.628.639-1.428 2.038-.952 1.663.479-.376.975-1.048.913-1.237-.026-.083.087-.15.252-.15s.301-.067.302-.15.304-.469.673-.858c.589-.622 1.115-1.592.863-1.592-.05 0-.437.428-.862.95M89.65 210.173c-.357.306-.65.662-.65.792 0 .129-.118.235-.263.235s-.469.382-.72.85l-.456.85.633-.7c.348-.385.925-1.015 1.282-1.4 1.125-1.213 1.208-1.512.174-.627m219.4 101.251c-.887.256-.821.425.1.259.916-.164 1.564-.477.95-.459-.22.007-.692.097-1.05.2"/><path id="path4" fill="#a4ccc4" d="M168.55 126.514c-.748.406-.702.575.05.186.33-.171.6-.353.6-.405 0-.129-.021-.122-.65.219m-63.719 30.731c-.458.723-.395 1.005.11.499.268-.267.532-1.144.345-1.144-.026 0-.23.29-.455.645m-1.353 1.938a7.2 7.2 0 0 1-.828 1.215c-.247.274-.45.568-.45.655 0 .086-.454.841-1.008 1.678s-.976 1.616-.938 1.73.346-.28.684-.877c.338-.596 1.098-1.759 1.688-2.584 1.627-2.273 1.78-2.533 1.484-2.533-.14 0-.425.322-.632.716m-3.63 5.867c-.349.434-1.302 2.362-1.212 2.452.047.048.425-.541.839-1.308.704-1.303.842-1.728.373-1.144m199.96 4.5c.012.2.773 1.585.784 1.424.013-.207-.59-1.574-.695-1.574-.053 0-.093.068-.089.15M94.8 178.051c0 .029-.088.36-.197.737-.109.383-.116.603-.014.499.226-.232.499-1.287.333-1.287-.067 0-.122.023-.122.051m-.472 1.991a3.4 3.4 0 0 0-.105.858c.009.22.1.049.2-.38.195-.831.112-1.25-.095-.478m-.671 14.258c.002.55.041.751.087.447a3.6 3.6 0 0 0-.003-1c-.048-.246-.085.003-.084.553m.389 3.1c0 .385.042.542.092.35s.05-.507 0-.7-.092-.035-.092.35m-.965 9.829c-.379.427-.379.428.069.193.248-.13.45-.323.45-.429 0-.284-.096-.241-.519.236m-5.441 5.011c-.132.132-.24.347-.24.479 0 .131-.122.285-.27.342-.355.136-1.993 2.539-1.732 2.539.111 0 .202-.07.202-.155 0-.086.248-.432.55-.77 1.266-1.412 1.647-1.875 1.545-1.875-.06 0-.013-.18.105-.4q.364-.683-.16-.16m-3.416 4.651c-.453.601-.824 1.149-.824 1.22s-.198.405-.439.744c-.242.34-.329.549-.194.466.135-.084.663-.797 1.174-1.586a62 62 0 0 1 1.119-1.685c.104-.137.144-.25.089-.25-.056 0-.472.491-.925 1.091m-2.209 3.524c-.25.446-.417.849-.371.896.046.046.283-.288.525-.742.575-1.076.44-1.21-.154-.154m-1.183 2.094c-.335.735-.271.892.092.223.169-.312.27-.605.224-.651-.046-.045-.188.147-.316.428m-5.154 14.776c-.06.157-.076.495-.035.75.055.342.101.267.176-.285.104-.776.049-.96-.141-.465m-.428 3.415c.003.44.044.596.091.348.048-.249.046-.609-.004-.8s-.089.012-.087.452m.384 14.7c-.003.275.071.68.166.9l.172.4-.006-.4a3.8 3.8 0 0 0-.166-.9l-.16-.5Zm2.566 9.265c0 .251 1.05 2.752 1.124 2.677.042-.041-.159-.652-.444-1.358-.507-1.251-.68-1.587-.68-1.319m1.814 4.235c0 .11.129.425.286.7s.286.41.286.3-.129-.425-.286-.7-.286-.41-.286-.3m1.24 17.9c0 .495.039.698.087.45a2.8 2.8 0 0 0 0-.9c-.048-.247-.087-.045-.087.45m229.078 24.511c.066.172.25.262.41.2.16-.061.396-.117.524-.125.276-.017-.454-.351-.81-.372-.14-.008-.193.118-.124.297m-2.832.432c-.663.159-.804.442-.18.36.319-.041.693-.082.83-.089.138-.008.25-.104.25-.214 0-.207-.218-.221-.9-.057m-205.7.614c0 .087.158.163.35.17.193.007.62.072.95.145.544.119.535.105-.1-.155-.808-.331-1.2-.383-1.2-.16m202.8-.013c-.709.127-.948.423-.266.329 1.185-.163 2.05-.433 1.366-.425a8 8 0 0 0-1.1.096m-2.017.34c-.496.495-6.705.783-16.167.75-5.546-.019-10.029.019-9.962.086.276.276 19.408.242 21.846-.039 1.32-.153 2.87-.325 3.445-.384 1.289-.131 2.276-.464 1.438-.484-.284-.007-.554.025-.6.071m-122.831.257c.249.048.609.046.8-.004s-.012-.089-.452-.087c-.44.003-.596.044-.348.091m2.705-.018c.149.15 6.754.133 6.904-.017.058-.058-1.499-.106-3.461-.106s-3.511.055-3.443.123m8.007.007c.147.148 10.958.115 11.107-.034.052-.053-2.454-.096-5.571-.096s-5.608.059-5.536.13m20.686.02c1.788.033 4.713.033 6.5 0 1.788-.034.325-.061-3.25-.061s-5.037.027-3.25.061m12.9-.033c.144.144 18.969.13 19.113-.014.057-.056-4.246-.103-9.563-.103s-9.614.053-9.55.117m-64.65.289-2.3.127 2.7-.009c1.485-.006 3.06-.068 3.5-.139 1.05-.168-.616-.159-3.9.021m5.65-.068c.193.05.508.05.7 0s.035-.092-.35-.092-.542.042-.35.092m5.809.011c.858.037 2.208.037 3-.001.793-.038.091-.068-1.559-.068s-2.298.031-1.441.069m80.358-.071c.17.16 11.183.245 11.183.087 0-.091-2.535-.165-5.633-.165-3.099 0-5.596.035-5.55.078m12.056.165c-.053.086.314.157.815.157.502 0 .912-.036.912-.079 0-.157-1.632-.23-1.727-.078m-156.773.164c.44.106 1.43.232 2.2.278 1.593.097.497-.116-1.8-.35-1.04-.106-1.094-.097-.4.072m43.883-.131c-.045.042-4.358.139-9.583.217s-9.545.19-9.6.25c-.227.247 19.682-.158 19.929-.406.14-.139-.593-.2-.746-.061m2.258.072a34 34 0 0 0 2.8.001c.803-.038.199-.07-1.341-.07s-2.196.031-1.459.069m112.659-.049c.11.038 2.63.106 5.6.151 2.97.046 5.13.019 4.8-.06-.58-.138-10.804-.227-10.4-.091m-154.25.639c.193.05.508.05.7 0s.035-.092-.35-.092-.542.042-.35.092"/><path id="path5" fill="#bce1d6" d="M212.6 118.396c.165.104.3.305.3.447 0 .345.914.458 1.112.137.127-.205.216-.206.463-.001.168.14.468.22.665.178.204-.043-.223-.267-.982-.516-1.435-.472-2.076-.572-1.558-.245m-1 .604c0 .33-.09.6-.2.6s-.2.27-.2.6c0 .467.089.6.4.6.356 0 .4-.133.4-1.2 0-.667-.089-1.2-.2-1.2-.11 0-.2.27-.2.6m3.8.401c-.237.154-.195.193.2.183.848-.02 2 .478 2 .865 0 .228.154.351.438.351.429 0 .43-.006.05-.301-.361-.28-.347-.287.19-.095.761.273.947.072.2-.215-2.962-1.141-2.655-1.063-3.078-.788m-36.4 1.085c-2.821 1.217-5.62 2.719-5.483 2.942.074.119.01.295-.141.391-.196.124-.113.176.283.178.592.003 1.649-.86 1.45-1.183-.062-.1.153-.316.479-.478.416-.208.615-.228.667-.07.056.167.203.165.56-.006l.485-.233-.5-.03c-.494-.029-.493-.033.093-.291.325-.143.708-.216.85-.162.141.054.257-.037.257-.203s.293-.399.65-.519c.595-.198.617-.191.262.081-.379.29-.377.297.062.297.249 0 .394.089.326.2-.068.11-.019.2.11.2.128 0 .182-.133.12-.295-.063-.162.04-.384.228-.494.276-.16.284-.201.042-.211-.23-.009-.215-.062.065-.224.423-.246.545-.17.585.362.039.507.75.568.75.064 0-.298-.516-1.062-.664-.983-.02.011-.711.311-1.536.667m35 .314c0 .22.09.4.2.4s.2-.18.2-.4-.09-.4-.2-.4-.2.18-.2.4m-33.6 1.488c0 .502-.09.912-.2.912s-.2.36-.2.8-.082.8-.181.8c-.1 0-.23.472-.289 1.05s-.163 1.41-.233 1.85l-.127.8.415-.655c.301-.474.415-.984.415-1.85 0-.663.089-1.195.2-1.195.11 0 .2-.27.2-.6s.09-.6.2-.6.2-.445.2-.988c0-.544-.09-1.044-.2-1.112-.122-.076-.2.231-.2.788m30.4.312c0 .55.09 1 .2 1s.2-.45.2-1-.09-1-.2-1-.2.45-.2 1m-38.854 1.507c-.41.279-.746.546-.746.593 0 .13 1.384-.713 1.512-.92.172-.277.042-.222-.766.327M222 123.8c0 .11.18.2.4.2s.4-.09.4-.2-.18-.2-.4-.2-.4.09-.4.2m-11.6 1.2c0 .55-.09 1-.2 1s-.2.4-.2.888c0 .489-.09.944-.2 1.012s-.2.388-.2.712-.09.588-.2.588-.2.36-.2.8-.09.8-.2.8-.2.45-.2 1-.09 1-.2 1-.2.27-.2.6-.09.6-.2.6a.2.2 0 0 0-.2.2c0 .11.18.2.4.2.333 0 .4-.133.4-.8 0-.44.081-.8.18-.8s.23-.383.291-.85c.219-1.681.376-2.35.551-2.35.098 0 .178-.36.178-.8s.09-.8.2-.8.2-.36.2-.8.09-.8.2-.8c.111 0 .2-.533.2-1.2s-.089-1.2-.2-1.2c-.11 0-.2.45-.2 1m-39.126.058c-1.827 1.143-3.823 2.519-4.183 2.885a6 6 0 0 1-.797.657c-.71.478-2.928 2.6-2.718 2.6.417 0 .824-.257.824-.521 0-.154.142-.279.316-.279.173 0 .661-.36 1.084-.8s.872-.8.999-.8c.295 0 .801-.504.801-.798 0-.124.086-.172.191-.107s.349-.123.542-.417.714-.7 1.159-.902c.444-.202.734-.369.644-.372-.224-.006.41-.625.718-.702.766-.19 1.091-.368 1.308-.715.303-.485.336-.495-.888.271M227.2 127.2c0 .22.09.4.2.4s.2-.18.2-.4-.09-.4-.2-.4-.2.18-.2.4m4.59 1.606c-.241.149-.222.228.111.48.517.39.819.399.499.014-.341-.411-.024-.378.481.05.395.335.4.335.132-.011-.41-.528-.891-.738-1.223-.533m-52.99.794c0 .22-.09.4-.2.4-.111 0-.2.533-.2 1.2 0 .66-.074 1.2-.165 1.2-.09 0-.286.72-.435 1.6s-.345 1.6-.435 1.6-.165.27-.165.6.09.6.2.6.2-.27.2-.6.09-.6.2-.6.2-.361.2-.803c0-.883.41-2.397.649-2.397.083 0 .151-.36.151-.8s.09-.8.2-.8.2-.36.2-.8-.09-.8-.2-.8-.2.18-.2.4m54.4.455c0 .19.08.345.177.345s.223.18.281.4c.058.221.269.397.473.394.326-.006.333-.035.06-.25-.17-.134-.463-.467-.65-.739-.265-.383-.341-.417-.341-.15m-71.4 2.772c-1.333 1.452-1.839 2.252-1.29 2.041a.47.47 0 0 0 .29-.404c0-.385.49-.864.886-.864.184 0 .314-.171.314-.412 0-.226.09-.356.2-.288s.2.016.2-.115.189-.402.42-.602.388-.456.35-.568-.655.434-1.37 1.212m-2.315 2.629c-.615.724-1.951 2.555-2.697 3.695-.531.812-.78 1.031-1.09.959-.221-.051-.536-.008-.7.095-.251.159-.241.189.064.192.199.002.306.093.238.203s-.028.2.088.2c.117 0 .212-.09.212-.2s.223-.2.496-.2c.369 0 .53-.135.628-.525.073-.289.389-.771.704-1.072.315-.3.572-.65.572-.776 0-.127.27-.513.6-.858.33-.346.6-.755.6-.91 0-.156.076-.235.17-.178.186.116.758-.82.598-.979-.054-.055-.272.105-.483.354m78.521-.194c-.006.151.981 1.491 1.544 2.097.208.224.25.215.25-.057 0-.195.092-.268.231-.183.14.087.177.055.093-.079-.075-.123-.269-.172-.43-.11-.162.062-.294.021-.294-.092s.097-.237.215-.276c.119-.04.008-.25-.246-.467-.363-.311-.403-.319-.187-.04.151.195.215.415.142.488s-.259-.042-.412-.255c-.626-.869-.9-1.18-.906-1.026M207.6 136.4c0 .22-.09.4-.2.4s-.2.45-.2 1-.09 1-.2 1-.2.18-.2.4-.09.4-.2.4-.2.27-.2.6-.09.6-.2.6-.2.36-.2.8-.09.8-.2.8-.2.27-.2.6-.09.6-.2.6-.2.18-.2.4-.09.4-.2.4-.2.27-.2.6.051.6.114.6c.335 0 .686-.659.686-1.286 0-.393.09-.714.2-.714s.2-.18.2-.4.09-.4.2-.4.2-.45.2-1 .09-1 .2-1 .2-.18.2-.4.09-.4.2-.4.2-.18.2-.4.09-.4.2-.4c.111 0 .2-.533.2-1.2s.089-1.2.2-1.2c.11 0 .2-.18.2-.4s-.09-.4-.2-.4-.2.18-.2.4m-30.8 1.8c0 .33-.09.6-.2.6s-.2.23-.2.512c0 .29.087.458.2.388.11-.068.2-.298.2-.512 0-.213.09-.388.2-.388s.2-.27.2-.6-.09-.6-.2-.6-.2.27-.2.6m70.1 2c.068.11.253.2.412.2s.288-.09.288-.2-.185-.2-.412-.2-.356.09-.288.2m16.55.138c.193.05.507.05.7 0s.035-.092-.35-.092-.543.042-.35.092M129.3 141.49l-.6.272.8-.113c1.376-.196 1.941-.413 1.1-.423-.385-.004-.97.115-1.3.264m139.688.322c-.215.136-.152.183.25.185.296.002.598.099.67.217s.268.161.434.097c.211-.08.267-.024.187.187-.093.241.054.299.727.289.762-.011.796-.032.349-.21-.378-.151-.431-.238-.222-.366.173-.108.026-.149-.405-.113-.373.03-.908-.063-1.19-.207-.327-.167-.616-.196-.8-.079m-139.038.129c.247.048.653.048.9 0s.045-.087-.45-.087-.697.039-.45.087m45.5.358c-.137.156-.25.603-.25.993 0 .389-.09.708-.2.708s-.2.27-.2.6-.09.6-.2.6-.2.45-.2 1-.09 1-.2 1-.2.22-.2.488c0 .269-.09.544-.2.612s-.2.298-.2.512c0 .213-.09.388-.2.388s-.2.4-.2.888c0 .489-.09.944-.2 1.012s-.2.278-.2.468c0 .189-.18.473-.4.632-.304.219-.4.518-.4 1.244 0 .526-.09.956-.2.956s-.2.265-.2.588c0 .324-.102.651-.226.728-.363.224.247.463.876.343.526-.101.835-.859.35-.859-.11 0-.2-.36-.2-.8s.09-.8.2-.8.2-.36.2-.8.09-.8.2-.8.2-.18.2-.4.09-.4.2-.4.2-.45.2-1 .09-1 .2-1 .2-.18.2-.4.09-.4.2-.4.2-.27.2-.6.09-.6.2-.6.2-.36.2-.8.09-.8.2-.8.2-.36.2-.8.09-.8.2-.8.2-.27.2-.6.09-.6.2-.6.2-.18.2-.4c0-.466-.197-.502-.55-.101m97.75 1.096c0 .113.14.205.312.205s.27.067.219.15.13.163.401.18c.578.034.57.024-.282-.41-.363-.184-.65-.24-.65-.125m-150.499.406c.145.235.899.27.899.043 0-.086-.23-.176-.511-.199-.296-.025-.459.041-.388.156m152.499.611c0 .116.087.158.193.092.107-.066.309.064.449.288.14.225.373.408.518.408s.211.085.146.19c-.064.104.059.155.274.114.216-.042.592.098.836.31.245.212.521.386.615.386.093 0 .169.135.169.3s.095.3.212.3.156-.09.088-.2-.02-.2.107-.2.278.18.335.4a.516.516 0 0 0 .531.393c.478-.008-.23-.713-1.273-1.269a89 89 0 0 1-1.769-.995c-1.408-.809-1.431-.817-1.431-.517m-155.666 1.572c.129.146.187.389.129.54-.058.152-.006.276.116.276.343 0 .261-.521-.129-.816-.29-.219-.31-.219-.116 0m84.866.416c0 .22-.09.4-.2.4s-.2.27-.2.6-.09.6-.2.6-.2.18-.2.4-.09.4-.2.4-.2.36-.2.8c0 .667-.067.8-.4.8-.296 0-.4.133-.4.513 0 .544-.328 1.301-.657 1.516-.117.076-.133.36-.038.7.134.481.173.509.251.174.05-.219.261-.544.468-.724s.376-.563.376-.852c0-.29.09-.527.2-.527s.2-.18.2-.4.09-.4.2-.4.2-.27.2-.6.09-.6.2-.6.2-.18.2-.4.09-.4.2-.4.2-.36.2-.8.09-.8.2-.8.2-.18.2-.4-.09-.4-.2-.4-.2.18-.2.4m-87.508.909c-.413.342-.471.449-.192.352.446-.154.992-.635.866-.762-.045-.045-.348.14-.674.41m163.557.341c.045.137.3.28.567.316.474.064.476.059.084-.244-.488-.377-.762-.408-.651-.072M114.7 148.689c-1.308.874-2.464 1.893-2.159 1.903.132.004.466-.217.741-.492s.594-.5.709-.5.209-.09.209-.2.096-.2.214-.2.342-.127.497-.282.486-.238.735-.183c.334.073.381.048.178-.095-.151-.108-.213-.295-.138-.418.192-.311.139-.285-.986.467m3.3-.289c0 .22.09.4.2.4s.2-.18.2-.4-.09-.4-.2-.4-.2.18-.2.4m163.6.006c0 .114.157.265.35.336.193.072.485.276.65.454.451.486 1.529 1.204 1.808 1.204.135 0-.374-.494-1.131-1.099-1.398-1.115-1.677-1.264-1.677-.895M178.2 150.8c-.159.22-.429.4-.6.4s-.441.18-.6.4-.406.4-.551.4c-.321 0-1.734 1.382-1.575 1.541.063.063.378-.168.7-.514.323-.345.73-.627.906-.627s.32-.09.32-.2.16-.2.356-.2.485-.18.644-.4.448-.4.644-.4.356-.09.356-.2.09-.2.2-.2.2.18.2.4.09.4.2.4c.122 0 .2.933.2 2.4s-.078 2.4-.2 2.4c-.11 0-.2.27-.2.6 0 .533.067.6.6.6.33 0 .6-.09.6-.2s.18-.2.4-.2.4-.09.4-.2.118-.2.262-.2c.145 0 .456-.18.692-.4s.638-.4.893-.4c.256 0 .594-.18.753-.4s.454-.4.656-.4.312-.09.244-.2c-.07-.113.098-.2.388-.2.282 0 .512-.09.512-.2s.18-.2.4-.2q.4 0 .4-.4c0-.233.133-.4.32-.4.176 0 .572-.27.88-.6.749-.802 1.6-.65 1.6.286 0 .173.09.314.2.314s.2.18.2.4.09.4.2.4.2.237.2.527c0 .289.171.675.38.856.21.181.412.642.449 1.023.137 1.38 1.971 2.128 1.971.804 0-.177.18-.451.4-.61s.4-.412.4-.564c0-.151.27-.528.6-.836s.6-.704.6-.88.09-.32.2-.32.2-.18.2-.4q0-.4.4-.4c.23 0 .4-.133.4-.314 0-.363.468-.886.792-.886.31 0 1.608 1.331 1.608 1.649 0 .145.18.392.4.551s.4.41.4.558c0 .75 1.087 1.113 1.302.436.071-.224.347-.625.614-.891.436-.437.66-1.103.37-1.103-.235 0-.686.583-.686.886 0 .173-.09.314-.2.314s-.2.18-.2.4q0 .4-.4.4t-.4-.4c0-.22-.09-.4-.2-.4s-.2-.139-.2-.309-.225-.534-.5-.809-.5-.586-.5-.691-.135-.191-.3-.191c-.167 0-.3-.178-.3-.4 0-.333-.133-.4-.8-.4-.6 0-.8.08-.8.32 0 .176-.27.572-.6.88s-.6.685-.6.836c0 .152-.18.405-.4.564s-.4.429-.4.6-.18.441-.4.6-.4.408-.4.553-.225.49-.5.765l-.5.5-.5-.5c-.275-.275-.5-.667-.5-.871s-.18-.565-.4-.801-.4-.568-.4-.738c0-.169-.09-.308-.2-.308s-.2-.18-.2-.4-.09-.4-.2-.4-.2-.18-.2-.4-.084-.4-.187-.4c-.102 0-.243-.18-.313-.4a.58.58 0 0 0-.569-.4c-.244 0-.572.18-.731.4s-.429.4-.6.4-.441.18-.6.4-.429.4-.6.4-.441.18-.6.4-.448.4-.644.4-.356.09-.356.2-.16.2-.356.2-.485.18-.644.4-.448.4-.644.4-.356.09-.356.2-.16.2-.356.2-.485.18-.644.4c-.169.235-.518.4-.844.4H180V154c0-1.733-.076-2.8-.2-2.8-.11 0-.2-.18-.2-.4 0-.304-.133-.4-.556-.4-.326 0-.675.165-.844.4m106.6-.01c0 .382.552.849.707.598.073-.118.102-.234.063-.258a13 13 0 0 1-.42-.311c-.255-.195-.35-.203-.35-.029m-174.213 1.211c-.708.657-1.354 1.196-1.437 1.197s-.15.092-.15.202c0 .403.411.179 1.299-.709.52-.521 1.006-.85 1.136-.769.133.082.172.051.094-.075-.073-.118.014-.361.193-.54.908-.908-.023-.339-1.135.694m175.013-.387c0 .281.51.786.794.786.322 0 1.102.771.941.931-.074.075-.135.031-.135-.098a.23.23 0 0 0-.224-.233c-.156 0-.148.093.024.3.137.165.388.3.559.3.395 0 2.041 1.706 2.041 2.115 0 .17.09.253.2.185s.207.039.216.238c.008.199.058.258.11.131.119-.291 1.014.574 1.111 1.074.072.376.406.429.521.084.077-.233-5.648-6.027-5.956-6.027-.111 0-.202.096-.202.214m-112.15 2.694c-.96 1.005-.525 1.385.459.401.463-.463.669-1.125.341-1.095-.082.007-.442.32-.8.694m-65.693.442c-1.771 1.811-1.974 2.05-1.745 2.05.127 0 .653-.45 1.17-1s1.091-1 1.278-1c.229 0 .34-.163.34-.5 0-.642.043-.66-1.043.45m-.157 1.85c0 .11.18.2.4.2s.4-.09.4-.2-.18-.2-.4-.2-.4.09-.4.2m184.2 1.179c0 .098.135.23.3.293.165.064.3.233.3.378 0 .144.18.391.4.55s.4.403.4.544.09.256.2.256.2.225.2.5c0 .367.107.5.4.5.227 0 .4.133.4.309 0 .17.225.534.5.809s.5.58.5.677.112.299.25.448c.391.426.75 1.122.75 1.454 0 .167.09.303.2.303s.2.185.2.412.09.356.2.288c.115-.071.201.115.203.438.002.314.068.461.15.334.107-.166.214-.155.395.04.158.17.176.312.048.391-.219.135-.196 1.297.025 1.297.075 0 .193-.147.262-.327.113-.296.166-.291.549.05l.423.377-.351-.686-.351-.686-.27.486c-.148.267-.272.368-.276.223s.086-.437.2-.65c.212-.396-1.196-3.131-1.471-2.857-.064.065-.181-.14-.26-.454-.079-.315-.241-.671-.36-.791a9 9 0 0 1-.616-.772c-2.749-3.801-3.5-4.687-3.5-4.134m-186.953.253c-.136.137-.247.371-.247.522 0 .215.069.206.316-.041.174-.174.285-.409.248-.522-.044-.13-.16-.115-.317.041m-1.128 1.489c-.173.454-.159.479.281.479.472 0 .502-.127.119-.509-.24-.241-.297-.237-.4.03m-2.103 3.249c-.119.222-.215.522-.215.667.001.145.138.002.304-.317s.263-.619.215-.667-.185.095-.304.317m-1.544 2.496-.623 1.084h.476c.261 0 .475-.084.475-.187s-.09-.131-.2-.063-.2-.009-.2-.172.083-.325.185-.361c.102-.037.214-.202.25-.367s.143-.357.239-.427.14-.231.097-.359c-.042-.127-.357.256-.699.852m-1.722 3.412c-.407.855-.418.922-.15.922.11 0 .2-.172.2-.383s.1-.417.223-.458c.122-.041.19-.241.15-.445-.056-.282-.157-.195-.423.364m200.45-.276c0 .125.136.362.302.528s.242.399.169.517-.041.158.072.088c.119-.073.35.336.55.969.189.603.432 1.096.539 1.096.25 0 .072-.549-.651-2.006-.566-1.142-.981-1.646-.981-1.192m1.701 2.223c.208.686.467.898.35.287-.054-.285-.188-.573-.296-.64-.123-.076-.144.057-.054.353m-203.692 1.758c-.155.289-.158.417-.01.417.243 0 .507-.561.342-.726-.06-.059-.209.079-.332.309m203.994.07c-.004.497.466 1.947.632 1.947.075 0 .053-.292-.049-.649-.237-.827-.234-1.004.014-.851.253.156.253-.108 0-.5-.172-.267-.195-.267-.2 0s-.028.267-.2 0c-.165-.256-.194-.248-.197.053m.8 1.064c.002.211.094.518.206.683.148.219.167.138.069-.3-.165-.735-.279-.895-.275-.383m.197 2.26c0 .097.173.222.385.277.27.071.353.018.279-.177-.117-.303-.664-.386-.664-.1M95.364 176.9c-.129.599-.066.869.151.652.063-.064.084-.371.047-.684l-.069-.568Zm-.827 3.77c-.09.424-.112.822-.05.884.226.226.338-.132.276-.884l-.063-.77Zm-.655 9.13c0 1.925.03 2.713.067 1.75.037-.962.037-2.537 0-3.5-.037-.962-.067-.175-.067 1.75m210.368-2.3c.003.44.044.596.091.348.048-.249.046-.609-.004-.8s-.089.012-.087.452m-210 9.2c.003.44.044.596.091.348.048-.249.046-.609-.004-.8s-.089.012-.087.452m208.956-.4c0 .22.087.535.194.7.161.248.194.231.194-.1 0-.22-.087-.535-.194-.7-.161-.248-.194-.231-.194.1m-208.803 2.25c.009.438.391.729.394.3.002-.247-.087-.45-.197-.45s-.199.068-.197.15m1.203.55c0 .22.087.535.194.7.161.248.194.231.194-.1 0-.22-.087-.535-.194-.7-.161-.248-.194-.231-.194.1m-.806 1.255c0 .421.962 4.274 1.103 4.414.053.054.097-.283.097-.747 0-.513-.079-.797-.2-.722s-.2-.194-.2-.676c0-.44-.09-.856-.2-.924s-.2-.478-.2-.912c0-.433-.09-.788-.2-.788s-.2.16-.2.355m212.403 3.595c-.002.247.087.45.197.45.251 0 .251-.212 0-.6-.157-.243-.194-.214-.197.15m-214.542 4.1c-2.307 1.993-2.984 2.749-2.425 2.706.294-.022.494-.108.443-.19-.166-.268 1.168-1.366 1.659-1.366.268 0 .465-.111.447-.25-.084-.646.042-.95.394-.95.208 0 .43-.135.493-.3.185-.483-.202-.348-1.011.35M316.8 210.6c0 .11.135.2.3.2s.3-.09.3-.2-.135-.2-.3-.2-.3.09-.3.2m-228.64 1.85c-1.207 1.426-1.28 1.568-.662 1.281.274-.127.5-.355.5-.508.002-.314.785-1.057.985-.933.073.045.15-.137.172-.404.055-.657.023-.639-.995.564m230.529-.067c.063.101 0 .224-.138.275-.138.05-.011.08.282.067.402-.019.482-.086.325-.275-.237-.286-.64-.344-.469-.067m-233.136 3.271c-.411.56-.708 1.058-.659 1.106.114.114.706-.479.706-.708 0-.097.186-.377.414-.621.228-.245.386-.524.35-.62-.035-.097-.4.283-.811.843m241.053 7.538c-.162.103-.217.259-.123.347.095.089.212.048.261-.09.05-.138.186-.192.304-.119.126.078.155.037.071-.099-.169-.274-.144-.272-.513-.039M79.5 225.899c-.22.55-.437 1.088-.482 1.196-.045.109.067.048.25-.134.183-.183.332-.466.332-.63s.099-.331.22-.371c.12-.04.188-.295.15-.567-.059-.417-.132-.339-.47.506m.206 1.16c-.085.197-.099.414-.031.483.203.203.367-.082.274-.476-.083-.35-.094-.35-.243-.007m-1.329 1.741c-.265.594-.269.71-.029.768.412.098.489-.05.41-.799l-.07-.669Zm250.453 0c-.003.753.337 1.485.356.766a4 4 0 0 1 .133-.9c.089-.275.071-.298-.076-.093-.164.23-.211.23-.303 0-.06-.15-.109-.048-.11.227m-250.03 2c0 .22.09.4.2.4s.2-.18.2-.4-.09-.4-.2-.4-.2.18-.2.4m-2.554 5.8c0 .385.042.543.092.35s.05-.507 0-.7-.092-.035-.092.35m-.321 1.108c-.069.178-.115.61-.103.958.019.552.044.52.196-.253.178-.91.129-1.284-.093-.705M330 246c0 .22.09.4.2.4s.2-.18.2-.4-.09-.4-.2-.4-.2.18-.2.4m-254.078 9.165c.165 1.729.44 2.663.452 1.535.005-.44-.122-1.25-.282-1.8l-.291-1Zm255.324.235c0 .385.042.543.092.35.05-.192.05-.507 0-.7s-.092-.035-.092.35m-254.843 2.55c.002.193.09.485.197.65.147.228.195.143.197-.35.002-.357-.087-.65-.197-.65s-.199.157-.197.35m254.654.571c-.123.538-.193 1.01-.154 1.049.111.111.529-1.575.449-1.814-.039-.118-.172.226-.295.765m-.579 1.428c.024.936.222 1.128.37.357.052-.272.024-.45-.063-.397-.086.053-.195-.107-.243-.356s-.076-.071-.064.396m-253.24.451c-.01.742.32 1.835.348 1.15.008-.192.104-.35.214-.35s.2-.27.2-.6c0-.691-.388-.828-.424-.15-.019.364-.053.335-.176-.15l-.153-.6Zm.58 2.3c0 .414.539 1.755.563 1.4.007-.11-.117-.56-.275-1-.159-.44-.288-.62-.288-.4M331.35 264c.138.154.259.51.27.79.017.421.05.388.185-.189.09-.384.126-.736.08-.783-.047-.047-.085.031-.085.173 0 .208-.068.207-.35-.007-.298-.225-.313-.223-.1.016M78.8 265.682c0 .045.27.653.6 1.35s.6 1.13.6.96-.18-.66-.4-1.092-.4-.901-.4-1.042-.09-.258-.2-.258-.2.037-.2.082m1.846 3.944c.533.97.81 1.455 1.754 3.074.612 1.049.709 1.138.77.707.038-.272-.03-.527-.15-.567-.121-.04-.22-.246-.22-.457 0-.21-.098-.361-.219-.333-.12.028-.322-.13-.45-.35-.127-.22-.283-.445-.346-.5-.175-.153-.437-.844-.529-1.395-.1-.606-.412-1.005-.785-1.005-.211 0-.168.202.175.826m252.658-.476c.081.193.191.553.245.8.121.558.37.582.509.05.068-.26.006-.4-.177-.4-.154 0-.281-.18-.281-.4s-.1-.4-.221-.4c-.134 0-.163.139-.075.35m-.104 5.45c0 .33.09.6.2.6s.2-.27.2-.6-.09-.6-.2-.6-.2.27-.2.6m-249.279 2.516c-.187.49-.147.554.179.284.332-.276.398-.6.121-.6-.098 0-.233.142-.3.316m-.977 2.15a2.4 2.4 0 0 0-.131.8c.012.412.022.409.207-.054.107-.268.166-.628.132-.8-.053-.257-.089-.247-.208.054m-.621 1.769c-.069.346-.08.675-.024.73.055.056.101-.054.101-.243 0-.19.09-.29.2-.222s.2-.056.2-.276c0-.668-.343-.66-.477.011m-.503 2.875.02.99.184-.786c.121-.513.114-.856-.02-.99-.139-.139-.198.112-.184.786m251.38 1.29c0 .22.09.4.2.4s.2-.18.2-.4-.09-.4-.2-.4-.2.18-.2.4m1.614 1.05c.012.545.042.585.186.25.237-.553.237-.9 0-.9-.11 0-.194.293-.186.65m-.263 1.25c-.053.275-.018.5.077.5.094 0 .172-.225.172-.5s-.035-.5-.077-.5-.119.225-.172.5m-253.151.514c0 .369.033.381.3.115.165-.165.3-.352.3-.415s-.135-.114-.3-.114c-.17 0-.3.179-.3.414m.341 1.936c.16 1.039.259 1.07.259.083 0-.458-.084-.833-.187-.833-.104 0-.136.335-.072.75m.41 2.2c.113 1.042 1.013 3.6 1.035 2.94.008-.225-.077-.501-.189-.613-.111-.111-.221-.621-.243-1.132-.023-.523-.107-.823-.194-.687-.086.135-.155-.134-.157-.608-.002-.468-.082-.85-.178-.85-.097 0-.13.427-.074.95m247.452 4.5c.002.493.05.578.197.35.254-.393.254-1 0-1-.11 0-.199.293-.197.65m-243.951 3.746c.261.438.716 1.067 1.011 1.398s.539.671.54.754c.004.172.744.888 1.193 1.156.163.097.101-.072-.139-.376-.239-.305-.409-.66-.379-.791.031-.13.018-.166-.03-.079-.048.086-.37-.158-.717-.543-1.004-1.113-1.131-1.285-1.131-1.521 0-.238-.488-.794-.697-.794-.069 0 .088.358.349.796m2.748.804c0 .22.09.4.2.4s.2-.18.2-.4-.09-.4-.2-.4-.2.18-.2.4m.647 3.312c.304.348.472.428.529.25.046-.144.183-.335.304-.425.123-.091.029-.11-.213-.042-.238.067-.491.028-.562-.087s-.213-.208-.315-.208c-.103 0 .013.23.257.512m2.153.5c0 .116-.09.156-.2.088s-.2-.019-.2.11c0 .13.139.179.316.111.174-.066.444-.121.6-.121s.284-.09.284-.2-.18-.2-.4-.2-.4.095-.4.212m-.599.989c.255.221.507.358.56.305.161-.162-.39-.706-.716-.706-.223 0-.18.109.156.401m.917.674c.129.337 2.676 1.997 2.829 1.844.054-.054-.205-.28-.574-.503-.8-.483-1.254-.789-1.895-1.28-.371-.283-.45-.297-.36-.061m226.72.452c-.144.155-.347.229-.45.166-.103-.064-.188-.021-.188.095 0 .117-.118.212-.262.212-.145 0-.441.166-.659.37-.219.203-.528.421-.688.484-.23.09-.221.118.045.13.184.009.489-.138.677-.326s.532-.368.765-.399c.396-.054.392-.032-.078.366l-.5.424.5-.308c.275-.17.475-.415.444-.544s.059-.194.2-.144c.284.101 1.854-.622 1.695-.781-.055-.055-.292.019-.526.164-.312.194-.463.204-.569.036-.104-.164-.217-.149-.406.055m-4.58 2.073c-.069.263-.273.4-.596.4-.27 0-.626.135-.791.3-.266.267-.258.3.077.3.348 0 .747-.158 2.652-1.047l.7-.327-.969-.013c-.806-.011-.986.054-1.073.387m-217.458.477c0 .183 2.229 1.145 2.452 1.058.137-.054-.044-.162-.402-.241s-.65-.208-.65-.287c0-.078-.229-.247-.509-.375-.511-.232-.891-.299-.891-.155m214.6.895c0 .095.225.13.5.077s.5-.13.5-.172-.225-.077-.5-.077-.5.078-.5.172m-1.2.24c-1.371.242-2 .421-2 .568 0 .074-.518.156-1.15.182s-1.18.135-1.217.243c-.036.107-.279.195-.538.195s-.531.096-.603.213c-.228.368 5.98-1.005 6.388-1.413.11-.11.159-.188.11-.173-.049.014-.495.098-.99.185m-156 .188c0 .117.667.2 1.6.2s1.6-.083 1.6-.2-.667-.2-1.6-.2-1.6.083-1.6.2m57.6 0c0 .117.667.2 1.6.2s1.6-.083 1.6-.2-.667-.2-1.6-.2-1.6.083-1.6.2m6.4 0c0 .117.667.2 1.6.2s1.6-.083 1.6-.2-.667-.2-1.6-.2-1.6.083-1.6.2m51.2 0c0 .117.667.2 1.6.2s1.6-.083 1.6-.2-.667-.2-1.6-.2-1.6.083-1.6.2m-169.183.28c.083.08 2.576.92 2.73.92.273 0-.565-.541-1.161-.75-.665-.233-1.757-.351-1.569-.17m5.071.653c-.126.199-.471.334-.856.334-.412 0-.576.069-.453.192.211.211 2.221-.421 2.221-.699 0-.296-.7-.163-.912.173m2.112-.133c0 .11.18.2.4.2s.4-.09.4-.2-.18-.2-.4-.2-.4.09-.4.2m85.2 0c0 .117.667.2 1.6.2s1.6-.083 1.6-.2-.667-.2-1.6-.2-1.6.083-1.6.2m6.4 0c0 .117.667.2 1.6.2s1.6-.083 1.6-.2-.667-.2-1.6-.2-1.6.083-1.6.2m28.8 0c0 .125 1.2.2 3.2.2s3.2-.075 3.2-.2-1.2-.2-3.2-.2-3.2.075-3.2.2m-74.85.541c.247.048.653.048.9 0 .248-.048.045-.087-.45-.087s-.697.039-.45.087m65.55.057c-.271.118.145.178 1.283.188.926.008 1.646-.019 1.6-.059-.205-.182-2.524-.285-2.883-.129m56.05-.057c.247.048.653.048.9 0 .248-.048.045-.087-.45-.087s-.697.039-.45.087m28.35.059-.8.143.9.026c.495.013 1.035-.062 1.2-.169.356-.23-.014-.23-1.3 0m-128.6.206c1.316.209 11.9.24 11.9.035 0-.088-2.903-.168-6.45-.177-3.84-.011-6.045.047-5.45.142m37.35-.058c.633.039 1.668.039 2.3 0 .632-.04.115-.072-1.15-.072s-1.782.032-1.15.072m14.15.046c.715.073 1.48.065 1.7-.018.227-.085-.337-.143-1.3-.133l-1.7.018Zm17.2.006c-.495.077 1.215.144 3.8.149 2.585.004 5.15-.061 5.7-.144.607-.092-.887-.15-3.8-.148-2.64.002-5.205.066-5.7.143m-136.383.272c.046.039.353.132.683.206.438.098.519.079.3-.069-.27-.183-1.184-.31-.983-.137m34.783.12c0 .105-.742.222-1.65.259s-.075.069 1.85.07 2.938-.03 2.25-.069c-.687-.039-1.25-.157-1.25-.262 0-.104-.27-.19-.6-.19s-.6.086-.6.192m16.95-.045c.578.041 1.523.041 2.1 0 .578-.04.105-.073-1.05-.073s-1.627.033-1.05.073m103.6.002c.797.037 2.103.037 2.9 0 .798-.038.145-.07-1.45-.07s-2.247.032-1.45.07m5.3-.003a9 9 0 0 0 1.5 0c.413-.043.075-.079-.75-.079s-1.162.036-.75.079M298 313l-.5.16.5.017c.275.009.635-.07.8-.177.382-.247-.029-.247-.8 0m-144.15.138c.193.05.508.05.7 0 .193-.05.035-.092-.35-.092s-.542.042-.35.092m116.9.003c.248.048.653.048.9 0s.045-.087-.45-.087-.698.039-.45.087m-162.9.197c.193.05.508.05.7 0 .193-.05.035-.092-.35-.092s-.542.042-.35.092m172.5.003c.248.048.652.048.9 0s.045-.087-.45-.087-.697.039-.45.087m5.7.008c1.403.035 3.698.035 5.1 0 1.403-.034.255-.062-2.55-.062s-3.953.028-2.55.062"/><path id="path6" fill="#aeecdc" d="M135.932 140.05c.119.194 1.098.189 1.407-.008.131-.084-.152-.15-.63-.147s-.828.073-.777.155m110.268.35c.247.16.25.194.017.197-.156.002-.237.05-.179.108s.26.045.45-.028c.355-.136.079-.471-.388-.471-.11 0-.065.087.1.194m15.417.072c.046.039.353.132.683.206.438.098.519.079.3-.069-.27-.183-1.184-.31-.983-.137m26.627 14.124c.136.218.382.448.547.511s.084-.115-.181-.396c-.575-.613-.702-.652-.366-.115M87.311 300.982c-.138.223.073.818.289.818.086 0 .207-.13.268-.29.079-.204.016-.253-.213-.165-.243.093-.292.04-.196-.21.137-.357.04-.457-.148-.153m111.439 11.359c.248.048.653.048.9 0 .248-.048.045-.087-.45-.087s-.697.039-.45.087m100.25.037c.248.179.251.216.017.219-.156.002-.237.05-.179.107.057.058.319.018.583-.087s.374-.197.245-.204a3 3 0 0 1-.6-.132c-.304-.099-.316-.082-.066.097m-133.85.163c.248.048.653.048.9 0 .248-.048.045-.087-.45-.087s-.697.039-.45.087m110.4 0c.248.048.653.048.9 0s.045-.087-.45-.087-.697.039-.45.087m-.396.604c.359.044.899.044 1.2-.002s.006-.082-.654-.081-.906.038-.546.083"/><path id="path7" fill="#a9cccc" d="M223.6 123.1c.275.157.59.286.7.286s-.025-.129-.3-.286-.59-.286-.7-.286.025.129.3.286m-56.84 4.444c-1.328.875-2.253 1.658-2.287 1.936l-.053.42c-.014.11-.106.073-.204-.082-.224-.352-2.116 1.396-1.964 1.815.053.147-.041.425-.209.617s-.211.35-.095.35c.27 0 .524-.587.477-1.1l-.037-.4.327.4c.322.394.324.394.191-.055-.075-.25-.062-.442.029-.426.701.122.943-.018.553-.319-.379-.294-.379-.298-.003-.166.315.111.36.066.249-.249-.124-.355-.114-.358.132-.043.267.343 2.044-1.092 1.94-1.566-.02-.091.073-.202.207-.247.152-.051.189.022.098.195-.08.152.132-.017.47-.375.339-.359.641-.629.672-.6.03.028.313-.136.628-.366.977-.712.017-.488-1.121.261m-1.16 1.325c0 .304-.779.725-.912.494-.084-.145-.082-.2.004-.123s.286.01.446-.15c.279-.279.462-.366.462-.221m-5.698 5.699c.056.057-.095.311-.334.566-.24.256-.398.496-.352.534s.327-.216.625-.566c.375-.441.451-.635.25-.635-.16 0-.245.045-.189.101M147.6 139c-.47.151-.46.161.162.18.394.012.612-.061.538-.18-.068-.11-.141-.191-.162-.18s-.263.092-.538.18m108.75.141c.248.048.652.048.9 0s.045-.087-.45-.087-.697.039-.45.087m1.8.2c.247.048.653.048.9 0 .248-.048.045-.087-.45-.087s-.697.039-.45.087m-103.75.439c.614.345 1.976.471 1.4.13a2.6 2.6 0 0 0-1.1-.297c-.429-.001-.514.047-.3.167m115.45 2.003c.413.192.683.425.6.516-.082.091-.037.1.1.021.373-.214.318-.286-.474-.617-.988-.413-1.154-.354-.226.08m1.15.32c0 .134.791.518 1.248.606.237.046.341.008.237-.086-.217-.197-1.485-.641-1.485-.52m5.667 2.607c0 .15.072.228.159.174s.523.086.967.313c.966.492 1.073.399.157-.139-.977-.572-1.283-.656-1.283-.348m3.003 2.041c.071.115.461.405.866.644.406.239.638.316.516.17-.287-.343-1.552-1.088-1.382-.814m-166.775 2.688c-2.562 1.584-4.759 3.549-4.845 4.332-.028.252-.185.593-.35.758s-.3.356-.3.426c0 .069.36-.225.8-.655.778-.76.993-1.043.614-.809-.103.064-.243.024-.312-.088-.072-.116.08-.203.355-.203.521 0 1.238-.638.993-.883-.082-.083-.06-.121.05-.085.33.107 1.174-.571.864-.695-.151-.06-.085-.112.155-.121.403-.015.989-.499 1.111-.916.032-.11.167-.175.299-.145.132.031.368-.126.524-.348.156-.223.328-.359.383-.305.055.055.264-.081.464-.302.58-.641.271-.626-.805.039m183.103 12.657c.236.383.379.78.316.882s-.023.396.09.654c.191.436.198.43.093-.099-.073-.366-.039-.521.095-.438.335.207.244-.049-.319-.899-.648-.979-.868-1.059-.275-.1m-195.045 1.27c.081.211.037.251-.15.136q-.264-.164-.122.067c.194.314.272.292.501-.136.145-.271.126-.366-.074-.366-.157 0-.222.124-.155.299m196.136.479c.362.516.407.838.091.643-.152-.095-.149-.004.01.293.127.237.312.38.412.318s.361.228.581.644.403.684.408.596c.015-.279-1.479-2.939-1.65-2.939-.09 0-.024.2.148.445m2.192 4.586q-.142.23.122.067c.194-.12.23-.072.133.18-.078.203-.051.293.066.221.252-.156.259-.699.01-.699-.104 0-.253.104-.331.231m1.933 4.507c.045.519.358.96.372.524.008-.241-.076-.494-.186-.562s-.194-.051-.186.038M94.14 181.337c-.257.416-.389 2.117-.153 1.971a.36.36 0 0 0 .135-.423c-.058-.15-.009-.551.11-.89.199-.572.135-1.028-.092-.658m-.555 5.513a7 7 0 0 1-.099.9c-.046.248.006.45.115.45.11 0 .199-.405.199-.9 0-.903-.187-1.294-.215-.45m-.179 2.15c0 .165.087.435.194.6.172.267.194.267.194 0 0-.165-.087-.435-.194-.6-.172-.267-.194-.267-.194 0m.147 3.357c.122 1.256.283 1.385.221.176-.028-.526-.109-.993-.181-1.037-.072-.045-.09.343-.04.861m.131 2.934c-.068.271-.031.743.081 1.05.185.507.205.462.219-.491.017-1.129-.101-1.349-.3-.559m.422 2.768c-.085.197-.099.414-.031.483.203.203.367-.082.274-.476-.083-.35-.094-.35-.243-.007m.294 2.241c0 .165.09.3.2.3s.2-.135.2-.3-.09-.3-.2-.3-.2.135-.2.3m.807 3.21c.004.105.143.415.308.69l.302.5-.131-.5c-.137-.522-.492-1.033-.479-.69m-.474 2.223c-.257.257-.134.655.167.539.165-.063.3-.24.3-.393 0-.294-.242-.37-.467-.146m-2.594 2.008c-.557.413-.919.823-.86.976.06.156-.004.222-.157.164-.291-.112-.85.458-.648.66.175.175-.888 1.274-1.103 1.141-.092-.057.079-.316.38-.576.302-.26.498-.523.435-.586-.062-.063-.422.206-.8.598-.377.391-.596.682-.486.647.11-.036.2.025.2.135s-.09.17-.2.133c-.11-.036-.133 0-.052.082.082.081.042.291-.088.467-.13.175.497-.395 1.392-1.267s1.588-1.65 1.54-1.728.069-.129.26-.114c.193.015.323-.091.293-.238-.03-.146.027-.214.127-.152.209.129.69-.386.752-.803.022-.154.026-.274.008-.266s-.465.335-.993.727m-7.107 8.009c.059.282-.274.848-.439.746-.091-.057-.217-.019-.28.083-.268.434.504.053.891-.439.35-.444.369-.54.111-.54-.173 0-.301.068-.283.15m-2.159 3.207c.075.12-.013.301-.194.403-.182.102-.247.236-.145.299s.292-.055.422-.263c.175-.28.177-.414.009-.518-.135-.083-.172-.051-.092.079m-3.773 7.396c-.11.081-.231.327-.269.547-.079.459.016.391.349-.25.25-.48.237-.53-.08-.297m-3.15 9.762c-.083.084-.15.335-.15.558 0 .295.06.347.219.188.12-.12.188-.371.15-.558-.038-.186-.136-.271-.219-.188m-.904 8.085c0 .385.042.543.092.35s.05-.507 0-.7-.092-.035-.092.35m.016 3.3c.001.66.038.906.083.546a5.3 5.3 0 0 0-.002-1.2c-.046-.3-.082-.006-.081.654m.054 3.4c.061.77.116 1.797.122 2.282.006.542.071.773.168.6.087-.156.073-1.093-.032-2.082-.231-2.184-.412-2.746-.258-.8m.284 3.8c0 .165.09.3.2.3s.2-.135.2-.3-.09-.3-.2-.3-.2.135-.2.3m.71 3.55c.196.904.482 1.624.599 1.508.158-.158-.36-2.158-.559-2.158-.101 0-.119.29-.04.65m.758 2.837c.06.159.209.656.33 1.107.132.487.306.765.433.687.144-.089.136-.178-.027-.278-.131-.081-.221-.207-.2-.279.097-.329-.244-1.524-.434-1.524-.117 0-.163.129-.102.287m3.645 8.892c-.07.114.056.39.28.614s.359.407.3.407-.011.18.107.4.299.4.403.4-.046-.427-.334-.95c-.643-1.167-.602-1.12-.756-.871m1.39 2.626c.169.327.417.594.552.592.176-.002.17-.051-.022-.172-.147-.094-.259-.227-.25-.297.049-.37-.01-.496-.285-.601-.268-.103-.268-.048.005.478m.943 1.395c.138.22.319.4.404.4.084 0 .041-.18-.096-.4-.138-.22-.319-.4-.404-.4-.084 0-.041.18.096.4m.56.728c.009.244.573.96.675.857.046-.047-.088-.297-.298-.557-.211-.26-.38-.395-.377-.3m.594 1.739c0 .183-.084.333-.187.333-.212 0-.503.777-.348.931.055.056.255-.224.444-.622s.287-.78.217-.849c-.069-.07-.126.023-.126.207m-1.086 2.047c-.073.293-.095.572-.048.619s.146-.154.22-.447c.073-.293.095-.572.048-.619s-.146.154-.22.447m-1.066 3.441c-.178.376-.187.584-.031.735.153.148.202.122.168-.09-.026-.165.022-.461.108-.659.251-.576.027-.564-.245.014m-.42 1.545c.034.22-.013.52-.106.667-.1.161-.067.361.085.5.192.178.219.176.116-.009-.075-.133-.023-.423.115-.645.204-.326.202-.452-.01-.658-.214-.208-.251-.182-.2.145m-.15 5.85c.049.523.096 1.068.105 1.212s.108.205.22.136.143-.224.069-.343-.12-.609-.102-1.086c.019-.486-.058-.869-.173-.869-.126 0-.173.372-.119.95m.643 3.215c-.144.234.09 1.035.302 1.035.236 0 .226-.346-.014-.495-.105-.065-.141-.25-.079-.411.12-.312-.036-.408-.209-.129m1.214 3.585c-.131.223.222 1.05.448 1.05.125 0 .121-.217-.013-.6-.218-.627-.288-.699-.435-.45m.595 1.387c-.119.118.89 2.122 1.278 2.539.256.275.105-.311-.252-.976-.176-.33-.45-.846-.608-1.147s-.346-.488-.418-.416m2.27 3.939c0 .165.09.356.2.424s.2-.011.2-.176-.09-.356-.2-.424-.2.011-.2.176m.674.786c.05.344 1.274 1.659 1.411 1.516.041-.043-.271-.477-.693-.966-.422-.488-.745-.735-.718-.55m238.426.138c-.199.22-.317.4-.262.4.056 0 .308-.18.562-.4s.371-.4.262-.4c-.11 0-.363.18-.562.4m-236.7 1.763c0 .13.095.237.212.237s.147.104.069.231c-.089.144-.055.176.09.087.14-.086.298.034.398.303.091.246.222.356.291.244s-.141-.459-.467-.772c-.326-.312-.593-.461-.593-.33m1.636 1.646c.052.16.294.391.537.513s.686.493.984.824c.627.696 2.88 2.184 2.736 1.807-.101-.263-1.218-1.083-1.381-1.014-.051.022-.376-.225-.723-.549-1.127-1.053-2.252-1.879-2.153-1.581m227.079 2.295c-.212.161-.346.332-.297.38.048.049.312-.083.585-.293s.407-.381.297-.38-.373.133-.585.293M95.04 309.365c.038.146.148.251.243.233s.227.054.295.159c.299.469 2.671 1.474 2.897 1.229.172-.188.143-.216-.125-.122-.192.068-.35.031-.35-.082s-.09-.15-.2-.082-.2.044-.2-.054c0-.19-2.005-1.191-2.161-1.079-.052.037-.179-.053-.282-.2-.153-.219-.175-.219-.117-.002m219.382.052c-.263.105-.758.317-1.1.471a10 10 0 0 1-1.075.41c-.249.072-.406.206-.35.298s-.055.125-.25.074c-.194-.05-.576-.003-.85.106-.482.193-.477.199.165.211.391.008.611.095.537.215-.069.111.309.029.838-.182.622-.247.953-.495.935-.701-.033-.377.256-.429.382-.069.064.183.193.157.483-.1.217-.193.483-.35.591-.35.107 0 .37-.132.584-.294.482-.365-.065-.42-.89-.089M99.067 311.52c.311.171.694.261.85.201.155-.059.283-.028.283.07 0 .341 1.411.68 1.668.401.181-.196.155-.224-.118-.128-.192.068-.35.03-.35-.084 0-.116-.176-.151-.4-.08-.22.07-.4.041-.4-.065 0-.244-.508-.441-1.4-.544l-.7-.081Zm210.245.105c-.434.101-.835.232-.893.289-.18.18 1.671-.156 1.871-.34.227-.208.097-.201-.978.051m-5.84.913c.076.077.338.167.583.201.353.049.383.021.145-.135-.34-.224-.94-.278-.728-.066m-98.591.21c.15.15 15.748.085 15.902-.066.046-.045-3.546-.082-7.983-.082s-8 .067-7.919.148m-32.048.152c.066.065 2.492.156 5.393.202s5.004.013 4.674-.071c-.705-.182-10.241-.306-10.067-.131m68.267.108c-1.365.08.134.123 3.95.114 3.383-.008 6.15-.084 6.15-.168 0-.176-6.801-.139-10.1.054m10.652-.067c.249.048.609.046.8-.004s-.012-.089-.452-.087c-.44.003-.596.044-.348.091M301.1 313c.22.095.535.172.7.172.189 0 .152-.064-.1-.172-.22-.095-.535-.172-.7-.172-.189 0-.152.064.1.172m-143.15.148c.688.039 1.813.039 2.5 0s.125-.071-1.25-.071-1.937.032-1.25.071m6.15.052-.6.153.538.023c.296.013.594-.066.662-.176s.096-.189.062-.176a19 19 0 0 1-.662.176m20.655-.053c.471.042 1.191.041 1.6-.002s.025-.077-.855-.076c-.88 0-1.215.035-.745.078m46.595 0c.578.041 1.523.041 2.1 0 .578-.04.105-.073-1.05-.073s-1.627.033-1.05.073m5-.006c.247.048.653.048.9 0 .248-.048.045-.087-.45-.087s-.697.039-.45.087m27.804.004c.359.044.899.044 1.2-.002s.006-.082-.654-.081-.906.038-.546.083m2.392-.001c.355.045.985.045 1.4.002s.124-.079-.646-.08-1.11.034-.754.078m-119.046.174c.94.15 3.261.181 3.041.041-.133-.084-.961-.142-1.841-.129-.88.014-1.42.053-1.2.088m3.569.132c-.051.083.655.137 1.569.12 1.685-.03 1.535-.109-.407-.213-.588-.031-1.111.011-1.162.093m105.681-.104c.468.043 1.233.043 1.7 0 .468-.042.085-.076-.85-.076s-1.318.034-.85.076m18.503-.026c.139.139 4.578.116 4.719-.025.052-.052-1.015-.095-2.372-.095s-2.413.054-2.347.12m21.097.021c.248.048.652.048.9 0s.045-.087-.45-.087-.697.039-.45.087m-159 .2c.247.048.653.048.9 0 .248-.048.045-.087-.45-.087s-.697.039-.45.087m135 0c.248.048.652.048.9 0s.045-.087-.45-.087-.697.039-.45.087m15.1.002c.302.046.798.046 1.1 0s.055-.083-.55-.083-.853.037-.55.083m2-.005c.193.05.507.05.7 0s.035-.092-.35-.092-.543.042-.35.092m1.7.007c.357.044.943.044 1.3 0 .358-.045.065-.081-.65-.081s-1.007.036-.65.081m-181.25.255c-.078.126.151.165.616.106.991-.127 1.125-.306.229-.306-.397 0-.777.09-.845.2m18.9 0c0 .124.896.188 2.35.17 2.13-.028 2.228-.045 1.05-.177-1.959-.22-3.4-.217-3.4.007m16.158-.052a25 25 0 0 0 2.4 0c.628-.04.062-.072-1.258-.072-1.32.001-1.834.033-1.142.072m132.892-.001a15 15 0 0 0 1.9 0c.522-.041.095-.075-.95-.075s-1.472.034-.95.075m3.302-.006c.249.048.609.046.8-.004s-.012-.089-.452-.087c-.44.003-.596.044-.348.091M114.1 314c-.072.117.131.2.488.2.337 0 .612-.09.612-.2s-.22-.2-.488-.2c-.269 0-.544.09-.612.2m5.052.141c.249.048.609.046.8-.004s-.012-.089-.452-.087c-.44.003-.596.044-.348.091"/><path id="path8" fill="#9cd6cc" d="M144.55 138.945c.357.044.943.044 1.3 0 .358-.045.065-.081-.65-.081s-1.008.036-.65.081m-3.5.193c.193.05.508.05.7 0s.035-.092-.35-.092-.542.042-.35.092m-2.397.206c.304.045.754.044 1-.003.246-.048-.003-.085-.553-.084-.55.002-.751.041-.447.087m107.247.001c-.33.047-.69.181-.8.297-.14.147.011.164.5.055.385-.086 1.24-.22 1.9-.296l1.2-.14-1.1-.001c-.605 0-1.37.038-1.7.085M93.751 184.2c-.08.275-.141.725-.136 1l.01.5.197-.492c.108-.271.169-.721.136-1l-.061-.508ZM303.2 198.913c0 .282-.09.682-.201.888-.111.208-.122.423-.025.483.096.059.263-.34.372-.888.108-.548.119-.996.025-.996s-.171.231-.171.513m6.526 5.382a.75.75 0 0 0 .379.379c.173.067.236.004.169-.169a.75.75 0 0 0-.379-.379c-.173-.067-.236-.004-.169.169m-215.93 2.41c-.386.466-.111.553.303.096.2-.22.27-.401.156-.401-.113 0-.32.137-.459.305m-13.987 17.678c-.155.289-.158.417-.01.417.243 0 .507-.561.342-.726-.06-.059-.209.079-.332.309m-2.054 4.928c-.065.106-.173.551-.239.991l-.12.798.305-.79c.287-.741.324-1.436.054-.999m-1.001 3.28c-.138.492-.056.777.162.56.064-.064.085-.327.046-.584l-.07-.467ZM76.447 234c-.361 1.156-.505 2.149-.262 1.8.115-.165.21-.508.212-.763s.099-.642.216-.861.177-.506.133-.637c-.045-.131-.179.076-.299.461m255.833 11.9c0 1.65.031 2.298.069 1.441.037-.858.037-2.208-.001-3-.038-.793-.068-.091-.068 1.559M81.617 291.5c.019.683.352 1.321.366.7.006-.275-.076-.635-.183-.8-.16-.248-.192-.23-.183.1M202.4 312.8c0 .117.641.194 1.55.186 1.052-.01 1.421-.069 1.15-.186-.564-.242-2.7-.242-2.7 0m18.4.009c0 .135.583.198 1.6.173.88-.021 1.6-.095 1.6-.165s-.72-.148-1.6-.174c-1.022-.029-1.6.031-1.6.166M104.5 313c-.073.119.145.194.538.186.552-.012.595-.043.262-.186-.543-.233-.656-.233-.8 0m63.852.141c.249.048.609.046.8-.004s-.012-.089-.452-.087c-.44.003-.596.044-.348.091m-44.15.617c-1.044.032-1.973.133-2.064.224s.088.136.398.1c.31-.037 1.757-.086 3.214-.11s2.65-.113 2.65-.197c0-.085-.517-.137-1.15-.115Zm-12.185.123c.192.188 1.39.269 1.494.101.062-.1-.268-.182-.733-.182-.464 0-.807.037-.761.081m5.49.093c.193.193 4.093.171 4.093-.023 0-.094-.949-.155-2.109-.137-1.16.019-2.053.091-1.984.16m-1.854.17c.304.045.754.044 1-.003.246-.048-.003-.085-.553-.084-.55.002-.751.041-.447.087"/></g></svg>