<svg xmlns="http://www.w3.org/2000/svg" width="500" height="500" viewBox="0 0 500 500"><path fill="#facb08" fill-rule="evenodd" d="M300.073 138.635c-1.764 2.242-2.073 4.039-2.073 12.045 0 8.658.196 9.607 2.455 11.865 2.977 2.978 4.906 3.094 7.545.455 1.746-1.746 2-3.333 2-12.5s-.254-10.754-2-12.5c-2.728-2.728-5.454-2.51-7.927.635m-54.346 22.114c-3.134 3.464-2.112 6.067 5.442 13.858 6.104 6.295 7.667 7.393 10.521 7.393 2.579 0 3.608-.56 4.458-2.426 1.738-3.813.401-6.607-6.361-13.299-7.106-7.032-11.23-8.653-14.06-5.526m104.969 4.001c-9.932 9.278-11.293 11.828-8.16 15.29 3.469 3.833 7.165 2.604 14.636-4.868 5.934-5.934 6.828-7.303 6.828-10.464 0-3.72-1.919-5.708-5.508-5.708-.902 0-4.41 2.588-7.796 5.75M293 178.431c-11.804 3.285-21.18 11.108-26.702 22.281-3.37 6.818-3.738 8.348-3.766 15.672l-.032 8.116 5.013 1c14.974 2.987 25.618 13.091 31.557 29.955 2.226 6.32 4.952 7.279 14.438 5.079 9.171-2.126 14.027-4.879 21.034-11.922 8.286-8.328 11.699-16.616 11.782-28.612.07-10.138-1.823-16.524-7.35-24.802-9.605-14.383-29.052-21.476-45.974-16.767M232.5 214c-.34.551 1.279 3.251 3.597 6 5.435 6.446 9.826 6.875 12.788 1.25 1.505-2.857.013-5.958-3.511-7.298-3.302-1.255-12.089-1.222-12.874.048m130.5-.351c-4.058 1.572-5.253 6.907-2.171 9.696 2.811 2.544 22.181 2.407 24.516-.174 2.03-2.242 2.119-5.154.237-7.73-1.216-1.664-2.821-1.972-11.25-2.157-5.408-.119-10.507.045-11.332.365m-18.622 43.344c-2.464.984-3.842 5.272-2.5 7.778.51.951 3.857 4.542 7.438 7.979 4.917 4.719 7.218 6.25 9.397 6.25 3.712 0 5.287-1.632 5.287-5.477 0-2.478-1.314-4.365-6.75-9.697-7.127-6.989-9.426-8.21-12.872-6.833"/><path fill="#c4e3f4" fill-rule="evenodd" d="M349 165.5c-2.429 2.475-4.191 4.5-3.916 4.5s2.487-2.025 4.916-4.5 4.191-4.5 3.916-4.5-2.487 2.025-4.916 4.5m-161.302 38.535c-12.351 3.103-25.779 14.088-31.086 25.432-3.184 6.805-5.952 19.707-5.081 23.675.525 2.389.235 2.749-2.722 3.389-9.852 2.13-21.076 11.453-25.565 21.233-3.733 8.133-3.744 19.315-.028 27.411 3.072 6.694 9.302 13.768 15.12 17.172 9.829 5.748 8.289 5.653 91.667 5.653 82.78 0 81.447.079 89.497-5.307 10.842-7.253 16.524-16.989 16.455-28.193-.069-11.303-4.098-19.395-13.268-26.65-4.803-3.8-7.889-4.984-17.026-6.531-4.697-.795-4.89-.966-6.596-5.843-6.096-17.431-16.928-27.263-33.565-30.465-7.245-1.395-18.499-.985-20.321.739-.727.688-1.695 1.25-2.151 1.25-1.503 0-11.194-11.923-10.545-12.973.349-.565-.11-1.027-1.02-1.027s-2.869-.865-4.353-1.922-5.379-3.138-8.654-4.626c-5.011-2.275-7.622-2.757-16.456-3.038-5.775-.183-12.211.096-14.302.621"/></svg>