<svg xmlns="http://www.w3.org/2000/svg" id="svg" width="400" height="400" viewBox="0 0 400 400"><g id="svgg" fill-rule="evenodd" stroke="none"><path id="path0" fill="#49b1fc" d="M235.2 15.385V30.8l3.1.091c1.705.05-2.3.189-8.9.309s9.195.259 35.1.309c31.073.06 47.1.227 47.1.491 0 .233 1.325.4 3.176.4 1.747 0 3.288.18 3.424.4s.777.4 1.424.4 1.176.18 1.176.4.54.4 1.2.4 1.2.18 1.2.4.36.4.8.4.8.18.8.4.36.4.8.4.8.18.8.4.27.4.6.4.6.147.6.326.691.715 1.535 1.189c1.882 1.058 6.871 5.881 7.639 7.385.308.605.689 1.1.845 1.1s.508.54.781 1.2.616 1.2.761 1.2.513.855.817 1.9.694 1.995.866 2.11c.172.116.414.782.537 1.48s.41 1.761.639 2.363c.283.744.408 23.67.389 71.536-.017 45.566.114 70.86.37 71.626.218.652.464 1.635.547 2.185s.283 1.301.443 1.669.332.934.379 1.259c.048.325.326.879.619 1.232.292.352.374.643.182.646-.192.004.231.519.941 1.144.709.626 1.174 1.253 1.033 1.394s-.036.256.234.256.379.18.243.4.014.4.334.4 1.159.54 1.866 1.2 1.536 1.2 1.842 1.2.558.18.558.4.529.4 1.176.4 1.288.18 1.424.4c.326.528 9.274.528 9.6 0 .136-.22.597-.4 1.024-.4s.776-.18.776-.4.36-.4.8-.4.8-.18.8-.4.39-.4.867-.4c.476 0 .761-.105.633-.234-.129-.128.743-1.118 1.937-2.2 1.194-1.081 2.083-1.966 1.975-1.966s.226-.765.742-1.7.889-2.015.828-2.4.053-.7.253-.7c.441 0 .506-147.726.065-148.167-.165-.164-.316-1.058-.336-1.985s-.184-2.217-.364-2.867-.287-1.496-.238-1.881c.048-.385-.103-.7-.337-.7s-.425-.428-.425-.951-.263-1.58-.584-2.349-.471-1.511-.333-1.649.08-.251-.129-.251-.628-.855-.932-1.9-.713-2.006-.908-2.136-.383-.625-.419-1.1-.207-.864-.38-.864-.315-.27-.315-.6-.18-.6-.4-.6-.4-.416-.4-.925c0-.508-.36-1.311-.8-1.783s-.8-1.147-.8-1.499-.18-.529-.4-.393-.4-.123-.4-.576-.18-.824-.4-.824-.4-.27-.4-.6-.18-.6-.4-.6-.4-.281-.4-.624-.18-.512-.4-.376-.4-.032-.4-.373-.36-.845-.8-1.12-.8-.73-.8-1.012-.945-1.471-2.1-2.643a166 166 0 0 1-4.3-4.577c-1.21-1.346-2.425-2.453-2.7-2.461s-.5-.194-.5-.414-.281-.4-.624-.4-.512-.18-.376-.4.066-.4-.156-.4c-.221 0-.885-.447-1.474-.993-.589-.545-1.213-.904-1.386-.797-.174.107-.376.037-.45-.156-.171-.447-4.126-2.945-5.834-3.686-.715-.31-1.3-.699-1.3-.866 0-.166-.371-.302-.824-.302s-.712-.18-.576-.4c.148-.24-.364-.402-1.276-.406-1.131-.005-1.369-.106-.924-.394.468-.302.357-.389-.5-.394-.605-.003-1.1-.153-1.1-.334 0-.18-.9-.572-2-.872s-2-.692-2-.872c0-.181-.619-.328-1.376-.328s-1.488-.18-1.624-.4-.942-.4-1.79-.4c-.879 0-1.615-.215-1.71-.5-.132-.395-9.577-.524-45.033-.615L235.2-.029ZM88.7 59.082a5.7 5.7 0 0 0 1.8 0c.495-.095.09-.173-.9-.173s-1.395.078-.9.173m51.83.018c9.201.06 24.141.06 33.2 0 9.058-.06 1.53-.109-16.73-.109s-25.672.049-16.47.109m77.788 21.927c.492.345.775.823.627 1.062-.166.268-.081.319.219.133.544-.336-.529-1.822-1.315-1.822-.235 0-.024.282.469.627M228.8 92.4c0 .22.225.355.5.3s.455.125.4.4.172.5.503.5c.504 0 .521-.133.104-.8-.52-.833-1.507-1.095-1.507-.4m2 2.023c-.494.338-.459.39.2.294.595-.087.793.104.772.746-.02.634.171.825.719.719.411-.079 1.099.208 1.528.637.472.472.779.583.776.281-.003-.275-.633-.907-1.4-1.404S232 94.614 232 94.396c0-.505-.437-.495-1.2.027m4.41 3.412c.045.421.058.945.029 1.165-.27 2.048.057 42.828.345 42.926.204.069.266.399.138.733-.188.49-.297.505-.561.078-.27-.437-.418-.433-.844.025-.285.306-.312.44-.059.299.252-.141.571.037.708.396.226.588.338.578 1.142-.103l.892-.754-.764.902c-.421.497-.631 1.037-.468 1.2.164.163.528-.018.809-.403.281-.384.654-.699.829-.699s.016.334-.354.743c-.992 1.095.159 2.087 1.48 1.276.848-.52.852-.514.151.275-.629.708-.641.836-.1 1.044.383.147.617.015.617-.351 0-.323.18-.587.4-.587.566 0 .496.647-.14 1.283-.453.453-.453.621 0 1.044.329.307.56.342.59.089.121-1.01.162-1.161.366-1.366.119-.118.246.182.282.667.144 1.916.535 2.876.923 2.262.294-.464.369-.42.379.221.018 1.191.612 1.916 1.663 2.031.515.056 1.066.117 1.224.136.159.018.178.32.043.671-.256.667 2.782 3.917 3.236 3.463.129-.129.234.07.234.442s.45.848 1 1.057 1 .655 1 .99c0 .336.189.61.419.61.231 0 .878.495 1.439 1.1l1.02 1.1-7.539.103c-7.655.104-9.974.396-7.339.922 1.302.26 1.278.272-.335.173-.954-.059-1.944-.319-2.2-.576-.355-.358-.275-.409.335-.215l.8.253-.8-.514c-.44-.283-1.025-.551-1.3-.595-.594-.095-.674.894-.1 1.249.255.158.4 5.726.4 15.39 0 11.74.112 15.189.5 15.345.379.153.382.209.013.233-.269.018-.383.306-.253.644.203.529.31.516.793-.1.421-.537.533-.564.453-.112-.093.525 2.34.613 19.594.704l19.7.104.075 70.896c.087 83.464.121 73.645-.258 76.096-.17 1.1-.318 2.225-.33 2.5-.011.275-.17.5-.354.5-.183 0-.333.54-.333 1.2s-.18 1.2-.4 1.2-.4.265-.4.588-.36 1.229-.8 2.012-.8 1.789-.8 2.236c0 .446-.18.7-.4.564s-.4-.055-.4.18-.54.992-1.2 1.683-1.2 1.424-1.2 1.629c0 .974-6.221 6.466-6.87 6.065-.192-.119-.3.022-.24.313.061.292-.115.485-.39.43s-.5.08-.5.3-.371.4-.824.4-.712.18-.576.4-.123.4-.576.4-.824.18-.824.4-.36.4-.8.4-.8.141-.8.313-.485.353-1.078.402c-.592.049-1.183.26-1.312.468s-.904.425-1.722.48-1.488.244-1.488.419-.979.318-2.176.318-2.293.189-2.436.419c-.177.287-.438.272-.824-.049-.405-.336-.564-.342-.564-.019 0 .322-3.943.475-13.9.54l-13.9.091 12 .218c6.6.12 10.605.259 8.9.309l-3.1.091v30.89l11.385-.15c8.342-.11 11.517-.282 11.88-.645.272-.272 1.19-.495 2.039-.495.927 0 1.444-.16 1.296-.4-.147-.238.329-.4 1.176-.4.783 0 1.424-.142 1.424-.315 0-.277.609-.431 2.282-.576.266-.023.39-.192.277-.376-.114-.183.344-.333 1.017-.333s1.224-.18 1.224-.4.27-.4.6-.4.603-.225.606-.5c.005-.366.099-.354.352.045.244.385.391.408.501.078.085-.256.44-.508.788-.559s1.104-.402 1.679-.779 1.282-.685 1.572-.685c.289 0 .785-.36 1.102-.8s.82-.8 1.117-.8.812-.272 1.144-.604.797-.484 1.033-.338c.255.157.313.078.144-.196s-.031-.462.338-.462c.343 0 .624-.191.624-.424s.157-.326.35-.207c.192.119.822-.222 1.4-.757.577-.536 1.055-.847 1.062-.693.007.155.198-.038.425-.427.227-.39.557-.619.734-.51.376.233 5.229-4.394 5.229-4.984 0-.219.27-.398.6-.398s.6-.175.6-.389c0-.215.81-1.2 1.8-2.19s1.8-1.995 1.8-2.234.208-.306.462-.149c.265.164.354.111.208-.124-.139-.225.193-.928.738-1.562s.991-1.358.992-1.609c0-.252.256-.556.57-.676.313-.12.874-.86 1.245-1.643s.836-1.424 1.031-1.424.354-.27.354-.6.18-.6.4-.6.4-.36.4-.8.18-.8.4-.8.4-.234.4-.52c0-.736.941-2.673 1.3-2.677.165-.002.3-.369.3-.817s.305-1.28.678-1.849.705-1.408.739-1.865c.033-.457.268-.9.522-.985s.461-.679.461-1.32c0-.642.21-1.167.467-1.167.256 0 .371-.096.254-.213-.192-.191.044-1.785.678-4.587.708-3.125.969-4.927.764-5.26-.127-.206-.072-.592.123-.858.196-.265.408-1.112.473-1.882.148-1.76-.256-1.568 3.776-1.793 1.908-.106 3.908-.303 4.445-.438.537-.134 1.931-.297 3.098-.36 2.269-.123 5.306-.673 7.422-1.342.715-.226 1.3-.312 1.3-.19 0 .121.225.042.5-.176.275-.219 1.49-.636 2.7-.927s2.678-.854 3.262-1.252c.584-.397 1.349-.722 1.7-.722s.638-.18.638-.4.339-.4.754-.4c.983 0 2.91-1.003 2.573-1.339-.143-.144.13-.261.606-.261.477 0 .867-.18.867-.4s.36-.4.8-.4.8-.18.8-.4.281-.4.624-.4.512-.18.376-.4.057-.4.429-.4c.373 0 1.013-.388 1.424-.861.442-.509.747-.648.747-.339s.305.17.747-.339c.411-.473.859-.861.995-.861.329 0 1.571-1.026 3.711-3.064.961-.916 1.747-1.558 1.747-1.428s.556-.381 1.236-1.136 1.4-1.327 1.6-1.272.319-.125.264-.4.125-.455.4-.4.5-.138.5-.429.9-1.493 2-2.671 2-2.291 2-2.474.54-.898 1.2-1.589 1.2-1.499 1.2-1.796c0-.298.18-.541.4-.541s.4-.294.4-.653.315-.944.7-1.3.758-.917.83-1.247c.071-.33.296-.66.5-.733.203-.074.37-.479.37-.9 0-.422.18-.767.4-.767s.4-.36.4-.8.18-.8.4-.8.4-.36.4-.8.18-.8.4-.8.4-.339.4-.754.261-1.257.58-1.872c.318-.614.488-1.265.376-1.445s-.013-.329.22-.329.424-.439.424-.976.19-1.094.421-1.237a.634.634 0 0 0 .252-.724c-.093-.254.08-1.076.384-1.824.305-.749.473-1.443.374-1.542s.006-.656.233-1.238.456-1.794.509-2.692.244-1.871.424-2.162c.235-.38.169-.438-.235-.208-.455.259-.466.217-.062-.218.714-.77.714-12.776 0-12.785-.368-.005-.357-.097.043-.35.384-.244.411-.425.093-.622-.247-.152-.359-.424-.248-.602.11-.179-.231-.962-.76-1.74-.528-.778-.87-1.505-.76-1.614.254-.255-4.162-4.653-4.794-4.775-.261-.05-.744-.378-1.074-.729-.703-.748-2.192-1.168-5.1-1.44-1.155-.108-2.1-.323-2.1-.478 0-.365-1.665-.325-2.254.054-.249.16-1.284.323-2.3.362-1.015.038-1.846.221-1.846.405s-.315.339-.7.344-1.15.361-1.7.791-1.133.786-1.295.791c-.629.019-4.346 3.484-4.204 3.919.054.168-.306.741-.801 1.273s-.9 1.373-.9 1.869c0 .495-.156.997-.347 1.115-.438.271-.903 3.208-1.081 6.833-.223 4.529-1.862 11.8-2.661 11.8-.171 0-.311.36-.311.8s-.18.8-.4.8-.4.36-.4.8-.18.8-.4.8-.4.198-.4.44c0 .241-.506.916-1.125 1.5s-1.242 1.375-1.387 1.76-.549.7-.899.7-.525.18-.389.4.069.4-.149.4c-.219 0-.511.36-.651.8s-.512.8-.828.8c-.315 0-1.248.696-2.073 1.547s-2.084 1.795-2.799 2.098-1.3.686-1.3.853-.236.302-.525.302c-.288 0-.873.315-1.3.7-.426.385-1.225.762-1.775.838s-1.06.301-1.133.5c-.074.199-.849.362-1.724.362-.958 0-1.492.159-1.343.4.154.249-.604.4-2 .4s-2.154.151-2 .4c.156.253-.863.4-2.776.4H308.8v-66.8c0-44.267-.135-66.8-.4-66.8-.22 0-.4-.191-.4-.424s.183-.31.407-.172.145-.346-.174-1.076a119 119 0 0 1-1.104-2.628c-.288-.715-.671-1.3-.85-1.3-.18 0-.222-.168-.095-.374.252-.407-1.581-2.426-2.202-2.426-.21 0-.387-.225-.394-.5s-.562-.95-1.235-1.5c-1.607-1.314-2.402-2.105-3.253-3.234-.385-.511-.701-.757-.703-.547-.001.209-.36-.159-.797-.819s-.796-1.062-.797-.894c-.002.168-1.326-1.002-2.943-2.6s-2.866-3.041-2.776-3.206.018-.3-.16-.3c-.56-.001-2.523-1.868-2.25-2.14.143-.143.084-.26-.131-.26-.408 0-4.543-3.841-4.543-4.219 0-.364-1.903-2.145-2.09-1.957-.097.096-.416-.275-.71-.825s-.686-.999-.871-.999c-.455 0-7.929-7.573-7.929-8.034 0-.201-.3-.366-.667-.366-.366 0-.557-.109-.424-.242.3-.301-1.261-1.901-2.21-2.265-.384-.147-.699-.544-.699-.88a.62.62 0 0 0-.624-.613c-.343 0-.546-.135-.452-.3s-.256-.711-.777-1.214-.947-.856-.947-.785-1.023-.822-2.273-1.986c-1.25-1.163-2.42-2.115-2.6-2.115s-.327-.27-.327-.6-.27-.6-.6-.6-.6-.137-.6-.304-.439-.778-.976-1.357-.867-1.162-.734-1.296c.134-.134.078-.243-.123-.243-.591-.001-2.578-1.856-2.293-2.14.143-.143-.071-.26-.474-.26s-.625-.108-.493-.241c.517-.516-1.481-2.075-2.065-1.61-.455.363-.505.278-.27-.462.159-.499.14-.858-.042-.797-.181.06-.371-.029-.422-.198-.163-.549-1.101-1.412-1.363-1.254-.14.084-.468-.104-.729-.419-.261-.314-.776-.475-1.145-.357-.559.178-.573.144-.087-.2.678-.479-.442-2.062-1.459-2.062-.302 0-.668-.315-.813-.7-.297-.791-2.424-2.9-2.925-2.9-.181 0-.387-.282-.458-.626-.106-.516-.301-.466-1.105.286-.785.734-.922.772-.7.194.152-.396.276-.805.276-.91s.18-.08.4.056.4-.054.4-.423c0-.488-.233-.609-.858-.446-.637.167-.741.108-.405-.228.524-.524-.489-1.903-1.399-1.903-.296 0-.538-.193-.538-.429 0-.884-1.023-1.502-1.784-1.076-.646.361-.698.286-.46-.66.184-.735.065-1.271-.38-1.716-.598-.598-.642-.589-.566.116M205.769 122.4c0 4.51.058 6.355.129 4.1.072-2.255.072-5.945 0-8.2-.071-2.255-.129-.41-.129 4.1m.2 9.249c.203.247.28.678.172.959-.107.281-.034.611.164.733.534.33.32-1.289-.231-1.747-.332-.276-.363-.26-.105.055m23.631 6.741c0 .252.18.346.401.21.22-.137.569.195.775.737s.569 1.106.807 1.253.105-.319-.295-1.035c-.744-1.332-1.688-1.983-1.688-1.165m-16 12.227c0 .119.36.603.8 1.075.89.955 1.075.504.243-.592-.516-.679-1.043-.924-1.043-.483m16.938 10.78c.254.548.593.998.753 1 .161.002.087-.447-.164-.997-.25-.55-.59-1-.754-1s-.09.449.165.997m1.894.528c.02.442.103.497.238.158.16-.396.338-.408.769-.051.436.362.561.341.561-.098 0-.31-.36-.591-.8-.624-.518-.039-.789.177-.768.615m-2.463 30.661c-.49.229-.102 1.344.453 1.302.409-.03.663-.136.564-.235-.098-.099-.011-.382.195-.63.286-.344-.672-.689-1.212-.437"/><path id="path1" fill="#08ebfc" d="M92.88 47.28c-.264.264-.459.849-.434 1.3.046.803.051.804.243.02.109-.44.38-1.025.603-1.3.518-.638.22-.652-.412-.02m-1.234 6.787c-.025.367-.15.997-.276 1.4-.218.695-.207.696.227.02.251-.391.376-1.021.276-1.4-.162-.619-.185-.621-.227-.02m32.908 1.31c-.122.317-.151.902-.065 1.3.098.451.235.235.365-.577.217-1.362.076-1.704-.3-.723m-40.302 3.739c-.108.174.466.254 1.276.177 2.474-.234 2.765-.398.796-.447-1.032-.025-1.965.096-2.072.27m-6.952.749c-.764.308-.596.758.309.826.444.033.713-.093.597-.281s.015-.433.292-.544q.509-.204-.098-.203c-.33 0-.825.091-1.1.202m-5.551 1.818c-.119.192-.574.236-1.011.097-.589-.186-.851-.035-1.013.584-.12.46-.388.836-.595.836-.208 0-.274-.168-.147-.372.126-.205.039-.491-.194-.635-.545-.337-1.658.572-1.336 1.092.134.217-.158.18-.648-.082-.672-.36-1.003-.364-1.348-.016-.344.347-.268.388.309.169.494-.189.673-.143.506.128-.143.231-.707.506-1.254.61-.547.105-.899.036-.782-.152.116-.188.04-.342-.17-.342-.209 0-.483.267-.608.593-.141.368-.487.494-.908.332-.461-.177-.588-.11-.392.207.183.296.003.468-.489.468-1.013 0-2.622.848-4.089 2.155-.645.575-1.445 1.045-1.777 1.045s-.603.191-.603.424-.165.321-.368.196c-.202-.125-.639.044-.971.376s-.932.607-1.332.61c-.617.005-.637.066-.129.394.485.314.428.389-.3.394-.495.003-.9.186-.9.406s-.348.4-.773.4-.887.36-1.027.8-.435.8-.656.8c-.571 0-1.554 1.056-1.258 1.352.136.137-.037.248-.385.248s-1.281.63-2.074 1.4-1.618 1.4-1.834 1.4-.393.3-.393.667c0 .366-.117.55-.26.407-.274-.275-2.139 1.692-2.14 2.257 0 .183-.72 1.023-1.6 1.869s-1.6 1.733-1.6 1.972c0 .24-.54 1-1.2 1.691s-1.2 1.499-1.2 1.796c0 .298-.18.541-.4.541s-.4.236-.4.525c0 .288-.36.911-.8 1.383s-.8 1.063-.8 1.314c0 .25-.328.932-.729 1.516-.944 1.375-2.194 4.046-2.361 5.045-.071.43-.272.88-.445 1-.371.256-1.876 4.869-1.742 5.34.051.178-.164.898-.477 1.6-.699 1.568-1.16 3.922-1.209 6.177-.02.935-.172 1.7-.337 1.7s-.3 52.02-.3 115.6.145 115.6.323 115.6.283.571.235 1.268c-.102 1.476.675 5.35 1.592 7.932.351.99.641 2.115.644 2.5s.186.7.406.7.4.551.4 1.224c0 .713.167 1.12.4.976.227-.14.4.196.4.776 0 .563.18 1.024.4 1.024s.4.332.4.739c0 .852 1.069 3.133 1.632 3.481.21.129.298.369.197.533-.101.163.252.804.785 1.424s.884 1.265.78 1.433.091.414.434.545c.342.132.528.393.411.582-.116.188.142.722.575 1.186.432.464.786.959.786 1.1s.54.76 1.2 1.377 1.2 1.303 1.2 1.525.99 1.418 2.2 2.657 2.2 2.426 2.2 2.636.281.382.624.382.512.18.376.4.063.4.443.4.589.101.466.224c-.264.265 1.565 2.176 2.082 2.176.195 0 .469.36.609.8s.54.8.889.8c.35 0 1.343.721 2.207 1.603.864.881 1.737 1.5 1.94 1.374s.475.047.604.382c.225.586 1.636 1.285 2.26 1.12.165-.043.3.101.3.321s.236.4.525.4c.288 0 .911.36 1.383.8s1.242.8 1.711.8 1.162.382 1.541.85c.391.483 1.15.85 1.757.85.588 0 .971.158.852.35-.119.193.255.35.831.35.596 0 .941.172.8.4-.136.22.123.4.576.4s.824.155.824.344c0 .19.629.295 1.397.234s1.516.082 1.662.317c.157.254.076.312-.197.143-.254-.157-.462-.074-.462.185 0 .288.342.381.885.239.546-.143 1.182.031 1.659.453.588.522.816.562.953.168.131-.373.323-.398.695-.089.377.312.576.266.744-.171.294-.767-.468-1.251-1.051-.668-.245.245-.724.442-1.065.439-.547-.006-.55-.056-.02-.431.332-.234.421-.5.2-.593-.26-.11-.362-5.861-.291-16.418.084-12.477-.006-16.387-.387-16.846-.416-.501-.368-.571.291-.428.433.093.727.429.654.746-.074.317.007.436.178.264.171-.171.353-.592.403-.936s-.012-.522-.138-.395c-.127.127-.487-.082-.8-.463-.313-.382-.474-.499-.357-.261.116.239-.033.434-.332.434-.33 0-.451-.25-.308-.634.212-.567.158-.57-.515-.033-.413.33-.629.395-.479.145.158-.264-.077-.545-.564-.673-.459-.12-.717-.41-.572-.645s.063-.427-.183-.427-.317-.211-.158-.468q.285-.466-.343-.225c-.37.142-.728-.005-.861-.353-.146-.38-.063-.493.228-.313.282.174.348.105.172-.179-.157-.254-.635-.462-1.062-.462-.695 0-.962-.421-.823-1.3.026-.165-.253-.3-.62-.3-.366 0-.554-.112-.417-.25.138-.137-.147-.601-.633-1.03s-.658-.667-.383-.527.5.064.5-.169-.36-.424-.8-.424c-.592 0-.8-.267-.8-1.024 0-.58-.173-.916-.4-.776-.22.136-.4-.105-.4-.536 0-.43-.502-1.746-1.116-2.923-1.158-2.224-2.298-5.476-2.137-6.101.051-.198-.009-.624-.133-.947-.424-1.107-.439-224.083-.014-224.261.22-.093.189-.183-.069-.2-.332-.023-.292-.388.137-1.247.333-.669.501-1.488.374-1.821-.132-.344-.062-.5.163-.361.217.134.395-.126.395-.579s.18-.824.4-.824.4-.54.4-1.2.18-1.2.4-1.2.4-.36.4-.8.18-.8.4-.8.4-.188.4-.417.364-.808.81-1.286c.445-.478.721-1.1.612-1.383-.108-.283-.01-.514.219-.514.615 0 1.644-1.139 1.394-1.543-.22-.357 1.238-1.899 1.707-1.806.325.065 2.458-1.713 2.458-2.049 0-.137-.208-.121-.462.036-.288.178-.353.11-.172-.183.159-.257.458-.364.665-.236.479.296 1.48-.685 1.288-1.262-.08-.24.176-.787.568-1.215s.569-.562.394-.296c-.555.838.345.949 1.048.129.749-.875.881-1.352.271-.975-.22.136-.4.141-.4.011s.405-.415.9-.633c.822-.362.804-.378-.2-.18l-1.1.217V79.184c0-12.712-.104-15.972-.5-15.743-.275.158-.367.14-.203-.04s.096-.569-.149-.864c-.293-.352-.303-.537-.03-.537.228 0 .507.225.618.5.132.324.319.359.534.1.181-.22.585-.4.897-.4.311 0 .631-.195.711-.433.171-.515-1.017-.59-1.329-.084M80 92.715c0 .173.36.342.8.375s.8-.109.8-.315-.36-.375-.8-.375-.8.142-.8.315m232.7 248.367a5.7 5.7 0 0 0 1.8 0c.495-.095.09-.173-.9-.173s-1.395.078-.9.173M74.069 399.033c.4.405.945.57 1.357.412.873-.335.585-.624-.877-.885-1.077-.191-1.107-.161-.48.473"/><path id="path2" fill="#1cdcfc" d="M110.267 17.867c-.807.806-1.403 1.531-1.324 1.609.279.28 1.449-.366 1.249-.689-.112-.181.155-.443.594-.583s.756-.467.706-.728c-.051-.262.146-.427.438-.366.291.06.415-.075.276-.3-.346-.561-.293-.59-1.939 1.057m-2.051 2.695c.714.522.686.547-.389.341-.945-.181-1.113-.104-.913.417.18.469.073.573-.4.392-.401-.154-.545-.086-.382.178.145.234-.006.529-.334.656-.329.126-.598.505-.598.841 0 .337-.199.613-.443.613-.243 0-.331.29-.195.645.179.468.076.578-.378.404-.344-.132-.53-.086-.414.102s-.163.681-.62 1.095c-.458.413-1.109 1.293-1.447 1.953s-.733 1.291-.878 1.401c-.476.361-2.085 2.8-1.847 2.8.128 0-.186.675-.697 1.5-1.489 2.403-2.682 5.219-3.263 7.7-.025.11-.259.581-.518 1.047-.26.466-.375.945-.256 1.063.118.119-.076.778-.431 1.465-.355.686-.545 1.411-.423 1.609s.04.474-.183.612c-.224.138-.407.946-.407 1.794s-.167 1.603-.372 1.677c-.205.073-.424 1.425-.486 3.003-.063 1.579-.256 2.783-.428 2.677-.173-.107-.314.446-.314 1.229V59.2l-3.4.05c-3.118.046-4.026.115-4.3.328-.055.042-1 .127-2.1.188-3.234.18-3.457.218-3.248.556.109.177-.791.312-2 .3-1.864-.019-2.307.123-2.92.936-.663.878-1.957.892-1.415.014.337-.545-.306-.431-1.141.202-.466.354-.571.644-.293.815a.51.51 0 0 1 .162.7c-.16.26-.082.32.193.149.346-.214.462 3.73.462 15.746v16.031l1.1-.217c1.004-.198 1.022-.182.2.18-.495.218-.9.503-.9.633s.18.125.4-.011.403-.012.406.276c.004.32.121.368.3.124.283-.386 2.271-1.583 3.094-1.864.22-.075.365-.241.322-.37s.452-.203 1.1-.165c.648.039 1.178-.081 1.178-.265 0-.185.36-.336.8-.336s.8-.18.8-.4c0-.222 1.067-.4 2.4-.4s2.4-.178 2.4-.4c0-.259 5.552-.427 15.7-.477 8.826-.044 13.949-.185 11.7-.323-2.2-.135-3.73-.28-3.4-.323.535-.069.703-29.522.402-70.577-.001-.165-.396-.3-.878-.3-.851 0-.854.016-.108.562M66.2 63.2c-.136.22-.586.4-1 .4s-.854.163-.977.363c-.271.439 1.382.074 2.059-.455.266-.207.699-.244.962-.081.304.188.375.127.194-.165-.351-.568-.908-.596-1.238-.062m3.955 33.812c-.365.557-.549 1.127-.409 1.267s.254.034.254-.236c0-.272.208-.362.468-.201.307.19.387.077.231-.328-.13-.339-.035-.818.212-1.065s.327-.449.178-.449-.569.456-.934 1.012M68.2 361.2c.136.22.517.4.847.4.352 0 .482.191.315.462-.181.293-.109.353.196.164.368-.228.371-.429.012-.862-.528-.636-1.753-.783-1.37-.164m2.879 1.88c-.54.14-.613.317-.291.705.295.356.396 5.611.321 16.767-.071 10.557.031 16.308.291 16.418.221.093.132.359-.2.593-.518.367-.504.426.1.431.385.003.7.186.7.406s.191.4.424.4.321-.165.197-.366-.09-.442.077-.534c.166-.093.032-.098-.298-.011-.457.121-.489.047-.135-.31.619-.624 1.366-.125 1.05.699-.172.448-.098.559.235.353.267-.165.782-.059 1.144.235.459.371.569.383.362.039-.202-.337-.099-.42.321-.259.34.131.533.375.43.543-.267.432.587.463 17.884.656l15.491.173.109-15.553.109-15.553-4.763-.256c-2.619-.141-7.424-.256-10.676-.256s-6.014-.162-6.136-.36c-.123-.199-1.079-.359-2.124-.357-3.961.007-4.557-.07-4.259-.551.19-.307.077-.387-.327-.232-.338.13-1.121-.026-1.739-.346-.618-.321-1.367-.49-1.665-.375-.298.114-.643-.058-.768-.383s-.373-.501-.553-.39c-.179.111-.597-.07-.929-.402-.733-.733-1.459-.785-1.467-.104-.004.343-.122.318-.374-.081-.202-.319-.278-.724-.17-.9.309-.501-.836-.373-1.361.152-.36.36-.431.267-.303-.4.093-.479.133-.85.091-.825-.042.026-.402.131-.798.234"/><path id="path3" fill="#22d3fc" d="M145.946.187c-.103.103-1.213.221-2.467.262S141.2.676 141.2.862s-.72.338-1.6.338-1.6.18-1.6.4-.54.4-1.2.4-1.2.18-1.2.4-.439.4-.976.4-1.088.18-1.224.4-.687.4-1.224.4-.976.18-.976.4-.45.4-1 .4-1 .18-1 .4-.371.4-.824.4-.734.144-.625.32-.566.546-1.498.821c-.933.276-2.316 1.031-3.075 1.679-.758.648-1.648 1.18-1.978 1.183-.33.002-1.024.541-1.543 1.198s-1.105 1.093-1.304.97c-.463-.286-2.416 1.233-2.052 1.597.151.151-.024.16-.389.02-.43-.165-.847.039-1.184.579-.286.458-.758.833-1.048.833s-.416.18-.28.4.046.4-.2.4-.319.208-.162.462c.182.294.109.353-.201.161-.714-.442-2.147.962-1.625 1.591.439.529-.576 1.179-1.22.781-.185-.115-.467.003-.626.26-.174.282-.117.362.145.2.238-.147.535-.104.659.097.269.434-.885.948-1.406.626-.2-.124-.364-.05-.364.165s.182.451.404.525c.736.245.732 70.717-.004 70.8-2.944.335 12.483.624 31.8.597 12.98-.018 21.845-.091 19.7-.163l-3.9-.131V60.4h1.8c.99 0 1.8-.176 1.8-.39 0-.234 2.693-.439 6.7-.511 3.685-.066-4.505-.16-18.2-.209-21.173-.077-24.9-.175-24.9-.657 0-.311.171-.626.38-.7.209-.073.424-.898.478-1.833s.243-1.7.42-1.7.322-.54.322-1.2.18-1.2.4-1.2.4-.36.4-.8.18-.8.4-.8.4-.36.4-.8.18-.8.4-.8.4-.236.4-.525c0-.288.405-.959.9-1.49.495-.532.855-1.015.8-1.076-.294-.321-.041-.919.3-.709.22.136.4.049.4-.193 0-.751 2.294-3.262 5.212-5.704l2.288-1.915c.275-.231.506-.277.513-.104s.284-.044.617-.484c.332-.44.692-.744.799-.676.171.109 3.53-1.341 5.466-2.359.382-.201 1.014-.365 1.405-.365s1.655-.345 2.809-.767c1.153-.421 1.992-.596 1.863-.388-.136.221.433.332 1.362.267 1.257-.088 1.505-.223 1.166-.632-.34-.409-.205-.478.635-.326.586.106 1.065.025 1.065-.18 0-.206.27-.374.6-.374.523 0 .6-1.978.6-15.4V0h-5.133c-2.824 0-5.218.084-5.321.187M173.785 110.8c0 10.67.052 15.035.115 9.7s.063-14.065 0-19.4-.115-.97-.115 9.7M106.2 368.696l3.2.133-.109 15.585-.109 15.586H156.4v-30.673l-6.1-.466c-3.778-.289-13.942-.434-26.7-.382-11.33.046-19.16.144-17.4.217"/><path id="path4" fill="#34c4fc" d="M156.4 15.4c0 13.422-.077 15.4-.6 15.4-.33 0-.6.18-.6.4 0 .264 10.129.381 29.7.344 26.896-.051 61.073-.478 53.4-.667l-3.1-.077V0h-78.8Zm-4.24 16.401c.808.611 2.313.58 2.524-.052.069-.208-.24-.406-.688-.439-.447-.034-.709.108-.581.314.128.207.052.376-.168.376s-.511-.18-.647-.4a.91.91 0 0 0-.724-.387c-.262.007-.134.271.284.588m14.54 27.698c-4.007.072-6.7.277-6.7.511 0 .214-.81.39-1.8.39h-1.8v30.676l5.7.26c3.135.144 6.915.262 8.4.263l2.7.001v19.376c0 13.733.129 19.456.443 19.65.308.191.278.378-.1.618-.322.204-.359.346-.091.35.304.004.475 1.42.521 4.306.037 2.365.239 4.471.448 4.68.208.209.379 1.244.379 2.3s.18 1.92.4 1.92.4.72.4 1.6.158 1.6.35 1.6c.193 0 .35.488.35 1.083 0 .596.192 1.148.428 1.226.235.079.327.403.205.722s-.016.829.237 1.133.535.942.626 1.416.445 1.42.785 2.102.619 1.464.619 1.737c0 .272.281.603.625.735s.521.409.394.616c-.128.206-.049.488.174.626.224.138.407.611.407 1.051s.18.689.4.553.4.046.4.404.54 1.437 1.2 2.396 1.2 1.912 1.2 2.118.41.802.911 1.327 1.43 1.657 2.065 2.514 1.665 2.047 2.289 2.643c.624.597 1.135 1.195 1.135 1.331 0 .23 1.819 2.011 5.955 5.828.966.891 2.091 1.726 2.5 1.857.41.13.745.404.745.609s.281.373.624.373.529.153.413.34c-.115.187.279.585.877.885.597.301 1.581.88 2.186 1.288s1.105.594 1.112.414.196-.012.42.373.669.7.988.7.58.174.58.387c0 .214.268.285.597.159.34-.131.702.046.842.412.136.353.605.642 1.042.642s1.325.377 1.971.837c.647.461 1.449.733 1.783.605s.513-.081.398.104c-.208.337 5.107 2.054 6.356 2.054.362 0 .547.18.411.4-.149.241.388.4 1.353.4.88 0 1.711.18 1.847.4s1.147.4 2.247.4c1.105 0 1.899.164 1.774.365s.361.336 1.077.3c.826-.041 1.302-.272 1.302-.632 0-.312.406-.597.902-.633.798-.059.835.006.328.567-.513.567-.389.644 1.199.736 1.208.07 1.773-.057 1.777-.4.005-.371.097-.36.352.044.263.414.528.441 1.094.112.412-.239.523-.44.248-.447-.391-.009-.5-3.276-.5-14.966 0-12.488-.099-15.144-.598-16.1-.422-.81-.598-.934-.6-.422-.001.398-.185.61-.409.472s-.3-.464-.17-.724-.047-.123-.393.304c-.492.606-.63.643-.63.167a.616.616 0 0 0-.617-.61c-.35 0-.529.231-.413.534.113.293.031.533-.183.533-.213 0-.387-.248-.387-.551 0-.926-.978-1.505-1.588-.939-.423.392-.466.378-.211-.068.247-.433.085-.513-.722-.359q-1.038.198-1.268-.4c-.127-.328-.328-.499-.449-.379-.12.121-.688-.024-1.262-.322-.573-.298-1.191-.45-1.371-.338-.181.112-.329-.017-.329-.287s-.115-.375-.256-.235c-.22.221-.879-.213-3.227-2.128-.266-.217-.669-.394-.897-.394-.227 0-.638-.36-.913-.8s-.645-.8-.822-.8c-.493 0-3.885-3.451-3.885-3.953 0-.242-.36-.665-.8-.94s-.8-.726-.8-1.003-.157-.504-.349-.504-.794-.898-1.337-1.996-1.106-1.878-1.251-1.734c-.145.145-.263-.307-.263-1.003 0-.697-.18-1.267-.4-1.267s-.4-.324-.4-.72-.216-.936-.48-1.2-.367-.48-.228-.48.081-.585-.128-1.3-.48-2.11-.601-3.1c-.337-2.739-.382-2.984-.64-3.407-.131-.216-.267-4.234-.302-8.928l-.063-8.534 6.221 6.254c3.422 3.44 6.221 6.199 6.221 6.131s1.17.979 2.6 2.327 2.6 2.666 2.6 2.928.171.37.381.241c.21-.13.652.265.984.876.332.612.613.842.625.512.019-.52.071-.522.39-.019.202.319.307.679.233.8-.223.364 3.572 3.819 4.196 3.819.319 0 .819.498 1.111 1.107s.968 1.394 1.502 1.744.894.761.8.913c-.093.152.197.505.646.785.45.282.697.318.55.081s-.075-.43.158-.43.427.225.43.5c.004.338.127.309.379-.089.23-.364.23-.678.001-.82-.358-.221-.603-42.494-.25-43.107.09-.156.019-.644-.158-1.084s-.334-.665-.35-.5-.379-.051-.809-.481c-.429-.429-1.129-.713-1.554-.632-.598.116-.727-.027-.57-.627.171-.654.306-.696.854-.268.573.447.588.428.128-.161-.345-.441-.892-.604-1.6-.478-1.039.185-1.049.171-.277-.418.778-.593.769-.61-.3-.622-.662-.008-1.06-.212-1-.513.055-.275-.139-.45-.43-.39-.373.077-.449-.146-.257-.75.184-.58.129-.771-.17-.586-.252.155-.443.004-.443-.35 0-.343-.206-.624-.457-.624-.567 0-2.743-2.237-2.743-2.82 0-.235-.18-.316-.4-.18s-.4-.033-.4-.376-.225-.579-.5-.524-.455-.125-.4-.4c.092-.459-.412-.68-1.23-.537-.181.031-.242-.085-.135-.258.331-.536-.844-1.809-1.37-1.483-.313.193-.386.135-.201-.163.374-.605-.818-1.797-1.423-1.423-.278.173-.357.114-.196-.147.148-.239-.135-.717-.627-1.062-.493-.345-.747-.627-.565-.627s-.246-.54-.953-1.2-1.476-1.2-1.709-1.2-.313-.111-.177-.248c.304-.303-.693-1.352-1.285-1.352-.236 0-.429-.152-.429-.339 0-.567-1.46-2.061-2.014-2.061-.285 0-.4-.119-.255-.264.145-.146-.122-.461-.594-.7-.472-.24-1.056-.775-1.298-1.189-.662-1.136-2.217-2.647-2.724-2.647-.247 0-.357-.092-.245-.203.29-.291-3.319-4.019-3.762-3.887-.202.06-.268-.051-.147-.247s-.178-.695-.664-1.11c-.872-.743-.876-.743-.302.047.32.44-.089.133-.909-.682-1.367-1.36-3.44-2.619-4.755-2.888a7.6 7.6 0 0 1-1.212-.405c-.374-.163-.857-.187-1.072-.054a.47.47 0 0 1-.643-.164c-.24-.389-8.326-.423-25.904-.108m7.2 61.001c-.063 5.335-.115.97-.115-9.7s.052-15.035.115-9.7.063 14.065 0 19.4m62.264-21.15c-.335.871-.101 1.105.644.645.458-.283.48-.467.102-.845s-.541-.335-.746.2m4.444 5.774c-.324.845-.111.873.692.091.557-.543.581-.682.117-.682-.32 0-.685.266-.809.591m7.392 6.113c-.533.377-.533.404 0 .246.33-.098.96.113 1.4.469.793.642.794.64.038-.252-.419-.495-.779-.897-.8-.894a9 9 0 0 0-.638.431m-8.8 35.35c0 .375-.253.51-.7.373-.385-.118-.27.042.256.356.526.315 1.199 1.002 1.497 1.528.524.928.538.912.463-.526-.065-1.242-.171-1.405-.654-1.003-.483.4-.531.332-.293-.418.174-.547.118-.897-.142-.897-.235 0-.427.264-.427.587m4.617 5.785c-.114.186.039.542.341.793.419.348.601.319.77-.122.239-.622-.766-1.229-1.111-.671m-7.831 10.173c.189.19 1.125.391 2.079.447s1.146.024.427-.07c-.72-.094-1.216-.321-1.103-.504s-.234-.307-.771-.276c-.548.033-.826.21-.632.403M151.5 368.906l4.9.383V400h78.8v-30.8l3.1-.077c8.953-.221-28.128-.61-57.7-.606-24.859.004-32.683.108-29.1.389"/></g></svg>