<svg xmlns="http://www.w3.org/2000/svg" id="svg" width="400" height="400" viewBox="0 0 400 400"><g id="svgg" fill-rule="evenodd" stroke="none"><path id="path0" fill="#40b9fc" d="M213.406 59.312c.386.612.803 1.012.926.889s-.193-.623-.702-1.112l-.926-.889Zm1.075 2.27c.552.884.941.773.581-.165-.13-.339-.424-.617-.653-.617-.263 0-.237.287.072.782m63.919 9.849c-.77.314-1.715.681-2.1.817s-.7.404-.7.599-.252.353-.559.353c-.843 0-4.331 3.601-5.241 5.41-.44.874-1.07 1.86-1.4 2.191-1.088 1.089-2.4 3.156-2.4 3.779 0 .337-.36.838-.8 1.113s-.8.713-.8.975c0 .261-.233.713-.517 1.003-.284.291-.756 1.114-1.048 1.829s-.69 1.3-.884 1.3c-.193 0-.351.187-.351.416 0 .357-1.4 2.585-2.001 3.184-.11.11-.455.695-.767 1.3s-.717 1.1-.9 1.1c-.182 0-.332.28-.332.621 0 .873-1.808 3.438-2.169 3.077-.164-.164-.261-.118-.217.102.348 1.727-.96 2.632-2.662 1.842a56 56 0 0 0-2.052-.889 28 28 0 0 1-1.795-.8c-.382-.194-1.132-.353-1.666-.353s-1.035-.188-1.112-.418c-.076-.23-.541-.448-1.033-.485s-.894-.209-.894-.382-.529-.315-1.176-.315-1.288-.18-1.424-.4-.777-.4-1.424-.4-1.176-.18-1.176-.4-.452-.4-1.005-.4-1.318-.159-1.7-.353c-1.066-.541-4.237-1.214-5.113-1.085-.43.063-1.001-.172-1.269-.523-.372-.488-.491-.509-.5-.09-.009.38-.167.429-.513.159-.911-.711-3.845-1.262-4.052-.761-.127.307-.317.267-.589-.124-.327-.47-.596-.489-1.449-.1-1.331.606-1.41.6-1.41-.11 0-.376.252-.509.7-.37.636.197.634.175-.021-.244-.533-.342-.861-.346-1.261-.014-.405.336-.586.319-.724-.068-.656-1.841-.908 1.942-1.014 15.216-.119 14.938.007 17.908.74 17.455.209-.13.38-.041.38.196 0 .252.789.417 1.9.398 2.069-.036 5.092.882 4.604 1.399-.167.176.284.239 1.004.138.801-.112 1.478.023 1.749.349.242.293.858.532 1.368.532s1.039.18 1.175.4.777.4 1.424.4 1.176.18 1.176.4.45.4 1 .4 1 .18 1 .4.54.4 1.2.4 1.2.18 1.2.4.45.4 1 .4 1 .21 1 .467c0 .256.118.348.263.203s.523-.048.839.215c.317.263.963.536 1.437.608s.921.305.994.519c.074.213.599.388 1.167.388s.916.117.773.261c-.329.329 1.696 1.405 2.134 1.134.179-.11.388-.009.466.224.078.234.414.465.747.513.333.049 1.168.49 1.855.979s1.374.889 1.526.889c.465 0 3.133 1.297 4.261 2.071.584.401 1.349.729 1.7.729s.638.18.638.4.23.4.512.4c.281 0 .764.35 1.073.779.308.428.693.697.854.597s1.12.45 2.13 1.221c1.011.772 2.016 1.403 2.234 1.403a.4.4 0 0 1 .397.4c0 .22.281.4.624.4s.531.15.418.332.409.574 1.159.869c.751.294 1.462.786 1.58 1.092.117.307.382.453.589.326.206-.128.629.129.939.572.309.442.682.685.827.54s.264-.066.264.175c0 .242.323.543.717.668.395.125 1.385.857 2.201 1.627.816.769 1.662 1.399 1.88 1.399s.62.36.895.8.683.8.907.8.632.36.907.8.723.801.996.802c.655.002 3.519 2.643 3.206 2.955-.133.134.024.243.349.243s.985.367 1.467.816c.481.448.875.618.875.376s.211-.309.468-.15c.317.196.383.069.205-.397-.163-.423-.106-.589.148-.432.226.14.31.574.186.964-.25.789.108 2.023.588 2.023.462 0 3.605 3.137 3.605 3.6 0 .22.27.4.6.4s.6-.191.6-.424-.18-.312-.4-.176c-.23.142-.403-.23-.406-.876-.004-.73-.12-.945-.331-.613-.235.371-.451.234-.785-.5-.253-.556-.33-1.011-.169-1.011.16 0 .242-8.482.183-18.85-.081-14.252.01-18.991.374-19.43.379-.457.369-.651-.05-.91-.408-.252-.356-.374.226-.523.642-.165.621-.201-.142-.241-.495-.025-.9-.248-.9-.495 0-.31-.185-.295-.6.049-.33.274-.603.341-.606.149s-.145-.131-.314.135c-.223.352-.435.28-.773-.262-.506-.81-.03-.926 1.045-.255.382.238.496.178.372-.194-.157-.473-1.511-1.463-3.022-2.211-.273-.135-.399-.405-.279-.599.12-.195-.061-.247-.402-.116-.403.155-.621.012-.621-.404 0-.354-.27-.643-.6-.643s-.6-.191-.6-.424-.161-.324-.358-.202-.782-.129-1.3-.559l-.942-.78 1.022-.918c.562-.504 1.258-1.5 1.546-2.212s.663-1.209.833-1.104c.293.181.934-1.266.842-1.901-.024-.165.137-.3.357-.3s.4-.36.4-.8.168-.8.373-.8.501-.405.657-.9c.157-.495.628-1.141 1.046-1.436.64-.45.679-.639.243-1.175-.444-.546-.418-.601.178-.378.735.276 2.17-1.782 1.965-2.817-.055-.279.111-.459.369-.4.745.168.864-.741.187-1.419-.834-.833-.95-26.922-.118-26.422.34.204.324.084-.049-.376-.537-.662-.035-.943 1.279-.714.181.031.22-.12.087-.336-.133-.215-.484-.3-.778-.187s-.651-.095-.792-.462c-.213-.554-.362-.58-.874-.155-.34.282-.587.347-.548.145.186-.979-.112-1.368-1.049-1.368-.563 0-.931-.15-.817-.333.113-.184-.056-.334-.377-.334-.32 0-.582.15-.582.334 0 .183-.191.333-.424.333s-.312-.18-.176-.4c.395-.639-7.353-.44-9 .231m15.12 3.635c-.159.613.056.737 1.31.752 1.267.016 1.397-.056.839-.464-.363-.266-.817-.386-1.009-.267-.192.118-.484-.003-.649-.27-.211-.34-.357-.266-.491.249m4.08 4.51c0 .987.643 1.41.946.622.126-.329.044-.598-.182-.598s-.3-.18-.164-.4.057-.4-.176-.4-.424.349-.424.776m-1.651 15.901c-.313.385-.346.555-.077.393.722-.433 1.001.372.324.934-.328.272-.596.659-.596.861s.387.005.861-.436c.667-.622.758-.925.403-1.352-.251-.303-.339-.669-.194-.814s.165-.263.046-.263-.465.305-.767.677m-2.349 30.694c0 .095.283.455.629.8.922.923 1.621.768.771-.171-.657-.726-1.4-1.06-1.4-.629m-77.185 27.247c.244.294.7.436 1.014.315.889-.341.673-.727-.444-.792-.804-.046-.922.053-.57.477m2.172.071c.136.269.235 7.964.222 17.1-.019 12.751.088 16.611.459 16.611.267 0 .136.263-.292.585-.751.566-.747.579.135.421.501-.09.825-.026.72.144-.104.169.163.609.594.979.859.735 1.354.884.992.299a.43.43 0 0 1 .124-.591c.194-.121.332.182.306.672-.034.649.209.927.897 1.025.696.098.863-.007.636-.4-.181-.314-.158-.396.056-.201.2.184.386.499.414.7.028.202.073.502.1.667.103.61 1.94 2.477 2.19 2.226.143-.143.263.086.266.507.005.642.07.669.394.167.33-.511.389-.494.394.113.003.391.275.815.604.941.328.127.498.391.376.588s-.04.358.181.358 1.081 1.035 1.91 2.3 1.604 2.39 1.721 2.5c.462.432 1.214 2.019 1.214 2.561 0 .315.19.636.422.713s.467.447.522.822c.055.374.225.806.378.959s.278.608.278 1.012.151.733.336.733c.305 0 1.146 3.026 1.389 5 .054.44.229 1.009.389 1.265.462.74.384 11.205-.09 12.09-.233.436-.424 1.334-.424 1.995s-.18 1.314-.4 1.45-.4.777-.4 1.424-.18 1.176-.4 1.176-.4.45-.4 1-.18 1-.4 1-.4.45-.4 1-.168 1-.373 1-.496.405-.646.9-.593 1.26-.985 1.7c-.391.44-1.073 1.484-1.514 2.32-.514.974-.89 1.333-1.047 1-.134-.286-.169-.115-.077.381.092.495.036.819-.124.72-.347-.215-1.862 1.444-1.724 1.888.053.17-.31.467-.807.661-.497.193-1.161.72-1.476 1.17s-.72.726-.9.615-.327.089-.327.445-.161.548-.358.426-.457.036-.578.35c-.12.315-.087.629.075.698s-.059.472-.492.895c-.708.694-.759.7-.512.056.209-.543.122-.656-.363-.47a4.5 4.5 0 0 1-1.305.251c-.577.005-.586.059-.067.394.485.314.428.389-.3.394-.495.003-.9.186-.9.406s-.36.4-.8.4-.8.163-.8.363c0 .199.405.264.9.145.634-.153.782-.088.5.217-.762.827-.31 33.403.459 33.108.354-.136.872-.056 1.153.177.375.311.782.172 1.535-.526.768-.711 1.343-.903 2.293-.763.883.129 1.375-.005 1.621-.443.194-.347.708-.561 1.145-.477s.794-.017.794-.224.349-.377.776-.377.888-.18 1.024-.4.607-.4 1.047-.4.689-.18.553-.4c-.14-.227.196-.4.776-.4.563 0 1.024-.18 1.024-.4s.27-.4.6-.4.6-.18.6-.4.248-.4.551-.4.773-.268 1.045-.596c.272-.327.611-.523.754-.435.142.088 1.06-.544 2.04-1.404.98-.861 2.013-1.565 2.296-1.565s.514-.18.514-.4.178-.4.395-.4c.443 0 1.482-.799 3.445-2.65.73-.688 1.391-1.185 1.471-1.105.189.188 4.089-3.441 4.089-3.805 0-.152.495-.771 1.1-1.376s1.1-1.272 1.1-1.482.3-.382.667-.382c.366 0 .561-.105.433-.234-.216-.216.365-1.081 1.6-2.382.275-.29.5-.637.5-.772 0-.346 1.739-2.785 2.1-2.945.165-.074.3-.361.3-.638 0-.278.36-.831.8-1.229s.8-1.056.8-1.462.18-.738.4-.738.4-.32.4-.712.36-.971.8-1.288.8-.897.8-1.288c0-.392.191-.712.424-.712s.331-.149.218-.332c-.112-.182.399-1.532 1.138-2.999s1.187-2.572.998-2.455-.091-.276.218-.872c.31-.597.472-1.233.36-1.413-.112-.181-.013-.329.22-.329s.424-.45.424-1 .193-1 .429-1c.235 0 .395-.405.355-.9-.13-1.604.008-2.352.389-2.116.207.127.317-.263.247-.877-.07-.609.122-1.714.427-2.456.304-.742.553-2.306.553-3.476s.157-2.225.35-2.344c.43-.266.434-13.613.005-15.018-.17-.557-.518-2.543-.774-4.413s-.718-4.178-1.028-5.13c-.31-.951-.443-1.924-.297-2.161.159-.258.081-.317-.194-.147-.298.184-.464-.043-.468-.638-.007-.995-.871-3.734-1.32-4.183-.151-.151-.274-.604-.274-1.008s-.18-.733-.4-.733-.4-.45-.4-1-.135-1.001-.3-1.003c-.351-.004-1.3-1.934-1.3-2.643 0-.268-.135-.547-.3-.621-.165-.073-.747-1.033-1.293-2.133s-1.311-2.291-1.7-2.647-.707-.991-.707-1.412-.36-1.024-.8-1.341-.8-.807-.8-1.088-.15-.512-.332-.512-.57-.444-.861-.986c-.29-.543-.711-.873-.935-.735-.247.153-.307-.011-.153-.413.141-.366.082-.666-.132-.666-.213 0-.387-.27-.387-.6s-.27-.6-.6-.6-.6-.166-.6-.369c0-.486-7.983-8.431-8.471-8.431-.207 0-.265-.18-.129-.4.205-.331-.366-.591-.7-.318-.106.086-1.346-.894-2.996-2.369-.546-.488-1.378-1.009-1.849-1.158-.47-.148-1.092-.607-1.382-1.019s-.681-.655-.868-.539-.589-.038-.892-.341c-.597-.597-3.114-2.012-3.628-2.039-.173-.009-.462-.256-.642-.548-.181-.292-.669-.472-1.086-.4-.416.072-.727-.049-.691-.269.037-.22-.407-.428-.987-.463s-1.12-.26-1.2-.5-.491-.437-.912-.437c-.422 0-.767-.163-.767-.363 0-.199-.358-.269-.795-.154-.504.132-.886-.028-1.043-.438-.136-.355-.419-.645-.628-.645-.21 0-.298.135-.196.3s-.247.326-.776.358c-.529.031-.962-.114-.962-.324s.18-.27.4-.134.4.153.4.038c0-.611-1.684-1.067-2.238-.606-.473.392-.707.339-1.204-.273-.34-.417-.506-.539-.371-.27m72.906 11.267c-.033.442-.272.673-.575.557-.567-.217-.667-.631-.251-1.046.498-.498.883-.27.826.489m3.707 5.174c0 .182.494.767 1.097 1.3.796.704.906.742.4.139-.383-.458-.697-1.043-.697-1.3s-.18-.469-.4-.469-.4.149-.4.33m-80.933 15.537c-.503.502-.266.84.721 1.029.543.103.893.034.776-.154-.116-.188-.481-.342-.811-.342s-.489-.18-.353-.4c.28-.453.07-.537-.333-.133m1.964 67.683c-.119.193.25.35.819.35.732 0 .876-.101.493-.344-.696-.441-1.042-.442-1.312-.006m74.797 21.063c-.365.557-.847.899-1.072.76s-.376-.01-.335.287c.158 1.153-.036 1.509-.687 1.259-.483-.185-.576-.11-.338.275.225.364.174.435-.165.225-.649-.401-2.015.994-2.037 2.081-.003.165-.181.03-.394-.3-.331-.513-.389-.498-.394.1-.003.385-.171.7-.373.7s-1.118.721-2.035 1.602-1.836 1.498-2.043 1.37-.349-.083-.318.098c.172.985-.053 1.525-.403.971-.286-.451-.457-.393-.89.3-.295.473-.743.859-.995.859-.253 0-.884.538-1.404 1.196s-1.125 1.199-1.345 1.202-.97.54-1.666 1.193-1.507 1.237-1.8 1.298-.804.382-1.134.714-1.095.857-1.7 1.167-1.1.715-1.1.898c0 .182-.32.332-.712.332s-.964.35-1.273.779c-.308.428-.709.686-.891.574-.181-.112-.433.067-.56.397-.127.331-.769.719-1.426.864-.657.144-1.092.365-.966.492.302.301-2.863 2.092-3.713 2.1-.572.005-.579.058-.059.394.466.301.349.389-.524.394-.646.003-1.018.176-.876.406.136.22-.046.4-.404.4s-1.453.551-2.433 1.226-2.137 1.252-2.572 1.285-.791.201-.791.374-.371.315-.824.315-.724.161-.603.357c.122.196-.588.595-1.576.887s-1.797.671-1.797.843-.27.313-.6.313-.6.18-.6.4-.45.4-1 .4-1 .18-1 .4-.45.4-1 .4-1 .18-1 .4-.349.4-.776.4-.888.18-1.024.4-.676.4-1.2.4-1.05.157-1.168.348c-.179.289-1.203.597-2.934.882-.164.027-.585.203-.936.39-.351.188-1.147.434-1.768.547-.621.112-1.276.436-1.455.719s-.33.357-.333.165-.311-.102-.683.2c-.584.474-.627.467-.315-.051.276-.458.102-.431-.735.117-.602.394-1.255.618-1.45.497-.195-.12-.446.007-.557.284-.161.399-.209.399-.234.002-.018-.275-.231-.5-.475-.5-.243 0-.347.25-.229.556.168.438-.197.527-1.723.418-1.311-.094-2.086.041-2.4.42-.255.307-.72.46-1.034.339-.796-.305-.714.271.129.908.641.484.623.515-.209.365l-.909-.164.109 15.359c.102 14.344.063 15.37-.591 15.541-.963.252-.901 1.423.072 1.35.425-.032.683-.204.573-.382-.11-.177-.413-.201-.673-.052-.272.155-.33.116-.138-.094.184-.2 1.264-.364 2.4-.364 1.611 0 2.037-.13 1.936-.589-.101-.46.039-.436.643.11.642.581.848.608 1.222.157.269-.324.934-.471 1.657-.364.727.106 1.208-.001 1.208-.269 0-.258.723-.445 1.72-.445.946 0 1.94-.22 2.209-.489s1.115-.435 1.88-.37c.801.069 1.391-.062 1.391-.31 0-.237.72-.431 1.6-.431s1.6-.18 1.6-.4.36-.4.8-.4.8-.18.8-.4.715-.4 1.588-.4 2.237-.364 3.03-.81c.793-.445 1.303-.58 1.135-.3-.219.365-.114.354.37-.039.372-.302.677-.433.677-.291s.405-.002.9-.321 1.62-.708 2.5-.865 2.109-.642 2.732-1.079 1.568-.795 2.1-.795.968-.157.968-.35c0-.192.461-.35 1.024-.35.58 0 .916-.173.776-.4-.136-.22.028-.4.364-.4.337 0 1.253-.36 2.036-.8s1.674-.8 1.979-.8.614-.135.688-.3c.117-.264 1.935-1.201 5.133-2.647.55-.248 1.09-.55 1.2-.67.476-.52 3.296-1.983 3.823-1.983.317 0 .577-.158.577-.351 0-.194.54-.576 1.2-.849s1.2-.655 1.2-.849.261-.351.579-.351c.319 0 1.058-.444 1.643-.986s1.18-.963 1.321-.936c.42.08 1.769-.581 2.552-1.252.402-.344.95-.634 1.218-.644a.4.4 0 0 0 .387-.5c-.055-.265.26-.482.7-.482s.8-.167.8-.371.712-.685 1.581-1.069 1.489-.846 1.377-1.029.155-.331.595-.331.928-.208 1.085-.462c.177-.286.11-.353-.176-.176-.254.157-.462.095-.462-.138s.372-.424.827-.424c.67 0 .776-.17.559-.9-.266-.89-.261-.891.402-.1.369.44.557.575.418.3-.228-.449.518-.712 1.524-.537.181.031.215-.128.076-.353-.139-.226-.05-.41.199-.41.578 0 1.742-1.156 1.84-1.829.045-.304-.167-.422-.518-.288-.426.164-.462.31-.127.517.308.19.192.361-.34.5-1.27.332-1.282.131-1.249-20.58l.032-19.562.879-.354c.842-.339.835-.354-.176-.379q-1.054-.027-1.718.988m-74.825 12.034c-.77.564-.768.573.094.442 1.033-.158 1.494-.524 1.025-.813-.182-.113-.685.054-1.119.371m2.397.367c-1 .482-1.034.537-.2.334 1.133-.277 2.407-.927 1.8-.918-.22.003-.94.266-1.6.584m-7.2 60.8c-.66.303-.919.558-.576.568.342.01.972-.246 1.4-.569.948-.717.745-.717-.824.001"/><path id="path1" fill="#2cccfc" d="M128.8 78.033c0 .975.935.837 1.129-.166.077-.395-.127-.667-.5-.667-.371 0-.629.342-.629.833m.678 1.023a.49.49 0 0 0-.058.576c.108.176.192 15.781.184 34.677-.011 30.807.052 34.358.609 34.358.342 0 .537-.22.434-.488-.124-.323.108-.424.683-.299.704.153.756.108.27-.239-.433-.309-.456-.43-.082-.435.284-.003.464-.321.4-.706-.085-.501.103-.661.661-.564.429.074 1.014-.185 1.3-.577s.521-.534.521-.315c0 .218-.216.612-.48.876-.373.373-.365.48.037.48.285 0 .612-.358.726-.796.114-.437.353-.705.53-.596.177.11.562-.032.855-.315s1.475-.976 2.628-1.541 2.011-1.112 1.906-1.217.437-.436 1.204-.737 1.394-.694 1.394-.873.225-.326.5-.326c.554-.002 5.671-2.511 6.468-3.172.278-.231.624-.302.769-.157s.263.043.263-.227.18-.379.4-.243.4.057.4-.176.32-.424.711-.424 1.156-.315 1.7-.7c1.12-.793 3.462-1.685 4.446-1.694.362-.003.765-.287.897-.631s.422-.514.643-.377c.222.137.403.097.403-.089s.317-.363.704-.392c1.226-.092 1.862-.303 2.391-.793.283-.262.877-.406 1.32-.321s.701-.015.572-.224c-.204-.33.98-.584 1.943-.416.181.031.215-.128.076-.353-.157-.254.402-.422 1.47-.442.948-.017 1.498-.122 1.222-.234-.277-.111-.401-.367-.277-.568s.03-.366-.21-.366c-.308 0-.429-4.613-.411-15.7.015-8.635.02-16.026.013-16.424s-.196-.61-.42-.472-.279.464-.123.724-.05.202-.459-.128c-.704-.569-.715-.549-.211.4.486.916.475.954-.135.451-.454-.375-.665-.402-.665-.086 0 .348-.218.346-.881-.008-.651-.349-.92-.353-1.032-.018s-.369.338-.978.012c-.654-.35-.898-.313-1.171.174-.227.406-.757.564-1.554.463-.704-.089-1.111.007-.973.229.13.211-.112.383-.539.383-.426 0-1.426.272-2.223.605s-1.449.529-1.449.435-.945.186-2.1.622-2.28.843-2.5.904c-.583.162-2.58.952-4.278 1.692-1.719.749-2.593.532-3.086-.764-.194-.51-.641-1.167-.994-1.459s-.642-.828-.642-1.189-.438-.985-.974-1.387c-.609-.458-.883-.966-.732-1.361q.239-.625-.226-.34c-.381.235-.688-.289-.386-.658.09-.111-1.098-1.615-2.182-2.76-.385-.407-.7-.892-.7-1.079 0-.673-1.268-2.859-1.846-3.183-.326-.182-.621-.712-.656-1.177s-.252-.813-.481-.773-.37-.158-.313-.439-.168-.616-.5-.743-.604-.482-.604-.789c0-.306-.27-.557-.6-.557s-.6.281-.6.624-.189.507-.419.364c-.291-.18-.292-.413-.004-.76.509-.614.149-1.051-.621-.756-.397.152-.489.019-.31-.447.156-.407-.035-.89-.496-1.25-.412-.323-.57-.563-.35-.533.898.119 1.165-.077.6-.442-.379-.245-.421-.39-.113-.394.269-.003.384-.276.258-.606-.237-.616-1.013-.798-1.467-.344m40.655 16.418c0 .382.136.4.534.071.393-.327.533-.319.533.03 0 .26.183.359.407.221s.31-.407.192-.598c-.327-.529-1.666-.307-1.666.276M125.59 151.7c-.731.495-1.406 1.17-1.501 1.5s.127.195.492-.3.902-.9 1.193-.9c.29 0 .752-.27 1.026-.6.695-.838.338-.749-1.21.3m45.393 5.472c.126.205.044.488-.183.628a.49.49 0 0 0-.157.67c.166.268.379.223.601-.127.476-.751.441-1.543-.068-1.543-.233 0-.32.168-.193.372m-1.587 1.235c-.138.223-.404.311-.591.196-.187-.116-.611.06-.941.39-.454.454-.648.479-.8.103-.111-.275-.215-.162-.232.253-.028.653-.119.678-.709.2-.46-.373-.58-.389-.376-.049q.303.501-.523.5c-.453 0-.824.18-.824.4s-.135.379-.3.353c-.848-.134-1.251.108-1.051.631.16.415-.004.54-.565.432-.741-.142-2.061.661-3.754 2.284-.401.385-.73.602-.73.482s-.425.195-.945.7c-.519.505-1.353 1.188-1.851 1.518-.78.516-4.947 4.592-6.234 6.097-.237.277-.906.856-1.487 1.288s-1.259 1.274-1.506 1.871-.704 1.184-1.014 1.303c-.309.119-.563.485-.563.814 0 .33-.365.794-.811 1.033s-.713.594-.592.789c.121.196-.031.502-.337.68-.306.179-.943 1.09-1.416 2.025s-1.037 1.7-1.252 1.7-.392.27-.392.6-.201.6-.447.6c-.25 0-.354.353-.237.801.123.469-.032.936-.373 1.127-.32.179-.611.718-.647 1.199-.037.48-.186.873-.333.873-.146 0-.49.54-.763 1.2s-.632 1.2-.796 1.2c-.165 0-.278.405-.252.9.028.525-.16.858-.452.8-.291-.058-.5.309-.5.876 0 .537-.196 1.098-.435 1.246s-.343.619-.231 1.048c.121.463-.031.869-.375 1.001-.475.182-.487.336-.069.852.394.488.397.562.01.33q-.5-.3-.5.49c0 .435.225.897.5 1.028s.095.163-.4.071c-.787-.146-.9 0-.9 1.172 0 .736-.18 1.45-.4 1.586s-.4.607-.4 1.047q0 .8.5.5c.312-.188.285-.035-.074.407-.351.431-.423.812-.187.976.587.409.439 1.382-.239 1.567-.486.133-.496.091-.057-.217.351-.246.396-.471.127-.637-.621-.384-1.006.511-.488 1.136.339.408.323.595-.065.751-.284.114-.113.221.38.238.87.031 1.106 1.162.393 1.876-.146.145-.197-.09-.113-.523.089-.463-.067-.788-.377-.788-.295 0-.467.321-.389.725.077.399-.041.837-.262.973-.248.154-.171.503.205.918.399.441.483.867.246 1.251-.29.469-.426.4-.706-.357-.227-.614-.363.975-.394 4.61-.027 3.102.093 5.194.271 4.747.175-.44.234-1.025.131-1.3s-.033-.5.155-.5c.189 0 .353.72.364 1.6.014 1.033-.158 1.6-.484 1.6-.308 0-.472.443-.421 1.136.06.817.262 1.09.717.971.38-.099.634.087.634.464 0 .367-.348.634-.834.641-.764.011-.774.046-.125.425.39.227.604.581.477.788-.128.206.038.375.368.375.839 0 1.229.778.668 1.335-.357.354-.411.314-.227-.168.142-.376.03-.634-.277-.634-.341 0-.5.521-.467 1.534.073 2.241.113 2.403.522 2.15.205-.126.503-.019.662.238.181.293.116.361-.172.183-.606-.374-.603.661.004 1.268.256.256.437 1.203.402 2.102-.035.9.096 1.538.292 1.417.549-.339.836.819.329 1.326-.332.332-.271.449.234.449.587 0 .612.117.18.822-.426.697-.395.884.205 1.225.39.221.6.579.466.795s-.063.61.158.876c.394.475.468.706.468 1.469 0 .214.315.287.7.163.532-.171.57-.132.159.161-.447.32-.401.705.264 2.207.443 1.002.686 1.953.541 2.116s-.039.165.236.007c.309-.178.5-.05.5.335 0 .343.225.627.5.63q.5.006-.1.394c-.33.213-.403.391-.163.394s.854.816 1.363 1.806 1.077 1.8 1.263 1.8.337.461.337 1.024c0 .58.173.916.4.776.22-.136.4.033.4.376s.18.624.4.624.4.278.4.618.405 1.052.9 1.581c1.452 1.553 1.924 2.173 1.808 2.376-.059.105.252.463.692.795.44.333.683.61.539.617-.143.007.618.958 1.693 2.113s1.957 2.235 1.961 2.4.288.3.631.3.541.135.442.3.069.532.376.816c.307.283.558.39.558.238s.411.2.913.784 1.07 1.062 1.262 1.062 1.034.72 1.871 1.6 1.759 1.6 2.05 1.6.787.36 1.104.8.907.8 1.312.8c.404 0 .624.18.488.4s-.049.4.193.4.827.36 1.299.8 1.175.8 1.561.8.965.375 1.286.834q.583.836 1.723.758c1.864-.126 2.074-.034 1.854.808-.122.465-.012.8.261.8.259 0 .34-.211.181-.468q-.29-.47.364-.217c.359.137.759.078.889-.132.13-.211.039-.383-.201-.383-.312 0-.405-5.559-.324-19.38.107-18.175.071-19.391-.586-19.562-.753-.197-.978-1.058-.276-1.058.233 0 .331.15.217.333-.113.184.025.334.307.334.395 0 .414-.216.083-.931-.237-.511-.566-.931-.731-.933s-.3-.292-.3-.646c0-.409-.22-.558-.605-.41-.479.184-.556.006-.368-.858.183-.84.14-.952-.189-.489-.313.441-.427.461-.432.076-.003-.288-.186-.412-.406-.276s-.4.057-.4-.176.18-.424.4-.424.4-.27.4-.6-.225-.555-.5-.5c-.29.058-.48-.273-.453-.791.026-.49-.082-.811-.239-.714-.158.098-.529-.851-.824-2.109-.296-1.257-.701-2.398-.901-2.534-.199-.137-.362-.947-.361-1.8s-.16-1.75-.359-1.992c-.544-.663-.555-11.328-.011-11.872.62-.62.578-1.614-.052-1.235-.357.214-.347.111.034-.359.294-.362.43-.828.303-1.035-.128-.206.037-.478.365-.605.372-.142.598-.755.598-1.618 0-.764.18-1.5.4-1.636s.4-.517.4-.847c0-.352-.191-.482-.462-.315-.286.177-.353.11-.176-.176.157-.254.524-.462.815-.462.575 0 1.148-1.377 1.04-2.5-.037-.385.177-.7.475-.7s.825-.626 1.172-1.391.486-1.302.311-1.193c-.176.108-.42.035-.543-.164-.201-.325 1.158-.991 1.843-.903.152.019.196-.367.099-.857-.267-1.34-.227-39.082.041-39.516.128-.207.142-.376.032-.376s-.313.183-.451.407m4.697 34.793c-.275.44-.362.8-.193.8s.532-.36.807-.8.362-.8.193-.8-.532.36-.807.8m-3.884 3.586c-.086.139-.027.461.131.717.201.325.423.248.736-.252.353-.566.325-.718-.132-.718-.318 0-.649.114-.735.253m.014 86.052c.112.18.451.232.755.115.315-.121.643.102.764.518.179.616.199.606.13-.071-.054-.517-.395-.816-.967-.845-.486-.025-.793.103-.682.283m-40.166 9.606c.4.253.411.345.043.35-.392.005-.5 3.836-.5 17.806 0 15.981-.209 19.839-.924 17.1-.172-.658-.186-.658-.23.01-.047.724 1.506 1.576 2.451 1.344.276-.067.368-.047.203.045-.583.326-.291.872.338.631.403-.155.972.144 1.547.813.499.581 1.303 1.057 1.785 1.057.483 0 .766.18.63.4s.041.4.393.4 1.028.361 1.502.802c.51.476 1.155.709 1.583.573.404-.128.722-.031.722.222 0 .247.165.348.366.224s.426-.069.5.124c.204.534 7.106 3.719 7.513 3.468.196-.121.628.051.96.383s.876.604 1.209.604.726.196.874.435c.147.239.601.348 1.008.241.408-.106.934.039 1.17.324s.811.418 1.277.296c.579-.152.757-.075.562.241-.182.295.022.463.564.463.467 0 1.178.176 1.579.39.401.215 1.289.433 1.973.485s1.245.237 1.245.41.551.315 1.224.315c.779 0 1.126.158.954.435-.177.287.16.39.993.302.694-.072 1.389.047 1.545.266.416.582 2.149.738 2.468.223.184-.298.579-.179 1.206.365 1.099.954 1.449 1.005 1.737.254.151-.392-.041-.508-.657-.395-.478.087-.69.067-.47-.045.248-.126.362-2.603.299-6.504-.055-3.466-.145-10.891-.2-16.501-.085-8.75-.184-10.202-.699-10.211-.33-.005-.811-.143-1.07-.304-.28-.176-.545-.01-.657.41-.164.613-.225.592-.468-.158-.28-.867-1.805-1.603-1.805-.871 0 .215-.296.095-.658-.267-.532-.532-.723-.556-.994-.129-.255.403-.337.362-.342-.17-.004-.51-.332-.7-1.206-.7-.66 0-1.2-.191-1.2-.424s-.153-.328-.341-.212-.683-.048-1.1-.364-1.074-.58-1.459-.587-.7-.193-.7-.413-.461-.4-1.024-.4c-.58 0-.916-.173-.776-.4.136-.22-.113-.4-.553-.4s-.911-.18-1.047-.4-.607-.4-1.047-.4-.689-.18-.553-.4-.036-.4-.382-.4-.941-.163-1.323-.363-1.73-.875-2.994-1.5-2.3-1.283-2.3-1.461-.181-.212-.401-.076-.4.071-.4-.145-.632-.601-1.404-.856c-.838-.277-1.295-.639-1.134-.899.172-.278.029-.344-.396-.181-.366.141-.666.102-.666-.086 0-.399-1.872-1.685-2.611-1.793-.28-.042-.831-.337-1.225-.658-.632-.512-.675-.51-.364.018.304.516.26.524-.319.055-.37-.3-.562-.725-.427-.943.155-.25-.108-.289-.704-.105-.522.161-.83.165-.683.009.354-.376-.898-1.816-1.58-1.816-.294 0-.433.163-.31.363.123.199-.177.258-.666.13-.49-.128-.67-.307-.401-.396.871-.291.52-.797-.553-.797-.736 0-.883.101-.5.344m42.486 19.832c.407.408 1.857.571 1.857.209 0-.171-.481-.35-1.068-.399-.587-.048-.942.037-.789.19"/><path id="path2" fill="#1cdcfc" d="M97.2 132.851c0 .218.225.269.5.114s.238-.031-.082.276c-.32.308-.828.829-1.129 1.159-.444.485-.491.489-.246.021.435-.834-2.179 1.081-3.912 2.866-.807.832-1.622 1.513-1.811 1.513s-.618.315-.955.7c-.336.385-1.366 1.354-2.289 2.154s-1.676 1.655-1.676 1.9-.264.446-.586.446-.779.36-1.014.8c-.504.943-1.528 1.053-1.855.2-.127-.33-.55-.6-.941-.6s-.804-.358-.919-.795c-.114-.438-.686-.977-1.27-1.199-.645-.246-.952-.585-.779-.864.2-.325-.035-.379-.808-.185-.955.24-1.061.176-.844-.507.169-.531-.078-1.107-.768-1.798-.559-.558-1.016-.88-1.016-.714s.186.488.414.716c.279.279.407 10.711.393 31.916-.016 25.253.08 31.468.486 31.332.279-.093.515-.424.525-.735.01-.312.235-.522.5-.467s.482-.181.482-.524.18-.512.4-.376.4.057.4-.176-.315-.438-.7-.456c-.422-.019-.501-.112-.198-.234.277-.111.413-.348.303-.526s.078-.431.418-.562c.4-.153.519-.075.336.22-.18.291-.105.348.206.155.269-.166.383-.579.253-.918-.205-.534-.145-.542.45-.06.377.307.567.359.422.117s.172-.672.702-.956c1.024-.548 1.663-1.604.972-1.604-.226 0-.298-.183-.16-.407s.423-.3.634-.17c.21.13.332.026.272-.23-.061-.257.247-.676.684-.93.976-.568 2.206-1.865 2.206-2.325 0-.187.668-.969 1.483-1.739.816-.769 1.315-1.399 1.109-1.399s.508-.81 1.586-1.8 1.841-1.8 1.695-1.8.27-.512.926-1.138c.655-.627 1.073-1.257.929-1.4s.058-.262.448-.262c.477 0 .631-.204.471-.621-.131-.341-.077-.521.12-.399.424.262 3.082-2.868 2.923-3.443-.06-.218.045-.301.235-.183.451.278 2.075-.865 2.075-1.462 0-.254.495-.857 1.1-1.34l1.1-.878-1.066.063c-.587.035-.998.132-.914.216.253.254-.621 1.647-1.034 1.647-.212 0-.383-.315-.38-.7.005-.598.063-.613.394-.1.213.33.404.42.424.2.021-.22.107-.76.193-1.2.085-.44.168-9.784.184-20.765l.028-19.964-1.015-.108c-.557-.06-1.014.07-1.014.288m-24.219 3.98c-.34.551.004.875.748.704.495-.113.504-.216.053-.631-.368-.338-.623-.361-.801-.073m.963 67.548c-.922.762-.924.774-.072.561.48-.12.969-.471 1.088-.779.286-.747.107-.708-1.016.218m-3.011 26.592c.252.534.522.907.599.83.249-.248-.374-1.801-.721-1.801-.185 0-.13.437.122.971m3.961 5.968c.381.297.576.657.433.801-.143.143.024.26.371.26.628 0 .669.44.153 1.614-.149.338-.221 10.823-.161 23.3.061 12.477-.016 22.686-.17 22.686s-.442-.29-.641-.644c-.325-.581-.386-.576-.629.057-.148.386-.175.796-.059.911s.209-.011.209-.281.183-.377.407-.239.285.447.138.685c-.154.249-.084.32.163.168.237-.147.49-.007.562.31.136.602 7.391 8.233 7.827 8.233.138 0 1.103.884 2.144 1.965s1.999 1.861 2.127 1.734.232.039.232.37.46.812 1.023 1.068c.61.279.908.652.738.927-.168.272-.109.351.145.194.237-.146.766.162 1.177.684s1.286 1.228 1.946 1.57c.66.341 1.432 1.055 1.716 1.586.536 1.002 2.855 2.619 2.855 1.991 0-.855 1.006-.257 1.061.63.059.957.724 1.676 1.539 1.662.22-.003.075-.253-.321-.553-.54-.41-.59-.6-.2-.756.382-.153.361-.217-.079-.24-.527-.028-.587-2.531-.493-20.451.064-12.183.255-20.328.473-20.194.2.124.48.04.62-.187a.475.475 0 0 1 .647-.171c.243.15.194.495-.128.907-.46.588-.442.604.153.138.574-.449.737-.405 1.114.3.243.454.634.826.867.826.234 0-.087-.623-.714-1.384-.75-.911-1.398-1.328-1.897-1.222-.542.115-.635.039-.325-.271.309-.309.277-.587-.114-.977-.731-.731-1.033-.689-.73.101.214.556.124.579-.645.168-.859-.46-.865-.502-.161-1.076.403-.329.508-.484.233-.345s-.5.063-.5-.17-.27-.424-.6-.424-.555-.158-.5-.352c.055-.193-.395-.815-1-1.381s-1.1-1.277-1.1-1.58-.45-.793-.999-1.087c-.55-.294-.92-.614-.822-.712.097-.098-.623-.966-1.601-1.93-.978-.965-1.778-1.852-1.778-1.973 0-.183-1.166-1.529-3.414-3.941-.228-.244-1.024-1.299-1.768-2.344-1.201-1.686-2.134-2.658-1.38-1.438.177.286.11.353-.176.176-.254-.157-.462-.635-.462-1.062s-.225-.731-.5-.676-.477-.201-.45-.568q.051-.67-.565-.432c-.387.148-.515.072-.344-.205.15-.242-.065-.678-.477-.968s-.87-.911-1.018-1.379c-.349-1.103-1.606-2.548-2.217-2.548-.262 0-.392-.137-.288-.304.276-.447-.618-1.503-1.541-1.822-.738-.255-.747-.234-.106.265m-1.606 47.312c-.048.572.086.889.315.747.474-.293.526-1.271.082-1.546-.173-.107-.352.253-.397.799"/><path id="path3" fill="#22d3fc" d="M110.6 71.313c-.44.268-.89.604-1 .747s-.56.323-.999.4c-.44.077-1.217.548-1.726 1.048-.51.499-1.123.786-1.363.638s-.324-.089-.187.132c.136.221-.196.639-.739.929-.653.35-.988.876-.992 1.561-.004.717-.109.869-.344.498-.381-.601-1.021.443-1.2 1.958-.027.233-.23.312-.45.176-.34-.21-.604.909-.447 1.9.026.165-.178.303-.453.306q-.5.006.1.394c.463.299.476.389.057.394-.312.003-.447.256-.317.593.124.323.05.696-.164.828a.46.46 0 0 0-.148.63c.132.215.023.652-.243.973-.356.429-.361.582-.02.582.343 0 .349.213.023.822-.242.452-.352 1.037-.246 1.3.139.341.204.328.226-.046.018-.288.221-.407.451-.264.291.179.285.422-.019.788-.289.348-.301.614-.037.777.221.137.294.531.161.876s.011.79.318.987c.472.305.466.42-.042.754-.52.341-.512.395.063.4.464.004.6.245.453.806-.117.447-.012.8.237.8.246 0 .447.278.447.617 0 .34.44 1.093.979 1.673.538.581.895 1.19.794 1.354-.102.164.178.413.621.554s.806.604.806 1.029.18.773.4.773.4.27.4.6.146.6.325.6.573.63.875 1.4.664 1.4.804 1.4.677.855 1.193 1.9 1.047 1.99 1.18 2.1c.5.414 1.797 2.612 1.712 2.9-.049.165.091.3.311.3s.4.208.4.462.442 1.042.983 1.751c.54.708.87 1.4.733 1.538-.137.137-.039.249.217.249.257 0 .467.264.467.586s.36.779.8 1.014c1.256.672.954 1.457-1.1 2.857-1.045.713-1.96 1.442-2.033 1.62a.58.58 0 0 1-.496.323c-.368 0-1.495.836-2.831 2.1-.407.385-.74.603-.74.484 0-.118-.394.152-.875.6-.482.449-1.157.819-1.5.822-.55.006-.553.053-.025.394.485.314.428.389-.3.394-.495.003-.9.156-.9.338s-.495.583-1.1.89c-1.677.849-2.902 1.843-2.62 2.125.139.139-.03.253-.376.253-.444 0-.571.264-.432.9.161.732.115.788-.245.3-.387-.525-.494-.512-.859.108-.229.39-.577.61-.773.489-.195-.121-.55.146-.789.592s-.698.811-1.02.811a.59.59 0 0 0-.586.587c0 .358-.235.498-.6.358-.33-.127-.6-.047-.6.177 0 .64.955.337 1.998-.634.524-.488 1.099-.888 1.277-.888h.539c.242 0 .245 39.357.003 40.6-.086.44-.172.98-.193 1.2-.02.22-.211.13-.424-.2-.332-.513-.389-.499-.394.097-.006.722 1.262.8 1.884.116.17-.188.085-.212-.19-.054-.275.159-.5.104-.5-.121 0-.554 1.519-1.335 2.008-1.033.216.133.392-.049.392-.405s.148-.556.329-.444c.319.197 1.912-1.355 1.802-1.756-.03-.11.198-.432.507-.716.309-.283.562-.405.562-.269s.54-.293 1.2-.953 1.2-1.405 1.2-1.655.18-.343.4-.207.4.027.4-.243.099-.391.221-.269c.122.121 1.47-1.019 2.997-2.534s2.918-2.754 3.092-2.754 1.217-.855 2.319-1.9 2.775-2.429 3.718-3.075c.942-.647 1.941-1.5 2.219-1.898s.61-.618.737-.49c.128.127.436-.149.685-.614s.651-.723.894-.572c.265.164.328.09.158-.186-.173-.281.27-.721 1.151-1.141.788-.376 1.361-.873 1.272-1.104s.287-.447.834-.481c.548-.033 1.29-.373 1.649-.756s.427-.569.15-.413c-.404.226-.502-6.571-.492-34.202.008-18.966-.079-34.576-.192-34.689s-.001-.451.248-.751c.362-.437.309-.491-.267-.27-.629.241-.687.114-.462-1.011.16-.804.109-1.196-.137-1.043-.217.134-.394.061-.394-.162 0-.615-2.003-2.488-2.398-2.243-.191.118-.477.003-.636-.254q-.29-.469.234-.145.52.32.238-.138c-.157-.254-.77-.465-1.362-.468-.842-.005-.945-.091-.476-.394.483-.312.419-.389-.324-.394-.512-.003-.813-.184-.676-.406.208-.337-1.228-.617-2.3-.447-.165.026-.3-.113-.3-.308 0-.56-8.868-.498-9.8.068m20.2 9.087c.565.365.298.561-.6.442-.22-.03-.062.21.35.533.461.36.652.843.496 1.25-.179.466-.087.599.31.447.77-.295 1.13.142.621.756-.288.347-.287.58.004.76.23.143.419-.021.419-.364s.225-.629.5-.636c.295-.007.228-.171-.163-.399-.423-.248-.591-.712-.465-1.288.159-.724.113-.783-.231-.301-.347.485-.43.39-.435-.5-.004-.781-.209-1.098-.706-1.094-.598.005-.613.063-.1.394m3.052 65.008c-.149.39-.602.594-1.149.518-.609-.085-.864.058-.782.437.067.31-.113.712-.4.894-.428.272-.428.332.001.337.656.008 3.132-2.273 2.813-2.592-.13-.13-.347.053-.483.406m-2.12 61.559a.61.61 0 0 1-.357.787c-.665.255-.779 1.046-.151 1.046.233 0 .321-.165.197-.366s-.016-.436.242-.522c.586-.195.811-1.512.259-1.512-.224 0-.31.255-.19.567m-.799 2.827c0 .44.134.482.518.164.402-.334.479-.231.345.461-.094.489-.052.77.094.625.635-.636.487-1.844-.226-1.844-.402 0-.731.267-.731.594m-.388 2.406c-.36.937.2 2.137.654 1.402.21-.34.203-.759-.018-1.025-.206-.248-.256-.569-.111-.714s.138-.263-.016-.263c-.153 0-.383.27-.509.6m-.052 9.3c.024.385-.089 1.105-.251 1.6-.21.639-.137.9.252.9.377 0 .542-.501.527-1.6-.011-.88-.145-1.6-.296-1.6s-.256.315-.232.7m-.328 4.5c.123 1.078 1.302 1.637 1.302.616 0-.339-.225-.616-.5-.616s-.594-.225-.708-.5c-.115-.275-.157-.05-.094.5m.789 4.374c.019 1.11.159 1.465.473 1.203.246-.203.522-.327.615-.274.092.054-.06-.103-.337-.347-.632-.556-.647-1.221-.037-1.598.327-.202.38-.058.176.476-.222.584-.18.656.177.301.535-.531.185-1.335-.581-1.335-.335 0-.504.546-.486 1.574m.715 4.938c.072.612.311 1.068.531 1.012.467-.117.31-1.146-.264-1.724q-.397-.396-.267.712m1.007 2.964c-.123.199-.078.598.1.886s.425.361.548.162.078-.598-.1-.886-.425-.361-.548-.162m-37.574 22.39c.277.111.384.395.239.63-.157.253-.076.311.197.142.254-.157.462-.065.462.205s.116.375.257.233c.336-.336-.623-1.485-1.206-1.444-.281.019-.262.108.051.234m3.071 3.2a.444.444 0 0 1-.269.633c-.312.104-.161.349.397.648 1.048.561 1.166.135.269-.971-.346-.427-.525-.566-.397-.31m2.027 2.934c-.14.227-.423.309-.628.183-.228-.141-.372 7.605-.372 19.97 0 14.991-.121 20.274-.468 20.489-.304.188-.388.08-.238-.31.139-.361.001-.599-.349-.599-.318 0-.519.285-.447.634.09.439.494.599 1.316.522.799-.076 1.012.004.652.244-.422.282-.383.413.189.633.614.235.634.333.134.649-.463.293-.391.374.335.379.512.003.813.184.676.406-.136.22-.057.4.176.4s.751.315 1.151.7c1.65 1.587 2.606 2.29 2.312 1.7-.233-.469-.182-.461.231.035.292.349.94.853 1.441 1.12.504.268.789.683.638.927-.152.247-.091.33.139.187.226-.14.867.168 1.424.684s1.614 1.362 2.35 1.88 1.576 1.172 1.867 1.454.74.513 1 .514c.259 0 1.101.54 1.871 1.199s1.715 1.199 2.1 1.199.7.16.7.355.622.65 1.383 1.011 1.488.827 1.617 1.035.901.692 1.717 1.074 1.723.929 2.015 1.215c.293.285.696.418.895.294.199-.123.765.151 1.258.61.839.782.913.789 1.177.121.264-.669.284-.669.31-.014.015.385.208.7.428.7.261 0 .4-6.186.4-17.757 0-15.415.079-17.788.6-17.988.924-.354.712-1.012-.419-1.295-.56-.141-.928-.346-.819-.456.278-.277-.803-1.304-1.373-1.304-.257 0-.99-.559-1.629-1.242-.638-.684-1.16-1.051-1.16-.816s-.718-.298-1.595-1.184-1.777-1.499-2-1.361-.405.08-.405-.128c0-.57-2.899-3.269-3.512-3.269-.294 0-.427-.175-.295-.388.132-.214-.216-.503-.774-.643-.557-.14-.914-.415-.793-.612.122-.196.059-.357-.14-.357-.198 0-1.468-1.08-2.821-2.4s-2.556-2.4-2.674-2.4c-.254 0-2.448-1.951-4.834-4.3-.95-.935-1.908-1.7-2.128-1.7-.558 0-1.263-1.419-.915-1.843.157-.192-.161.01-.707.447-.681.546-.832.587-.481.132.318-.413.364-.757.121-.907a.475.475 0 0 0-.647.171m-6.6 37.138c0 .186.388.681.862 1.1l.862.762-.708-1.1c-.73-1.134-1.016-1.349-1.016-.762m36.4 24.433c0 .204-.268.429-.595.5-.418.091-.322.255.324.555.705.328 1.043.294 1.453-.145.455-.487.408-.532-.321-.3-.671.213-.804.136-.616-.355.132-.344.131-.626-.002-.626-.134 0-.243.167-.243.371m2.221 2.213c.629.541 1.21.918 1.29.838.281-.281-1.294-1.822-1.862-1.822-.343 0-.113.396.572.984"/><path id="path4" fill="#34c4fc" d="M195.849 52.479c.109.177-.252.321-.802.321s-1.111.18-1.247.4-.597.4-1.024.4-.776.168-.776.373-.371.491-.824.635c-.877.278-4.376 3.589-4.376 4.141 0 .181-.356.739-.792 1.241-.435.502-.905 1.52-1.044 2.261s-.413 1.349-.609 1.349c-.2 0-.355 6.346-.355 14.586 0 16.491.155 15.755-3.216 15.303-1.056-.142-1.706-.008-2.198.455-.54.507-.623.519-.366.056.269-.483.221-.509-.243-.136-.317.256-1.267.432-2.11.392s-1.619.066-1.724.236-.73.308-1.39.308-1.097.168-.97.372c.126.205.047.486-.176.624-.224.138-.407.039-.407-.221 0-.334-.199-.311-.677.076-.576.468-.626.466-.338-.013q.334-.555-.098-.292c-.615.381-.689 32.654-.075 32.654.242 0 .302.222.135.5q-.304.503.381-.053c.387-.314.55-.754.377-1.019-.168-.256-.035-.185.295.159s.825.6 1.1.569.691-.078.924-.106c.233-.027.337-.189.232-.359s.521-.289 1.392-.264c.871.026 1.677-.105 1.791-.29.115-.186.918-.337 1.785-.337s1.576-.18 1.576-.4.954-.4 2.12-.4 2.291-.165 2.5-.368c.593-.574 5.356-.883 12.789-.831 6.805.048 9.887-.389 8.577-1.218-.405-.256-.43-.373-.082-.377.402-.005.502-6.997.492-34.43-.008-18.933.078-34.573.191-34.755.112-.182-.098-.576-.468-.876s-.549-.339-.398-.087.015.558-.303.68c-.359.137-.503.028-.381-.289.312-.815-2.498-1.442-6.112-1.363-1.801.04-3.185.216-3.076.393m12.733 3.55c-.109.177.27.236.842.132.572-.103.951-.044.842.132s.233.524.76.772c.873.412.922.385.552-.306-.223-.418-.535-.782-.692-.81-1.24-.221-2.137-.19-2.304.08m-41.168 40.113c-.974.415-1.063.553-.5.769.39.15.686.075.686-.173 0-.285.211-.261.609.07.515.427.566.393.332-.217-.205-.536-.14-.638.253-.395q.528.327.244-.134c-.157-.254-.32-.454-.362-.444s-.61.246-1.262.524m27.297 54.696c-.061.168-1.371.344-2.911.39s-2.995.237-3.233.422-1.272.384-2.299.443-1.868.242-1.868.407-.731.3-1.624.3c-.98 0-1.525.158-1.376.4.136.22-.168.421-.676.446-1.528.076-2.521.409-5.231 1.751-.759.376-1.023.4-.841.076.179-.32.091-.311-.273.027-.297.275-.786.5-1.088.5-.72 0-1.517.82-1.867 1.924-.155.488-.457.779-.672.646-.241-.148-.193-.48.125-.863.451-.543.39-.585-.48-.324-.548.164-1.177.511-1.397.772s-.715.409-1.1.33q-.699-.142-.694.586c.005.592.074.621.37.155.282-.447.489-.47.93-.104.312.259.689.35.838.201.148-.148.26 8.337.248 18.856-.011 10.519.076 19.222.194 19.341.339.338-1.041 1.68-1.728 1.68-.457 0-.501.117-.169.449.247.247.402.652.345.9-.056.248-.029.321.062.161.09-.159.147-.388.126-.508-.08-.453.995-1.308 1.378-1.096.22.122.267.075.103-.105-.163-.18-.111-.55.115-.822.225-.272.359-.739.296-1.037s.101-.5.363-.45c.262.051.85-.399 1.306-1 1.368-1.803 2.784-3.292 3.13-3.292.179 0 .947-.624 1.706-1.387s1.674-1.393 2.032-1.4.882-.291 1.164-.631.764-.522 1.07-.405c.306.118.465.066.353-.116-.28-.453 2.512-1.739 3.051-1.406.243.15.321.085.177-.148-.215-.348.623-.826 1.334-.762.11.01.74-.279 1.4-.643 2.333-1.284 9.516-2.61 13.276-2.45 1.585.068 2.028-.037 1.873-.441-.112-.292-.007-.652.234-.8.24-.149.411-.122.38.059-.13.745.065 1.2.537 1.252l1.5.166 1 .112v-15.9c0-9.37.151-15.9.367-15.9.201 0 .251-.116.109-.257-.141-.141-.515-.043-.831.219-.444.369-.641.368-.871-.004-.188-.304-.129-.377.16-.199.284.176.376.073.244-.272-.117-.304-.467-.554-.778-.554-.31 0-.476.143-.369.318.108.175-.485.237-1.317.138-2.62-.31-6.093-.343-6.376-.061-.387.388-1.026.337-.779-.061.113-.184-.051-.334-.365-.334-.315 0-.622.138-.683.305m13.389 32.227c-.753.304-.6.764.255.764.45 0 .675-.208.557-.515-.109-.283-.223-.5-.255-.482-.031.017-.282.122-.557.233m-39.7 58.572c0 .241.315.52.7.621.657.171.693 1.387.586 19.562-.081 13.821.012 19.38.324 19.38.24 0 .331.172.201.383-.13.21-.501.281-.824.157-1.096-.421-.594.198.674.831 1.398.697 2.073.833 1.139.229-.33-.213-.415-.391-.189-.394s.719.354 1.096.794.957.8 1.289.8.604.163.604.363c0 .199.36.268.8.153.519-.136.8-.012.8.352 0 .344.493.599 1.273.659.701.053 1.466.248 1.7.434.235.185.742.285 1.127.223s.7.033.7.211c0 .296 2.272.94 4.8 1.361.55.092 1.45.277 2 .412 1.197.294 3.151.588 5.6.843 2.534.264 2.433.258 4.2.248.88-.005 2.23-.009 3-.008 2.887.004 3.612-.108 3.358-.519-.141-.228.242-.088.852.312 1.096.718 1.104.716.671-.092-.343-.642-.318-.819.118-.819.306 0 .522.174.479.385-.043.212.327.422.822.467s.9-.069.9-.252-.184-.333-.409-.333c-.274 0-.373-5.206-.3-15.726l.109-15.726-1.495-.028c-.822-.015-1.404.119-1.293.299.11.179.018.439-.205.577-.224.138-.41-.074-.413-.472-.005-.615-.065-.634-.4-.124-.27.412-.488.462-.694.162-.174-.255-1.855-.47-4.009-.514-2.041-.041-4.167-.249-4.726-.461-.56-.213-1.535-.387-2.167-.387-.633 0-1.262-.18-1.398-.4s-.687-.4-1.224-.4-.976-.18-.976-.4-.54-.4-1.2-.4-1.2-.18-1.2-.4-.36-.4-.8-.4-.8-.144-.8-.32c0-.175-.63-.547-1.4-.826s-1.4-.674-1.4-.88-.32-.374-.712-.374-.968-.356-1.282-.791c-.419-.582-.652-.661-.882-.3-.22.347-.314.294-.318-.182-.003-.37-.366-.787-.806-.927s-.8-.432-.8-.651c0-.218-.18-.285-.4-.149s-.4-.123-.4-.576-.135-.786-.3-.739c-.669.19-2.024-.926-2.258-1.86-.184-.734-.434-.931-.946-.747-.383.137-.572.112-.42-.057.281-.312-.063-.842-1.451-2.24-.864-.87-1.425-1.005-1.425-.344m-1.225 39.178c-.447.277-.416.394.163.617.394.151.896.094 1.116-.126.536-.536-.538-.948-1.279-.491m2.367 30.756c-.078.233-.052 7.535.058 16.227.131 10.335.062 15.873-.2 16.007-.22.112-.008.132.47.045.616-.113.808.003.657.395-.148.386.105.555.83.555.574 0 1.043.159 1.043.353s.801.344 1.779.334c.978-.011 2.013.169 2.3.401.287.231 1.407.435 2.489.453 1.083.018 2.073.192 2.2.388.128.195 1.578.392 3.223.437s3.108.271 3.252.503c.168.273.337.229.478-.124.164-.409.302-.427.556-.071.243.34 2.806.471 9.13.466l8.793-.007-.103-15.267c-.07-10.395-.248-15.546-.556-16.145-.599-1.162-1.519-1.523-1.249-.491.137.526-.004.77-.445.77-.356 0-.647-.251-.647-.557 0-.307-.285-.667-.633-.8-.917-.352-.97-.317-.68.457.23.613.179.632-.412.151-.545-.444-.675-.448-.675-.024 0 .343-.178.283-.512-.174-.418-.572-.711-.624-1.6-.286-.598.227-1.088.283-1.088.123s-1.652-.29-3.672-.29-4.764-.223-6.1-.497c-1.335-.273-3.103-.543-3.927-.6s-1.5-.193-1.501-.303-.851-.255-1.89-.322c-1.04-.067-1.985-.247-2.1-.4s-.992-.278-1.947-.278-1.817-.127-1.913-.283-.469-.169-.828-.032c-.487.187-.566.107-.311-.317.281-.467.233-.479-.271-.071-.684.553-1.187.29-.895-.469.104-.272-.08-.495-.41-.495s-.488.181-.352.402c.149.241-.017.294-.417.133l-1.224-.495c-.307-.124-.622-.035-.7.198m38.058 3.749c0 .366 1.611 1.386 1.774 1.123.11-.179-.243-.528-.787-.776-.543-.247-.987-.404-.987-.347m-40 28.109c0 .417 1.135 1.371 1.633 1.371.269 0 .074-.36-.433-.8-.967-.839-1.2-.95-1.2-.571"/><path id="path5" fill="#0fe6fc" d="M48.711 122.868c-.064.192-.79.374-1.614.405-.823.031-1.497.207-1.497.392 0 .184-.242.335-.538.335s-.864.36-1.262.8-.966.8-1.262.8-.538.21-.538.467c0 .256-.114.352-.253.213-.311-.31-2.947 2.267-2.947 2.88 0 .242-.18.44-.4.44s-.4.27-.4.6-.18.6-.4.6-.4.36-.4.8-.141.8-.313.8-.353.495-.403 1.1-.269 1.16-.487 1.233c-.219.074-.397.309-.397.524s.225.263.5.108c.4-.226.4-.175 0 .256-.624.673-.691 6.649-.076 6.854.233.077.441.723.461 1.435.02.711.277 1.493.572 1.737.294.244.43.613.302.82-.128.206.144.702.604 1.101s.837.943.837 1.207c0 .795 1.097 1.714 1.336 1.121.114-.282.214-.181.232.233.03.685 1.103 2.071 1.603 2.071.126 0 .177.157.113.349s.151.246.479.12c.404-.155.525-.041.374.351-.123.319-.068.581.12.582.189.001.918.541 1.621 1.2S46.157 156 46.402 156s.315.211.156.468q-.293.47.372.214c.363-.139.625-.125.582.032-.103.376 3.272 3.686 3.759 3.686.207 0 .265.18.129.4s.044.4.4.4.565.135.466.3c-.1.165.09.551.421.858.528.489.574.439.363-.4q-.243-.962.334.29c.317.687.963 1.349 1.436 1.473q.862.225.551.752c-.169.29.052.212.492-.173 1.052-.921 1.45-.886 1.137.1-.151.477-.072.8.197.8.247 0 .344.172.214.383-.13.21-.54.266-.911.123-.597-.229-.607-.186-.087.374.418.449.672.5.881.176.162-.251.299-.276.306-.056s.187.13.4-.2c.312-.483.389-.419.394.324.003.515-.171.814-.394.676-.904-.559-.27.468.822 1.33.945.747 1.178.806 1.178.3 0-.346.315-.644.7-.662.446-.02.306-.175-.386-.428l-1.086-.397-.021-20.524c-.02-20.789-.161-22.898-1.536-23.049-1.354-.148-2.288-.471-2.548-.88-.228-.359-.314-.33-.323.11-.007.353-.133.435-.306.2-.363-.494-5.623-.614-5.783-.132M58.8 124.6q.001.599 1.1.554c.677-.029.831-.117.4-.23-.385-.1-.7-.349-.7-.553s-.18-.371-.4-.371-.4.27-.4.6m135.505.083c.497.096 1.217.092 1.6-.008s-.025-.179-.905-.174c-.88.004-1.193.086-.695.182m-129.666 3.655c-.139.223-.057.527.181.674.615.381 1.012-.14.498-.654q-.429-.43-.679-.02m1.658 1.335c.273.33.378.719.233.864s-.064.263.18.263c.851 0 .831-.644-.036-1.184-.769-.479-.814-.472-.377.057M81.709 144.4c.56.44 1.148.8 1.308.8s-.167-.36-.726-.8c-.56-.44-1.148-.8-1.308-.8s.167.36.726.8m-22.693 26.773c-.145.235-.152.607-.016.827.23.371-.331.581-1.151.43-.193-.035-.255.304-.137.754.117.449.05.716-.149.593-.2-.123-.363.146-.363.599 0 .474-.261.824-.614.824-.51 0-.534.152-.142.9l.472.9-.887-.789c-.489-.434-.839-.614-.779-.4.224.801-.53 2.244-1.066 2.038-.312-.119-.467-.004-.365.271.183.492-2.399 3.48-3.007 3.48-.185 0-.243.36-.128.8.123.468.012.8-.266.8-.603 0-1.618 1.001-1.618 1.595 0 .249-.18.341-.4.205-.222-.137-.403.164-.406.676-.005.764-.08.82-.435.324-.346-.485-.392-.433-.238.274.114.522-.033.96-.365 1.088-.306.117-.559.534-.562.925-.005.563-.08.596-.356.16-.344-.542-.798.258-1.087 1.912-.054.307-.335.759-.624 1.003-.29.244-.392.271-.227.061s.299-.572.298-.803-.54.39-1.198 1.38-1.197 1.985-1.198 2.212-.352.664-.781.973c-.428.308-.7.688-.604.843s-.094.504-.421.776c-.328.272-.596.753-.596 1.069s-.18.463-.4.327-.4.084-.4.488c0 .405-.36.995-.8 1.312s-.8.897-.8 1.288c0 .445-.3.712-.8.712-.44 0-.8-.18-.8-.4s-.9-.4-2-.4-2-.146-2-.325-.843-.369-1.874-.423c-1.031-.053-2.059-.211-2.286-.351-.474-.293-3.273-.864-5.74-1.17-.935-.117-1.7-.353-1.7-.525s-1.98-.343-4.4-.379c-2.841-.042-4.4.084-4.4.354 0 .23-.362.419-.805.419-.841 0-2.178.645-3.108 1.5-.299.275-.712.5-.918.5-.576 0-5.169 4.8-5.169 5.402a.79.79 0 0 1-.5.698c-.72.24-.72 14.359 0 14.6.275.092.5.512.5.933s.18.767.4.767.4.163.4.363c0 .624 3.538 4.037 4.185 4.037.338 0 .615.18.615.4s.27.4.6.4.6.18.6.4.36.4.8.4.8.18.8.4.529.4 1.176.4 1.288.18 1.424.4 1.047.4 2.024.4 1.776.18 1.776.4 1.001.4 2.224.4 2.126.157 2.007.349c-.119.193.621.367 1.643.387 1.023.021 2.045.223 2.273.451.227.227 1.097.413 1.933.413s1.52.135 1.52.3.755.344 1.677.397 1.858.278 2.08.5 1.072.403 1.889.403c1.259 0 1.566.179 2.005 1.171.285.644.661 1.084.834.977s.315.087.315.432.36.936.8 1.313.8.961.8 1.3c0 .338.36.839.8 1.114s.8.819.8 1.208c0 .39.36.968.8 1.285s.8.807.8 1.088.144.512.32.512c.175 0 .539.608.807 1.35.269.743.935 1.832 1.481 2.421s.992 1.342.992 1.673c0 .332.18.492.4.356s.4.044.4.4.18.536.4.4.4.117.4.562c0 .446.36 1.003.8 1.238s.8.692.8 1.014.18.586.4.586.4.196.4.434c0 .636 2.481 3.163 2.87 2.923.291-.18.509.709.377 1.543-.078.498.669.336.924-.2.131-.275.163-.095.071.401-.092.495-.036.819.124.72.37-.229 1.718 1.319 1.482 1.702-.358.579.839 1.653 1.665 1.494.601-.116.778.001.622.408-.12.314-.363.481-.54.372-.176-.109-.112.251.142.799.255.549.609.999.787 1.001s.195-.205.038-.459c-.178-.288-.11-.353.183-.172.257.159.372.444.255.634s-.03.458.193.596c.224.138.407.061.407-.172s.202-.379.45-.324c.247.055.541-.15.652-.456.111-.305.043-.457-.15-.338-.264.163-.099-86.499.179-93.885.05-1.325-.124-1.679-.515-1.048m5.627 47.46c-.328.853-.309.967.157.967.22 0 .4-.255.4-.567s.225-.657.5-.768c.316-.127.258-.213-.157-.233-.362-.018-.767.253-.9.601M95.6 260.525c0 .069.585.654 1.3 1.3L98.2 263l-1.175-1.3c-1.095-1.212-1.425-1.484-1.425-1.175m-24.349 22.573c1.015 1.292 1.586 1.799 1.792 1.592.113-.113-.264-.674-.837-1.248-1.181-1.181-1.784-1.398-.955-.344M85.6 297.387c0 .357 1.685 1.782 2.129 1.8.339.013-.213-.579-1.431-1.536-.384-.302-.698-.421-.698-.264"/><path id="path6" fill="#14dcfc" d="M58.446 124.42c-.025.341.131.797.347 1.013.247.247.401 8.078.414 21.052l.021 20.658 1.086.397c.692.253.832.408.386.428-.962.044-.885 1.09.1 1.348.44.115.797.541.794.947-.005.534-.096.595-.332.223-.618-.974-1.686-.074-1.734 1.462-.282 8.935-.441 94.322-.176 94.158.193-.119.261.033.15.338s-.404.511-.652.456c-.864-.192-.441 1.04.65 1.896.605.475.862.741.57.592-.434-.223-.438-.125-.021.542.279.447.905.994 1.389 1.215.485.221.855.638.822.928s.034.527.15.527c.43 0 1.499 1.211 1.324 1.5-.099.165.11.3.466.3s.536.18.4.4-.057.4.176.4.379.217.324.482.17.494.5.509c.33.016.576.332.547.703s.061.66.2.643c.822-.103 1.209.191 1.647 1.249.27.652.682 1.147.916 1.1s.621.289.86.746c.24.458.685.75.989.648.304-.101.442-.004.306.215-.304.491 1.089 1.818 1.489 1.418.158-.159.17.021.024.399-.184.481-.063.688.403.688.42 0 .56-.185.378-.5-.167-.29-.135-.36.077-.167.2.183.546.978.768 1.768.38 1.351 1.396 2.303 1.396 1.309 0-.252-.208-.329-.462-.172-.275.171-.353.111-.193-.149.147-.238.085-.547-.138-.685a.92.92 0 0 1-.395-.728c.007-.262.196-.161.42.224s.534.7.688.7.231-10.286.17-22.858c-.1-20.843-.051-22.922.556-23.592.625-.691.608-.758-.291-1.117-.525-.21-.786-.394-.579-.408s.028-.295-.4-.626c-.655-.507-.666-.563-.071-.355.521.181.642.084.466-.374-.13-.341-.499-.519-.82-.396s-.555.067-.52-.125c.157-.862-.069-1.373-.493-1.111-.296.183-.353.109-.157-.207.18-.292-.039-.812-.538-1.277-.464-.432-.843-.988-.843-1.236s-.117-.334-.261-.191c-.316.316-1.411-1.687-1.152-2.107.101-.163-.438-.974-1.197-1.803s-1.28-1.672-1.156-1.872-.013-.315-.304-.255c-.292.061-.487-.11-.434-.378s-.262-.68-.7-.914-.796-.78-.796-1.212-.18-.786-.4-.786-.4-.193-.4-.429c0-.235-.26-.688-.577-1.005-.776-.777-.159-2.533 1.5-4.265.685-.716 1.265-1.391 1.289-1.501.193-.865 1.171-2.334 1.442-2.167.185.115.234-.06.108-.388-.135-.351.114-.811.605-1.117.458-.286.833-.736.833-1 0-.263.543-1.073 1.206-1.799s1.111-1.567.996-1.869c-.149-.387-.006-.47.481-.283.381.146.563.135.404-.023s.027-.649.412-1.089c.674-.77.67-.789-.099-.511s-.772.261-.086-.432c.626-.632.767-.648 1.138-.122.361.511.392.5.208-.074-.118-.371-.046-.731.161-.8.23-.077.416-12.676.478-32.388.056-17.744-.025-32.184-.179-32.089s-.475-.192-.714-.638-.8-.811-1.247-.811c-.619 0-.755-.183-.57-.766.134-.422.028-.9-.235-1.062-.302-.187-.372-.126-.192.166.157.254.19.462.074.462s-.479-.495-.807-1.1-.604-.864-.613-.576-.206.406-.437.263a.65.65 0 0 1-.265-.724c.086-.254-.358-.778-.987-1.162-.629-.385-1.342-1.135-1.585-1.668-.243-.534-.671-.882-.951-.774-.281.108-.646-.025-.812-.294-.194-.312-.136-.386.159-.203.254.157.462.189.462.072s-.539-.492-1.197-.832c-.658-.341-1.153-.754-1.1-.919.259-.799-1.08-1.593-1.568-.93-.423.575-.468.558-.405-.153.039-.453-.147-.757-.43-.7-.275.055-.471-.035-.436-.2.191-.902-.57-1.546-1.642-1.389-.867.128-1.195-.012-1.339-.571-.135-.525-.204-.56-.237-.12m18.142 16.4c-.381.615.14 1.012.654.498q.43-.429.02-.679c-.223-.139-.527-.057-.674.181m5.674 4.48c.256.415 1.243.377 1.512-.058.121-.196-.211-.331-.738-.3-.528.032-.876.193-.774.358m-26.066 18.707c-.138.223-.389.321-.557.217s-.306.058-.306.36c0 .696 1.745 1.537 2.076 1.001.131-.212.035-.385-.212-.385-.269 0-.348-.323-.197-.8.261-.821-.354-1.122-.804-.393m-1.173 12.482c-.343.489-.616 1.074-.607 1.3s.291-.096.627-.716c.5-.922.716-1.039 1.193-.643.476.395.536.364.33-.173-.343-.894-.803-.825-1.543.232m27.024 17.661c-.738.785-.787.987-.289 1.179.429.164.53.046.354-.415q-.25-.647.223-.354c.269.166.576.015.717-.352.402-1.046-.052-1.072-1.005-.058m-2.96 3.733c.116.302.054.521-.138.486-.793-.145-1.382.055-1.17.397.124.201 0 .457-.277.568-.276.112-.102.217.388.234.59.021 1.086-.349 1.476-1.101.478-.925.487-1.134.048-1.134-.296 0-.443.248-.327.55m-26.273 61.956c-.022.703 1.21 2.961 1.615 2.961.204 0 .371-.21.371-.467 0-.256-.123-.343-.273-.193-.151.15-.594-.405-.987-1.233-.392-.829-.719-1.31-.726-1.068"/><path id="path7" fill="#4caefc" d="M288.508 71.62c-.066.877.514 1.391.888.787.138-.224.05-.407-.196-.407s-.344-.168-.217-.372c.126-.205.084-.463-.093-.573s-.35.144-.382.565m4.292 1.943c.512.362.49.426-.149.431-.653.005-.679.093-.2.683.373.46.389.58.049.376-.792-.475-.721 25.583.071 26.376.624.623 1.612.791 1.255.213-.122-.197.048-.461.376-.588.329-.126.598-.512.598-.858s.36-1.016.8-1.488.797-1.05.794-1.283c-.003-.234-.181-.155-.394.175s-.391.403-.394.162.354-.764.794-1.162.8-.966.8-1.262.367-.538.815-.538c.602 0 .795-.236.738-.9-.16-1.867.018-2.557.491-1.9.355.494.388.466.185-.156-.137-.418.041-1.196.397-1.739.772-1.179.582-5.298-.311-6.724-.144-.231-.209-.901-.145-1.489.065-.588-.037-.974-.226-.857s-.347-.113-.35-.511c-.005-.602-.069-.625-.379-.135-.465.735-1.04-.425-.678-1.368.648-1.69-2.517-4.222-4.074-3.26-.23.142-.294-.123-.156-.65.128-.49.307-.67.396-.401.223.669.897.621.897-.063 0-.305-.315-.665-.7-.801-.385-.135-.97-.35-1.3-.477-.533-.204-.533-.183 0 .194m-31.104 16.832c-.758 1.214-.591 1.437.304.405.875-1.009.954-1.2.496-1.2-.167 0-.527.358-.8.795m27.666 17.143c.157.254.114.462-.095.462s-.493.45-.631 1-.428 1-.644 1c-.215 0-.392.283-.392.629 0 .52.09.537.524.1.978-.988 1.841-3.103 1.382-3.387-.255-.158-.313-.077-.144.196m-4.095 7.075c-.544 1.193-.456 1.234.428.201.371-.433.527-.877.348-.988-.179-.11-.528.243-.776.787m-2.291 3.025c-.149.241.022.731.38 1.089.6.6.643.567.56-.438-.094-1.135-.477-1.4-.94-.651m4.351 3.805c.814.441 1.015.746.723 1.097-.267.321-.27.687-.01 1.073.316.471.37.429.277-.213-.087-.594.078-.766.643-.669.656.114.682.054.192-.437-.662-.661-2.154-1.501-2.626-1.478-.179.009.181.291.801.627m57.873 1.415c0 .188-.523.342-1.162.342-1.212 0-4.438 1.508-4.438 2.074 0 .179-.294.326-.653.326s-.956.349-1.325.775c-.37.426-.931.831-1.247.9s-.889.575-1.272 1.125c-.384.55-.699.852-.7.671-.002-.18-.267-.09-.589.2a53 53 0 0 1-1.209 1.053c-.342.288-.5.738-.35 1s.138.354-.028.205-2.332 1.786-4.814 4.3c-2.481 2.514-4.67 4.571-4.864 4.571-.195 0-.874.624-1.51 1.387s-1.31 1.293-1.498 1.177-.355.204-.373.712c-.017.508-.118.71-.224.449-.139-.339-.408-.291-.948.172-.415.355-.653.812-.527 1.014.125.203-.154.165-.621-.085-.466-.25-.848-.638-.848-.864 0-.225-.18-.298-.4-.162s-.4-.033-.4-.376-.18-.624-.4-.624-1.374-.967-2.565-2.148-2.723-2.545-3.405-3.03-1.134-1.054-1.005-1.262c.129-.209.086-.354-.095-.323-.854.149-1.351-.079-1.091-.5.195-.315.02-.393-.547-.245-.598.156-.772.062-.619-.337.117-.305-.009-.555-.28-.555s-1.333-.867-2.36-1.928-2.07-1.86-2.317-1.777c-.246.082-.568-.228-.714-.689-.161-.506-.728-.931-1.428-1.071-.638-.128-1.063-.39-.944-.584.12-.193-.044-.351-.364-.351-.319 0-.683-.267-.808-.593-.125-.327-.46-.508-.743-.404-.724.265-1.548-.345-1.678-1.243-.067-.464-.485-.806-1.073-.877-.731-.089-.825-.024-.39.269.454.306.473.509.092.968-.364.439-.455 5.178-.374 19.43.059 10.368-.023 18.85-.183 18.85-.161 0-.084.455.169 1.011.334.734.55.871.785.5.211-.332.327-.117.331.613q.007 1.123.469.837c.315-.195.393-.019.244.551-.217.83.55 1.498 1.545 1.345.425-.066 1.097 1.354.981 2.073-.029.181.105.232.299.112.193-.119.546.212.785.736s.805 1.07 1.259 1.214.824.52.824.835c0 .526.499.755 1.33.61.181-.031.232.101.113.293-.118.192.228.735.771 1.207.542.472.986 1.05.986 1.284s.18.315.4.179.4.053.4.419c0 .418.216.584.58.444.407-.156.506-.03.332.423q-.248.645.22.356c.257-.159.468-.134.468.056s.63 1.033 1.4 1.874 1.4 1.697 1.4 1.902.18.262.401.126c.22-.137.588.168.817.676.836 1.855 1.57 2.927 1.592 2.324.012-.332.289-.108.619.5.328.605.771 1.1.984 1.1s.387.291.387.646.72 1.276 1.6 2.048 1.6 1.631 1.6 1.911.296.623.657.762c.362.138.548.361.414.495-.133.134.253.715.858 1.291.606.576 1.536 1.677 2.067 2.447s1.29 1.691 1.685 2.047.719.806.719 1c.001.581 1.86 2.56 2.14 2.279.143-.143.26.131.26.607 0 .477.18.867.4.867s.4.281.4.624.18.512.4.376c.36-.222.573.303.447 1.1-.026.165.163.3.42.3s.36.106.23.236.291.786.934 1.459 1.169 1.448 1.169 1.722.256.596.57.716c.313.12.873.858 1.244 1.639.37.782.834 1.322 1.03 1.201s.356.201.356.715c0 .515.36 1.195.8 1.512s.8.897.8 1.288c0 .392.18.712.4.712s.4.27.4.6.18.6.4.6.4.281.4.624.18.512.4.376.4.033.4.376.191.624.424.624.325.16.204.355.049.577.376.849c.328.272.596.699.596.949s.36.679.8.954.8.858.8 1.296.136.797.302.797c.363 0 1.519 2.46 1.377 2.93-.054.181.086.215.311.076.226-.139.41.038.41.394s.18.536.4.4.4-.048.4.195c0 .671 1.878 2.405 2.605 2.405.353 0 .531.18.395.4s.044.4.4.4c.388 0 .533.185.361.463-.196.318-.013.392.583.236.497-.13 1.112.015 1.434.337.311.31.848.564 1.193.564s.629.16.629.355c0 .508 8.473.574 8.786.068.139-.226 1.1-.442 2.134-.482 1.034-.039 1.88-.222 1.88-.406s.9-.335 2-.335 2-.163 2-.361c0-.344.907-.505 6-1.069 1.21-.134 2.371-.407 2.58-.607s1.075-.363 1.924-.363 1.458-.138 1.353-.307c-.104-.17.92-.362 2.277-.427 1.356-.066 2.526-.288 2.599-.493s.691-.373 1.372-.373c1.235 0 3.472-.583 4.79-1.249.382-.193 1.067-.351 1.523-.351s.718-.18.582-.4.033-.4.376-.4.624-.18.624-.4.276-.4.613-.4c.97 0 4.987-4.471 4.987-5.55 0-.211.225-.458.5-.55 1.041-.348.675-14.081-.4-15.014-.495-.429-.9-.96-.9-1.179 0-.67-4.288-4.907-4.965-4.907-.349 0-.636-.135-.638-.3-.004-.406-1.983-1.3-2.877-1.3-.396 0-.72-.18-.72-.4 0-.24-1.592-.4-3.976-.4-2.22 0-4.086.177-4.224.4-.136.22-1.137.4-2.224.4s-1.976.18-1.976.4-.9.4-2 .4-2 .18-2 .4-.979.4-2.176.4-2.288.18-2.424.4-1.047.4-2.024.4-1.776.18-1.776.4-.27.4-.6.4-.6-.236-.6-.525c0-.288-.36-.911-.8-1.383s-.8-1.018-.8-1.213-.36-.681-.8-1.079-.8-1.067-.8-1.486c0-.418-.18-.65-.4-.514s-.4-.044-.4-.4-.18-.536-.4-.4c-.229.142-.4-.218-.4-.843 0-.6-.118-.973-.261-.829-.344.344-2.175-2.147-1.902-2.588.116-.187.02-.34-.213-.34s-.424-.276-.424-.613-.269-.715-.598-.841c-.328-.127-.518-.358-.421-.515s-.174-.538-.602-.846c-.429-.309-.779-.792-.779-1.073 0-.282-.18-.512-.4-.512s-.4-.281-.4-.624-.18-.512-.4-.376-.4-.033-.4-.376-.18-.624-.4-.624-.4-.235-.4-.522-.63-1.209-1.4-2.05-1.4-1.658-1.4-1.817c0-.527-1.477-2.001-1.741-1.737-.142.143-.259-.141-.259-.631 0-.492-.179-.78-.4-.643-.22.136-.4.042-.4-.208s-.72-1.146-1.6-1.992-1.6-1.74-1.6-1.987-.45-.899-1-1.449c-1.026-1.026-1.288-1.764-.627-1.764.205 0 .487-.36.627-.8s.508-.8.818-.8.862-.456 1.227-1.012c.365-.557.75-.926.857-.82.245.245.948-.457 1.871-1.868.395-.605.88-1.1 1.076-1.1s1.553-1.215 3.013-2.7c1.461-1.485 2.822-2.651 3.027-2.59s.273-.048.154-.24c-.242-.391 1.529-2.07 2.184-2.07.231 0 .322-.159.202-.354-.12-.194.319-.576.976-.848s1.195-.626 1.195-.785c0-.477 2.735-3.144 2.977-2.903.195.195.23.051.221-.912-.001-.111.539-.767 1.2-1.459s1.202-1.681 1.202-2.198.18-.941.4-.941.4-.54.4-1.2.18-1.2.4-1.2c.235 0 .4-1.392.4-3.376 0-1.857-.18-3.488-.4-3.624s-.4-.867-.4-1.624-.146-1.376-.325-1.376-.578-.642-.885-1.426c-.308-.785-1.242-2.024-2.075-2.755s-1.515-1.558-1.515-1.84-.117-.396-.259-.253c-.143.143-.548-.061-.9-.454-.886-.986-3.552-2.174-4.107-1.831-.282.174-.348.105-.172-.179.195-.317-.17-.462-1.162-.462-.913 0-1.351-.156-1.186-.422.175-.284-.73-.396-2.777-.342-1.67.045-3.037.235-3.037.422m-55.881 1.584c.263.421.539.583.614.359.074-.223.288-.312.474-.197s.454.022.595-.207c.142-.229.109-.391-.072-.36-.182.032-.42.023-.53-.02-1.152-.449-1.533-.299-1.081.425m-1.046 37.403c.166.434.107.59-.163.423-.234-.145-.527 0-.651.321-.198.518.4 1.311.718.951.424-.48.588-1.914.244-2.127-.254-.157-.311.009-.148.432m2.394 2.422c-.416.415-.316.829.251 1.046.303.116.542-.115.575-.557.057-.759-.328-.987-.826-.489m-23.861 35.766c.003.312.184.837.401 1.167.314.476.37.416.271-.29-.143-1.023-.681-1.726-.672-.877m-15.376 66.819c-.423.411-.581.748-.349.748.462 0 1.528-1.135 1.276-1.358-.086-.076-.503.198-.927.61m49.545.039c-.57.449-1.015.569-1.171.316-.409-.662-1.111-.464-.842.238.177.461.075.578-.357.412-.333-.128-.605-.047-.605.179s-.208.283-.462.126c-.286-.177-.353-.11-.176.177.175.283-.127.62-.779.867-.72.274-.988.604-.828 1.02.136.355.067.511-.163.369-.488-.302-1.665.799-1.273 1.191.155.154.101.244-.119.2-.842-.17-1.267.036-1.267.614 0 .33.195.611.434.625.238.014.038.185-.445.379l-.879.354-.032 19.562c-.017 10.759.077 19.844.21 20.189.266.696 2.579.183 2.579-.572 0-.211.161-.285.358-.163s.461-.048.588-.376c.126-.329.55-.599.941-.6.757-.002 3.313-2.177 3.313-2.818 0-.209.276-.38.613-.38s.715-.269.841-.598c.127-.328.391-.498.588-.376s.358-.054.358-.39c0-.359.231-.522.559-.396.597.229 2.337-1.361 2.031-1.855-.1-.162.121-.27.491-.24s.885-.361 1.145-.87.614-.898.787-.864c.174.033.475-.225.671-.575s.617-.636.936-.636.58-.3.58-.667c0-.366.109-.557.242-.424.134.133.665-.152 1.181-.633 1.402-1.309 2.075-1.837 2.234-1.752.079.042.096-.001.039-.094-.193-.318 1.64-2.03 2.174-2.03.291 0 .485-.225.43-.5s.125-.455.4-.4.5-.181.5-.524.18-.512.4-.376c.36.222.573-.303.447-1.1-.026-.165.313-.3.753-.3s.8-.236.8-.525c0-.288.349-.899.776-1.357s.665-.944.529-1.08c-.136-.135.1-.509.524-.829.424-.321.614-.589.422-.596s-.122-.287.156-.621c.278-.335.563-1.253.634-2.041.07-.787.288-1.639.484-1.891.542-.7.288-4.227-.459-6.374-.366-1.053-.666-2.113-.666-2.356s-.315-.7-.7-1.016c-.428-.35-.467-.461-.1-.285.33.159.191-.109-.309-.594s-.81-1.043-.689-1.239-.145-.551-.591-.79-.811-.621-.811-.849c0-.625-1.06-1.557-1.771-1.557-.346 0-.629-.18-.629-.4s-.197-.4-.438-.4-.972-.38-1.623-.844c-.652-.464-1.625-.869-2.162-.9s-.977-.195-.977-.366c0-.696-8.866-.153-9.825.601m-12.175 9.085c0 .671.709.837.946.222.139-.363-.002-.598-.359-.598-.323 0-.587.169-.587.376m-5.568 4.524c-.018.385-.205.7-.416.7-.407 0-2.416 2.024-2.416 2.434 0 .134.739-.439 1.641-1.272s1.547-1.751 1.432-2.039c-.137-.34-.221-.279-.241.177m1.792 39.713c-.678.512-.69.587-.1.587.372 0 .676-.167.676-.371s.315-.453.7-.553c.49-.128.52-.193.1-.217-.33-.018-.949.231-1.376.554m-3.601 2.42c-.649.474-.669.567-.123.567.359 0 .771-.192.916-.427.424-.686.045-.753-.793-.14m-3.599 1.98c-.678.512-.69.587-.1.587.372 0 .676-.191.676-.424s.208-.295.462-.138c.286.177.353.11.176-.176-.345-.558-.264-.568-1.214.151"/><path id="path8" fill="#3cc4fc" d="M206.615 53.976c-.128.207-.227 15.851-.219 34.765.01 27.303-.091 34.431-.492 34.593-.378.152-.382.211-.017.234.269.018.384.302.258.632-.265.69.855.848 1.268.178q.262-.42 1.21.2c1.205.79 1.371.78 1.405-.078.025-.621.059-.626.3-.049.21.502.79.639 2.534.6 1.244-.028 2.179.084 2.076.249s.14.313.538.33c.398.016 1.14.107 1.648.201.656.122.842.026.642-.33-.227-.401-.176-.401.255-.001.297.275.638.5.759.5.693 0 .205-32.646-.489-32.698-.397-.03-.595.129-.451.362.165.267-.039.258-.569-.026-1.262-.676-1.224-.243-1.298-14.766-.038-7.552-.227-13.672-.421-13.672-.45 0-.277-.906.248-1.3.262-.197.249-.403-.04-.6-.412-.281-1.512-2.057-1.548-2.5-.067-.812-2.06-3.243-3-3.659-.635-.281-1.063-.659-.951-.84.112-.18-.283-.24-.878-.132s-.954.069-.799-.087c.156-.155.448-.282.649-.282.202 0 .367-.135.367-.3v-.7c0-.587-1.195-.489-1.225.1-.014.275-.188.095-.387-.4-.378-.939-.976-1.167-1.373-.524m14.723 39.841c-.318.828.159 1.246.749.656.364-.364.357-.473-.031-.473-.277 0-.392-.18-.256-.4s.141-.4.011-.4-.343.278-.473.617m-19.555 56.956c.127.205.762.358 1.41.34 1.54-.044 1.126-.713-.44-.713-.66 0-1.096.168-.97.373m3.266.906a.39.39 0 0 0 .537.13c.181-.113.439.079.572.426.424 1.103.277 30.896-.153 31.162-.218.135-.337.01-.266-.276s.056-.39-.035-.231c-.373.659-.259.837.623.972.51.078 1.224-.156 1.587-.519.614-.614.69-.593 1.073.298.323.75.718.959 1.813.961.969.002 1.365.17 1.285.546-.085.398.254.5 1.272.381.763-.089 1.299-.019 1.191.155s.096.316.452.316.546.164.422.365.248.313.826.249q1.053-.116 1.223.536c.209.798 2.033 1.728 2.358 1.202.127-.204.082-.346-.099-.315-.809.141-1.079-.082-.53-.437.413-.267.441-.39.092-.394-.403-.005-.503-3.429-.483-16.53.025-17.132-.047-18.295-1.076-17.267-.518.519-.741.476-1.861-.362-.713-.533-1.712-.908-2.272-.853-.55.055-1.346-.191-1.769-.547-.533-.449-.667-.475-.438-.085.244.414.185.472-.224.219-.722-.446-6.391-.541-6.12-.102m16.915 97.952q-.57.359-.077.363c.283.003.393.3.263.706-.173.538-.135.573.165.153.215-.301.607-.681.871-.845.359-.221.336-.352-.089-.515-.313-.121-.823-.058-1.133.138m-4.588 3.356c-.427.323-1.091.593-1.476.6s-.7.204-.7.437-.148.332-.328.22c-.181-.111-.928.162-1.661.608-.732.445-1.664.723-2.071.616-.407-.106-.857-.002-1.001.231-.168.272-.06.307.299.099.309-.18.429-.18.267 0-.162.179-1.197.318-2.3.308-1.238-.01-2.008.158-2.014.439-.253 12.958.114 31.682.626 31.969.33.184.477.549.327.811-.157.273-.118.334.092.142.2-.184.386-.499.414-.7.028-.202.073-.479.1-.616s.32-.025.65.249c.396.328.6.349.6.062 0-.243.295-.324.666-.181q.668.257.377-.212c-.217-.35-.012-.361.819-.046.609.232 1.564.291 2.122.132.559-.159 1.196-.313 1.416-.341s.351-.281.29-.562c-.06-.281.078-.396.307-.254.229.141.312.425.186.63-.326.528.081.463 1.412-.225.635-.329 1.391-.538 1.68-.466.289.073.362.047.162-.057s.161-.432.8-.73c.739-.345.838-.462.272-.322l-.891.22-.109-16.444c-.066-10.008.04-16.593.271-16.824.623-.623-.739-.446-1.604.207m22.453 23.642c-.424.309-.693.64-.599.734s.518-.082.941-.392c.424-.309.693-.64.599-.734s-.518.082-.941.392m-17.399 8.627c-.519.42-.86.848-.758.95.103.102.565-.167 1.028-.598.551-.514.895-.623.997-.316.111.332.235.341.427.03.493-.796-.733-.844-1.694-.066m-5.014 1.061c-.13.13-.634.298-1.119.372-.862.131-.864.122-.094-.442.726-.53 1.754-.471 1.213.07m-12.845 2.504c0 .379.202.611.448.516.246-.094.448-.404.448-.688s-.202-.516-.448-.516-.448.31-.448.688m17.855 24.61c.528.637 1.174.755 1.174.216 0-.195-.37-.451-.823-.569-.675-.176-.738-.113-.351.353m-5.425 1.168c.105.441.088.576-.038.301-.323-.703-.98-.622-1.62.2-.379.486-.483.517-.341.1.15-.441-.115-.611-.999-.643-.661-.023-1.203.123-1.203.324s-.168.263-.372.136c-.205-.126-.488-.044-.629.184-.15.243-1.027.324-2.127.195-1.699-.199-1.787-.17-.959.313.501.293.801.643.666.779-.136.135-.584-.042-.995-.395-.876-.749-1.984-.992-1.984-.434 0 .214-.18.277-.4.141-.515-.318-.521.319-.008.832.241.241.401 6.282.417 15.699.027 15.712.213 17.457 1.625 15.227.195-.307.357-.374.36-.15.003.225.799.405 1.768.4.969-.004 1.678-.143 1.576-.308-.204-.331.325-.419 1.91-.318.661.043 1.144-.183 1.308-.612.241-.628.324-.622 1.1.076.825.742.849.739 1.44-.146.331-.495.805-.9 1.053-.9.329 0 .421-4.164.342-15.379l-.109-15.379.866.167c.841.162.845.146.126-.537-1.074-1.019-3.026-.93-2.773.127m-16.169 1.272c.019.448.111.53.238.212.17-.422.322-.422.834 0 .522.431.593.418.428-.083-.298-.903-1.539-1.01-1.5-.129m2.768.154c0 .977 1.042 1.021 1.295.056.128-.491-.048-.737-.554-.775-.486-.037-.741.211-.741.719m14.617 30.347c-.273.442.358.92.727.55.381-.38.31-.922-.12-.922-.207 0-.48.168-.607.372"/></g></svg>