<svg xmlns="http://www.w3.org/2000/svg" id="svg" width="400" height="400" viewBox="0 0 400 400"><g id="svgg" fill-rule="evenodd" stroke="none"><path id="path0" fill="#41b8fc" d="M221.843 47.531c-.148.239-.578.323-.956.188-.741-.266-.696-.201.49.694.486.367.664.4.476.087-.165-.275-.11-.5.123-.5s.424.21.424.467c0 .256.106.36.237.23.13-.13.065-.544-.145-.918-.246-.441-.476-.528-.649-.248m1.573.37c-.129.338-.141.708-.025.823s.209-.016.209-.291.225-.425.5-.333c.732.243 1.129 31.9.4 31.9-.275 0-.5.193-.5.428s.405.369.9.297 1.136.14 1.425.472c.412.472.572.491.739.086.135-.326.384-.383.675-.155.519.407 2.691 1.042 3.183.93.177-.04.712.201 1.189.535s1.277.607 1.778.607.911.179.911.397c0 .219.395.338.877.264.482-.073 1.324.098 1.871.382s1.163.412 1.368.285.523.011.705.307c.183.295.781.556 1.33.58s1.306.301 1.684.614c.379.314.759.504.847.423.134-.127 1.987.588 10.618 4.096.605.246 1.1.583 1.1.75 0 .166.36.302.8.302s.8.18.8.4.234.4.52.4c.736 0 2.673.941 2.677 1.3.002.165.363.3.803.3s.8.18.8.4.36.4.8.4.8.18.8.4.197.4.438.4.961.372 1.6.827 1.162.716 1.162.58.602.211 1.338.773c.736.561 1.468 1.02 1.628 1.02s1.087.549 2.062 1.219c.975.671 1.772 1.109 1.772.973 0-.135.784.396 1.741 1.181s1.856 1.427 1.996 1.427c.141 0 1.438.81 2.884 1.8s2.788 1.8 2.982 1.8c.193 0 .635.405.982.9s.717.855.823.8c.492-.256 1.013-.058.792.3-.136.22.033.4.376.4s.624.191.624.424.151.33.335.216.869.281 1.522.877c.653.595.82.813.372.483-.767-.565-.781-.556-.239.142.318.408.945.902 1.394 1.099 1.158.507 2.366 1.291 2.71 1.759.182.248.296.21.3-.1a.51.51 0 0 1 .506-.5c.992 0 .696-37.472-.3-37.957-.44-.214-.575-.401-.3-.416s.5-.218.5-.451-.161-.324-.358-.202-.461-.048-.588-.376c-.126-.329-.46-.584-.741-.566-.402.024-.405.075-.013.233.275.111.5.389.5.617 0 .251-.238.219-.6-.082-.33-.274-.6-.746-.6-1.049s-.36-.551-.8-.551-.8-.191-.8-.424-.165-.321-.368-.196c-.202.125-.639-.044-.971-.376s-.807-.604-1.056-.604-.323-.208-.166-.463c.195-.315.019-.393-.551-.244-.522.136-.92 0-1.059-.363-.123-.319-.405-.469-.626-.332-.222.137-.403-.031-.403-.374s-.225-.628-.5-.633-.95-.361-1.5-.791-1.315-.786-1.7-.791-.7-.189-.7-.409-.193-.4-.429-.4c-.235 0-.7-.272-1.032-.604s-.769-.501-.971-.376c-.203.125-.368.037-.368-.196a.42.42 0 0 0-.412-.424c-.226 0-2.471-1.001-4.987-2.225s-4.697-2.199-4.844-2.166-.396-.148-.552-.401c-.157-.254-.537-.512-.845-.574-.78-.157-2.031-.623-2.855-1.063-.382-.204-.967-.371-1.3-.371s-.605-.18-.605-.4-.439-.4-.976-.4-1.088-.18-1.224-.4-.597-.4-1.024-.4-.776-.18-.776-.4-.54-.4-1.2-.4-1.2-.18-1.2-.4-.362-.4-.805-.4-1.208-.208-1.7-.462c-1.957-1.012-2.321-1.138-3.29-1.138-.553 0-1.005-.18-1.005-.4s-.54-.4-1.2-.4-1.2-.201-1.2-.447c0-.245-.348-.355-.774-.244s-1.154-.064-1.619-.389c-.464-.325-1.061-.509-1.326-.408-.264.1-.931-.004-1.481-.232-.924-.384-1.698-.515-3.8-.643-.667-.041-.7-.114-.2-.437.435-.281.083-.389-1.276-.394-1.032-.003-1.988-.186-2.124-.406s-.732-.397-1.324-.394c-.842.005-.945.091-.476.394.33.213.434.391.231.394s-.709-.303-1.126-.68c-.476-.43-1.417-.685-2.531-.685-.976 0-1.774-.121-1.774-.268 0-.595-1.558-.647-1.784-.06M295.6 77.814c0 .296.208.667.462.824.274.17.353.111.195-.146-.147-.237.05-.497.438-.578.578-.12.543-.191-.195-.393-.61-.167-.9-.072-.9.293m-73.174 1.955c-.326.393-.337.639-.036.825.237.146.404.117.373-.064-.141-.809.082-1.079.437-.53.233.361.39.41.394.124.01-.761-.662-.965-1.168-.355m-5.398 31.876c.095.154.561.178 1.035.054.586-.153.771-.078.579.233-.182.294-.068.376.317.229.33-.127 1.003.145 1.496.604s1.145.835 1.45.835c.873 0 .378-1.395-.512-1.441-.436-.023-1.273-.238-1.86-.478-1.149-.47-2.788-.493-2.505-.036m7.372 1.481c.87.397.908 32.432.039 33.113-.412.323-.437.515-.093.728.257.158.373.44.259.626-.115.185.246.287.803.226.556-.061 1.125.072 1.264.297.144.233.054.286-.21.122-.254-.157-.462-.095-.462.138 0 .372 1.178.627 2.13.461.181-.031.223.115.094.324-.13.21.126.496.568.636.442.141 1.074.526 1.406.858.343.343.602.412.602.16 0-.244.543.113 1.206.791.663.679 1.383 1.124 1.6.99s.394-.058.394.168.968 1.126 2.15 1.999c2.275 1.681 8.11 7.237 7.6 7.237-.166 0 .079.354.543.786.465.433.961 1.153 1.103 1.6s.407.814.589.814.932.945 1.666 2.1 1.473 2.16 1.642 2.233.307.316.307.539c0 .222.404.972.898 1.665.493.693.841 1.504.773 1.802-.069.299.066.423.302.278.235-.146.427-.004.427.314s.261 1.08.58 1.695c.318.614.488 1.265.376 1.445s-.013.329.22.329.424.36.424.8.18.8.4.8.4.45.4 1 .18 1 .4 1 .4.54.4 1.2.18 1.2.4 1.2.4.63.4 1.4.18 1.4.4 1.4.4.885.4 1.967c0 1.081.165 2.026.367 2.1.902.328.945 18.557.045 19.132-.293.187-.489 1.198-1.065 5.5-.125.934-.389 1.598-.587 1.476s-.36.328-.36 1.001-.18 1.224-.4 1.224-.4.45-.4 1-.18 1-.4 1-.4.36-.4.8-.191.8-.424.8-.332.148-.22.329c.112.18-.047.81-.353 1.4-.305.589-.454 1.071-.33 1.071s-.001.272-.277.604c-.683.824-1.966 3.04-2.254 3.896-.129.385-.372.7-.54.7s-.512.501-.766 1.113c-.253.612-.902 1.647-1.441 2.3-1.157 1.402-1.244 1.514-2.782 3.587-1.594 2.15-4.833 5.376-6.9 6.872-.927.672-1.572 1.336-1.433 1.475s-.017.253-.347.253c-.331 0-1.088.546-1.682 1.214-.595.668-1.255 1.107-1.467.976-.211-.13-.384-.058-.384.161 0 .218-.613.619-1.362.89-.901.325-1.289.683-1.146 1.056.128.333-.01.529-.338.48-.305-.046-1.139.053-1.854.22-1.205.281-1.503.634-1.325 1.571.039.202-.203.141-.537-.136-.54-.449-.609 1.313-.629 16.181-.013 9.177-.121 16.845-.241 17.039s.097.475.483.623c.402.154.768.069.857-.2.11-.329.378-.35.896-.073.545.292.907.23 1.368-.231.345-.346.628-.505.628-.354s.468-.032 1.041-.407 1.376-.594 1.785-.487.952-.055 1.205-.36.631-.449.84-.319c.208.129.683-.031 1.054-.355s.991-.538 1.377-.474c.386.063.612-.031.502-.208-.192-.312.922-.987 1.458-.883.144.028.481-.214.749-.537s.825-.587 1.238-.587.751-.18.751-.4.135-.379.3-.353c.904.143 1.715-.099 1.5-.447-.136-.22.123-.4.576-.4s.825-.135.827-.3c.003-.311 1.9-1.3 2.493-1.3.186 0 .724-.36 1.196-.8s1.095-.8 1.383-.8.525-.18.525-.4.225-.403.5-.407 1.109-.499 1.853-1.1c3.526-2.848 4.407-3.536 5.235-4.093.491-.33 1.665-1.354 2.609-2.276s1.812-1.582 1.928-1.466.392-.13.615-.546c.222-.416 1.542-1.925 2.932-3.353 2.71-2.785 5.928-6.384 5.928-6.631 0-.083.904-1.316 2.009-2.739 1.105-1.424 1.87-2.595 1.7-2.602s-.037-.232.296-.5.824-.982 1.091-1.587c.268-.605.671-1.1.895-1.1.225 0 .409-.36.409-.8s.168-.8.374-.8.602-.63.88-1.4c.279-.77.651-1.4.826-1.4.176 0 .32-.27.32-.6s.21-.6.467-.6c.256 0 .364-.103.238-.228-.189-.189 2.414-6.261 3.711-8.656.204-.376.265-.96.136-1.297-.137-.358.031-.714.406-.858.353-.136.642-.647.642-1.137s.125-1.016.278-1.169c.342-.341.555-1.302.612-2.755.024-.605.174-1.1.333-1.1.279 0 .921-1.771.943-2.6.006-.22.205-1.03.442-1.8s.412-1.94.387-2.6.147-1.332.38-1.494q.42-.292-.085-.3c-.397-.005-.382-.255.071-1.13.363-.702.449-1.336.23-1.691-.23-.371-.116-.835.329-1.345.374-.427.455-.646.18-.485s-.5.117-.5-.098.178-.45.397-.524c.679-.228.526-3.529-.164-3.539-.238-.003-.183-.164.122-.357.325-.206.554-1.029.554-1.988 0-.899-.249-1.943-.554-2.319s-.367-.571-.137-.434c.267.16.417-.452.417-1.696s-.15-1.856-.417-1.696c-.23.137-.168-.058.137-.434.724-.893.724-3.848 0-4.307-.305-.193-.36-.354-.122-.357.69-.01.843-3.311.164-3.539-.219-.074-.397-.309-.397-.524s.225-.255.5-.09c.342.205.327.087-.047-.374-.301-.371-.453-1.036-.338-1.477.116-.442.077-.721-.085-.621-.162.101-.322-.484-.354-1.299-.117-2.99-.376-4.649-.744-4.771-.207-.069-.337-.707-.287-1.417.049-.71-.098-1.517-.327-1.793-.229-.275-.282-.501-.118-.501s.081-.261-.184-.581-.365-.949-.222-1.4c.151-.476.081-.819-.167-.819-.235 0-.427-.371-.427-.824s-.135-.74-.3-.639c-.165.102-.341-.381-.392-1.073-.05-.692-.275-1.32-.5-1.395-.224-.074-.408-.661-.408-1.302s-.18-1.167-.4-1.167-.4-.36-.4-.8-.142-.8-.315-.8-.344-.389-.38-.864-.269-.99-.519-1.145c-.25-.154-.441-.44-.425-.636.059-.71-.425-1.755-.812-1.755-.218 0-.298-.159-.178-.354.23-.371-2.153-5.349-2.671-5.579-.165-.074-.3-.389-.3-.7 0-.312-.18-.567-.4-.567s-.4-.36-.4-.8-.141-.8-.314-.8c-.172 0-.629-.533-1.014-1.185s-.929-1.417-1.208-1.7c-.28-.283-.949-1.317-1.486-2.298-.538-.98-1.248-2.069-1.578-2.418s-1.196-1.378-1.925-2.284a87 87 0 0 0-2.522-2.982 280 280 0 0 1-1.474-1.653c-.461-.528-7.987-7.648-8.554-8.091a64 64 0 0 0-1.925-1.389c-1.63-1.139-2.204-1.578-3.141-2.4-.376-.33-1.173-.855-1.771-1.168s-1.088-.717-1.088-.9c0-.182-.246-.332-.546-.332s-1.004-.36-1.563-.8c-.56-.44-1.314-.8-1.678-.8s-.565-.154-.448-.343-.638-.774-1.677-1.3-1.948-1.092-2.021-1.257-.479-.3-.9-.3c-.422 0-.767-.192-.767-.427 0-.245-.341-.319-.8-.173-.467.148-.8.072-.8-.183 0-.397-1.517-1.181-2.66-1.374-.252-.043-.74-.311-1.082-.595s-.79-.413-.995-.287c-.205.127-.602-.046-.882-.384-.28-.337-.745-.523-1.034-.412-.288.11-.786-.061-1.107-.382s-1.035-.583-1.588-.583-1.109-.169-1.237-.375c-.127-.207-.588-.307-1.023-.223-.441.085-.792-.065-.792-.338 0-.269-.495-.517-1.1-.551-.676-.037-.869.045-.5.213m69.902 2.74c.277.111.401.367.277.568s.054.366.397.366.627.225.63.5c.004.343.122.318.374-.081.411-.651.152-1.348-.38-1.019-.19.117-.458.03-.596-.193a.87.87 0 0 0-.728-.375c-.341.022-.333.089.026.234m-71.102 30.11c0 .308-.26.41-.657.258-.559-.215-.578-.158-.13.382.48.578.559.576.894-.021.201-.36.26-.762.13-.892-.131-.13-.237-.007-.237.273m-8.521 60.181c-.164.417-.204.852-.088.967.364.365.685-.233.533-.993-.141-.696-.162-.695-.445.026m7.579 47.236c-.13.338-.493.492-.843.357-.393-.15-.615-.008-.615.395 0 .396-.223.544-.6.4-.715-.275-.836.862-.138 1.293.262.162.354.111.212-.118-.137-.222.195-.605.739-.853q.988-.451.987-.035c0 .228.172.309.383.179.21-.13.281-.501.157-.824s-.026-.587.217-.587c.244 0 .443-.18.443-.4 0-.615-.686-.474-.942.193m-6.602 2.62c-.52.433-.755.787-.524.787s.54-.193.685-.428c.146-.235.651-.584 1.124-.775.497-.2.606-.351.259-.358-.33-.007-1.025.342-1.544.774m83.76 23.56c-.145.235-.152.607-.016.827s.057.4-.176.4-.424.18-.424.4c0 .83.795.357 1.04-.619.274-1.089.012-1.712-.424-1.008m-5.568 4.615c-.408.543-1.083 1.096-1.501 1.229s-.655.408-.529.612-.062.371-.418.371-.536.18-.4.4.057.4-.176.4c-1.033 0-2.824 1.441-2.824 2.272 0 .29-.191.528-.424.528s-.308-.225-.167-.5-.209.005-.777.622c-.567.618-1.038.888-1.045.6-.008-.32-.239-.222-.6.254-.323.428-.587.644-.587.482s-.458.164-1.018.724-1.19 1.018-1.4 1.018-.382.289-.382.643c0 .407-.22.558-.6.412-.33-.126-.602-.101-.605.058-.002.158-.722.631-1.6 1.051-.877.421-1.595.926-1.595 1.124s-.18.248-.4.112-.4.033-.4.376c0 .35-.339.624-.771.624-.425 0-1.042.27-1.372.6s-.771.6-.979.6c-.209 0-.597.261-.862.581-.418.503-1.788 1.291-5.513 3.167-.493.249-.898.587-.9.752s-.258.3-.57.3c-.311 0-.626.135-.7.3-.151.34-3.558 2.103-4.062 2.101-.18-.001-.598.269-.928.598-.329.33-1.081.718-1.671.862s-1.162.369-1.272.501c-.396.472-2.002 1.238-2.595 1.238-.333 0-.605.18-.605.4s-.349.4-.776.4-.888.18-1.024.4-.609.4-1.052.4-1.075.27-1.405.6-.937.6-1.348.6-.859.18-.995.4-.599.4-1.029.4-1.094.175-1.476.389c-.924.518-7.759 2.899-8.395 2.924-.275.011-.5.132-.5.269 0 .136-.578.292-1.284.346s-1.382.248-1.5.431-.624.46-1.122.616c-.498.155-.813.433-.699.616.113.184-.182.233-.657.109-.591-.155-.773-.08-.577.237.157.255.083.463-.166.463-.466 0-1.635 1.006-1.609 1.386.008.118-.09.202-.217.188-.472-.055-2.168 2.252-2.169 2.95 0 .446-.178.613-.463.437-.315-.195-.393-.019-.244.551.139.531-.001.921-.382 1.067-.423.162-.481.377-.197.726.623.764.646 10.295.024 10.295-.387 0-.391.107-.018.48.579.579.645 1.669.08 1.32-.22-.136-.4-.057-.4.176s.18.424.4.424.4.371.4.824.159.725.354.605c.194-.12.577.323.852.985.274.662.683 1.317.908 1.456.234.145.288.057.127-.204-.184-.297-.062-.372.348-.215.493.189.529.365.165.805-.38.457-.332.51.255.285.497-.191.632-.131.433.191-.159.257-.099.468.134.468s.424.27.424.6c0 .333.356.6.8.6.44 0 .8.18.8.4s.135.363.3.319c.578-.157 3.255 1.03 3.055 1.354-.111.18.518.327 1.398.327s1.7.163 1.823.361c.123.199 1.079.297 2.124.218 3.609-.272 5.697-.661 5.475-1.019-.122-.198.418-.36 1.201-.36s1.424-.18 1.424-.4.63-.4 1.4-.4 1.4-.136 1.4-.303c0-.331 2.824-1.297 3.794-1.297.333 0 .606-.18.606-.4s.45-.4 1-.4 1-.147 1-.328c0-.18.9-.572 2-.872s2-.692 2-.872c0-.181.36-.328.8-.328s.8-.18.8-.4.42-.4.933-.4 1.069-.135 1.234-.3c.283-.284.429-.329 1.457-.45.233-.027.312-.23.176-.45s.009-.4.321-.4c.773 0 10.195-4.207 10.679-4.768.11-.128.47-.29.8-.362.33-.071.66-.296.733-.5.074-.203.38-.37.68-.37.593 0 4.302-2.367 4.52-2.884.074-.174.451-.316.838-.316.388 0 1.031-.36 1.429-.8s1.044-.8 1.435-.8.83-.374.975-.83c.144-.457.362-.731.483-.611.273.273 2.507-1.015 2.507-1.445 0-.173.257-.314.572-.314s.63-.405.7-.9.36-.9.644-.9c.413 0 .511-3.647.492-18.454-.022-17.867.135-20.546 1.206-20.546.238 0 .322.18.186.4s-.076.4.134.4c.605 0 .847-1.059.355-1.551-.633-.633-.803-.576-1.641.539m-70.824 2.425c-.46.347-.874.43-1.014.203-.131-.211-.435-.068-.676.318-.358.574-.301.713.314.76.413.031.752-.123.752-.342s.18-.288.4-.152.4.062.4-.164.272-.307.605-.179c.432.166.534.049.357-.412-.136-.355-.273-.639-.305-.632s-.406.277-.833.6m76.352 32.774c-.427.323-.613.593-.414.6s.02.418-.397.913l-.759.9 1.027-.904c.564-.497 1.138-.791 1.275-.654.137.136.22-.132.185-.597s-.081-.845-.102-.845-.387.264-.815.587m-2.176 1.437c0 .233-.161.324-.358.202s-.457.036-.577.35c-.142.369.027.552.479.518.575-.043 1.189-1.494.631-1.494-.096 0-.175.191-.175.424m-73.892 7.555c.035.457.25.768.477.693.569-.19.524-1.169-.062-1.364-.278-.093-.451.186-.415.671"/><path id="path1" fill="#1cdcfc" d="M100.522 79.335c-.483.24-1.102.854-1.375 1.364-.274.511-.719.844-.99.74-.272-.104-.967.249-1.546.786-.579.536-1.324.975-1.655.975-.332 0-.492.18-.356.4s-.032.4-.373.4-.845.36-1.12.8-.827.8-1.227.8-.616.18-.48.4.083.4-.117.4-.929.54-1.62 1.2-1.411 1.2-1.6 1.2-.909.54-1.6 1.2-1.437 1.2-1.659 1.2-.405.135-.407.3-.629.726-1.394 1.248c-.765.521-1.305 1.087-1.199 1.258.189.307-.948.973-1.48.866-.151-.031-.388.301-.527.736-.142.448-.605.792-1.067.792-.573 0-.745.185-.577.621.131.341.103.537-.062.435s-.647.069-1.072.379c-.762.558-.762.565.005.595.524.021.363.183-.495.5-.7.259-1.42.634-1.6.834-.183.203-.143.259.09.127.231-.131.681-.073 1 .129.409.259.431.37.075.374-.403.005-.503 4.387-.487 21.339.017 18.173.104 21.334.589 21.334.313 0 .476-.15.363-.334-.114-.183-.016-.333.217-.333s.424.193.424.429c0 .235.281.147.626-.197.344-.344.51-.812.37-1.039-.141-.227-.075-.363.146-.303.617.169 3.298-2.502 2.998-2.986-.156-.253-.075-.311.199-.142.281.174.615-.115.852-.738.214-.563.694-1.024 1.066-1.024s.575-.101.452-.224c-.21-.21 1.514-2.176 1.908-2.176.1 0 .946-.72 1.88-1.6s1.835-1.6 2.001-1.6.304-.225.307-.5.768-1.159 1.7-1.964c3.144-2.716 5.495-5.054 5.495-5.465 0-.224.553-.529 1.229-.677.675-.149 1.126-.373 1.001-.498-.126-.125.446-.662 1.271-1.192.824-.531 1.202-.874.838-.762-.918.282-1.228-.149-.636-.882.402-.496.396-.553-.031-.296-.29.175-.65.649-.8 1.053-.15.405-.272-8.251-.272-19.236 0-15.609.109-20.014.5-20.164.275-.106.5.012.5.262 0 .7.405.133.59-.825.09-.47.129-.832.087-.805s-.472.246-.955.486m7.953 34.281c-.989.921-1.114 1.251-.366.964.453-.174 1.689-1.78 1.37-1.78-.071 0-.522.367-1.004.816M70.4 249.546c0 .57 1.996 2.854 2.494 2.854.233 0-.053-.441-.636-.981-.582-.539-1.058-1.159-1.058-1.376 0-.218-.18-.507-.4-.643s-.4-.07-.4.146m5.24 27.854c-.014 12.1-.029 22.236-.033 22.524-.004.311-.209.402-.507.223-.327-.196-.305-.061.061.391.494.609.435.823-.5 1.798-.584.609-1.061 1.334-1.061 1.609 0 .276-.18.391-.4.255s-.4.033-.4.376c0 1.238 1.209.285 1.365-1.076.019-.165.19-.289.38-.277.474.033 1.503-2.022 1.232-2.46-.12-.195.069-.244.419-.109.573.22.576.314.028.919-.793.877-.938 44.586-.149 45.073.304.188.377.065.213-.36-.182-.476-.077-.58.402-.396s.584.08.4-.4c-.176-.459-.078-.583.335-.425.428.164.511.034.31-.49-.217-.566-.126-.657.44-.44.539.207.655.121.474-.351-.146-.38-.075-.524.181-.366.533.33 1.97-.944 1.97-1.747 0-.332.115-.489.255-.349C81.394 341.661 98 325.07 98 324.393c0-.29.109-.417.243-.284.317.317 1.328-.618 1.091-1.009-.099-.165.009-.3.242-.3s.403-.135.377-.3c-.124-.785.097-1.041.435-.505.298.471.363.415.311-.272-.036-.477-.211-.777-.389-.667-.529.326-.363-40.311.167-40.949.333-.401.329-.661-.014-1.004-.255-.255-.463-.328-.463-.162 0 .165-.426-.159-.946-.72-.52-.562-1.059-1.021-1.198-1.021s-1.193-.921-2.343-2.048c-1.15-1.126-2.681-2.497-3.402-3.047s-1.311-1.249-1.311-1.552c0-.494-.479-.722-1.276-.608-.151.021-.388-.318-.527-.753-.138-.436-.429-.792-.648-.792-.218 0-.285-.18-.149-.4.137-.221-.151-.4-.643-.4-.49 0-.785-.105-.657-.234.301-.3-2.662-3.366-3.253-3.366-.246 0-.447-.281-.447-.624s-.18-.512-.4-.376-.4-.063-.4-.443-.119-.571-.264-.426c-.146.145-.475-.14-.733-.633-.258-.494-.679-.853-.936-.798s-.446-.035-.42-.2c.128-.809-.1-1.3-.604-1.3-.307 0-.662-.273-.79-.606s-.705-.786-1.283-1.006c-.71-.269-.975-.599-.815-1.014.13-.339.073-.515-.125-.392-.199.123-.452-.003-.563-.28-.11-.276-.212 9.398-.227 21.498m26.36 3.721c0 .266-.29.345-.7.192-.622-.234-.637-.185-.13.437.523.643.6.647.937.045.201-.36.26-.762.13-.892-.131-.13-.237-.032-.237.218M71.8 297.6c-.136.22-.048.4.195.4.244 0 .892.484 1.441 1.077.751.81.926.884.709.3-.504-1.354-1.936-2.439-2.345-1.777m30.351 24.079c-.166.269-.092.332.187.159.254-.157.462-.138.462.042s.364.555.809.833c.749.467.772.445.309-.296-.623-.997-1.405-1.323-1.767-.738M74.8 347.424c0 .343-.15.531-.333.417-.184-.113-.334.057-.334.378 0 .486.122.474.724-.071.398-.36.628-.811.51-1.001-.328-.531-.567-.414-.567.277m-7.621 7.998c-.528.562-.691.919-.361.792.521-.199 1.816-1.814 1.455-1.814-.073 0-.566.46-1.094 1.022"/><path id="path2" fill="#2cccfc" d="M171.6 48.476c0 .573.634.635 1.325.13.656-.48.63-.519-.304-.465-.561.032-1.021.183-1.021.335m-5.2 1.146c-.916.458-1.561.568-1.864.32-.298-.244-.558-.23-.724.039-.143.23-.659.419-1.147.419s-1.242.24-1.676.533c-.434.294-1.284.502-1.889.462-.605-.039-1.1.081-1.1.267s-.54.338-1.2.338-1.2.18-1.2.4-.504.4-1.12.4-1.362.225-1.659.5c-.437.406-.479.388-.221-.1s.216-.506-.221-.1c-.297.275-.938.5-1.426.5-.487 0-.947.182-1.021.404s-.504.475-.955.562-1.508.445-2.348.796-1.865.638-2.278.638-.751.18-.751.4-.36.4-.8.4-.8.18-.8.4-.551.4-1.224.4c-.713 0-1.12.167-.976.4.136.22-.136.4-.605.4s-1.114.262-1.435.583-.85.481-1.176.355c-.422-.161-.521-.04-.344.422.182.474.079.584-.379.408-1.177-.452-3.453.585-3.139 1.43.153.413.188 8.324.078 17.581-.17 14.271-.115 16.798.357 16.617.437-.168.456-.093.089.348-.363.438-.332.614.144.797.335.129.61.06.61-.154 0-.213.28-.387.622-.387s1.682-.72 2.978-1.6 2.726-1.6 3.178-1.6.822-.18.822-.4.283-.4.629-.4c.345 0 .893-.265 1.218-.589.324-.325 1.293-.779 2.153-1.011s1.838-.695 2.173-1.03.838-.567 1.118-.516 1.206-.21 2.058-.58c.852-.371 1.702-.674 1.89-.674s.931-.359 1.651-.799c.721-.439 1.816-.799 2.434-.8.647 0 1.018-.171.876-.401-.138-.223.169-.4.696-.4.519 0 1.158-.214 1.42-.476.498-.498.618-.537 2.884-.945.77-.138 1.46-.416 1.534-.618.074-.201.299-.264.5-.14s.366.027.366-.216c0-.289.489-.349 1.416-.176 1.085.204 1.389.138 1.3-.282-.084-.397.295-.524 1.384-.464 1.243.069 1.414-.01 1-.458-.275-.298-.59-.487-.7-.421-.184.111-.146-9.274.102-25.109.072-4.631-.024-6.258-.363-6.128-.254.098-.794-.089-1.2-.415-.701-.563-.692-.581.161-.346.495.136.9.094.9-.094 0-.574-1.324-.428-2.8.31M132 96.961c0 .679.653 1.203.93.746.102-.169-.065-.539-.372-.823-.458-.423-.558-.41-.558.077m67.1 12.921a5.7 5.7 0 0 0 1.8 0c.495-.095.09-.173-.9-.173s-1.395.078-.9.173m-29.322 4.953c-.147.239-.068.635.177.88.327.327.445.317.445-.035 0-.264.315-.483.7-.486.598-.005.613-.063.1-.394-.78-.504-1.093-.497-1.422.035m-1.378.613c0 .23-.225.429-.5.443-1.196.057-4.9 1.232-4.9 1.555 0 .195-.164.299-.363.233-.2-.067-.486.077-.636.32s-.662.47-1.137.506-.864.173-.864.305c0 .133-.63.488-1.4.79s-1.4.696-1.4.875-.27.325-.6.325-.6.191-.6.424-.16.325-.355.204-.577.049-.849.376c-.272.328-.766.596-1.098.596s-.895.32-1.251.711-1.502 1.155-2.547 1.699-1.9 1.124-1.9 1.289c0 .166-.27.301-.6.301s-.6.18-.6.4-.27.4-.6.4-.6.152-.6.339c0 .186-.36.754-.8 1.261-.519.598-.802.725-.806.361-.004-.315-.506.005-1.144.729-.626.709-1.253 1.174-1.394 1.033s-.256-.076-.256.144-.73 1.191-1.622 2.157c-.954 1.033-1.517 1.431-1.368.967.251-.779.246-.778-.36.009-.339.44-1.119 1.295-1.733 1.9s-.957 1.099-.76 1.1c.196 0-.613.9-1.797 2s-2.3 2-2.48 2-.212.187-.07.416c.141.228-.403 1.019-1.208 1.757-1.03.943-1.318 1.432-.971 1.646.29.179.391.139.244-.097-.136-.221.196-.639.739-.929.542-.291.986-.688.986-.884s.135-.274.3-.175.532-.069.816-.376c.421-.455.421-.559 0-.564-.407-.005-.403-.078.018-.345.294-.186.519-.453.5-.594-.019-.14.057-.255.169-.255.258 0 .268 117.961.011 118.378-.283.458.186.797.785.567.286-.11.638-.009.781.223.155.251.026.332-.319.2-.319-.122-.696-.036-.837.193-.143.232.23.538.845.692.987.248 1.02.307.316.569-.776.289-.776.296.015.614.44.177 1.129.738 1.532 1.247.403.508.925.805 1.162.659.239-.148.315-.08.17.154-.143.231.01.523.338.65.329.126.601.55.604.941.005.608.064.625.4.113.329-.501.435-.451.641.3.135.495.495.9.8.9.304 0 .553.193.553.429 0 .235.27.698.6 1.028s.6.504.6.386c0-.211.317.052 3.31 2.749.83.748 1.865 1.473 2.3 1.611s.79.419.79.624.27.373.6.373.6.136.6.302c0 .167.585.558 1.3.87s1.591.896 1.947 1.298.941.73 1.3.73.653.18.653.4.236.4.525.4c.288 0 .88.315 1.315.7s1.054.758 1.376.83c.321.071.644.296.717.5.074.203.479.37.9.37.422 0 .767.18.767.4s.461.4 1.024.4c.632 0 .921.166.756.433-.17.274.077.384.676.3.618-.087.906.049.835.394-.063.304.191.485.6.428.39-.054 1.406.204 2.258.573 1.785.774 1.984.81 1.668.3-.126-.205-.019-.503.238-.662.293-.181.361-.116.182.173-.188.306-.002.42.548.336 1.028-.157 1.526-32.495.515-33.439-.275-.257-.5-.64-.5-.852 0-.595.799-.453 1.043.185.121.313.516.683.879.822.457.176.376-.048-.266-.731-1.274-1.356-2.583-1.69-2.227-.569.227.717.184.752-.333.269-.328-.306-.509-.782-.403-1.058s-.017-.502-.274-.502c-.256 0-.338-.208-.181-.462.178-.287.11-.353-.179-.174-.256.157-.565.025-.688-.294-.132-.345-.538-.499-.997-.379-.441.115-.774 0-.774-.268 0-.259.18-.359.4-.223s.4.057.4-.176-.264-.424-.586-.424-.997-.37-1.5-.822c-2.584-2.324-6.714-6.369-6.714-6.576 0-.13-.45-.722-1-1.315s-1-1.306-1-1.583-.281-.504-.624-.504-.512-.18-.376-.4.057-.4-.176-.4-.424-.27-.424-.6-.175-.6-.39-.6c-.214 0-.689-.585-1.056-1.3-.366-.715-.8-1.39-.965-1.5-.239-.16-1.442-2.725-1.688-3.6-.031-.11-.381-.549-.779-.975-.397-.427-.722-1.181-.722-1.677s-.18-1.012-.4-1.148-.4-.597-.4-1.024-.18-.776-.4-.776-.403-.585-.406-1.3c-.005-.986-.1-1.155-.394-.7-.339.525-.558-.821-.366-2.255.019-.141-.17-.382-.42-.536-.25-.155-.481-.715-.515-1.245-.033-.53-.21-1.068-.393-1.196s-.349-1.069-.37-2.092c-.02-1.023-.194-1.764-.387-1.645-.298.185-.589-4.975-.37-6.571.041-.297-.118-.422-.352-.277-.235.146-.427.074-.427-.159s.202-.424.449-.424c.33 0 .331-.142.003-.537-.245-.295-.322-.66-.172-.81.375-.374.394-3.422.02-3.191-.165.102-.3-.106-.3-.462s.167-.544.37-.418c.211.13.458-1.2.572-3.077.258-4.235.645-6.805 1.099-7.285.197-.209.359-.884.359-1.5s.141-1.12.313-1.12.353-.495.403-1.1.269-1.16.487-1.233c.219-.074.397-.749.397-1.5s.159-1.367.353-1.367c.195 0 .485-.405.647-.9.161-.495.339-1.035.396-1.2s.127-.581.154-.924c.028-.343.192-.536.365-.428.173.107.545-.378.827-1.077s.78-1.721 1.109-2.271.698-1.315.82-1.7.381-.7.576-.7c.194 0 .353-.272.353-.604s.36-.912.8-1.289.8-.915.8-1.196.191-.511.424-.511.312-.18.176-.4.033-.4.376-.4.579-.162.524-.359c-.191-.684 5.355-6.797 7.605-8.383.717-.505 1.202-1.085 1.076-1.289s.052-.369.395-.369.624-.174.624-.387c0-.214.3-.273.666-.132q.669.258.376-.213c-.172-.278-.045-.468.311-.468.33 0 .728-.208.885-.462.177-.286.11-.353-.176-.176-.254.157-.462.191-.462.076 0-.116.382-.414.848-.664.684-.366.795-.349.571.086-.153.297-.04.259.251-.085.292-.343.856-.747 1.255-.897s.624-.437.499-.639c-.506-.818.209-1.625 1.002-1.13.593.37.863.354 1.264-.078.392-.421.394-.483.01-.266-.275.155-.5.092-.5-.141s-.225-.379-.5-.324c-.392.078-.519-3.425-.587-16.273-.075-14.097-.172-16.457-.7-16.985-.337-.338-.613-.425-.613-.194M125.293 251.2c.275.44.638.8.807.8s.082-.36-.193-.8-.638-.8-.807-.8-.082.36.193.8m1.753 2.575c.121.316.49.471.821.344.488-.187.501-.293.067-.569-.798-.505-1.136-.42-.888.225m41.832 31.161c.768.767 2.89 1.149 2.277.409-.343-.412-.327-.545.063-.545.283 0 .4-.116.258-.257-.141-.141-.492-.062-.78.177-.333.276-.736.299-1.109.063-.877-.554-1.32-.459-.709.153m30.222 5.346a5.7 5.7 0 0 0 1.8 0c.495-.095.09-.173-.9-.173s-1.395.078-.9.173M132.791 303.7c-.056 3.323.063 33.056.135 33.5.053.33.254.853.447 1.162q.348.559-.084.293a.5.5 0 0 0-.691.148c-.142.229-.109.391.072.36.904-.157 1.75.082 1.533.432-.145.235.034.289.442.132.502-.192.599-.121.359.267-.211.34-.172.434.107.261.238-.147.547-.085.685.138.138.224.826.41 1.528.413.971.005 1.133.099.676.394-.454.293-.278.389.724.394.779.003 1.222.17 1.076.406-.14.226.192.4.764.4.557 0 1.653.36 2.436.8s1.789.8 2.236.8c.446 0 .7.18.564.4-.144.233.263.4.976.4.673 0 1.224.18 1.224.4s.45.4 1 .4 1 .16 1 .356.585.458 1.3.581c3.012.521 3.9.773 3.9 1.108 0 .195.81.355 1.8.355s1.8.135 1.801.3c.001.589 3.613.319 4.006-.3.242-.382.383-.422.387-.11.009.698 2.381.164 3.371-.758.432-.403 1.221-.732 1.753-.732.686 0 .902-.171.742-.587-.124-.323-.053-.694.157-.824.23-.142.383-5.106.383-12.436 0-8.228.133-12.118.41-11.947.695.43.233-.774-.51-1.329-.385-.287-.7-.782-.7-1.1 0-.71-.464-.74-1.179-.077-.439.408-.495.374-.3-.18.177-.505.073-.616-.407-.432q-.645.248-.356-.22c.36-.582.028-.595-1.008-.041-.67.358-.778.31-.674-.3.073-.427-.089-.683-.392-.622-.284.058-.914-.121-1.4-.397-.486-.277-1.244-.526-1.684-.555-1.68-.109-1.84-.164-1.6-.553.136-.22-.078-.403-.476-.406-.837-.007-3.579-.916-3.983-1.32-.151-.151-.67-.274-1.154-.274s-1.352-.372-1.929-.826c-.578-.454-1.212-.726-1.409-.604-.197.121-.572-.036-.833-.351-.261-.314-.731-.473-1.045-.352-.314.12-.571.019-.571-.224 0-.244-.45-.443-1-.443s-1.001-.135-1.003-.3c-.004-.359-1.941-1.3-2.677-1.3-.286 0-.52-.18-.52-.4s-.36-.4-.8-.4-.8-.142-.8-.315-.402-.345-.894-.382-.957-.255-1.033-.485c-.077-.23-.395-.418-.706-.418-.312 0-.567-.199-.567-.443 0-.243-.27-.339-.6-.212-.385.147-.611-.016-.632-.458-.019-.417-.11-.49-.233-.187-.253.628-1.195.65-1.573.038-.176-.284-.11-.353.172-.179.284.176.376.073.244-.272-.227-.593-1.378-.777-1.378-.22 0 .183-.354.333-.787.333-.536 0-.714-.192-.558-.6.127-.33.121-.6-.012-.6-.134 0-.247.225-.252.5m38.142 16.482c0 .321.139.497.309.392s.494.128.721.518c.227.389.418.496.425.237.01-.4-1.028-1.729-1.35-1.729-.058 0-.105.262-.105.582m-41.066 16.885c-.475.474-.287.795.738 1.263 1 .455 1.002.452.354-.536-.723-1.105-.718-1.101-1.092-.727m40.4 6.4c-.419.418-.312 1.008.133.733.69-.427.435.286-.3.836-.637.477-.619.504.2.297.495-.124.9-.396.9-.603 0-.208.18-.266.4-.13s.4-.044.4-.4c0-.387.185-.533.462-.362.297.184.353.109.155-.211-.221-.358-.429-.375-.742-.062-.546.546-1.207.572-.875.035.275-.445-.315-.552-.733-.133"/><path id="path3" fill="#0de7fc" d="m329.381 46.9-1.581 1.7 1.7-1.581c1.581-1.471 1.884-1.819 1.581-1.819-.065 0-.83.765-1.7 1.7m-16.4 16.4L311.4 65l1.7-1.581c1.581-1.471 1.884-1.819 1.581-1.819-.065 0-.83.765-1.7 1.7m40.404 6.8-1.985 2.1 2.1-1.985c1.951-1.844 2.283-2.215 1.985-2.215-.063 0-1.008.945-2.1 2.1m-16.798 16.8-2.387 2.5 2.5-2.387c1.375-1.314 2.5-2.439 2.5-2.5 0-.296-.395.065-2.613 2.387M64.546 108.945c-.63.543-1.039 1.094-.909 1.225.131.131.736-.224 1.345-.788 1.443-1.337 1.058-1.722-.436-.437m-5.266 5.135c-.61.61-.616 1.12-.013 1.12.256 0 .349-.117.206-.26-.143-.144.052-.498.433-.788.382-.289.505-.532.274-.539s-.636.203-.9.467m-2.58 3.277c-.931.707-.883.883.242.883.709 0 .895-.177.753-.72-.104-.396-.212-.714-.242-.707-.029.007-.368.252-.753.544m-1.304 1.346c.14.276-.02.608-.355.737-.336.129-.714.559-.84.957s-.68.836-1.23.975c-.551.138-.973.471-.939.739.151 1.182-.092 1.681-.432.889-.316-.734-.347-.718-.378.2-.024.713-.132.845-.376.461-.25-.395-.456-.208-.773.7-.237.682-.593 1.239-.791 1.239-.579 0-2.092 1.457-1.808 1.741.143.142-.035.259-.395.259-.419 0-.571.217-.422.605.167.433.049.534-.417.355-.477-.183-.584-.08-.404.39.17.443-.076.761-.806 1.038-.578.22-1.167.704-1.31 1.075-.142.372-.543.992-.889 1.378a15 15 0 0 0-1.894 2.581c-.254.428-.633.742-.842.697-.209-.044-.631.406-.938 1s-1.187 1.715-1.957 2.49-1.438 1.61-1.485 1.855c-.046.244-.811 1.157-1.7 2.028s-1.615 1.752-1.615 1.957-.35.627-.779.936c-.428.308-.699.689-.602.846s-.093.388-.421.515c-.329.126-.598.465-.598.753s-.35.777-.779 1.086c-.428.308-.699.689-.602.846s-.093.388-.421.515c-.329.126-.598.438-.598.695 0 .256-.333.756-.741 1.112-.407.356-1.064 1.277-1.459 2.047s-1.052 1.691-1.459 2.047-.741.849-.741 1.095c0 .469-.779 1.516-2.3 3.09-.495.512-.9 1.12-.9 1.35a.41.41 0 0 1-.4.418.41.41 0 0 0-.4.417c0 .229-.36.803-.8 1.275s-.8 1.095-.8 1.383-.158.525-.351.525c-.194 0-.576.54-.849 1.2s-.625 1.2-.781 1.2-.539.495-.851 1.1c-.313.605-.883 1.449-1.268 1.875-.385.427-.7 1.012-.7 1.3s-.158.525-.351.525c-.194 0-.576.54-.849 1.2s-.655 1.2-.849 1.2-.351.248-.351.551-.228.741-.507.972c-.279.232-.954 1.331-1.5 2.443s-1.128 2.024-1.293 2.028-.3.326-.3.718-.36.971-.8 1.288-.8.809-.8 1.094c0 .628-.753 1.985-1.7 3.061-.385.438-.7 1.032-.7 1.32s-.21.525-.467.525c-.256 0-.351.115-.21.256.278.278-.872 2.565-1.523 3.029-.626.447-.53 14.005.1 14.215.275.092.5.512.5.933s.18.767.4.767.4.278.4.617.36 1.003.8 1.475.8 1.095.8 1.383.18.525.4.525.4.36.4.8.18.8.4.8.4.32.4.712.36.971.8 1.288.8.897.8 1.288c0 .392.135.715.3.718.165.004.747.916 1.293 2.028s1.221 2.211 1.5 2.443c.279.231.507.669.507.972s.158.551.351.551c.194 0 .576.54.849 1.2s.655 1.2.849 1.2.351.236.351.525c0 .288.315.873.7 1.3.385.426.955 1.27 1.268 1.875.312.605.717 1.1.9 1.1.182 0 .332.236.332.525 0 .288.36.911.8 1.383s.8 1.003.8 1.18c0 .176.616 1.034 1.369 1.905s1.312 1.679 1.242 1.795c-.199.331.874 1.193 1.146.921.134-.133.243.158.243.648 0 .492.179.78.4.643.22-.136.4.033.4.376s.18.624.4.624.4.225.4.5c.001.433.512 1.157 2.392 3.383.224.266.408.676.408.913 0 .236.269.532.598.658.328.127.498.391.376.588s-.031.358.202.358.424.243.424.541c0 .297.495 1.065 1.1 1.707.605.641 1.352 1.652 1.66 2.245s.713.985.9.87c.187-.116.34.07.34.413s.18.624.4.624.4.215.4.477.72 1.148 1.6 1.968 1.604 1.732 1.609 2.024.725 1.15 1.6 1.907 1.591 1.567 1.591 1.8c.001.785 1.905 2.7 2.129 2.141.13-.323.22-.247.239.2.018.394.219.934.447 1.2s.964 1.249 1.635 2.185c.672.935 1.39 1.597 1.596 1.47.205-.127.324.007.264.298-.061.292.109.487.376.435.299-.059.388.158.232.565q-.257.664.214.372c.257-.159.468-.097.468.138s.54.992 1.2 1.683 1.2 1.409 1.2 1.596.191.341.424.341.295-.208.138-.462c-.183-.295-.109-.353.203-.159.269.166.393.554.275.861-.143.372.084.571.673.592.488.017.667.12.399.229-.385.156-.385.311 0 .728.33.359.644.403.972.135.353-.289.444-.187.335.375-.099.519.233.995 1.017 1.458.64.379 1.167.993 1.17 1.366.005.583.06.594.394.077.331-.513.389-.498.394.1.004.497.325.698 1.106.694.687-.004.914-.124.606-.32-.383-.243-.498-5.651-.512-23.994-.012-16.133-.151-23.68-.435-23.68-.229 0-.137-.279.203-.619.56-.56.533-.754-.271-1.996-.76-1.172-1.987-2.112-1.294-.99.135.218-.005.3-.31.183-.304-.117-.554-.467-.554-.778 0-.31.186-.45.412-.31.227.14.005-.318-.494-1.018-.498-.699-1.174-1.272-1.502-1.272s-.485-.18-.349-.399c.135-.22-.056-.805-.426-1.3-.453-.608-.595-.673-.436-.201.13.385.166.7.079.7-.266 0-1.417-2.487-1.417-3.061 0-.297-.281-.539-.624-.539s-.524-.161-.402-.358-.049-.462-.38-.589-.559-.371-.508-.542c.052-.171-.396-.832-.996-1.469-.599-.638-1.09-1.503-1.09-1.924s-.18-.654-.4-.518-.4-.033-.4-.376-.18-.624-.4-.624-.403-.405-.406-.9c-.005-.728-.08-.785-.394-.3-.331.513-.389.498-.394-.1-.003-.385-.186-.7-.406-.7s-.4-.386-.4-.857-.505-1.339-1.123-1.93c-.618-.59-1.053-1.285-.967-1.543.086-.259-.038-.47-.277-.47-.238 0-.433-.278-.433-.617s-.36-1.003-.8-1.475-.8-1.095-.8-1.383-.264-.525-.587-.525c-.384 0-.499-.231-.332-.666q.258-.669-.213-.376c-.299.185-.468-.007-.468-.534 0-.453-.15-.824-.332-.824-1.614 0-1.3-3.429.432-4.723.385-.287.7-.782.7-1.1 0-.317.18-.577.4-.577s.4-.236.4-.525c0-.288.36-.911.8-1.383s.8-1.136.8-1.475.168-.617.374-.617.602-.63.88-1.4c.279-.77.741-1.4 1.026-1.4s.52-.438.52-.973c0-.622.289-1.065.8-1.227.518-.164.8-.605.8-1.251 0-.548.161-.897.358-.775.352.218 1.03-.886.906-1.474-.035-.165.125-.3.357-.3.231 0 .609-.54.839-1.2s.593-1.091.806-.959.487-.139.608-.601c.12-.462.378-.84.573-.84s.367-.405.385-.9c.019-.563.116-.686.257-.329.144.366.391.078.687-.8.262-.775.693-1.32.993-1.255.324.072.441-.114.3-.479-.162-.424-.042-.525.417-.349.398.153.545.086.384-.175-.144-.232.015-.652.353-.932.827-.687 2.461-3.004 1.853-2.628-.374.231-.377.068-.015-.728.524-1.149 1.241-1.413.884-.325-.126.385.128.188.566-.438.437-.625.705-1.48.595-1.9-.111-.424.005-.762.261-.762.337 0 .346-.215.033-.8-.353-.659-.302-.806.286-.832.419-.018.507-.114.214-.233-.392-.158-.5-5.114-.5-22.892 0-20.049-.073-22.78-.63-23.467-.346-.427-.515-.55-.374-.273M69.127 152.2c-.25.55-.587 1-.748 1-.162 0-.397.27-.524.6-.475 1.238.432.539 1.297-1 .495-.88.794-1.6.665-1.6s-.439.45-.69 1m-2.927 3.4c-.398.44-.634.8-.523.8.11 0 .616-.36 1.123-.8s.743-.8.523-.8c-.219 0-.725.36-1.123.8m-13.6 17.6c-.401.443-.805.729-.898.636-.207-.208 1.232-1.755 1.462-1.572.091.072-.163.493-.564.936m5.228 61.155c-.121.195.011.546.293.779.385.32.526.231.571-.354.06-.799-.471-1.061-.864-.425m1.16 1.567c-.213.153-.438.638-.499 1.078-.101.732-.065.743.422.131.497-.626.564-.626 1.019 0 .389.535.393.468.024-.331a21 21 0 0 0-.52-1.078c-.031-.043-.232.047-.446.2m25.614 28.48c.4.442.809.72.91.619.216-.216-.924-1.421-1.345-1.421-.16 0 .036.361.435.802m2.049 1.915c-.109.178.149.54.575.806.909.568 1.019.265.2-.555-.316-.316-.665-.429-.775-.251M56 282.078c0 .224.248.312.551.196s.753-.046 1 .157c.315.259.331.227.053-.107-.508-.61-1.604-.778-1.604-.246m1.2 1.267c0 .08.54.824 1.2 1.655 1.343 1.69 1.465 1.609.62-.413-.449-1.075-1.82-2.011-1.82-1.242m6 6.264c0 .229.278.523.617.653.938.36 1.049-.029.165-.581-.495-.309-.782-.335-.782-.072m2.982 3.173c1.074 1.09 2.118 1.88 2.321 1.755.202-.126-.053-.447-.568-.715s-.89-.698-.835-.955-.127-.467-.404-.467-.728-.36-1.003-.8-.716-.8-.981-.8.397.892 1.47 1.982m8.65 8.387c-.018.312-.34.942-.717 1.4-.646.784-.632.782.247-.027.513-.472.835-1.102.717-1.4-.175-.439-.222-.434-.247.027M68 308.4c-.707.66-1.131 1.197-.942 1.194.467-.008 1.001-.428 1.904-1.494 1.083-1.28.551-1.114-.962.3m-5.383 5.212c-1.5 1.546-2.587 2.941-2.417 3.1.17.158.396.045.501-.251s1.344-1.691 2.753-3.1c1.408-1.408 2.41-2.561 2.225-2.561s-1.563 1.265-3.062 2.812m-3.713 3.782c-.272.31-.388.843-.257 1.185.132.343.03.621-.228.621-.256 0-.355-.18-.219-.4s.076-.4-.134-.4c-.503 0-.862.975-.529 1.436.356.493 1.384.683 1.086.202-.13-.211-.053-.496.17-.634.224-.138.407-.611.407-1.051s.178-.69.395-.556c.227.14.294-.02.158-.376-.282-.735-.228-.733-.849-.027m-4.348 5.706c-.386.385-.894.703-1.13.708-1.013.018-2.348 1.307-1.563 1.509.477.123.314.216-.463.265-1.045.065-1.097.119-.4.418.709.305.675.347-.3.372-.605.015-1.1.219-1.1.452s.208.295.462.138c.279-.173.353-.11.187.159-.151.244-.505.356-.786.248-.62-.238-8.766 8.14-8.436 8.675.128.207-.006.326-.297.266-.292-.061-.485.115-.43.39s-.099.5-.342.5-.788.439-1.211.976c-.422.537-1.123 1.089-1.557 1.227-.435.138-.79.475-.79.749 0 .273-.36.884-.8 1.356s-.8 1.046-.8 1.275a.41.41 0 0 1-.4.417c-.22 0-.4.36-.4.8s-.18.8-.4.8-.4.619-.4 1.376-.158 1.474-.351 1.594c-.473.292-.495 6.63-.022 6.63.205 0 .373.63.373 1.4s.135 1.401.3 1.403c.359.004 1.3 1.941 1.3 2.677 0 .286.3.52.667.52.366 0 .552.114.412.254-.139.14.396.77 1.189 1.4s1.314 1.146 1.158 1.146-.013.27.317.6.883.6 1.228.6c.346 0 .629.158.629.351 0 .194.54.576 1.2.849s1.2.655 1.2.849.684.351 1.52.351 1.762.225 2.059.5c.435.404.477.393.218-.062-.234-.409-.173-.47.224-.225.852.527 2.431.587 3.292.127.563-.302.707-.296.512.02-.15.242-.082.44.151.44a.435.435 0 0 0 .424-.443c0-.243.264-.341.587-.217s.696.05.828-.164.436-.268.674-.121c.25.154.32.084.166-.166-.147-.238-.085-.547.138-.685.224-.138.41.074.413.472.005.614.065.633.394.124.286-.443.389-.462.394-.071.004.397.161.373.632-.097.344-.344.494-.838.334-1.097-.186-.301-.088-.393.274-.254.484.186.551-2.871.459-21.175-.1-19.949-.152-21.356-.777-20.849-.464.376-.577.389-.369.043.431-.718.026-.616-.791.2M48 329.4c-.517.55-1.116 1-1.332 1s.131-.45.77-1c1.491-1.282 1.767-1.282.562 0m43.429 2.029c-.424.309-.657.676-.519.814.139.139.552-.048.919-.414.862-.863.596-1.129-.4-.4m-4.767 5.197c-1.244 1.224-2.262 2.343-2.262 2.487s1.08-.807 2.4-2.113 2.4-2.426 2.4-2.487c0-.315-.465.072-2.538 2.113m-4.65 4.158c-.324.205-.468.494-.319.642.148.148.56-.022.917-.378.703-.704.347-.861-.598-.264m-11.274 11.79c-.934.976-1.8 1.711-1.925 1.634-.124-.077-.452.338-.727.922-.339.719.341.227 2.106-1.522 1.435-1.422 2.608-2.635 2.608-2.696 0-.361-.553.085-2.062 1.662"/><path id="path4" fill="#23d2fc" d="M131.298 61.466c-.277.111-.384.395-.238.631.171.277-.041.349-.597.203-.475-.124-.863-.062-.863.137 0 .2-.382.363-.849.363-.745 0-.782.081-.3.665.495.601.465.621-.308.209-.702-.373-1.04-.313-1.863.335-.554.435-1.293.791-1.643.791s-.637.18-.637.4-.211.4-.469.4c-.257 0-.828.315-1.268.7-.515.45-.679.494-.46.121.193-.327-.194-.197-.893.3-.678.484-1.431.879-1.672.879s-.438.18-.438.4-.36.4-.8.4-.8.18-.8.4-.27.4-.6.4-.6.18-.6.4-.236.4-.525.4c-.288 0-.918.367-1.4.816-.481.448-.875.697-.875.552s-.585.167-1.3.693-1.795 1.207-2.4 1.515-1.1.709-1.1.892c0 .182-.278.332-.617.332s-1.003.36-1.475.8-1.106.8-1.407.8c-.302 0-.437.18-.301.4s-.034.4-.378.4c-.343 0-1.479.556-2.523 1.236s-1.59 1.138-1.212 1.018c.85-.271 1.182.192.693.965-.202.32-.371.386-.374.148s-.321-.409-.706-.379c-1.028.079-2.341.905-1.993 1.253.166.165.555-.046.865-.47.986-1.349 1.066.382.945 20.307-.065 10.492.005 18.746.155 18.34s.51-.879.8-1.054c.435-.261.436-.204.009.324-.715.881-.081 1.158 1.124.491.895-.495.914-.555.195-.596-.637-.037-.575-.128.302-.449.607-.221 1.003-.565.88-.764-.123-.198.021-.267.319-.153.307.118 1.665-.842 3.118-2.204 1.417-1.327 2.774-2.413 3.016-2.413s.767-.36 1.165-.8.884-.8 1.08-.8.81-.453 1.364-1.008 1.204-.886 1.444-.738c.261.161.321.084.15-.192-.171-.277-.025-.462.362-.462.356 0 .536-.18.4-.4s.033-.4.376-.4.624-.21.624-.467c0-.256.115-.352.255-.211.256.256 2.077-.888 3.52-2.211.427-.391.958-.711 1.181-.711s.999-.575 1.725-1.278c.742-.72 1.319-1.043 1.319-.739 0 .338.279.218.747-.322.411-.473 1.021-.861 1.357-.861s.718-.281.85-.625.409-.522.614-.395c.206.128.489-.131.63-.574.166-.522.605-.806 1.246-.806 1.273 0 2.074-.757 1.891-1.788-.079-.447-.037-.587.094-.312s.538.486.904.468q.663-.031.15-.238c-.401-.161-.41-.336-.043-.778.374-.451.357-.526-.083-.356-.472.181-.527-2.333-.357-16.526.235-19.645.328-18.542-1.502-17.804m3.582 75.414c-.264.264-.48.649-.48.856s-.315.615-.7.907-.574.537-.421.544c.422.019 2.107-1.716 2.221-2.287.125-.625-.011-.629-.62-.02m-.844 2.689c-.31.196-.85.27-1.2.164-.433-.132-.399-.042.106.28.596.381.869.347 1.386-.169.708-.709.582-.828-.292-.275m-2.009 1.463c.368.444.351.569-.078.574-.381.004-.41.096-.093.3.33.213.302.436-.1.81-.306.283-.556.411-.556.284s-.394.136-.875.584c-.482.449-1.033.816-1.224.816s-.25.16-.129.355-.094.33-.476.3c-.475-.038-.687.225-.666.825.016.484-.09.806-.237.716-.321-.199-1.993 1.991-1.993 2.611 0 .242-.18.329-.4.193s-.4.033-.4.376-.158.624-.351.624c-.194 0-.592.585-.886 1.3-.293.715-.841 1.634-1.217 2.042s-.9 1.263-1.163 1.9c-.264.637-.649 1.158-.855 1.158s-.273.165-.148.368c.125.202-.044.639-.376.971s-.604.799-.604 1.038c0 .555-.878 2.134-1.4 2.517-.22.162-.268.297-.106.3.161.003-.105.769-.591 1.703-.487.933-.928 1.878-.981 2.1-.346 1.438-1.166 3.403-1.42 3.403-.166 0-.302.352-.302.781 0 .43-.163 1.195-.363 1.7-.832 2.105-2.037 6.618-2.037 7.63 0 .599-.145 1.089-.322 1.089s-.301.919-.276 2.042c.03 1.326-.133 2.11-.466 2.238-.302.116-.489.795-.457 1.658.03.804-.131 2.722-.358 4.262-.514 3.481-.336 19.113.238 20.966.233.751.313 1.806.178 2.343s-.053 1.095.181 1.24c.235.145.507 1.161.606 2.257s.289 2.264.423 2.594c.246.606.293.82.85 3.909.169.94.464 1.805.656 1.923.191.119.347.73.347 1.358s.178 1.203.397 1.277c.218.073.436.615.484 1.204.049.589.231.984.404.877.173-.108.315.319.315.948s.192 1.336.428 1.572c.235.235.486.676.559.98.356 1.499.74 2.352 1.06 2.352.194 0 .353.265.353.588s.343 1.198.762 1.945c.992 1.765 1.362 2.473 2.497 4.767.517 1.045 1.075 1.9 1.24 1.9s.301.36.301.8.168.8.373.8.483.346.617.768.865 1.446 1.624 2.275c.758.828 1.475 1.807 1.592 2.174s.613.862 1.103 1.099c.49.236.645.442.345.457-.425.021-.39.265.158 1.101 1.243 1.897 3.086 3.713 3.505 3.454.233-.144.284-.053.119.213-.158.256-.051.697.238.981.578.567 2.395.713 2.056.165-.116-.188-.457-.247-.758-.132-.546.21-1.121-.272-.758-.635.602-.602.171-118.475-.434-118.564-.496-.073-.528.025-.153.476m-1.798 1.197c-.692.691-.864 1.563-.231 1.172.448-.276 1.332-1.801 1.045-1.801-.102 0-.469.283-.814.629M99.733 279.347c0 .359.105.653.234.653.128 0 .182 9.284.12 20.631-.087 15.843-.003 20.564.362 20.339.263-.163.37-.124.239.087-.129.21-.07.643.132.962.289.456.369.393.374-.295.003-.482.184-.987.401-1.121.236-.146.289.035.131.446-.202.525-.108.63.393.437.649-.249 1.544.383 2.199 1.553.184.33.721.629 1.192.664.47.036.782.138.692.228-.236.237.626.98 1.898 1.637.605.312 1.1.717 1.1.9 0 .182.294.332.653.332s.944.315 1.3.7.896.753 1.201.818 1.307.636 2.227 1.269c1.657 1.14 6.403 3.673 6.809 3.633.115-.011.577.347 1.025.795s.988.707 1.2.576.385-.048.385.185.338.424.751.424.973.268 1.245.596c.272.327.654.497.849.376s.355-.044.355.169.441.34.981.281.968.001.953.135q-.127 1.1.638.466c.457-.379.657-.316.992.31.5.933 5.157 3.319 5.475 2.804.121-.196.072-.324-.109-.284-.477.104-2.989-1.075-2.957-1.388.015-.146.013-.31-.004-.365-.277-.905-.345-4.28-.372-18.25-.017-9.102.096-16.662.25-16.8.154-.137.167.065.029.45-.184.515-.042.7.537.7.495 0 .775-.26.755-.7q-.03-.71-.245-.164c-.15.376-.349.267-.668-.365-.25-.495-.779-.946-1.176-1.003s-1.161-.392-1.7-.745c-.73-.478-.987-.512-1.011-.132-.017.28-.212.014-.433-.591-.247-.678-.696-1.1-1.168-1.1-.422 0-.767-.191-.767-.424s-.181-.311-.403-.174c-.221.137-.511-.033-.643-.377s-.471-.625-.754-.625-1.046-.495-1.694-1.1c-.649-.605-1.703-1.37-2.343-1.7s-1.401-.825-1.692-1.1-.796-.5-1.123-.5-.5-.154-.383-.343c.116-.189-.593-.757-1.577-1.263s-1.788-1.071-1.788-1.257-.23-.337-.512-.337c-.281 0-.771-.36-1.088-.8s-.8-.8-1.072-.8-1.189-.675-2.037-1.5c-2.23-2.17-3.143-2.877-2.712-2.1.183.33-.39-.157-1.275-1.082s-1.699-1.59-1.81-1.479c-.112.112-.559-.25-.994-.803-.78-.991-.797-.994-1.161-.178-.353.791-.396.796-.954.11-.525-.644-.513-.691.115-.455.877.328.948-.609.1-1.313-.33-.274-.6-.352-.6-.173s-.24-.002-.533-.403c-.462-.632-.534-.643-.534-.077m35.718 25.536c.274.444 1.349.397 1.349-.058 0-.206-.348-.349-.772-.317s-.684.201-.577.375m-35.635 17.09c-.145.235-.118.43.06.433s.054.181-.276.394c-.42.271-.446.39-.087.394.281.003.619-.272.749-.611.283-.737-.069-1.218-.446-.61"/><path id="path5" fill="#4caefc" d="M347.771 32.789c-.213.213-.744.456-1.18.539-1.845.353-4.203 1.462-5.038 2.369-.356.387-.774.703-.928.703-.155 0-.552.27-.882.6s-.491.6-.357.6c.133 0-.169.426-.672.947s-1.049.871-1.214.777-.3.12-.3.476-.18.536-.4.4-.4.063-.4.443-.108.582-.241.45c-.132-.133-.914.467-1.738 1.333S332.705 44 332.438 44s-.374.18-.238.4-.063.4-.443.4-.578.112-.442.249c.137.136-.455.925-1.315 1.751s-1.437 1.643-1.282 1.815-.033.199-.418.061c-.401-.143-.7-.058-.7.199 0 .247-.698 1.134-1.551 1.97s-1.453 1.618-1.333 1.738c.119.119-.093.217-.473.217s-.579.18-.443.4-.044.4-.4.4-.536.18-.4.4-.063.4-.443.4-.581.109-.448.243c.317.317-.618 1.328-1.009 1.091-.165-.099-.3.11-.3.466s-.18.536-.4.4-.4.044-.4.4-.18.536-.4.4-.4.044-.4.4-.18.536-.4.4-.401-.012-.401.276c-.001.288-.54.884-1.199 1.324s-1.198.935-1.199 1.1c0 .165-.265.3-.588.3-.384 0-.499.231-.332.666.14.366.089.571-.113.456-.479-.272-2.997 2.306-2.64 2.703.149.166-.043.189-.428.051-.463-.166-.7-.052-.7.337 0 .323-.135.588-.3.588-.165.001-.66.54-1.1 1.199s-1.036 1.198-1.324 1.199c-.288 0-.412.181-.276.401s-.044.4-.4.4-.536.18-.4.4-.044.4-.4.4-.536.18-.4.4-.044.4-.4.4-.565.135-.466.3c.237.391-.774 1.326-1.091 1.009-.134-.133-.243.068-.243.448s-.18.579-.4.443-.4.044-.4.4-.18.536-.4.4-.4.063-.4.443-.098.592-.217.473c-.12-.12-.902.48-1.738 1.333s-1.723 1.551-1.97 1.551-.351.315-.23.7c.194.615.156.627-.312.097-.599-.678-2.501-.593-2.077.093.159.259.081.318-.194.148-.254-.157-.483-.77-.508-1.362-.03-.677-.115-.816-.23-.376-.284 1.089-.837.823-.622-.3.174-.91.07-.998-1.155-.973-1.162.023-1.237.081-.547.416.996.485 1.292 37.957.3 37.957-.275 0-.497.315-.494.7.005.598.063.613.394.1.335-.519.389-.51.394.067.003.366-.219.757-.494.868-.299.121-.218.215.2.233.385.018.7.223.7.456s.199.3.443.15c.308-.191.278-.378-.1-.618-.299-.189-.348-.347-.11-.35a1.17 1.17 0 0 1 .734.294c.165.165.465.322.666.35.202.028.463.072.581.1s.031.392-.193.81c-.311.582-.26.816.219 1 .988.379 1.629.272.96-.16-.33-.213-.42-.388-.2-.388.913 0 1.492.667.808.93-.972.373-.272 1.163.842.95.78-.149.872-.08.496.372-.253.306-.335.681-.181.834.153.153.464.014.691-.31.33-.469.377-.418.233.249-.117.539.099 1.013.607 1.33.642.401.729.394.469-.037-.25-.416-.173-.412.358.019.372.302.677.797.677 1.1s.28.551.622.551 1.727 1.125 3.076 2.5 2.478 2.41 2.507 2.3.346.094.705.452c.358.359.54.764.404.9-.136.137-.027.248.243.248s.379.18.243.4.033.4.376.4.624.18.624.4.27.4.6.4.555.142.5.315c-.141.444 1.963 2.489 2.258 2.194.133-.133.242-.013.242.268 0 .675 4.011 4.823 4.665 4.823.289 0 .41.26.28.6-.127.33-.018.6.242.6.611 0 6.018 5.461 5.712 5.768-.128.128.113.235.534.238.644.005.67.07.167.4-.499.328-.445.437.323.647.559.153.84.466.714.795-.129.336.159.636.75.785.665.167.886.433.718.869q-.237.625.227.34c.257-.159.468-.085.468.166 0 .25.72 1.126 1.6 1.947.88.82 1.6 1.7 1.6 1.954 0 .255.36.656.8.891s.8.702.8 1.038c0 .335.16.511.355.39.195-.12.448.139.562.576.114.438.506.796.869.796.364 0 .574.141.467.314-.106.172.33.914.971 1.647.64.734 1.048 1.538.906 1.787s-.118.326.053.171c.332-.299 1.417.592 1.417 1.164 0 .187.36.6.8.917s.8.799.8 1.07c0 .272.405.923.9 1.449 2.209 2.343 3.5 3.94 3.5 4.327 0 .231.628 1.186 1.396 2.124.769.937 1.264 1.851 1.1 2.031s-.098.215.144.077.677.193.967.736c.291.542.678.986.861.986s.332.27.332.6.18.6.4.6.4.255.4.567.135.626.3.7c.467.207 2.9 3.442 2.9 3.855 0 .203.475.843 1.055 1.423s.924 1.055.764 1.055.177.555.748 1.234.919 1.426.774 1.662c-.157.253-.076.311.197.142.274-.169.462-.031.462.338 0 .343.345.969.767 1.391.421.421.661.871.533 1-.128.128-.023.233.233.233.257 0 .467.257.467.571s.408.899.907 1.3.898.999.887 1.329c-.012.33.3.891.692 1.247.393.356.714.941.714 1.3s.18.653.4.653.4.255.4.567.212.637.472.724c.308.102.355.427.136.933-.184.427-.305.916-.268 1.087s-.203.415-.534.542-.501.393-.378.592c.122.198-.059.469-.403.601s-.625.58-.625.997c0 .416-.174.757-.387.757-.214 0-.297.236-.186.525.11.289-.23.756-.758 1.038-.589.315-.941.845-.914 1.375.027.52-.165.818-.485.752-.291-.06-.43.051-.309.247s-.136.678-.57 1.072c-.435.393-.791.968-.791 1.277s-.18.45-.4.314-.4.051-.4.415c0 .597-1.37 2.888-2.025 3.385-.145.11-.568.794-.94 1.521s-.937 1.42-1.256 1.542-.579.481-.579.797c0 .541-.273.962-1.529 2.354-.29.322-.406.586-.257.586s-.259.495-.906 1.1-1.105 1.312-1.018 1.571-.394.877-1.066 1.375c-.673.497-1.224 1.067-1.224 1.266 0 .646-1.485 2.269-1.806 1.974-.172-.157-.216.106-.098.584.155.63.061.811-.341.657-.325-.124-.555.042-.555.402 0 .337-.231.852-.513 1.142-.282.291-.949 1.159-1.481 1.929s-1.292 1.691-1.687 2.047-.719.861-.719 1.124c0 .262-.208.348-.462.191-.289-.179-.353-.11-.17.186.172.279-.293 1.057-1.138 1.902-.787.787-1.43 1.586-1.43 1.776s-.36.539-.8.774-.8.612-.8.837c0 .224-.9 1.271-2 2.326s-2 2.12-2 2.368c0 .249-.99 1.442-2.2 2.652s-2.2 2.34-2.2 2.512-.36.537-.8.812-.8.671-.8.88c0 .534-6.457 7.035-6.865 6.913-.184-.055-.335.17-.335.5s-.168.6-.373.6-.487.36-.627.8-.542.8-.894.8c-.351 0-.521.118-.376.263.395.396-.556 1.368-1.043 1.067-.264-.163-.327-.01-.168.404.141.366.074.666-.148.666-.676 0-3.571 2.609-3.571 3.218 0 .21-.238.382-.528.382s-.919.45-1.397 1-.736 1.001-.572 1.003c.163.001-.216.34-.842.753-.787.519-.972.818-.6.966.311.124.169.228-.334.246a1.26 1.26 0 0 0-1.136.861c-.164.515-.485.744-.848.605-.321-.124-.494-.079-.384.099.267.432-1.299 1.751-1.749 1.473-.194-.12-.467.145-.608.588s-.434.806-.653.806c-.218 0-.268.208-.111.462.168.272.111.354-.14.199-.619-.383-1.698.129-1.698.805 0 .32-.154.486-.342.37-.187-.116-.548.244-.801.799-.253.556-.641.899-.862.762-.22-.136-.508.033-.64.375-.131.343-.388.532-.569.419-.604-.373-.787.51-.205.993.593.492.421 1.616-.247 1.616-.21 0-.27-.18-.134-.4s.052-.4-.186-.4c-1.071 0-1.228 2.679-1.206 20.546.019 14.807-.079 18.454-.492 18.454-.284 0-.574.405-.644.9s-.385.9-.7.9-.572.18-.572.4c0 .782.946.381 2.123-.9.658-.715 1.068-1.075.913-.8-.156.275-.089.5.149.5s.62-.413.85-.917.797-.945 1.261-.98c.859-.065 2.769-2.074 2.455-2.583-.095-.154.213-.487.686-.74.515-.276.758-.295.605-.048-.14.227-.086.517.122.645.438.271 2.436-.559 2.436-1.013 0-.628 1.324-1.602 1.885-1.387.353.136.515.027.413-.277-.195-.574 2.048-2.38 2.562-2.063.187.116.34-.1.34-.48s.111-.579.248-.443c.136.136.51-.015.832-.337.321-.321.778-.465 1.014-.319.239.148.315.08.171-.152-.142-.23.165-.696.682-1.035a12.6 12.6 0 0 0 1.668-1.343c.4-.401.844-.728.985-.728s.544-.27.894-.6c.921-.867 2.959-2.433 4.814-3.7.887-.605 1.512-1.1 1.388-1.1-.53 0 3.608-3.916 4.406-4.169.485-.154.84-.404.79-.555-.051-.152.049-.315.222-.362.561-.153 1.486-1.244 1.486-1.752 0-.272.11-.385.244-.251.135.134 1.295-.826 2.578-2.133s2.479-2.379 2.656-2.379.682-.54 1.122-1.199 1.134-1.198 1.543-1.199c.484-.001.665-.203.52-.581q-.223-.58.357-.357c.319.123.58.022.58-.222 0-.245.765-1.236 1.7-2.203s1.901-2 2.146-2.297c.246-.298.831-.806 1.3-1.129.47-.324.854-.741.854-.926 0-.186.891-1.206 1.979-2.266s1.869-2.039 1.734-2.174-.03-.246.234-.246c.484 0 3.253-2.566 3.253-3.015 0-.133.225-.483.5-.778s1.11-1.272 1.856-2.171c.746-.9 1.601-1.636 1.9-1.636.493 0 .718-.497.591-1.3-.026-.165.133-.3.353-.3s.4-.281.4-.624.18-.512.4-.376.403.102.408-.076.634-1.042 1.4-1.92 1.392-1.744 1.392-1.926.9-1.207 2-2.278 2-2.14 2-2.374.18-.426.4-.426.4-.198.4-.44c0-.241.54-.943 1.2-1.56s1.2-1.309 1.2-1.538.331-.652.737-.939c.405-.288.968-.959 1.251-1.492s.896-1.364 1.363-1.845a15 15 0 0 0 1.449-1.78c.33-.497.816-1.131 1.081-1.407s.369-.615.233-.751c-.136-.137.063-.248.443-.248s.579-.18.443-.4-.046-.4.2-.4.347-.162.225-.359c-.122-.198.319-.938.979-1.645.661-.708 1.49-1.894 1.843-2.638s.801-1.252.997-1.131.356-.161.356-.627.16-.748.356-.627.66-.419 1.03-1.201c.371-.781.914-1.512 1.208-1.625s.751-.732 1.018-1.376.643-1.171.837-1.171.351-.236.351-.525c0-.288.349-.899.776-1.357s.671-.938.543-1.066c-.129-.128.062-.347.424-.485.361-.139.657-.421.657-.627 0-.205.36-.76.8-1.232s.8-1.095.8-1.383.18-.525.4-.525.4-.189.4-.421.99-1.924 2.2-3.762 2.2-3.538 2.2-3.779.18-.438.4-.438.4-.32.4-.712.36-.971.8-1.288.8-.897.8-1.288c0-.392.18-.712.4-.712s.4-.36.4-.8.18-.8.4-.8.4-.36.4-.8.158-.8.351-.8c.194 0 .576-.54.849-1.2s.655-1.2.849-1.2.351-.345.351-.767c0-.421.225-.841.5-.933 1.369-.456.4-15.9-.998-15.9-.166 0-.302-.281-.302-.624s-.18-.512-.4-.376-.4-.123-.4-.576-.18-.824-.4-.824-.4-.36-.4-.8-.18-.8-.4-.8-.4-.36-.4-.8-.18-.8-.4-.8-.4-.294-.4-.653-.315-.947-.7-1.306c-.799-.744-1.383-1.643-2.368-3.641-.658-1.334-2.905-4.886-3.707-5.857-.207-.252-.268-.567-.134-.7.133-.134.032-.243-.224-.243-.257 0-.467-.281-.467-.624s-.18-.512-.4-.376-.4-.057-.4-.429c0-.373-.316-.968-.703-1.324-.386-.356-.957-1.142-1.267-1.747-.311-.605-.715-1.1-.898-1.1-.182 0-.332-.278-.332-.617s-.183-.834-.406-1.1c-.97-1.155-4.394-5.94-4.394-6.141 0-.121-.54-.725-1.2-1.342s-1.2-1.327-1.2-1.579c0-.251-.453-.911-1.008-1.465s-.903-1.176-.776-1.382.011-.374-.259-.374-.381-.109-.248-.242c.133-.134-.152-.649-.633-1.145-.482-.497-1.146-1.306-1.476-1.798s-1.268-1.635-2.084-2.538-1.403-1.724-1.303-1.824-.177-.433-.616-.74c-.438-.307-.797-.727-.797-.932s-.5-.871-1.111-1.478c-.611-.606-1.55-1.764-2.087-2.573s-1.117-1.383-1.289-1.276-.313-.015-.313-.27-.54-.967-1.2-1.584-1.2-1.327-1.2-1.579c0-.251-.405-.873-.9-1.38-1.633-1.675-2.736-3.082-3.179-4.056-.241-.528-.557-.886-.702-.797-.145.09-.794-.486-1.441-1.28a38 38 0 0 0-2.337-2.576c-.638-.622-1.04-1.132-.895-1.132.146 0-1.537-1.789-3.74-3.975s-4.006-4.154-4.006-4.373-.36-.512-.8-.652a1.17 1.17 0 0 1-.8-1.094c0-.461-.102-.737-.228-.612-.125.126-.956-.562-1.846-1.528s-1.782-1.655-1.982-1.531c-.2.123-.338.076-.307-.105.156-.897-.094-1.394-.603-1.198-.345.132-.93-.318-1.5-1.155-.514-.754-1.073-1.373-1.244-1.374-.17-.002-1.67-1.355-3.332-3.006-1.663-1.652-3.216-2.885-3.452-2.739s-.324.094-.194-.115c.129-.21.07-.643-.132-.962-.279-.441-.369-.454-.374-.052-.004.388-.18.354-.66-.126-.755-.755-.084-2.603.945-2.603.306 0 .445-.18.309-.4-.219-.354.019-.458.851-.375.137.014.456-.387.707-.892.252-.504.871-1.123 1.375-1.375s.906-.57.892-.707c-.083-.832.021-1.07.375-.851.22.136.4-.033.4-.376s.135-.603.3-.577c.797.126 1.322-.087 1.1-.447-.136-.22.033-.4.376-.4s.624-.27.624-.6.27-.6.6-.6.6-.136.6-.302c0-.354 4.692-5.298 5.028-5.298.47 0 1.372-1.165 1.372-1.771 0-.346.281-.629.624-.629s.512-.18.376-.4.044-.4.4-.4.536-.18.4-.4.044-.4.4-.4.536-.18.4-.4.044-.4.4-.4.565-.135.466-.3c-.172-.284.991-1.613 1.224-1.4.322.293.921.041.71-.3-.136-.22.044-.4.4-.4s.536-.18.4-.4.033-.4.376-.4.579-.197.524-.437c-.055-.241.259-.646.697-.9.438-.255 1.393-1.093 2.123-1.863 3.28-3.462 4.662-4.8 4.96-4.8.176 0 .32-.27.32-.6s.193-.6.429-.6c.543 0 1.308-.761 1.928-1.919.266-.497.654-.798.863-.669.209.13.38-.056.38-.412s.18-.536.4-.4c.36.222.573-.303.447-1.1-.044-.282.578-.454 1.253-.347.165.026.255-.178.2-.453s.138-.451.43-.39c.291.06.415-.076.274-.303s.027-.521.371-.653.625-.424.625-.65.316-.701.703-1.057c1.034-.952 2.101-3.378 2.394-5.446.094-.66.306-1.38.473-1.6.473-.628.542-4.684.084-4.968-.226-.139-.456-1.014-.511-1.943s-.2-1.69-.324-1.69c-.305 0-1.422-2.519-1.298-2.93.054-.181-.086-.215-.311-.076-.226.139-.41.058-.41-.181 0-.565-3.448-4.013-4.013-4.013-.239 0-.324-.178-.19-.395.135-.218-.006-.3-.312-.182-.306.117-.788-.065-1.07-.405s-.941-.618-1.464-.618-.951-.18-.951-.4-.675-.403-1.5-.406c-1.116-.005-1.346-.106-.9-.394.415-.268-.393-.39-2.62-.394-1.771-.003-3.395.169-3.609.383M284 70.024c0 .233.181.311.403.174.221-.137.51.032.642.374.131.343.427.507.658.365.258-.16.137-.465-.319-.798-.886-.648-1.384-.689-1.384-.115m3.046 40.551c.132.344.501.625.82.625.32 0 .467.184.328.41s-.015.36.276.3c.292-.061.481.128.42.42-.06.291.078.414.307.272.541-.334.248-.773-1.206-1.809-.897-.638-1.127-.691-.945-.218m2.24 77.784c.02.683.188 1.241.375 1.241.186 0 .339.3.339.667 0 .366.112.554.249.417.138-.137.111-.572-.06-.967a8.7 8.7 0 0 1-.458-1.493c-.244-1.268-.482-1.196-.445.135m.493 4.407c.124.201.063.426-.137.5s-.111.366.197.65c.469.431.561.35.561-.5 0-.559-.191-1.016-.424-1.016s-.321.165-.197.366m.221 3.954c0 .396-.225.962-.5 1.259s-.312.434-.082.307c.264-.147.417.481.417 1.714 0 1.244-.15 1.856-.417 1.696-.235-.141-.218.003.039.327.251.317.545.937.654 1.377.108.44.217-1.045.243-3.3.025-2.255-.044-4.1-.154-4.1s-.2.324-.2.72M257.6 200c0 .747.107.853.48.48s.373-.587 0-.96-.48-.267-.48.48m32.084 6.215c-.334.379-.36.585-.076.585.241 0 .328.18.192.4s-.057.4.176.4.424-.45.424-1c0-1.154-.025-1.168-.716-.385m.316 3.518c0 .367-.199.667-.443.667-.243 0-.347.248-.231.551s.03.733-.192.955c-.272.272-.261.492.031.672.239.148.458-.011.485-.354.061-.767.134-1.03.534-1.941.173-.395.203-.83.065-.967-.137-.137-.249.051-.249.417m-22.511 50.272c-.763.891-.905 1.376-.291.996.392-.242 1.348-1.801 1.105-1.801-.069 0-.435.362-.814.805m32.351 20.576c-.245.976-1.04 1.449-1.04.619 0-.22.191-.4.424-.4s.312-.18.176-.4-.129-.592.016-.827c.436-.704.698-.081.424 1.008M288 288.514c-.657.535-.978 1.488-.5 1.483.165-.002.508-.452.762-1 .255-.548.435-.991.4-.984-.034.007-.332.232-.662.501m11.463 31.404c.076.119-.16.547-.524.95-.581.642-.587.732-.044.732.719 0 1.298-1.199.781-1.617-.193-.156-.289-.185-.213-.065m-1.967 1.203c-.03.396-.368.744-.752.773-.452.034-.621-.149-.479-.518.12-.314.38-.472.577-.35s.358.031.358-.202.079-.424.175-.424.151.324.121.721m-7.655 5.479c-.417.316-.893.491-1.058.389-.165-.101-.402.085-.529.413-.126.329-.127.598-.003.598.458 0 2.549-1.383 2.549-1.686 0-.411-.063-.392-.959.286M268.1 338.511c-.495.226-.9.586-.9.799 0 .241.19.234.5-.018.275-.223.86-.475 1.3-.558s.62-.261.4-.394c-.22-.132-.805-.056-1.3.171"/><path id="path6" fill="#34c4fc" d="M189.2 45.975c0 .206-.675.382-1.5.39-1.961.02-5.239.338-6.5.63-.55.128-2.078.309-3.395.403s-2.445.323-2.507.509c-.063.187-.857.301-1.767.254-.92-.047-1.43.054-1.15.228.331.204.362.399.089.568-.228.141-.509.103-.625-.084-.268-.434-2.645-.1-2.645.372 0 .195-.191.355-.424.355s-.313-.178-.179-.395c.145-.234-.032-.29-.432-.136-.632.242-.631.293.018.768.382.279.902.428 1.156.33.339-.13.435 1.497.363 6.128-.273 17.468-.274 25.212-.002 25.044.165-.103.3-.015.3.195 0 .229.554.257 1.38.071.759-.172 1.503-.198 1.654-.058s.06-.197-.202-.747l-.477-1 .793.909c.468.535.898.74 1.047.5.139-.225.782-.409 1.429-.409s1.176-.149 1.176-.332c0-.182.945-.379 2.1-.438 3.15-.159 3.857-.254 4.159-.555.151-.151 1.156-.275 2.234-.275s2.285-.174 2.684-.387c.398-.214 4.335-.434 8.748-.49 6.181-.078 7.933-.212 7.627-.581-.293-.353-.183-.423.421-.265.45.118.719.373.599.568-.121.195-.051.355.154.355.734 0 .874-2.693.874-16.85 0-9.938-.132-14.35-.429-14.35-.235 0-.145-.283.2-.629.754-.754.843-1.246.116-.643-.326.27-.729.29-1.1.055-.786-.497-3.477-.485-3.787.017-.324.524-2.48.517-2.805-.008-.277-.448-7.892-.226-8.666.252-.277.171-.342.101-.167-.182.157-.254.095-.462-.138-.462s-.424.169-.424.375m15.345.625c-.127.33-.552.6-.945.6s-.818-.27-.945-.6c-.172-.449.065-.6.945-.6s1.117.151.945.6m-15.79 63.653c-.206.249-1.135.459-2.065.467s-1.78.043-1.89.077c-.889.278-2.385.534-3.3.565-.605.021-1.1.151-1.1.288 0 .138-.45.284-1 .325s-1.433.109-1.962.15-.89.19-.803.331-.47.374-1.239.518c-.768.144-1.399.479-1.402.744-.004.297-.155.252-.394-.118-.224-.346-.39-.402-.394-.132-.003.258-.57.592-1.259.744-.961.211-1.124.366-.7.666.413.292.332.343-.317.202-.662-.144-.813-.041-.632.431.156.408.078.521-.23.331-.257-.159-.471-.594-.474-.966-.005-.523-.083-.555-.345-.142-.186.294-.494.505-.684.47s-.408.175-.485.466c-.115.43-.072.433.225.011 1.129-1.602 1.322.715 1.408 16.976.068 12.824.195 16.321.587 16.243.275-.055.5.055.5.245s.315.304.7.253c1.264-.169 2.5-.685 2.5-1.045 0-.194.27-.353.6-.353s.6-.18.6-.4.135-.371.3-.335c.385.082 3.405-1.099 5.395-2.112.382-.194 1.132-.353 1.666-.353s1.032-.173 1.106-.385c.073-.211.881-.436 1.794-.5.914-.063 1.578-.25 1.477-.415-.102-.165.377-.3 1.065-.3s1.567-.17 1.956-.378 2.268-.45 4.178-.538 3.59-.278 3.734-.422c.342-.341 3.917-.341 4.258 0 .383.384 5.449.497 5.678.127.107-.173-.164-.221-.602-.106-.783.205-.797-.042-.9-15.512l-.105-15.72-1.2-.309c-2.052-.527-15.819-.603-16.245-.089m18.321-.375c-.368.594.529.887 1.909.623.791-.151 1.048-.078.851.241-.422.683-.013.553.606-.193.487-.586.374-.635-1.148-.489-.928.088-1.746-.015-1.817-.23-.078-.234-.239-.215-.401.048m-38.029 39.945c-.346.901-.321.977.329.977.843 0 1.099-.64.466-1.165-.422-.351-.605-.308-.795.188m30.153 34.616c0 .152-.405.288-.9.301-3.007.084-3.508.15-3.717.487-.126.205-.59.373-1.03.373s-.689.18-.553.4-.113.4-.553.4-.911.18-1.047.4-.642.403-1.124.406c-.712.005-.764.079-.276.394.51.329.492.389-.118.394-.395.003-1.168.456-1.718 1.006s-.868 1-.706 1-.001.225-.362.5c-2.421 1.842-4.546 12.957-2.696 14.1.22.136.4.687.4 1.224s.18.976.4.976.4.183.4.406c0 .688 2.885 4.794 3.368 4.794.251 0 .715.36 1.032.8s.816.8 1.108.8 1.108.31 1.812.69c1.251.674 1.537.756 3.38.974.495.058.9.203.9.321.001.328 3.55.485 4.457.197.492-.156.714-.48.577-.839q-.228-.588.271-.275c.781.488 1.233.477 3.329-.086 1.578-.424 1.551-.902-.034-.601-.22.042-.175-.153.1-.432.892-.908.704-27.097-.2-27.824-.523-.421-.376-.407.577.054.806.39 1.369.471 1.524.22.135-.22-.135-.399-.601-.399s-.754-.151-.64-.335-.496-.363-1.355-.396c-.859-.034-1.678.126-1.82.355-.16.259-.507.139-.921-.317-.63-.696-3.264-1.074-3.264-.468m10.673 3.022c-.41.409-.329 1.421.093 1.16.201-.124.457 0 .568.277.139.345.211.314.228-.098.034-.803-.548-1.68-.889-1.339m-2.002 25.099c-.13.338-.076.713.119.834.523.323.966-.598.508-1.056-.256-.256-.474-.179-.627.222m-40.351 35.871c-.121.315.028.804.33 1.087.601.561.658.3.192-.889-.234-.595-.352-.64-.522-.198m1.28 1.153c0 .212.225.595.5.852 1.011.944.513 33.282-.515 33.439-.576.088-.744-.028-.545-.374.158-.275.134-.361-.054-.189-.623.566-.567 1.566.074 1.32.329-.126.934-.049 1.345.171q.747.4.994-.002a.93.93 0 0 1 .725-.395c.335.004.322.104-.043.335-.567.36.163 1.226 1.199 1.422.739.14 3.936 1.062 5.12 1.478.55.193 1.585.391 2.3.44s1.3.203 1.3.342c0 .14.495.219 1.1.178.605-.042 1.304.081 1.554.273.25.191 1.51.419 2.8.506 1.29.086 2.796.273 3.346.415 1.575.406 12.983.223 13.133-.21.074-.212.309-.385.524-.385s.279.18.143.4c-.388.628.262.468 1.069-.262.68-.616.731-.616.731 0 0 .364.182.662.405.662.267 0 .369-5.311.3-15.7l-.105-15.7-.913.033c-1.036.038-.697-.457.513-.748.44-.106-.239-.19-1.509-.186s-2.406.163-2.524.354c-.304.492-3.267.432-3.579-.072-.142-.231-.558-.39-.923-.354-1.927.189-6.884-.072-6.71-.353.11-.18-.644-.37-1.677-.423s-2.049-.266-2.258-.473c-.209-.208-.985-.378-1.724-.378-.793 0-1.242-.164-1.096-.4.147-.238-.329-.4-1.176-.4-.783 0-1.424-.18-1.424-.4s-.551-.4-1.224-.4c-.713 0-1.12-.167-.976-.4.14-.226-.188-.4-.753-.4-.55 0-1.111-.18-1.247-.4s-.514-.4-.84-.4c-.327 0-.98-.36-1.452-.8s-1.174-.8-1.56-.8c-.385 0-.82-.192-.965-.427s-.521-.329-.834-.209c-.314.121-.876-.137-1.249-.572-.728-.85-1.3-1.03-1.3-.408m40.4 7.81c0 .239.356.435.79.435s.865-.196.957-.435-.264-.434-.79-.434-.957.195-.957.434M168.981 319.1c.06.385.374.654.698.598s.588.161.588.482c0 .322-.15.492-.334.379-.183-.114-.333 5.264-.333 11.951 0 6.686-.124 12.28-.275 12.431s-.301.632-.333 1.069c-.063.851-.182.902 1.808-.769.11-.093-.16-.049-.6.096-.743.246-.75.226-.1-.28.769-.599.971-1.272.248-.825-.269.167-.38.065-.275-.251.097-.292.416-.611.708-.708.316-.105.418.006.251.275-.376.608.275.575.947-.048.433-.402.48-.396.238.03-.248.435-.155.438.521.016.611-.382.712-.645.393-1.03-.309-.372-.297-.516.044-.516.26 0 .344-.208.187-.462-.183-.295-.109-.353.203-.16.595.368 1.602-.856 1.628-1.978.016-.664.085-.698.407-.2.288.446.389.216.394-.9.003-.825.186-1.5.406-1.5.244 0 .4-1.808.4-4.624 0-2.543-.135-4.54-.3-4.438s-.328-.287-.363-.864-.26-1.115-.5-1.195-.437-.401-.437-.712c0-.312-.199-.567-.443-.567-.243 0-.354-.231-.246-.513.226-.588-1.083-2.382-1.461-2.003-.138.137-.253-.096-.256-.517-.005-.573-.092-.632-.344-.233-.271.426-.389.401-.592-.126-.143-.373-.454-.534-.717-.372-.283.176-.357.113-.188-.16.282-.456-1.058-2.076-1.718-2.076-.2 0-.315.315-.254.7"/><path id="path7" fill="#14dcfc" d="M79.067 95.467c-.383.382-.329.933.09.933.197 0 .461-.27.588-.6.234-.61-.192-.819-.678-.333m-4.875 4.96c-.135.425-.471.773-.747.773-.604 0-2.478 2.057-2.323 2.549.061.192-.123.26-.408.15-.574-.22-1.608.674-1.223 1.058.133.134-.068.243-.448.243s-.579.18-.443.4-.044.4-.4.4-.536.18-.4.4.044.4-.205.4-.722.27-1.052.6-.465.6-.3.6-.304.54-1.043 1.2-1.561 1.2-1.825 1.2c-.265 0-.575.358-.69.795-.114.438-.675.973-1.246 1.19s-1.039.661-1.039.985c0 .325-.286.75-.636.946s-.62.475-.6.62-.06.258-.178.25c-.612-.041-1.452 1.359-1.298 2.162.109.573-.018.919-.339.919-.282 0-.412-.165-.288-.366s-.411.052-1.189.562-1.342 1-1.253 1.089.415-.048.725-.305c1.003-.833 1.056.337 1.056 23.352 0 17.653.108 22.578.5 22.736.293.119.205.215-.214.233-.588.026-.639.173-.286.832.29.542.295.8.014.8-.228 0-.408.315-.401.7.011.622.076.611.586-.1.316-.44.76-1.017.987-1.283.228-.266.414-.771.414-1.124 0-.352.18-.529.4-.393s.4-.044.4-.4.184-.533.41-.394.384.105.353-.076c-.176-1.013.147-1.652 1.045-2.061.554-.252 1.171-.887 1.369-1.409.199-.523 1.14-1.773 2.092-2.778 2.658-2.805 3.931-4.346 3.931-4.756 0-.205.154-.278.342-.162.187.116.543-.233.791-.777.247-.543.634-.987.858-.987.225 0 .409-.227.409-.504 0-.278.54-.951 1.2-1.496s1.2-1.218 1.2-1.496.163-.504.363-.504c.199 0 .273-.405.165-.9-.146-.664-.095-.755.193-.349.486.688 1.414.177 1.111-.612-.142-.371-.055-.477.241-.294q.462.285.212-.367c-.137-.359-.078-.759.132-.889.211-.13.383.069.383.441 0 .512.207.414.846-.397.908-1.155.758-1.866-.223-1.052-.527.437-.598-1.994-.616-20.943-.015-16.245.095-21.438.453-21.438.708 0 .168-.402-.787-.586-.564-.109-.916.091-1.081.613M86.4 133.571c0 .204-.315.453-.7.553-.591.155-.598.19-.049.23.358.025.875-.224 1.149-.554.344-.415.359-.6.049-.6-.247 0-.449.167-.449.371m-2.628 2.384c.12.195-.139.448-.576.562-.438.114-.782.45-.764.746.023.404.081.413.233.037.111-.275.435-.5.719-.5.285 0 .742-.27 1.016-.6.409-.493.378-.6-.175-.6-.37 0-.574.16-.453.355m-27.884 97.106c.376.152.492 5.629.506 23.848.014 18.32.129 23.722.512 23.965.306.194.037.327-.706.348-1.015.029-1.077.084-.4.356.44.177.915.256 1.055.176s.5.168.8.55c.493.63.478.644-.155.147-.605-.474-.7-.461-.7.1 0 .388.33.649.822.649.591 0 1.048.508 1.619 1.8.438.99.889 1.8 1.001 1.8.113 0 .07-.225-.095-.5-.207-.344-.091-.33.372.045.37.3.62.66.557.8-.121.269 2.182 2.625 2.524 2.582.455-.057 1.184.376 1.037.615-.087.142.449.708 1.191 1.258s1.355 1.213 1.361 1.473.362.584.791.721c.428.136.891.6 1.028 1.032s.417.682.621.556.371-.039.371.194.281.424.624.424.52.168.393.372c-.126.205-.002.517.276.694.509.323.728.391 1.55.484.243.028.35.291.237.586s-.026.79.195 1.1c.317.447.354.418.175-.136-.124-.385-.051-.7.163-.7.213 0 .387.227.387.504s.331.71.736.963c.44.275.695.836.633 1.396a48 48 0 0 0-.136 1.437.42.42 0 0 1-.515.4.46.46 0 0 0-.55.4c-.141 1.032-.234 1.079-.602.3-.313-.662-.341-.61-.165.3.121.62.036 1.1-.193 1.1-.225 0-.408-.304-.408-.675 0-.529-.256-.43-1.186.461-.652.625-1.091 1.289-.976 1.475s-.101.339-.481.339-.568.123-.418.272c.352.352-1.725 2.528-2.414 2.528-.289 0-.48.142-.425.315.136.427-6.61 7.081-7.049 6.954-.192-.056-.243.176-.113.515s.084.616-.104.616c-.319 0-.958 1.481-.89 2.063.04.341-.79.211-1.507-.237-.437-.273-.513-.158-.337.511.124.475.062.863-.137.863-.2 0-.363-.214-.363-.475s-.547.049-1.215.69c-1.234 1.182-.601 2.338.708 1.292.389-.311.516 4.11.6 20.999.094 18.872.036 21.368-.493 21.184-.46-.159-.493-.092-.143.288.484.525 2.543-.466 2.543-1.224 0-.195.264-.354.586-.354s.781-.365 1.02-.811.605-.706.814-.577c.209.13.38-.045.38-.388s.281-.624.624-.624.512-.18.376-.4.044-.4.4-.4.536-.18.4-.4.05-.4.414-.4c.363 0 .755-.36.87-.8s.448-.8.739-.8.658-.208.815-.462q.289-.464-.276-.138c-.309.177-.202-.042.238-.487.44-.446.939-.73 1.11-.632.17.098.26-.06.2-.351-.061-.292.115-.485.39-.43s.455-.097.4-.337.239-.646.653-.9c.931-.572 2.7-2.263 2.367-2.263-.134 0 .078-.356.471-.791.394-.434.9-.677 1.124-.538s.31.09.189-.109.031-.594.338-.878c.307-.283.558-.396.558-.251 0 .146.272.039.605-.237.493-.409.512-.617.1-1.126-.397-.491-.398-.56-.005-.323.313.188.5.072.5-.311 0-.336.225-.525.5-.419.397.153.479-4.433.399-22.279-.09-19.809-.028-22.553.517-23.156.553-.61.554-.708.009-.917-.538-.206-.599-2.896-.517-22.816.086-21.131.047-22.61-.608-23.019-.385-.24-.713-.75-.728-1.133-.024-.592-.08-.577-.372.103-.333.774-.647-.324-.437-1.53.031-.181-.141-.207-.383-.058-.632.391-2.281-1.301-2.801-2.875-.244-.739-.589-1.254-.767-1.144s-.629-.443-1.002-1.229-.777-1.33-.897-1.21c-.121.121-.737-.495-1.369-1.367s-1.339-1.587-1.57-1.587-.31-.18-.174-.4.048-.4-.195-.4-.891-.45-1.441-1-.797-1-.548-1-.328-.765-1.282-1.7c-1.485-1.456-1.802-1.614-2.211-1.1-.404.508-.467.462-.415-.3.034-.495.224-.9.421-.9.198 0 .016-.315-.404-.7-.419-.385-.484-.523-.144-.307.398.253.344.072-.152-.509-.592-.694-.854-.785-1.134-.393-.248.346-.301.22-.167-.391.158-.722.027-.894-.665-.868-.475.017-.643.12-.375.229M76.4 256.8c.235.44.63.8.876.8s.122-.36-.276-.8-.792-.8-.876-.8.041.36.276.8m6 5.762c0 .377.18.574.4.438s.4.033.4.376.18.624.4.624c.641 0 .464-.618-.4-1.4-.741-.67-.8-.673-.8-.038m-3.735 81.263c.164.428.034.511-.49.31-.566-.217-.657-.126-.44.44.201.524.118.654-.31.49q-.587-.227-.362.355c.284.741.203.772 1.487-.568.887-.925.982-1.192.495-1.379-.414-.159-.534-.048-.38.352"/><path id="path8" fill="#3cc4fc" d="M338.198 38.402c-1.04 1.149-.578 1.278.516.144.503-.52.756-.946.562-.946s-.679.361-1.078.802m-139.965 7.545c-.118.19.677.346 1.767.346s1.885-.156 1.767-.346c-.118-.191-.913-.347-1.767-.347s-1.649.156-1.767.347m8.06.453c-.377.44-.497.8-.267.8.285 0 .379 4.928.296 15.532l-.122 15.532 2.169.057c1.193.031 2.354.242 2.58.468.528.528 1.175.536.851.011-.281-.455.715-.552 1.155-.112.158.158 1.216.344 2.351.413s2.16.273 2.278.454.813.343 1.543.361c1.184.029 1.271-.04.8-.631-.294-.371-.015-.269.635.232 1.046.806 1.228.835 1.832.288.673-.609 1.211-.447 1.2.362-.003.238-.161.189-.35-.11-.242-.381-.426-.41-.619-.097-.152.245.04.567.426.715.403.155.768.068.858-.203.087-.26.368-.472.624-.472.874 0 .426-31.201-.458-31.979-1.135-.998-1.767-.969-1.509.069.125.5.123.685-.003.41s-.405-.5-.62-.5-.255.225-.09.5c.188.313.01.28-.476-.087-1.188-.897-1.231-.96-.477-.689.385.138.7.121.7-.039s-.63-.486-1.4-.727c-.786-.247-1.4-.279-1.4-.075 0 .2-.205.238-.455.083s-1.555-.301-2.9-.326-2.67-.19-2.945-.366c-.275-.177-.5-.152-.5.056 0 .207-.37.474-.823.592-.641.167-.727.1-.391-.305.565-.681-1.111-1.177-1.865-.551-.375.311-.521.306-.521-.017 0-.737-1.371-.509-2.107.351m-3.638.2c.127.33.552.6.945.6s.818-.27.945-.6c.172-.449-.065-.6-.945-.6s-1.117.151-.945.6m159.039 14.612c-.719.653-1.157 1.188-.975 1.188s.849-.54 1.481-1.2c1.47-1.535 1.186-1.528-.506.012M204.133 77.81c0 .275.235.465.522.423.89-.131 1.013-.522.228-.727-.438-.115-.75.012-.75.304m-9.628 32.077c.609.092 1.509.09 2-.005s-.005-.171-1.105-.168-1.503.081-.895.173m9.895.247 1.8.504v31.666l.923-.351c.637-.242.84-.216.655.083-.171.277.089.386.721.303.545-.071 1.319.139 1.722.466.649.527.692.527.379-.005-.307-.52-.262-.526.333-.043.377.306.802.441.944.299s.619.058 1.059.443c.57.499.702.528.456.101-.287-.498-.241-.515.268-.103.337.273.717.393.843.267.125-.126.589-.036 1.03.2.597.32.854.303 1.003-.067.13-.32.212-.272.232.136.018.349.302.664.632.7l1.2.134c.33.036.6.202.6.368 0 .264 1.31.681 3.19 1.016.325.057.747-.11.938-.373.226-.311.267-.228.116.237-.139.431.004.805.36.942.325.125.51.358.411.518-.099.161.079.292.396.292.396 0 .454-.147.186-.47-.214-.259-.257-.618-.094-.798.164-.18.027-.202-.303-.048-.533.248-.533.229 0-.171.519-.389.585-2.608.491-16.463-.069-10.067.037-16.189.284-16.487.29-.349.081-.452-.791-.392-.813.057-1.184-.102-1.184-.507 0-.759-1.28-.529-1.497.269-.146.533-.117.533.26 0 .367-.518.426-.504.431.1.007.826-.714.887-1.694.143-.773-.587-.972-1.258-.238-.805.28.174.353.11.186-.161-.193-.312-.591-.327-1.322-.049-.924.351-.985.325-.526-.228.46-.554.396-.579-.555-.217-.848.322-1.121.284-1.301-.185-.125-.326-.389-.494-.586-.372s-.358.071-.358-.112c0-.403-5.371-.303-6.045.114q-.483.3-.155-.229c.253-.408.04-.467-.958-.267-.705.141-1.196.117-1.091-.052.203-.329-.04-.381-3.151-.667l-2-.184Zm-6.556 31.795c-.112.182.858.33 2.156.33s2.268-.148 2.156-.33c-.112-.181-1.082-.329-2.156-.329s-2.044.148-2.156.329m32.956 9.019c0 .658.718 1.267 1.074.911.122-.121-.07-.512-.426-.869-.56-.559-.648-.565-.648-.042M202 184.229c0 .724 1.139 1.326 1.557.823.24-.289.318-.644.173-.789-.323-.323-1.73-.351-1.73-.034m3.398.974c-.137.221.033.511.377.643.745.286.967 26.852.23 27.589-.261.261.019.427.819.488.79.06 1.191-.085 1.148-.415-.165-1.252.018-1.678.508-1.188.662.662 1.12.601 1.12-.149 0-.386.271-.576.7-.491 1.179.235 4.5-4.193 4.5-6 0-.29.18-.416.4-.28s.419.012.443-.276c.023-.288.082-.794.131-1.124s.123-1.41.164-2.4c.055-1.326.176-1.642.462-1.2.233.361.39.41.394.124a.93.93 0 0 0-.394-.724c-.22-.136-.4-1.027-.4-1.981 0-1.063-.203-1.811-.526-1.935-.307-.118-.49-.718-.44-1.442.048-.682-.05-1.156-.215-1.053-.166.102-.51-.27-.764-.827-.357-.784-.352-.946.021-.715.789.488-1.135-1.996-2.041-2.635-.459-.324-.835-.819-.835-1.1s-.163-.512-.363-.512c-.199 0-.287.405-.195.9s.06.674-.072.398c-.131-.277-.418-.392-.637-.257-.224.139-.342-.085-.27-.511.152-.895-1.452-2.796-1.835-2.175-.176.284-.563.275-1.23-.029-.535-.243-.878-.597-.762-.784s.121-.342.011-.342-.312.181-.449.403M183.567 198.5c-.195.585-.178 1.97.026 2.096.144.089.262-.369.262-1.017 0-.976-.144-1.513-.288-1.079m60.198 38.911c-.592.776-1.006 1.476-.921 1.556.086.079.649-.555 1.252-1.411 1.369-1.942 1.122-2.05-.331-.145m-6.707 6.578c-1.176.89-1.349 1.153-.728 1.106.448-.033.737-.186.643-.339-.095-.153.413-.653 1.127-1.11s1.12-.831.9-.828c-.22.002-1.094.529-1.942 1.171m-4.158 3.409c-.658.748-.633 1.028.069.759.601-.231 1.21-1.368.718-1.342-.158.009-.512.271-.787.583m-2.156 1.408-.944.807 1.1-.471c.605-.259 1.1-.622 1.1-.806 0-.499-.214-.419-1.256.47m-2.755 1.652c-.716.576-.769.693-.189.423.44-.205 1.025-.292 1.3-.194.275.099.5-.005.5-.23 0-.788-.631-.788-1.611.001m-3.982 2.268c-.895.306-1.688 1.22-1.426 1.643.128.207.049.489-.174.627-.224.138-.407.05-.407-.196s-.2-.324-.445-.172c-.244.151-.621.026-.837-.277-.305-.427-.343-.393-.168.149.124.385.04.7-.186.7s-.283.208-.126.462c.177.286.11.353-.176.176-.254-.157-.465-.59-.468-.962-.005-.583-.06-.593-.394-.076-.213.33-.391.45-.394.266s-.839.131-1.856.7c-1.783.996-2.984 1.431-1.75.634.908-.587-.121-.476-1.7.184-.769.321-1.526.457-1.682.301s-.494-.014-.751.316c-.324.415-1.309.619-3.211.663-1.51.036-2.911.231-3.114.434-.225.225-.012.355.545.335l.913-.033.2 15.601c.196 15.27.217 15.6 1 15.593.44-.003 1.013.143 1.273.326.273.192.867.1 1.4-.216.51-.303 1.678-.535 2.596-.515.918.019 1.582-.106 1.476-.277-.309-.501.448-.359 1.002.188.406.4.601.377.98-.118.299-.39 1.081-.608 2.125-.591 1.18.018 1.597-.12 1.457-.483-.183-.478.392-.625 2.407-.614.394.003.621-.09.506-.205-.115-.116.101-.437.482-.715.38-.278.782-.365.893-.194.35.539 2.003.908 2.003.447 0-.235.315-.43.7-.433.588-.005.606-.066.111-.379-.381-.241-.686-.218-.86.064-1.21 1.958-1.351-.003-1.151-16.009.21-16.811.17-17.673-.793-17.344m-25.76 5.351c.11.178.92.323 1.8.323 1.002 0 1.504-.155 1.344-.414-.141-.228-.951-.374-1.8-.323-.849.05-1.453.236-1.344.414m40.557 23.319c-.272.327-.642.504-.822.393s-.44-.019-.578.204c-.138.224-.016.403.272.398.652-.011 2.694-1.57 2.073-1.582-.248-.005-.673.259-.945.587m-7.404 2.898c-.966.244-2.553 1.306-1.95 1.306.507 0 2.95-1.183 2.95-1.429 0-.094-.045-.15-.1-.125-.055.026-.46.138-.9.248m-26.6 5.106c-.552.665-1.391.833-1 .2.136-.22.076-.4-.134-.4-.209 0-.48.259-.601.575-.169.439.139.569 1.308.553 1.295-.018 1.498-.136 1.331-.774-.238-.909-.273-.915-.904-.154m-10.1.882a5.7 5.7 0 0 0 1.8 0c.495-.095.09-.173-.9-.173s-1.395.078-.9.173m29.444 35.515c.126.328-.011.821-.304 1.095-.443.413-.423.584.113 1.003.593.463.589.55-.053 1.049-.385.299-.7.69-.7.869 0 .178.315.695.7 1.149.596.701.601.748.033.31-1.031-.796-.885 5.822.152 6.915.556.586.715.622.715.163 0-.325-.216-.806-.48-1.07-.373-.373-.365-.48.036-.48.403 0 .486-1.225.38-5.6-.085-3.486.015-5.664.264-5.769.22-.092.066-.182-.343-.199-.5-.022-.668.163-.513.565"/></g></svg>