<svg xmlns="http://www.w3.org/2000/svg" id="svg" width="400" height="300" viewBox="0 0 400 300"><g id="svgg" fill-rule="evenodd" stroke="none"><path id="path0" fill="#0a0a0a" d="M217.104 6.302c-.108.175-1.846.3-4.197.3-3.166 0-4.107.095-4.462.45-.337.337-1.167.45-3.305.45-1.57 0-2.927.119-3.017.264s-1.001.324-2.026.398c-1.046.076-1.914.289-1.98.486-.072.217-.804.352-1.902.352-1.31 0-1.831.12-1.958.45-.126.33-.646.45-1.941.45-.979 0-1.768.134-1.768.301 0 .165-.545.3-1.21.3-.799 0-1.269.153-1.383.45-.12.315-.612.45-1.641.45-.807 0-1.468.135-1.468.3s-.395.3-.879.3c-.483 0-1.081.203-1.328.45-.248.248-.918.45-1.49.45-.647 0-1.105.17-1.213.45-.099.261-.548.45-1.064.45-.491 0-.976.135-1.078.301s-.586.3-1.077.3c-.516 0-.965.189-1.065.45-.095.247-.487.45-.873.45-.385 0-.784.135-.886.3s-.505.3-.896.3-.914.203-1.161.45c-.248.248-.734.45-1.081.45s-.709.203-.804.45c-.095.248-.496.45-.891.45s-.718.135-.718.301-.337.3-.75.3c-.467 0-.75.17-.75.45 0 .247-.25.45-.554.45-.505 0-1.78.499-3.118 1.219-.287.155-.73.281-.985.281s-.541.203-.636.45c-.095.248-.361.45-.591.45s-.418.135-.418.3c0 .166-.274.301-.609.301-.336 0-.688.202-.783.45-.095.247-.435.45-.755.45s-.895.337-1.277.75c-.383.413-.984.75-1.336.75-.37 0-.641.191-.641.45 0 .26-.271.45-.641.45-.352 0-.954.338-1.336.751-.382.412-.908.75-1.169.75a.75.75 0 0 0-.647.45c-.095.247-.303.45-.462.45-.389 0-1.147.779-1.147 1.179 0 .177-.337.321-.75.321-.412 0-.75.135-.75.3s-.202.301-.45.301a.45.45 0 0 0-.45.45c0 .252-.268.45-.61.45-.335 0-.687.202-.782.45-.095.247-.292.45-.437.45-.559 0-1.472 1.065-1.472 1.717 0 .376-.135.684-.3.684-1.003 0-.265 2.274.902 2.779 2.114.916 2.587.756 7.086-2.407 11.688-8.218 30.139-16.552 41.974-18.959l5.702-1.156c34.833-7.059 75.583 2.17 101.559 23 3.377 2.708 11.495 9.978 12.104 10.84.201.284 1.159 1.381 2.129 2.437 8.261 8.994 16.562 23.306 19.737 34.028.489 1.651 1.156 3.892 1.483 4.982.727 2.423 1.449 3.27 2.788 3.27 1.809 0 2.615-1.692 1.845-3.873-.337-.957-.413-1.85-.272-3.226.137-1.337.093-1.903-.146-1.903-.197 0-.342-.494-.342-1.164 0-.668-.192-1.322-.45-1.537-.248-.205-.45-.686-.45-1.069s-.135-.779-.3-.881-.3-.506-.3-.897-.203-.913-.45-1.161c-.248-.247-.451-.781-.451-1.185s-.202-.903-.45-1.108c-.247-.206-.45-.695-.45-1.087 0-.393-.135-.714-.3-.714s-.3-.342-.3-.759c0-.418-.202-.838-.45-.933s-.45-.495-.45-.89-.121-.719-.268-.719-.352-.337-.456-.75c-.103-.412-.32-.75-.482-.75s-.295-.337-.295-.75c0-.467-.17-.75-.45-.75s-.45-.284-.45-.75c0-.413-.135-.751-.3-.751s-.3-.237-.3-.528c0-.29-.321-.874-.713-1.297s-.806-1.063-.92-1.422c-.114-.36-.334-.654-.488-.654s-.279-.188-.279-.418-.203-.495-.451-.59c-.247-.095-.45-.447-.45-.783 0-.335-.135-.609-.3-.609s-.3-.275-.3-.61-.202-.687-.45-.782-.45-.361-.45-.591-.133-.418-.294-.418c-.162 0-.38-.337-.483-.75-.104-.413-.309-.75-.456-.75s-.267-.203-.267-.45c0-.248-.188-.45-.416-.45-.229 0-.627-.445-.885-.989s-.949-1.482-1.535-2.086-1.066-1.272-1.066-1.487c0-.214-.54-.898-1.2-1.519s-1.2-1.262-1.2-1.425-.18-.296-.399-.296c-.22 0-.581-.338-.801-.751-.221-.412-.582-.75-.801-.75s-.4-.144-.4-.321c0-.416-.763-1.179-1.178-1.179-.177 0-.322-.203-.322-.45a.45.45 0 0 0-.45-.45c-.248 0-.45-.145-.45-.322 0-.415-.764-1.179-1.179-1.179a.32.32 0 0 1-.322-.321c0-.416-.763-1.179-1.178-1.179-.177 0-.322-.203-.322-.45a.45.45 0 0 0-.45-.45c-.248 0-.45-.145-.45-.322 0-.415-.764-1.179-1.179-1.179-.177 0-.322-.202-.322-.45 0-.247-.12-.45-.268-.45s-.587-.335-.975-.745c-.389-.41-.882-.747-1.096-.75s-.703-.343-1.085-.755c-.383-.413-.849-.751-1.036-.751s-.341-.202-.341-.45c0-.255-.269-.45-.621-.45-.665 0-1.479-.649-1.479-1.179 0-.177-.188-.321-.418-.321s-.496-.203-.591-.45c-.095-.248-.447-.45-.782-.45-.336 0-.61-.136-.61-.301s-.202-.3-.45-.3a.45.45 0 0 1-.45-.45c0-.259-.271-.45-.641-.45-.352 0-.954-.337-1.336-.75s-.972-.75-1.31-.75-.614-.154-.614-.342c0-.416-.903-1.136-1.44-1.149-.214-.005-.702-.347-1.084-.76-.383-.412-.9-.75-1.15-.75s-.622-.203-.827-.45c-.206-.248-.632-.45-.947-.45s-.65-.203-.745-.45c-.095-.248-.496-.45-.891-.45s-.718-.135-.718-.301-.203-.3-.45-.3c-.248 0-.45-.132-.45-.294s-.338-.379-.75-.483c-.413-.103-.751-.294-.751-.423s-.337-.32-.75-.423c-.412-.104-.75-.321-.75-.483s-.28-.294-.622-.294c-.341 0-.824-.203-1.071-.45-.248-.248-.77-.45-1.161-.45s-.795-.135-.897-.3c-.102-.166-.515-.301-.918-.301-.451 0-.732-.173-.732-.45 0-.28-.284-.45-.751-.45-.412 0-.75-.109-.75-.242 0-.361-2.188-1.258-3.069-1.258-.422 0-.845-.203-.94-.45-.109-.283-.568-.45-1.233-.45-.582 0-1.059-.135-1.059-.3 0-.166-.389-.301-.864-.301s-1.031-.202-1.237-.45c-.205-.247-.612-.45-.903-.45s-.915-.201-1.388-.448-1.299-.449-1.835-.45-.975-.137-.975-.302-.482-.3-1.072-.3c-.589 0-1.274-.203-1.522-.45-.247-.248-.98-.45-1.629-.45s-1.178-.135-1.178-.3-.661-.301-1.469-.301c-1.028 0-1.52-.134-1.641-.45-.124-.323-.63-.45-1.798-.45-.894 0-2.012-.201-2.485-.448s-1.561-.449-2.417-.45c-.857-.001-1.641-.137-1.743-.302s-1.309-.3-2.682-.3c-1.853 0-2.592-.116-2.87-.45-.283-.341-1.05-.45-3.17-.45-1.54 0-2.879-.135-2.981-.3-.253-.409-17.452-.409-17.705 0M112.963 37.483c-.157.15-1.556.319-3.111.375-1.917.069-2.866.222-2.95.477-.083.248-.777.375-2.051.375-1.511 0-1.925.096-1.925.45 0 .345-.382.45-1.633.45-.898 0-1.716.135-1.818.3s-.843.3-1.647.3c-.899 0-1.634.173-1.911.45-.248.248-.857.45-1.354.45s-.988.135-1.09.3-.566.3-1.031.3-1.014.203-1.219.451c-.229.275-.887.45-1.697.45-.899 0-1.378.144-1.496.45-.095.247-.495.45-.89.45s-.718.135-.718.3-.338.3-.751.3c-.466 0-.75.17-.75.45 0 .325-.333.45-1.2.45-.66 0-1.2.135-1.2.3s-.275.3-.61.3-.687.203-.782.451c-.095.247-.5.45-.9.45-.401 0-.806.202-.901.45-.095.247-.496.45-.89.45-.395 0-.719.135-.719.3s-.274.3-.609.3-.687.203-.782.45c-.095.248-.496.45-.891.45s-.718.121-.718.268-.338.352-.751.456c-.412.103-.75.32-.75.482s-.202.295-.45.295a.45.45 0 0 0-.45.45c0 .28-.283.45-.75.45-.413 0-.75.135-.75.3s-.203.3-.45.3a.45.45 0 0 0-.451.45c0 .26-.271.45-.64.45-.353 0-.954.338-1.336.75-.383.413-.972.751-1.31.751s-.614.179-.614.399-.338.58-.751.801c-.412.221-.75.581-.75.801 0 .226-.326.399-.75.399-.467 0-.75.17-.75.45 0 .248-.153.45-.34.45s-.785.473-1.33 1.051c-.545.577-1.135 1.05-1.311 1.05s-.32.14-.32.31c0 .388-1.719 2.091-2.111 2.091-.159 0-.29.144-.29.321 0 .415-.763 1.179-1.179 1.179a.317.317 0 0 0-.321.31c0 .388-1.719 2.091-2.111 2.091-.159 0-.29.144-.29.321 0 .415-.763 1.179-1.179 1.179-.176 0-.321.202-.321.45s-.135.45-.3.45-.3.203-.3.45c0 .248-.142.45-.314.45-.461 0-2.985 2.564-2.997 3.043-.011.504-.711 1.457-1.073 1.462-.147.002-.525.542-.841 1.2s-.686 1.197-.825 1.197-.252.203-.252.45c0 .248-.132.45-.294.45s-.379.338-.483.75c-.103.413-.308.751-.456.751-.147 0-.267.337-.267.75 0 .467-.17.75-.45.75-.275 0-.45.28-.45.718 0 .395-.203.796-.45.891-.248.095-.451.413-.451.707s-.338.927-.75 1.407c-.413.479-.75 1.113-.75 1.407s-.135.619-.3.721-.3.52-.3.928-.203.819-.45.914c-.248.095-.45.438-.45.763 0 .324-.203.792-.45 1.039-.248.248-.451.703-.451 1.011 0 .309-.135.645-.3.747s-.3.592-.3 1.089-.202 1.107-.45 1.354c-.247.248-.45.981-.45 1.629s-.112 1.179-.249 1.179c-.375 0-1.004 2.594-1.164 4.801-.091 1.241-.296 2.038-.565 2.191-.299.17-.423.843-.423 2.308 0 1.137-.135 2.151-.3 2.253-.409.253-.409 18.052 0 18.305.165.102.3 1.059.3 2.127 0 1.45.115 1.986.451 2.115.293.113.45.58.45 1.341 0 .787.133 1.168.409 1.168.424 0 .965 1.253 1.879 4.351 1.526 5.175 5.904 4.441 4.497-.754l-1.017-3.747c-2.668-9.815-2.802-21.847-.351-31.358 6.619-25.676 26.355-45.262 54.748-54.331 5.47-1.747 10.235-2.704 19.505-3.92 5.639-.739 18.018-.206 24.906 1.074 7.849 1.458 9.002 1.306 9.002-1.187 0-1.552-.893-2.152-3.846-2.586-2.036-.298-2.43-.457-2.982-1.205-.391-.528-.912-.86-1.352-.86-.393 0-.918-.203-1.165-.45-.339-.34-1.179-.451-3.412-.451-1.651 0-3.044-.132-3.147-.3-.238-.384-19.12-.41-19.52-.026m232.571 49.301c-.404.444-.1 3.924.394 4.519.212.255 2.033 1.442 4.048 2.637 18.694 11.092 29.596 26.131 34.467 47.545 3.53 15.523-2.605 38.861-13.376 50.879-.674.752-2.17 2.48-3.325 3.842-5.413 6.379-14.981 13.313-24.606 17.832-6.373 2.991-7.39 4.043-5.83 6.027.883 1.122 1.589 1.019 6.05-.879 3.341-1.421 3.984-1.607 4.338-1.253.499.499.239 1.335-.487 1.566-1.242.394-1.892 1.583-2.317 4.238-3.404 21.258-28.11 36.58-56.981 35.337l-4.513-.194-.813.965c-.447.532-.813 1.211-.813 1.511s-.236.637-.525.749c-.5.194-.5.222 0 .59.289.213.525.676.525 1.029 0 .507.182.642.864.642.475 0 1.032.203 1.237.45.547.66 14.263.651 15.136-.009.41-.31 1.366-.441 3.226-.441 1.562 0 2.643-.123 2.643-.3 0-.169.84-.3 1.919-.3 1.428 0 1.962-.115 2.091-.45.122-.318.617-.45 1.682-.45.831 0 1.51-.135 1.51-.3s.447-.3.993-.3 1.255-.199 1.575-.441.891-.445 1.267-.45c.377-.005.763-.212.858-.46.106-.277.562-.45 1.191-.45.56 0 1.018-.135 1.018-.3s.342-.3.759-.3c.418 0 .838-.203.933-.45.106-.278.562-.45 1.191-.45.56 0 1.018-.135 1.018-.3s.253-.3.563-.3.732-.203.937-.451c.206-.247.631-.45.946-.45.316 0 .651-.202.746-.45.095-.247.447-.45.781-.45.335 0 .922-.337 1.304-.75.383-.413.94-.75 1.239-.75s.797-.338 1.106-.75c.31-.413.796-.751 1.08-.751s.769-.337 1.079-.75c.31-.412.734-.75.943-.75.208 0 .378-.203.378-.45 0-.252.268-.45.61-.45.335 0 .687-.203.782-.45.095-.248.303-.45.462-.45.39 0 1.147-.779 1.147-1.179 0-.177.14-.322.31-.322.278 0 2.091-1.669 2.091-1.924 0-.057.54-.661 1.2-1.341s1.2-1.439 1.2-1.686c0-.248.203-.45.451-.45.247 0 .45-.141.45-.313s.337-.678.75-1.123c.412-.445.75-.979.75-1.187s.119-.378.265-.378.345-.236.442-.525c.171-.51.79-1.572 1.093-1.876.389-.389 1.201-2.207 1.201-2.688 0-.296.202-.707.45-.912.247-.206.45-.687.45-1.07 0-.382.135-.779.3-.881s.3-.66.3-1.239.203-1.257.45-1.504c.281-.281.454-1.034.46-2.005.005-.887.198-1.803.45-2.136.59-.78.62-5.132.038-5.479-.963-.575-.85-2.491.148-2.491.319 0 .945-.337 1.39-.75.445-.412 1.047-.75 1.337-.75s.528-.203.528-.45c0-.28.284-.45.751-.45.412 0 .75-.135.75-.3s.202-.3.45-.3c.247 0 .45-.203.45-.45 0-.26.271-.451.641-.451.352 0 .953-.337 1.336-.75.382-.412.885-.75 1.117-.75.233 0 .676-.338.986-.75.31-.413.734-.75.942-.75.209 0 .379-.203.379-.45 0-.248.266-.451.59-.451.618 0 2.411-1.554 2.411-2.09 0-.171.148-.31.329-.31s1.329-1.013 2.551-2.251c1.221-1.238 2.356-2.25 2.521-2.25a.3.3 0 0 0 .3-.3c0-.166 1.013-1.3 2.251-2.522s2.251-2.37 2.251-2.551.144-.329.321-.329c.379 0 .978-.566 1.269-1.2.312-.681.886-1.5 1.635-2.336.372-.414.676-1.003.676-1.309s.202-.556.45-.556c.247 0 .45-.203.45-.45 0-.248.12-.45.267-.45.148 0 .353-.338.456-.75.104-.413.321-.751.483-.751s.294-.337.294-.75c0-.467.17-.75.45-.75.248 0 .45-.204.45-.454 0-.575.634-1.722 1.126-2.037.206-.132.375-.424.375-.65s.225-.861.501-1.411c.929-1.855.999-2.04.999-2.646 0-.337.199-.604.45-.604.28 0 .45-.283.45-.75 0-.413.135-.75.3-.75.166 0 .301-.54.301-1.201 0-.867.125-1.2.45-1.2.323 0 .45-.33.45-1.168 0-.762.156-1.228.45-1.341.282-.108.45-.567.45-1.232 0-.583.135-1.06.3-1.06s.3-.617.3-1.372c0-.819.181-1.553.45-1.822.289-.288.45-1.029.45-2.061 0-.886.135-1.695.3-1.797.177-.109.301-1.893.301-4.337 0-3.413.08-4.182.45-4.324.371-.142.45-.93.45-4.496 0-3.477-.088-4.397-.45-4.697-.342-.284-.45-1.053-.45-3.188 0-1.676-.122-2.814-.301-2.814-.169 0-.3-.85-.3-1.95 0-1.534-.096-1.951-.45-1.951-.339 0-.45-.365-.45-1.483 0-.815-.135-1.566-.3-1.668s-.3-.573-.3-1.046-.203-1.064-.45-1.311c-.248-.248-.45-.851-.45-1.34 0-.514-.19-.963-.45-1.062-.283-.109-.45-.568-.45-1.233 0-.583-.135-1.059-.301-1.059s-.3-.389-.3-.864-.202-1.031-.45-1.237c-.247-.205-.45-.695-.45-1.087s-.12-.713-.267-.713c-.148 0-.353-.338-.456-.751-.104-.412-.321-.75-.483-.75s-.294-.342-.294-.759c0-.418-.203-.838-.45-.933-.248-.095-.45-.434-.45-.754 0-.319-.338-.945-.751-1.39-.412-.445-.75-1.046-.75-1.337s-.126-.528-.28-.528-.375-.304-.491-.675c-.117-.372-.531-.973-.921-1.336s-.713-.836-.718-1.051c-.013-.537-.733-1.439-1.149-1.439-.188 0-.342-.203-.342-.45 0-.248-.126-.451-.28-.451s-.364-.266-.468-.592c-.103-.326-.652-1.072-1.22-1.656-.568-.585-1.033-1.196-1.033-1.358s-.202-.295-.45-.295c-.247 0-.45-.179-.45-.399s-.337-.58-.75-.801-.75-.581-.75-.801a.4.4 0 0 0-.4-.399c-.219 0-.58-.338-.8-.75-.221-.413-.582-.75-.801-.75s-.4-.18-.4-.4-.337-.58-.75-.801-.75-.581-.75-.801a.4.4 0 0 0-.4-.399c-.219 0-.58-.338-.8-.75-.221-.413-.582-.75-.801-.75s-.4-.203-.4-.451c0-.247-.144-.45-.321-.45-.416 0-1.179-.763-1.179-1.179 0-.176-.203-.321-.45-.321-.248 0-.45-.12-.45-.268 0-.147-.338-.352-.75-.455-.413-.104-.751-.321-.751-.483s-.202-.294-.45-.294c-.247 0-.45-.145-.45-.322 0-.4-.757-1.179-1.147-1.179-.159 0-.367-.202-.462-.45-.095-.247-.372-.45-.617-.45-.244 0-.808-.338-1.253-.75-.445-.413-1.045-.75-1.334-.75-.288 0-.602-.203-.697-.451-.095-.247-.447-.45-.782-.45s-.61-.135-.61-.3-.337-.3-.75-.3c-.467 0-.75-.17-.75-.45a.45.45 0 0 0-.45-.45c-.248 0-.45-.12-.45-.268 0-.147-.338-.352-.75-.455-.413-.104-.751-.321-.751-.483 0-.406-3.678-.344-4.053.068M27.907 136.052c0 .23-.203.496-.45.591-.248.095-.45.447-.45.782s-.145.61-.322.61c-.415 0-1.179.763-1.179 1.178 0 .177-.202.322-.45.322-.247 0-.45.17-.45.379 0 .208-.337.632-.75.942s-.75.753-.75.986c0 .232-.338.735-.75 1.117-.413.383-.751.984-.751 1.336 0 .37-.19.641-.45.641a.45.45 0 0 0-.45.45c0 .248-.132.45-.294.45s-.379.338-.483.751c-.103.412-.309.75-.456.75s-.267.202-.267.45-.133.45-.295.45-.379.338-.482.75c-.104.413-.309.75-.456.75s-.268.338-.268.751c0 .466-.17.75-.45.75s-.45.283-.45.75c0 .413-.109.75-.242.75-.295 0-1.258 2.12-1.258 2.77 0 .257-.203.545-.45.64-.248.095-.45.439-.45.764 0 .326-.135.675-.3.777-.166.102-.301.593-.301 1.09s-.202 1.106-.45 1.354c-.247.247-.45.896-.45 1.442s-.202 1.16-.45 1.366c-.247.205-.45.821-.45 1.369s-.135 1.079-.3 1.181-.3.769-.3 1.482c0 .786-.177 1.443-.45 1.669-.313.26-.45.95-.45 2.27 0 1.043-.135 1.979-.3 2.081-.173.107-.301 1.693-.301 3.737 0 2.879-.085 3.584-.45 3.724-.657.252-.657 6.548 0 7.093.356.295.45 1.152.45 4.088 0 2.276.117 3.714.301 3.714.172 0 .3.938.3 2.214 0 1.601.124 2.317.45 2.587.247.205.45.822.45 1.369 0 .548.117 1.069.26 1.157s.333.801.421 1.583c.088.783.308 1.472.49 1.533.181.06.329.575.329 1.144 0 .643.171 1.1.45 1.208.254.097.45.544.45 1.023 0 .467.135.934.301 1.036s.3.519.3.927.202.82.45.915c.247.095.45.483.45.863 0 .801 1.455 3.783 2.018 4.136.21.132.382.503.382.825s.135.586.301.586.3.337.3.75c0 .467.17.75.45.75.259 0 .45.271.45.641 0 .352.337.953.75 1.336.413.382.75.972.75 1.309 0 .347.197.615.45.615.248 0 .45.203.45.45 0 .248.135.45.3.45.166 0 .301.197.301.438s.54.989 1.2 1.663c.66.673 1.2 1.339 1.2 1.48s.203.334.45.429c.248.095.45.389.45.653 0 .547.698 1.339 1.179 1.339.177 0 .322.13.322.289 0 .392 1.702 2.111 2.09 2.111.171 0 .31.132.31.294 0 .383 3.225 3.607 3.608 3.607.161 0 .293.14.293.31 0 .31 1.683 2.091 1.975 2.091.085 0 .467.337.85.75.382.413.916.75 1.186.75s.49.203.49.45c0 .248.141.45.313.45.171 0 .825.541 1.453 1.201s1.366 1.2 1.639 1.2.496.135.496.3.189.3.418.3c.23 0 .496.203.591.45.095.248.447.45.782.45.336 0 .61.105.61.232s.506.498 1.125.823 1.234.76 1.366.968.503.378.825.378.585.135.585.3.323.3.718.3.796.203.891.45c.095.248.379.45.632.45s.461.102.462.225c.002.305 1.739 1.276 2.282 1.276.239 0 .513.202.608.45.095.247.496.45.891.45s.718.135.718.3.458.3 1.018.3c.628 0 1.084.173 1.191.45.095.248.514.45.932.45s.76.109.76.243c0 .417 2.252 1.258 3.369 1.258.672 0 1.132.167 1.24.45.109.282.568.45 1.233.45.583 0 1.06.135 1.06.3s.523.3 1.163.3c.668 0 1.323.192 1.537.45.236.285.898.45 1.801.45s1.564.166 1.8.45c.227.273.884.451 1.67.451.712 0 1.379.135 1.481.3s1.132.3 2.29.3c1.47 0 2.239.135 2.554.45.36.36 1.346.45 4.912.45 2.651 0 4.537.122 4.647.3.11.177 1.904.3 4.369.3 2.589 0 4.184-.114 4.184-.3 0-.178 1.097-.3 2.69-.3 2.685 0 2.693-.002 3.762-1.071l1.071-1.071-.666-1.333c-.964-1.93-1.574-2.377-3.211-2.352-8.187.125-13.666.113-15.174-.034-3.485-.34-9.33-1.063-9.737-1.205-.225-.079-1.913-.482-3.751-.896-41.581-9.363-66.843-47.599-56.298-85.211 2.208-7.879 7.42-17.535 13.164-24.394 1.932-2.306 2.013-2.565 1.642-5.272l-.191-1.392h-1.909c-1.433 0-1.91.104-1.91.418m77.826 109.017c-1.146.224-1.755 1.268-1.642 2.815.019.26 1.053 2.016 2.297 3.901 1.951 2.959 2.241 3.567 2.114 4.437-.147 1.003 2.454 4.243 3.406 4.243a.32.32 0 0 1 .32.32c0 .398 3.207 3.581 3.608 3.581.161 0 .293.146.293.323 0 .402 1.649 2.078 2.045 2.078.16 0 .369.202.464.45.095.247.398.45.673.45s.813.338 1.195.75c.383.413.972.75 1.31.75s.615.145.615.322c0 .519.809 1.179 1.446 1.179.325 0 .668.202.763.45.095.247.447.45.782.45s.611.101.613.225.576.494 1.275.823 1.451.768 1.669.975c.218.208.589.377.825.377s.429.136.429.301.388.3.863.3 1.032.202 1.237.45c.206.247.612.45.903.45s.916.202 1.388.448c.473.247 1.096.449 1.385.45s.525.137.525.302.439.305.975.31c.537.005 1.238.208 1.558.45.342.259 1.239.44 2.176.44.876 0 1.593.136 1.593.301 0 .167.807.3 1.822.3 1.219 0 1.97.148 2.272.45.377.377 1.732.45 8.39.45 6.781 0 7.965-.066 8.112-.45.129-.335.663-.45 2.091-.45 1.079 0 1.919-.132 1.919-.3 0-.165.679-.301 1.51-.301 1.065 0 1.56-.132 1.682-.45.112-.292.578-.45 1.325-.45.653 0 1.764-.325 2.563-.75.776-.413 1.545-.75 1.709-.75s.718-.439 1.231-.975l.933-.976.15 4.627c.107 3.325.255 4.662.525 4.751.279.093.375 1.346.375 4.901 0 2.984.112 4.776.3 4.776.165 0 .3.203.3.45 0 .248.203.45.45.45.248 0 .45.135.45.3 0 1.12 3.536-.004 5.251-1.669.584-.567 1.194-1.031 1.356-1.031s.295-.203.295-.45c0-.248.145-.45.321-.45.416 0 1.179-.764 1.179-1.179 0-.177.145-.322.322-.322.415 0 1.179-.763 1.179-1.179 0-.177.202-.321.45-.321.247 0 .45-.203.45-.45 0-.248.145-.45.321-.45.416 0 1.179-.764 1.179-1.179 0-.177.275-.322.61-.322s.687-.202.782-.45c.095-.247.305-.45.466-.45s1.296-1.013 2.522-2.251 2.362-2.25 2.526-2.25.296-.145.296-.322c0-.415.764-1.179 1.179-1.179.177 0 .321-.202.321-.45 0-.247.145-.45.322-.45s.51-.169.74-.375c.993-.89 1.332-1.125 1.626-1.125.173 0 .313-.203.313-.45 0-.248.14-.45.31-.45.389 0 2.091-1.719 2.091-2.111 0-.16.135-.29.3-.29s.3-.277.3-.615c0-.942.724-2.116 2.103-3.412 2.014-1.892 2.249-3.691.573-4.385-1.756-.728-1.67-.795-18.43 14.577-6.527 5.987-7.482 6.758-7.68 6.204-.201-.564-.501-5.416-.838-13.569-.237-5.716-.587-7.028-1.966-7.374-2.007-.504-2.858.872-2.89 4.673-.03 3.61-.188 3.884-1.471 2.56-1.299-1.341-1.86-1.344-5.956-.037-18.021 5.748-36.945 1.838-51.909-10.726-2.695-2.263-6.466-6.686-9.756-11.442-1.892-2.735-2.806-3.794-3.205-3.71Zm175.09 7.517c-.439.29-1.598 1.473-2.577 2.628-15.081 17.795-40.355 23.976-63.632 15.562-3.373-1.219-3.415-1.221-4.586-.174-1.133 1.013-1.63 3.511-.764 3.843.269.103.488.376.488.606s.145.418.322.418.524.202.772.45c.247.248.702.45 1.011.45s.644.135.746.3.549.305.993.31 1.07.208 1.39.45 1.029.44 1.575.44c.547 0 .993.136.993.301s.743.3 1.651.3c1.267 0 1.65.104 1.65.45 0 .353.414.45 1.926.45 1.201 0 1.969.132 2.042.35.076.229 1.306.396 3.551.483 1.889.073 3.562.253 3.719.4.374.35 6.562.347 6.932-.003.157-.149 1.733-.321 3.503-.383 2-.069 3.357-.251 3.586-.479.206-.207 1.136-.368 2.117-.368 1.279 0 1.797-.121 1.923-.45.112-.292.577-.45 1.323-.45.633 0 1.234-.135 1.336-.3s.701-.301 1.332-.301c.652 0 1.306-.193 1.519-.45.205-.247.83-.45 1.387-.45s1.014-.124 1.014-.276.403-.365.896-.473c.494-.109.974-.322 1.068-.474s.569-.277 1.054-.277c.584 0 .882-.152.882-.45 0-.277.282-.45.733-.45.403 0 .816-.135.918-.3s.441-.301.753-.301.675-.168.807-.375c.281-.439 1.219-1.068 1.966-1.319.289-.097.525-.295.525-.441s.251-.265.558-.265.812-.338 1.122-.75c.309-.413.767-.755 1.017-.76.562-.013 1.804-1.02 1.804-1.464 0-.18.338-.327.75-.327.413 0 .75-.135.75-.3s.203-.3.451-.3c.247 0 .45-.203.45-.45 0-.248.144-.45.321-.45.416 0 1.179-.764 1.179-1.179 0-.177.203-.322.45-.322.248 0 .45-.179.45-.399s.338-.58.75-.801c.413-.221.751-.581.751-.801s.191-.399.426-.399c.245 0 .641-.648.934-1.531.28-.842 1.104-2.262 1.832-3.155 1.726-2.12 2.509-3.425 2.498-4.166-.021-1.521-1.95-2.346-3.337-1.428"/><path id="path1" fill="#fbfbfb" d="M218.905 12.353c-7.317.256-13.841.963-19.505 2.112l-5.702 1.157c-11.835 2.407-30.286 10.741-41.974 18.959-4.431 3.115-5.166 3.379-6.897 2.476-.985-.513-1.991-.588-1.991-.148a.3.3 0 0 1-.297.3c-.435 0-1.504.978-1.504 1.377 0 1.101 1.206 1.852 3.518 2.191 2.941.432 3.834 1.034 3.834 2.584 0 2.493-1.153 2.645-9.002 1.187-6.888-1.28-19.267-1.813-24.906-1.074-9.27 1.216-14.035 2.173-19.505 3.92-28.393 9.069-48.129 28.655-54.748 54.331-2.451 9.511-2.317 21.543.351 31.358l1.017 3.747c1.407 5.195-2.971 5.929-4.497.754-1.149-3.895-1.393-4.351-2.329-4.351-.473 0-.86.145-.86.322 0 .415-.763 1.179-1.178 1.179-.177 0-.322.202-.322.45 0 .247-.141.45-.312.45-.207 0-.245.746-.114 2.195l.199 2.195-1.869 2.231c-33.27 39.72-10.531 97.572 43.097 109.648 1.838.414 3.526.817 3.751.896.407.142 6.252.865 9.737 1.205 1.508.147 6.987.159 15.174.034 1.617-.025 2.282.447 3.134 2.228.669 1.394 1.989 1.665 2.905.595.814-.951.65-1.43-1.738-5.076-2.198-3.354-2.376-3.747-2.257-4.973.124-1.275 2.086-2.269 3.055-1.548.272.202 1.425 1.713 2.562 3.358 14.629 21.15 38.244 29.639 61.665 22.168 4.096-1.307 4.657-1.304 5.956.037 1.283 1.324 1.441 1.05 1.471-2.56.032-3.801.883-5.177 2.89-4.673 1.379.346 1.729 1.658 1.966 7.374.337 8.153.637 13.005.838 13.569.198.554 1.153-.217 7.68-6.204 16.76-15.372 16.674-15.305 18.43-14.577 1.676.694 1.441 2.493-.573 4.385-1.379 1.296-2.103 2.47-2.103 3.412 0 .831.972.805 1.354-.037.163-.358.676-.931 1.141-1.273l.844-.621 3.657 1.258c8.599 2.958 11.65 3.473 20.611 3.477 17.165.008 32.153-6.714 42.687-19.143 2.222-2.623 3.081-3.219 4.27-2.964 2.386.511 2.144 2.353-.76 5.797-1.81 2.146-2.552 4.219-1.51 4.219.962 0 1.524-.336 1.524-.91 0-.3.366-.979.813-1.511l.813-.965 4.513.194c28.871 1.243 53.577-14.079 56.981-35.337.425-2.655 1.075-3.844 2.317-4.238.726-.231.986-1.067.487-1.566-.354-.354-.997-.168-4.338 1.253-4.461 1.898-5.167 2.001-6.05.879-1.56-1.984-.543-3.036 5.83-6.027 4.667-2.191 7.535-3.854 13.089-7.586 3.098-2.083 9.184-7.497 11.517-10.246a239 239 0 0 1 3.325-3.842c6.331-7.065 11.879-19.6 13.62-30.774.86-5.519.735-15.797-.244-20.105-4.873-21.426-15.77-36.45-34.495-47.562-4.217-2.502-4.558-2.871-4.571-4.943-.011-1.678-.498-2.558-1.417-2.558-.335 0-.688-.203-.783-.451-.108-.28-.565-.45-1.219-.45-1.36 0-1.693 1.281-.931 3.577.765 2.301.008 3.925-1.827 3.925-1.339 0-2.061-.847-2.788-3.27-.327-1.09-.994-3.331-1.483-4.982-3.175-10.722-11.476-25.034-19.737-34.028-.97-1.056-1.928-2.153-2.129-2.437-.609-.862-8.727-8.132-12.104-10.84-13.915-11.159-33.171-19.64-52.347-23.057-2.641-.47-5.679-.94-6.752-1.045a106 106 0 0 1-4.051-.493c-3.317-.48-12.676-.736-18.904-.518"/></g></svg>