<svg xmlns="http://www.w3.org/2000/svg" id="svg" width="400" height="100.781" viewBox="0 0 400 100.781"><g id="svgg" fill-rule="evenodd" stroke="none"><path id="path0" fill="#090904" d="M9.833 42.5v41.333H20.64l.106-.482c.059-.266.26-.622.448-.792.331-.3 4.829-.311 159.615-.392 131.145-.069 159.367-.122 159.801-.303.863-.36.936-1.728.108-2.043-.249-.094-62.166-.154-159.454-.154-112.504 0-159.197-.053-159.559-.179-.504-.175-1.038-.976-1.038-1.555 0-.234-.369-.266-3.084-.266H14.5V7.333h363.167v1.232c0 1.173.02 1.237.413 1.336 1.077.27.998-2.263 1.054 33.932.028 18.013.004 33.288-.054 33.944-.176 1.991.893 1.794-10.225 1.89-9.88.085-9.96.091-10.026.75-.186 1.838-.793 1.75 12.004 1.75 10.529 0 10.827-.009 10.994-.323.118-.219.173-11.566.173-35.487V11.192l.586-.768.586-.768-.044-4.203-.045-4.203-186.625-.042L9.833 1.167Zm335.603 34.744c-.676 1.031-.426 1.405 3.622 5.423 4.032 4.001 4.06 4.04 4.285 5.832.2 1.598.228 1.668.667 1.668.212 0 .323.114.323.333 0 .244.111.333.417.333.333 0 .417.084.417.417 0 .287.091.417.293.417.162 0 .368.168.459.375.155.354.259.375 1.914.375 1.688 0 1.752-.014 1.804-.375.029-.207.117-.375.196-.375.764 0 .982-2.303.25-2.637-.229-.104-.416-.265-.416-.356 0-.092-.313-.327-.695-.522-.427-.218-2.811-2.465-6.192-5.836l-5.496-5.483h-.79c-.655 0-.835.07-1.058.411"/><path id="path1" fill="#fce404" d="M20.781 9.941c-.059.06-.11 15.313-.113 33.896l-.004 33.787.522.105c.287.057 72.339.104 160.115.104h159.594l.802.833.803.833v1.24c0 1.574-.135 1.912-1.01 2.518l-.711.493-160.063.042-160.062.043.023 2.364c.012 1.3.088 2.537.168 2.749l.147.385 165.962-.041 165.963-.042-165.75-.083-165.75-.084 165.708-.041c166.553-.042 167.157-.044 165.292-.549-.184-.049-.357-.252-.386-.45s-.198-.407-.377-.464-.286-.167-.237-.246-1.496-1.743-3.433-3.697c-3.931-3.966-3.817-3.795-3.817-5.722 0-2.327 1.073-3.278 2.989-2.652.915.3 12.511 11.537 12.511 12.124 0 .133.187.365.416.515.259.17.417.43.417.686V89l14.542.04 14.541.041-14.583.086-14.583.087 14.833-.002 14.833-.002.042-39.696.042-39.696-3.5-.018-3.5-.018v36.314c0 39.624.064 37.244-1.017 37.535-.874.236-22.781.15-23.185-.091-1.744-1.037-1.948-3.657-.412-5.288l.431-.459h18.852l-.043-33.958-.043-33.958-178.43-.042c-98.137-.023-178.48.007-178.539.066"/><path id="path2" fill="#5c5404" d="m378.26 10.344.49.511.043 33.748c.029 23.174-.012 33.849-.131 34.072-.169.316-.429.325-9.043.335-9.48.011-10.338.062-10.817.653-.688.851-.263 2.328.798 2.771.834.349 21.85.345 22.326-.004.319-.232.325-.837.407-35.708l.084-35.472.378-.708c.481-.9.351-.908-.294-.017l-.501.692v35.152c0 23.913-.055 35.256-.173 35.475-.167.314-.465.323-10.994.323-12.797 0-12.19.088-12.004-1.75.066-.659.146-.665 10.026-.75 11.118-.096 10.049.101 10.225-1.89.058-.656.082-15.931.054-33.944-.055-35.578-.002-33.555-.891-33.896-.483-.185-.48-.112.017.407m-32.343 66.109c-.446.109-.923.545-1.099 1.005-.355.93-.076 1.313 3.856 5.294 3.941 3.99 4.278 4.442 4.35 5.834.022.423.12.747.227.747.353 0-.028-2.151-.498-2.82-.231-.328-1.894-2.059-3.695-3.846-4.048-4.018-4.298-4.392-3.622-5.423.223-.341.403-.411 1.058-.411h.79l5.494 5.48c3.022 3.014 5.752 5.613 6.067 5.774.314.162.737.471.939.687s.46.393.574.393c.241 0-.861-1.103-1.638-1.64-.292-.202-2.907-2.727-5.811-5.611-5.066-5.032-5.876-5.717-6.576-5.562ZM20.839 78.605c.01.285.446.718.894.888.314.12 49.868.174 159.517.174 97.296 0 159.219.06 159.468.154.828.315.755 1.683-.108 2.043-.434.181-28.656.234-159.801.303-156.331.081-159.28.089-159.625.4-.411.373-.48.748-.075.412.233-.194 24.91-.242 159.708-.312 149.866-.079 159.464-.101 159.952-.368 1.224-.67 1.213-2.342-.019-2.964-.445-.224-18.069-.261-159.933-.335-134.798-.07-159.475-.119-159.708-.312-.152-.126-.273-.163-.27-.083"/><path id="path3" fill="#c1ac04" d="M377.84 10.333c.003.138.112.438.243.667.378.66.368 66.59-.009 67.13l-.26.37h-9.146c-10.32 0-9.841-.058-10.445 1.262-.478 1.045-.324 1.881.531 2.875l.384.446h23.058l.319-.393c.311-.385.318-1.184.32-35.5.001-19.309.04-35.407.087-35.773.063-.499.044-.583-.074-.334-.098.207-.162 13.724-.17 35.531-.012 36.784.008 35.866-.796 36.199-.731.303-22.146.19-22.689-.119-1.009-.575-1.258-2.545-.441-3.495l.386-.449 9.584-.083c5.271-.046 9.646-.146 9.723-.223.076-.076.138-15.226.138-33.666V11.25l-.374-.583c-.206-.321-.372-.471-.369-.334m-32.625 65.724c-.655.44-.945 1.223-.844 2.278.097 1.013.129 1.051 4.204 5.165 2.506 2.53 3.484 3.633 3.77 4.25.27.584.405.742.451.529.037-.167-.053-.435-.198-.596s-.265-.393-.265-.515-1.718-1.955-3.818-4.073c-4.086-4.12-4.203-4.289-3.947-5.655.182-.972 1.127-1.516 2.318-1.334.646.098 1.109.512 6.288 5.625 5 4.936 6.493 6.359 6.493 6.192 0-.249-11.809-11.734-12.297-11.96-.814-.377-1.497-.347-2.155.094m-324.23 2.081c.106.199.21.381.229.403.02.023 71.886.079 159.703.125 87.816.046 159.791.146 159.944.222 1.419.702 1.459 2.652.075 3.685l-.46.344-159.546.042c-159.225.042-159.547.043-159.847.375-.324.358-.121.47.225.124.167-.166 32.427-.225 159.742-.291 118.953-.062 159.639-.132 159.95-.274 1.637-.747 1.501-3.775-.19-4.249-.216-.061-72.102-.118-159.746-.127L21.712 78.5l-.461-.362-.46-.362Z"/><path id="path4" fill="#d4bc04" d="M378.129 44.308c.034 25.497-.001 33.363-.153 33.65l-.199.375-9.18.041-9.18.04 9.166.046 9.167.047.292-.355c.307-.375.469-66.448.164-66.928-.068-.106-.102 14.782-.077 33.084m4.746 2.632c-.041 34.532-.049 35.366-.36 35.75l-.319.393h-11.503c-7.744 0-11.411.055-11.223.167.634.378 21.933.306 22.682-.076.926-.472.864 2.303.811-36.507l-.047-35.084Zm-37.698 28.963c-.653.489-.843.741-.828 1.097.006.137.083.063.172-.167.371-.959 1.649-1.377 2.776-.909.581.242.602.241.34-.023-.495-.498-1.793-.497-2.46.002m2.823.308c0 .025 2.475 2.516 5.5 5.536 3.025 3.021 5.5 5.438 5.5 5.372 0-.134-10.783-10.952-10.916-10.952-.046 0-.084.02-.084.044M21.31 78.157l.394.343 159.356-.041 159.357-.042-159.334-.083c-130.69-.069-159.408-.123-159.75-.302l-.416-.217Zm319.47.459c.376.073 1.111.918 1.379 1.584.099.248.157.289.164.116.019-.477-1.133-1.818-1.539-1.793l-.367.022Zm17.961.012c-.442.308-.963 1.454-.956 2.103.007.68.748 2.269 1.058 2.269.081 0-.034-.266-.254-.592-.922-1.358-.693-3.277.445-3.733.21-.085.27-.157.133-.162a.8.8 0 0 0-.426.115m-14.395.341c-.019.325.305.864.519.864.112 0 .085-.116-.067-.291a2.2 2.2 0 0 1-.346-.542c-.064-.172-.096-.182-.106-.031m.656 1.058c-.003.147 6.838 7.022 6.912 6.948.032-.033-1.509-1.634-3.426-3.559-1.916-1.924-3.485-3.45-3.486-3.389m-2.835 1.396c0 .383-.691 1.253-1.167 1.47-.311.142-40.997.212-159.95.274-106.022.055-159.589.139-159.7.25-.337.337 318.79.052 319.505-.286.902-.425 1.994-1.964 1.395-1.964-.046 0-.083.115-.083.256"/><path id="path5" fill="#847404" d="m378.666 44.828-.083 33.745-.416.211c-.403.204-.404.211-.048.214.731.004.717.741.673-34.279l-.042-33.636Zm3.667 1.955c-.067 28.705-.124 35.408-.3 35.584-.171.171-2.464.234-11 .302l-10.783.086 10.69.039c10.308.038 10.704.028 11.083-.279l.394-.319.043-25.306c.023-13.919.023-29.844-.001-35.39s-.081 5.832-.126 25.283m-36 29.457c0 .044.291.159.647.255.532.143 1.575 1.096 5.89 5.381 2.884 2.864 5.387 5.314 5.562 5.445.175.13-2.007-2.101-4.849-4.958s-5.429-5.374-5.75-5.593c-.545-.372-1.5-.709-1.5-.53m-1.225.502c-.243.225-.437.544-.431.708.01.264.027.26.147-.033.175-.427.666-.86 1.093-.964.319-.078.318-.082-.018-.1-.193-.011-.549.164-.791.389M21.219 78.708c.175.161.478.286.674.278.29-.012.268-.041-.112-.155-.258-.078-.561-.203-.675-.278-.113-.075-.062-.005.113.155m323.782.459c.116.229 1.84 2.066 3.829 4.083 3.316 3.361 3.839 4.006 4.058 5 .069.314.074.313.093-.021.049-.902-.589-1.717-4.291-5.479a619 619 0 0 1-3.837-3.917c-.036-.046.031.105.148.334m-4.853 0c.403.086.89.288 1.084.447l.351.29-.35-.381c-.235-.255-.593-.403-1.084-.448l-.732-.066Zm19.019-.043c-.277.107-.653.546-.662.769-.003.079.133-.026.302-.235.192-.237.581-.423 1.041-.497.677-.11.689-.12.152-.127-.321-.004-.696.036-.833.09m-17.491 2.043c-.03.453-.595 1.011-1.266 1.25-.363.129-.525.238-.36.242.735.018 1.925-1.049 1.724-1.544-.051-.124-.087-.105-.098.052m16.829.421c.014.411.869 1.087 1.359 1.072.121-.003-.015-.108-.301-.233-.286-.124-.642-.401-.792-.614-.149-.213-.269-.314-.266-.225m-257.38 1.204c43.748.023 115.335.023 159.083 0s7.955-.042-79.541-.042-123.29.019-79.542.042"/><path id="path6" fill="#8c7c04" d="M378.213 10.674c.137.233.286.57.332.75.077.301.084.299.102-.031.011-.196-.138-.533-.332-.75l-.351-.393Zm4.505.201c-.074.115-.172 16.209-.218 35.765l-.083 35.556-.401.324c-.389.315-.713.323-11.333.277-11.506-.049-11.374-.041-11.984-.783-.185-.224-.19-.208-.038.107.389.802.253.793 11.832.843 11.624.051 11.719.045 12.021-.751.091-.238.153-14.672.153-35.546 0-22.432.058-35.3.162-35.573.172-.453.114-.567-.111-.219M345.67 76.18c-.47.194-1.003.64-1.003.838 0 .073.189-.043.421-.258.232-.214.661-.425.953-.468 1.227-.18 1.436-.015 7.17 5.684 3.011 2.992 5.676 5.536 5.923 5.653l.449.213-.416-.286c-.229-.158-2.935-2.785-6.013-5.838s-5.712-5.551-5.854-5.551-.474-.036-.737-.079a1.9 1.9 0 0 0-.893.092m-1.148 1.684c-.039 1.084.27 1.487 4.073 5.314 2.056 2.069 3.738 3.879 3.738 4.022 0 .142.117.356.26.474.231.192.236.163.051-.271-.114-.267-1.832-2.136-3.819-4.153-3.856-3.914-4-4.096-4.17-5.25-.108-.735-.111-.738-.133-.136m33.997.258c-.028.547.062.541-10.075.587l-9.306.041-.386.449c-.465.54-.669 1.573-.423 2.139.176.406.177.406.086-.056-.119-.6.04-1.439.354-1.865.239-.325.488-.336 9.816-.417 10.308-.09 10.253-.085 10.034-.939-.067-.26-.083-.25-.1.061m-357.686.009c0 .107.203.328.451.49.431.282 7.618.299 159.975.379 138.158.072 159.562.115 159.811.322 1.118.928.971 2.447-.303 3.145-.485.266-10.343.288-159.934.367l-159.416.084 159.529-.001h159.53l.46-.344c1.384-1.033 1.344-2.983-.075-3.685-.153-.076-72.115-.176-159.916-.221-157.783-.083-159.641-.087-159.875-.407-.13-.178-.237-.236-.237-.129"/><path id="path7" fill="#e4cc04" d="m378 44.75-.083 33.167-9.334.083c-7.916.071-9.391.121-9.715.333-.46.302-1.206 1.524-1.188 1.947.01.223.034.238.091.053.646-2.071.245-1.998 10.993-1.999l9.013-.001.198-.375c.151-.286.187-8.177.153-33.375l-.045-33Zm-31.958 30.698c.16.042.423.042.583 0s.029-.076-.292-.076-.452.034-.291.076m-1.196.483c-.282.238-.512.519-.51.625.002.135.043.13.135-.015.073-.115.387-.396.697-.625s.48-.416.377-.416c-.102 0-.417.194-.699.431m2.305-.312c.398.157 1.383.866 1.632 1.173.216.267.222.263.069-.054-.196-.41-1.35-1.244-1.694-1.225-.203.011-.204.028-.007.106M344.212 78c0 .412.033.581.072.375.04-.206.04-.544 0-.75-.039-.206-.072-.038-.072.375m5.639-.121c.219.208.643.626.941.929s.541.504.541.447c0-.143-1.622-1.755-1.766-1.755-.064 0 .064.17.284.379m-328.381.204c.228.136 319.247.438 319.505.303.674-.354-12.211-.388-160.522-.427-106.231-.028-159.169.013-158.983.124m320.483 1.487c.326.436.444.456.288.05a.7.7 0 0 0-.343-.354c-.182-.07-.169.005.055.304m10.231.642c.22.208.643.626.941.929s.542.504.542.447c0-.143-1.623-1.755-1.767-1.755-.063 0 .064.171.284.379m-7.184.103c0 .081.188.27.417.42s.416.247.416.216c0-.032-.187-.221-.416-.42s-.417-.296-.417-.216m-2.625.602c.002.366.036.497.076.289.04-.207.039-.507-.003-.666-.042-.16-.074.01-.073.377m15.311.356c-.011.196.139.534.332.75l.352.394-.25-.424a3.6 3.6 0 0 1-.332-.75c-.076-.301-.084-.299-.102.03m-11.502.272c.22.209.643.627.941.93s.542.504.542.447c0-.143-1.623-1.755-1.767-1.755-.063 0 .064.17.284.378m-4.422.939-.488.599.563-.536c.309-.295.529-.565.488-.599-.041-.035-.295.207-.563.536m12.755.061c.22.209.643.627.941.93s.542.504.542.447c0-.143-1.623-1.755-1.766-1.755-.064 0 .064.17.283.378m28.329-.007c-.007.162-.308.439-.686.632-.85.434-22.042.457-22.799.025-.214-.122-.427-.185-.473-.139-.524.524 21.255.956 22.96.456.68-.2 1.228-.721 1.099-1.044q-.087-.214-.101.07m-42.263.675c-.261.16-34.774.222-159.861.287-87.74.046-159.565.121-159.611.167-.122.122 316.924.034 318.333-.089.657-.057 1.332-.208 1.5-.336.377-.285.097-.308-.361-.029m7.934.666c.22.208.643.626.941.929s.542.504.542.447c0-.143-1.623-1.755-1.766-1.755-.064 0 .064.17.283.379m8.334 1c.219.208.643.626.941.929s.541.504.541.447c0-.143-1.622-1.755-1.766-1.755-.064 0 .064.17.284.379m-6 1.333c.219.208.604.639.855.958s.408.44.35.27c-.113-.33-1.297-1.607-1.49-1.607-.063 0 .065.171.285.379m7.854.428c.229.338.965.972.96.828-.001-.028-.277-.314-.614-.635-.38-.362-.511-.435-.346-.193"/><path id="path8" fill="#ecd404" d="m377.875 44.458-.042 33.375h-18.849l-.431.459c-1.289 1.369-1.454 2.895-.463 4.289.884 1.243.104 1.164 12.077 1.22 11.232.053 12.151.024 12.581-.406.449-.449.267-.582-.262-.192l-.514.38h-22.389l-.625-.388c-.343-.214-.625-.465-.625-.557 0-.093-.15-.359-.333-.593-.485-.616-.45-1.87.076-2.765.745-1.266.112-1.191 10.473-1.245 7.087-.037 9.318-.096 9.377-.25.042-.111.057-15.164.033-33.452l-.043-33.25Zm5.207 2.709c0 19.57.019 27.577.043 17.791.024-9.785.024-25.798 0-35.583s-.043-1.779-.043 17.792m-37.776 28.195c-.835.359-1.227.956-1.092 1.664.059.31.079.282.097-.136.027-.637.765-1.327 1.584-1.48 1.387-.26 1.524-.153 7.799 6.105 3.216 3.208 5.884 5.796 5.929 5.751s-2.531-2.686-5.725-5.869c-6.777-6.753-6.833-6.793-8.592-6.035M180.917 78c134.927.07 159.564.119 159.916.313.586.322 1.359 1.183 1.51 1.682l.128.422.015-.459c.01-.333-.206-.688-.789-1.292l-.802-.833-159.739.042-159.739.041Zm163.416 1.805c0 .078 1.614 1.772 3.586 3.764s3.546 3.686 3.498 3.764c-.049.079.063.191.247.25.185.058.336.247.336.418 0 .172.068.355.151.406.309.191-.054-.68-.552-1.324-.283-.366-1.884-2.033-3.557-3.703S345 80.284 345 80.212s-.15-.225-.333-.34c-.184-.114-.334-.144-.334-.067m-1.98 1.955c-.021.365-.614.992-1.429 1.51-.481.306-4.268.315-160.083.397l-159.591.084h159.764l159.765-.001.711-.493c.72-.499 1.082-1.097.953-1.577q-.072-.273-.09.08m-238.061 7.365c45.581.023 120.168.023 165.75 0s8.287-.042-82.875-.042-128.457.019-82.875.042m263.416 0c4.011.025 10.573.025 14.584 0s.729-.045-7.292-.045-11.302.02-7.292.045"/></g></svg>