<svg xmlns="http://www.w3.org/2000/svg" xmlns:xlink="http://www.w3.org/1999/xlink" id="svg" version="1.1" width="400" height="100.78125" viewBox="0, 0, 400,100.78125"><g id="svgg"><path id="path0" d="M9.833 42.500 L 9.833 83.833 15.237 83.833 L 20.640 83.833 20.746 83.351 C 20.805 83.085,21.006 82.729,21.194 82.559 C 21.525 82.259,26.023 82.248,180.809 82.167 C 311.954 82.098,340.176 82.045,340.610 81.864 C 341.473 81.504,341.546 80.136,340.718 79.821 C 340.469 79.727,278.552 79.667,181.264 79.667 C 68.760 79.667,22.067 79.614,21.705 79.488 C 21.201 79.313,20.667 78.512,20.667 77.933 C 20.667 77.699,20.298 77.667,17.583 77.667 L 14.500 77.667 14.500 42.500 L 14.500 7.333 196.083 7.333 L 377.667 7.333 377.667 8.565 C 377.667 9.738,377.687 9.802,378.080 9.901 C 379.157 10.171,379.078 7.638,379.134 43.833 C 379.162 61.846,379.138 77.121,379.080 77.777 C 378.904 79.768,379.973 79.571,368.855 79.667 C 358.975 79.752,358.895 79.758,358.829 80.417 C 358.643 82.255,358.036 82.167,370.833 82.167 C 381.362 82.167,381.660 82.158,381.827 81.844 C 381.945 81.625,382.000 70.278,382.000 46.357 L 382.000 11.192 382.586 10.424 L 383.172 9.656 383.128 5.453 L 383.083 1.250 196.458 1.208 L 9.833 1.167 9.833 42.500 M345.436 77.244 C 344.760 78.275,345.010 78.649,349.058 82.667 C 353.090 86.668,353.118 86.707,353.343 88.499 C 353.543 90.097,353.571 90.167,354.010 90.167 C 354.222 90.167,354.333 90.281,354.333 90.500 C 354.333 90.744,354.444 90.833,354.750 90.833 C 355.083 90.833,355.167 90.917,355.167 91.250 C 355.167 91.537,355.258 91.667,355.460 91.667 C 355.622 91.667,355.828 91.835,355.919 92.042 C 356.074 92.396,356.178 92.417,357.833 92.417 C 359.521 92.417,359.585 92.403,359.637 92.042 C 359.666 91.835,359.754 91.667,359.833 91.667 C 360.597 91.667,360.815 89.364,360.083 89.030 C 359.854 88.926,359.667 88.765,359.667 88.674 C 359.667 88.582,359.354 88.347,358.972 88.152 C 358.545 87.934,356.161 85.687,352.780 82.316 L 347.284 76.833 346.494 76.833 C 345.839 76.833,345.659 76.903,345.436 77.244 " stroke="none" fill="#090904" fill-rule="evenodd"/><path id="path1" d="M20.781 9.941 C 20.722 10.001,20.671 25.254,20.668 43.837 L 20.664 77.624 21.186 77.729 C 21.473 77.786,93.525 77.833,181.301 77.833 L 340.895 77.833 341.697 78.666 L 342.500 79.499 342.500 80.739 C 342.500 82.313,342.365 82.651,341.490 83.257 L 340.779 83.750 180.716 83.792 L 20.654 83.835 20.677 86.199 C 20.689 87.499,20.765 88.736,20.845 88.948 L 20.992 89.333 186.954 89.292 L 352.917 89.250 187.167 89.167 L 21.417 89.083 187.125 89.042 C 353.678 89.000,354.282 88.998,352.417 88.493 C 352.233 88.444,352.060 88.241,352.031 88.043 C 352.002 87.845,351.833 87.636,351.654 87.579 C 351.475 87.522,351.368 87.412,351.417 87.333 C 351.466 87.254,349.921 85.590,347.984 83.636 C 344.053 79.670,344.167 79.841,344.167 77.914 C 344.167 75.587,345.240 74.636,347.156 75.262 C 348.071 75.562,359.667 86.799,359.667 87.386 C 359.667 87.519,359.854 87.751,360.083 87.901 C 360.342 88.071,360.500 88.331,360.500 88.587 L 360.500 89.000 375.042 89.040 L 389.583 89.081 375.000 89.167 L 360.417 89.254 375.250 89.252 L 390.083 89.250 390.125 49.554 L 390.167 9.858 386.667 9.840 L 383.167 9.822 383.167 46.136 C 383.167 85.760,383.231 83.380,382.150 83.671 C 381.276 83.907,359.369 83.821,358.965 83.580 C 357.221 82.543,357.017 79.923,358.553 78.292 L 358.984 77.833 368.410 77.833 L 377.836 77.833 377.793 43.875 L 377.750 9.917 199.320 9.875 C 101.183 9.852,20.840 9.882,20.781 9.941 " stroke="none" fill="#fce404" fill-rule="evenodd"/><path id="path2" d="M378.260 10.344 L 378.750 10.855 378.793 44.603 C 378.822 67.777,378.781 78.452,378.662 78.675 C 378.493 78.991,378.233 79.000,369.619 79.010 C 360.139 79.021,359.281 79.072,358.802 79.663 C 358.114 80.514,358.539 81.991,359.600 82.434 C 360.434 82.783,381.450 82.779,381.926 82.430 C 382.245 82.198,382.251 81.593,382.333 46.722 L 382.417 11.250 382.795 10.542 C 383.276 9.642,383.146 9.634,382.501 10.525 L 382.000 11.217 382.000 46.369 C 382.000 70.282,381.945 81.625,381.827 81.844 C 381.660 82.158,381.362 82.167,370.833 82.167 C 358.036 82.167,358.643 82.255,358.829 80.417 C 358.895 79.758,358.975 79.752,368.855 79.667 C 379.973 79.571,378.904 79.768,379.080 77.777 C 379.138 77.121,379.162 61.846,379.134 43.833 C 379.079 8.255,379.132 10.278,378.243 9.937 C 377.760 9.752,377.763 9.825,378.260 10.344 M345.917 76.453 C 345.471 76.562,344.994 76.998,344.818 77.458 C 344.463 78.388,344.742 78.771,348.674 82.752 C 352.615 86.742,352.952 87.194,353.024 88.586 C 353.046 89.009,353.144 89.333,353.251 89.333 C 353.604 89.333,353.223 87.182,352.753 86.513 C 352.522 86.185,350.859 84.454,349.058 82.667 C 345.010 78.649,344.760 78.275,345.436 77.244 C 345.659 76.903,345.839 76.833,346.494 76.833 L 347.284 76.833 352.778 82.313 C 355.800 85.327,358.530 87.926,358.845 88.087 C 359.159 88.249,359.582 88.558,359.784 88.774 C 359.986 88.990,360.244 89.167,360.358 89.167 C 360.599 89.167,359.497 88.064,358.720 87.527 C 358.428 87.325,355.813 84.800,352.909 81.916 C 347.843 76.884,347.033 76.199,346.333 76.354 C 346.287 76.364,346.100 76.409,345.917 76.453 M20.839 78.605 C 20.849 78.890,21.285 79.323,21.733 79.493 C 22.047 79.613,71.601 79.667,181.250 79.667 C 278.546 79.667,340.469 79.727,340.718 79.821 C 341.546 80.136,341.473 81.504,340.610 81.864 C 340.176 82.045,311.954 82.098,180.809 82.167 C 24.478 82.248,21.529 82.256,21.184 82.567 C 20.773 82.940,20.704 83.315,21.109 82.979 C 21.342 82.785,46.019 82.737,180.817 82.667 C 330.683 82.588,340.281 82.566,340.769 82.299 C 341.993 81.629,341.982 79.957,340.750 79.335 C 340.305 79.111,322.681 79.074,180.817 79.000 C 46.019 78.930,21.342 78.881,21.109 78.688 C 20.957 78.562,20.836 78.525,20.839 78.605 " stroke="none" fill="#5c5404" fill-rule="evenodd"/><path id="path3" d="M377.840 10.333 C 377.843 10.471,377.952 10.771,378.083 11.000 C 378.461 11.660,378.451 77.590,378.074 78.130 L 377.814 78.500 368.668 78.500 C 358.348 78.500,358.827 78.442,358.223 79.762 C 357.745 80.807,357.899 81.643,358.754 82.637 L 359.138 83.083 370.667 83.083 L 382.196 83.083 382.515 82.690 C 382.826 82.305,382.833 81.506,382.835 47.190 C 382.836 27.881,382.875 11.783,382.922 11.417 C 382.985 10.918,382.966 10.834,382.848 11.083 C 382.750 11.290,382.686 24.807,382.678 46.614 C 382.666 83.398,382.686 82.480,381.882 82.813 C 381.151 83.116,359.736 83.003,359.193 82.694 C 358.184 82.119,357.935 80.149,358.752 79.199 L 359.138 78.750 368.722 78.667 C 373.993 78.621,378.368 78.521,378.445 78.444 C 378.521 78.368,378.583 63.218,378.583 44.778 L 378.583 11.250 378.209 10.667 C 378.003 10.346,377.837 10.196,377.840 10.333 M345.215 76.057 C 344.560 76.497,344.270 77.280,344.371 78.335 C 344.468 79.348,344.500 79.386,348.575 83.500 C 351.081 86.030,352.059 87.133,352.345 87.750 C 352.615 88.334,352.750 88.492,352.796 88.279 C 352.833 88.112,352.743 87.844,352.598 87.683 C 352.452 87.522,352.333 87.290,352.333 87.168 C 352.333 87.046,350.615 85.213,348.515 83.095 C 344.429 78.975,344.312 78.806,344.568 77.440 C 344.750 76.468,345.695 75.924,346.886 76.106 C 347.532 76.204,347.995 76.618,353.174 81.731 C 358.174 86.667,359.667 88.090,359.667 87.923 C 359.667 87.674,347.858 76.189,347.370 75.963 C 346.556 75.586,345.873 75.616,345.215 76.057 M20.985 78.138 C 21.091 78.337,21.195 78.519,21.214 78.541 C 21.234 78.564,93.100 78.620,180.917 78.666 C 268.733 78.712,340.708 78.812,340.861 78.888 C 342.280 79.590,342.320 81.540,340.936 82.573 L 340.476 82.917 180.930 82.959 C 21.705 83.001,21.383 83.002,21.083 83.334 C 20.759 83.692,20.962 83.804,21.308 83.458 C 21.475 83.292,53.735 83.233,181.050 83.167 C 300.003 83.105,340.689 83.035,341.000 82.893 C 342.637 82.146,342.501 79.118,340.810 78.644 C 340.594 78.583,268.708 78.526,181.064 78.517 L 21.712 78.500 21.251 78.138 L 20.791 77.776 20.985 78.138 " stroke="none" fill="#c1ac04" fill-rule="evenodd"/><path id="path4" d="M378.129 44.308 C 378.163 69.805,378.128 77.671,377.976 77.958 L 377.777 78.333 368.597 78.374 L 359.417 78.414 368.583 78.460 L 377.750 78.507 378.042 78.152 C 378.349 77.777,378.511 11.704,378.206 11.224 C 378.138 11.118,378.104 26.006,378.129 44.308 M382.875 46.940 C 382.834 81.472,382.826 82.306,382.515 82.690 L 382.196 83.083 370.693 83.083 C 362.949 83.083,359.282 83.138,359.470 83.250 C 360.104 83.628,381.403 83.556,382.152 83.174 C 383.078 82.702,383.016 85.477,382.963 46.667 L 382.916 11.583 382.875 46.940 M345.177 75.903 C 344.524 76.392,344.334 76.644,344.349 77.000 C 344.355 77.137,344.432 77.063,344.521 76.833 C 344.892 75.874,346.170 75.456,347.297 75.924 C 347.878 76.166,347.899 76.165,347.637 75.901 C 347.142 75.403,345.844 75.404,345.177 75.903 M348.000 76.211 C 348.000 76.236,350.475 78.727,353.500 81.747 C 356.525 84.768,359.000 87.185,359.000 87.119 C 359.000 86.985,348.217 76.167,348.084 76.167 C 348.038 76.167,348.000 76.187,348.000 76.211 M21.310 78.157 L 21.704 78.500 181.060 78.459 L 340.417 78.417 181.083 78.334 C 50.393 78.265,21.675 78.211,21.333 78.032 L 20.917 77.815 21.310 78.157 M340.780 78.616 C 341.156 78.689,341.891 79.534,342.159 80.200 C 342.258 80.448,342.316 80.489,342.323 80.316 C 342.342 79.839,341.190 78.498,340.784 78.523 L 340.417 78.545 340.780 78.616 M358.741 78.628 C 358.299 78.936,357.778 80.082,357.785 80.731 C 357.792 81.411,358.533 83.000,358.843 83.000 C 358.924 83.000,358.809 82.734,358.589 82.408 C 357.667 81.050,357.896 79.131,359.034 78.675 C 359.244 78.590,359.304 78.518,359.167 78.513 C 359.029 78.509,358.838 78.560,358.741 78.628 M344.346 78.969 C 344.327 79.294,344.651 79.833,344.865 79.833 C 344.977 79.833,344.950 79.717,344.798 79.542 C 344.658 79.381,344.502 79.137,344.452 79.000 C 344.388 78.828,344.356 78.818,344.346 78.969 M345.002 80.027 C 344.999 80.174,351.840 87.049,351.914 86.975 C 351.946 86.942,350.405 85.341,348.488 83.416 C 346.572 81.492,345.003 79.966,345.002 80.027 M342.167 81.423 C 342.167 81.806,341.476 82.676,341.000 82.893 C 340.689 83.035,300.003 83.105,181.050 83.167 C 75.028 83.222,21.461 83.306,21.350 83.417 C 21.013 83.754,340.140 83.469,340.855 83.131 C 341.757 82.706,342.849 81.167,342.250 81.167 C 342.204 81.167,342.167 81.282,342.167 81.423 " stroke="none" fill="#d4bc04" fill-rule="evenodd"/><path id="path5" d="M378.666 44.828 L 378.583 78.573 378.167 78.784 C 377.764 78.988,377.763 78.995,378.119 78.998 C 378.850 79.002,378.836 79.739,378.792 44.719 L 378.750 11.083 378.666 44.828 M382.333 46.783 C 382.266 75.488,382.209 82.191,382.033 82.367 C 381.862 82.538,379.569 82.601,371.033 82.669 L 360.250 82.755 370.940 82.794 C 381.248 82.832,381.644 82.822,382.023 82.515 L 382.417 82.196 382.460 56.890 C 382.483 42.971,382.483 27.046,382.459 21.500 C 382.435 15.954,382.378 27.332,382.333 46.783 M346.333 76.240 C 346.333 76.284,346.624 76.399,346.980 76.495 C 347.512 76.638,348.555 77.591,352.870 81.876 C 355.754 84.740,358.257 87.190,358.432 87.321 C 358.607 87.451,356.425 85.220,353.583 82.363 C 350.742 79.506,348.154 76.989,347.833 76.770 C 347.288 76.398,346.333 76.061,346.333 76.240 M345.108 76.742 C 344.865 76.967,344.671 77.286,344.677 77.450 C 344.687 77.714,344.704 77.710,344.824 77.417 C 344.999 76.990,345.490 76.557,345.917 76.453 C 346.236 76.375,346.235 76.371,345.899 76.353 C 345.706 76.342,345.350 76.517,345.108 76.742 M21.219 78.708 C 21.394 78.869,21.697 78.994,21.893 78.986 C 22.183 78.974,22.161 78.945,21.781 78.831 C 21.523 78.753,21.220 78.628,21.106 78.553 C 20.993 78.478,21.044 78.548,21.219 78.708 M345.001 79.167 C 345.117 79.396,346.841 81.233,348.830 83.250 C 352.146 86.611,352.669 87.256,352.888 88.250 C 352.957 88.564,352.962 88.563,352.981 88.229 C 353.030 87.327,352.392 86.512,348.690 82.750 C 346.615 80.642,344.889 78.879,344.853 78.833 C 344.817 78.787,344.884 78.938,345.001 79.167 M340.148 79.167 C 340.551 79.253,341.038 79.455,341.232 79.614 L 341.583 79.904 341.233 79.523 C 340.998 79.268,340.640 79.120,340.149 79.075 L 339.417 79.009 340.148 79.167 M359.167 79.124 C 358.890 79.231,358.514 79.670,358.505 79.893 C 358.502 79.972,358.638 79.867,358.807 79.658 C 358.999 79.421,359.388 79.235,359.848 79.161 C 360.525 79.051,360.537 79.041,360.000 79.034 C 359.679 79.030,359.304 79.070,359.167 79.124 M341.676 81.167 C 341.646 81.620,341.081 82.178,340.410 82.417 C 340.047 82.546,339.885 82.655,340.050 82.659 C 340.785 82.677,341.975 81.610,341.774 81.115 C 341.723 80.991,341.687 81.010,341.676 81.167 M358.505 81.588 C 358.519 81.999,359.374 82.675,359.864 82.660 C 359.985 82.657,359.849 82.552,359.563 82.427 C 359.277 82.303,358.921 82.026,358.771 81.813 C 358.622 81.600,358.502 81.499,358.505 81.588 M101.125 82.792 C 144.873 82.815,216.460 82.815,260.208 82.792 C 303.956 82.769,268.163 82.750,180.667 82.750 C 93.171 82.750,57.377 82.769,101.125 82.792 " stroke="none" fill="#847404" fill-rule="evenodd"/><path id="path6" d="M378.213 10.674 C 378.350 10.907,378.499 11.244,378.545 11.424 C 378.622 11.725,378.629 11.723,378.647 11.393 C 378.658 11.197,378.509 10.860,378.315 10.643 L 377.964 10.250 378.213 10.674 M382.718 10.875 C 382.644 10.990,382.546 27.084,382.500 46.640 L 382.417 82.196 382.016 82.520 C 381.627 82.835,381.303 82.843,370.683 82.797 C 359.177 82.748,359.309 82.756,358.699 82.014 C 358.514 81.790,358.509 81.806,358.661 82.121 C 359.050 82.923,358.914 82.914,370.493 82.964 C 382.117 83.015,382.212 83.009,382.514 82.213 C 382.605 81.975,382.667 67.541,382.667 46.667 C 382.667 24.235,382.725 11.367,382.829 11.094 C 383.001 10.641,382.943 10.527,382.718 10.875 M345.670 76.180 C 345.200 76.374,344.667 76.820,344.667 77.018 C 344.667 77.091,344.856 76.975,345.088 76.760 C 345.320 76.546,345.749 76.335,346.041 76.292 C 347.268 76.112,347.477 76.277,353.211 81.976 C 356.222 84.968,358.887 87.512,359.134 87.629 L 359.583 87.842 359.167 87.556 C 358.938 87.398,356.232 84.771,353.154 81.718 C 350.076 78.665,347.442 76.167,347.300 76.167 C 347.158 76.167,346.826 76.131,346.563 76.088 C 346.299 76.044,345.897 76.086,345.670 76.180 M344.522 77.864 C 344.483 78.948,344.792 79.351,348.595 83.178 C 350.651 85.247,352.333 87.057,352.333 87.200 C 352.333 87.342,352.450 87.556,352.593 87.674 C 352.824 87.866,352.829 87.837,352.644 87.403 C 352.530 87.136,350.812 85.267,348.825 83.250 C 344.969 79.336,344.825 79.154,344.655 78.000 C 344.547 77.265,344.544 77.262,344.522 77.864 M378.519 78.122 C 378.491 78.669,378.581 78.663,368.444 78.709 L 359.138 78.750 358.752 79.199 C 358.287 79.739,358.083 80.772,358.329 81.338 C 358.505 81.744,358.506 81.744,358.415 81.282 C 358.296 80.682,358.455 79.843,358.769 79.417 C 359.008 79.092,359.257 79.081,368.585 79.000 C 378.893 78.910,378.838 78.915,378.619 78.061 C 378.552 77.801,378.536 77.811,378.519 78.122 M20.833 78.131 C 20.833 78.238,21.036 78.459,21.284 78.621 C 21.715 78.903,28.902 78.920,181.259 79.000 C 319.417 79.072,340.821 79.115,341.070 79.322 C 342.188 80.250,342.041 81.769,340.767 82.467 C 340.282 82.733,330.424 82.755,180.833 82.834 L 21.417 82.918 180.946 82.917 L 340.476 82.917 340.936 82.573 C 342.320 81.540,342.280 79.590,340.861 78.888 C 340.708 78.812,268.746 78.712,180.945 78.667 C 23.162 78.584,21.304 78.580,21.070 78.260 C 20.940 78.082,20.833 78.024,20.833 78.131 " stroke="none" fill="#8c7c04" fill-rule="evenodd"/><path id="path7" d="M378.000 44.750 L 377.917 77.917 368.583 78.000 C 360.667 78.071,359.192 78.121,358.868 78.333 C 358.408 78.635,357.662 79.857,357.680 80.280 C 357.690 80.503,357.714 80.518,357.771 80.333 C 358.417 78.262,358.016 78.335,368.764 78.334 L 377.777 78.333 377.975 77.958 C 378.126 77.672,378.162 69.781,378.128 44.583 L 378.083 11.583 378.000 44.750 M346.042 75.448 C 346.202 75.490,346.465 75.490,346.625 75.448 C 346.785 75.406,346.654 75.372,346.333 75.372 C 346.012 75.372,345.881 75.406,346.042 75.448 M344.846 75.931 C 344.564 76.169,344.334 76.450,344.336 76.556 C 344.338 76.691,344.379 76.686,344.471 76.541 C 344.544 76.426,344.858 76.145,345.168 75.916 C 345.478 75.687,345.648 75.500,345.545 75.500 C 345.443 75.500,345.128 75.694,344.846 75.931 M347.151 75.619 C 347.549 75.776,348.534 76.485,348.783 76.792 C 348.999 77.059,349.005 77.055,348.852 76.738 C 348.656 76.328,347.502 75.494,347.158 75.513 C 346.955 75.524,346.954 75.541,347.151 75.619 M344.212 78.000 C 344.212 78.412,344.245 78.581,344.284 78.375 C 344.324 78.169,344.324 77.831,344.284 77.625 C 344.245 77.419,344.212 77.587,344.212 78.000 M349.851 77.879 C 350.070 78.087,350.494 78.505,350.792 78.808 C 351.090 79.111,351.333 79.312,351.333 79.255 C 351.333 79.112,349.711 77.500,349.567 77.500 C 349.503 77.500,349.631 77.670,349.851 77.879 M21.470 78.083 C 21.698 78.219,340.717 78.521,340.975 78.386 C 341.649 78.032,328.764 77.998,180.453 77.959 C 74.222 77.931,21.284 77.972,21.470 78.083 M341.953 79.570 C 342.279 80.006,342.397 80.026,342.241 79.620 C 342.186 79.477,342.032 79.317,341.898 79.266 C 341.716 79.196,341.729 79.271,341.953 79.570 M352.184 80.212 C 352.404 80.420,352.827 80.838,353.125 81.141 C 353.423 81.444,353.667 81.645,353.667 81.588 C 353.667 81.445,352.044 79.833,351.900 79.833 C 351.837 79.833,351.964 80.004,352.184 80.212 M345.000 80.315 C 345.000 80.396,345.188 80.585,345.417 80.735 C 345.646 80.885,345.833 80.982,345.833 80.951 C 345.833 80.919,345.646 80.730,345.417 80.531 C 345.188 80.332,345.000 80.235,345.000 80.315 M342.375 80.917 C 342.377 81.283,342.411 81.414,342.451 81.206 C 342.491 80.999,342.490 80.699,342.448 80.540 C 342.406 80.380,342.374 80.550,342.375 80.917 M357.686 81.273 C 357.675 81.469,357.825 81.807,358.018 82.023 L 358.370 82.417 358.120 81.993 C 357.983 81.760,357.834 81.423,357.788 81.243 C 357.712 80.942,357.704 80.944,357.686 81.273 M346.184 81.545 C 346.404 81.754,346.827 82.172,347.125 82.475 C 347.423 82.778,347.667 82.979,347.667 82.922 C 347.667 82.779,346.044 81.167,345.900 81.167 C 345.837 81.167,345.964 81.337,346.184 81.545 M341.762 82.484 L 341.274 83.083 341.837 82.547 C 342.146 82.252,342.366 81.982,342.325 81.948 C 342.284 81.913,342.030 82.155,341.762 82.484 M354.517 82.545 C 354.737 82.754,355.160 83.172,355.458 83.475 C 355.756 83.778,356.000 83.979,356.000 83.922 C 356.000 83.779,354.377 82.167,354.234 82.167 C 354.170 82.167,354.298 82.337,354.517 82.545 M382.846 82.538 C 382.839 82.700,382.538 82.977,382.160 83.170 C 381.310 83.604,360.118 83.627,359.361 83.195 C 359.147 83.073,358.934 83.010,358.888 83.056 C 358.364 83.580,380.143 84.012,381.848 83.512 C 382.528 83.312,383.076 82.791,382.947 82.468 C 382.890 82.325,382.855 82.349,382.846 82.538 M340.583 83.213 C 340.322 83.373,305.809 83.435,180.722 83.500 C 92.982 83.546,21.157 83.621,21.111 83.667 C 20.989 83.789,338.035 83.701,339.444 83.578 C 340.101 83.521,340.776 83.370,340.944 83.242 C 341.321 82.957,341.041 82.934,340.583 83.213 M348.517 83.879 C 348.737 84.087,349.160 84.505,349.458 84.808 C 349.756 85.111,350.000 85.312,350.000 85.255 C 350.000 85.112,348.377 83.500,348.234 83.500 C 348.170 83.500,348.298 83.670,348.517 83.879 M356.851 84.879 C 357.070 85.087,357.494 85.505,357.792 85.808 C 358.090 86.111,358.333 86.312,358.333 86.255 C 358.333 86.112,356.711 84.500,356.567 84.500 C 356.503 84.500,356.631 84.670,356.851 84.879 M350.851 86.212 C 351.070 86.420,351.455 86.851,351.706 87.170 C 351.957 87.489,352.114 87.610,352.056 87.440 C 351.943 87.110,350.759 85.833,350.566 85.833 C 350.503 85.833,350.631 86.004,350.851 86.212 M358.705 86.640 C 358.934 86.978,359.670 87.612,359.665 87.468 C 359.664 87.440,359.388 87.154,359.051 86.833 C 358.671 86.471,358.540 86.398,358.705 86.640 " stroke="none" fill="#e4cc04" fill-rule="evenodd"/><path id="path8" d="M377.875 44.458 L 377.833 77.833 368.409 77.833 L 358.984 77.833 358.553 78.292 C 357.264 79.661,357.099 81.187,358.090 82.581 C 358.974 83.824,358.194 83.745,370.167 83.801 C 381.399 83.854,382.318 83.825,382.748 83.395 C 383.197 82.946,383.015 82.813,382.486 83.203 L 381.972 83.583 370.778 83.583 L 359.583 83.583 358.958 83.195 C 358.615 82.981,358.333 82.730,358.333 82.638 C 358.333 82.545,358.183 82.279,358.000 82.045 C 357.515 81.429,357.550 80.175,358.076 79.280 C 358.821 78.014,358.188 78.089,368.549 78.035 C 375.636 77.998,377.867 77.939,377.926 77.785 C 377.968 77.674,377.983 62.621,377.959 44.333 L 377.916 11.083 377.875 44.458 M383.082 47.167 C 383.082 66.737,383.101 74.744,383.125 64.958 C 383.149 55.173,383.149 39.160,383.125 29.375 C 383.101 19.590,383.082 27.596,383.082 47.167 M345.306 75.362 C 344.471 75.721,344.079 76.318,344.214 77.026 C 344.273 77.336,344.293 77.308,344.311 76.890 C 344.338 76.253,345.076 75.563,345.895 75.410 C 347.282 75.150,347.419 75.257,353.694 81.515 C 356.910 84.723,359.578 87.311,359.623 87.266 C 359.668 87.221,357.092 84.580,353.898 81.397 C 347.121 74.644,347.065 74.604,345.306 75.362 M180.917 78.000 C 315.844 78.070,340.481 78.119,340.833 78.313 C 341.419 78.635,342.192 79.496,342.343 79.995 L 342.471 80.417 342.486 79.958 C 342.496 79.625,342.280 79.270,341.697 78.666 L 340.895 77.833 181.156 77.875 L 21.417 77.916 180.917 78.000 M344.333 79.805 C 344.333 79.883,345.947 81.577,347.919 83.569 C 349.891 85.560,351.465 87.255,351.417 87.333 C 351.368 87.412,351.480 87.524,351.664 87.583 C 351.849 87.641,352.000 87.830,352.000 88.001 C 352.000 88.173,352.068 88.356,352.151 88.407 C 352.460 88.598,352.097 87.727,351.599 87.083 C 351.316 86.717,349.715 85.050,348.042 83.380 C 346.369 81.710,345.000 80.284,345.000 80.212 C 345.000 80.139,344.850 79.987,344.667 79.872 C 344.483 79.758,344.333 79.728,344.333 79.805 M342.353 81.760 C 342.332 82.125,341.739 82.752,340.924 83.270 C 340.443 83.576,336.656 83.585,180.841 83.667 L 21.250 83.751 181.014 83.751 L 340.779 83.750 341.490 83.257 C 342.210 82.758,342.572 82.160,342.443 81.680 C 342.394 81.499,342.366 81.524,342.353 81.760 M104.292 89.125 C 149.873 89.148,224.460 89.148,270.042 89.125 C 315.623 89.102,278.329 89.083,187.167 89.083 C 96.004 89.083,58.710 89.102,104.292 89.125 M367.708 89.125 C 371.719 89.150,378.281 89.150,382.292 89.125 C 386.302 89.100,383.021 89.080,375.000 89.080 C 366.979 89.080,363.698 89.100,367.708 89.125 " stroke="none" fill="#ecd404" fill-rule="evenodd"/></g></svg>