<svg xmlns="http://www.w3.org/2000/svg" xmlns:xlink="http://www.w3.org/1999/xlink" id="svg" version="1.1" width="400" height="300" viewBox="0, 0, 400,300"><g id="svgg"><path id="path0" d="M217.104 6.302 C 216.996 6.477,215.258 6.602,212.907 6.602 C 209.741 6.602,208.800 6.697,208.445 7.052 C 208.108 7.389,207.278 7.502,205.140 7.502 C 203.570 7.502,202.213 7.621,202.123 7.766 C 202.033 7.911,201.122 8.090,200.097 8.164 C 199.051 8.240,198.183 8.453,198.117 8.650 C 198.045 8.867,197.313 9.002,196.215 9.002 C 194.905 9.002,194.384 9.122,194.257 9.452 C 194.131 9.782,193.611 9.902,192.316 9.902 C 191.337 9.902,190.548 10.036,190.548 10.203 C 190.548 10.368,190.003 10.503,189.338 10.503 C 188.539 10.503,188.069 10.656,187.955 10.953 C 187.835 11.268,187.343 11.403,186.314 11.403 C 185.507 11.403,184.846 11.538,184.846 11.703 C 184.846 11.868,184.451 12.003,183.967 12.003 C 183.484 12.003,182.886 12.206,182.639 12.453 C 182.391 12.701,181.721 12.903,181.149 12.903 C 180.502 12.903,180.044 13.073,179.936 13.353 C 179.837 13.614,179.388 13.803,178.872 13.803 C 178.381 13.803,177.896 13.938,177.794 14.104 C 177.692 14.269,177.208 14.404,176.717 14.404 C 176.201 14.404,175.752 14.593,175.652 14.854 C 175.557 15.101,175.165 15.304,174.779 15.304 C 174.394 15.304,173.995 15.439,173.893 15.604 C 173.791 15.769,173.388 15.904,172.997 15.904 C 172.606 15.904,172.083 16.107,171.836 16.354 C 171.588 16.602,171.102 16.804,170.755 16.804 C 170.408 16.804,170.046 17.007,169.951 17.254 C 169.856 17.502,169.455 17.704,169.060 17.704 C 168.665 17.704,168.342 17.839,168.342 18.005 C 168.342 18.170,168.005 18.305,167.592 18.305 C 167.125 18.305,166.842 18.475,166.842 18.755 C 166.842 19.002,166.592 19.205,166.288 19.205 C 165.783 19.205,164.508 19.704,163.170 20.424 C 162.883 20.579,162.440 20.705,162.185 20.705 C 161.930 20.705,161.644 20.908,161.549 21.155 C 161.454 21.403,161.188 21.605,160.958 21.605 C 160.728 21.605,160.540 21.740,160.540 21.905 C 160.540 22.071,160.266 22.206,159.931 22.206 C 159.595 22.206,159.243 22.408,159.148 22.656 C 159.053 22.903,158.713 23.106,158.393 23.106 C 158.073 23.106,157.498 23.443,157.116 23.856 C 156.733 24.269,156.132 24.606,155.780 24.606 C 155.410 24.606,155.139 24.797,155.139 25.056 C 155.139 25.316,154.868 25.506,154.498 25.506 C 154.146 25.506,153.544 25.844,153.162 26.257 C 152.780 26.669,152.254 27.007,151.993 27.007 C 151.732 27.007,151.441 27.209,151.346 27.457 C 151.251 27.704,151.043 27.907,150.884 27.907 C 150.495 27.907,149.737 28.686,149.737 29.086 C 149.737 29.263,149.400 29.407,148.987 29.407 C 148.575 29.407,148.237 29.542,148.237 29.707 C 148.237 29.872,148.035 30.008,147.787 30.008 C 147.539 30.008,147.337 30.210,147.337 30.458 C 147.337 30.710,147.069 30.908,146.727 30.908 C 146.392 30.908,146.040 31.110,145.945 31.358 C 145.850 31.605,145.653 31.808,145.508 31.808 C 144.949 31.808,144.036 32.873,144.036 33.525 C 144.036 33.901,143.901 34.209,143.736 34.209 C 142.733 34.209,143.471 36.483,144.638 36.988 C 146.752 37.904,147.225 37.744,151.724 34.581 C 163.412 26.363,181.863 18.029,193.698 15.622 C 194.359 15.488,196.924 14.968,199.400 14.466 C 234.233 7.407,274.983 16.636,300.959 37.466 C 304.336 40.174,312.454 47.444,313.063 48.306 C 313.264 48.590,314.222 49.687,315.192 50.743 C 323.453 59.737,331.754 74.049,334.929 84.771 C 335.418 86.422,336.085 88.663,336.412 89.753 C 337.139 92.176,337.861 93.023,339.200 93.023 C 341.009 93.023,341.815 91.331,341.045 89.150 C 340.708 88.193,340.632 87.300,340.773 85.924 C 340.910 84.587,340.866 84.021,340.627 84.021 C 340.430 84.021,340.285 83.527,340.285 82.857 C 340.285 82.189,340.093 81.535,339.835 81.320 C 339.587 81.115,339.385 80.634,339.385 80.251 C 339.385 79.868,339.250 79.472,339.085 79.370 C 338.920 79.268,338.785 78.864,338.785 78.473 C 338.785 78.082,338.582 77.560,338.335 77.312 C 338.087 77.065,337.884 76.531,337.884 76.127 C 337.884 75.723,337.682 75.224,337.434 75.019 C 337.187 74.813,336.984 74.324,336.984 73.932 C 336.984 73.539,336.849 73.218,336.684 73.218 C 336.519 73.218,336.384 72.876,336.384 72.459 C 336.384 72.041,336.182 71.621,335.934 71.526 C 335.686 71.431,335.484 71.031,335.484 70.636 C 335.484 70.241,335.363 69.917,335.216 69.917 C 335.069 69.917,334.864 69.580,334.760 69.167 C 334.657 68.755,334.440 68.417,334.278 68.417 C 334.116 68.417,333.983 68.080,333.983 67.667 C 333.983 67.200,333.813 66.917,333.533 66.917 C 333.253 66.917,333.083 66.633,333.083 66.167 C 333.083 65.754,332.948 65.416,332.783 65.416 C 332.618 65.416,332.483 65.179,332.483 64.888 C 332.483 64.598,332.162 64.014,331.770 63.591 C 331.378 63.168,330.964 62.528,330.850 62.169 C 330.736 61.809,330.516 61.515,330.362 61.515 C 330.208 61.515,330.083 61.327,330.083 61.097 C 330.083 60.867,329.880 60.602,329.632 60.507 C 329.385 60.412,329.182 60.060,329.182 59.724 C 329.182 59.389,329.047 59.115,328.882 59.115 C 328.717 59.115,328.582 58.840,328.582 58.505 C 328.582 58.170,328.380 57.818,328.132 57.723 C 327.884 57.628,327.682 57.362,327.682 57.132 C 327.682 56.902,327.549 56.714,327.388 56.714 C 327.226 56.714,327.008 56.377,326.905 55.964 C 326.801 55.551,326.596 55.214,326.449 55.214 C 326.302 55.214,326.182 55.011,326.182 54.764 C 326.182 54.516,325.994 54.314,325.766 54.314 C 325.537 54.314,325.139 53.869,324.881 53.325 C 324.623 52.781,323.932 51.843,323.346 51.239 C 322.760 50.636,322.280 49.967,322.280 49.752 C 322.280 49.538,321.740 48.854,321.080 48.233 C 320.420 47.613,319.880 46.971,319.880 46.808 C 319.880 46.645,319.700 46.512,319.481 46.512 C 319.261 46.512,318.900 46.174,318.680 45.761 C 318.459 45.349,318.098 45.011,317.879 45.011 C 317.659 45.011,317.479 44.867,317.479 44.690 C 317.479 44.274,316.716 43.511,316.301 43.511 C 316.124 43.511,315.979 43.308,315.979 43.061 C 315.979 42.813,315.776 42.611,315.529 42.611 C 315.281 42.611,315.079 42.466,315.079 42.289 C 315.079 41.874,314.315 41.110,313.900 41.110 C 313.723 41.110,313.578 40.966,313.578 40.789 C 313.578 40.373,312.815 39.610,312.400 39.610 C 312.223 39.610,312.078 39.407,312.078 39.160 C 312.078 38.912,311.875 38.710,311.628 38.710 C 311.380 38.710,311.178 38.565,311.178 38.388 C 311.178 37.973,310.414 37.209,309.999 37.209 C 309.822 37.209,309.677 37.007,309.677 36.759 C 309.677 36.512,309.557 36.309,309.409 36.309 C 309.261 36.309,308.822 35.974,308.434 35.564 C 308.045 35.154,307.552 34.817,307.338 34.814 C 307.123 34.811,306.635 34.471,306.253 34.059 C 305.870 33.646,305.404 33.308,305.217 33.308 C 305.030 33.308,304.876 33.106,304.876 32.858 C 304.876 32.603,304.607 32.408,304.255 32.408 C 303.590 32.408,302.776 31.759,302.776 31.229 C 302.776 31.052,302.588 30.908,302.358 30.908 C 302.128 30.908,301.862 30.705,301.767 30.458 C 301.672 30.210,301.320 30.008,300.985 30.008 C 300.649 30.008,300.375 29.872,300.375 29.707 C 300.375 29.542,300.173 29.407,299.925 29.407 C 299.677 29.407,299.475 29.205,299.475 28.957 C 299.475 28.698,299.204 28.507,298.834 28.507 C 298.482 28.507,297.880 28.170,297.498 27.757 C 297.116 27.344,296.526 27.007,296.188 27.007 C 295.850 27.007,295.574 26.853,295.574 26.665 C 295.574 26.249,294.671 25.529,294.134 25.516 C 293.920 25.511,293.432 25.169,293.050 24.756 C 292.667 24.344,292.150 24.006,291.900 24.006 C 291.651 24.006,291.278 23.803,291.073 23.556 C 290.867 23.308,290.441 23.106,290.126 23.106 C 289.811 23.106,289.476 22.903,289.381 22.656 C 289.286 22.408,288.885 22.206,288.490 22.206 C 288.095 22.206,287.772 22.071,287.772 21.905 C 287.772 21.740,287.569 21.605,287.322 21.605 C 287.074 21.605,286.872 21.473,286.872 21.311 C 286.872 21.149,286.534 20.932,286.122 20.828 C 285.709 20.725,285.371 20.534,285.371 20.405 C 285.371 20.276,285.034 20.085,284.621 19.982 C 284.209 19.878,283.871 19.661,283.871 19.499 C 283.871 19.337,283.591 19.205,283.249 19.205 C 282.908 19.205,282.425 19.002,282.178 18.755 C 281.930 18.507,281.408 18.305,281.017 18.305 C 280.625 18.305,280.222 18.170,280.120 18.005 C 280.018 17.839,279.605 17.704,279.202 17.704 C 278.751 17.704,278.470 17.531,278.470 17.254 C 278.470 16.974,278.186 16.804,277.719 16.804 C 277.307 16.804,276.969 16.695,276.969 16.562 C 276.969 16.201,274.781 15.304,273.900 15.304 C 273.478 15.304,273.055 15.101,272.960 14.854 C 272.851 14.571,272.392 14.404,271.727 14.404 C 271.145 14.404,270.668 14.269,270.668 14.104 C 270.668 13.938,270.279 13.803,269.804 13.803 C 269.329 13.803,268.773 13.601,268.567 13.353 C 268.362 13.106,267.955 12.903,267.664 12.903 C 267.373 12.903,266.749 12.702,266.276 12.455 C 265.803 12.208,264.977 12.006,264.441 12.005 C 263.905 12.004,263.466 11.868,263.466 11.703 C 263.466 11.538,262.984 11.403,262.394 11.403 C 261.805 11.403,261.120 11.200,260.872 10.953 C 260.625 10.705,259.892 10.503,259.243 10.503 C 258.595 10.503,258.065 10.368,258.065 10.203 C 258.065 10.038,257.404 9.902,256.596 9.902 C 255.568 9.902,255.076 9.768,254.955 9.452 C 254.831 9.129,254.325 9.002,253.157 9.002 C 252.263 9.002,251.145 8.801,250.672 8.554 C 250.199 8.307,249.111 8.105,248.255 8.104 C 247.398 8.103,246.614 7.967,246.512 7.802 C 246.410 7.637,245.203 7.502,243.830 7.502 C 241.977 7.502,241.238 7.386,240.960 7.052 C 240.677 6.711,239.910 6.602,237.790 6.602 C 236.250 6.602,234.911 6.467,234.809 6.302 C 234.556 5.893,217.357 5.893,217.104 6.302 M112.963 37.483 C 112.806 37.633,111.407 37.802,109.852 37.858 C 107.935 37.927,106.986 38.080,106.902 38.335 C 106.819 38.583,106.125 38.710,104.851 38.710 C 103.340 38.710,102.926 38.806,102.926 39.160 C 102.926 39.505,102.544 39.610,101.293 39.610 C 100.395 39.610,99.577 39.745,99.475 39.910 C 99.373 40.075,98.632 40.210,97.828 40.210 C 96.929 40.210,96.194 40.383,95.917 40.660 C 95.669 40.908,95.060 41.110,94.563 41.110 C 94.066 41.110,93.575 41.245,93.473 41.410 C 93.371 41.575,92.907 41.710,92.442 41.710 C 91.977 41.710,91.428 41.913,91.223 42.161 C 90.994 42.436,90.336 42.611,89.526 42.611 C 88.627 42.611,88.148 42.755,88.030 43.061 C 87.935 43.308,87.535 43.511,87.140 43.511 C 86.745 43.511,86.422 43.646,86.422 43.811 C 86.422 43.976,86.084 44.111,85.671 44.111 C 85.205 44.111,84.921 44.281,84.921 44.561 C 84.921 44.886,84.588 45.011,83.721 45.011 C 83.061 45.011,82.521 45.146,82.521 45.311 C 82.521 45.476,82.246 45.611,81.911 45.611 C 81.576 45.611,81.224 45.814,81.129 46.062 C 81.034 46.309,80.629 46.512,80.229 46.512 C 79.828 46.512,79.423 46.714,79.328 46.962 C 79.233 47.209,78.832 47.412,78.438 47.412 C 78.043 47.412,77.719 47.547,77.719 47.712 C 77.719 47.877,77.445 48.012,77.110 48.012 C 76.775 48.012,76.423 48.215,76.328 48.462 C 76.233 48.710,75.832 48.912,75.437 48.912 C 75.042 48.912,74.719 49.033,74.719 49.180 C 74.719 49.327,74.381 49.532,73.968 49.636 C 73.556 49.739,73.218 49.956,73.218 50.118 C 73.218 50.280,73.016 50.413,72.768 50.413 C 72.521 50.413,72.318 50.615,72.318 50.863 C 72.318 51.143,72.035 51.313,71.568 51.313 C 71.155 51.313,70.818 51.448,70.818 51.613 C 70.818 51.778,70.615 51.913,70.368 51.913 C 70.120 51.913,69.917 52.116,69.917 52.363 C 69.917 52.623,69.646 52.813,69.277 52.813 C 68.924 52.813,68.323 53.151,67.941 53.563 C 67.558 53.976,66.969 54.314,66.631 54.314 C 66.293 54.314,66.017 54.493,66.017 54.713 C 66.017 54.933,65.679 55.293,65.266 55.514 C 64.854 55.735,64.516 56.095,64.516 56.315 C 64.516 56.541,64.190 56.714,63.766 56.714 C 63.299 56.714,63.016 56.884,63.016 57.164 C 63.016 57.412,62.863 57.614,62.676 57.614 C 62.489 57.614,61.891 58.087,61.346 58.665 C 60.801 59.242,60.211 59.715,60.035 59.715 C 59.859 59.715,59.715 59.855,59.715 60.025 C 59.715 60.413,57.996 62.116,57.604 62.116 C 57.445 62.116,57.314 62.260,57.314 62.437 C 57.314 62.852,56.551 63.616,56.135 63.616 C 55.959 63.616,55.814 63.755,55.814 63.926 C 55.814 64.314,54.095 66.017,53.703 66.017 C 53.544 66.017,53.413 66.161,53.413 66.338 C 53.413 66.753,52.650 67.517,52.234 67.517 C 52.058 67.517,51.913 67.719,51.913 67.967 C 51.913 68.215,51.778 68.417,51.613 68.417 C 51.448 68.417,51.313 68.620,51.313 68.867 C 51.313 69.115,51.171 69.317,50.999 69.317 C 50.538 69.317,48.014 71.881,48.002 72.360 C 47.991 72.864,47.291 73.817,46.929 73.822 C 46.782 73.824,46.404 74.364,46.088 75.022 C 45.773 75.680,45.402 76.219,45.263 76.219 C 45.125 76.219,45.011 76.422,45.011 76.669 C 45.011 76.917,44.879 77.119,44.717 77.119 C 44.555 77.119,44.338 77.457,44.234 77.869 C 44.131 78.282,43.926 78.620,43.778 78.620 C 43.631 78.620,43.511 78.957,43.511 79.370 C 43.511 79.837,43.341 80.120,43.061 80.120 C 42.786 80.120,42.611 80.400,42.611 80.838 C 42.611 81.233,42.408 81.634,42.161 81.729 C 41.913 81.824,41.710 82.142,41.710 82.436 C 41.710 82.730,41.372 83.363,40.960 83.843 C 40.547 84.322,40.210 84.956,40.210 85.250 C 40.210 85.545,40.075 85.869,39.910 85.971 C 39.745 86.073,39.610 86.491,39.610 86.899 C 39.610 87.307,39.407 87.718,39.160 87.813 C 38.912 87.908,38.710 88.251,38.710 88.576 C 38.710 88.900,38.507 89.368,38.260 89.615 C 38.012 89.863,37.809 90.318,37.809 90.626 C 37.809 90.935,37.674 91.271,37.509 91.373 C 37.344 91.475,37.209 91.965,37.209 92.462 C 37.209 92.959,37.007 93.569,36.759 93.816 C 36.512 94.064,36.309 94.797,36.309 95.445 C 36.309 96.094,36.197 96.624,36.060 96.624 C 35.685 96.624,35.056 99.218,34.896 101.425 C 34.805 102.666,34.600 103.463,34.331 103.616 C 34.032 103.786,33.908 104.459,33.908 105.924 C 33.908 107.061,33.773 108.075,33.608 108.177 C 33.199 108.430,33.199 126.229,33.608 126.482 C 33.773 126.584,33.908 127.541,33.908 128.609 C 33.908 130.059,34.023 130.595,34.359 130.724 C 34.652 130.837,34.809 131.304,34.809 132.065 C 34.809 132.852,34.942 133.233,35.218 133.233 C 35.642 133.233,36.183 134.486,37.097 137.584 C 38.623 142.759,43.001 142.025,41.594 136.830 C 41.349 135.925,40.891 134.239,40.577 133.083 C 37.909 123.268,37.775 111.236,40.226 101.725 C 46.845 76.049,66.581 56.463,94.974 47.394 C 100.444 45.647,105.209 44.690,114.479 43.474 C 120.118 42.735,132.497 43.268,139.385 44.548 C 147.234 46.006,148.387 45.854,148.387 43.361 C 148.387 41.809,147.494 41.209,144.541 40.775 C 142.505 40.477,142.111 40.318,141.559 39.570 C 141.168 39.042,140.647 38.710,140.207 38.710 C 139.814 38.710,139.289 38.507,139.042 38.260 C 138.703 37.920,137.863 37.809,135.630 37.809 C 133.979 37.809,132.586 37.677,132.483 37.509 C 132.245 37.125,113.363 37.099,112.963 37.483 M345.534 86.784 C 345.130 87.228,345.434 90.708,345.928 91.303 C 346.140 91.558,347.961 92.745,349.976 93.940 C 368.670 105.032,379.572 120.071,384.443 141.485 C 387.973 157.008,381.838 180.346,371.067 192.364 C 370.393 193.116,368.897 194.844,367.742 196.206 C 362.329 202.585,352.761 209.519,343.136 214.038 C 336.763 217.029,335.746 218.081,337.306 220.065 C 338.189 221.187,338.895 221.084,343.356 219.186 C 346.697 217.765,347.340 217.579,347.694 217.933 C 348.193 218.432,347.933 219.268,347.207 219.499 C 345.965 219.893,345.315 221.082,344.890 223.737 C 341.486 244.995,316.780 260.317,287.909 259.074 L 283.396 258.880 282.583 259.845 C 282.136 260.377,281.770 261.056,281.770 261.356 C 281.770 261.656,281.534 261.993,281.245 262.105 C 280.745 262.299,280.745 262.327,281.245 262.695 C 281.534 262.908,281.770 263.371,281.770 263.724 C 281.770 264.231,281.952 264.366,282.634 264.366 C 283.109 264.366,283.666 264.569,283.871 264.816 C 284.418 265.476,298.134 265.467,299.007 264.807 C 299.417 264.497,300.373 264.366,302.233 264.366 C 303.795 264.366,304.876 264.243,304.876 264.066 C 304.876 263.897,305.716 263.766,306.795 263.766 C 308.223 263.766,308.757 263.651,308.886 263.316 C 309.008 262.998,309.503 262.866,310.568 262.866 C 311.399 262.866,312.078 262.731,312.078 262.566 C 312.078 262.401,312.525 262.266,313.071 262.266 C 313.617 262.266,314.326 262.067,314.646 261.825 C 314.967 261.583,315.537 261.380,315.913 261.375 C 316.290 261.370,316.676 261.163,316.771 260.915 C 316.877 260.638,317.333 260.465,317.962 260.465 C 318.522 260.465,318.980 260.330,318.980 260.165 C 318.980 260.000,319.322 259.865,319.739 259.865 C 320.157 259.865,320.577 259.662,320.672 259.415 C 320.778 259.137,321.234 258.965,321.863 258.965 C 322.423 258.965,322.881 258.830,322.881 258.665 C 322.881 258.500,323.134 258.365,323.444 258.365 C 323.754 258.365,324.176 258.162,324.381 257.914 C 324.587 257.667,325.012 257.464,325.327 257.464 C 325.643 257.464,325.978 257.262,326.073 257.014 C 326.168 256.767,326.520 256.564,326.854 256.564 C 327.189 256.564,327.776 256.227,328.158 255.814 C 328.541 255.401,329.098 255.064,329.397 255.064 C 329.696 255.064,330.194 254.726,330.503 254.314 C 330.813 253.901,331.299 253.563,331.583 253.563 C 331.867 253.563,332.352 253.226,332.662 252.813 C 332.972 252.401,333.396 252.063,333.605 252.063 C 333.813 252.063,333.983 251.860,333.983 251.613 C 333.983 251.361,334.251 251.163,334.593 251.163 C 334.928 251.163,335.280 250.960,335.375 250.713 C 335.470 250.465,335.678 250.263,335.837 250.263 C 336.227 250.263,336.984 249.484,336.984 249.084 C 336.984 248.907,337.124 248.762,337.294 248.762 C 337.572 248.762,339.385 247.093,339.385 246.838 C 339.385 246.781,339.925 246.177,340.585 245.497 C 341.245 244.817,341.785 244.058,341.785 243.811 C 341.785 243.563,341.988 243.361,342.236 243.361 C 342.483 243.361,342.686 243.220,342.686 243.048 C 342.686 242.875,343.023 242.370,343.436 241.925 C 343.848 241.480,344.186 240.946,344.186 240.738 C 344.186 240.530,344.305 240.360,344.451 240.360 C 344.597 240.360,344.796 240.124,344.893 239.835 C 345.064 239.325,345.683 238.263,345.986 237.959 C 346.375 237.570,347.187 235.752,347.187 235.271 C 347.187 234.975,347.389 234.564,347.637 234.359 C 347.884 234.153,348.087 233.672,348.087 233.289 C 348.087 232.907,348.222 232.510,348.387 232.408 C 348.552 232.306,348.687 231.748,348.687 231.169 C 348.687 230.589,348.890 229.912,349.137 229.665 C 349.418 229.384,349.591 228.631,349.597 227.660 C 349.602 226.773,349.795 225.857,350.047 225.524 C 350.637 224.744,350.667 220.392,350.085 220.045 C 349.122 219.470,349.235 217.554,350.233 217.554 C 350.552 217.554,351.178 217.217,351.623 216.804 C 352.068 216.392,352.670 216.054,352.960 216.054 C 353.251 216.054,353.488 215.851,353.488 215.604 C 353.488 215.324,353.772 215.154,354.239 215.154 C 354.651 215.154,354.989 215.019,354.989 214.854 C 354.989 214.689,355.191 214.554,355.439 214.554 C 355.686 214.554,355.889 214.351,355.889 214.104 C 355.889 213.844,356.160 213.653,356.530 213.653 C 356.882 213.653,357.483 213.316,357.866 212.903 C 358.248 212.491,358.751 212.153,358.983 212.153 C 359.216 212.153,359.659 211.815,359.969 211.403 C 360.279 210.990,360.703 210.653,360.911 210.653 C 361.120 210.653,361.290 210.450,361.290 210.203 C 361.290 209.955,361.556 209.752,361.880 209.752 C 362.498 209.752,364.291 208.198,364.291 207.662 C 364.291 207.491,364.439 207.352,364.620 207.352 C 364.801 207.352,365.949 206.339,367.171 205.101 C 368.392 203.863,369.527 202.851,369.692 202.851 C 369.857 202.851,369.992 202.716,369.992 202.551 C 369.992 202.385,371.005 201.251,372.243 200.029 C 373.481 198.807,374.494 197.659,374.494 197.478 C 374.494 197.297,374.638 197.149,374.815 197.149 C 375.194 197.149,375.793 196.583,376.084 195.949 C 376.396 195.268,376.970 194.449,377.719 193.613 C 378.091 193.199,378.395 192.610,378.395 192.304 C 378.395 191.998,378.597 191.748,378.845 191.748 C 379.092 191.748,379.295 191.545,379.295 191.298 C 379.295 191.050,379.415 190.848,379.562 190.848 C 379.710 190.848,379.915 190.510,380.018 190.098 C 380.122 189.685,380.339 189.347,380.501 189.347 C 380.663 189.347,380.795 189.010,380.795 188.597 C 380.795 188.130,380.965 187.847,381.245 187.847 C 381.493 187.847,381.695 187.643,381.695 187.393 C 381.695 186.818,382.329 185.671,382.821 185.356 C 383.027 185.224,383.196 184.932,383.196 184.706 C 383.196 184.480,383.421 183.845,383.697 183.295 C 384.626 181.440,384.696 181.255,384.696 180.649 C 384.696 180.312,384.895 180.045,385.146 180.045 C 385.426 180.045,385.596 179.762,385.596 179.295 C 385.596 178.882,385.731 178.545,385.896 178.545 C 386.062 178.545,386.197 178.005,386.197 177.344 C 386.197 176.477,386.322 176.144,386.647 176.144 C 386.970 176.144,387.097 175.814,387.097 174.976 C 387.097 174.214,387.253 173.748,387.547 173.635 C 387.829 173.527,387.997 173.068,387.997 172.403 C 387.997 171.820,388.132 171.343,388.297 171.343 C 388.462 171.343,388.597 170.726,388.597 169.971 C 388.597 169.152,388.778 168.418,389.047 168.149 C 389.336 167.861,389.497 167.120,389.497 166.088 C 389.497 165.202,389.632 164.393,389.797 164.291 C 389.974 164.182,390.098 162.398,390.098 159.954 C 390.098 156.541,390.178 155.772,390.548 155.630 C 390.919 155.488,390.998 154.700,390.998 151.134 C 390.998 147.657,390.910 146.737,390.548 146.437 C 390.206 146.153,390.098 145.384,390.098 143.249 C 390.098 141.573,389.976 140.435,389.797 140.435 C 389.628 140.435,389.497 139.585,389.497 138.485 C 389.497 136.951,389.401 136.534,389.047 136.534 C 388.708 136.534,388.597 136.169,388.597 135.051 C 388.597 134.236,388.462 133.485,388.297 133.383 C 388.132 133.281,387.997 132.810,387.997 132.337 C 387.997 131.863,387.794 131.273,387.547 131.026 C 387.299 130.778,387.097 130.175,387.097 129.686 C 387.097 129.172,386.907 128.723,386.647 128.624 C 386.364 128.515,386.197 128.056,386.197 127.391 C 386.197 126.808,386.062 126.332,385.896 126.332 C 385.731 126.332,385.596 125.943,385.596 125.468 C 385.596 124.993,385.394 124.437,385.146 124.231 C 384.899 124.026,384.696 123.536,384.696 123.144 C 384.696 122.752,384.576 122.431,384.429 122.431 C 384.281 122.431,384.076 122.093,383.973 121.680 C 383.869 121.268,383.652 120.930,383.490 120.930 C 383.328 120.930,383.196 120.588,383.196 120.171 C 383.196 119.753,382.993 119.333,382.746 119.238 C 382.498 119.143,382.296 118.804,382.296 118.484 C 382.296 118.165,381.958 117.539,381.545 117.094 C 381.133 116.649,380.795 116.048,380.795 115.757 C 380.795 115.466,380.669 115.229,380.515 115.229 C 380.361 115.229,380.140 114.925,380.024 114.554 C 379.907 114.182,379.493 113.581,379.103 113.218 C 378.713 112.854,378.390 112.382,378.385 112.167 C 378.372 111.630,377.652 110.728,377.236 110.728 C 377.048 110.728,376.894 110.525,376.894 110.278 C 376.894 110.030,376.768 109.827,376.614 109.827 C 376.460 109.827,376.250 109.561,376.146 109.235 C 376.043 108.909,375.494 108.163,374.926 107.579 C 374.358 106.994,373.893 106.383,373.893 106.221 C 373.893 106.059,373.691 105.926,373.443 105.926 C 373.196 105.926,372.993 105.747,372.993 105.527 C 372.993 105.307,372.656 104.947,372.243 104.726 C 371.830 104.505,371.493 104.145,371.493 103.925 C 371.493 103.706,371.313 103.526,371.093 103.526 C 370.874 103.526,370.513 103.188,370.293 102.776 C 370.072 102.363,369.711 102.026,369.492 102.026 C 369.272 102.026,369.092 101.846,369.092 101.626 C 369.092 101.406,368.755 101.046,368.342 100.825 C 367.929 100.604,367.592 100.244,367.592 100.024 C 367.592 99.805,367.412 99.625,367.192 99.625 C 366.973 99.625,366.612 99.287,366.392 98.875 C 366.171 98.462,365.810 98.125,365.591 98.125 C 365.371 98.125,365.191 97.922,365.191 97.674 C 365.191 97.427,365.047 97.224,364.870 97.224 C 364.454 97.224,363.691 96.461,363.691 96.045 C 363.691 95.869,363.488 95.724,363.241 95.724 C 362.993 95.724,362.791 95.604,362.791 95.456 C 362.791 95.309,362.453 95.104,362.041 95.001 C 361.628 94.897,361.290 94.680,361.290 94.518 C 361.290 94.356,361.088 94.224,360.840 94.224 C 360.593 94.224,360.390 94.079,360.390 93.902 C 360.390 93.502,359.633 92.723,359.243 92.723 C 359.084 92.723,358.876 92.521,358.781 92.273 C 358.686 92.026,358.409 91.823,358.164 91.823 C 357.920 91.823,357.356 91.485,356.911 91.073 C 356.466 90.660,355.866 90.323,355.577 90.323 C 355.289 90.323,354.975 90.120,354.880 89.872 C 354.785 89.625,354.433 89.422,354.098 89.422 C 353.763 89.422,353.488 89.287,353.488 89.122 C 353.488 88.957,353.151 88.822,352.738 88.822 C 352.271 88.822,351.988 88.652,351.988 88.372 C 351.988 88.125,351.785 87.922,351.538 87.922 C 351.290 87.922,351.088 87.802,351.088 87.654 C 351.088 87.507,350.750 87.302,350.338 87.199 C 349.925 87.095,349.587 86.878,349.587 86.716 C 349.587 86.310,345.909 86.372,345.534 86.784 M27.907 136.052 C 27.907 136.282,27.704 136.548,27.457 136.643 C 27.209 136.738,27.007 137.090,27.007 137.425 C 27.007 137.760,26.862 138.035,26.685 138.035 C 26.270 138.035,25.506 138.798,25.506 139.213 C 25.506 139.390,25.304 139.535,25.056 139.535 C 24.809 139.535,24.606 139.705,24.606 139.914 C 24.606 140.122,24.269 140.546,23.856 140.856 C 23.443 141.166,23.106 141.609,23.106 141.842 C 23.106 142.074,22.768 142.577,22.356 142.959 C 21.943 143.342,21.605 143.943,21.605 144.295 C 21.605 144.665,21.415 144.936,21.155 144.936 C 20.908 144.936,20.705 145.139,20.705 145.386 C 20.705 145.634,20.573 145.836,20.411 145.836 C 20.249 145.836,20.032 146.174,19.928 146.587 C 19.825 146.999,19.619 147.337,19.472 147.337 C 19.325 147.337,19.205 147.539,19.205 147.787 C 19.205 148.035,19.072 148.237,18.910 148.237 C 18.749 148.237,18.531 148.575,18.428 148.987 C 18.324 149.400,18.119 149.737,17.972 149.737 C 17.825 149.737,17.704 150.075,17.704 150.488 C 17.704 150.954,17.534 151.238,17.254 151.238 C 16.974 151.238,16.804 151.521,16.804 151.988 C 16.804 152.401,16.695 152.738,16.562 152.738 C 16.267 152.738,15.304 154.858,15.304 155.508 C 15.304 155.765,15.101 156.053,14.854 156.148 C 14.606 156.243,14.404 156.587,14.404 156.912 C 14.404 157.238,14.269 157.587,14.104 157.689 C 13.938 157.791,13.803 158.282,13.803 158.779 C 13.803 159.276,13.601 159.885,13.353 160.133 C 13.106 160.380,12.903 161.029,12.903 161.575 C 12.903 162.121,12.701 162.735,12.453 162.941 C 12.206 163.146,12.003 163.762,12.003 164.310 C 12.003 164.858,11.868 165.389,11.703 165.491 C 11.538 165.593,11.403 166.260,11.403 166.973 C 11.403 167.759,11.226 168.416,10.953 168.642 C 10.640 168.902,10.503 169.592,10.503 170.912 C 10.503 171.955,10.368 172.891,10.203 172.993 C 10.030 173.100,9.902 174.686,9.902 176.730 C 9.902 179.609,9.817 180.314,9.452 180.454 C 8.795 180.706,8.795 187.002,9.452 187.547 C 9.808 187.842,9.902 188.699,9.902 191.635 C 9.902 193.911,10.019 195.349,10.203 195.349 C 10.375 195.349,10.503 196.287,10.503 197.563 C 10.503 199.164,10.627 199.880,10.953 200.150 C 11.200 200.355,11.403 200.972,11.403 201.519 C 11.403 202.067,11.520 202.588,11.663 202.676 C 11.806 202.765,11.996 203.477,12.084 204.259 C 12.172 205.042,12.392 205.731,12.574 205.792 C 12.755 205.852,12.903 206.367,12.903 206.936 C 12.903 207.579,13.074 208.036,13.353 208.144 C 13.607 208.241,13.803 208.688,13.803 209.167 C 13.803 209.634,13.938 210.101,14.104 210.203 C 14.269 210.305,14.404 210.722,14.404 211.130 C 14.404 211.538,14.606 211.950,14.854 212.045 C 15.101 212.140,15.304 212.528,15.304 212.908 C 15.304 213.709,16.759 216.691,17.322 217.044 C 17.532 217.176,17.704 217.547,17.704 217.869 C 17.704 218.191,17.839 218.455,18.005 218.455 C 18.170 218.455,18.305 218.792,18.305 219.205 C 18.305 219.672,18.475 219.955,18.755 219.955 C 19.014 219.955,19.205 220.226,19.205 220.596 C 19.205 220.948,19.542 221.549,19.955 221.932 C 20.368 222.314,20.705 222.904,20.705 223.241 C 20.705 223.588,20.902 223.856,21.155 223.856 C 21.403 223.856,21.605 224.059,21.605 224.306 C 21.605 224.554,21.740 224.756,21.905 224.756 C 22.071 224.756,22.206 224.953,22.206 225.194 C 22.206 225.435,22.746 226.183,23.406 226.857 C 24.066 227.530,24.606 228.196,24.606 228.337 C 24.606 228.478,24.809 228.671,25.056 228.766 C 25.304 228.861,25.506 229.155,25.506 229.419 C 25.506 229.966,26.204 230.758,26.685 230.758 C 26.862 230.758,27.007 230.888,27.007 231.047 C 27.007 231.439,28.709 233.158,29.097 233.158 C 29.268 233.158,29.407 233.290,29.407 233.452 C 29.407 233.835,32.632 237.059,33.015 237.059 C 33.176 237.059,33.308 237.199,33.308 237.369 C 33.308 237.679,34.991 239.460,35.283 239.460 C 35.368 239.460,35.750 239.797,36.133 240.210 C 36.515 240.623,37.049 240.960,37.319 240.960 C 37.589 240.960,37.809 241.163,37.809 241.410 C 37.809 241.658,37.950 241.860,38.122 241.860 C 38.293 241.860,38.947 242.401,39.575 243.061 C 40.203 243.721,40.941 244.261,41.214 244.261 C 41.487 244.261,41.710 244.396,41.710 244.561 C 41.710 244.726,41.899 244.861,42.128 244.861 C 42.358 244.861,42.624 245.064,42.719 245.311 C 42.814 245.559,43.166 245.761,43.501 245.761 C 43.837 245.761,44.111 245.866,44.111 245.993 C 44.111 246.121,44.617 246.491,45.236 246.816 C 45.855 247.140,46.470 247.576,46.602 247.784 C 46.734 247.992,47.105 248.162,47.427 248.162 C 47.749 248.162,48.012 248.297,48.012 248.462 C 48.012 248.627,48.335 248.762,48.730 248.762 C 49.125 248.762,49.526 248.965,49.621 249.212 C 49.716 249.460,50.000 249.662,50.253 249.662 C 50.506 249.662,50.714 249.764,50.715 249.887 C 50.717 250.192,52.454 251.163,52.997 251.163 C 53.236 251.163,53.510 251.365,53.605 251.613 C 53.700 251.860,54.101 252.063,54.496 252.063 C 54.891 252.063,55.214 252.198,55.214 252.363 C 55.214 252.528,55.672 252.663,56.232 252.663 C 56.860 252.663,57.316 252.836,57.423 253.113 C 57.518 253.361,57.937 253.563,58.355 253.563 C 58.773 253.563,59.115 253.672,59.115 253.806 C 59.115 254.223,61.367 255.064,62.484 255.064 C 63.156 255.064,63.616 255.231,63.724 255.514 C 63.833 255.796,64.292 255.964,64.957 255.964 C 65.540 255.964,66.017 256.099,66.017 256.264 C 66.017 256.429,66.540 256.564,67.180 256.564 C 67.848 256.564,68.503 256.756,68.717 257.014 C 68.953 257.299,69.615 257.464,70.518 257.464 C 71.420 257.464,72.082 257.630,72.318 257.914 C 72.545 258.187,73.202 258.365,73.988 258.365 C 74.700 258.365,75.367 258.500,75.469 258.665 C 75.571 258.830,76.601 258.965,77.759 258.965 C 79.229 258.965,79.998 259.100,80.313 259.415 C 80.673 259.775,81.659 259.865,85.225 259.865 C 87.876 259.865,89.762 259.987,89.872 260.165 C 89.982 260.342,91.776 260.465,94.241 260.465 C 96.830 260.465,98.425 260.351,98.425 260.165 C 98.425 259.987,99.522 259.865,101.115 259.865 C 103.800 259.865,103.808 259.863,104.877 258.794 L 105.948 257.723 105.282 256.390 C 104.318 254.460,103.708 254.013,102.071 254.038 C 93.884 254.163,88.405 254.151,86.897 254.004 C 83.412 253.664,77.567 252.941,77.160 252.799 C 76.935 252.720,75.247 252.317,73.409 251.903 C 31.828 242.540,6.566 204.304,17.111 166.692 C 19.319 158.813,24.531 149.157,30.275 142.298 C 32.207 139.992,32.288 139.733,31.917 137.026 L 31.726 135.634 29.817 135.634 C 28.384 135.634,27.907 135.738,27.907 136.052 M105.733 245.069 C 104.587 245.293,103.978 246.337,104.091 247.884 C 104.110 248.144,105.144 249.900,106.388 251.785 C 108.339 254.744,108.629 255.352,108.502 256.222 C 108.355 257.225,110.956 260.465,111.908 260.465 C 112.084 260.465,112.228 260.609,112.228 260.785 C 112.228 261.183,115.435 264.366,115.836 264.366 C 115.997 264.366,116.129 264.512,116.129 264.689 C 116.129 265.091,117.778 266.767,118.174 266.767 C 118.334 266.767,118.543 266.969,118.638 267.217 C 118.733 267.464,119.036 267.667,119.311 267.667 C 119.586 267.667,120.124 268.005,120.506 268.417 C 120.889 268.830,121.478 269.167,121.816 269.167 C 122.154 269.167,122.431 269.312,122.431 269.489 C 122.431 270.008,123.240 270.668,123.877 270.668 C 124.202 270.668,124.545 270.870,124.640 271.118 C 124.735 271.365,125.087 271.568,125.422 271.568 C 125.757 271.568,126.033 271.669,126.035 271.793 C 126.037 271.917,126.611 272.287,127.310 272.616 C 128.010 272.945,128.761 273.384,128.979 273.591 C 129.197 273.799,129.568 273.968,129.804 273.968 C 130.040 273.968,130.233 274.104,130.233 274.269 C 130.233 274.434,130.621 274.569,131.096 274.569 C 131.571 274.569,132.128 274.771,132.333 275.019 C 132.539 275.266,132.945 275.469,133.236 275.469 C 133.527 275.469,134.152 275.671,134.624 275.917 C 135.097 276.164,135.720 276.366,136.009 276.367 C 136.298 276.368,136.534 276.504,136.534 276.669 C 136.534 276.834,136.973 276.974,137.509 276.979 C 138.046 276.984,138.747 277.187,139.067 277.429 C 139.409 277.688,140.306 277.869,141.243 277.869 C 142.119 277.869,142.836 278.005,142.836 278.170 C 142.836 278.337,143.643 278.470,144.658 278.470 C 145.877 278.470,146.628 278.618,146.930 278.920 C 147.307 279.297,148.662 279.370,155.320 279.370 C 162.101 279.370,163.285 279.304,163.432 278.920 C 163.561 278.585,164.095 278.470,165.523 278.470 C 166.602 278.470,167.442 278.338,167.442 278.170 C 167.442 278.005,168.121 277.869,168.952 277.869 C 170.017 277.869,170.512 277.737,170.634 277.419 C 170.746 277.127,171.212 276.969,171.959 276.969 C 172.612 276.969,173.723 276.644,174.522 276.219 C 175.298 275.806,176.067 275.469,176.231 275.469 C 176.395 275.469,176.949 275.030,177.462 274.494 L 178.395 273.518 178.545 278.145 C 178.652 281.470,178.800 282.807,179.070 282.896 C 179.349 282.989,179.445 284.242,179.445 287.797 C 179.445 290.781,179.557 292.573,179.745 292.573 C 179.910 292.573,180.045 292.776,180.045 293.023 C 180.045 293.271,180.248 293.473,180.495 293.473 C 180.743 293.473,180.945 293.608,180.945 293.773 C 180.945 294.893,184.481 293.769,186.196 292.104 C 186.780 291.537,187.390 291.073,187.552 291.073 C 187.714 291.073,187.847 290.870,187.847 290.623 C 187.847 290.375,187.992 290.173,188.168 290.173 C 188.584 290.173,189.347 289.409,189.347 288.994 C 189.347 288.817,189.492 288.672,189.669 288.672 C 190.084 288.672,190.848 287.909,190.848 287.493 C 190.848 287.316,191.050 287.172,191.298 287.172 C 191.545 287.172,191.748 286.969,191.748 286.722 C 191.748 286.474,191.893 286.272,192.069 286.272 C 192.485 286.272,193.248 285.508,193.248 285.093 C 193.248 284.916,193.523 284.771,193.858 284.771 C 194.193 284.771,194.545 284.569,194.640 284.321 C 194.735 284.074,194.945 283.871,195.106 283.871 C 195.268 283.871,196.402 282.858,197.628 281.620 C 198.854 280.383,199.990 279.370,200.154 279.370 C 200.317 279.370,200.450 279.225,200.450 279.048 C 200.450 278.633,201.214 277.869,201.629 277.869 C 201.806 277.869,201.950 277.667,201.950 277.419 C 201.950 277.172,202.095 276.969,202.272 276.969 C 202.449 276.969,202.782 276.800,203.012 276.594 C 204.005 275.704,204.344 275.469,204.638 275.469 C 204.811 275.469,204.951 275.266,204.951 275.019 C 204.951 274.771,205.091 274.569,205.261 274.569 C 205.650 274.569,207.352 272.850,207.352 272.458 C 207.352 272.298,207.487 272.168,207.652 272.168 C 207.817 272.168,207.952 271.891,207.952 271.553 C 207.952 270.611,208.676 269.437,210.055 268.141 C 212.069 266.249,212.304 264.450,210.628 263.756 C 208.872 263.028,208.958 262.961,192.198 278.333 C 185.671 284.320,184.716 285.091,184.518 284.537 C 184.317 283.973,184.017 279.121,183.680 270.968 C 183.443 265.252,183.093 263.940,181.714 263.594 C 179.707 263.090,178.856 264.466,178.824 268.267 C 178.794 271.877,178.636 272.151,177.353 270.827 C 176.054 269.486,175.493 269.483,171.397 270.790 C 153.376 276.538,134.452 272.628,119.488 260.064 C 116.793 257.801,113.022 253.378,109.732 248.622 C 107.840 245.887,106.926 244.828,106.527 244.912 C 106.444 244.929,106.087 245.000,105.733 245.069 M280.823 252.586 C 280.384 252.876,279.225 254.059,278.246 255.214 C 263.165 273.009,237.891 279.190,214.614 270.776 C 211.241 269.557,211.199 269.555,210.028 270.602 C 208.895 271.615,208.398 274.113,209.264 274.445 C 209.533 274.548,209.752 274.821,209.752 275.051 C 209.752 275.281,209.897 275.469,210.074 275.469 C 210.251 275.469,210.598 275.671,210.846 275.919 C 211.093 276.167,211.548 276.369,211.857 276.369 C 212.165 276.369,212.501 276.504,212.603 276.669 C 212.705 276.834,213.152 276.974,213.596 276.979 C 214.040 276.984,214.666 277.187,214.986 277.429 C 215.306 277.671,216.015 277.869,216.561 277.869 C 217.108 277.869,217.554 278.005,217.554 278.170 C 217.554 278.335,218.297 278.470,219.205 278.470 C 220.472 278.470,220.855 278.574,220.855 278.920 C 220.855 279.273,221.269 279.370,222.781 279.370 C 223.982 279.370,224.750 279.502,224.823 279.720 C 224.899 279.949,226.129 280.116,228.374 280.203 C 230.263 280.276,231.936 280.456,232.093 280.603 C 232.467 280.953,238.655 280.950,239.025 280.600 C 239.182 280.451,240.758 280.279,242.528 280.217 C 244.528 280.148,245.885 279.966,246.114 279.738 C 246.320 279.531,247.250 279.370,248.231 279.370 C 249.510 279.370,250.028 279.249,250.154 278.920 C 250.266 278.628,250.731 278.470,251.477 278.470 C 252.110 278.470,252.711 278.335,252.813 278.170 C 252.915 278.005,253.514 277.869,254.145 277.869 C 254.797 277.869,255.451 277.676,255.664 277.419 C 255.869 277.172,256.494 276.969,257.051 276.969 C 257.608 276.969,258.065 276.845,258.065 276.693 C 258.065 276.541,258.468 276.328,258.961 276.220 C 259.455 276.111,259.935 275.898,260.029 275.746 C 260.123 275.594,260.598 275.469,261.083 275.469 C 261.667 275.469,261.965 275.317,261.965 275.019 C 261.965 274.742,262.247 274.569,262.698 274.569 C 263.101 274.569,263.514 274.434,263.616 274.269 C 263.718 274.104,264.057 273.968,264.369 273.968 C 264.681 273.968,265.044 273.800,265.176 273.593 C 265.457 273.154,266.395 272.525,267.142 272.274 C 267.431 272.177,267.667 271.979,267.667 271.833 C 267.667 271.687,267.918 271.568,268.225 271.568 C 268.532 271.568,269.037 271.230,269.347 270.818 C 269.656 270.405,270.114 270.063,270.364 270.058 C 270.926 270.045,272.168 269.038,272.168 268.594 C 272.168 268.414,272.506 268.267,272.918 268.267 C 273.331 268.267,273.668 268.132,273.668 267.967 C 273.668 267.802,273.871 267.667,274.119 267.667 C 274.366 267.667,274.569 267.464,274.569 267.217 C 274.569 266.969,274.713 266.767,274.890 266.767 C 275.306 266.767,276.069 266.003,276.069 265.588 C 276.069 265.411,276.272 265.266,276.519 265.266 C 276.767 265.266,276.969 265.087,276.969 264.867 C 276.969 264.647,277.307 264.287,277.719 264.066 C 278.132 263.845,278.470 263.485,278.470 263.265 C 278.470 263.045,278.661 262.866,278.896 262.866 C 279.141 262.866,279.537 262.218,279.830 261.335 C 280.110 260.493,280.934 259.073,281.662 258.180 C 283.388 256.060,284.171 254.755,284.160 254.014 C 284.139 252.493,282.210 251.668,280.823 252.586 " stroke="none" fill="#0a0a0a" fill-rule="evenodd"/><path id="path1" d="M218.905 12.353 C 211.588 12.609,205.064 13.316,199.400 14.465 C 196.924 14.967,194.359 15.488,193.698 15.622 C 181.863 18.029,163.412 26.363,151.724 34.581 C 147.293 37.696,146.558 37.960,144.827 37.057 C 143.842 36.544,142.836 36.469,142.836 36.909 C 142.836 37.074,142.702 37.209,142.539 37.209 C 142.104 37.209,141.035 38.187,141.035 38.586 C 141.035 39.687,142.241 40.438,144.553 40.777 C 147.494 41.209,148.387 41.811,148.387 43.361 C 148.387 45.854,147.234 46.006,139.385 44.548 C 132.497 43.268,120.118 42.735,114.479 43.474 C 105.209 44.690,100.444 45.647,94.974 47.394 C 66.581 56.463,46.845 76.049,40.226 101.725 C 37.775 111.236,37.909 123.268,40.577 133.083 C 40.891 134.239,41.349 135.925,41.594 136.830 C 43.001 142.025,38.623 142.759,37.097 137.584 C 35.948 133.689,35.704 133.233,34.768 133.233 C 34.295 133.233,33.908 133.378,33.908 133.555 C 33.908 133.970,33.145 134.734,32.730 134.734 C 32.553 134.734,32.408 134.936,32.408 135.184 C 32.408 135.431,32.267 135.634,32.096 135.634 C 31.889 135.634,31.851 136.380,31.982 137.829 L 32.181 140.024 30.312 142.255 C -2.958 181.975,19.781 239.827,73.409 251.903 C 75.247 252.317,76.935 252.720,77.160 252.799 C 77.567 252.941,83.412 253.664,86.897 254.004 C 88.405 254.151,93.884 254.163,102.071 254.038 C 103.688 254.013,104.353 254.485,105.205 256.266 C 105.874 257.660,107.194 257.931,108.110 256.861 C 108.924 255.910,108.760 255.431,106.372 251.785 C 104.174 248.431,103.996 248.038,104.115 246.812 C 104.239 245.537,106.201 244.543,107.170 245.264 C 107.442 245.466,108.595 246.977,109.732 248.622 C 124.361 269.772,147.976 278.261,171.397 270.790 C 175.493 269.483,176.054 269.486,177.353 270.827 C 178.636 272.151,178.794 271.877,178.824 268.267 C 178.856 264.466,179.707 263.090,181.714 263.594 C 183.093 263.940,183.443 265.252,183.680 270.968 C 184.017 279.121,184.317 283.973,184.518 284.537 C 184.716 285.091,185.671 284.320,192.198 278.333 C 208.958 262.961,208.872 263.028,210.628 263.756 C 212.304 264.450,212.069 266.249,210.055 268.141 C 208.676 269.437,207.952 270.611,207.952 271.553 C 207.952 272.384,208.924 272.358,209.306 271.516 C 209.469 271.158,209.982 270.585,210.447 270.243 L 211.291 269.622 214.948 270.880 C 223.547 273.838,226.598 274.353,235.559 274.357 C 252.724 274.365,267.712 267.643,278.246 255.214 C 280.468 252.591,281.327 251.995,282.516 252.250 C 284.902 252.761,284.660 254.603,281.756 258.047 C 279.946 260.193,279.204 262.266,280.246 262.266 C 281.208 262.266,281.770 261.930,281.770 261.356 C 281.770 261.056,282.136 260.377,282.583 259.845 L 283.396 258.880 287.909 259.074 C 316.780 260.317,341.486 244.995,344.890 223.737 C 345.315 221.082,345.965 219.893,347.207 219.499 C 347.933 219.268,348.193 218.432,347.694 217.933 C 347.340 217.579,346.697 217.765,343.356 219.186 C 338.895 221.084,338.189 221.187,337.306 220.065 C 335.746 218.081,336.763 217.029,343.136 214.038 C 347.803 211.847,350.671 210.184,356.225 206.452 C 359.323 204.369,365.409 198.955,367.742 196.206 C 368.897 194.844,370.393 193.116,371.067 192.364 C 377.398 185.299,382.946 172.764,384.687 161.590 C 385.547 156.071,385.422 145.793,384.443 141.485 C 379.570 120.059,368.673 105.035,349.948 93.923 C 345.731 91.421,345.390 91.052,345.377 88.980 C 345.366 87.302,344.879 86.422,343.960 86.422 C 343.625 86.422,343.272 86.219,343.177 85.971 C 343.069 85.691,342.612 85.521,341.958 85.521 C 340.598 85.521,340.265 86.802,341.027 89.098 C 341.792 91.399,341.035 93.023,339.200 93.023 C 337.861 93.023,337.139 92.176,336.412 89.753 C 336.085 88.663,335.418 86.422,334.929 84.771 C 331.754 74.049,323.453 59.737,315.192 50.743 C 314.222 49.687,313.264 48.590,313.063 48.306 C 312.454 47.444,304.336 40.174,300.959 37.466 C 287.044 26.307,267.788 17.826,248.612 14.409 C 245.971 13.939,242.933 13.469,241.860 13.364 C 240.788 13.260,238.965 13.038,237.809 12.871 C 234.492 12.391,225.133 12.135,218.905 12.353 " stroke="none" fill="#fbfbfb" fill-rule="evenodd"/></g></svg>